<?xml version="1.0" encoding="UTF-8"?>
<svg width="200px" height="109px" viewBox="0 0 200 109" version="1.1" xmlns="http://www.w3.org/2000/svg" xmlns:xlink="http://www.w3.org/1999/xlink">
    <!-- Generator: sketchtool 51.2 (57519) - http://www.bohemiancoding.com/sketch -->
    <title>6E1A63CC-501C-4F7B-8E33-82413064BB6E</title>
    <desc>Created with sketchtool.</desc>
    <defs>
        <path d="M0.0441501104,3.75275938 C0.0441501104,1.89845475 1.54525386,0.397350993 3.3995585,0.397350993 L4.59161148,0.397350993 C6.44591611,0.397350993 7.94701987,1.89845475 7.94701987,3.75275938 L7.94701987,5.87196468 C7.94701987,7.72626932 6.44591611,9.22737307 4.59161148,9.22737307 L3.3995585,9.22737307 C1.54525386,9.22737307 0.0441501104,7.72626932 0.0441501104,5.87196468 L0.0441501104,3.75275938 Z" id="path-1"></path>
    </defs>
    <g id="Page-1" stroke="none" stroke-width="1" fill="none" fill-rule="evenodd">
        <g id="Circuit_info_05" transform="translate(-785.000000, -168.000000)">
            <g id="assets/circuits_info/108" transform="translate(785.000000, 160.000000)">
                <g id="assets/circuits_info/Circuitoftheamericas" transform="translate(0.000000, 8.500000)">
                    <g id="trazado" transform="translate(11.479029, 1.324503)" fill="#B7B5B6" fill-rule="nonzero">
                        <path d="M182.075055,1.67770419 C181.412804,0.750551876 180.529801,0.264900662 179.381898,0.264900662 C178.896247,0.264900662 178.366446,0.353200883 177.571744,0.529801325 C177.527594,0.529801325 177.483444,0.529801325 177.439294,0.573951435 C177.350993,0.618101545 169.889625,2.91390728 167.019868,3.75275938 C166.666667,3.8410596 166.136865,4.01766004 165.518764,4.19426049 C160.838852,5.60706402 149.845475,8.87417219 137.350993,11.7880795 C121.236203,15.584989 101.192053,18.3222958 100.971302,18.3664459 C100.927152,18.3664459 94.1280353,19.205298 86.0927152,20 C78.3664459,20.794702 68.5651214,21.8984547 67.9470199,21.986755 C67.2406181,22.0309051 65.5187638,22.2516556 64.8565121,23.6644592 C64.5916115,24.1942605 64.2825607,25.2538631 65.209713,26.5783664 C65.6512141,27.196468 66.5783664,28.4326711 67.6821192,29.8896247 C69.580574,32.3620309 71.8763797,35.4083885 72.7152318,36.6887417 C73.995585,38.7196468 75.4966887,41.3245033 75.5408389,41.3686534 L75.5408389,41.4128035 C75.6291391,41.589404 75.7174393,41.8543046 75.6732892,41.9426049 C75.6291391,42.0309051 75.584989,42.0750552 75.584989,42.0750552 C75.584989,42.0750552 75.584989,42.0750552 75.5408389,42.0750552 C75.0551876,41.986755 72.3620309,41.8984547 70.1545254,41.8543046 C70.0662252,41.8543046 69.7130243,41.7218543 69.5364238,41.192053 C69.0066225,39.5584989 68.7417219,38.8520971 68.6975717,38.7196468 C68.6092715,38.410596 68.0794702,36.9536424 66.8874172,35.6291391 C65.8719647,34.4812362 64.1942605,32.6710817 64.01766,32.4944812 C63.7086093,32.1412804 62.6490066,31.0375276 61.0154525,30.7284768 C59.8675497,30.5077263 57.8807947,30.3311258 57.4392936,30.3311258 C57.3068433,30.3311258 57.1743929,30.2869757 56.9536424,30.2869757 C55.6291391,30.2869757 54.5253863,31.0375276 54.0838852,32.3178808 C53.4657837,33.9514349 54.1721854,35.2759382 54.6136865,36.0706402 C54.7019868,36.2030905 54.7461369,36.3355408 54.790287,36.4679912 C55.187638,37.3068433 60.1766004,46.004415 61.2362031,47.7704194 L62.3399558,49.9337748 C62.4724062,50.2428256 62.8697572,51.214128 62.8697572,51.9646799 C62.8256071,53.2891832 62.7373068,53.8189845 62.4282561,54.7461369 C62.1192053,55.7615894 61.0596026,57.9690949 61.0596026,58.013245 C61.0596026,58.0573951 61.0596026,58.0573951 61.0154525,58.1015453 C60.9271523,58.3222958 60.5739514,58.8520971 60.1324503,59.1169978 C58.9845475,59.7350993 53.995585,62.0309051 53.9514349,62.0309051 C53.9514349,62.0309051 53.9072848,62.0309051 53.9072848,62.0750552 C53.9072848,62.0750552 53.2891832,62.3399558 52.3620309,62.3399558 C52.0971302,62.3399558 51.8322296,62.3399558 51.611479,62.2958057 L51.0375276,62.2075055 C49.183223,61.9426049 47.2847682,61.6777042 45.6512141,60.8388521 C43.7969095,59.9116998 43.7086093,59.8233996 42.6490066,58.3222958 C42.1633554,57.6600442 41.5011038,56.6887417 40.7505519,55.6732892 C39.5584989,53.995585 38.4547461,52.4503311 38.013245,51.8763797 C37.1302428,50.7726269 32.8476821,45.2538631 32.6269316,44.9006623 C31.9646799,43.9293598 30.5960265,42.2075055 28.7417219,41.9426049 C28.4326711,41.8984547 28.0794702,41.8543046 27.7704194,41.8543046 C26.4459161,41.8543046 25.0772627,42.2075055 23.2229581,43.0022075 L2.9580574,51.8322296 C2.03090508,52.2295806 0.353200883,53.4216336 0.264900662,55.3200883 C0.176600442,57.3951435 1.98675497,58.6754967 2.91390728,59.3818985 L2.9580574,59.3818985 C3.04635762,59.4701987 3.13465784,59.5143488 3.22295806,59.5584989 C3.75275938,59.9558499 16.5121413,70.1986755 21.986755,74.5695364 L22.3399558,74.8344371 L50.7284768,97.3509934 L50.7726269,97.3951435 C51.0375276,97.5717439 56.8211921,101.898455 60.7064018,103.97351 C60.9713024,104.10596 62.3399558,104.812362 63.6644592,104.812362 C64.812362,104.812362 65.4746137,104.326711 65.8278146,103.92936 C67.0640177,102.560706 66.4459161,100.529801 66.3134658,100.13245 L62.6048565,88.8300221 C62.6048565,88.785872 62.6048565,88.785872 62.5607064,88.7417219 C61.986755,87.1081678 61.3686534,84.8565121 61.3686534,84.01766 C61.4128035,82.4724062 61.8984547,78.6313466 65.1655629,76.5562914 C68.8741722,74.2163355 77.6600442,68.8741722 79.4260486,67.8587196 L79.4701987,67.8145695 C79.5584989,67.7704194 82.2516556,66.1368653 83.6203091,62.7373068 C84.6357616,60.2649007 84.9448124,59.3818985 85.0331126,59.1169978 C85.0772627,58.9845475 85.3863135,58.3222958 85.9161148,57.7924945 C86.6225166,57.1302428 87.6379691,56.6887417 89.0949227,56.1589404 C91.0816777,55.4525386 92.9359823,54.3046358 93.6865342,53.3333333 C94.392936,52.4503311 95.187638,51.0816777 95.4966887,48.3002208 C95.7174393,46.2251656 95.98234,43.8852097 96.9977925,42.8256071 C98.2781457,41.4128035 102.516556,38.5871965 104.415011,38.5871965 L104.459161,38.5871965 L104.503311,38.5871965 C104.503311,38.5871965 104.547461,38.5871965 104.547461,38.5871965 C104.679912,38.5871965 105.607064,38.6313466 107.064018,39.2935982 C108.785872,40.0883002 115.540839,43.1346578 115.629139,43.1346578 C115.717439,43.1788079 116.732892,43.5761589 117.836645,43.5761589 C117.924945,43.5761589 117.969095,43.5761589 118.057395,43.5761589 C119.779249,43.4878587 122.384106,41.5452539 123.134658,40.9271523 C124.724062,39.6909492 126.490066,37.8807947 127.328918,36.6445916 C127.417219,36.5121413 127.505519,36.3796909 127.593819,36.2472406 L127.593819,36.2030905 C128.256071,35.187638 128.830022,34.1721854 130.905077,34.0838852 C130.949227,34.0838852 130.949227,34.0838852 130.993377,34.0838852 C130.993377,34.0838852 131.081678,34.0838852 131.169978,34.0838852 C131.611479,34.0838852 132.759382,34.1721854 133.421634,34.9227373 C133.951435,35.5408389 134.216336,36.0264901 134.481236,36.5121413 C134.878587,37.3068433 135.408389,38.2781457 136.688742,38.7637969 C137.350993,38.9845475 137.924945,39.1169978 138.543046,39.1169978 C139.116998,39.1169978 139.514349,39.0286976 139.8234,38.9403974 C139.86755,38.9403974 139.9117,38.8962472 140,38.8962472 C140.529801,38.807947 155.408389,35.7174393 156.07064,35.584989 C156.379691,35.5408389 158.057395,35.1434879 159.249448,33.6423841 C160.04415,32.6269316 168.565121,22.4724062 168.653422,22.3399558 L176.600442,12.8918322 C176.600442,12.8918322 178.366446,10.816777 179.558499,9.18322296 C180.618102,7.63796909 181.898455,5.38631347 182.075055,5.07726269 C182.604857,4.19426049 182.913907,2.82560706 182.075055,1.67770419 Z M65.6953642,24.0618102 C65.7836645,23.8852097 65.9161148,23.7086093 66.0485651,23.5761589 C65.9161148,23.7086093 65.7836645,23.8852097 65.6953642,24.0618102 Z M54.9227373,32.5827815 C54.8785872,32.7593819 54.8344371,32.9359823 54.790287,33.0684327 C54.790287,32.9359823 54.8344371,32.7593819 54.9227373,32.5827815 C54.9668874,32.4503311 55.0110375,32.3620309 55.0551876,32.2737307 C55.0110375,32.3620309 54.9668874,32.4944812 54.9227373,32.5827815 Z M56.7328918,33.2891832 C56.6887417,33.4216336 56.6887417,33.5540839 56.6887417,33.7306843 C56.6887417,33.5540839 56.6887417,33.4216336 56.7328918,33.2891832 C56.7770419,33.2450331 56.7770419,33.200883 56.8211921,33.1567329 C56.7770419,33.1567329 56.7770419,33.200883 56.7328918,33.2891832 Z M65.209713,103.267108 C65.5187638,102.958057 65.6512141,102.560706 65.6953642,102.163355 C65.6512141,102.560706 65.5187638,102.958057 65.209713,103.267108 C65.1655629,103.311258 65.1214128,103.355408 65.0331126,103.443709 C65.1214128,103.399558 65.1655629,103.311258 65.209713,103.267108 Z M63.6644592,101.942605 C63.7086093,101.942605 63.7086093,101.942605 63.7527594,101.942605 C63.7527594,101.942605 63.7086093,101.942605 63.6644592,101.942605 C63.6203091,101.942605 63.5320088,101.942605 63.4878587,101.942605 C63.5761589,101.942605 63.6203091,101.942605 63.6644592,101.942605 Z M167.064018,4.63576159 C166.843267,4.6799117 166.578366,4.76821192 166.313466,4.85651214 C166.578366,4.76821192 166.843267,4.6799117 167.064018,4.63576159 Z M166.357616,6.88741722 C166.578366,6.799117 166.799117,6.75496689 167.019868,6.71081678 C166.799117,6.75496689 166.578366,6.799117 166.357616,6.88741722 C166.181015,6.93156733 165.960265,7.01986755 165.783664,7.06401766 C165.960265,6.97571744 166.136865,6.93156733 166.357616,6.88741722 Z M160.971302,8.47682119 C160.220751,8.69757174 159.470199,8.9183223 158.631347,9.13907285 C159.470199,8.9183223 160.220751,8.69757174 160.971302,8.47682119 Z M137.571744,12.6269316 C138.145695,12.4944812 138.763797,12.3620309 139.337748,12.2295806 C138.763797,12.3620309 138.145695,12.4944812 137.571744,12.6269316 C136.600442,12.8476821 135.673289,13.0684327 134.657837,13.2891832 C135.673289,13.0684327 136.644592,12.8476821 137.571744,12.6269316 Z M67.8587196,22.8697572 C67.9470199,22.8697572 68.0353201,22.8697572 68.0794702,22.8697572 C68.1236203,22.8697572 68.1677704,22.8697572 68.2119205,22.8697572 C68.1236203,22.8697572 68.0794702,22.8697572 68.0794702,22.8697572 C67.99117,22.8697572 67.9470199,22.8697572 67.8587196,22.8697572 Z M68.2560706,24.812362 C68.2119205,24.812362 68.2119205,24.812362 68.1677704,24.812362 C68.2119205,24.812362 68.2119205,24.812362 68.2560706,24.812362 C68.2560706,24.812362 68.4326711,24.812362 68.7417219,24.7682119 C68.4326711,24.7682119 68.2560706,24.812362 68.2560706,24.812362 Z M70.0220751,28.2119205 C69.8013245,27.9470199 69.6247241,27.6821192 69.4481236,27.4172185 C69.6247241,27.6821192 69.8013245,27.9470199 70.0220751,28.2119205 C70.6401766,29.0507726 71.3024283,29.9337748 71.9646799,30.816777 C71.3024283,29.8896247 70.6401766,29.0066225 70.0220751,28.2119205 Z M73.5099338,36.2472406 C73.4216336,36.0706402 73.2891832,35.8940397 73.1125828,35.6732892 C73.2891832,35.8940397 73.3774834,36.0706402 73.5099338,36.2472406 C73.8189845,36.7770419 74.1721854,37.3068433 74.4812362,37.8366446 C74.1721854,37.3068433 73.8189845,36.7770419 73.5099338,36.2472406 Z M75.6291391,43.0022075 C75.98234,43.0022075 76.2913907,42.8256071 76.5121413,42.4282561 C76.2913907,42.781457 75.98234,43.0022075 75.6291391,43.0022075 C75.584989,43.0022075 75.5408389,43.0022075 75.4966887,43.0022075 C75.5408389,43.0022075 75.584989,43.0022075 75.6291391,43.0022075 Z M76.1589404,40.7064018 C76.2472406,40.8830022 76.2913907,40.9713024 76.2913907,40.9713024 C76.2913907,40.9713024 76.2913907,40.9713024 76.2913907,40.9713024 C76.2913907,40.9713024 76.2913907,40.9713024 76.2913907,40.9713024 C76.3355408,40.9713024 76.2913907,40.8830022 76.1589404,40.7064018 Z M76.4238411,41.192053 C76.4679912,41.2803532 76.5121413,41.3686534 76.5121413,41.5011038 C76.5121413,41.3686534 76.4679912,41.2803532 76.4238411,41.192053 Z M75.6291391,44.9448124 C75.4525386,44.9448124 75.3200883,44.9448124 75.1434879,44.9006623 C75.3200883,44.9448124 75.4525386,44.9448124 75.6291391,44.9448124 Z M67.7262693,38.4988962 C67.6821192,38.3664459 67.593819,38.1898455 67.5055188,37.9690949 C67.5496689,38.1898455 67.6379691,38.3664459 67.7262693,38.4988962 Z M64.9448124,37.7041943 C64.9006623,37.6600442 64.8565121,37.5717439 64.812362,37.5275938 C64.6799117,37.3951435 64.5474614,37.218543 64.415011,37.0419426 C64.5474614,37.218543 64.6799117,37.3509934 64.812362,37.5275938 C64.8565121,37.5717439 64.9006623,37.615894 64.9448124,37.7041943 Z M64.5474614,34.3046358 C64.3267108,34.0838852 64.1501104,33.8631347 63.9735099,33.6865342 C64.1501104,33.8189845 64.3267108,34.0397351 64.5474614,34.3046358 Z M61.8543046,58.3664459 C61.8543046,58.3664459 61.8101545,58.4547461 61.7660044,58.5430464 C61.8101545,58.4547461 61.8543046,58.410596 61.8543046,58.3664459 Z M60.5739514,59.8233996 C60.6622517,59.7792494 60.794702,59.6909492 60.8830022,59.6467991 C60.794702,59.6909492 60.7064018,59.7350993 60.5739514,59.8233996 C60.4856512,59.8675497 60.397351,59.9116998 60.3090508,59.9558499 C60.4415011,59.9116998 60.5298013,59.8675497 60.5739514,59.8233996 Z M51.214128,65.0331126 C51.3907285,65.0772627 51.611479,65.0772627 51.7880795,65.0772627 C51.611479,65.0772627 51.4348786,65.0331126 51.214128,65.0331126 L50.9050773,64.9889625 L51.214128,65.0331126 Z M30.2869757,46.401766 C30.3311258,46.4459161 30.3752759,46.5342163 30.4635762,46.6666667 C30.419426,46.5342163 30.3311258,46.4459161 30.2869757,46.401766 C30.1545254,46.2251656 30.0220751,46.0485651 29.8896247,45.8719647 C30.0662252,46.0485651 30.1986755,46.2251656 30.2869757,46.401766 Z M28.4326711,44.6799117 C28.4768212,44.6799117 28.5209713,44.7240618 28.5651214,44.7240618 C28.5209713,44.7240618 28.4768212,44.6799117 28.4326711,44.6799117 C28.2119205,44.6357616 28.0353201,44.6357616 27.8145695,44.6357616 C27.99117,44.6357616 28.2119205,44.6799117 28.4326711,44.6799117 Z M4.63576159,57.0419426 C4.59161148,56.9977925 4.50331126,56.9536424 4.41501104,56.9094923 C4.50331126,56.9536424 4.54746137,56.9977925 4.63576159,57.0419426 C4.6799117,57.0860927 4.76821192,57.1302428 4.81236203,57.1743929 C4.76821192,57.1302428 4.6799117,57.0860927 4.63576159,57.0419426 Z M52.5386313,95.0993377 C52.5386313,95.0993377 52.4944812,95.0551876 52.4944812,95.0551876 L24.1059603,72.5827815 L52.4944812,95.0551876 C52.4944812,95.0993377 52.4944812,95.0993377 52.5386313,95.0993377 C52.5827815,95.1434879 52.7152318,95.2317881 52.8476821,95.3200883 C52.7152318,95.2317881 52.5827815,95.1434879 52.5386313,95.0993377 Z M61.7660044,88.9624724 C61.7218543,88.785872 61.6335541,88.6092715 61.589404,88.388521 C61.6777042,88.6092715 61.7218543,88.8300221 61.7660044,88.9624724 Z M61.0154525,76.5121413 C61.3686534,76.0706402 61.7218543,75.6291391 62.1633554,75.2317881 C61.7660044,75.6291391 61.3686534,76.0706402 61.0154525,76.5121413 Z M78.0573951,65.2980132 C78.0573951,65.2980132 78.1456954,65.2538631 78.2339956,65.1655629 C78.1015453,65.2538631 78.0573951,65.2980132 78.0573951,65.2980132 Z M79.0286976,66.9757174 C79.0286976,66.9757174 78.9845475,66.9757174 78.9403974,67.0198675 C79.0286976,67.0198675 79.0286976,66.9757174 79.0286976,66.9757174 C79.0286976,66.9757174 79.0728477,66.9757174 79.0728477,66.9315673 C79.0728477,66.9757174 79.0728477,66.9757174 79.0286976,66.9757174 Z M81.7218543,64.3708609 C81.5452539,64.6357616 81.3245033,64.8565121 81.1479029,65.0772627 C81.3686534,64.9006623 81.5452539,64.6357616 81.7218543,64.3708609 C82.0309051,63.9293598 82.3399558,63.4437086 82.6048565,62.9139073 C82.3399558,63.4437086 82.0309051,63.9293598 81.7218543,64.3708609 Z M82.4282561,58.013245 C82.4282561,58.0573951 82.4282561,58.0573951 82.4282561,58.013245 C82.4282561,58.0573951 82.4282561,58.0573951 82.4282561,58.013245 C82.4282561,58.013245 82.4724062,57.8807947 82.6048565,57.6600442 C82.5165563,57.8807947 82.4724062,58.013245 82.4282561,58.013245 Z M84.0618102,55.6732892 C83.9735099,55.7174393 83.9293598,55.8057395 83.8852097,55.8498896 C83.9293598,55.8057395 83.9735099,55.7174393 84.0618102,55.6732892 C84.1942605,55.5408389 84.3267108,55.4083885 84.4591611,55.3200883 C84.3267108,55.4083885 84.1942605,55.5408389 84.0618102,55.6732892 Z M93.1125828,52.7152318 C92.9801325,52.8918322 92.8476821,53.0242826 92.6269316,53.200883 C92.803532,53.0684327 92.9801325,52.8918322 93.1125828,52.7152318 C93.2891832,52.4944812 93.4657837,52.2295806 93.6423841,51.9205298 C93.4657837,52.2295806 93.2450331,52.4944812 93.1125828,52.7152318 Z M95.0110375,40.8388521 C94.6136865,41.2803532 94.2604857,41.8101545 93.995585,42.3399558 C94.2604857,41.7660044 94.6136865,41.2803532 95.0110375,40.8388521 C95.1434879,40.7064018 95.3200883,40.5298013 95.4966887,40.3532009 C95.2759382,40.5298013 95.1434879,40.6622517 95.0110375,40.8388521 Z M96.4679912,42.1633554 C96.3355408,42.2958057 96.2472406,42.4282561 96.1589404,42.5607064 C96.2472406,42.384106 96.3355408,42.2516556 96.4679912,42.1633554 C96.5562914,42.0750552 96.6445916,41.986755 96.7770419,41.8543046 C96.6445916,41.9426049 96.5562914,42.0309051 96.4679912,42.1633554 Z M108.344371,36.6004415 C108.12362,36.5121413 107.90287,36.4238411 107.726269,36.3355408 C107.94702,36.4238411 108.16777,36.5121413 108.344371,36.6004415 C108.388521,36.6445916 108.476821,36.6445916 108.565121,36.6887417 C108.476821,36.6887417 108.432671,36.6445916 108.344371,36.6004415 Z M116.865342,40.4415011 C116.865342,40.4415011 116.777042,40.397351 116.556291,40.3090508 C116.467991,40.2649007 116.379691,40.2207506 116.291391,40.1766004 C116.379691,40.2207506 116.467991,40.2649007 116.556291,40.3090508 C116.777042,40.397351 116.865342,40.4415011 116.865342,40.4415011 C116.865342,40.4415011 116.865342,40.4415011 116.865342,40.4415011 C116.865342,40.4415011 116.865342,40.4415011 116.865342,40.4415011 Z M117.969095,42.6490066 C117.924945,42.6490066 117.880795,42.6490066 117.880795,42.6490066 C117.969095,42.6490066 118.057395,42.6490066 118.145695,42.6490066 C118.057395,42.6490066 118.013245,42.6490066 117.969095,42.6490066 Z M126.710817,36.1147903 C126.313466,36.6887417 125.695364,37.4392936 124.988962,38.1456954 C124.282561,38.8520971 123.487859,39.602649 122.737307,40.2207506 C122.693157,40.2649007 122.472406,40.397351 122.251656,40.6181015 C122.516556,40.4415011 122.693157,40.3090508 122.737307,40.2207506 C123.487859,39.6467991 124.282561,38.8962472 124.988962,38.1456954 C125.695364,37.3951435 126.313466,36.6887417 126.710817,36.1147903 C126.754967,36.0264901 126.843267,35.9381898 126.887417,35.8057395 C126.843267,35.8940397 126.754967,35.98234 126.710817,36.1147903 Z M126.445916,33.1125828 C126.181015,33.3774834 125.960265,33.6865342 125.783664,33.9514349 C125.960265,33.6423841 126.181015,33.3774834 126.445916,33.1125828 C126.622517,32.9359823 126.799117,32.7593819 127.019868,32.5827815 C126.799117,32.7593819 126.622517,32.9359823 126.445916,33.1125828 Z M138.675497,38.1898455 C138.543046,38.1898455 138.410596,38.1898455 138.278146,38.1898455 C138.410596,38.1898455 138.543046,38.1898455 138.675497,38.1898455 Z M139.779249,38.0573951 C139.690949,38.0573951 139.646799,38.1015453 139.558499,38.1015453 C139.602649,38.0573951 139.690949,38.0573951 139.779249,38.0573951 C139.779249,38.0573951 139.779249,38.0573951 139.779249,38.0573951 C139.779249,38.0573951 139.779249,38.0573951 139.779249,38.0573951 Z M155.98234,34.7019868 C155.98234,34.7019868 155.93819,34.7019868 155.89404,34.7019868 C155.93819,34.7019868 155.98234,34.7019868 155.98234,34.7019868 C155.98234,34.7019868 156.02649,34.7019868 156.11479,34.6578366 C156.02649,34.6578366 155.98234,34.7019868 155.98234,34.7019868 Z M156.644592,32.2737307 C156.777042,32.1854305 156.909492,32.0529801 156.997792,31.9646799 C156.865342,32.0971302 156.777042,32.1854305 156.644592,32.2737307 Z M175.98234,12.3178808 L168.03532,21.7660044 L175.98234,12.3178808 C175.98234,12.3178808 175.98234,12.2737307 175.98234,12.3178808 C175.98234,12.2737307 175.98234,12.3178808 175.98234,12.3178808 Z M176.556291,7.01986755 C175.540839,8.47682119 173.818985,10.4635762 173.818985,10.4635762 L165.871965,19.9116998 L165.783664,20.0441501 C163.752759,22.4724062 157.130243,30.3752759 156.423841,31.3024283 C156.07064,31.7439294 155.452539,31.8763797 155.452539,31.8763797 L154.922737,31.9646799 C141.810155,34.7019868 139.558499,35.1434879 139.426049,35.187638 C139.337748,35.187638 139.293598,35.2317881 139.205298,35.2317881 L139.161148,35.2317881 C138.940397,35.2759382 138.807947,35.3200883 138.675497,35.3200883 C138.543046,35.3200883 138.366446,35.2759382 138.189845,35.2317881 C138.101545,35.0993377 138.013245,34.8785872 137.924945,34.7461369 C137.615894,34.1721854 137.174393,33.2891832 136.335541,32.3620309 C134.657837,30.5077263 132.273731,30.2869757 131.302428,30.2869757 C131.081678,30.2869757 130.905077,30.2869757 130.816777,30.2869757 C126.843267,30.5077263 125.298013,32.9801325 124.591611,34.1721854 L124.547461,34.2163355 C124.503311,34.3046358 124.415011,34.392936 124.370861,34.4812362 C123.84106,35.2759382 122.339956,36.8653422 120.971302,37.9249448 C119.470199,39.1169978 118.233996,39.6909492 117.969095,39.7792494 C117.704194,39.7792494 117.350993,39.6909492 117.262693,39.6467991 C116.909492,39.5143488 110.728477,36.6887417 108.741722,35.8057395 C106.666667,34.8785872 105.209713,34.7461369 104.679912,34.7461369 C104.635762,34.7461369 104.635762,34.7461369 104.591611,34.7461369 C101.147903,34.7461369 95.8940397,38.5871965 94.392936,40.2207506 C92.5827815,42.2075055 92.2295806,45.1655629 91.9646799,47.8145695 C91.7439294,49.9337748 91.1699779,50.6843267 90.9050773,50.9933775 C90.7284768,51.214128 89.580574,52.00883 87.9470199,52.5827815 C86.004415,53.2891832 84.6357616,53.9072848 83.4878587,55.0110375 C82.2958057,56.1147903 81.7218543,57.5275938 81.6777042,57.7041943 C81.6777042,57.7041943 81.6777042,57.7483444 81.6777042,57.7483444 C81.6777042,57.7924945 81.3686534,58.5871965 80.3090508,61.2362031 C79.4260486,63.4437086 77.7041943,64.5033113 77.6600442,64.5474614 L77.615894,64.5474614 C75.8940397,65.607064 67.0198675,70.9492274 63.2671082,73.3333333 C58.4988962,76.3796909 57.8366446,81.6777042 57.7483444,83.8410596 C57.7041943,85.7395143 58.8962472,89.2273731 59.1611479,89.9337748 L62.6931567,100.706402 C62.6490066,100.662252 62.6048565,100.662252 62.5607064,100.618102 C59.1169978,98.7637969 53.7748344,94.8344371 53.1125828,94.3487859 L24.7682119,71.8763797 L24.1059603,71.3465784 C12.406181,61.986755 6.00441501,56.8653422 5.60706402,56.5562914 C5.5187638,56.4679912 5.38631347,56.3796909 5.25386313,56.2913907 C4.63576159,55.8498896 4.32671082,55.584989 4.19426049,55.4083885 C4.28256071,55.3200883 4.45916115,55.2317881 4.54746137,55.187638 L24.8565121,46.3576159 C26.2251656,45.7836645 27.1523179,45.5187638 27.9028698,45.5187638 C28.0794702,45.5187638 28.2119205,45.5187638 28.388521,45.5629139 C28.5651214,45.607064 29.183223,46.1368653 29.6688742,46.8874172 C29.9779249,47.3730684 35.0110375,53.8189845 35.2317881,54.1280353 C35.6291391,54.6136865 36.7328918,56.2030905 37.8366446,57.7483444 C38.5430464,58.7196468 39.2494481,59.7350993 39.7350993,60.4415011 C41.1479029,62.4282561 41.7218543,62.9139073 44.0618102,64.1059603 C46.2251656,65.209713 48.5651214,65.5629139 50.5960265,65.8278146 L51.1699779,65.9161148 C51.611479,65.9602649 52.0529801,66.004415 52.4944812,66.004415 C54.2163355,66.004415 55.3642384,65.5187638 55.6732892,65.3421634 C56.8653422,64.7682119 60.8830022,62.9139073 61.986755,62.3399558 C63.6203091,61.4569536 64.3708609,59.8675497 64.5474614,59.5143488 C64.6799117,59.205298 65.6953642,57.0419426 66.0485651,55.8498896 C66.4459161,54.5695364 66.5783664,53.7748344 66.6666667,52.0971302 C66.7549669,50.1986755 65.8278146,48.388521 65.7395143,48.1677704 L64.6357616,46.004415 C64.6357616,45.9602649 64.5916115,45.9602649 64.5916115,45.9161148 C61.7218543,40.8830022 58.4988962,35.2759382 58.2339956,34.790287 C58.1456954,34.6136865 58.0573951,34.4370861 57.9690949,34.2604857 C57.9249448,34.2163355 57.9249448,34.1280353 57.8807947,34.0838852 C58.6313466,34.1721854 59.7350993,34.2604857 60.4415011,34.392936 C60.8388521,34.4812362 61.2362031,34.790287 61.3245033,34.9227373 C61.3245033,34.9668874 61.3686534,34.9668874 61.3686534,35.0110375 C61.4569536,35.0993377 63.2229581,36.9977925 64.1942605,38.1015453 C64.9448124,38.9403974 65.2538631,39.9116998 65.2538631,39.9116998 C65.2538631,39.9558499 65.2980132,40 65.2980132,40 C65.3421634,40.0441501 65.5629139,40.7064018 66.0927152,42.384106 C66.8874172,44.7682119 68.9183223,45.5187638 69.9779249,45.607064 C70.0220751,45.607064 70.0220751,45.607064 70.0662252,45.607064 C72.7152318,45.6953642 74.790287,45.7395143 75.0551876,45.7836645 C75.2317881,45.8278146 75.4525386,45.8278146 75.6291391,45.8278146 C77.0419426,45.8278146 78.2781457,45.0772627 78.9845475,43.7969095 C79.8233996,42.2958057 79.3818985,40.5739514 78.7637969,39.5584989 C78.4988962,39.0728477 77.0860927,36.6887417 75.8940397,34.790287 C75.0110375,33.3774834 72.6269316,30.2428256 70.6843267,27.7262693 L70.6843267,27.6821192 C70.1103753,26.9315673 69.580574,26.2251656 69.1390728,25.6512141 C71.6556291,25.3421634 79.8233996,24.4591611 86.4900662,23.7527594 C94.5253863,22.9139073 101.412804,22.0750552 101.456954,22.0750552 C101.677704,22.0309051 121.854305,19.2494481 138.189845,15.4083885 C150.816777,12.4503311 161.854305,9.13907285 166.534216,7.72626932 L166.622517,7.68211921 C167.196468,7.50551876 167.682119,7.37306843 167.99117,7.28476821 C170.596026,6.53421634 177.086093,4.50331126 178.233996,4.15011038 C177.836645,4.98896247 177.130243,6.18101545 176.556291,7.01986755 Z M60.5298013,84.1501104 C60.5298013,84.0618102 60.5298013,84.01766 60.5298013,83.9293598 C60.5298013,83.5320088 60.5739514,83.0022075 60.6622517,82.384106 C60.5739514,83.0022075 60.5298013,83.5320088 60.5298013,83.9293598 C60.5298013,83.9735099 60.5298013,84.0618102 60.5298013,84.1501104 Z M64.9006623,48.5651214 L64.5033113,47.8145695 L64.9006623,48.5651214 C64.9006623,48.5651214 64.9889625,48.6975717 65.0772627,48.8741722 C64.9448124,48.6975717 64.9006623,48.5651214 64.9006623,48.5651214 Z M65.1655629,55.5408389 C65.209713,55.4083885 65.2538631,55.2317881 65.2980132,55.0993377 C65.2538631,55.2759382 65.209713,55.4083885 65.1655629,55.5408389 C65.1214128,55.6732892 65.0772627,55.8498896 64.9889625,56.0264901 C65.0331126,55.8498896 65.1214128,55.7174393 65.1655629,55.5408389 Z M78.013245,39.9558499 C77.9690949,39.9116998 77.8807947,39.7350993 77.7483444,39.4701987 C77.8807947,39.7350993 78.013245,39.9116998 78.013245,39.9558499 C78.0573951,40 78.0573951,40.0441501 78.1015453,40.0883002 C78.0573951,40.0441501 78.0573951,40 78.013245,39.9558499 Z M78.2339956,43.3554084 C78.2781457,43.2671082 78.3222958,43.1788079 78.3664459,43.0905077 C78.3222958,43.1788079 78.2781457,43.2671082 78.2339956,43.3554084 C78.1456954,43.5320088 78.013245,43.6644592 77.9249448,43.8410596 C78.013245,43.6644592 78.1015453,43.5320088 78.2339956,43.3554084 Z M177.969095,9.88962472 C178.278146,9.49227373 178.587196,9.05077263 178.896247,8.65342163 C178.587196,9.05077263 178.278146,9.44812362 177.969095,9.88962472 Z M179.161148,3.09050773 C179.249448,3.09050773 179.293598,3.09050773 179.381898,3.09050773 C179.337748,3.09050773 179.249448,3.09050773 179.161148,3.09050773 Z M179.381898,1.14790287 C179.470199,1.14790287 179.602649,1.14790287 179.690949,1.14790287 C179.602649,1.14790287 179.470199,1.14790287 179.381898,1.14790287 Z M179.690949,3.62030905 C179.646799,3.62030905 179.646799,3.62030905 179.690949,3.62030905 C179.690949,3.66445916 179.646799,3.66445916 179.646799,3.70860927 C179.646799,3.66445916 179.646799,3.66445916 179.690949,3.62030905 C179.646799,3.62030905 179.646799,3.62030905 179.690949,3.62030905 C179.690949,3.57615894 179.735099,3.57615894 179.735099,3.53200883 C179.690949,3.57615894 179.690949,3.57615894 179.690949,3.62030905 Z M180.750552,1.54525386 C180.971302,1.7218543 181.192053,1.89845475 181.368653,2.16335541 C181.192053,1.89845475 180.971302,1.67770419 180.750552,1.54525386 Z" id="Shape"></path>
                    </g>
                    <g id="PUNTOS_INTERMEDIOS_Y_SEMAFORO" transform="translate(0.000000, 1.324503)">
                        <path d="M60.0883002,40.2649007 C60,40.0441501 60.1324503,39.8233996 60.3532009,39.7792494 L71.6556291,35.9381898 C71.8763797,35.8498896 72.0971302,35.98234 72.1412804,36.2030905 C72.2295806,36.4238411 72.0971302,36.6445916 71.8763797,36.6887417 L60.5739514,40.5298013 C60.397351,40.5739514 60.1766004,40.4856512 60.0883002,40.2649007 Z" id="Shape" fill="#AC1737" fill-rule="nonzero"></path>
                        <path d="M19.5145996,68.9265676 C19.4598654,68.705817 19.5419668,68.4850665 19.6788025,68.4409164 L26.6847909,64.5998568 C26.8216266,64.5115565 26.9584623,64.6440069 26.9858294,64.8647574 C27.0405637,65.085508 26.9584623,65.3062585 26.8216266,65.3504086 L19.8156382,69.1914682 C19.7061696,69.2356184 19.5693339,69.1473181 19.5145996,68.9265676 Z" id="Shape-Copy" fill="#AC1737" fill-rule="nonzero" transform="translate(23.250215, 66.887352) rotate(-17.000000) translate(-23.250215, -66.887352) "></path>
                        <path d="M20.3976018,64.5115565 C20.3428676,64.290806 20.424969,64.0700554 20.5618047,64.0259053 L27.5677931,60.1848457 C27.7046288,60.0965455 27.8414645,60.2289958 27.8688316,60.4497464 C27.9235659,60.6704969 27.8414645,60.8912475 27.7046288,60.9353976 L20.6986404,64.7764572 C20.5891718,64.8206073 20.4523361,64.7323071 20.3976018,64.5115565 Z" id="Shape-Copy-3" fill="#AC1737" fill-rule="nonzero" transform="translate(24.133217, 62.472341) rotate(-17.000000) translate(-24.133217, -62.472341) "></path>
                        <path d="M117.218543,23.0905077 C116.997792,23.1346578 116.821192,22.9580574 116.777042,22.7373068 L114.790287,8.30022075 C114.746137,8.0794702 114.922737,7.90286976 115.143488,7.85871965 C115.364238,7.81456954 115.540839,7.99116998 115.584989,8.21192053 L117.571744,22.6490066 C117.571744,22.8697572 117.395143,23.0463576 117.218543,23.0905077 Z" id="Shape" fill="#AC1737" fill-rule="nonzero"></path>
                        <path d="M120.264901,45.3863135 C120.04415,45.4304636 119.86755,45.2538631 119.8234,45.0331126 L117.880795,30.5960265 C117.836645,30.3752759 118.013245,30.1986755 118.233996,30.1545254 C118.454746,30.1103753 118.631347,30.2869757 118.675497,30.5077263 L120.662252,44.9448124 C120.618102,45.1655629 120.485651,45.3421634 120.264901,45.3863135 Z" id="Shape" fill="#AC1737" fill-rule="nonzero"></path>
                        <path d="M157.571744,15.8057395 C157.350993,15.8498896 157.174393,15.7174393 157.086093,15.4966887 L153.730684,1.32450331 C153.686534,1.10375276 153.818985,0.927152318 154.039735,0.838852097 C154.260486,0.794701987 154.437086,0.927152318 154.525386,1.14790287 L157.880795,15.3642384 C157.924945,15.584989 157.792494,15.7615894 157.571744,15.8057395 Z" id="Shape" fill="#AC1737" fill-rule="nonzero"></path>
                        <g id="Group" transform="translate(111.699779, 6.622517)" fill-rule="nonzero">
                            <path d="M0.0883002208,3.62030905 C0.0883002208,1.76600442 1.58940397,0.264900662 3.44370861,0.264900662 L4.63576159,0.264900662 C6.49006623,0.264900662 7.99116998,1.76600442 7.99116998,3.62030905 L7.99116998,5.73951435 C7.99116998,7.59381898 6.49006623,9.09492274 4.63576159,9.09492274 L3.44370861,9.09492274 C1.58940397,9.09492274 0.0883002208,7.59381898 0.0883002208,5.73951435 L0.0883002208,3.62030905 Z" id="Shape" fill="#AC1737"></path>
                            <path d="M3.13465784,5.60706402 C3.3995585,5.87196468 3.75275938,6.00441501 4.10596026,6.00441501 C4.50331126,6.00441501 4.72406181,5.82781457 4.72406181,5.5187638 C4.72406181,5.20971302 4.50331126,5.1214128 4.15011038,4.98896247 L3.66445916,4.76821192 C3.31125828,4.63576159 2.91390728,4.32671082 2.91390728,3.79690949 C2.91390728,3.22295806 3.44370861,2.78145695 4.15011038,2.78145695 C4.59161148,2.78145695 4.98896247,2.9580574 5.29801325,3.26710817 L4.94481236,3.66445916 C4.72406181,3.48785872 4.45916115,3.35540839 4.15011038,3.35540839 C3.79690949,3.35540839 3.57615894,3.53200883 3.57615894,3.79690949 C3.57615894,4.06181015 3.8410596,4.19426049 4.15011038,4.32671082 L4.63576159,4.54746137 C5.07726269,4.72406181 5.38631347,4.98896247 5.38631347,5.5187638 C5.38631347,6.09271523 4.90066225,6.62251656 4.06181015,6.62251656 C3.57615894,6.62251656 3.09050773,6.44591611 2.73730684,6.09271523 L3.13465784,5.60706402 Z" id="Shape" fill="#FFFFFF"></path>
                        </g>
                        <g id="Group" transform="translate(9.713024, 53.421634)" fill-rule="nonzero">
                            <path d="M3.13705402e-15,16.6004415 C3.13705402e-15,14.7461369 1.50110375,13.2450331 3.3995585,13.2450331 L8.56512141,13.2450331 C10.419426,13.2450331 11.9205298,14.7461369 11.9205298,16.6004415 L11.9205298,18.7196468 C11.9205298,20.5739514 10.419426,22.0750552 8.56512141,22.0750552 L3.3995585,22.0750552 C1.54525386,22.0750552 0,20.5739514 0,18.7196468 L0,16.6004415 Z" id="Shape" fill="#AC1737"></path>
                            <path d="M17.218543,3.35540839 C17.218543,1.50110375 18.7196468,0 20.6181015,0 L25.7836645,0 C27.6379691,0 29.1390728,1.50110375 29.1390728,3.35540839 L29.1390728,5.47461369 C29.1390728,7.32891832 27.6379691,8.83002208 25.7836645,8.83002208 L20.6181015,8.83002208 C18.7637969,8.83002208 17.218543,7.32891832 17.218543,5.47461369 L17.218543,3.35540839 Z" id="Shape-Copy-2" fill="#AC1737"></path>
                            <g transform="translate(3.090508, 15.894040)" fill="#FFFFFF" id="Shape">
                                <polygon points="0.309050773 0.0441501104 2.51655629 0.0441501104 2.51655629 0.573951435 0.971302428 0.573951435 0.971302428 1.58940397 2.29580574 1.58940397 2.29580574 2.1192053 0.971302428 2.1192053 0.971302428 3.66445916 0.309050773 3.66445916"></polygon>
                                <polygon points="3.3995585 0.0441501104 4.06181015 0.0441501104 4.06181015 3.17880795 5.56291391 3.17880795 5.56291391 3.70860927 3.3995585 3.70860927"></polygon>
                            </g>
                        </g>
                        <g id="Group" transform="translate(55.629139, 33.995585)" fill-rule="nonzero">
                            <path d="M0.0441501104,3.44370861 C0.0441501104,1.58940397 1.54525386,0.0441501104 3.3995585,0.0441501104 L5.65121413,0.0441501104 C7.50551876,0.0441501104 9.05077263,1.54525386 9.05077263,3.44370861 L9.05077263,5.73951435 C9.05077263,7.59381898 7.54966887,9.09492274 5.65121413,9.09492274 L3.3995585,9.09492274 C1.54525386,9.09492274 0.0441501104,7.59381898 0.0441501104,5.73951435 L0.0441501104,3.44370861 Z" id="Shape" fill="#AC1737"></path>
                            <g transform="translate(2.207506, 2.207506)" fill="#FFFFFF" id="Shape">
                                <path d="M0.353200883,0.750551876 C0.353200883,0.529801325 0.529801325,0.397350993 0.750551876,0.397350993 C0.971302428,0.397350993 1.14790287,0.529801325 1.14790287,0.750551876 C1.14790287,0.971302428 0.971302428,1.10375276 0.750551876,1.10375276 C0.529801325,1.10375276 0.353200883,0.927152318 0.353200883,0.750551876 Z M0.397350993,1.58940397 L1.05960265,1.58940397 L1.05960265,4.32671082 L0.397350993,4.32671082 L0.397350993,1.58940397 Z"></path>
                                <path d="M2.20750552,3.48785872 C2.42825607,3.70860927 2.69315673,3.88520971 3.04635762,3.88520971 C3.44370861,3.88520971 3.70860927,3.66445916 3.70860927,3.35540839 C3.70860927,3.00220751 3.48785872,2.73730684 2.64900662,2.73730684 L2.64900662,2.25165563 C3.35540839,2.25165563 3.57615894,2.03090508 3.57615894,1.67770419 C3.57615894,1.36865342 3.35540839,1.19205298 3.04635762,1.19205298 C2.78145695,1.19205298 2.5607064,1.32450331 2.33995585,1.54525386 L1.98675497,1.14790287 C2.29580574,0.883002208 2.64900662,0.706401766 3.04635762,0.706401766 C3.70860927,0.706401766 4.19426049,1.05960265 4.19426049,1.63355408 C4.19426049,2.03090508 3.97350993,2.29580574 3.57615894,2.47240618 L3.57615894,2.51655629 C4.01766004,2.64900662 4.32671082,2.91390728 4.32671082,3.3995585 C4.32671082,4.06181015 3.75275938,4.41501104 3.09050773,4.41501104 C2.51655629,4.41501104 2.1192053,4.19426049 1.89845475,3.92935982 L2.20750552,3.48785872 Z"></path>
                            </g>
                        </g>
                        <g id="Group" transform="translate(116.556291, 43.267108)" fill-rule="nonzero">
                            <path d="M0.0441501104,3.75275938 C0.0441501104,1.89845475 1.54525386,0.397350993 3.44370861,0.397350993 L5.16556291,0.397350993 C7.01986755,0.397350993 8.56512141,1.89845475 8.56512141,3.75275938 L8.56512141,6.18101545 C8.56512141,8.03532009 7.06401766,9.58057395 5.16556291,9.58057395 L3.44370861,9.58057395 C1.58940397,9.58057395 0.0441501104,8.0794702 0.0441501104,6.18101545 L0.0441501104,3.75275938 Z" id="Shape" fill="#AC1737"></path>
                            <g transform="translate(2.207506, 2.649007)" fill="#FFFFFF" id="Shape">
                                <path d="M0.0883002208,0.706401766 C0.0883002208,0.485651214 0.264900662,0.353200883 0.485651214,0.353200883 C0.706401766,0.353200883 0.883002208,0.485651214 0.883002208,0.706401766 C0.883002208,0.927152318 0.706401766,1.05960265 0.485651214,1.05960265 C0.220750552,1.05960265 0.0883002208,0.927152318 0.0883002208,0.706401766 Z M0.132450331,1.54525386 L0.794701987,1.54525386 L0.794701987,4.28256071 L0.132450331,4.28256071 L0.132450331,1.54525386 Z"></path>
                                <path d="M1.89845475,3.79690949 L2.69315673,3.79690949 L2.69315673,1.45695364 L2.03090508,1.45695364 L2.03090508,1.05960265 C2.38410596,0.971302428 2.64900662,0.883002208 2.86975717,0.750551876 L3.35540839,0.750551876 L3.35540839,3.79690949 L4.06181015,3.79690949 L4.06181015,4.32671082 L1.89845475,4.32671082 L1.89845475,3.79690949 Z"></path>
                            </g>
                        </g>
                        <g id="Group" transform="translate(149.668874, 0.000000)" fill-rule="nonzero">
                            <path d="M0.309050773,3.44370861 C0.309050773,1.58940397 1.81015453,0.0441501104 3.66445916,0.0441501104 L5.87196468,0.0441501104 C7.72626932,0.0441501104 9.27152318,1.54525386 9.27152318,3.44370861 L9.27152318,5.69536424 C9.27152318,7.54966887 7.77041943,9.09492274 5.87196468,9.09492274 L3.66445916,9.09492274 C1.81015453,9.09492274 0.309050773,7.59381898 0.309050773,5.69536424 L0.309050773,3.44370861 Z" id="Shape" fill="#AC1737"></path>
                            <g transform="translate(2.649007, 2.207506)" fill="#FFFFFF" id="Shape">
                                <path d="M0.132450331,0.706401766 C0.132450331,0.485651214 0.309050773,0.353200883 0.529801325,0.353200883 C0.750551876,0.353200883 0.927152318,0.485651214 0.927152318,0.706401766 C0.927152318,0.927152318 0.750551876,1.05960265 0.529801325,1.05960265 C0.309050773,1.05960265 0.132450331,0.927152318 0.132450331,0.706401766 Z M0.220750552,1.58940397 L0.883002208,1.58940397 L0.883002208,4.32671082 L0.220750552,4.32671082 L0.220750552,1.58940397 Z"></path>
                                <path d="M1.76600442,3.92935982 C2.73730684,2.9580574 3.3995585,2.33995585 3.3995585,1.81015453 C3.3995585,1.41280353 3.17880795,1.19205298 2.82560706,1.19205298 C2.5607064,1.19205298 2.33995585,1.36865342 2.1192053,1.58940397 L1.76600442,1.23620309 C2.07505519,0.883002208 2.42825607,0.706401766 2.91390728,0.706401766 C3.57615894,0.706401766 4.06181015,1.14790287 4.06181015,1.81015453 C4.06181015,2.42825607 3.48785872,3.09050773 2.78145695,3.8410596 C2.9580574,3.8410596 3.22295806,3.79690949 3.35540839,3.79690949 L4.2384106,3.79690949 L4.2384106,4.32671082 L1.76600442,4.32671082 L1.76600442,3.92935982 Z"></path>
                            </g>
                        </g>
                        <g id="Group" transform="translate(37.527594, 74.613687)" fill="#7B7C7D" fill-rule="nonzero">
                            <path d="M0.138562418,9.36593549 C-0.0380380237,9.23348516 -0.0380380237,8.96858449 0.0944123074,8.83613416 L7.11427986,0.138562418 C7.24673019,-0.0380380237 7.46748074,-0.0380380237 7.64408118,0.0944123074 L13.7367964,4.99507456 C13.9133969,5.12752489 13.9133969,5.39242555 13.7809465,5.52487588 C13.6484962,5.70147633 13.3835955,5.70147633 13.2511452,5.56902599 L7.59993107,1.02156463 C7.55578096,0.977414515 7.42333063,0.977414515 7.37918052,1.06571474 L0.712513853,9.32178538 C0.535913411,9.45423571 0.271012749,9.49838582 0.138562418,9.36593549 Z" id="Shape"></path>
                            <path d="M14.4125583,6.55833986 C14.5891587,6.60248997 14.721609,6.42588953 14.6774589,6.24928909 L14.1035075,4.74818533 L13.529556,3.24708158 C13.4854059,3.07048114 13.2205053,3.02633103 13.1322051,3.20293147 L12.1167525,4.48328467 L11.1013,5.76363787 C10.9688496,5.8960882 11.0571499,6.11683876 11.2337503,6.16098887 L12.8231543,6.42588953 L14.4125583,6.55833986 Z" id="Shape"></path>
                        </g>
                        <g id="Group" transform="translate(0.000000, 65.783664)">
                            <path d="M0.0441501104,3.3995585 C0.0441501104,1.54525386 1.54525386,0.0441501104 3.3995585,0.0441501104 L6.401766,0.0441501104 C8.25607064,0.0441501104 9.75717439,1.54525386 9.75717439,3.3995585 L9.75717439,7.06401766 C9.75717439,8.9183223 8.25607064,10.419426 6.401766,10.419426 L3.3995585,10.419426 C1.54525386,10.419426 0.0441501104,8.9183223 0.0441501104,7.06401766 L0.0441501104,3.3995585 Z" id="Shape" fill="#7B7C7D" fill-rule="nonzero"></path>
                            <g transform="translate(0.883002, 0.441501)" fill-rule="nonzero" id="Shape">
                                <path d="M3.48785872,9.00662252 C1.76600442,9.00662252 0.353200883,7.59381898 0.353200883,5.87196468 L0.353200883,3.75275938 C0.353200883,2.03090508 1.76600442,0.618101545 3.48785872,0.618101545 L4.6799117,0.618101545 C6.401766,0.618101545 7.81456954,2.03090508 7.81456954,3.75275938 L7.81456954,5.87196468 C7.81456954,7.59381898 6.401766,9.00662252 4.6799117,9.00662252 L3.48785872,9.00662252 Z" fill="#FFFFFF"></path>
                                <path d="M4.6799117,0.794701987 C6.31346578,0.794701987 7.59381898,2.1192053 7.59381898,3.70860927 L7.59381898,5.82781457 C7.59381898,7.46136865 6.26931567,8.74172185 4.6799117,8.74172185 L3.48785872,8.74172185 C1.85430464,8.74172185 0.573951435,7.41721854 0.573951435,5.82781457 L0.573951435,3.70860927 C0.573951435,2.07505519 1.89845475,0.794701987 3.48785872,0.794701987 L4.6799117,0.794701987 Z M4.6799117,0.353200883 L3.48785872,0.353200883 C1.63355408,0.353200883 0.132450331,1.85430464 0.132450331,3.70860927 L0.132450331,5.82781457 C0.132450331,7.68211921 1.63355408,9.18322296 3.48785872,9.18322296 L4.6799117,9.18322296 C6.53421634,9.18322296 8.03532009,7.68211921 8.03532009,5.82781457 L8.03532009,3.70860927 C8.0794702,1.89845475 6.53421634,0.353200883 4.6799117,0.353200883 Z" fill="#C7C6C5"></path>
                            </g>
                            <g id="Clipped" transform="translate(0.883002, 0.441501)">
                                <mask id="mask-2" fill="white">
                                    <use xlink:href="#path-1"></use>
                                </mask>
                                <g id="SVGID_15_"></g>
                                <g id="Group" mask="url(#mask-2)" fill="#1E1E1C" fill-rule="nonzero">
                                    <g transform="translate(-2.649007, 0.883002)" id="Rectangle-path">
                                        <rect x="0.353200883" y="0.220750552" width="1.85430464" height="1.85430464"></rect>
                                        <rect x="2.20750552" y="2.07505519" width="1.85430464" height="1.85430464"></rect>
                                        <rect x="4.06181015" y="0.220750552" width="1.85430464" height="1.85430464"></rect>
                                        <rect x="5.87196468" y="2.07505519" width="1.85430464" height="1.85430464"></rect>
                                        <rect x="0.353200883" y="3.88520971" width="1.85430464" height="1.85430464"></rect>
                                        <rect x="2.20750552" y="5.73951435" width="1.85430464" height="1.85430464"></rect>
                                        <rect x="4.06181015" y="3.88520971" width="1.85430464" height="1.85430464"></rect>
                                        <rect x="5.87196468" y="5.73951435" width="1.85430464" height="1.85430464"></rect>
                                        <rect x="7.72626932" y="0.220750552" width="1.85430464" height="1.85430464"></rect>
                                        <rect x="9.58057395" y="2.07505519" width="1.85430464" height="1.85430464"></rect>
                                        <rect x="7.72626932" y="3.88520971" width="1.85430464" height="1.85430464"></rect>
                                        <rect x="9.58057395" y="5.73951435" width="1.85430464" height="1.85430464"></rect>
                                    </g>
                                </g>
                            </g>
                            <path d="M5.56291391,1.23620309 C7.19646799,1.23620309 8.47682119,2.5607064 8.47682119,4.15011038 L8.47682119,6.26931567 C8.47682119,7.90286976 7.15231788,9.18322296 5.56291391,9.18322296 L4.37086093,9.18322296 C2.73730684,9.18322296 1.45695364,7.85871965 1.45695364,6.26931567 L1.45695364,4.15011038 C1.45695364,2.51655629 2.78145695,1.23620309 4.37086093,1.23620309 L5.56291391,1.23620309 Z M5.56291391,0.794701987 L4.37086093,0.794701987 C2.51655629,0.794701987 1.01545254,2.29580574 1.01545254,4.15011038 L1.01545254,6.26931567 C1.01545254,8.12362031 2.51655629,9.62472406 4.37086093,9.62472406 L5.56291391,9.62472406 C7.41721854,9.62472406 8.9183223,8.12362031 8.9183223,6.26931567 L8.9183223,4.15011038 C8.96247241,2.33995585 7.41721854,0.794701987 5.56291391,0.794701987 Z" id="Shape" fill="#C7C6C5" fill-rule="nonzero"></path>
                        </g>
                        <path d="M26.9315673,87.0198675 C26.9315673,85.1655629 28.4326711,83.6644592 30.2869757,83.6644592 L41.6777042,83.6644592 C43.5320088,83.6644592 45.0331126,85.1655629 45.0331126,87.0198675 L45.0331126,90.6843267 C45.0331126,92.5386313 43.5320088,94.0397351 41.6777042,94.0397351 L30.3311258,94.0397351 C28.4768212,94.0397351 26.9757174,92.5386313 26.9757174,90.6843267 L26.9757174,87.0198675 L26.9315673,87.0198675 Z" id="Shape" fill="#7B7C7D" fill-rule="nonzero"></path>
                        <g id="Group" transform="translate(27.373068, 84.326711)" fill-rule="nonzero">
                            <g id="Shape">
                                <path d="M3.66445916,8.74172185 C1.94260486,8.74172185 0.529801325,7.32891832 0.529801325,5.60706402 L0.529801325,3.48785872 C0.529801325,1.76600442 1.94260486,0.353200883 3.66445916,0.353200883 L4.85651214,0.353200883 C6.57836645,0.353200883 7.99116998,1.76600442 7.99116998,3.48785872 L7.99116998,5.60706402 C7.99116998,7.32891832 6.57836645,8.74172185 4.85651214,8.74172185 L3.66445916,8.74172185 Z" fill="#C01724"></path>
                                <path d="M4.85651214,0.573951435 C6.49006623,0.573951435 7.77041943,1.89845475 7.77041943,3.48785872 L7.77041943,5.60706402 C7.77041943,7.2406181 6.44591611,8.5209713 4.85651214,8.5209713 L3.66445916,8.5209713 C2.03090508,8.5209713 0.750551876,7.19646799 0.750551876,5.60706402 L0.750551876,3.48785872 C0.750551876,1.85430464 2.07505519,0.573951435 3.66445916,0.573951435 L4.85651214,0.573951435 Z M4.85651214,0.132450331 L3.66445916,0.132450331 C1.81015453,0.132450331 0.309050773,1.63355408 0.309050773,3.48785872 L0.309050773,5.60706402 C0.309050773,7.46136865 1.81015453,8.96247241 3.66445916,8.96247241 L4.85651214,8.96247241 C6.71081678,8.96247241 8.21192053,7.46136865 8.21192053,5.60706402 L8.21192053,3.48785872 C8.25607064,1.63355408 6.71081678,0.132450331 4.85651214,0.132450331 Z" fill="#AA1920"></path>
                            </g>
                            <g transform="translate(8.830022, 0.000000)" id="Shape">
                                <path d="M3.57615894,8.74172185 C1.85430464,8.74172185 0.441501104,7.32891832 0.441501104,5.60706402 L0.441501104,3.48785872 C0.441501104,1.76600442 1.85430464,0.353200883 3.57615894,0.353200883 L4.76821192,0.353200883 C6.49006623,0.353200883 7.90286976,1.76600442 7.90286976,3.48785872 L7.90286976,5.60706402 C7.90286976,7.32891832 6.49006623,8.74172185 4.76821192,8.74172185 L3.57615894,8.74172185 Z" fill="#009548"></path>
                                <path d="M4.76821192,0.573951435 C6.401766,0.573951435 7.68211921,1.89845475 7.68211921,3.48785872 L7.68211921,5.60706402 C7.68211921,7.2406181 6.35761589,8.5209713 4.76821192,8.5209713 L3.57615894,8.5209713 C1.94260486,8.5209713 0.662251656,7.19646799 0.662251656,5.60706402 L0.662251656,3.48785872 C0.662251656,1.85430464 1.98675497,0.573951435 3.57615894,0.573951435 L4.76821192,0.573951435 Z M4.76821192,0.132450331 L3.57615894,0.132450331 C1.7218543,0.132450331 0.220750552,1.63355408 0.220750552,3.48785872 L0.220750552,5.60706402 C0.220750552,7.46136865 1.7218543,8.96247241 3.57615894,8.96247241 L4.76821192,8.96247241 C6.62251656,8.96247241 8.12362031,7.46136865 8.12362031,5.60706402 L8.12362031,3.48785872 C8.12362031,1.63355408 6.62251656,0.132450331 4.76821192,0.132450331 Z" fill="#006139"></path>
                            </g>
                        </g>
                    </g>
                    <g id="textos_y_numeros" transform="translate(4.415011, 0.000000)" fill="#7B7C7D" fill-rule="nonzero">
                        <path d="M75.4083885,107.064018 L76.1589404,107.064018 L76.1589404,105.298013 L75.4966887,105.298013 L75.4966887,104.724062 C75.8940397,104.635762 76.1589404,104.547461 76.3796909,104.370861 L77.0860927,104.370861 L77.0860927,107.064018 L77.7041943,107.064018 L77.7041943,107.81457 L75.4083885,107.81457 L75.4083885,107.064018 Z" id="Shape"></path>
                        <path d="M71.9205298,83.3995585 C72.7593819,82.6490066 73.3774834,82.0750552 73.3774834,81.589404 C73.3774834,81.2803532 73.200883,81.1479029 72.9359823,81.1479029 C72.7152318,81.1479029 72.5386313,81.3245033 72.3620309,81.4569536 L71.8763797,80.9713024 C72.2295806,80.5739514 72.5827815,80.397351 73.0684327,80.397351 C73.7748344,80.397351 74.2604857,80.8388521 74.2604857,81.5452539 C74.2604857,82.1192053 73.7306843,82.6931567 73.2891832,83.1788079 C73.4657837,83.1788079 73.7306843,83.1346578 73.8631347,83.1346578 L74.4370861,83.1346578 L74.4370861,83.9293598 L71.9205298,83.9293598 L71.9205298,83.3995585 Z" id="Shape"></path>
                        <path d="M91.3465784,68.8741722 C91.5673289,69.0507726 91.7880795,69.183223 92.0529801,69.183223 C92.3620309,69.183223 92.5386313,69.0949227 92.5386313,68.8741722 C92.5386313,68.6092715 92.406181,68.4768212 91.6556291,68.4768212 L91.6556291,67.8145695 C92.2295806,67.8145695 92.406181,67.6821192 92.406181,67.4172185 C92.406181,67.196468 92.2737307,67.1081678 92.0529801,67.1081678 C91.8322296,67.1081678 91.6556291,67.196468 91.4348786,67.3730684 L90.9492274,66.799117 C91.3024283,66.5342163 91.6556291,66.3576159 92.0529801,66.3576159 C92.803532,66.3576159 93.2891832,66.7108168 93.2891832,67.3289183 C93.2891832,67.6821192 93.1125828,67.9028698 92.7152318,68.0794702 C93.1125828,68.2119205 93.3774834,68.4768212 93.3774834,68.9183223 C93.3774834,69.580574 92.7593819,69.9337748 92.0529801,69.9337748 C91.4790287,69.9337748 91.0816777,69.7571744 90.816777,69.4481236 L91.3465784,68.8741722 Z" id="Shape"></path>
                        <path d="M96.6445916,62.0309051 L96.2913907,62.0309051 L96.2913907,62.8256071 L95.4083885,62.8256071 L95.4083885,62.0309051 L93.9514349,62.0309051 L93.9514349,61.3686534 L95.1434879,59.3377483 L96.2913907,59.3377483 L96.2913907,61.3245033 L96.6445916,61.3245033 L96.6445916,62.0309051 Z M95.4083885,61.3245033 L95.4083885,60.9271523 C95.4083885,60.7064018 95.4083885,60.3532009 95.4525386,60.0883002 C95.3642384,60.3090508 95.2759382,60.4856512 95.187638,60.7064018 L94.8785872,61.2803532 L95.4083885,61.2803532 L95.4083885,61.3245033 Z" id="Shape"></path>
                        <path d="M103.178808,56.3796909 C103.399558,56.5562914 103.620309,56.6887417 103.88521,56.6887417 C104.19426,56.6887417 104.415011,56.5562914 104.415011,56.2472406 C104.415011,55.9381898 104.238411,55.8057395 103.92936,55.8057395 C103.752759,55.8057395 103.664459,55.8498896 103.443709,55.98234 L103.046358,55.7174393 L103.134658,53.9514349 L105.165563,53.9514349 L105.165563,54.7461369 L103.92936,54.7461369 L103.88521,55.2317881 C104.01766,55.187638 104.10596,55.187638 104.19426,55.187638 C104.812362,55.187638 105.298013,55.5408389 105.298013,56.2472406 C105.298013,57.0419426 104.679912,57.4834437 103.97351,57.4834437 C103.399558,57.4834437 103.002208,57.2626932 102.737307,56.9977925 L103.178808,56.3796909 Z" id="Shape"></path>
                        <path d="M105.298013,34.1280353 C105.209713,33.995585 104.988962,33.9072848 104.768212,33.9072848 C104.415011,33.9072848 104.15011,34.1280353 104.15011,34.8344371 C104.326711,34.6136865 104.591611,34.4812362 104.812362,34.4812362 C105.386313,34.4812362 105.871965,34.790287 105.871965,35.5408389 C105.871965,36.2913907 105.342163,36.7328918 104.679912,36.7328918 C104.01766,36.7328918 103.311258,36.2472406 103.311258,35.0110375 C103.311258,33.7748344 104.01766,33.1567329 104.724062,33.1567329 C105.209713,33.1567329 105.562914,33.3774834 105.783664,33.598234 L105.298013,34.1280353 Z M104.988962,35.5408389 C104.988962,35.187638 104.812362,35.1434879 104.591611,35.1434879 C104.415011,35.1434879 104.282561,35.2317881 104.15011,35.4525386 C104.238411,35.9381898 104.415011,36.0706402 104.591611,36.0706402 C104.812362,36.0264901 104.988962,35.8940397 104.988962,35.5408389 Z" id="Shape"></path>
                        <path d="M128.256071,45.7395143 L126.754967,45.7395143 L126.754967,44.9448124 L129.227373,44.9448124 L129.227373,45.5187638 C128.432671,46.4459161 128.344371,47.0640177 128.300221,48.388521 L127.373068,48.388521 C127.417219,47.3289183 127.593819,46.6225166 128.256071,45.7395143 Z" id="Shape"></path>
                        <path d="M138.322296,27.99117 C138.057395,27.7704194 137.880795,27.5055188 137.880795,27.1523179 C137.880795,26.5342163 138.366446,26.1810155 139.028698,26.1810155 C139.690949,26.1810155 140.0883,26.5342163 140.0883,27.1523179 C140.0883,27.4613687 139.9117,27.7262693 139.646799,27.8587196 C140,28.0353201 140.220751,28.3002208 140.220751,28.785872 C140.220751,29.3598234 139.735099,29.7571744 138.940397,29.7571744 C138.233996,29.7571744 137.704194,29.3598234 137.704194,28.8300221 C137.748344,28.388521 138.013245,28.1677704 138.322296,27.99117 Z M139.028698,29.0949227 C139.249448,29.0949227 139.426049,29.0066225 139.426049,28.7417219 C139.426049,28.4768212 139.205298,28.388521 138.763797,28.2119205 C138.675497,28.3443709 138.587196,28.5209713 138.587196,28.6975717 C138.587196,28.9624724 138.763797,29.0949227 139.028698,29.0949227 Z M139.337748,27.196468 C139.337748,26.9757174 139.205298,26.799117 138.984547,26.799117 C138.807947,26.799117 138.675497,26.8874172 138.675497,27.1523179 C138.675497,27.3730684 138.852097,27.5055188 139.205298,27.6379691 C139.293598,27.4613687 139.337748,27.3289183 139.337748,27.196468 Z" id="Shape"></path>
                        <path d="M143.532009,43.5761589 C143.620309,43.7086093 143.84106,43.7969095 144.06181,43.7969095 C144.415011,43.7969095 144.679912,43.5761589 144.679912,42.8697572 C144.503311,43.0905077 144.238411,43.2229581 144.01766,43.2229581 C143.443709,43.2229581 142.958057,42.9139073 142.958057,42.1633554 C142.958057,41.4128035 143.487859,40.9713024 144.15011,40.9713024 C144.812362,40.9713024 145.518764,41.4569536 145.518764,42.6931567 C145.518764,43.9293598 144.812362,44.5474614 144.10596,44.5474614 C143.620309,44.5474614 143.267108,44.3267108 143.046358,44.1059603 L143.532009,43.5761589 Z M144.679912,42.2958057 C144.591611,41.8101545 144.415011,41.6777042 144.238411,41.6777042 C144.06181,41.6777042 143.88521,41.8101545 143.88521,42.1633554 C143.88521,42.5165563 144.06181,42.5607064 144.282561,42.5607064 C144.415011,42.5607064 144.547461,42.5165563 144.679912,42.2958057 Z" id="Shape"></path>
                        <g id="Group" transform="translate(167.328918, 35.320088)">
                            <path d="M0.309050773,3.00220751 L1.05960265,3.00220751 L1.05960265,1.23620309 L0.397350993,1.23620309 L0.397350993,0.662251656 C0.794701987,0.573951435 1.05960265,0.485651214 1.2803532,0.309050773 L1.98675497,0.309050773 L1.98675497,3.00220751 L2.60485651,3.00220751 L2.60485651,3.75275938 L0.309050773,3.75275938 L0.309050773,3.00220751 Z" id="Shape"></path>
                            <path d="M3.09050773,2.03090508 C3.09050773,0.838852097 3.62030905,0.264900662 4.37086093,0.264900662 C5.1214128,0.264900662 5.65121413,0.883002208 5.65121413,2.03090508 C5.65121413,3.22295806 5.1214128,3.8410596 4.37086093,3.8410596 C3.62030905,3.8410596 3.09050773,3.22295806 3.09050773,2.03090508 Z M4.76821192,2.03090508 C4.76821192,1.10375276 4.59161148,0.971302428 4.37086093,0.971302428 C4.15011038,0.971302428 3.97350993,1.10375276 3.97350993,2.03090508 C3.97350993,2.9580574 4.15011038,3.13465784 4.37086093,3.13465784 C4.59161148,3.13465784 4.76821192,2.9580574 4.76821192,2.03090508 Z" id="Shape"></path>
                        </g>
                        <g id="Group" transform="translate(67.108168, 19.426049)">
                            <path d="M0.220750552,2.78145695 L0.971302428,2.78145695 L0.971302428,1.01545254 L0.309050773,1.01545254 L0.309050773,0.441501104 C0.706401766,0.353200883 0.971302428,0.264900662 1.19205298,0.0883002208 L1.89845475,0.0883002208 L1.89845475,2.78145695 L2.51655629,2.78145695 L2.51655629,3.53200883 L0.220750552,3.53200883 L0.220750552,2.78145695 Z" id="Shape"></path>
                            <path d="M3.00220751,3.00220751 C3.8410596,2.25165563 4.45916115,1.67770419 4.45916115,1.19205298 C4.45916115,0.883002208 4.28256071,0.750551876 4.01766004,0.750551876 C3.79690949,0.750551876 3.62030905,0.927152318 3.44370861,1.05960265 L2.9580574,0.573951435 C3.31125828,0.176600442 3.66445916,0 4.15011038,0 C4.85651214,0 5.34216336,0.441501104 5.34216336,1.14790287 C5.34216336,1.7218543 4.81236203,2.29580574 4.37086093,2.78145695 C4.54746137,2.78145695 4.81236203,2.73730684 4.94481236,2.73730684 L5.5187638,2.73730684 L5.5187638,3.53200883 L3.00220751,3.53200883 L3.00220751,3.00220751 Z" id="Shape"></path>
                        </g>
                        <g id="Group" transform="translate(87.417219, 42.384106)">
                            <path d="M0.132450331,2.9580574 L0.883002208,2.9580574 L0.883002208,1.19205298 L0.220750552,1.19205298 L0.220750552,0.618101545 C0.618101545,0.529801325 0.883002208,0.441501104 1.10375276,0.264900662 L1.81015453,0.264900662 L1.81015453,2.9580574 L2.42825607,2.9580574 L2.42825607,3.70860927 L0.132450331,3.70860927 L0.132450331,2.9580574 Z" id="Shape"></path>
                            <path d="M3.22295806,2.69315673 C3.44370861,2.86975717 3.66445916,3.00220751 3.92935982,3.00220751 C4.2384106,3.00220751 4.41501104,2.91390728 4.41501104,2.69315673 C4.41501104,2.42825607 4.28256071,2.29580574 3.53200883,2.29580574 L3.53200883,1.63355408 C4.10596026,1.63355408 4.28256071,1.50110375 4.28256071,1.23620309 C4.28256071,1.01545254 4.15011038,0.927152318 3.92935982,0.927152318 C3.70860927,0.927152318 3.53200883,1.01545254 3.31125828,1.19205298 L2.82560706,0.618101545 C3.17880795,0.353200883 3.53200883,0.176600442 3.92935982,0.176600442 C4.6799117,0.176600442 5.16556291,0.529801325 5.16556291,1.14790287 C5.16556291,1.50110375 4.98896247,1.7218543 4.59161148,1.89845475 C4.98896247,2.03090508 5.25386313,2.29580574 5.25386313,2.73730684 C5.25386313,3.3995585 4.63576159,3.75275938 3.92935982,3.75275938 C3.35540839,3.75275938 2.9580574,3.57615894 2.69315673,3.26710817 L3.22295806,2.69315673 Z" id="Shape"></path>
                        </g>
                        <g id="Group" transform="translate(74.613687, 47.682119)">
                            <path d="M0.353200883,3.04635762 L1.10375276,3.04635762 L1.10375276,1.2803532 L0.441501104,1.2803532 L0.441501104,0.706401766 C0.838852097,0.618101545 1.10375276,0.529801325 1.32450331,0.353200883 L2.03090508,0.353200883 L2.03090508,3.04635762 L2.64900662,3.04635762 L2.64900662,3.79690949 L0.353200883,3.79690949 L0.353200883,3.04635762 Z" id="Shape"></path>
                            <path d="M5.78366446,3.00220751 L5.43046358,3.00220751 L5.43046358,3.79690949 L4.54746137,3.79690949 L4.54746137,3.00220751 L3.09050773,3.00220751 L3.09050773,2.33995585 L4.28256071,0.309050773 L5.43046358,0.309050773 L5.43046358,2.29580574 L5.78366446,2.29580574 L5.78366446,3.00220751 Z M4.54746137,2.29580574 L4.54746137,1.89845475 C4.54746137,1.67770419 4.54746137,1.32450331 4.59161148,1.05960265 C4.50331126,1.2803532 4.41501104,1.45695364 4.32671082,1.67770419 L4.01766004,2.25165563 L4.54746137,2.25165563 L4.54746137,2.29580574 Z" id="Shape"></path>
                        </g>
                        <g id="Group" transform="translate(61.810155, 25.165563)">
                            <path d="M0,2.9580574 L0.750551876,2.9580574 L0.750551876,1.19205298 L0.0883002208,1.19205298 L0.0883002208,0.618101545 C0.485651214,0.529801325 0.750551876,0.441501104 0.971302428,0.264900662 L1.67770419,0.264900662 L1.67770419,2.9580574 L2.29580574,2.9580574 L2.29580574,3.70860927 L0,3.70860927 L0,2.9580574 Z" id="Shape"></path>
                            <path d="M3.13465784,2.69315673 C3.35540839,2.86975717 3.57615894,3.00220751 3.8410596,3.00220751 C4.15011038,3.00220751 4.37086093,2.86975717 4.37086093,2.5607064 C4.37086093,2.25165563 4.19426049,2.1192053 3.88520971,2.1192053 C3.70860927,2.1192053 3.62030905,2.16335541 3.3995585,2.29580574 L3.00220751,2.03090508 L3.09050773,0.264900662 L5.1214128,0.264900662 L5.1214128,1.05960265 L3.88520971,1.05960265 L3.8410596,1.54525386 C3.97350993,1.50110375 4.06181015,1.50110375 4.15011038,1.50110375 C4.76821192,1.50110375 5.25386313,1.85430464 5.25386313,2.5607064 C5.25386313,3.35540839 4.63576159,3.79690949 3.92935982,3.79690949 C3.35540839,3.79690949 2.9580574,3.57615894 2.69315673,3.31125828 L3.13465784,2.69315673 Z" id="Shape"></path>
                        </g>
                        <g id="Group" transform="translate(62.693157, 50.772627)">
                            <path d="M0.132450331,3.04635762 L0.883002208,3.04635762 L0.883002208,1.2803532 L0.220750552,1.2803532 L0.220750552,0.706401766 C0.618101545,0.618101545 0.883002208,0.529801325 1.10375276,0.353200883 L1.81015453,0.353200883 L1.81015453,3.04635762 L2.42825607,3.04635762 L2.42825607,3.79690949 L0.132450331,3.79690949 L0.132450331,3.04635762 Z" id="Shape"></path>
                            <path d="M4.94481236,1.2803532 C4.85651214,1.14790287 4.63576159,1.05960265 4.41501104,1.05960265 C4.06181015,1.05960265 3.79690949,1.2803532 3.79690949,1.98675497 C3.97350993,1.76600442 4.2384106,1.63355408 4.45916115,1.63355408 C5.03311258,1.63355408 5.5187638,1.94260486 5.5187638,2.69315673 C5.5187638,3.44370861 4.98896247,3.88520971 4.32671082,3.88520971 C3.66445916,3.88520971 2.9580574,3.3995585 2.9580574,2.16335541 C2.9580574,0.927152318 3.66445916,0.309050773 4.37086093,0.309050773 C4.85651214,0.309050773 5.20971302,0.529801325 5.43046358,0.750551876 L4.94481236,1.2803532 Z M4.63576159,2.69315673 C4.63576159,2.33995585 4.45916115,2.29580574 4.2384106,2.29580574 C4.06181015,2.29580574 3.92935982,2.38410596 3.79690949,2.60485651 C3.88520971,3.09050773 4.06181015,3.22295806 4.2384106,3.22295806 C4.45916115,3.17880795 4.63576159,3.04635762 4.63576159,2.69315673 Z" id="Shape"></path>
                        </g>
                        <g id="Group" transform="translate(53.863135, 56.953642)">
                            <path d="M0.220750552,3.13465784 L0.971302428,3.13465784 L0.971302428,1.36865342 L0.309050773,1.36865342 L0.309050773,0.794701987 C0.706401766,0.706401766 0.971302428,0.618101545 1.19205298,0.441501104 L1.89845475,0.441501104 L1.89845475,3.13465784 L2.51655629,3.13465784 L2.51655629,3.88520971 L0.220750552,3.88520971 L0.220750552,3.13465784 Z" id="Shape"></path>
                            <path d="M3.62030905,2.16335541 C3.35540839,1.94260486 3.17880795,1.67770419 3.17880795,1.32450331 C3.17880795,0.706401766 3.66445916,0.353200883 4.32671082,0.353200883 C4.98896247,0.353200883 5.38631347,0.706401766 5.38631347,1.32450331 C5.38631347,1.63355408 5.20971302,1.89845475 4.94481236,2.03090508 C5.29801325,2.20750552 5.5187638,2.47240618 5.5187638,2.9580574 C5.5187638,3.53200883 5.03311258,3.92935982 4.2384106,3.92935982 C3.53200883,3.92935982 3.00220751,3.53200883 3.00220751,3.00220751 C3.04635762,2.60485651 3.26710817,2.33995585 3.62030905,2.16335541 Z M4.28256071,3.31125828 C4.50331126,3.31125828 4.6799117,3.22295806 4.6799117,2.9580574 C4.6799117,2.69315673 4.45916115,2.60485651 4.01766004,2.42825607 C3.92935982,2.5607064 3.8410596,2.73730684 3.8410596,2.91390728 C3.8410596,3.13465784 4.06181015,3.31125828 4.28256071,3.31125828 Z M4.63576159,1.36865342 C4.63576159,1.14790287 4.50331126,0.971302428 4.28256071,0.971302428 C4.10596026,0.971302428 3.97350993,1.05960265 3.97350993,1.32450331 C3.97350993,1.54525386 4.15011038,1.67770419 4.50331126,1.81015453 C4.59161148,1.67770419 4.63576159,1.54525386 4.63576159,1.36865342 Z" id="Shape"></path>
                        </g>
                        <g id="Group" transform="translate(34.437086, 37.969095)">
                            <path d="M0,2.78145695 L0.750551876,2.78145695 L0.750551876,1.01545254 L0.0883002208,1.01545254 L0.0883002208,0.441501104 C0.485651214,0.353200883 0.750551876,0.264900662 0.971302428,0.0883002208 L1.67770419,0.0883002208 L1.67770419,2.78145695 L2.29580574,2.78145695 L2.29580574,3.53200883 L0,3.53200883 L0,2.78145695 Z" id="Shape"></path>
                            <path d="M3.26710817,2.60485651 C3.35540839,2.73730684 3.57615894,2.82560706 3.79690949,2.82560706 C4.15011038,2.82560706 4.41501104,2.60485651 4.41501104,1.89845475 C4.2384106,2.1192053 3.97350993,2.25165563 3.75275938,2.25165563 C3.17880795,2.25165563 2.69315673,1.94260486 2.69315673,1.19205298 C2.69315673,0.441501104 3.22295806,0 3.88520971,0 C4.54746137,0 5.25386313,0.485651214 5.25386313,1.7218543 C5.25386313,2.9580574 4.54746137,3.57615894 3.8410596,3.57615894 C3.35540839,3.57615894 3.00220751,3.35540839 2.78145695,3.13465784 L3.26710817,2.60485651 Z M4.41501104,1.32450331 C4.32671082,0.838852097 4.15011038,0.706401766 3.97350993,0.706401766 C3.79690949,0.706401766 3.62030905,0.838852097 3.62030905,1.19205298 C3.62030905,1.54525386 3.79690949,1.58940397 4.01766004,1.58940397 C4.15011038,1.63355408 4.28256071,1.54525386 4.41501104,1.32450331 Z" id="Shape"></path>
                        </g>
                        <g id="Group" transform="translate(0.000000, 53.863135)">
                            <path d="M0.0883002208,3.22295806 C0.927152318,2.47240618 1.54525386,1.89845475 1.54525386,1.41280353 C1.54525386,1.10375276 1.36865342,0.971302428 1.10375276,0.971302428 C0.883002208,0.971302428 0.706401766,1.14790287 0.529801325,1.2803532 L0.0441501104,0.794701987 C0.397350993,0.397350993 0.750551876,0.220750552 1.23620309,0.220750552 C1.94260486,0.220750552 2.42825607,0.662251656 2.42825607,1.36865342 C2.42825607,1.94260486 1.89845475,2.51655629 1.45695364,3.00220751 C1.63355408,3.00220751 1.89845475,2.9580574 2.03090508,2.9580574 L2.60485651,2.9580574 L2.60485651,3.75275938 L0.0883002208,3.75275938 L0.0883002208,3.22295806 Z" id="Shape"></path>
                            <path d="M3.00220751,1.98675497 C3.00220751,0.794701987 3.53200883,0.220750552 4.28256071,0.220750552 C5.03311258,0.220750552 5.56291391,0.838852097 5.56291391,1.98675497 C5.56291391,3.17880795 5.03311258,3.79690949 4.28256071,3.79690949 C3.53200883,3.79690949 3.00220751,3.17880795 3.00220751,1.98675497 Z M4.6799117,1.98675497 C4.6799117,1.05960265 4.50331126,0.927152318 4.28256071,0.927152318 C4.06181015,0.927152318 3.88520971,1.05960265 3.88520971,1.98675497 C3.88520971,2.91390728 4.06181015,3.09050773 4.28256071,3.09050773 C4.50331126,3.09050773 4.6799117,2.91390728 4.6799117,1.98675497 Z" id="Shape"></path>
                        </g>
                        <g id="Group" transform="translate(70.640177, 63.134658)">
                            <path d="M0.309050773,2.86975717 L1.05960265,2.86975717 L1.05960265,1.10375276 L0.397350993,1.10375276 L0.397350993,0.529801325 C0.794701987,0.441501104 1.05960265,0.353200883 1.2803532,0.176600442 L1.98675497,0.176600442 L1.98675497,2.86975717 L2.60485651,2.86975717 L2.60485651,3.62030905 L0.309050773,3.62030905 L0.309050773,2.86975717 Z" id="Shape"></path>
                            <path d="M4.59161148,0.927152318 L3.09050773,0.927152318 L3.09050773,0.132450331 L5.56291391,0.132450331 L5.56291391,0.706401766 C4.76821192,1.63355408 4.6799117,2.25165563 4.63576159,3.57615894 L3.70860927,3.57615894 C3.79690949,2.51655629 3.97350993,1.81015453 4.59161148,0.927152318 Z" id="Shape"></path>
                        </g>
                        <g id="Group" transform="translate(189.845475, 0.000000)">
                            <path d="M0.176600442,2.73730684 L0.927152318,2.73730684 L0.927152318,0.971302428 L0.264900662,0.971302428 L0.264900662,0.353200883 C0.662251656,0.264900662 0.927152318,0.176600442 1.14790287,0 L1.85430464,0 L1.85430464,2.69315673 L2.47240618,2.69315673 L2.47240618,3.44370861 L0.176600442,3.44370861 L0.176600442,2.73730684 Z" id="Shape"></path>
                            <path d="M3.13465784,2.73730684 L3.88520971,2.73730684 L3.88520971,0.971302428 L3.22295806,0.971302428 L3.22295806,0.353200883 C3.62030905,0.264900662 3.88520971,0.176600442 4.10596026,0 L4.81236203,0 L4.81236203,2.69315673 L5.43046358,2.69315673 L5.43046358,3.44370861 L3.13465784,3.44370861 L3.13465784,2.73730684 Z" id="Shape"></path>
                        </g>
                    </g>
                    <path d="M30.5,61.5 L30.5,57 L31.2981651,57 L31.2981651,60.8256881 L33.162844,60.8256881 L33.162844,61.5 L30.5,61.5 Z M34.016055,61.5 L34.016055,57.6743119 L32.7155963,57.6743119 L32.7155963,57 L36.1077982,57 L36.1077982,57.6743119 L34.8142202,57.6743119 L34.8142202,61.5 L34.016055,61.5 Z" id="LT" fill="#FFFFFF"></path>
                </g>
            </g>
        </g>
    </g>
</svg>