<?xml version="1.0" encoding="UTF-8"?>
<svg width="193px" height="130px" viewBox="0 0 193 130" version="1.1" xmlns="http://www.w3.org/2000/svg" xmlns:xlink="http://www.w3.org/1999/xlink">
    <!-- Generator: sketchtool 51.2 (57519) - http://www.bohemiancoding.com/sketch -->
    <title>3E33841C-EF9C-4995-8977-605C825C01D6</title>
    <desc>Created with sketchtool.</desc>
    <defs></defs>
    <g id="Page-1" stroke="none" stroke-width="1" fill="none" fill-rule="evenodd">
        <g id="Circuit_info_05" transform="translate(-482.000000, -679.000000)">
            <g id="assets/circuits_info/105" transform="translate(478.000000, 679.000000)">
                <g id="assets/circuits_info/MotorLand-Aragon" transform="translate(4.000000, 0.000000)">
                    <g id="trazado" transform="translate(7.747934, 0.000000)" fill="#B7B5B6" fill-rule="nonzero">
                        <path d="M162.706612,122.157025 C161.570248,122.157025 160.382231,121.995868 159.090909,121.727273 L158.93595,121.673554 L59.5041322,88.6900826 C59.1942149,88.5826446 57.7995868,88.0454545 57.0764463,86.5413223 C56.7665289,85.8429752 56.4566116,84.714876 56.9731405,83.3181818 C57.6446281,81.3305785 59.4524793,76.3347107 59.5041322,76.1198347 L59.5557851,76.0123967 C59.7107438,75.5826446 59.5041322,75.4214876 59.4008264,75.3140496 C57.696281,74.0785124 46.177686,65.161157 44.8863636,64.1942149 C44.2665289,63.8181818 42.5619835,63.0123967 41.322314,62.9586777 L41.1157025,62.9586777 C39.5144628,62.9586777 38.481405,63.3884298 37.3450413,64.0330579 C35.9504132,64.838843 28.4090909,69.0289256 27.1177686,69.7272727 C26.7045455,70.0495868 25.981405,70.4256198 25,70.4256198 C24.1735537,70.4256198 22.8822314,70.1033058 21.5909091,68.6528926 C21.3842975,68.4380165 21.1260331,68.1157025 20.7644628,67.7396694 C18.285124,65.107438 12.5,58.9297521 8.62603306,50.4421488 C4.23553719,40.8264463 3.77066116,38.6239669 2.73760331,33.6818182 C1.65289256,28.6859504 0.361570248,17.2438017 0.309917355,16.7603306 C0.258264463,16.3842975 -0.258264463,9.34710744 3.56404959,5.37190083 C7.17975207,1.66528926 11.2603306,-1.0269563e-15 16.1157025,0.214876033 C20.3512397,0.429752066 24.1735537,1.66528926 27.4793388,3.9214876 C30.1652893,5.74793388 32.0764463,7.09090909 31.5599174,10.4214876 C31.0950413,13.5371901 29.1838843,14.1280992 27.2210744,14.7727273 L27.1177686,14.8264463 C23.6053719,15.9545455 24.018595,17.7809917 24.2252066,18.4793388 L24.2768595,18.5867769 L29.9070248,50.7107438 C30.0619835,51.0330579 30.5785124,52.053719 31.5082645,52.053719 C31.6632231,52.053719 31.8181818,52.053719 31.9731405,52 C34.7107438,51.3553719 41.322314,47.1652893 44.0599174,43.9421488 C46.2809917,41.3636364 48.2438017,38.946281 48.4504132,37.4958678 C48.7086777,35.6694215 50.6714876,25.838843 50.981405,24.4958678 C51.0847107,23.2603306 51.911157,21.1652893 54.3904959,20.0371901 C55.1136364,19.714876 55.8367769,19.553719 56.6115702,19.553719 C58.677686,19.553719 60.2272727,20.7355372 60.6404959,21.0578512 L68.3884298,26.7520661 C68.4917355,26.8595041 71.4876033,29.2768595 72.107438,33.5206612 C72.572314,36.8512397 76.3946281,56.1900826 76.3946281,56.4049587 L76.3946281,56.5123967 C76.3946281,56.6198347 77.0144628,60.0041322 80.268595,61.4545455 C84.5041322,63.3884298 97.107438,66.7727273 97.2107438,66.8264463 C97.2623967,66.8264463 101.652893,68.0082645 104.855372,64.731405 C108.780992,60.7024793 112.86157,54.5785124 112.86157,54.5247934 C113.016529,54.3099174 114.411157,52.322314 116.78719,52.322314 C117.871901,52.322314 118.904959,52.6983471 119.938017,53.5041322 C122.365702,55.4380165 172.830579,95.5123967 172.830579,95.5123967 L172.933884,95.5661157 C173.192149,95.7809917 175.36157,97.768595 175.826446,100.400826 C176.188017,102.334711 176.652893,105.933884 176.652893,106.095041 L176.652893,106.202479 C176.652893,106.471074 177.169421,112.380165 173.088843,116.892562 C169.731405,120.545455 166.528926,122.157025 162.706612,122.157025 Z M160.072314,117.590909 C161.002066,117.805785 161.880165,117.913223 162.706612,117.913223 C165.340909,117.913223 167.561983,116.731405 169.989669,113.991736 C172.623967,111.090909 172.469008,107.115702 172.417355,106.68595 C172.365702,106.202479 171.952479,102.979339 171.642562,101.260331 C171.487603,100.400826 170.609504,99.3801653 170.196281,99.0041322 C168.336777,97.553719 119.783058,58.9297521 117.355372,57.0495868 C116.993802,56.7809917 116.838843,56.7272727 116.78719,56.7272727 C116.632231,56.7272727 116.373967,56.9421488 116.270661,57.0495868 C116.115702,57.2644628 111.931818,63.5495868 107.747934,67.8471074 C102.840909,72.8966942 96.4359504,71.177686 96.1260331,71.0702479 C95.6095041,70.9090909 83.0578512,67.5247934 78.5640496,65.4834711 C73.4504132,63.1198347 72.3657025,58.0165289 72.2623967,57.2644628 C72.0041322,56.0826446 68.3884298,37.5495868 67.9235537,34.1652893 C67.6136364,31.8553719 66.0123967,30.4049587 65.8057851,30.2438017 L58.0061983,24.4958678 C57.7995868,24.3347107 56.7665289,23.7438017 56.0433884,24.0661157 C55.3202479,24.3884298 55.1652893,24.8181818 55.1136364,24.9793388 L55.1136364,25.2479339 L55.0619835,25.3016529 C54.2871901,29.1157025 52.7892562,36.7438017 52.5826446,38.1942149 C52.2210744,40.5578512 50.6198347,42.7603306 47.1590909,46.8429752 C43.9566116,50.6033058 36.7768595,55.3842975 32.9028926,56.2975207 C32.4380165,56.4049587 31.9731405,56.4586777 31.5082645,56.4586777 C28.2541322,56.4586777 26.446281,53.7190083 25.9297521,52.161157 L25.8264463,51.838843 L20.0929752,19.607438 C19.1632231,15.5785124 21.2809917,12.3016529 25.8264463,10.7975207 L25.9297521,10.7438017 C26.446281,10.5826446 27.0661157,10.3677686 27.2727273,10.2603306 C27.2727273,10.2066116 27.3243802,10.0454545 27.3760331,9.83057851 C27.427686,9.56198347 27.427686,9.45454545 27.427686,9.45454545 C27.2727273,9.1322314 25.8780992,8.16528926 25.1033058,7.62809917 C22.4173554,5.74793388 19.4214876,4.78099174 15.9090909,4.61983471 C12.2417355,4.45867769 9.29752066,5.69421488 6.55991736,8.54132231 C4.54545455,10.6363636 4.39049587,14.8801653 4.49380165,16.3842975 C4.59710744,17.1363636 5.83677686,28.1487603 6.81818182,32.768595 C7.85123967,37.5495868 8.26446281,39.4834711 12.4483471,48.6157025 C16.0123967,56.4586777 21.4876033,62.2603306 23.8119835,64.731405 C24.1735537,65.161157 24.4834711,65.4834711 24.7417355,65.7520661 C24.8450413,65.8595041 24.9483471,65.9669421 25,66.0206612 C25.1033058,65.9669421 33.8842975,61.0785124 35.3305785,60.2190083 C36.7252066,59.4132231 38.481405,58.607438 41.1157025,58.607438 L41.4256198,58.607438 C44.0599174,58.661157 46.7975207,60.3264463 47.107438,60.4876033 L47.3140496,60.5950413 C47.4173554,60.7024793 60.1239669,70.4793388 61.8285124,71.768595 C64.3078512,73.5950413 63.946281,76.3884298 63.4297521,77.731405 C63.2231405,78.268595 61.6219008,82.7272727 61.0020661,84.661157 L160.072314,117.590909 Z" id="Shape"></path>
                    </g>
                    <g id="PUNTOS_INTERMEDIOS_Y_SEMAFORO" transform="translate(10.330579, 32.231405)">
                        <path d="M16.0640496,1.45041322 C16.1673554,1.66528926 16.1157025,1.98760331 15.9090909,2.09504132 L1.03305785,10.7975207 C0.826446281,10.9049587 0.516528926,10.8512397 0.41322314,10.6363636 C0.309917355,10.4214876 0.361570248,10.0991736 0.568181818,9.99173554 L15.4442149,1.2892562 C15.6508264,1.07438017 15.9607438,1.18181818 16.0640496,1.45041322 Z" id="Shape" fill="#AC1737" fill-rule="nonzero"></path>
                        <path d="M57.5413223,17.7272727 C57.3863636,17.9421488 57.1280992,17.9958678 56.9214876,17.8884298 L42.6652893,8.11157025 C42.4586777,7.95041322 42.4070248,7.68181818 42.5103306,7.46694215 C42.6136364,7.25206612 42.9235537,7.19834711 43.1301653,7.30578512 L57.3863636,17.0826446 C57.5929752,17.2975207 57.6446281,17.5661157 57.5413223,17.7272727 Z" id="Shape" fill="#AC1737" fill-rule="nonzero"></path>
                        <path d="M52.8409091,67.4710744 C52.5826446,67.3099174 52.5309917,67.0413223 52.6859504,66.8264463 L60.8471074,51.2479339 C61.0020661,50.9793388 61.2603306,50.9256198 61.4669421,51.0867769 C61.7252066,51.2479339 61.7768595,51.5165289 61.6219008,51.731405 L53.4607438,67.3099174 C53.3057851,67.5247934 53.0475207,67.6322314 52.8409091,67.4710744 Z" id="Shape" fill="#AC1737" fill-rule="nonzero"></path>
                        <path d="M124.896694,90.3016529 C124.63843,90.1942149 124.535124,89.9256198 124.63843,89.7107438 L130.475207,73.0578512 C130.578512,72.7892562 130.836777,72.6818182 131.043388,72.7892562 C131.301653,72.8966942 131.404959,73.1652893 131.301653,73.3801653 L125.464876,90.0330579 C125.413223,90.2479339 125.154959,90.4628099 124.896694,90.3016529 Z" id="Shape" fill="#AC1737" fill-rule="nonzero"></path>
                        <path d="M140.597834,51.826975 C140.598279,51.8263525 140.598725,51.8257304 140.599174,51.8251088 L150.36157,37.2672576 C150.516529,37.0523815 150.774793,36.9986625 150.981405,37.1598196 C151.188017,37.3209766 151.239669,37.5895716 151.084711,37.8044476 L141.322314,52.3622989 C141.290144,52.4069075 141.253522,52.4468856 141.213835,52.4803109 C141.734971,53.1731906 142.045455,54.0458719 142.045455,54.9945303 L142.045455,57.5730427 C142.045455,59.829241 140.289256,61.6556873 138.119835,61.6556873 L132.076446,61.6556873 C129.907025,61.6556873 128.099174,59.829241 128.099174,57.5730427 L128.099174,54.9945303 C128.099174,52.7383319 129.855372,50.9118857 132.076446,50.9118857 L138.119835,50.9118857 C139.05983,50.9118857 139.922246,51.2547881 140.597834,51.826975 Z" id="Combined-Shape" fill="#AC1737" fill-rule="nonzero"></path>
                        <path d="M158.159817,41.0831733 C158.160262,41.0825508 158.160709,41.0819288 158.161157,41.0813072 L167.923554,26.5234559 C168.078512,26.3085799 168.336777,26.2548609 168.543388,26.4160179 C168.75,26.5771749 168.801653,26.84577 168.646694,27.060646 L158.884298,41.6184972 C158.852128,41.6631058 158.815506,41.703084 158.775818,41.7365092 C159.296954,42.429389 159.607438,43.3020702 159.607438,44.2507286 L159.607438,46.829241 C159.607438,49.0854394 157.85124,50.9118857 155.681818,50.9118857 L149.63843,50.9118857 C147.469008,50.9118857 145.661157,49.0854394 145.661157,46.829241 L145.661157,44.2507286 C145.661157,41.9945303 147.417355,40.168084 149.63843,40.168084 L155.681818,40.168084 C156.621814,40.168084 157.484229,40.5109864 158.159817,41.0831733 Z" id="Combined-Shape-Copy" fill="#AC1737" fill-rule="nonzero" transform="translate(157.198976, 38.617100) scale(-1, -1) translate(-157.198976, -38.617100) "></path>
                        <path d="M158.57438,34.1527342 L158.57438,29.5454545 L159.360143,29.5454545 L159.360143,33.4623467 L161.195847,33.4623467 L161.195847,34.1527342 L158.57438,34.1527342 Z M162.035801,34.1527342 L162.035801,30.235842 L160.755549,30.235842 L160.755549,29.5454545 L164.095041,29.5454545 L164.095041,30.235842 L162.821564,30.235842 L162.821564,34.1527342 L162.035801,34.1527342 Z" id="LT" fill="#FFFFFF"></path>
                        <g id="Group" transform="translate(8.264463, 0.000000)" fill-rule="nonzero">
                            <path d="M0.103305785,4.40495868 C0.103305785,2.14876033 1.85950413,0.268595041 4.02892562,0.268595041 L6.61157025,0.268595041 C8.78099174,0.268595041 10.588843,2.09504132 10.588843,4.40495868 L10.588843,7.1446281 C10.588843,9.40082645 8.83264463,11.2809917 6.61157025,11.2809917 L4.02892562,11.2809917 C1.85950413,11.2809917 0.103305785,9.45454545 0.103305785,7.1446281 L0.103305785,4.40495868 Z" id="Shape" fill="#AC1737"></path>
                            <g transform="translate(2.582645, 3.223140)" fill="#FFFFFF" id="Shape">
                                <path d="M0.41322314,0.644628099 C0.41322314,0.376033058 0.619834711,0.214876033 0.878099174,0.214876033 C1.13636364,0.214876033 1.34297521,0.376033058 1.34297521,0.644628099 C1.34297521,0.91322314 1.13636364,1.07438017 0.878099174,1.07438017 C0.619834711,1.07438017 0.41322314,0.805785124 0.41322314,0.644628099 Z M0.464876033,1.61157025 L1.23966942,1.61157025 L1.23966942,4.94214876 L0.464876033,4.94214876 L0.464876033,1.61157025 Z"></path>
                                <path d="M2.32438017,4.51239669 C3.4607438,3.33057851 4.23553719,2.5785124 4.23553719,1.9338843 C4.23553719,1.45041322 3.97727273,1.18181818 3.56404959,1.18181818 C3.25413223,1.18181818 2.99586777,1.39669421 2.73760331,1.66528926 L2.32438017,1.23553719 C2.68595041,0.805785124 3.09917355,0.590909091 3.66735537,0.590909091 C4.44214876,0.590909091 5.01033058,1.12809917 5.01033058,1.9338843 C5.01033058,2.68595041 4.33884298,3.49173554 3.51239669,4.40495868 C3.71900826,4.40495868 4.02892562,4.35123967 4.1838843,4.35123967 L5.21694215,4.35123967 L5.21694215,4.99586777 L2.37603306,4.99586777 L2.37603306,4.51239669 L2.32438017,4.51239669 Z"></path>
                            </g>
                        </g>
                        <g id="Group" transform="translate(121.900826, 84.338843)" fill-rule="nonzero">
                            <path d="M0.361570248,4.35123967 C0.361570248,2.09504132 2.1177686,0.268595041 4.28719008,0.268595041 L5.68181818,0.268595041 C7.85123967,0.268595041 9.60743802,2.09504132 9.60743802,4.35123967 L9.60743802,6.92975207 C9.60743802,9.18595041 7.85123967,11.0123967 5.68181818,11.0123967 L4.28719008,11.0123967 C2.1177686,11.0123967 0.361570248,9.18595041 0.361570248,6.92975207 L0.361570248,4.35123967 Z" id="Shape" fill="#AC1737"></path>
                            <path d="M3.92561983,6.71487603 C4.23553719,7.03719008 4.64876033,7.19834711 5.06198347,7.19834711 C5.5268595,7.19834711 5.78512397,6.98347107 5.78512397,6.60743802 C5.78512397,6.23140496 5.5268595,6.12396694 5.11363636,5.96280992 L4.54545455,5.69421488 C4.1322314,5.53305785 3.66735537,5.15702479 3.66735537,4.51239669 C3.66735537,3.81404959 4.28719008,3.2768595 5.11363636,3.2768595 C5.63016529,3.2768595 6.09504132,3.49173554 6.45661157,3.8677686 L6.04338843,4.35123967 C5.78512397,4.13636364 5.47520661,3.97520661 5.11363636,3.97520661 C4.70041322,3.97520661 4.44214876,4.19008264 4.44214876,4.51239669 C4.44214876,4.83471074 4.75206612,4.99586777 5.11363636,5.15702479 L5.68181818,5.42561983 C6.19834711,5.64049587 6.55991736,5.96280992 6.55991736,6.60743802 C6.55991736,7.30578512 5.99173554,7.95041322 5.01033058,7.95041322 C4.44214876,7.95041322 3.87396694,7.73553719 3.4607438,7.30578512 L3.92561983,6.71487603 Z" id="Shape" fill="#FFFFFF"></path>
                        </g>
                        <g id="Group" transform="translate(130.681818, 22.561983)" fill="#AC1737" fill-rule="nonzero">
                            <path d="M0.826446281,18.6404959 C1.03305785,18.8016529 1.29132231,18.7479339 1.44628099,18.5330579 L9.45247934,7.84297521 C9.60743802,7.62809917 9.55578512,7.35950413 9.40082645,7.19834711 L2.16942149,1.34297521 C1.96280992,1.18181818 1.70454545,1.23553719 1.54958678,1.45041322 C1.3946281,1.66528926 1.44628099,1.9338843 1.65289256,2.09504132 L8.3677686,7.52066116 C8.41942149,7.57438017 8.47107438,7.68181818 8.41942149,7.7892562 L0.723140496,17.9421488 C0.568181818,18.2107438 0.619834711,18.4793388 0.826446281,18.6404959 Z" id="Shape"></path>
                            <path d="M0.464876033,0.91322314 C0.361570248,0.698347107 0.568181818,0.483471074 0.774793388,0.537190083 L2.63429752,0.805785124 L4.49380165,1.07438017 C4.70041322,1.12809917 4.80371901,1.34297521 4.70041322,1.55785124 L3.51239669,3.11570248 L2.32438017,4.67355372 C2.16942149,4.83471074 1.91115702,4.83471074 1.85950413,4.61983471 L1.13636364,2.79338843 L0.464876033,0.91322314 Z" id="Shape"></path>
                        </g>
                        <g id="Group" transform="translate(128.099174, 50.495868)" fill="#FFFFFF" fill-rule="nonzero">
                            <g transform="translate(3.615702, 3.223140)" id="Shape">
                                <polygon points="0.361570248 0.214876033 2.94421488 0.214876033 2.94421488 0.859504132 1.13636364 0.859504132 1.13636364 2.09504132 2.68595041 2.09504132 2.68595041 2.73966942 1.13636364 2.73966942 1.13636364 4.61983471 0.361570248 4.61983471"></polygon>
                                <polygon points="4.02892562 0.214876033 4.80371901 0.214876033 4.80371901 4.02892562 6.55991736 4.02892562 6.55991736 4.67355372 4.02892562 4.67355372"></polygon>
                            </g>
                        </g>
                        <g id="Group" transform="translate(52.169421, 10.206612)" fill-rule="nonzero">
                            <path d="M0.309917355,4.29752066 C0.309917355,2.04132231 2.0661157,0.214876033 4.28719008,0.214876033 L6.30165289,0.214876033 C8.47107438,0.214876033 10.2789256,2.04132231 10.2789256,4.29752066 L10.2789256,7.25206612 C10.2789256,9.50826446 8.52272727,11.3884298 6.30165289,11.3884298 L4.28719008,11.3884298 C2.1177686,11.3884298 0.309917355,9.56198347 0.309917355,7.25206612 L0.309917355,4.29752066 Z" id="Shape" fill="#AC1737"></path>
                            <g transform="translate(2.582645, 3.223140)" fill="#FFFFFF" id="Shape">
                                <path d="M0.361570248,0.644628099 C0.361570248,0.376033058 0.568181818,0.214876033 0.826446281,0.214876033 C1.08471074,0.214876033 1.29132231,0.376033058 1.29132231,0.644628099 C1.29132231,0.91322314 1.08471074,1.07438017 0.826446281,1.07438017 C0.568181818,1.07438017 0.361570248,0.91322314 0.361570248,0.644628099 Z M0.464876033,1.61157025 L1.23966942,1.61157025 L1.23966942,4.94214876 L0.464876033,4.94214876 L0.464876033,1.61157025 Z"></path>
                                <path d="M2.53099174,4.40495868 L3.4607438,4.40495868 L3.4607438,1.55785124 L2.68595041,1.55785124 L2.68595041,1.07438017 C3.09917355,0.966942149 3.40909091,0.859504132 3.66735537,0.698347107 L4.23553719,0.698347107 L4.23553719,4.40495868 L5.06198347,4.40495868 L5.06198347,5.04958678 L2.53099174,5.04958678 L2.53099174,4.40495868 Z"></path>
                            </g>
                        </g>
                        <g id="Group" transform="translate(49.070248, 60.702479)" fill-rule="nonzero">
                            <path d="M0.826446281,4.02892562 C1.13636364,1.77272727 3.15082645,0.214876033 5.32024793,0.537190083 L7.90289256,0.966942149 C10.072314,1.2892562 11.5702479,3.38429752 11.2603306,5.69421488 L10.8471074,8.38016529 C10.5371901,10.6363636 8.52272727,12.1404959 6.35330579,11.8181818 L3.77066116,11.3884298 C1.60123967,11.0661157 0.154958678,8.97107438 0.464876033,6.76859504 L0.826446281,4.02892562 Z" id="Shape" fill="#AC1737"></path>
                            <g transform="translate(3.099174, 3.223140)" fill="#FFFFFF" id="Shape">
                                <path d="M0.774793388,0.590909091 C0.826446281,0.32231405 1.03305785,0.214876033 1.29132231,0.214876033 C1.54958678,0.268595041 1.70454545,0.429752066 1.70454545,0.698347107 C1.70454545,0.966942149 1.44628099,1.07438017 1.18801653,1.07438017 C0.878099174,1.12809917 0.723140496,0.859504132 0.774793388,0.590909091 Z M0.671487603,1.66528926 L1.44628099,1.77272727 L0.981404959,5.04958678 L0.20661157,4.94214876 L0.671487603,1.66528926 Z"></path>
                                <path d="M2.42768595,4.29752066 C2.63429752,4.61983471 2.94421488,4.88842975 3.30578512,4.94214876 C3.77066116,4.99586777 4.1322314,4.78099174 4.1838843,4.40495868 C4.23553719,3.97520661 4.02892562,3.59917355 3.04752066,3.49173554 L3.15082645,2.90082645 C3.97727273,3.00826446 4.28719008,2.79338843 4.33884298,2.36363636 C4.39049587,1.98760331 4.1838843,1.71900826 3.82231405,1.66528926 C3.51239669,1.61157025 3.25413223,1.71900826 2.94421488,1.98760331 L2.58264463,1.45041322 C2.99586777,1.18181818 3.40909091,1.02066116 3.87396694,1.12809917 C4.64876033,1.23553719 5.16528926,1.77272727 5.06198347,2.47107438 C5.01033058,2.95454545 4.70041322,3.2231405 4.1838843,3.38429752 L4.1838843,3.43801653 C4.64876033,3.65289256 4.95867769,4.02892562 4.90702479,4.61983471 C4.80371901,5.42561983 4.08057851,5.74793388 3.30578512,5.64049587 C2.63429752,5.53305785 2.22107438,5.2107438 2.01446281,4.83471074 L2.42768595,4.29752066 Z"></path>
                            </g>
                        </g>
                        <g id="Group" transform="translate(100.723140, 37.603306)" fill-rule="nonzero">
                            <path d="M4.04950607,0.483471074 L27.892562,0.483471074 C30.0619835,0.483471074 31.8181818,2.30991736 31.8181818,4.5661157 L31.8181818,9.02479339 C31.8181818,11.2809917 30.0619835,13.107438 27.892562,13.107438 L4.04950607,13.107438 C1.88008458,13.107438 0.123886235,11.2809917 0.123886235,9.02479339 L0.123886235,4.5661157 C0.123886235,2.30991736 1.88008458,0.483471074 4.04950607,0.483471074 Z" id="Shape" fill="#7B7C7D"></path>
                            <g transform="translate(11.363636, 1.074380)" id="Shape">
                                <g>
                                    <path d="M4.08057851,10.8512397 C2.0661157,10.8512397 0.41322314,9.1322314 0.41322314,7.03719008 L0.41322314,4.45867769 C0.41322314,2.36363636 2.0661157,0.644628099 4.08057851,0.644628099 L5.47520661,0.644628099 C7.48966942,0.644628099 9.14256198,2.36363636 9.14256198,4.45867769 L9.14256198,7.03719008 C9.14256198,9.1322314 7.48966942,10.8512397 5.47520661,10.8512397 L4.08057851,10.8512397 Z" fill="#C01724"></path>
                                    <path d="M5.47520661,0.91322314 C7.38636364,0.91322314 8.88429752,2.52479339 8.88429752,4.45867769 L8.88429752,7.03719008 C8.88429752,9.02479339 7.33471074,10.5826446 5.47520661,10.5826446 L4.08057851,10.5826446 C2.16942149,10.5826446 0.671487603,8.97107438 0.671487603,7.03719008 L0.671487603,4.45867769 C0.671487603,2.47107438 2.22107438,0.91322314 4.08057851,0.91322314 L5.47520661,0.91322314 Z M5.47520661,0.376033058 L4.08057851,0.376033058 C1.91115702,0.376033058 0.154958678,2.20247934 0.154958678,4.45867769 L0.154958678,7.03719008 C0.154958678,9.29338843 1.91115702,11.1198347 4.08057851,11.1198347 L5.47520661,11.1198347 C7.6446281,11.1198347 9.40082645,9.29338843 9.40082645,7.03719008 L9.40082645,4.45867769 C9.40082645,2.25619835 7.6446281,0.376033058 5.47520661,0.376033058 Z" fill="#AA1920"></path>
                                </g>
                                <g transform="translate(10.330579, 0.000000)">
                                    <path d="M3.92561983,10.8512397 C1.91115702,10.8512397 0.258264463,9.1322314 0.258264463,7.03719008 L0.258264463,4.45867769 C0.258264463,2.36363636 1.91115702,0.644628099 3.92561983,0.644628099 L5.32024793,0.644628099 C7.33471074,0.644628099 8.98760331,2.36363636 8.98760331,4.45867769 L8.98760331,7.03719008 C8.98760331,9.1322314 7.33471074,10.8512397 5.32024793,10.8512397 L3.92561983,10.8512397 Z" fill="#009548"></path>
                                    <path d="M5.32024793,0.91322314 C7.23140496,0.91322314 8.72933884,2.52479339 8.72933884,4.45867769 L8.72933884,7.03719008 C8.72933884,9.02479339 7.17975207,10.5826446 5.32024793,10.5826446 L3.92561983,10.5826446 C2.01446281,10.5826446 0.516528926,8.97107438 0.516528926,7.03719008 L0.516528926,4.45867769 C0.516528926,2.47107438 2.0661157,0.91322314 3.92561983,0.91322314 L5.32024793,0.91322314 Z M5.32024793,0.376033058 L3.92561983,0.376033058 C1.75619835,0.376033058 0,2.20247934 0,4.45867769 L0,7.03719008 C0,9.29338843 1.75619835,11.1198347 3.92561983,11.1198347 L5.32024793,11.1198347 C7.48966942,11.1198347 9.24586777,9.29338843 9.24586777,7.03719008 L9.24586777,4.45867769 C9.29752066,2.25619835 7.54132231,0.376033058 5.32024793,0.376033058 Z" fill="#006139"></path>
                                </g>
                            </g>
                        </g>
                    </g>
                    <g id="textos_y_numeros" transform="translate(0.000000, 0.537190)" fill-rule="nonzero">
                        <path d="M37.5516529,19.338843 C37.1900826,19.0702479 36.9318182,18.6942149 36.9318182,18.1570248 C36.9318182,17.3512397 37.5516529,16.8677686 38.3264463,16.8677686 C39.1528926,16.8677686 39.6694215,17.4049587 39.6694215,18.1570248 C39.6694215,18.6404959 39.3595041,19.0165289 39.0495868,19.285124 L39.0495868,19.338843 C39.4628099,19.607438 39.8760331,19.9297521 39.8760331,20.5743802 C39.8760331,21.3264463 39.2561983,21.8636364 38.3264463,21.8636364 C37.3966942,21.8636364 36.7768595,21.3264463 36.7768595,20.5206612 C36.7252066,19.9834711 37.1384298,19.607438 37.5516529,19.338843 Z M38.3264463,21.3264463 C38.7913223,21.3264463 39.1012397,21.0578512 39.1012397,20.6280992 C39.1012397,20.0909091 38.6363636,19.9297521 37.964876,19.661157 C37.6549587,19.8760331 37.4483471,20.1983471 37.4483471,20.5743802 C37.4483471,20.9504132 37.8615702,21.3264463 38.3264463,21.3264463 Z M38.9979339,18.2644628 C38.9979339,17.8347107 38.7396694,17.5123967 38.3264463,17.5123967 C37.964876,17.5123967 37.7066116,17.7809917 37.7066116,18.1570248 C37.7066116,18.6404959 38.1198347,18.8553719 38.6363636,19.0702479 C38.8429752,18.9090909 38.9979339,18.6404959 38.9979339,18.2644628 Z" id="Shape" fill="#7B7C7D"></path>
                        <path d="M43.9566116,7.62809917 C44.1115702,7.84297521 44.4214876,8.00413223 44.6797521,8.00413223 C45.2479339,8.00413223 45.7128099,7.57438017 45.7644628,6.23140496 C45.5061983,6.55371901 45.0929752,6.76859504 44.731405,6.76859504 C43.9566116,6.76859504 43.3884298,6.28512397 43.3884298,5.26446281 C43.3884298,4.29752066 44.0599174,3.70661157 44.8347107,3.70661157 C45.7644628,3.70661157 46.4876033,4.45867769 46.4876033,6.07024793 C46.4876033,7.95041322 45.6095041,8.70247934 44.6797521,8.70247934 C44.1115702,8.70247934 43.6983471,8.4338843 43.4400826,8.16528926 L43.9566116,7.62809917 Z M45.7644628,5.58677686 C45.661157,4.72727273 45.3512397,4.35123967 44.8863636,4.35123967 C44.5247934,4.35123967 44.214876,4.67355372 44.214876,5.26446281 C44.214876,5.8553719 44.4731405,6.12396694 44.9380165,6.12396694 C45.196281,6.12396694 45.5061983,5.90909091 45.7644628,5.58677686 Z" id="Shape" fill="#7B7C7D"></path>
                        <path d="M43.3367769,42.5454545 L41.1673554,42.5454545 L41.1673554,41.7933884 L44.2665289,41.7933884 L44.2665289,42.3305785 C43.1818182,43.7272727 42.9752066,44.7479339 42.9235537,46.6280992 L42.0454545,46.6280992 C42.1487603,44.8553719 42.4586777,43.7809917 43.3367769,42.5454545 Z" id="Shape" fill="#7B7C7D"></path>
                        <path d="M59.9690083,14.8801653 C60.2272727,15.1487603 60.588843,15.4173554 61.053719,15.4173554 C61.5702479,15.4173554 61.9318182,15.0950413 61.9318182,14.5041322 C61.9318182,13.9132231 61.5702479,13.5909091 61.053719,13.5909091 C60.7438017,13.5909091 60.588843,13.6983471 60.3305785,13.8595041 L59.9173554,13.5909091 L60.072314,11.2272727 L62.5516529,11.2272727 L62.5516529,11.9793388 L60.7954545,11.9793388 L60.6921488,13.161157 C60.8987603,13.053719 61.053719,13 61.3119835,13 C62.0867769,13 62.7582645,13.4834711 62.7582645,14.5041322 C62.7582645,15.5785124 61.9834711,16.1694215 61.1053719,16.1694215 C60.3305785,16.1694215 59.8657025,15.8471074 59.5041322,15.5247934 L59.9690083,14.8801653 Z" id="Shape" fill="#7B7C7D"></path>
                        <path d="M53.1508264,33.3057851 C52.9958678,33.0909091 52.6859504,32.9297521 52.427686,32.9297521 C51.8595041,32.9297521 51.3946281,33.3595041 51.3429752,34.7024793 C51.6012397,34.3264463 52.0144628,34.1115702 52.3243802,34.1115702 C53.1508264,34.1115702 53.6673554,34.5950413 53.6673554,35.6157025 C53.6673554,36.5826446 52.9958678,37.1735537 52.2210744,37.1735537 C51.2913223,37.1735537 50.5165289,36.4214876 50.5165289,34.8099174 C50.5165289,32.9297521 51.3946281,32.177686 52.3243802,32.177686 C52.892562,32.177686 53.3057851,32.446281 53.5640496,32.714876 L53.1508264,33.3057851 Z M52.892562,35.6694215 C52.892562,35.0785124 52.6342975,34.8099174 52.1694215,34.8099174 C51.911157,34.8099174 51.6012397,34.9710744 51.3429752,35.3471074 C51.446281,36.2066116 51.7561983,36.5826446 52.2210744,36.5826446 C52.5826446,36.6363636 52.892562,36.2066116 52.892562,35.6694215 Z" id="Shape" fill="#7B7C7D"></path>
                        <path d="M84.8140496,26.6983471 L84.2458678,26.6983471 L84.2458678,27.9338843 L83.4710744,27.9338843 L83.4710744,26.6983471 L81.4049587,26.6983471 L81.4049587,26.107438 L83.2644628,23.0991736 L84.2458678,23.0991736 L84.2458678,26 L84.8140496,26 L84.8140496,26.6983471 Z M83.4194215,26 L83.4194215,24.9256198 C83.4194215,24.6570248 83.4194215,24.2272727 83.4710744,23.9049587 L83.4194215,23.9049587 C83.3161157,24.1735537 83.161157,24.3884298 83.0578512,24.6570248 L82.231405,26 L83.4194215,26 Z" id="Shape" fill="#7B7C7D"></path>
                        <path d="M107.076446,61.4545455 C108.367769,60.1652893 109.194215,59.3057851 109.194215,58.553719 C109.194215,58.0702479 108.93595,57.6942149 108.419421,57.6942149 C108.057851,57.6942149 107.747934,57.9628099 107.489669,58.231405 L107.024793,57.7479339 C107.438017,57.2644628 107.85124,56.9958678 108.522727,56.9958678 C109.400826,56.9958678 109.969008,57.5867769 109.969008,58.5 C109.969008,59.3595041 109.194215,60.2190083 108.264463,61.2396694 C108.522727,61.2396694 108.832645,61.1859504 109.039256,61.1859504 L110.17562,61.1859504 L110.17562,61.9380165 L107.024793,61.9380165 L107.076446,61.4545455 Z" id="Shape" fill="#7B7C7D"></path>
                        <path d="M123.553719,45.8760331 L124.586777,45.8760331 L124.586777,42.7066116 L123.708678,42.7066116 L123.708678,42.1694215 C124.173554,42.0619835 124.483471,41.9545455 124.793388,41.7933884 L125.413223,41.7933884 L125.413223,45.8760331 L126.342975,45.8760331 L126.342975,46.5743802 L123.553719,46.5743802 L123.553719,45.8760331 Z" id="Shape" fill="#7B7C7D"></path>
                        <path d="M87.7582645,57.8553719 C88.0165289,58.177686 88.3780992,58.392562 88.8429752,58.392562 C89.3595041,58.392562 89.7210744,58.1239669 89.7210744,57.6404959 C89.7210744,57.1570248 89.411157,56.8347107 88.3780992,56.8347107 L88.3780992,56.1900826 C89.3078512,56.1900826 89.5661157,55.8677686 89.5661157,55.4380165 C89.5661157,55.0619835 89.3078512,54.7933884 88.8946281,54.7933884 C88.5330579,54.7933884 88.2231405,54.9545455 87.964876,55.2231405 L87.5516529,54.6859504 C87.964876,54.3099174 88.3780992,54.0950413 88.946281,54.0950413 C89.8243802,54.0950413 90.4442149,54.5247934 90.4442149,55.3842975 C90.4442149,55.9214876 90.1342975,56.2975207 89.6177686,56.5123967 L89.6177686,56.5661157 C90.1859504,56.7272727 90.5991736,57.1033058 90.5991736,57.7479339 C90.5991736,58.607438 89.8760331,59.1446281 88.9979339,59.1446281 C88.2231405,59.1446281 87.7582645,58.822314 87.4483471,58.446281 L87.7582645,57.8553719 Z" id="Shape" fill="#7B7C7D"></path>
                        <g id="Group" transform="translate(112.086777, 70.909091)">
                            <g>
                                <path d="M3.98858135,10.2066116 C2.08139762,10.2066116 0.516528926,8.57807742 0.516528926,6.59330144 L0.516528926,4.15050022 C0.516528926,2.16572423 2.08139762,0.537190083 3.98858135,0.537190083 L5.30893931,0.537190083 C7.21612304,0.537190083 8.78099174,2.16572423 8.78099174,4.15050022 L8.78099174,6.59330144 C8.78099174,8.57807742 7.21612304,10.2066116 5.30893931,10.2066116 L3.98858135,10.2066116 Z" id="Shape" fill="#FFFFFF"></path>
                                <polygon id="Rectangle-path-Copy-12" fill="#1E1E1C" points="3.61570248 -2.22044605e-16 5.68181818 -2.22044605e-16 5.68181818 0.537190083 3.61570248 0.537190083"></polygon>
                                <polygon id="Rectangle-path-Copy" fill="#1E1E1C" points="0.516528926 2.68595041 1.54958678 2.68595041 1.54958678 4.83471074 0 4.83471074"></polygon>
                                <rect id="Rectangle-path-Copy-5" fill="#1E1E1C" x="1.54958678" y="4.83471074" width="2.0661157" height="2.14876033"></rect>
                                <rect id="Rectangle-path-Copy-7" fill="#1E1E1C" x="3.61570248" y="6.98347107" width="2.0661157" height="2.14876033"></rect>
                                <polygon id="Rectangle-path-Copy-10" fill="#1E1E1C" points="1.54958678 9.1322314 3.61570248 9.1322314 3.61570248 10.2066116 1.54958678 9.66942149"></polygon>
                                <polygon id="Rectangle-path-Copy-11" fill="#1E1E1C" points="5.68181818 9.1322314 7.74793388 9.1322314 7.74793388 9.66942149 5.68181818 10.2066116"></polygon>
                                <rect id="Rectangle-path-Copy-8" fill="#1E1E1C" x="5.68181818" y="4.83471074" width="2.0661157" height="2.14876033"></rect>
                                <polygon id="Rectangle-path-Copy-9" fill="#1E1E1C" points="7.74793388 6.98347107 8.78099174 6.98347107 8.26446281 8.59504132 7.74793388 9.1322314"></polygon>
                                <polygon id="Rectangle-path-Copy-6" fill="#1E1E1C" points="0 6.98347107 1.54958678 6.98347107 1.54958678 9.1322314 1.03305785 9.1322314"></polygon>
                                <rect id="Rectangle-path-Copy-2" fill="#1E1E1C" x="3.61570248" y="2.68595041" width="2.0661157" height="2.14876033"></rect>
                                <polygon id="Rectangle-path-Copy-3" fill="#1E1E1C" points="5.68181818 0.537190083 7.23140496 0.537190083 7.74793388 1.07438017 7.74793388 2.68595041 5.68181818 2.68595041"></polygon>
                                <polygon id="Rectangle-path-Copy-4" fill="#1E1E1C" points="7.74793388 2.68595041 8.78099174 2.68595041 8.78099174 4.83471074 7.74793388 4.83471074"></polygon>
                                <polygon id="Rectangle-path" fill="#1E1E1C" points="1.54958678 1.07438017 3.61570248 0.537190083 3.61570248 2.68595041 1.54958678 2.68595041"></polygon>
                                <path d="M5.32024793,0.537190083 C7.23140496,0.537190083 8.72933884,2.14876033 8.72933884,4.08264463 L8.72933884,6.66115702 C8.72933884,8.64876033 7.17975207,10.2066116 5.32024793,10.2066116 L3.92561983,10.2066116 C2.01446281,10.2066116 0.516528926,8.59504132 0.516528926,6.66115702 L0.516528926,4.08264463 C0.516528926,2.09504132 2.0661157,0.537190083 3.92561983,0.537190083 L5.32024793,0.537190083 Z M5.32024793,0 L3.92561983,0 C1.75619835,0 0,1.82644628 0,4.08264463 L0,6.66115702 C0,8.91735537 1.75619835,10.7438017 3.92561983,10.7438017 L5.32024793,10.7438017 C7.48966942,10.7438017 9.24586777,8.91735537 9.24586777,6.66115702 L9.24586777,4.08264463 C9.29752066,1.88016529 7.48966942,0 5.32024793,0 Z" id="Shape" fill="#C7C6C5"></path>
                            </g>
                        </g>
                        <g id="Group" fill="#7B7C7D">
                            <path d="M0,4.40495868 L1.03305785,4.40495868 L1.03305785,1.23553719 L0.154958678,1.23553719 L0.154958678,0.698347107 C0.619834711,0.590909091 0.929752066,0.483471074 1.23966942,0.32231405 L1.85950413,0.32231405 L1.85950413,4.40495868 L2.7892562,4.40495868 L2.7892562,5.10330579 L0,5.10330579 L2.93612701e-14,4.40495868 Z" id="Shape"></path>
                            <path d="M3.4607438,2.68595041 C3.4607438,1.07438017 4.08057851,0.214876033 5.01033058,0.214876033 C5.94008264,0.214876033 6.55991736,1.07438017 6.55991736,2.68595041 C6.55991736,4.29752066 5.94008264,5.2107438 5.01033058,5.2107438 C4.08057851,5.2107438 3.4607438,4.29752066 3.4607438,2.68595041 Z M5.83677686,2.68595041 C5.83677686,1.34297521 5.5268595,0.91322314 5.06198347,0.91322314 C4.59710744,0.91322314 4.28719008,1.34297521 4.28719008,2.68595041 C4.28719008,4.02892562 4.59710744,4.51239669 5.06198347,4.51239669 C5.5268595,4.51239669 5.83677686,4.02892562 5.83677686,2.68595041 Z" id="Shape"></path>
                        </g>
                        <g id="Group" transform="translate(3.615702, 37.603306)" fill="#7B7C7D">
                            <path d="M0,4.24380165 L1.03305785,4.24380165 L1.03305785,1.07438017 L0.154958678,1.07438017 L0.154958678,0.537190083 C0.619834711,0.429752066 0.929752066,0.32231405 1.23966942,0.161157025 L1.85950413,0.161157025 L1.85950413,4.24380165 L2.7892562,4.24380165 L2.7892562,4.94214876 L0,4.94214876 L2.93612701e-14,4.24380165 Z" id="Shape"></path>
                            <path d="M3.71900826,4.24380165 L4.75206612,4.24380165 L4.75206612,1.07438017 L3.87396694,1.07438017 L3.87396694,0.537190083 C4.33884298,0.429752066 4.64876033,0.32231405 4.95867769,0.161157025 L5.5785124,0.161157025 L5.5785124,4.24380165 L6.50826446,4.24380165 L6.50826446,4.94214876 L3.71900826,4.94214876 L3.71900826,4.24380165 Z" id="Shape"></path>
                        </g>
                        <g id="Group" transform="translate(28.409091, 72.520661)" fill="#7B7C7D">
                            <path d="M0.154958678,4.51239669 L1.18801653,4.51239669 L1.18801653,1.34297521 L0.309917355,1.34297521 L0.309917355,0.805785124 C0.774793388,0.698347107 1.08471074,0.590909091 1.3946281,0.429752066 L2.01446281,0.429752066 L2.01446281,4.51239669 L2.94421488,4.51239669 L2.94421488,5.2107438 L0.154958678,5.2107438 L0.154958678,4.51239669 Z" id="Shape"></path>
                            <path d="M3.61570248,4.78099174 C4.90702479,3.49173554 5.73347107,2.6322314 5.73347107,1.88016529 C5.73347107,1.39669421 5.47520661,1.02066116 4.95867769,1.02066116 C4.59710744,1.02066116 4.28719008,1.2892562 4.02892562,1.55785124 L3.56404959,1.07438017 C3.97727273,0.590909091 4.39049587,0.32231405 5.06198347,0.32231405 C5.94008264,0.32231405 6.50826446,0.91322314 6.50826446,1.82644628 C6.50826446,2.68595041 5.73347107,3.54545455 4.80371901,4.5661157 C5.06198347,4.5661157 5.37190083,4.51239669 5.5785124,4.51239669 L6.71487603,4.51239669 L6.71487603,5.26446281 L3.56404959,5.26446281 L3.61570248,4.78099174 Z" id="Shape"></path>
                        </g>
                        <g id="Group" transform="translate(45.454545, 66.074380)" fill="#7B7C7D">
                            <path d="M0.0516528926,4.51239669 L1.08471074,4.51239669 L1.08471074,1.34297521 L0.20661157,1.34297521 L0.20661157,0.805785124 C0.671487603,0.698347107 0.981404959,0.590909091 1.29132231,0.429752066 L1.91115702,0.429752066 L1.91115702,4.51239669 L2.84090909,4.51239669 L2.84090909,5.2107438 L0.0516528926,5.2107438 L0.0516528926,4.51239669 Z" id="Shape"></path>
                            <path d="M3.82231405,4.02892562 C4.08057851,4.35123967 4.44214876,4.5661157 4.90702479,4.5661157 C5.42355372,4.5661157 5.78512397,4.29752066 5.78512397,3.81404959 C5.78512397,3.33057851 5.47520661,3.00826446 4.44214876,3.00826446 L4.44214876,2.36363636 C5.37190083,2.36363636 5.63016529,2.04132231 5.63016529,1.61157025 C5.63016529,1.23553719 5.37190083,0.966942149 4.95867769,0.966942149 C4.59710744,0.966942149 4.28719008,1.12809917 4.02892562,1.39669421 L3.61570248,0.859504132 C4.02892562,0.483471074 4.44214876,0.268595041 5.01033058,0.268595041 C5.88842975,0.268595041 6.50826446,0.698347107 6.50826446,1.55785124 C6.50826446,2.09504132 6.19834711,2.47107438 5.68181818,2.68595041 L5.68181818,2.73966942 C6.25,2.90082645 6.66322314,3.2768595 6.66322314,3.9214876 C6.66322314,4.78099174 5.94008264,5.31818182 5.06198347,5.31818182 C4.28719008,5.31818182 3.82231405,4.99586777 3.51239669,4.61983471 L3.82231405,4.02892562 Z" id="Shape"></path>
                        </g>
                        <g id="Group" transform="translate(72.830579, 70.371901)" fill="#7B7C7D">
                            <path d="M0.258264463,4.29752066 L1.29132231,4.29752066 L1.29132231,1.12809917 L0.41322314,1.12809917 L0.41322314,0.590909091 C0.878099174,0.483471074 1.18801653,0.376033058 1.49793388,0.214876033 L2.1177686,0.214876033 L2.1177686,4.29752066 L3.04752066,4.29752066 L3.04752066,4.99586777 L0.258264463,4.99586777 L0.258264463,4.29752066 Z" id="Shape"></path>
                            <path d="M7.02479339,3.76033058 L6.45661157,3.76033058 L6.45661157,4.99586777 L5.68181818,4.99586777 L5.68181818,3.76033058 L3.61570248,3.76033058 L3.61570248,3.16942149 L5.47520661,0.161157025 L6.45661157,0.161157025 L6.45661157,3.06198347 L7.02479339,3.06198347 L7.02479339,3.76033058 Z M5.63016529,3.06198347 L5.63016529,1.98760331 C5.63016529,1.71900826 5.63016529,1.2892562 5.68181818,0.966942149 L5.63016529,0.966942149 C5.5268595,1.23553719 5.37190083,1.45041322 5.26859504,1.71900826 L4.44214876,3.06198347 L5.63016529,3.06198347 Z" id="Shape"></path>
                        </g>
                        <g id="Group" transform="translate(55.268595, 80.578512)" fill="#7B7C7D">
                            <path d="M0.309917355,4.19008264 L1.34297521,4.19008264 L1.34297521,1.02066116 L0.464876033,1.02066116 L0.464876033,0.483471074 C0.929752066,0.376033058 1.23966942,0.268595041 1.54958678,0.107438017 L2.16942149,0.107438017 L2.16942149,4.19008264 L3.09917355,4.19008264 L3.09917355,4.88842975 L0.309917355,4.88842975 L0.309917355,4.19008264 Z" id="Shape"></path>
                            <path d="M4.02892562,3.76033058 C4.28719008,4.02892562 4.64876033,4.29752066 5.11363636,4.29752066 C5.63016529,4.29752066 5.99173554,3.97520661 5.99173554,3.38429752 C5.99173554,2.79338843 5.63016529,2.47107438 5.11363636,2.47107438 C4.80371901,2.47107438 4.64876033,2.5785124 4.39049587,2.73966942 L3.97727273,2.47107438 L4.1322314,0.107438017 L6.61157025,0.107438017 L6.61157025,0.859504132 L4.8553719,0.859504132 L4.75206612,2.04132231 C4.95867769,1.9338843 5.11363636,1.88016529 5.37190083,1.88016529 C6.14669421,1.88016529 6.81818182,2.36363636 6.81818182,3.38429752 C6.81818182,4.45867769 6.04338843,5.04958678 5.16528926,5.04958678 C4.39049587,5.04958678 3.92561983,4.72727273 3.56404959,4.40495868 L4.02892562,3.76033058 Z" id="Shape"></path>
                        </g>
                        <g id="Group" transform="translate(172.520661, 123.553719)" fill="#7B7C7D">
                            <path d="M0.154958678,4.72727273 L1.18801653,4.72727273 L1.18801653,1.55785124 L0.309917355,1.55785124 L0.309917355,1.02066116 C0.774793388,0.91322314 1.08471074,0.805785124 1.3946281,0.644628099 L2.01446281,0.644628099 L2.01446281,4.72727273 L2.94421488,4.72727273 L2.94421488,5.42561983 L0.154958678,5.42561983 C0.154958678,5.42561983 0.154958678,4.72727273 0.154958678,4.72727273 Z" id="Shape"></path>
                            <path d="M6.30165289,1.55785124 C6.14669421,1.34297521 5.83677686,1.18181818 5.5785124,1.18181818 C5.01033058,1.18181818 4.54545455,1.61157025 4.49380165,2.95454545 C4.75206612,2.5785124 5.16528926,2.36363636 5.47520661,2.36363636 C6.30165289,2.36363636 6.81818182,2.84710744 6.81818182,3.8677686 C6.81818182,4.83471074 6.14669421,5.42561983 5.37190083,5.42561983 C4.44214876,5.42561983 3.66735537,4.67355372 3.66735537,3.06198347 C3.66735537,1.18181818 4.54545455,0.429752066 5.47520661,0.429752066 C6.04338843,0.429752066 6.45661157,0.698347107 6.71487603,0.966942149 L6.30165289,1.55785124 Z M6.04338843,3.9214876 C6.04338843,3.33057851 5.78512397,3.06198347 5.32024793,3.06198347 C5.06198347,3.06198347 4.75206612,3.2231405 4.49380165,3.59917355 C4.59710744,4.45867769 4.90702479,4.83471074 5.37190083,4.83471074 C5.73347107,4.83471074 6.04338843,4.51239669 6.04338843,3.9214876 Z" id="Shape"></path>
                        </g>
                        <g id="Group" transform="translate(185.433884, 90.785124)" fill="#7B7C7D">
                            <path d="M0,4.35123967 L1.03305785,4.35123967 L1.03305785,1.18181818 L0.154958678,1.18181818 L0.154958678,0.644628099 C0.619834711,0.537190083 0.929752066,0.429752066 1.23966942,0.268595041 L1.85950413,0.268595041 L1.85950413,4.35123967 L2.7892562,4.35123967 L2.7892562,5.04958678 L0,5.04958678 L0,4.35123967 Z" id="Shape"></path>
                            <path d="M5.73347107,1.02066116 L3.56404959,1.02066116 L3.56404959,0.268595041 L6.66322314,0.268595041 L6.66322314,0.805785124 C5.5785124,2.20247934 5.37190083,3.2231405 5.32024793,5.10330579 L4.44214876,5.10330579 C4.49380165,3.38429752 4.8553719,2.30991736 5.73347107,1.02066116 Z" id="Shape"></path>
                        </g>
                    </g>
                </g>
            </g>
        </g>
    </g>
</svg>