<?xml version="1.0" encoding="UTF-8"?>
<svg width="200px" height="116px" viewBox="0 0 200 116" version="1.1" xmlns="http://www.w3.org/2000/svg" xmlns:xlink="http://www.w3.org/1999/xlink">
    <!-- Generator: sketchtool 51.2 (57519) - http://www.bohemiancoding.com/sketch -->
    <title>0A6A1C49-587D-4C4F-BB32-279D7C751323</title>
    <desc>Created with sketchtool.</desc>
    <defs>
        <path d="M0.04784689,3.73205742 C0.04784689,1.72248804 1.67464115,0.0956937799 3.68421053,0.0956937799 L4.97607656,0.0956937799 C6.98564593,0.0956937799 8.61244019,1.72248804 8.61244019,3.73205742 L8.61244019,6.02870813 C8.61244019,8.03827751 6.98564593,9.66507177 4.97607656,9.66507177 L3.68421053,9.66507177 C1.67464115,9.66507177 0.04784689,8.03827751 0.04784689,6.02870813 L0.04784689,3.73205742 Z" id="path-1"></path>
    </defs>
    <g id="Page-1" stroke="none" stroke-width="1" fill="none" fill-rule="evenodd">
        <g id="Circuit_info_05" transform="translate(-477.000000, -164.000000)">
            <g id="assets/circuits_info/109" transform="translate(477.000000, 160.000000)">
                <g id="assets/circuits_info/termasderiohondo" transform="translate(0.000000, 4.500000)">
                    <g id="trazado" transform="translate(0.000000, 13.875598)" fill="#B7B5B6" fill-rule="nonzero">
                        <path d="M195.358852,8.94736842 L195.119617,7.46411483 C195.119617,7.41626794 195.119617,7.41626794 195.119617,7.36842105 L194.832536,6.12440191 C194.832536,6.07655502 194.784689,6.02870813 194.784689,5.93301435 L194.258373,4.784689 C194.210526,4.73684211 194.210526,4.64114833 194.162679,4.59330144 L193.301435,3.49282297 C193.253589,3.44497608 193.253589,3.39712919 193.205742,3.39712919 L192.727273,2.91866029 L192.631579,2.77511962 C192.583732,2.72727273 192.583732,2.67942584 192.535885,2.67942584 L191.5311,1.77033493 C191.483254,1.72248804 191.38756,1.67464115 191.339713,1.62679426 L189.808612,0.765550239 C189.760766,0.717703349 189.712919,0.717703349 189.665072,0.717703349 L188.373206,0.23923445 C188.277512,0.19138756 188.181818,0.19138756 188.038278,0.19138756 C188.038278,0.19138756 188.038278,0.19138756 188.038278,0.19138756 L134.30622,0.717703349 L99.569378,1.00478469 L82.15311,1.48325359 C82.15311,1.48325359 82.1052632,1.48325359 82.1052632,1.48325359 L76.3636364,1.96172249 C76.3157895,1.96172249 76.3157895,1.96172249 76.2679426,1.96172249 L71.4832536,2.8708134 C71.4832536,2.8708134 71.4354067,2.8708134 71.4354067,2.8708134 L67.5119617,3.87559809 C67.4641148,3.87559809 67.4641148,3.87559809 67.4162679,3.92344498 L62.15311,5.78947368 C62.1052632,5.78947368 62.0574163,5.83732057 62.0095694,5.83732057 L57.5119617,8.22966507 L53.923445,10.2392344 C53.923445,10.2392344 53.8755981,10.2392344 53.8755981,10.2870813 L50.4784689,12.4401914 C50.430622,12.4401914 50.430622,12.4880383 50.3827751,12.4880383 L48.6124402,13.8755981 C48.6124402,13.8755981 48.5645933,13.923445 48.5645933,13.923445 L47.84689,14.5454545 C47.7033493,14.6889952 47.5598086,14.8803828 47.5598086,15.1196172 L47.4162679,16.0287081 C47.4162679,16.0287081 47.4162679,16.076555 47.4162679,16.076555 L47.1770335,18.0861244 C47.1770335,18.2296651 47.1770335,18.3732057 47.2248804,18.5167464 L47.0813397,20.3349282 L46.6985646,24.9760766 L46.3157895,29.7129187 L45.7894737,32.8708134 L45.3588517,33.8277512 L44.9282297,34.7368421 L44.2583732,35.5980861 L43.3971292,36.4114833 L42.6794258,37.0334928 L41.6267943,37.4162679 L40.5741627,37.5598086 L39.4736842,37.3684211 L38.6124402,37.0334928 L37.7990431,36.5550239 L37.7511962,36.4593301 L37.3684211,35.8851675 L35.215311,31.3875598 L33.9712919,28.8516746 L32.5837321,25.6937799 C32.5837321,25.645933 32.5837321,25.645933 32.5358852,25.5980861 L31.1004785,22.9186603 L29.569378,19.6172249 C29.569378,19.6172249 29.569378,19.569378 29.569378,19.569378 L28.0861244,16.7942584 L26.937799,14.4976077 C26.937799,14.4497608 26.8899522,14.4019139 26.8899522,14.4019139 L25.645933,12.6315789 C25.645933,12.6315789 25.645933,12.5837321 25.5980861,12.5837321 L24.0669856,10.5741627 C24.0669856,10.5741627 24.0669856,10.5741627 24.0669856,10.5263158 L22.15311,8.22966507 C22.15311,8.22966507 22.1052632,8.18181818 22.1052632,8.18181818 L20.5741627,6.6507177 C20.5263158,6.60287081 20.4784689,6.55502392 20.430622,6.50717703 L20.3827751,6.50717703 L19.8564593,5.93301435 C19.8086124,5.88516746 19.7607656,5.83732057 19.7129187,5.78947368 L17.3205742,4.06698565 C17.3205742,4.06698565 17.2727273,4.06698565 17.2727273,4.01913876 L15.7894737,3.11004785 C15.7416268,3.06220096 15.6937799,3.06220096 15.645933,3.01435407 L14.1626794,2.3923445 L12.9665072,1.9138756 C12.8708134,1.86602871 12.7751196,1.86602871 12.6794258,1.86602871 L11.3875598,1.77033493 C11.3875598,1.77033493 11.3397129,1.77033493 11.3397129,1.77033493 L10.0956938,1.77033493 C10.0478469,1.77033493 10,1.77033493 9.90430622,1.77033493 L8.66028708,2.00956938 C8.61244019,2.00956938 8.5645933,2.00956938 8.5645933,2.05741627 L7.32057416,2.44019139 C7.22488038,2.48803828 7.17703349,2.48803828 7.08133971,2.53588517 L5.78947368,3.39712919 C5.74162679,3.44497608 5.6937799,3.44497608 5.6937799,3.49282297 L4.3062201,4.73684211 C4.3062201,4.73684211 4.25837321,4.784689 4.25837321,4.784689 L3.25358852,5.88516746 C3.20574163,5.93301435 3.20574163,5.93301435 3.15789474,5.98086124 L2.24880383,7.27272727 C2.24880383,7.32057416 2.20095694,7.32057416 2.20095694,7.36842105 L1.33971292,8.89952153 C1.33971292,8.94736842 1.29186603,8.99521531 1.29186603,9.0430622 L0.669856459,10.7655502 C0.669856459,10.8133971 0.622009569,10.9090909 0.622009569,10.9569378 L0.38277512,12.6794258 C0.38277512,12.7272727 0.38277512,12.7751196 0.38277512,12.8229665 L0.4784689,14.8325359 C0.4784689,14.8803828 0.4784689,14.9282297 0.4784689,14.9760766 L0.861244019,17.0813397 C0.861244019,17.1291866 0.909090909,17.2248804 0.909090909,17.2727273 L1.62679426,18.9952153 C1.62679426,18.9952153 1.62679426,19.0430622 1.62679426,19.0430622 L2.3923445,20.6698565 C2.3923445,20.7177033 2.44019139,20.7655502 2.44019139,20.7655502 L4.35406699,23.6842105 L8.46889952,29.6650718 L11.1004785,33.3014354 L13.4449761,36.4593301 C13.4449761,36.4593301 13.4449761,36.4593301 13.4449761,36.4593301 L15.8373206,39.5215311 L21.5311005,47.4162679 L28.3253589,57.0813397 C28.3253589,57.0813397 28.3253589,57.0813397 28.3253589,57.0813397 L34.1148325,64.784689 L37.1291866,69.0909091 L38.7559809,71.4354067 L42.0574163,75.9808612 L42.0574163,76.076555 L41.8181818,76.8421053 C41.8181818,76.8899522 41.8181818,76.8899522 41.7703349,76.937799 L40.0478469,85.0717703 C40.0478469,85.1196172 40.0478469,85.1674641 40.0478469,85.215311 L39.9521531,87.3684211 C39.9521531,87.4162679 39.9521531,87.4641148 39.9521531,87.5119617 L40.0956938,88.9952153 C40.0956938,89.0430622 40.0956938,89.0430622 40.0956938,89.0909091 L40.3827751,90.5741627 C40.3827751,90.6698565 40.430622,90.7655502 40.5263158,90.861244 L41.3875598,92.2488038 C41.4354067,92.3444976 41.5311005,92.4401914 41.6267943,92.5358852 L41.9617225,92.7751196 L42.0574163,92.9665072 C42.1052632,93.062201 42.2009569,93.1578947 42.2966507,93.2535885 L43.6842105,94.2583732 C43.7320574,94.3062201 43.7799043,94.3062201 43.7799043,94.354067 L45.4066986,95.215311 C45.5502392,95.2631579 45.6937799,95.3110048 45.8373206,95.3110048 L47.3684211,95.3110048 C47.4162679,95.3110048 47.5119617,95.3110048 47.5598086,95.3110048 L49.1866029,95.0239234 C49.2344498,95.0239234 49.2822967,95.0239234 49.3301435,94.9760766 L50.6220096,94.4976077 C50.7177033,94.4497608 50.7655502,94.4497608 50.8133971,94.4019139 L52.2009569,93.492823 C52.2488038,93.4449761 52.2966507,93.3971292 52.3444976,93.3492823 L53.7320574,91.8660287 C53.7799043,91.8181818 53.8277512,91.7703349 53.8277512,91.722488 L54.8325359,90.1913876 L57.0813397,86.937799 L58.6124402,84.6889952 C58.6124402,84.6411483 58.6602871,84.6411483 58.6602871,84.5933014 L60.3827751,81.4354067 C60.430622,81.3875598 60.430622,81.3397129 60.430622,81.291866 L61.1483254,79.2822967 C61.1483254,79.2822967 61.1483254,79.2344498 61.1483254,79.2344498 L61.7703349,76.937799 L62.2966507,74.9282297 C62.2966507,74.9282297 62.2966507,74.8803828 62.2966507,74.8803828 L62.6794258,72.9665072 C62.6794258,72.9665072 62.6794258,72.9186603 62.6794258,72.9186603 L62.8708134,71.6746411 C62.8708134,71.6267943 62.9186603,71.5311005 62.9186603,71.4832536 L63.1578947,69.0430622 L63.6363636,65.8373206 L64.0191388,62.6315789 L64.4976077,58.0382775 L65.0239234,52.6315789 L65.7894737,45.5502392 L66.3157895,42.15311 L67.1770335,39.138756 L68.277512,36.9856459 L69.9043062,34.3062201 L71.4832536,32.4401914 L73.2535885,31.0526316 L75.7416268,29.4258373 L77.9904306,28.277512 L80.3827751,27.6076555 L82.5837321,27.3205742 L84.784689,27.3205742 L87.7033493,27.7033493 L90.2870813,28.5645933 L93.4449761,30.0478469 L95.7894737,31.4832536 L98.1339713,32.8708134 L100.382775,34.2583732 L102.009569,35.2631579 C102.009569,35.2631579 102.057416,35.2631579 102.057416,35.3110048 L103.684211,36.1722488 C103.732057,36.1722488 103.779904,36.2200957 103.827751,36.2200957 L105.837321,36.937799 C105.837321,36.937799 105.885167,36.937799 105.933014,36.937799 L107.703349,37.4162679 C107.751196,37.4162679 107.751196,37.4162679 107.799043,37.4162679 L109.952153,37.7990431 C110,37.7990431 110.047847,37.7990431 110.095694,37.7990431 L111.626794,37.8947368 L112.870813,37.9904306 C112.870813,37.9904306 112.91866,37.9904306 112.91866,37.9904306 C112.91866,37.9904306 112.966507,37.9904306 112.966507,37.9904306 L114.066986,37.8947368 L116.315789,37.9904306 C116.315789,37.9904306 116.315789,37.9904306 116.363636,37.9904306 L117.559809,37.9904306 L118.516746,38.1339713 L119.425837,38.5167464 L119.521531,38.5645933 L119.569378,38.6602871 L120,39.4258373 L120.191388,39.9521531 L120.334928,41.0526316 L120.334928,42.6794258 C120.334928,42.8229665 120.382775,42.9186603 120.430622,43.062201 L120.334928,68.8038278 C120.334928,68.8516746 120.334928,68.8516746 120.334928,68.8995215 L120.478469,70.9090909 C120.478469,70.9090909 120.478469,70.9569378 120.478469,70.9569378 L120.861244,73.492823 C120.861244,73.5406699 120.861244,73.5885167 120.909091,73.6363636 L121.626794,76.0287081 C121.626794,76.076555 121.674641,76.1244019 121.674641,76.1722488 L122.77512,78.3253589 C122.822967,78.3732057 122.822967,78.4210526 122.870813,78.4688995 L124.593301,80.7177033 C124.593301,80.7655502 124.641148,80.7655502 124.688995,80.8133971 L126.937799,83.1100478 C126.985646,83.1578947 126.985646,83.1578947 127.033493,83.2057416 L127.08134,83.2535885 L127.655502,83.8277512 C127.703349,83.8755981 127.703349,83.8755981 127.751196,83.923445 L130.478469,86.0287081 C130.526316,86.076555 130.62201,86.1244019 130.717703,86.1722488 L133.492823,87.3205742 C133.54067,87.3684211 133.636364,87.3684211 133.684211,87.3684211 C134.497608,87.5119617 135.502392,87.7033493 135.789474,87.7511962 C136.028708,87.84689 136.45933,87.9425837 138.421053,88.0382775 C138.421053,88.0382775 138.4689,88.0382775 138.4689,88.0382775 C138.4689,88.0382775 138.516746,88.0382775 138.516746,88.0382775 L140.430622,87.9425837 C140.478469,87.9425837 140.526316,87.9425837 140.62201,87.9425837 L142.344498,87.5598086 C142.440191,87.5598086 142.488038,87.5119617 142.583732,87.4641148 L143.732057,86.8421053 C143.827751,86.7942584 143.923445,86.7464115 143.971292,86.6507177 L144.736842,85.7894737 C144.784689,85.7416268 144.832536,85.6937799 144.880383,85.5980861 L145.502392,84.4976077 C145.550239,84.4497608 145.550239,84.4019139 145.598086,84.3062201 L145.980861,83.1578947 C145.980861,83.1100478 146.028708,83.062201 146.028708,83.0143541 L146.267943,81.4832536 C146.267943,81.4832536 146.267943,81.4354067 146.267943,81.4354067 L146.650718,77.8947368 C146.650718,77.8947368 146.650718,77.84689 146.650718,77.84689 L146.889952,74.0669856 L147.368421,67.7990431 C147.368421,67.7990431 147.368421,67.7990431 147.368421,67.7511962 L147.655502,60.6220096 L148.133971,52.2009569 L148.421053,47.1291866 L148.947368,43.5406699 L150,40.5741627 L151.244019,37.84689 L152.535885,35.0717703 L154.497608,32.0574163 L157.416268,28.277512 L159.952153,25.9808612 L162.488038,24.0191388 L165.69378,22.2488038 L169.473684,20.8133971 L172.727273,19.7607656 L175.358852,19.2344498 L187.272727,17.3205742 C187.320574,17.3205742 187.320574,17.3205742 187.368421,17.3205742 L189.904306,16.6028708 C190,16.6028708 190.047847,16.5550239 190.095694,16.507177 L192.200957,15.3588517 C192.248804,15.3110048 192.344498,15.2631579 192.392344,15.215311 L193.492823,14.2105263 C193.54067,14.1626794 193.588517,14.0669856 193.636364,14.0191388 L194.545455,12.5358852 C194.593301,12.4880383 194.593301,12.4401914 194.641148,12.3444976 L195.119617,11.1004785 C195.167464,11.0047847 195.167464,10.9569378 195.167464,10.861244 L195.311005,9.09090909 C195.358852,9.09090909 195.358852,9.0430622 195.358852,8.94736842 Z M1.38755981,13.923445 L1.33971292,12.9186603 L1.4354067,12.15311 L1.33971292,12.9186603 L1.38755981,13.923445 Z M41.0526316,85.4066986 L41.9138756,81.3397129 L41.0526316,85.4066986 L40.9569378,87.5598086 L41.0526316,85.4066986 Z M41.4832536,90.5263158 L41.1961722,89.0430622 L41.0526316,87.7033493 L41.1961722,89.0430622 L41.4832536,90.5263158 L42.0095694,91.3875598 L41.4832536,90.5263158 Z M143.301435,4.784689 L101.38756,5.02392344 L96.9856459,5.11961722 L101.38756,5.02392344 L143.301435,4.784689 Z M71.5311005,3.92344498 L76.3157895,3.01435407 L82.0574163,2.53588517 L99.4736842,2.05741627 L82.0574163,2.53588517 L76.3157895,3.01435407 L71.5311005,3.92344498 L70.861244,4.11483254 L71.5311005,3.92344498 Z M70,7.6076555 C70,7.6076555 70.1913876,7.55980861 70.430622,7.46411483 C70.1913876,7.55980861 70,7.6076555 70,7.6076555 C70,7.6076555 70,7.6076555 70,7.6076555 C70,7.6076555 70,7.6076555 70,7.6076555 Z M54.3062201,11.1961722 L57.84689,9.18660287 L54.3062201,11.1961722 L50.9090909,13.3492823 L54.3062201,11.1961722 Z M48.7559809,36.3157895 L49.2344498,35.0717703 L49.5215311,33.5406699 L49.2344498,35.0717703 L48.7559809,36.3157895 L48.4688995,36.8421053 L48.7559809,36.3157895 Z M48.277512,16.2679426 L48.3732057,15.7894737 L48.277512,16.2679426 L48.0382775,18.277512 L48.277512,16.2679426 Z M47.1770335,29.9043062 L47.5598086,25.1196172 L47.7511962,22.6794258 L47.5598086,25.1196172 L47.1770335,29.9043062 L46.6507177,33.2057416 L47.1770335,29.9043062 Z M45.2631579,40.1913876 L46.3636364,39.4258373 L45.2631579,40.1913876 L44.1148325,40.8133971 L43.3492823,41.0526316 L44.1148325,40.8133971 L45.2631579,40.1913876 Z M41.8660287,38.3732057 L43.1578947,37.8947368 L44.0191388,37.1291866 L43.1578947,37.8947368 L41.8660287,38.3732057 L40.5741627,38.5167464 L41.8660287,38.3732057 Z M38.2296651,37.9425837 L39.2344498,38.3253589 L38.2296651,37.9425837 L37.5119617,37.5119617 L38.2296651,37.9425837 Z M36.9856459,37.0813397 L37.1770335,37.3205742 L36.9856459,37.0813397 L36.6985646,36.6507177 L36.9856459,37.0813397 Z M36.2200957,39.7129187 L36.937799,40.1913876 L37.7990431,40.8133971 L38.8995215,41.1004785 L37.7990431,40.8133971 L36.937799,40.1913876 L36.2200957,39.7129187 Z M35.5023923,38.9952153 L35.7416268,39.138756 L35.5023923,38.9952153 L34.1148325,36.6028708 L33.492823,35.4545455 L34.1148325,36.6028708 L35.5023923,38.9952153 Z M33.1100478,29.2822967 L34.354067,31.8181818 L35.0717703,33.3014354 L34.354067,31.8181818 L33.1100478,29.2822967 L31.722488,26.1244019 L33.1100478,29.2822967 Z M27.2248804,17.2727273 L28.708134,20.0956938 L29.1866029,21.1483254 L28.708134,20.0956938 L27.2248804,17.2727273 L26.076555,14.9760766 L27.2248804,17.2727273 Z M23.8277512,16.0287081 L24.4497608,17.0813397 L23.8277512,16.0287081 L22.9665072,14.6411483 L23.8277512,16.0287081 Z M19.8086124,7.22488038 L19.9043062,7.32057416 L21.3875598,8.85167464 L19.9043062,7.32057416 L19.8086124,7.22488038 L19.5215311,6.88995215 L19.8086124,7.22488038 Z M10.1913876,6.1722488 C10.1435407,6.1722488 10.1435407,6.1722488 10.1913876,6.1722488 C10.1435407,6.1722488 10.1435407,6.1722488 10.1913876,6.1722488 C10.1435407,6.1722488 10.1435407,6.1722488 10.1913876,6.1722488 Z M8.89952153,3.06220096 L10.1435407,2.82296651 L8.89952153,3.06220096 L7.94258373,3.3492823 L8.89952153,3.06220096 Z M7.84688995,7.32057416 L8.99521531,6.55502392 L7.84688995,7.32057416 L6.98564593,7.99043062 L7.84688995,7.32057416 Z M2.48803828,18.6602871 L2.34449761,18.277512 L2.48803828,18.6602871 L3.25358852,20.2870813 L2.48803828,18.6602871 Z M4.97607656,5.55023923 L6.36363636,4.3062201 L4.97607656,5.55023923 L3.97129187,6.6507177 L4.97607656,5.55023923 Z M4.21052632,12.4401914 L4.06698565,13.7320574 L4.21052632,12.4401914 L4.73684211,11.0526316 L5.74162679,9.33014354 L4.73684211,11.0047847 L4.21052632,12.4401914 Z M7.84688995,22.2966507 L4.73684211,17.8947368 L7.84688995,22.2966507 L10.1435407,25.4545455 L7.84688995,22.2966507 Z M32.3444976,55.5502392 L26.4114833,47.84689 L32.3444976,55.5502392 L37.2727273,62.2009569 L32.3444976,55.5502392 Z M44.354067,90.9569378 L44.0191388,90.430622 L43.6363636,89.5215311 L43.6363636,87.4162679 L45.1674641,80.9090909 L43.6363636,87.4162679 L43.6363636,89.5215311 L44.0191388,90.430622 L44.354067,90.9569378 L44.6411483,91.1961722 L44.354067,90.9569378 Z M49.1866029,94.1626794 L48.3732057,94.3062201 L49.1866029,94.1626794 L50.4784689,93.6842105 L49.1866029,94.1626794 Z M51.1483254,88.8995215 C51.1004785,88.8995215 51.1004785,88.8995215 51.1483254,88.8995215 C51.1004785,88.8995215 51.1004785,88.8995215 51.1483254,88.8995215 C51.1961722,88.8516746 51.291866,88.708134 51.4354067,88.5167464 C51.2440191,88.708134 51.1483254,88.8516746 51.1483254,88.8995215 Z M53.5406699,85.2631579 L52.3923445,87.0334928 C52.3923445,87.0334928 52.2488038,87.2248804 52.1052632,87.4641148 C52.2488038,87.2248804 52.3923445,87.0334928 52.3923445,87.0334928 L53.5406699,85.2631579 L54.3062201,84.0669856 L53.5406699,85.2631579 Z M61.6746411,74.7368421 L61.1483254,76.7464115 L60.5263158,79.0430622 L60.1913876,80.0478469 L60.5263158,79.0430622 L61.1483254,76.7464115 L61.6746411,74.7368421 L62.0574163,72.8229665 L61.6746411,74.7368421 Z M61.4832536,47.7511962 L61.4354067,48.2296651 L61.4832536,47.7511962 L62.2009569,42.2488038 L61.4832536,47.7511962 Z M62.4880383,68.9473684 L62.2488038,71.4354067 L62.4880383,68.9473684 L62.9665072,65.6937799 L62.4880383,68.9473684 Z M64.354067,35.7416268 L63.1100478,38.6602871 L64.354067,35.7416268 L65.3588517,34.0669856 L64.354067,35.7416268 Z M66.6028708,38.8038278 L66.1244019,40.3827751 L66.6028708,38.8038278 L67.7511962,36.5550239 L66.6028708,38.8038278 Z M71.1483254,31.7703349 L70.0478469,33.062201 L71.1483254,31.7703349 L73.0143541,30.2870813 L71.1483254,31.7703349 Z M80.0478469,23.6842105 L83.2057416,23.3014354 L80.0478469,23.6842105 Z M88.2296651,26.7464115 L85.1674641,26.3157895 L88.2296651,26.7464115 L90.9569378,27.6555024 L88.2296651,26.7464115 Z M103.397129,31.9138756 L100.76555,30.430622 L99.3301435,29.4736842 L100.76555,30.430622 L103.397129,31.9138756 L105.167464,32.7751196 L103.397129,31.9138756 Z M106.411483,35.9808612 L105.69378,35.7416268 L106.411483,35.9808612 L107.320574,36.2200957 L106.411483,35.9808612 Z M117.84689,36.9856459 L116.602871,36.9856459 L114.30622,36.8899522 L113.157895,36.9856459 L111.913876,36.8899522 L110.382775,36.7942584 L108.564593,36.4593301 L110.382775,36.7942584 L111.913876,36.8899522 L113.157895,36.9856459 L114.30622,36.8899522 L116.602871,36.9856459 L117.84689,36.9856459 L118.899522,37.1291866 L117.84689,36.9856459 Z M119.473684,34.6889952 L118.229665,34.1626794 L119.473684,34.6889952 L120.76555,35.5502392 L119.473684,34.6889952 Z M121.578947,42.6315789 L121.483254,42.6315789 L121.578947,42.6315789 Z M123.827751,77.8947368 L122.727273,75.7416268 L123.827751,77.8947368 L125.550239,80.1435407 L123.827751,77.8947368 Z M124.258373,40.5741627 L124.401914,41.2440191 L124.449761,42.2488038 L124.401914,41.2440191 L124.258373,40.5741627 Z M125.837321,76.2679426 L125.119617,74.354067 L124.832536,72.8229665 L125.119617,74.354067 L125.837321,76.2679426 L127.368421,78.9952153 L125.837321,76.2679426 Z M128.4689,83.1578947 L127.84689,82.5358852 L128.4689,83.1578947 L131.196172,85.2631579 L128.4689,83.1578947 Z M141.435407,83.6842105 L140.430622,84.3062201 L141.435407,83.6842105 L141.674641,83.3971292 L141.435407,83.6842105 Z M145.406699,81.3875598 L145.311005,82.15311 L145.406699,81.3875598 L145.454545,81.0526316 L145.406699,81.3875598 Z M145.454545,40.9569378 L144.688995,44.6889952 L144.30622,48.3253589 L143.923445,53.1100478 L144.30622,48.3253589 L144.688995,44.6889952 L145.454545,40.9569378 L146.746411,37.2248804 L145.454545,40.9569378 Z M147.272727,52.2488038 L147.033493,56.5550239 L147.272727,52.2488038 L147.416268,49.6172249 L147.272727,52.2488038 Z M149.186603,40.3349282 L148.086124,43.4449761 L147.799043,45.3110048 L148.086124,43.4449761 L149.186603,40.3349282 L150.430622,37.5598086 L149.186603,40.3349282 Z M150.717703,29.6650718 L149.952153,31.0526316 L150.717703,29.6650718 L152.296651,27.7511962 L150.717703,29.6650718 Z M156.746411,27.7511962 L153.732057,31.6267943 L156.746411,27.7511962 L158.133971,26.507177 L156.746411,27.7511962 Z M186.315789,12.5358852 L173.971292,14.5454545 C173.923445,14.5454545 173.875598,14.5454545 173.875598,14.5933014 L171.770335,14.8803828 C171.722488,14.8803828 171.674641,14.8803828 171.674641,14.8803828 L169.043062,15.5980861 C168.995215,15.5980861 168.995215,15.5980861 168.947368,15.645933 L165.933014,16.7942584 C165.933014,16.7942584 165.885167,16.7942584 165.885167,16.7942584 L162.392344,18.3253589 C162.344498,18.3253589 162.296651,18.3732057 162.248804,18.4210526 L157.703349,21.4354067 C157.703349,21.4354067 157.655502,21.4832536 157.655502,21.4832536 L153.636364,24.6411483 C153.588517,24.6889952 153.54067,24.7368421 153.492823,24.784689 L150,29.0430622 C149.952153,29.0909091 149.952153,29.138756 149.904306,29.1866029 L147.751196,32.9665072 C147.751196,32.9665072 147.703349,33.0143541 147.703349,33.0143541 L145.933014,36.8421053 C145.933014,36.8899522 145.885167,36.8899522 145.885167,36.937799 L144.593301,40.6698565 C144.593301,40.7177033 144.545455,40.7655502 144.545455,40.8133971 L143.779904,44.5454545 C143.779904,44.5933014 143.779904,44.5933014 143.779904,44.6411483 L143.397129,48.277512 C143.397129,48.277512 143.397129,48.277512 143.397129,48.3253589 L143.014354,53.1100478 C143.014354,53.1100478 143.014354,53.1100478 143.014354,53.1578947 L142.631579,60.1913876 L142.248804,67.3205742 L141.961722,73.2057416 L141.483254,80.7177033 C141.483254,80.7177033 141.483254,80.7655502 141.483254,80.7655502 L141.483254,80.8133971 L141.339713,82.0574163 L141.100478,82.8229665 L140.861244,83.1578947 L140.143541,83.5885167 L139.330144,83.7799043 L137.607656,83.7320574 L134.92823,83.1578947 L132.392344,82.0574163 L130.047847,80.4784689 L128.229665,78.6124402 L126.794258,76.076555 L126.172249,74.3062201 L125.885167,72.8229665 L125.598086,71.0526316 L125.502392,43.4449761 C125.502392,43.3971292 125.502392,43.3492823 125.502392,43.3492823 L125.454545,41.4354067 C125.454545,41.3875598 125.454545,41.3397129 125.454545,41.291866 L125.215311,40.0478469 C125.215311,40.0478469 125.215311,40.0478469 125.215311,40.0478469 L124.976077,38.9473684 C124.976077,38.8516746 124.92823,38.7559809 124.832536,38.6602871 C124.162679,37.5598086 124.019139,37.4162679 123.923445,37.3205742 C123.875598,37.2727273 123.54067,36.8421053 123.301435,36.5550239 C123.253589,36.507177 123.205742,36.4114833 123.110048,36.3636364 L122.870813,36.1722488 C122.727273,35.9808612 122.583732,35.8373206 122.583732,35.8373206 C122.535885,35.7894737 122.488038,35.6937799 122.392344,35.645933 L121.483254,34.9282297 C121.483254,34.9282297 121.435407,34.8803828 121.435407,34.8803828 L120.143541,34.0191388 C120.095694,33.9712919 120.047847,33.9712919 120,33.923445 L118.755981,33.3971292 C118.660287,33.3492823 118.61244,33.3492823 118.516746,33.3492823 L117.033493,33.1100478 C117.033493,33.1100478 116.985646,33.1100478 116.985646,33.1100478 L115.358852,32.9665072 C115.311005,32.9665072 115.311005,32.9665072 115.263158,32.9665072 C115.215311,32.9665072 115.215311,32.9665072 115.167464,32.9665072 L113.349282,33.1100478 L113.301435,33.1100478 C113.301435,33.1100478 113.253589,33.1100478 113.253589,33.1100478 L111.674641,33.2057416 L110.334928,33.1100478 L108.947368,33.0143541 L107.320574,32.5837321 L105.645933,32.0095694 L103.923445,31.1961722 L101.339713,29.7607656 L97.7511962,27.3684211 C97.7511962,27.3684211 97.7033493,27.3205742 97.7033493,27.3205742 L95.0717703,25.8373206 L93.4449761,24.9282297 C93.3971292,24.9282297 93.3971292,24.8803828 93.3492823,24.8803828 L90.861244,23.7799043 C90.8133971,23.7799043 90.8133971,23.7320574 90.7655502,23.7320574 L88.3732057,22.9665072 C88.3253589,22.9665072 88.277512,22.9186603 88.2296651,22.9186603 L85.9808612,22.5358852 C85.9330144,22.5358852 85.8851675,22.5358852 85.8373206,22.5358852 L83.3014354,22.4401914 C83.3014354,22.4401914 83.3014354,22.4401914 83.2535885,22.4401914 C83.2057416,22.4401914 83.1578947,22.4401914 83.1578947,22.4401914 L80,22.8229665 C79.9521531,22.8229665 79.9043062,22.8229665 79.8564593,22.8708134 L76.4593301,23.7799043 C76.4114833,23.7799043 76.3636364,23.8277512 76.3157895,23.8277512 L73.0143541,25.3110048 C72.9665072,25.3588517 72.8708134,25.3588517 72.8229665,25.4066986 L68.8995215,28.3253589 C68.8516746,28.3732057 68.8038278,28.4210526 68.7559809,28.4688995 L65.7416268,31.8660287 C65.6937799,31.9138756 65.645933,31.9617225 65.645933,32.0095694 L63.6363636,35.3110048 C63.5885167,35.3588517 63.5885167,35.4066986 63.5885167,35.4545455 L62.3444976,38.3732057 C62.3444976,38.4210526 62.2966507,38.4688995 62.2966507,38.5167464 L61.3875598,42.0574163 C61.3875598,42.1052632 61.3875598,42.15311 61.3875598,42.2009569 L60.6698565,47.7033493 C60.6698565,47.7033493 60.6698565,47.7511962 60.6698565,47.7511962 L60.1435407,54.1626794 L58.6124402,70.430622 L58.2296651,73.1578947 L57.7033493,75.0717703 L56.937799,77.4641148 L56.1244019,79.138756 L54.354067,82.3923445 L52.8229665,84.7368421 L51.6746411,86.507177 C51.2440191,87.2248804 50.6698565,88.0382775 50.5263158,88.2296651 C50.2870813,88.4688995 49.1866029,89.569378 48.9952153,89.7607656 L48.1818182,90.3827751 L47.0334928,90.7655502 L46.1244019,90.7177033 L45.2631579,90.3827751 L45.215311,90.3349282 L45.0239234,90 L44.7368421,89.3301435 L44.7368421,87.5598086 L46.2679426,81.1961722 L47.2727273,78.2296651 C47.2727273,78.1818182 47.3205742,78.1339713 47.3205742,78.0861244 L47.4641148,77.1770335 C47.4641148,77.1291866 47.4641148,77.0334928 47.4641148,76.9856459 C47.4162679,76.2200957 47.3684211,76.0287081 47.3205742,75.9330144 C47.2727273,75.8851675 47.2248804,75.645933 47.1770335,75.4545455 C47.1291866,75.3588517 47.0813397,75.215311 47.0334928,75.1196172 L46.6028708,74.5454545 L46.0287081,73.5885167 C46.0287081,73.5885167 46.0287081,73.5885167 46.0287081,73.5885167 L38.277512,61.7703349 C38.277512,61.7703349 38.277512,61.722488 38.2296651,61.722488 L33.3014354,55.0717703 L27.3684211,47.3205742 L22.0574163,39.9043062 L15.645933,31.4832536 L10.9569378,24.9282297 L8.61244019,21.7703349 L5.55023923,17.4162679 L5.26315789,16.7942584 L5.07177033,16.1244019 L5.02392344,15.0717703 L5.02392344,13.7799043 L5.16746411,12.6315789 L5.64593301,11.4354067 L6.55502392,9.85645933 L7.46411483,8.85167464 L8.46889952,8.0861244 L9.5215311,7.36842105 C9.76076555,7.27272727 10,7.1291866 10.1435407,7.1291866 C10.1435407,7.1291866 10.1913876,7.1291866 10.1913876,7.1291866 C10.5263158,7.1291866 11.291866,7.03349282 11.5789474,6.98564593 L12.7751196,6.98564593 L14.0191388,7.27272727 L15.0239234,7.75119617 L16.1722488,8.37320574 L17.3205742,9.28229665 L18.7559809,10.7177033 L19.569378,11.5789474 L20.5741627,12.9186603 L21.3397129,13.9712919 L22.15311,15.1674641 L22.9665072,16.5550239 L24.1626794,18.6124402 L25.6937799,21.7703349 L27.3205742,25.0239234 L29.1866029,28.9473684 L30.861244,32.6315789 C30.861244,32.6315789 30.861244,32.6794258 30.861244,32.6794258 L32.5837321,35.9330144 L33.2057416,37.0813397 C33.2057416,37.0813397 33.2057416,37.0813397 33.2057416,37.1291866 L34.5933014,39.5215311 C34.6889952,39.6650718 34.784689,39.7607656 34.8803828,39.8564593 L35.1674641,40.0478469 L35.2631579,40.2392344 C35.3588517,40.3827751 35.4545455,40.4784689 35.5502392,40.5741627 L36.2200957,41.0047847 L37.0334928,41.6267943 C37.1291866,41.6746411 37.2248804,41.722488 37.3205742,41.7703349 L38.4210526,42.0574163 C38.4210526,42.0574163 38.4688995,42.0574163 38.4688995,42.0574163 L39.9521531,42.3444976 C40,42.3444976 40.0956938,42.3444976 40.1435407,42.3444976 L41.1483254,42.3444976 C41.1961722,42.3444976 41.2440191,42.3444976 41.291866,42.3444976 L42.7751196,42.1052632 C42.8229665,42.1052632 42.8708134,42.1052632 42.9186603,42.0574163 L44.2105263,41.6746411 C44.2583732,41.6746411 44.354067,41.6267943 44.4019139,41.5789474 L45.5502392,40.9569378 C45.5980861,40.9569378 45.645933,40.9090909 45.645933,40.9090909 L46.7464115,40.1435407 C46.7942584,40.1435407 46.7942584,40.0956938 46.8421053,40.0478469 L47.84689,39.138756 C47.8947368,39.0909091 47.9425837,39.0430622 47.9904306,38.9952153 L48.7559809,37.8947368 C48.7559809,37.84689 48.8038278,37.84689 48.8038278,37.7990431 L49.4258373,36.6985646 C49.4736842,36.6507177 49.4736842,36.6028708 49.4736842,36.5550239 L49.9521531,35.3110048 C49.9521531,35.2631579 50,35.215311 50,35.1674641 L50.2870813,33.6363636 C50.2870813,33.6363636 50.2870813,33.6363636 50.2870813,33.5885167 L50.6698565,31.3397129 L50.9569378,29.4736842 C50.9569378,29.4258373 50.9569378,29.4258373 50.9569378,29.3779904 L51.1004785,27.1291866 L51.2440191,24.784689 C51.2440191,24.784689 51.2440191,24.784689 51.2440191,24.7368421 L51.4832536,18.9952153 C51.5311005,18.8516746 51.5789474,18.708134 51.5789474,18.5645933 L51.5789474,18.0861244 L51.6267943,17.8947368 L60.430622,12.6315789 C65.215311,10.3827751 66.3157895,9.80861244 66.6028708,9.56937799 C66.5550239,9.61722488 66.507177,9.66507177 66.507177,9.66507177 C66.7942584,9.5215311 68.5167464,8.89952153 70.0956938,8.37320574 C71.3397129,8.03827751 72.8229665,7.6076555 73.1578947,7.55980861 C73.3014354,7.55980861 73.8277512,7.51196172 78.1339713,6.69856459 L83.3971292,6.1722488 L92.3923445,5.93301435 L101.196172,5.78947368 L143.110048,5.55023923 L182.870813,5.26315789 L187.320574,5.26315789 L188.708134,5.55023923 L189.23445,5.83732057 L189.425837,5.98086124 L189.569378,6.1722488 L189.952153,6.88995215 L190.143541,7.51196172 L190.287081,8.32535885 L190.287081,8.94736842 L190.191388,9.61722488 L189.904306,10.2870813 L189.473684,10.9090909 L188.851675,11.5311005 L188.038278,12.0095694 L186.315789,12.5358852 Z M189.712919,15.7416268 L188.421053,16.076555 L189.712919,15.7416268 L190.430622,15.3110048 L189.712919,15.7416268 Z M190.334928,11.5789474 L189.952153,11.9617225 L190.334928,11.5789474 L190.62201,11.1961722 L190.334928,11.5789474 Z M190.76555,2.53588517 L189.712919,1.96172249 L190.76555,2.53588517 L191.770335,3.44497608 L190.76555,2.53588517 Z M194.162679,7.6076555 L194.019139,7.08133971 L194.162679,7.6076555 L194.401914,9.09090909 L194.162679,7.6076555 Z" id="Shape"></path>
                    </g>
                    <g id="PUNTOS_INTERMEDIOS_Y_SEMAFORO" transform="translate(3.349282, 0.000000)">
                        <path d="M149.37799,24.8325359 C149.138756,24.8325359 148.947368,24.6411483 148.947368,24.4019139 L148.947368,8.61244019 C148.947368,8.37320574 149.138756,8.18181818 149.37799,8.18181818 C149.617225,8.18181818 149.808612,8.37320574 149.808612,8.61244019 L149.808612,24.4019139 C149.808612,24.6411483 149.617225,24.8325359 149.37799,24.8325359 Z" id="Shape" fill="#AC1737" fill-rule="nonzero"></path>
                        <g id="Group" transform="translate(144.497608, 0.000000)" fill-rule="nonzero">
                            <path d="M0.33492823,3.77990431 C0.33492823,1.77033493 1.96172249,0.14354067 3.97129187,0.14354067 L5.26315789,0.14354067 C7.27272727,0.14354067 8.89952153,1.77033493 8.89952153,3.77990431 L8.89952153,6.07655502 C8.89952153,8.0861244 7.27272727,9.71291866 5.26315789,9.71291866 L3.97129187,9.71291866 C1.96172249,9.71291866 0.33492823,8.0861244 0.33492823,6.07655502 L0.33492823,3.77990431 Z" id="Shape" fill="#AC1737"></path>
                            <path d="M3.63636364,5.93301435 C3.92344498,6.22009569 4.3062201,6.36363636 4.68899522,6.36363636 C5.11961722,6.36363636 5.35885167,6.1722488 5.35885167,5.83732057 C5.35885167,5.50239234 5.11961722,5.40669856 4.73684211,5.26315789 L4.21052632,5.02392344 C3.8277512,4.88038278 3.39712919,4.54545455 3.39712919,3.97129187 C3.39712919,3.3492823 3.97129187,2.8708134 4.73684211,2.8708134 C5.215311,2.8708134 5.64593301,3.06220096 5.98086124,3.39712919 L5.59808612,3.8277512 C5.35885167,3.63636364 5.07177033,3.49282297 4.73684211,3.49282297 C4.35406699,3.49282297 4.11483254,3.68421053 4.11483254,3.97129187 C4.11483254,4.25837321 4.40191388,4.40191388 4.73684211,4.54545455 L5.26315789,4.784689 C5.74162679,4.97607656 6.07655502,5.26315789 6.07655502,5.83732057 C6.07655502,6.45933014 5.55023923,7.03349282 4.64114833,7.03349282 C4.11483254,7.03349282 3.58851675,6.84210526 3.20574163,6.45933014 L3.63636364,5.93301435 Z" id="Shape" fill="#FFFFFF"></path>
                        </g>
                        <g id="Group" transform="translate(17.224880, 80.382775)" fill-rule="nonzero">
                            <path d="M0,3.63636364 C0,1.62679426 1.62679426,0 3.68421053,0 L9.28229665,0 C11.291866,0 12.9186603,1.62679426 12.9186603,3.63636364 L12.9186603,5.93301435 C12.9186603,7.94258373 11.291866,9.56937799 9.28229665,9.56937799 L3.68421053,9.56937799 C1.67464115,9.56937799 0,7.94258373 0,5.93301435 L0,3.63636364 Z" id="Shape" fill="#AC1737"></path>
                            <g transform="translate(3.349282, 2.870813)" fill="#FFFFFF" id="Shape">
                                <polygon points="0 0 2.3923445 0 2.3923445 0.574162679 0.717703349 0.574162679 0.717703349 1.67464115 2.15311005 1.67464115 2.15311005 2.24880383 0.717703349 2.24880383 0.717703349 3.92344498 0 3.92344498"></polygon>
                                <polygon points="3.3492823 0 4.06698565 0 4.06698565 3.39712919 5.6937799 3.39712919 5.6937799 3.97129187 3.3492823 3.97129187"></polygon>
                            </g>
                        </g>
                        <g id="Group" transform="translate(84.688995, 50.717703)" fill-rule="nonzero">
                            <path d="M0.19138756,4.06698565 C0.19138756,2.05741627 1.81818182,0.38277512 3.8277512,0.38277512 L6.26794258,0.38277512 C8.27751196,0.38277512 9.95215311,2.00956938 9.95215311,4.06698565 L9.95215311,6.50717703 C9.95215311,8.51674641 8.32535885,10.1435407 6.26794258,10.1435407 L3.8277512,10.1435407 C1.81818182,10.1435407 0.19138756,8.51674641 0.19138756,6.50717703 L0.19138756,4.06698565 Z" id="Shape" fill="#AC1737"></path>
                            <g transform="translate(2.870813, 2.870813)" fill="#FFFFFF" id="Shape">
                                <path d="M0.04784689,0.622009569 C0.04784689,0.38277512 0.23923445,0.23923445 0.4784689,0.23923445 C0.717703349,0.23923445 0.909090909,0.38277512 0.909090909,0.622009569 C0.909090909,0.861244019 0.717703349,1.00478469 0.4784689,1.00478469 C0.23923445,1.00478469 0.04784689,0.861244019 0.04784689,0.622009569 Z M0.14354067,1.53110048 L0.861244019,1.53110048 L0.861244019,4.49760766 L0.14354067,4.49760766 L0.14354067,1.53110048 Z"></path>
                                <path d="M2.05741627,3.58851675 C2.29665072,3.8277512 2.58373206,4.01913876 2.96650718,4.01913876 C3.39712919,4.01913876 3.68421053,3.77990431 3.68421053,3.44497608 C3.68421053,3.06220096 3.44497608,2.77511962 2.53588517,2.77511962 L2.53588517,2.24880383 C3.30143541,2.24880383 3.54066986,2.00956938 3.54066986,1.62679426 C3.54066986,1.29186603 3.30143541,1.10047847 2.96650718,1.10047847 C2.67942584,1.10047847 2.44019139,1.24401914 2.20095694,1.48325359 L1.81818182,1.05263158 C2.15311005,0.765550239 2.53588517,0.574162679 2.96650718,0.574162679 C3.68421053,0.574162679 4.21052632,0.956937799 4.21052632,1.57894737 C4.21052632,2.00956938 3.97129187,2.29665072 3.54066986,2.48803828 L3.54066986,2.53588517 C4.01913876,2.67942584 4.35406699,2.96650718 4.35406699,3.49282297 C4.35406699,4.21052632 3.73205742,4.59330144 3.01435407,4.59330144 C2.3923445,4.59330144 1.96172249,4.35406699 1.72248804,4.06698565 L2.05741627,3.58851675 Z"></path>
                            </g>
                        </g>
                        <path d="M74.354067,24.4019139 C74.1148325,24.4497608 73.923445,24.2583732 73.8755981,24.0191388 L71.7703349,8.37320574 C71.722488,8.13397129 71.9138756,7.94258373 72.15311,7.89473684 C72.3923445,7.84688995 72.5837321,8.03827751 72.6315789,8.27751196 L74.784689,23.923445 C74.784689,24.1626794 74.5933014,24.354067 74.354067,24.4019139 Z" id="Shape" fill="#AC1737" fill-rule="nonzero"></path>
                        <path d="M90.5741627,51.8181818 C90.3349282,51.722488 90.2392344,51.4832536 90.3349282,51.291866 L95.5023923,36.3636364 C95.5980861,36.1244019 95.8373206,36.0287081 96.0287081,36.1244019 C96.2679426,36.2200957 96.3636364,36.4593301 96.2679426,36.6507177 L91.1004785,51.5789474 C91.0526316,51.7703349 90.8133971,51.8660287 90.5741627,51.8181818 Z" id="Shape" fill="#AC1737" fill-rule="nonzero"></path>
                        <g id="Group" transform="translate(67.464115, 0.000000)" fill-rule="nonzero">
                            <path d="M0.19138756,3.92344498 C0.19138756,1.9138756 1.81818182,0.28708134 3.87559809,0.28708134 L5.74162679,0.28708134 C7.75119617,0.28708134 9.42583732,1.9138756 9.42583732,3.92344498 L9.42583732,6.55502392 C9.42583732,8.5645933 7.79904306,10.2392344 5.74162679,10.2392344 L3.87559809,10.2392344 C1.86602871,10.2392344 0.19138756,8.61244019 0.19138756,6.55502392 L0.19138756,3.92344498 Z" id="Shape" fill="#AC1737"></path>
                            <g transform="translate(2.392344, 2.870813)" fill="#FFFFFF" id="Shape">
                                <path d="M0.23923445,0.622009569 C0.23923445,0.38277512 0.43062201,0.23923445 0.669856459,0.23923445 C0.909090909,0.23923445 1.10047847,0.38277512 1.10047847,0.622009569 C1.10047847,0.861244019 0.909090909,1.00478469 0.669856459,1.00478469 C0.43062201,1.00478469 0.23923445,0.861244019 0.23923445,0.622009569 Z M0.33492823,1.53110048 L1.05263158,1.53110048 L1.05263158,4.49760766 L0.33492823,4.49760766 L0.33492823,1.53110048 Z"></path>
                                <path d="M2.20095694,3.97129187 L3.06220096,3.97129187 L3.06220096,1.4354067 L2.3923445,1.4354067 L2.3923445,1.00478469 C2.77511962,0.909090909 3.06220096,0.813397129 3.30143541,0.669856459 L3.8277512,0.669856459 L3.8277512,3.97129187 L4.59330144,3.97129187 L4.59330144,4.54545455 L2.24880383,4.54545455 L2.24880383,3.97129187 L2.20095694,3.97129187 Z"></path>
                            </g>
                        </g>
                        <path d="M164.401914,43.923445 C164.210526,44.0669856 163.971292,44.0191388 163.827751,43.8277512 L154.641148,30.9569378 C154.497608,30.7655502 154.545455,30.5263158 154.736842,30.3827751 C154.92823,30.2392344 155.167464,30.2870813 155.311005,30.4784689 L164.497608,43.3492823 C164.641148,43.5406699 164.593301,43.7799043 164.401914,43.923445 Z" id="Shape" fill="#AC1737" fill-rule="nonzero"></path>
                        <g id="Group" transform="translate(163.157895, 41.626794)" fill-rule="nonzero">
                            <path d="M0.28708134,4.01913876 C0.28708134,2.00956938 1.9138756,0.33492823 3.92344498,0.33492823 L6.31578947,0.33492823 C8.32535885,0.33492823 10,1.96172249 10,4.01913876 L10,6.45933014 C10,8.46889952 8.37320574,10.1435407 6.31578947,10.1435407 L3.92344498,10.1435407 C1.9138756,10.1435407 0.28708134,8.51674641 0.28708134,6.45933014 L0.28708134,4.01913876 Z" id="Shape" fill="#AC1737"></path>
                            <g transform="translate(2.870813, 2.870813)" fill="#FFFFFF" id="Shape">
                                <path d="M0.0956937799,0.574162679 C0.0956937799,0.33492823 0.28708134,0.19138756 0.526315789,0.19138756 C0.765550239,0.19138756 0.956937799,0.33492823 0.956937799,0.574162679 C0.956937799,0.813397129 0.765550239,0.956937799 0.526315789,0.956937799 C0.28708134,0.956937799 0.0956937799,0.813397129 0.0956937799,0.574162679 Z M0.14354067,1.53110048 L0.861244019,1.53110048 L0.861244019,4.49760766 L0.14354067,4.49760766 L0.14354067,1.53110048 Z"></path>
                                <path d="M1.86602871,4.06698565 C2.91866029,3.01435407 3.63636364,2.34449761 3.63636364,1.77033493 C3.63636364,1.33971292 3.39712919,1.10047847 3.01435407,1.10047847 C2.72727273,1.10047847 2.48803828,1.29186603 2.24880383,1.53110048 L1.86602871,1.14832536 C2.20095694,0.765550239 2.58373206,0.574162679 3.11004785,0.574162679 C3.8277512,0.574162679 4.35406699,1.05263158 4.35406699,1.77033493 C4.35406699,2.44019139 3.73205742,3.15789474 2.96650718,3.97129187 C3.15789474,3.97129187 3.44497608,3.92344498 3.58851675,3.92344498 L4.54545455,3.92344498 L4.54545455,4.49760766 L1.9138756,4.49760766 L1.9138756,4.06698565 L1.86602871,4.06698565 Z"></path>
                            </g>
                        </g>
                        <g id="Group" transform="translate(18.660287, 50.717703)" fill="#7B7C7D" fill-rule="nonzero">
                            <path d="M0.0956937799,15.8851675 C0.23923445,16.076555 0.526315789,16.1244019 0.669856459,15.9808612 L10.2392344,8.5645933 C10.430622,8.42105263 10.430622,8.18181818 10.2870813,7.99043062 L5.11961722,1.29186603 C4.97607656,1.10047847 4.68899522,1.05263158 4.54545455,1.19617225 C4.35406699,1.33971292 4.3062201,1.62679426 4.44976077,1.77033493 L9.28229665,7.99043062 C9.33014354,8.03827751 9.33014354,8.18181818 9.23444976,8.22966507 L0.14354067,15.2631579 C2.3644281e-15,15.4545455 -0.04784689,15.6937799 0.0956937799,15.8851675 Z" id="Shape"></path>
                            <path d="M3.68421053,0.4784689 C3.63636364,0.28708134 3.87559809,0.14354067 4.01913876,0.19138756 L5.64593301,0.861244019 L7.27272727,1.53110048 C7.46411483,1.62679426 7.51196172,1.86602871 7.32057416,1.96172249 L5.93301435,3.01435407 L4.54545455,4.06698565 C4.40191388,4.21052632 4.16267943,4.11483254 4.11483254,3.87559809 L3.87559809,2.15311005 L3.68421053,0.4784689 Z" id="Shape"></path>
                        </g>
                        <path d="M29.3301435,84.5933014 C29.1866029,84.4019139 29.2344498,84.1626794 29.4258373,84.0191388 L41.9617225,74.4019139 C42.15311,74.2583732 42.3923445,74.3062201 42.5358852,74.4976077 C42.6794258,74.6889952 42.6315789,74.9282297 42.4401914,75.0717703 L29.9043062,84.6889952 C29.7129187,84.784689 29.4736842,84.784689 29.3301435,84.5933014 Z" id="Shape" fill="#AC1737" fill-rule="nonzero"></path>
                        <g id="Group" transform="translate(5.741627, 79.904306)">
                            <path d="M0,3.8277512 C0,1.81818182 1.62679426,0.19138756 3.63636364,0.19138756 L6.88995215,0.19138756 C8.89952153,0.19138756 10.5263158,1.81818182 10.5263158,3.8277512 L10.5263158,7.79904306 C10.5263158,9.80861244 8.89952153,11.4354067 6.88995215,11.4354067 L3.63636364,11.4354067 C1.62679426,11.4354067 0,9.80861244 0,7.79904306 L0,3.8277512 Z" id="Shape" fill="#7B7C7D" fill-rule="nonzero"></path>
                            <g transform="translate(0.956938, 0.956938)" fill-rule="nonzero" id="Shape">
                                <path d="M3.73205742,9.42583732 C1.86602871,9.42583732 0.33492823,7.89473684 0.33492823,6.02870813 L0.33492823,3.73205742 C0.33492823,1.86602871 1.86602871,0.33492823 3.73205742,0.33492823 L5.02392344,0.33492823 C6.88995215,0.33492823 8.42105263,1.86602871 8.42105263,3.73205742 L8.42105263,6.02870813 C8.42105263,7.89473684 6.88995215,9.42583732 5.02392344,9.42583732 L3.73205742,9.42583732 Z" fill="#FFFFFF"></path>
                                <path d="M5.02392344,0.526315789 C6.79425837,0.526315789 8.18181818,1.96172249 8.18181818,3.68421053 L8.18181818,5.98086124 C8.18181818,7.75119617 6.74641148,9.13875598 5.02392344,9.13875598 L3.73205742,9.13875598 C1.96172249,9.13875598 0.574162679,7.70334928 0.574162679,5.98086124 L0.574162679,3.68421053 C0.574162679,1.9138756 2.00956938,0.526315789 3.73205742,0.526315789 L5.02392344,0.526315789 Z M5.02392344,0.04784689 L3.73205742,0.04784689 C1.72248804,0.04784689 0.0956937799,1.67464115 0.0956937799,3.68421053 L0.0956937799,5.98086124 C0.0956937799,7.99043062 1.72248804,9.61722488 3.73205742,9.61722488 L5.02392344,9.61722488 C7.03349282,9.61722488 8.66028708,7.99043062 8.66028708,5.98086124 L8.66028708,3.68421053 C8.70813397,1.72248804 7.08133971,0.04784689 5.02392344,0.04784689 Z" fill="#C7C6C5"></path>
                            </g>
                            <g id="Clipped" transform="translate(0.956938, 0.956938)">
                                <mask id="mask-2" fill="white">
                                    <use xlink:href="#path-1"></use>
                                </mask>
                                <g id="SVGID_15_"></g>
                                <g id="Group" mask="url(#mask-2)" fill="#1E1E1C" fill-rule="nonzero">
                                    <g transform="translate(-2.870813, 0.478469)" id="Rectangle-path">
                                        <rect x="0.38277512" y="0.38277512" width="2.00956938" height="2.00956938"></rect>
                                        <rect x="2.34449761" y="2.3923445" width="2.00956938" height="2.00956938"></rect>
                                        <rect x="4.35406699" y="0.38277512" width="2.00956938" height="2.00956938"></rect>
                                        <rect x="6.36363636" y="2.3923445" width="2.00956938" height="2.00956938"></rect>
                                        <rect x="0.38277512" y="4.35406699" width="2.00956938" height="2.00956938"></rect>
                                        <rect x="2.34449761" y="6.36363636" width="2.00956938" height="2.00956938"></rect>
                                        <rect x="4.35406699" y="4.35406699" width="2.00956938" height="2.00956938"></rect>
                                        <rect x="6.36363636" y="6.36363636" width="2.00956938" height="2.00956938"></rect>
                                        <rect x="8.32535885" y="0.38277512" width="2.00956938" height="2.00956938"></rect>
                                        <rect x="10.3349282" y="2.3923445" width="2.00956938" height="2.00956938"></rect>
                                        <rect x="8.32535885" y="4.35406699" width="2.00956938" height="2.00956938"></rect>
                                        <rect x="10.3349282" y="6.36363636" width="2.00956938" height="2.00956938"></rect>
                                    </g>
                                </g>
                            </g>
                            <path d="M5.98086124,1.48325359 C7.75119617,1.48325359 9.13875598,2.91866029 9.13875598,4.64114833 L9.13875598,6.93779904 C9.13875598,8.70813397 7.70334928,10.0956938 5.98086124,10.0956938 L4.68899522,10.0956938 C2.91866029,10.0956938 1.53110048,8.66028708 1.53110048,6.93779904 L1.53110048,4.64114833 C1.53110048,2.8708134 2.96650718,1.48325359 4.68899522,1.48325359 L5.98086124,1.48325359 Z M5.98086124,1.00478469 L4.68899522,1.00478469 C2.67942584,1.00478469 1.05263158,2.63157895 1.05263158,4.64114833 L1.05263158,6.93779904 C1.05263158,8.94736842 2.67942584,10.5741627 4.68899522,10.5741627 L5.98086124,10.5741627 C7.99043062,10.5741627 9.61722488,8.94736842 9.61722488,6.93779904 L9.61722488,4.64114833 C9.66507177,2.67942584 8.03827751,1.00478469 5.98086124,1.00478469 Z" id="Shape" fill="#C7C6C5" fill-rule="nonzero"></path>
                        </g>
                        <g id="Group" transform="translate(0.000000, 64.593301)" fill-rule="nonzero">
                            <path d="M0,3.63636364 C0,1.62679426 1.62679426,0 3.63636364,0 L15.9808612,0 C17.9904306,0 19.6172249,1.62679426 19.6172249,3.63636364 L19.6172249,7.6076555 C19.6172249,9.61722488 17.9904306,11.2440191 15.9808612,11.2440191 L3.68421053,11.2440191 C1.67464115,11.2440191 0.04784689,9.61722488 0.04784689,7.6076555 L0.04784689,3.63636364 L0,3.63636364 Z" id="Shape" fill="#7B7C7D"></path>
                            <g transform="translate(0.478469, 0.478469)" id="Shape">
                                <g>
                                    <path d="M3.87559809,9.56937799 C2.00956938,9.56937799 0.4784689,8.03827751 0.4784689,6.1722488 L0.4784689,3.87559809 C0.4784689,2.00956938 2.00956938,0.4784689 3.87559809,0.4784689 L5.16746411,0.4784689 C7.03349282,0.4784689 8.5645933,2.00956938 8.5645933,3.87559809 L8.5645933,6.1722488 C8.5645933,8.03827751 7.03349282,9.56937799 5.16746411,9.56937799 L3.87559809,9.56937799 Z" fill="#C01724"></path>
                                    <path d="M4.92822967,0.4784689 C6.69856459,0.4784689 8.0861244,1.9138756 8.0861244,3.63636364 L8.0861244,5.93301435 C8.0861244,7.70334928 6.6507177,9.09090909 4.92822967,9.09090909 L3.63636364,9.09090909 C1.86602871,9.09090909 0.4784689,7.65550239 0.4784689,5.93301435 L0.4784689,3.63636364 C0.4784689,1.86602871 1.9138756,0.4784689 3.63636364,0.4784689 L4.92822967,0.4784689 Z M4.92822967,0 L3.63636364,0 C1.62679426,0 0,1.62679426 0,3.63636364 L0,5.93301435 C0,7.94258373 1.62679426,9.56937799 3.63636364,9.56937799 L4.92822967,9.56937799 C6.93779904,9.56937799 8.5645933,7.94258373 8.5645933,5.93301435 L8.5645933,3.63636364 C8.61244019,1.62679426 6.98564593,0 4.92822967,0 Z" fill="#AA1920"></path>
                                </g>
                                <g transform="translate(9.569378, 0.000000)">
                                    <path d="M3.87559809,9.56937799 C2.00956938,9.56937799 0.4784689,8.03827751 0.4784689,6.1722488 L0.4784689,3.87559809 C0.4784689,2.00956938 2.00956938,0.4784689 3.87559809,0.4784689 L5.16746411,0.4784689 C7.03349282,0.4784689 8.5645933,2.00956938 8.5645933,3.87559809 L8.5645933,6.1722488 C8.5645933,8.03827751 7.03349282,9.56937799 5.16746411,9.56937799 L3.87559809,9.56937799 Z" fill="#009548"></path>
                                    <path d="M4.92822967,0.4784689 C6.69856459,0.4784689 8.0861244,1.9138756 8.0861244,3.63636364 L8.0861244,5.93301435 C8.0861244,7.70334928 6.6507177,9.09090909 4.92822967,9.09090909 L3.63636364,9.09090909 C1.86602871,9.09090909 0.4784689,7.65550239 0.4784689,5.93301435 L0.4784689,3.63636364 C0.4784689,1.86602871 1.9138756,0.4784689 3.63636364,0.4784689 L4.92822967,0.4784689 Z M4.92822967,0 L3.63636364,0 C1.62679426,0 0,1.62679426 0,3.63636364 L0,5.93301435 C0,7.94258373 1.62679426,9.56937799 3.63636364,9.56937799 L4.92822967,9.56937799 C6.93779904,9.56937799 8.5645933,7.94258373 8.5645933,5.93301435 L8.5645933,3.63636364 C8.61244019,1.62679426 6.93779904,0 4.92822967,0 Z" fill="#006139"></path>
                                </g>
                            </g>
                        </g>
                    </g>
                    <g id="textos_y_numeros" transform="translate(9.090909, 21.531100)" fill="#7B7C7D" fill-rule="nonzero">
                        <path d="M0.38277512,6.60287081 L1.19617225,6.60287081 L1.19617225,4.68899522 L0.4784689,4.68899522 L0.4784689,4.06698565 C0.909090909,3.97129187 1.19617225,3.87559809 1.4354067,3.68421053 L2.20095694,3.68421053 L2.20095694,6.60287081 L2.8708134,6.60287081 L2.8708134,7.41626794 L0.38277512,7.41626794 L0.38277512,6.60287081 Z" id="Shape"></path>
                        <path d="M30.5263158,25.2631579 C31.4354067,24.4497608 32.1052632,23.8277512 32.1052632,23.3014354 C32.1052632,22.9665072 31.9138756,22.8229665 31.6267943,22.8229665 C31.3875598,22.8229665 31.1961722,23.0143541 31.0047847,23.1578947 L30.4784689,22.6315789 C30.861244,22.2009569 31.2440191,22.0095694 31.7703349,22.0095694 C32.5358852,22.0095694 33.062201,22.4880383 33.062201,23.2535885 C33.062201,23.8755981 32.4880383,24.4976077 32.0095694,25.0239234 C32.2009569,25.0239234 32.4880383,24.9760766 32.6315789,24.9760766 L33.2535885,24.9760766 L33.2535885,25.8373206 L30.5263158,25.8373206 L30.5263158,25.2631579 Z" id="Shape"></path>
                        <path d="M46.2679426,14.4497608 C46.507177,14.6411483 46.7464115,14.784689 47.0334928,14.784689 C47.3684211,14.784689 47.5598086,14.6889952 47.5598086,14.4497608 C47.5598086,14.1626794 47.4162679,14.0191388 46.6028708,14.0191388 L46.6028708,13.3014354 C47.2248804,13.3014354 47.4162679,13.1578947 47.4162679,12.8708134 C47.4162679,12.6315789 47.2727273,12.5358852 47.0334928,12.5358852 C46.7942584,12.5358852 46.6028708,12.6315789 46.3636364,12.8229665 L45.8373206,12.2009569 C46.2200957,11.9138756 46.6028708,11.722488 47.0334928,11.722488 C47.84689,11.722488 48.3732057,12.1052632 48.3732057,12.7751196 C48.3732057,13.1578947 48.1818182,13.3971292 47.7511962,13.5885167 C48.1818182,13.7320574 48.4688995,14.0191388 48.4688995,14.4976077 C48.4688995,15.215311 47.7990431,15.5980861 47.0334928,15.5980861 C46.4114833,15.5980861 45.9808612,15.4066986 45.6937799,15.0717703 L46.2679426,14.4497608 Z" id="Shape"></path>
                        <path d="M64.9760766,5.74162679 L64.5933014,5.74162679 L64.5933014,6.60287081 L63.6363636,6.60287081 L63.6363636,5.74162679 L62.0574163,5.74162679 L62.0574163,5.02392344 L63.3492823,2.82296651 L64.5933014,2.82296651 L64.5933014,4.97607656 L64.9760766,4.97607656 L64.9760766,5.74162679 Z M63.6363636,4.97607656 L63.6363636,4.54545455 C63.6363636,4.3062201 63.6363636,3.92344498 63.6842105,3.63636364 C63.5885167,3.87559809 63.492823,4.06698565 63.3971292,4.3062201 L63.062201,4.92822967 L63.6363636,4.92822967 L63.6363636,4.97607656 Z" id="Shape"></path>
                        <path d="M188.373206,2.96650718 C188.61244,3.15789474 188.851675,3.30143541 189.138756,3.30143541 C189.473684,3.30143541 189.712919,3.15789474 189.712919,2.82296651 C189.712919,2.48803828 189.521531,2.34449761 189.186603,2.34449761 C188.995215,2.34449761 188.899522,2.3923445 188.660287,2.53588517 L188.229665,2.24880383 L188.325359,0.33492823 L190.526316,0.33492823 L190.526316,1.19617225 L189.186603,1.19617225 L189.138756,1.72248804 C189.282297,1.67464115 189.37799,1.67464115 189.473684,1.67464115 C190.143541,1.67464115 190.669856,2.05741627 190.669856,2.82296651 C190.669856,3.68421053 190,4.16267943 189.23445,4.16267943 C188.61244,4.16267943 188.181818,3.92344498 187.894737,3.63636364 L188.373206,2.96650718 Z" id="Shape"></path>
                        <path d="M153.349282,23.3971292 C153.253589,23.2535885 153.014354,23.1578947 152.77512,23.1578947 C152.392344,23.1578947 152.105263,23.3971292 152.105263,24.1626794 C152.296651,23.923445 152.583732,23.7799043 152.822967,23.7799043 C153.444976,23.7799043 153.971292,24.1148325 153.971292,24.9282297 C153.971292,25.7416268 153.397129,26.2200957 152.679426,26.2200957 C151.961722,26.2200957 151.196172,25.6937799 151.196172,24.354067 C151.196172,23.0143541 151.961722,22.3444976 152.727273,22.3444976 C153.253589,22.3444976 153.636364,22.5837321 153.875598,22.8229665 L153.349282,23.3971292 Z M153.014354,24.9282297 C153.014354,24.5454545 152.822967,24.4976077 152.583732,24.4976077 C152.392344,24.4976077 152.248804,24.5933014 152.105263,24.8325359 C152.200957,25.3588517 152.392344,25.5023923 152.583732,25.5023923 C152.822967,25.4066986 153.014354,25.3110048 153.014354,24.9282297 Z" id="Shape"></path>
                        <path d="M128.61244,68.8995215 L126.985646,68.8995215 L126.985646,68.0382775 L129.665072,68.0382775 L129.665072,68.6602871 C128.803828,69.6650718 128.708134,70.3349282 128.660287,71.7703349 L127.655502,71.7703349 C127.703349,70.5741627 127.942584,69.8564593 128.61244,68.8995215 Z" id="Shape"></path>
                        <path d="M115.598086,80.6220096 C115.311005,80.3827751 115.119617,80.0956938 115.119617,79.7129187 C115.119617,79.0430622 115.645933,78.6602871 116.363636,78.6602871 C117.08134,78.6602871 117.511962,79.0430622 117.511962,79.7129187 C117.511962,80.0478469 117.320574,80.3349282 117.033493,80.4784689 C117.416268,80.6698565 117.655502,80.9569378 117.655502,81.4832536 C117.655502,82.1052632 117.129187,82.5358852 116.267943,82.5358852 C115.502392,82.5358852 114.92823,82.1052632 114.92823,81.5311005 C114.976077,81.0526316 115.215311,80.8133971 115.598086,80.6220096 Z M116.315789,81.8660287 C116.555024,81.8660287 116.746411,81.7703349 116.746411,81.4832536 C116.746411,81.1961722 116.507177,81.1004785 116.028708,80.9090909 C115.933014,81.0526316 115.837321,81.2440191 115.837321,81.4354067 C115.837321,81.6746411 116.076555,81.8660287 116.315789,81.8660287 Z M116.698565,79.7607656 C116.698565,79.5215311 116.555024,79.3301435 116.315789,79.3301435 C116.124402,79.3301435 115.980861,79.4258373 115.980861,79.7129187 C115.980861,79.9521531 116.172249,80.0956938 116.555024,80.2392344 C116.650718,80.0956938 116.698565,79.9521531 116.698565,79.7607656 Z" id="Shape"></path>
                        <g id="Group" transform="translate(100.478469, 18.660287)">
                            <path d="M0,3.01435407 L0.813397129,3.01435407 L0.813397129,1.10047847 L0.0956937799,1.10047847 L0.0956937799,0.4784689 C0.526315789,0.38277512 0.813397129,0.28708134 1.05263158,0.0956937799 L1.81818182,0.0956937799 L1.81818182,3.01435407 L2.48803828,3.01435407 L2.48803828,3.8277512 L0,3.8277512 L0,3.01435407 Z" id="Shape"></path>
                            <path d="M3.01435407,1.96172249 C3.01435407,0.669856459 3.58851675,0.04784689 4.40191388,0.04784689 C5.215311,0.04784689 5.78947368,0.717703349 5.78947368,1.96172249 C5.78947368,3.25358852 5.215311,3.92344498 4.40191388,3.92344498 C3.58851675,3.92344498 3.01435407,3.25358852 3.01435407,1.96172249 Z M4.83253589,1.96172249 C4.83253589,0.956937799 4.64114833,0.813397129 4.40191388,0.813397129 C4.16267943,0.813397129 3.97129187,0.956937799 3.97129187,1.96172249 C3.97129187,2.96650718 4.16267943,3.15789474 4.40191388,3.15789474 C4.64114833,3.15789474 4.83253589,2.96650718 4.83253589,1.96172249 Z" id="Shape"></path>
                        </g>
                        <path d="M106.076555,37.0813397 C106.172249,37.2248804 106.411483,37.3205742 106.650718,37.3205742 C107.033493,37.3205742 107.320574,37.0813397 107.320574,36.3157895 C107.129187,36.5550239 106.842105,36.6985646 106.602871,36.6985646 C105.980861,36.6985646 105.454545,36.3636364 105.454545,35.5502392 C105.454545,34.7368421 106.028708,34.2583732 106.746411,34.2583732 C107.464115,34.2583732 108.229665,34.784689 108.229665,36.1244019 C108.229665,37.4641148 107.464115,38.1339713 106.698565,38.1339713 C106.172249,38.1339713 105.789474,37.8947368 105.550239,37.6555024 L106.076555,37.0813397 Z M107.320574,35.645933 C107.22488,35.1196172 107.033493,34.9760766 106.842105,34.9760766 C106.650718,34.9760766 106.45933,35.1196172 106.45933,35.5023923 C106.45933,35.8851675 106.650718,35.9330144 106.889952,35.9330144 C107.033493,35.9808612 107.177033,35.8851675 107.320574,35.645933 Z" id="Shape"></path>
                        <g id="Group" transform="translate(64.593301, 25.837321)">
                            <path d="M0.33492823,3.30143541 L1.14832536,3.30143541 L1.14832536,1.38755981 L0.43062201,1.38755981 L0.43062201,0.765550239 C0.861244019,0.669856459 1.14832536,0.574162679 1.38755981,0.38277512 L2.15311005,0.38277512 L2.15311005,3.30143541 L2.82296651,3.30143541 L2.82296651,4.11483254 L0.33492823,4.11483254 L0.33492823,3.30143541 Z" id="Shape"></path>
                            <path d="M3.54066986,3.30143541 L4.35406699,3.30143541 L4.35406699,1.38755981 L3.63636364,1.38755981 L3.63636364,0.765550239 C4.06698565,0.669856459 4.35406699,0.574162679 4.59330144,0.38277512 L5.35885167,0.38277512 L5.35885167,3.30143541 L6.02870813,3.30143541 L6.02870813,4.11483254 L3.54066986,4.11483254 L3.54066986,3.30143541 Z" id="Shape"></path>
                        </g>
                        <g id="Group" transform="translate(41.148325, 62.200957)">
                            <path d="M0,3.30143541 L0.813397129,3.30143541 L0.813397129,1.38755981 L0.0956937799,1.38755981 L0.0956937799,0.765550239 C0.526315789,0.669856459 0.813397129,0.574162679 1.05263158,0.38277512 L1.81818182,0.38277512 L1.81818182,3.30143541 L2.48803828,3.30143541 L2.48803828,4.11483254 L0,4.11483254 L0,3.30143541 Z" id="Shape"></path>
                            <path d="M3.01435407,3.54066986 C3.92344498,2.72727273 4.59330144,2.10526316 4.59330144,1.57894737 C4.59330144,1.24401914 4.40191388,1.10047847 4.11483254,1.10047847 C3.87559809,1.10047847 3.68421053,1.29186603 3.49282297,1.4354067 L2.96650718,0.909090909 C3.3492823,0.4784689 3.73205742,0.28708134 4.25837321,0.28708134 C5.02392344,0.28708134 5.55023923,0.765550239 5.55023923,1.53110048 C5.55023923,2.15311005 4.97607656,2.77511962 4.49760766,3.30143541 C4.68899522,3.30143541 4.97607656,3.25358852 5.11961722,3.25358852 L5.74162679,3.25358852 L5.74162679,4.11483254 L3.01435407,4.11483254 L3.01435407,3.54066986 Z" id="Shape"></path>
                        </g>
                        <g id="Group" transform="translate(33.492823, 89.952153)">
                            <path d="M0.04784689,3.15789474 L0.861244019,3.15789474 L0.861244019,1.24401914 L0.14354067,1.24401914 L0.14354067,0.622009569 C0.574162679,0.526315789 0.861244019,0.43062201 1.10047847,0.23923445 L1.86602871,0.23923445 L1.86602871,3.15789474 L2.53588517,3.15789474 L2.53588517,3.97129187 L0.04784689,3.97129187 L0.04784689,3.15789474 Z" id="Shape"></path>
                            <path d="M3.39712919,2.8708134 C3.63636364,3.06220096 3.87559809,3.20574163 4.16267943,3.20574163 C4.49760766,3.20574163 4.68899522,3.11004785 4.68899522,2.8708134 C4.68899522,2.58373206 4.54545455,2.44019139 3.73205742,2.44019139 L3.73205742,1.72248804 C4.35406699,1.72248804 4.54545455,1.57894737 4.54545455,1.29186603 C4.54545455,1.05263158 4.40191388,0.956937799 4.16267943,0.956937799 C3.92344498,0.956937799 3.73205742,1.05263158 3.49282297,1.24401914 L2.96650718,0.622009569 C3.3492823,0.33492823 3.73205742,0.14354067 4.16267943,0.14354067 C4.97607656,0.14354067 5.50239234,0.526315789 5.50239234,1.19617225 C5.50239234,1.57894737 5.31100478,1.81818182 4.88038278,2.00956938 C5.31100478,2.15311005 5.59808612,2.44019139 5.59808612,2.91866029 C5.59808612,3.63636364 4.92822967,4.01913876 4.16267943,4.01913876 C3.54066986,4.01913876 3.11004785,3.8277512 2.82296651,3.49282297 L3.39712919,2.8708134 Z" id="Shape"></path>
                        </g>
                        <g id="Group" transform="translate(23.923445, 67.942584)">
                            <path d="M0.19138756,3.3492823 L1.00478469,3.3492823 L1.00478469,1.4354067 L0.28708134,1.4354067 L0.28708134,0.813397129 C0.717703349,0.717703349 1.00478469,0.622009569 1.24401914,0.43062201 L2.00956938,0.43062201 L2.00956938,3.3492823 L2.67942584,3.3492823 L2.67942584,4.16267943 L0.19138756,4.16267943 L0.19138756,3.3492823 Z" id="Shape"></path>
                            <path d="M6.02870813,3.3492823 L5.64593301,3.3492823 L5.64593301,4.21052632 L4.68899522,4.21052632 L4.68899522,3.3492823 L3.11004785,3.3492823 L3.11004785,2.63157895 L4.40191388,0.43062201 L5.64593301,0.43062201 L5.64593301,2.58373206 L6.02870813,2.58373206 L6.02870813,3.3492823 Z M4.68899522,2.58373206 L4.68899522,2.15311005 C4.68899522,1.9138756 4.68899522,1.53110048 4.73684211,1.24401914 C4.64114833,1.48325359 4.54545455,1.67464115 4.44976077,1.9138756 L4.11483254,2.53588517 L4.68899522,2.53588517 L4.68899522,2.58373206 Z" id="Shape"></path>
                        </g>
                    </g>
                </g>
            </g>
        </g>
    </g>
</svg>