<?xml version="1.0" encoding="UTF-8"?>
<svg width="191px" height="125px" viewBox="0 0 191 125" version="1.1" xmlns="http://www.w3.org/2000/svg" xmlns:xlink="http://www.w3.org/1999/xlink">
    <!-- Generator: sketchtool 51.2 (57519) - http://www.bohemiancoding.com/sketch -->
    <title>6AF48895-4C02-45EE-969B-80C132F84C38</title>
    <desc>Created with sketchtool.</desc>
    <defs></defs>
    <g id="Page-1" stroke="none" stroke-width="1" fill="none" fill-rule="evenodd">
        <g id="Circuit_info_05" transform="translate(-811.000000, -505.000000)">
            <g id="assets/circuits_info/115" transform="translate(807.000000, 505.000000)">
                <g id="assets/circuits_info/RedBull-Ring" transform="translate(4.000000, 0.000000)">
                    <g id="trazado" fill="#B7B5B6" fill-rule="nonzero">
                        <path d="M79.4334975,123.706897 C78.6945813,123.706897 77.8940887,123.583744 77.0935961,123.214286 L76.4778325,122.906404 L76.1699507,122.29064 C76.1699507,122.29064 74.3842365,119.027094 73.2758621,117.05665 C72.9679803,116.625616 70.135468,112.007389 63.8546798,104.064039 L63.7931034,103.940887 L55.9729064,92.8571429 L30.1108374,41.317734 L2.40147783,9.48275862 C1.84729064,8.92857143 -0.123152709,6.71182266 0.554187192,4.18719212 C1.04679803,2.46305419 2.64778325,1.23152709 5.23399015,0.677339901 L5.41871921,0.615763547 L5.60344828,0.615763547 L29.9876847,3.55271368e-15 L47.1059113,3.2635468 L72.044335,7.82019704 L94.8891626,10.0985222 L118.842365,11.9458128 L118.965517,11.9458128 C119.334975,12.0073892 122.598522,12.8078818 124.076355,15.6403941 C124.753695,16.9334975 125.246305,19.08867 123.891626,22.1059113 L123.830049,22.229064 C123.522167,22.8448276 116.133005,37.1921182 99.5689655,39.2857143 C98.2142857,39.6551724 93.1034483,40.3325123 77.8325123,37.3152709 L77.5862069,37.2536946 C74.5073892,36.2068966 65.5788177,33.9901478 61.5763547,35.8990148 L61.453202,35.9605911 C61.2068966,36.0837438 54.9876847,38.7315271 55.3571429,45.6896552 C55.3571429,45.8743842 55.6034483,47.5369458 56.5270936,49.5073892 L67.7955665,70.5049261 C68.8423645,71.6133005 73.8300493,76.1699507 80.6034483,71.9211823 L91.7487685,60.2832512 L91.9334975,60.1600985 C92.179803,59.9753695 97.9679803,55.8497537 105.665025,55.2955665 L105.788177,55.2955665 L161.576355,55.4187192 L175,55.4187192 C175.307882,55.4187192 181.711823,55.6650246 184.29803,61.6995074 L184.421182,62.0073892 L190.578818,85.1600985 C191.256158,87.2536946 191.317734,91.6256158 186.576355,93.9655172 L173.091133,100.431034 L172.906404,100.492611 L119.027094,114.162562 L82.820197,123.152709 C82.5738916,123.214286 82.3891626,123.275862 82.1428571,123.337438 C81.4039409,123.460591 80.4187192,123.706897 79.4334975,123.706897 Z M67.2413793,101.477833 C74.0147783,109.975369 76.908867,114.716749 76.9704433,114.901478 L77.0320197,114.963054 C77.770936,116.317734 78.8793103,118.288177 79.4334975,119.396552 C79.9261084,119.396552 80.5418719,119.211823 81.0960591,119.08867 C81.3423645,119.027094 81.58867,118.965517 81.8349754,118.903941 L117.73399,109.975369 L171.428571,96.3669951 L184.544335,90.0862069 C186.884236,88.9162562 186.514778,87.0689655 186.330049,86.5147783 L186.268473,86.3916256 L180.172414,63.3004926 C178.633005,59.9137931 174.938424,59.7906404 174.876847,59.7906404 L161.514778,59.7906404 L105.849754,59.6674877 C100,60.0985222 95.3817734,62.9926108 94.5197044,63.6083744 L83.3128079,75.3078818 L83.1280788,75.4310345 C74.6305419,80.91133 67.179803,76.3546798 64.408867,73.2142857 L64.2241379,73.0295567 L52.6477833,51.4778325 C51.2931034,48.6453202 51.046798,46.3669951 50.9852217,46.1206897 L50.9852217,46.0591133 C50.5541872,37.9926108 56.4655172,33.3743842 59.729064,32.0812808 C65.8251232,29.1871921 76.9704433,32.635468 78.7561576,33.2512315 C93.5344828,36.1453202 97.8448276,35.3448276 98.3990148,35.2216749 L98.6453202,35.0985222 L98.8300493,35.0985222 C112.807882,33.4359606 119.458128,21.2438424 119.950739,20.4433498 C120.44335,19.273399 120.566502,18.3497537 120.197044,17.7339901 C119.76601,16.8719212 118.596059,16.4408867 118.165025,16.317734 L94.5197044,14.4704433 L71.3669951,12.1305419 L46.3054187,7.57389163 L29.679803,4.43349754 L5.9729064,5.04926108 C5.2955665,5.23399015 4.92610837,5.41871921 4.80295567,5.48029557 C4.92610837,5.78817734 5.23399015,6.28078818 5.48029557,6.5270936 L5.60344828,6.65024631 L33.7438424,38.9778325 L59.7906404,90.8866995 L67.2413793,101.477833 Z" id="Shape"></path>
                    </g>
                    <g id="PUNTOS_INTERMEDIOS_Y_SEMAFORO" transform="translate(8.620690, 6.773399)">
                        <g id="Group">
                            <path d="M131.606105,105.91133 L126.231527,90.3024238 L127.395959,89.9014778 L132.908593,105.91133 L136.330049,105.91133 C138.916256,105.91133 141.009852,108.004926 141.009852,110.591133 L141.009852,113.546798 C141.009852,116.133005 138.916256,118.226601 136.330049,118.226601 L129.125616,118.226601 C126.539409,118.226601 124.384236,116.133005 124.384236,113.546798 L124.384236,110.591133 C124.384236,108.004926 126.477833,105.91133 129.125616,105.91133 L131.606105,105.91133 Z" id="Combined-Shape" fill="#AC1737" fill-rule="nonzero"></path>
                            <path d="M16.2920299,36.1912743 L27.5702807,31.4039409 L28.0514767,32.5375676 L16.5958931,37.4001743 C16.6155298,37.5743976 16.6256158,37.7515295 16.6256158,37.9310345 L16.6256158,40.8866995 C16.6256158,43.4729064 14.5320197,45.5665025 11.9458128,45.5665025 L4.74137931,45.5665025 C2.15517241,45.5665025 0,43.4729064 0,40.8866995 L0,37.9310345 C0,35.3448276 2.09359606,33.2512315 4.74137931,33.2512315 L11.9458128,33.2512315 C13.9170735,33.2512315 15.6021369,34.4675701 16.2920299,36.1912743 Z" id="Combined-Shape" fill="#AC1737" fill-rule="nonzero"></path>
                            <path d="M0.615763547,51.4778325 C0.615763547,48.8916256 2.70935961,46.7980296 5.35714286,46.7980296 L12.5615764,46.7980296 C15.1477833,46.7980296 17.2413793,48.8916256 17.2413793,51.4778325 L17.2413793,54.4334975 C17.2413793,57.0197044 15.1477833,59.1133005 12.5615764,59.1133005 L5.35714286,59.1133005 C2.77093596,59.1133005 0.615763547,57.0197044 0.615763547,54.4334975 L0.615763547,51.4778325 Z" id="Shape-Copy-2" fill="#AC1737" fill-rule="nonzero"></path>
                            <path d="M76.3546798,15.1477833 C76.3546798,12.5615764 78.4482759,10.4679803 81.0960591,10.4679803 L88.3004926,10.4679803 C90.8866995,10.4679803 92.9802956,12.5615764 92.9802956,15.1477833 L92.9802956,18.1034483 C92.9802956,20.6896552 90.8866995,22.7832512 88.3004926,22.7832512 L81.0960591,22.7832512 C78.5098522,22.7832512 76.3546798,20.6896552 76.3546798,18.1034483 L76.3546798,15.1477833 Z" id="Shape-Copy-3" fill="#AC1737" fill-rule="nonzero"></path>
                            <path d="M119.458128,31.1576355 C119.458128,28.5714286 121.551724,26.4778325 124.199507,26.4778325 L131.403941,26.4778325 C133.990148,26.4778325 136.083744,28.5714286 136.083744,31.1576355 L136.083744,34.1133005 C136.083744,36.6995074 133.990148,38.7931034 131.403941,38.7931034 L124.199507,38.7931034 C121.6133,38.7931034 119.458128,36.6995074 119.458128,34.1133005 L119.458128,31.1576355 Z" id="Shape-Copy-4" fill="#AC1737" fill-rule="nonzero"></path>
                            <path d="M6.13608374,37.1582512 C5.75738916,37.1582512 5.48029557,36.908867 5.48029557,36.5578818 C5.48029557,36.1976601 5.75738916,35.9482759 6.13608374,35.9482759 C6.51477833,35.9482759 6.79187192,36.1976601 6.79187192,36.5578818 C6.79187192,36.908867 6.51477833,37.1582512 6.13608374,37.1582512 Z M5.60036946,42.4876847 L5.60036946,37.9525862 L6.66256158,37.9525862 L6.66256158,42.4876847 L5.60036946,42.4876847 Z M8.02955665,42.4876847 L8.02955665,41.6194581 L9.341133,41.6194581 L9.341133,37.7586207 L8.26046798,37.7586207 L8.26046798,37.0935961 C8.84236453,36.9827586 9.24876847,36.8349754 9.6182266,36.6133005 L10.4125616,36.6133005 L10.4125616,41.6194581 L11.5671182,41.6194581 L11.5671182,42.4876847 L8.02955665,42.4876847 Z" id="i1" fill="#FFFFFF"></path>
                            <path d="M81.955665,14.635468 C81.5517241,14.635468 81.2561576,14.3694581 81.2561576,13.9950739 C81.2561576,13.6108374 81.5517241,13.3448276 81.955665,13.3448276 C82.3596059,13.3448276 82.6551724,13.6108374 82.6551724,13.9950739 C82.6551724,14.3694581 82.3596059,14.635468 81.955665,14.635468 Z M81.3842365,20.320197 L81.3842365,15.4827586 L82.5172414,15.4827586 L82.5172414,20.320197 L81.3842365,20.320197 Z M83.6206897,20.320197 L83.6206897,19.6600985 C85.364532,17.9753695 86.4581281,16.8719212 86.4581281,15.9162562 C86.4581281,15.2561576 86.0935961,14.8325123 85.4236453,14.8325123 C84.9408867,14.8325123 84.5369458,15.1576355 84.2019704,15.5320197 L83.5714286,14.9014778 C84.1428571,14.2906404 84.7142857,13.9359606 85.5714286,13.9359606 C86.773399,13.9359606 87.5517241,14.6945813 87.5517241,15.8571429 C87.5517241,16.9704433 86.5172414,18.1133005 85.2758621,19.4236453 C85.6009852,19.3940887 86.0147783,19.3546798 86.320197,19.3546798 L87.8571429,19.3546798 L87.8571429,20.320197 L83.6206897,20.320197 Z" id="i2" fill="#FFFFFF"></path>
                            <path d="M125.059113,30.6453202 C124.655172,30.6453202 124.359606,30.3793103 124.359606,30.0049261 C124.359606,29.6206897 124.655172,29.3546798 125.059113,29.3546798 C125.463054,29.3546798 125.758621,29.6206897 125.758621,30.0049261 C125.758621,30.3793103 125.463054,30.6453202 125.059113,30.6453202 Z M124.487685,36.3300493 L124.487685,31.4926108 L125.62069,31.4926108 L125.62069,36.3300493 L124.487685,36.3300493 Z M126.586207,35.5615764 L127.128079,34.8325123 C127.502463,35.2167488 127.985222,35.5221675 128.615764,35.5221675 C129.295567,35.5221675 129.768473,35.1674877 129.768473,34.5763547 C129.768473,33.9261084 129.35468,33.5123153 127.926108,33.5123153 L127.926108,32.6847291 C129.157635,32.6847291 129.561576,32.2610837 129.561576,31.679803 C129.561576,31.1576355 129.206897,30.8423645 128.635468,30.8423645 C128.142857,30.8423645 127.758621,31.0788177 127.374384,31.4334975 L126.793103,30.7339901 C127.325123,30.2610837 127.926108,29.9458128 128.674877,29.9458128 C129.876847,29.9458128 130.704433,30.5369458 130.704433,31.6009852 C130.704433,32.3004926 130.29064,32.773399 129.610837,33.0394089 L129.610837,33.0788177 C130.349754,33.2758621 130.91133,33.8078818 130.91133,34.635468 C130.91133,35.7783251 129.916256,36.4482759 128.714286,36.4482759 C127.699507,36.4482759 127.029557,36.0541872 126.586207,35.5615764 Z" id="i3" fill="#FFFFFF"></path>
                            <path d="M72.044335,107.251232 L72.044335,106.325123 L73.4433498,106.325123 L73.4433498,102.206897 L72.2906404,102.206897 L72.2906404,101.497537 C72.91133,101.37931 73.3448276,101.221675 73.7389163,100.985222 L74.5862069,100.985222 L74.5862069,106.325123 L75.817734,106.325123 L75.817734,107.251232 L72.044335,107.251232 Z" id="1" fill="#B7B5B6"></path>
                            <path d="M28.9901478,31.6305419 L28.9901478,30.9704433 C30.7339901,29.2857143 31.8275862,28.182266 31.8275862,27.226601 C31.8275862,26.5665025 31.4630542,26.1428571 30.7931034,26.1428571 C30.3103448,26.1428571 29.9064039,26.4679803 29.5714286,26.8423645 L28.9408867,26.2118227 C29.5123153,25.6009852 30.0837438,25.2463054 30.9408867,25.2463054 C32.1428571,25.2463054 32.9211823,26.0049261 32.9211823,27.1674877 C32.9211823,28.2807882 31.8866995,29.4236453 30.6453202,30.7339901 C30.9704433,30.7044335 31.3842365,30.6650246 31.6896552,30.6650246 L33.226601,30.6650246 L33.226601,31.6305419 L28.9901478,31.6305419 Z" id="2" fill="#B7B5B6"></path>
                            <path d="M6.15763547,5.61576355 L6.69950739,4.88669951 C7.07389163,5.27093596 7.55665025,5.57635468 8.18719212,5.57635468 C8.86699507,5.57635468 9.33990148,5.22167488 9.33990148,4.63054187 C9.33990148,3.98029557 8.92610837,3.56650246 7.49753695,3.56650246 L7.49753695,2.73891626 C8.72906404,2.73891626 9.13300493,2.31527094 9.13300493,1.73399015 C9.13300493,1.21182266 8.77832512,0.896551724 8.20689655,0.896551724 C7.71428571,0.896551724 7.33004926,1.13300493 6.94581281,1.48768473 L6.36453202,0.78817734 C6.89655172,0.315270936 7.49753695,0 8.24630542,0 C9.44827586,0 10.2758621,0.591133005 10.2758621,1.65517241 C10.2758621,2.3546798 9.86206897,2.82758621 9.18226601,3.09359606 L9.18226601,3.13300493 C9.92118227,3.33004926 10.4827586,3.86206897 10.4827586,4.68965517 C10.4827586,5.83251232 9.48768473,6.50246305 8.28571429,6.50246305 C7.27093596,6.50246305 6.60098522,6.10837438 6.15763547,5.61576355 Z" id="3" fill="#B7B5B6"></path>
                            <path d="M120.581281,6.85221675 L122.226601,6.85221675 L122.226601,5.43349754 C122.226601,5.06896552 122.256158,4.49753695 122.275862,4.13300493 L122.236453,4.13300493 C122.078818,4.45812808 121.901478,4.77339901 121.724138,5.10837438 L120.581281,6.85221675 Z M124.078818,6.85221675 L124.078818,7.72906404 L123.29064,7.72906404 L123.29064,9.34482759 L122.226601,9.34482759 L122.226601,7.72906404 L119.458128,7.72906404 L119.458128,6.96059113 L121.940887,3.07881773 L123.29064,3.07881773 L123.29064,6.85221675 L124.078818,6.85221675 Z" id="4" fill="#B7B5B6"></path>
                            <path d="M96.6748768,39.3842365 L97.1970443,38.6551724 C97.5714286,39.0098522 98.0344828,39.3251232 98.6650246,39.3251232 C99.364532,39.3251232 99.8768473,38.8817734 99.8768473,38.1231527 C99.8768473,37.3743842 99.4137931,36.9507389 98.7241379,36.9507389 C98.320197,36.9507389 98.0935961,37.0591133 97.7192118,37.3054187 L97.1773399,36.9605911 L97.364532,33.8669951 L100.714286,33.8669951 L100.714286,34.8226601 L98.3497537,34.8226601 L98.2216749,36.3399015 C98.4876847,36.2118227 98.7241379,36.1330049 99.0492611,36.1330049 C100.123153,36.1330049 101.019704,36.7438424 101.019704,38.0935961 C101.019704,39.4630542 99.9655172,40.2512315 98.8128079,40.2512315 C97.7980296,40.2512315 97.137931,39.8472906 96.6748768,39.3842365 Z" id="5" fill="#B7B5B6"></path>
                            <path d="M43.5123153,25.3399015 C44.0344828,25.3399015 44.4482759,24.9162562 44.4482759,24.1477833 C44.4482759,23.408867 44.0837438,23.0344828 43.4630542,23.0344828 C43.1083744,23.0344828 42.6945813,23.2315271 42.3399015,23.7536946 C42.4581281,24.8669951 42.9014778,25.3399015 43.5123153,25.3399015 Z M45.3940887,20.4137931 L44.7832512,21.1034483 C44.5566502,20.8275862 44.1625616,20.6305419 43.7881773,20.6305419 C43,20.6305419 42.3596059,21.2118227 42.3103448,22.9458128 C42.6748768,22.4827586 43.2167488,22.2068966 43.6699507,22.2068966 C44.7536946,22.2068966 45.5024631,22.8374384 45.5024631,24.1477833 C45.5024631,25.3990148 44.6059113,26.2068966 43.5320197,26.2068966 C42.3004926,26.2068966 41.2561576,25.2512315 41.2561576,23.1428571 C41.2561576,20.7093596 42.4384236,19.7044335 43.7192118,19.7044335 C44.4778325,19.7044335 45.0197044,20.0197044 45.3940887,20.4137931 Z" id="6" fill="#B7B5B6"></path>
                            <path d="M67.1083744,64.1477833 C67.2167488,61.9211823 67.6403941,60.5221675 68.8522167,58.8374384 L65.8866995,58.8374384 L65.8866995,57.8817734 L70.0935961,57.8817734 L70.0935961,58.5714286 C68.6256158,60.3940887 68.3694581,61.7044335 68.2610837,64.1477833 L67.1083744,64.1477833 Z" id="7" fill="#B7B5B6"></path>
                            <path d="M93.9753695,62.5418719 C93.9753695,63.1625616 94.4876847,63.5763547 95.1280788,63.5763547 C95.729064,63.5763547 96.1625616,63.2216749 96.1625616,62.6403941 C96.1625616,61.9605911 95.5024631,61.7142857 94.6551724,61.3694581 C94.2610837,61.6551724 93.9753695,62.0591133 93.9753695,62.5418719 Z M95.5221675,60.729064 C95.8571429,60.3940887 96.044335,60.0394089 96.044335,59.6453202 C96.044335,59.0935961 95.6995074,58.6896552 95.1182266,58.6896552 C94.635468,58.6896552 94.2610837,59.0049261 94.2610837,59.546798 C94.2610837,60.1773399 94.8226601,60.453202 95.5221675,60.729064 Z M92.9802956,62.6600985 C92.9802956,61.8817734 93.5221675,61.3694581 94.1133005,61.0541872 L94.1133005,61.0147783 C93.6305419,60.6699507 93.2463054,60.2068966 93.2463054,59.546798 C93.2463054,58.5320197 94.0541872,57.8817734 95.137931,57.8817734 C96.2610837,57.8817734 96.9802956,58.5615764 96.9802956,59.5763547 C96.9802956,60.1970443 96.546798,60.7192118 96.1428571,61.0147783 L96.1428571,61.0541872 C96.7241379,61.3793103 97.226601,61.8423645 97.226601,62.679803 C97.226601,63.6453202 96.3793103,64.3842365 95.1083744,64.3842365 C93.8866995,64.3842365 92.9802956,63.6748768 92.9802956,62.6600985 Z" id="8" fill="#B7B5B6"></path>
                            <path d="M177.53202,45.6600985 C177.8867,45.6600985 178.310345,45.453202 178.655172,44.9310345 C178.536946,43.8275862 178.083744,43.3546798 177.472906,43.3546798 C176.960591,43.3546798 176.536946,43.7783251 176.536946,44.5369458 C176.536946,45.2758621 176.901478,45.6600985 177.53202,45.6600985 Z M175.591133,48.2807882 L176.20197,47.591133 C176.438424,47.8669951 176.82266,48.0640394 177.206897,48.0640394 C177.995074,48.0640394 178.635468,47.4827586 178.684729,45.7487685 C178.320197,46.2019704 177.768473,46.4778325 177.315271,46.4778325 C176.241379,46.4778325 175.492611,45.8472906 175.492611,44.5369458 C175.492611,43.2857143 176.389163,42.4876847 177.463054,42.4876847 C178.684729,42.4876847 179.729064,43.4334975 179.729064,45.5418719 C179.729064,47.9753695 178.55665,48.9901478 177.26601,48.9901478 C176.517241,48.9901478 175.965517,48.6748768 175.591133,48.2807882 Z" id="9" fill="#B7B5B6"></path>
                            <path d="M163.17734,82.1231527 L163.17734,81.1970443 L164.576355,81.1970443 L164.576355,77.0788177 L163.423645,77.0788177 L163.423645,76.3694581 C164.044335,76.2512315 164.477833,76.0935961 164.871921,75.8571429 L165.719212,75.8571429 L165.719212,81.1970443 L166.950739,81.1970443 L166.950739,82.1231527 L163.17734,82.1231527 Z M170.024631,82.2413793 C168.724138,82.2413793 167.896552,81.0788177 167.896552,78.9605911 C167.896552,76.8423645 168.724138,75.7389163 170.024631,75.7389163 C171.325123,75.7389163 172.152709,76.8522167 172.152709,78.9605911 C172.152709,81.0788177 171.325123,82.2413793 170.024631,82.2413793 Z M170.024631,81.3546798 C170.635468,81.3546798 171.068966,80.7339901 171.068966,78.9605911 C171.068966,77.1871921 170.635468,76.6256158 170.024631,76.6256158 C169.423645,76.6256158 168.980296,77.1871921 168.980296,78.9605911 C168.980296,80.7339901 169.423645,81.3546798 170.024631,81.3546798 Z" id="10" fill="#B7B5B6"></path>
                            <g transform="translate(129.310345, 108.990148)" fill="#FFFFFF" fill-rule="nonzero" id="Shape">
                                <polygon points="0 0 3.07881773 0 3.07881773 0.738916256 0.92364532 0.738916256 0.92364532 2.15517241 2.77093596 2.15517241 2.77093596 2.89408867 0.92364532 2.89408867 0.92364532 5.04926108 0 5.04926108"></polygon>
                                <polygon points="4.31034483 0 5.23399015 0 5.23399015 4.37192118 7.32758621 4.37192118 7.32758621 5.11083744 4.31034483 5.11083744"></polygon>
                            </g>
                        </g>
                        <g id="Group" transform="translate(142.857143, 83.743842)" fill-rule="nonzero">
                            <path d="M11.294209,0.440288768 L12.5257361,0.440288768 L12.5257361,20.7604858 L11.294209,20.7604858 L11.294209,1.67181586 L6.36810066,1.67181586 L6.36810066,0.440288768 L11.294209,0.440288768 Z" id="Combined-Shape" fill="#AC1737" transform="translate(9.446918, 10.600387) rotate(-20.000000) translate(-9.446918, -10.600387) "></path>
                            <path d="M4.67980296,18.4729064 L33.409081,18.4729064 C35.9952878,18.4729064 38.0888839,20.5665025 38.0888839,23.1527094 L38.0888839,28.2635468 C38.0888839,30.8497537 35.9952878,32.9433498 33.409081,32.9433498 L4.67980296,32.9433498 C2.09359606,32.9433498 0,30.8497537 0,28.2635468 L0,23.1527094 C0,20.5665025 2.09359606,18.4729064 4.67980296,18.4729064 Z" id="Shape" fill="#7B7C7D"></path>
                            <g transform="translate(25.862069, 19.088670)" id="Shape">
                                <path d="M4.75486052,12.3152709 C2.48127204,12.3152709 0.615763547,10.24112 0.615763547,7.71324864 L0.615763547,4.6020223 C0.615763547,2.07415089 2.48127204,0 4.75486052,0 L6.32888332,0 C8.6024718,0 10.4679803,2.07415089 10.4679803,4.6020223 L10.4679803,7.71324864 C10.4679803,10.24112 8.6024718,12.3152709 6.32888332,12.3152709 L4.75486052,12.3152709 Z" fill="#FFFFFF"></path>
                                <path d="M6.34236453,0.615763547 C8.62068966,0.615763547 10.4064039,2.46305419 10.4064039,4.67980296 L10.4064039,7.63546798 C10.4064039,9.9137931 8.5591133,11.6995074 6.34236453,11.6995074 L4.67980296,11.6995074 C2.40147783,11.6995074 0.615763547,9.85221675 0.615763547,7.63546798 L0.615763547,4.67980296 C0.615763547,2.40147783 2.46305419,0.615763547 4.67980296,0.615763547 L6.34236453,0.615763547 Z M6.34236453,0 L4.67980296,0 C2.09359606,0 0,2.09359606 0,4.67980296 L0,7.63546798 C0,10.2216749 2.09359606,12.3152709 4.67980296,12.3152709 L6.34236453,12.3152709 C8.92857143,12.3152709 11.0221675,10.2216749 11.0221675,7.63546798 L11.0221675,4.67980296 C11.0837438,2.09359606 8.99014778,0 6.34236453,0 Z" fill="#C7C6C5"></path>
                            </g>
                            <g id="Clipped" transform="translate(25.862069, 19.088670)" fill="#1E1E1C">
                                <g id="Group" transform="translate(-3.078818, 0.615764)">
                                    <rect id="Rectangle-path" x="0" y="0.431034483" width="2.5862069" height="2.5862069"></rect>
                                    <rect id="Rectangle-path" x="3.07881773" y="3.07881773" width="2.46305419" height="2.46305419"></rect>
                                    <polygon id="Rectangle-path" points="8.00492611 0 10.4679803 4.1018092e-16 10.4679803 0.615763547 8.00492611 0.615763547"></polygon>
                                    <rect id="Rectangle-path-Copy-3" x="5.54187192" y="0.615763547" width="2.46305419" height="2.46305419"></rect>
                                    <rect id="Rectangle-path" x="8.00492611" y="3.07881773" width="2.46305419" height="2.46305419"></rect>
                                    <rect id="Rectangle-path" x="0" y="5.54187192" width="2.5862069" height="2.5862069"></rect>
                                    <rect id="Rectangle-path" x="3.07881773" y="8.00492611" width="2.46305419" height="2.46305419"></rect>
                                    <rect id="Rectangle-path-Copy" x="5.54187192" y="10.4679803" width="2.46305419" height="2.46305419"></rect>
                                    <polygon id="Rectangle-path-Copy-2" points="10.4679803 10.4679803 12.3152709 10.4679803 11.6995074 11.0837438 10.4679803 11.0837438"></polygon>
                                    <rect id="Rectangle-path" x="5.54187192" y="5.54187192" width="2.46305419" height="2.46305419"></rect>
                                    <rect id="Rectangle-path" x="8.00492611" y="8.00492611" width="2.46305419" height="2.46305419"></rect>
                                    <rect id="Rectangle-path" x="10.4679803" y="0.615763547" width="2.46305419" height="2.46305419"></rect>
                                    <rect id="Rectangle-path" x="12.9310345" y="3.07881773" width="2.46305419" height="2.46305419"></rect>
                                    <rect id="Rectangle-path" x="10.4679803" y="5.54187192" width="2.46305419" height="2.46305419"></rect>
                                    <polygon id="Rectangle-path" points="12.9310345 8.00492611 13.546798 8.00492611 13.546798 9.2364532 12.9310345 9.85221675"></polygon>
                                </g>
                            </g>
                            <g transform="translate(1.847291, 19.704433)" fill="#C01724" id="Shape" stroke="#D0021B">
                                <path d="M4.37192118,11.6995074 C1.97044335,11.6995074 0,9.72906404 0,7.32758621 L0,4.37192118 C0,1.97044335 1.97044335,0 4.37192118,0 L6.03448276,0 C8.43596059,0 10.4064039,1.97044335 10.4064039,4.37192118 L10.4064039,7.32758621 C10.4064039,9.72906404 8.43596059,11.6995074 6.03448276,11.6995074 L4.37192118,11.6995074 Z"></path>
                            </g>
                            <g transform="translate(13.546798, 19.088670)" id="Shape">
                                <path d="M4.37192118,12.3152709 C1.97044335,12.3152709 0,10.3448276 0,7.94334975 L0,4.98768473 C0,2.5862069 1.97044335,0.615763547 4.37192118,0.615763547 L6.03448276,0.615763547 C8.43596059,0.615763547 10.4064039,2.5862069 10.4064039,4.98768473 L10.4064039,7.94334975 C10.4064039,10.3448276 8.43596059,12.3152709 6.03448276,12.3152709 L4.37192118,12.3152709 Z" fill="#009548"></path>
                                <path d="M6.34236453,0.615763547 C8.62068966,0.615763547 10.4064039,2.46305419 10.4064039,4.67980296 L10.4064039,7.63546798 C10.4064039,9.9137931 8.5591133,11.6995074 6.34236453,11.6995074 L4.67980296,11.6995074 C2.40147783,11.6995074 0.615763547,9.85221675 0.615763547,7.63546798 L0.615763547,4.67980296 C0.615763547,2.40147783 2.46305419,0.615763547 4.67980296,0.615763547 L6.34236453,0.615763547 Z M6.34236453,0 L4.67980296,0 C2.09359606,0 0,2.09359606 0,4.67980296 L0,7.63546798 C0,10.2216749 2.09359606,12.3152709 4.67980296,12.3152709 L6.34236453,12.3152709 C8.92857143,12.3152709 11.0221675,10.2216749 11.0221675,7.63546798 L11.0221675,4.67980296 C11.0221675,2.09359606 8.92857143,0 6.34236453,0 Z" fill="#006139"></path>
                            </g>
                            <path d="M32.2044335,19.7044335 C34.4827586,19.7044335 36.2684729,21.5517241 36.2684729,23.7684729 L36.2684729,26.7241379 C36.2684729,29.0024631 34.4211823,30.7881773 32.2044335,30.7881773 L30.5418719,30.7881773 C28.2635468,30.7881773 26.4778325,28.9408867 26.4778325,26.7241379 L26.4778325,23.7684729 C26.4778325,21.4901478 28.3251232,19.7044335 30.5418719,19.7044335 L32.2044335,19.7044335 Z M32.2044335,19.08867 L30.5418719,19.08867 C27.955665,19.08867 25.862069,21.182266 25.862069,23.7684729 L25.862069,26.7241379 C25.862069,29.3103448 27.955665,31.4039409 30.5418719,31.4039409 L32.2044335,31.4039409 C34.7906404,31.4039409 36.8842365,29.3103448 36.8842365,26.7241379 L36.8842365,23.7684729 C36.9458128,21.182266 34.8522167,19.08867 32.2044335,19.08867 Z" id="Shape" fill="#C7C6C5"></path>
                        </g>
                        <g id="Group" transform="translate(142.857143, 83.128079)" fill="#AC1737" fill-rule="nonzero">
                            <path d="M5.83705691,2.15609827 C6.08336233,2.21767463 6.14493868,2.5255564 5.96020962,2.71028546 L4.3592244,4.31127069 L2.75823917,5.91225591 C2.57351011,6.09698497 2.26562834,6.03540862 2.20405198,5.7891032 L1.58828844,3.63393078 L0.972524889,1.47875837 C0.910948534,1.23245295 1.15725395,0.986147533 1.40355937,1.04772389 L3.55873179,1.60191108 L5.83705691,2.15609827 Z" id="Shape" transform="translate(3.515287, 3.528910) rotate(54.000000) translate(-3.515287, -3.528910) "></path>
                        </g>
                    </g>
                    <path d="M15,61.656 L15.536,61.024 C15.912,61.376 16.416,61.616 16.904,61.616 C17.488,61.616 17.816,61.352 17.816,60.944 C17.816,60.512 17.48,60.376 17,60.176 L16.288,59.864 C15.768,59.648 15.232,59.24 15.232,58.472 C15.232,57.64 15.968,57 16.984,57 C17.6,57 18.192,57.256 18.6,57.664 L18.12,58.256 C17.792,57.976 17.432,57.808 16.984,57.808 C16.488,57.808 16.168,58.04 16.168,58.424 C16.168,58.832 16.568,58.984 17,59.16 L17.704,59.456 C18.328,59.72 18.76,60.112 18.76,60.872 C18.76,61.72 18.056,62.424 16.88,62.424 C16.176,62.424 15.496,62.144 15,61.656 Z" id="S" fill="#FFFFFF"></path>
                    <rect id="Rectangle-2" fill="#AC1737" fill-rule="nonzero" x="136" y="45.5" width="1" height="14"></rect>
                    <rect id="Rectangle-2-Copy" fill="#AC1737" fill-rule="nonzero" x="93" y="29" width="1" height="14"></rect>
                </g>
            </g>
        </g>
    </g>
</svg>