<?xml version="1.0" encoding="UTF-8"?>
<svg width="200px" height="119px" viewBox="0 0 200 119" version="1.1" xmlns="http://www.w3.org/2000/svg" xmlns:xlink="http://www.w3.org/1999/xlink">
    <!-- Generator: sketchtool 51.2 (57519) - http://www.bohemiancoding.com/sketch -->
    <title>5E45EF65-2DC4-43F9-A162-F3F0687F7C55</title>
    <desc>Created with sketchtool.</desc>
    <defs></defs>
    <g id="Page-1" stroke="none" stroke-width="1" fill="none" fill-rule="evenodd">
        <g id="Circuit_info_05" transform="translate(-810.000000, -682.000000)">
            <g id="assets/circuits_info/114" transform="translate(810.000000, 679.000000)">
                <g id="assets/circuits_info/Chang-International-circuit" transform="translate(0.000000, 3.500000)">
                    <path d="M131.069455,82.771504 C133.233794,81.0697986 134.569238,78.8161887 134.937636,76.2406345 C135.213935,74.2629769 134.937636,72.1013511 134.10874,70.1696855 L133.878491,69.6637731 C129.227464,58.809652 126.418427,52.6007268 125.267183,50.7150533 C125.175083,50.5770772 125.082984,50.439101 125.036934,50.347117 L125.036934,50.3011249 L125.036934,50.2551329 L124.990884,50.1631488 C121.260852,45.609937 116.103277,46.4377937 113.340291,46.8517221 L113.156092,46.8977141 C113.063992,46.8977141 112.971893,46.9437061 112.879793,46.9437061 C109.840508,47.4036265 80.9212479,51.4969179 76.5925689,52.0488224 C71.3428943,52.6927109 68.9483059,54.3484243 66.6458171,55.9581456 C64.2972784,57.567867 61.3500927,60.9712778 60.9356447,63.2248877 C60.889595,63.3628638 60.8435452,63.638816 60.7974954,64.0527444 C60.3369976,66.5363145 58.9094546,74.0790087 57.8503097,78.4482524 C57.3898119,80.3339259 56.1925177,82.1736075 54.5347258,83.6453527 C53.0611329,84.9331298 51.3112414,85.8069785 49.9297481,85.9449546 C44.5419242,86.0829307 37.8186568,85.7149944 36.1608648,83.0014642 C36.114815,82.9554721 36.0687652,82.8634881 36.0687652,82.817496 C35.3780186,81.0238065 35.9306159,79.5520613 36.0687652,79.2761091 L36.2529643,78.9541648 C40.1211456,72.4692874 52.9229836,50.9910055 55.3636217,47.4956106 C58.4489568,43.5402953 65.3103735,43.218351 65.5866722,43.218351 L65.7248215,43.218351 L65.7708713,43.218351 L65.8169211,43.218351 C66.8300162,43.0803749 173.158951,30.3405803 180.572965,29.6966918 C185.223992,29.3287555 188.723775,27.7650262 190.796015,25.2814561 C192.361708,23.3497905 193.006405,20.9122125 192.684056,18.2446742 C192.545907,16.9568972 192.177509,15.8070962 191.578862,14.8412634 C188.263278,9.41420288 179.974318,10.8859481 176.428485,11.5298366 C176.152186,11.5758287 175.921938,11.6218207 175.737738,11.6678128 L175.691689,11.6678128 C172.974752,12.1277331 127.385473,18.3826504 123.425192,18.8885628 C120.155658,19.3024911 112.925843,19.210507 111.544349,19.164515 L111.4983,19.164515 L111.45225,19.164515 L111.4062,19.164515 L111.36015,19.164515 C108.505064,19.2564991 48.4561552,21.0501886 34.0425751,21.556101 C33.7202266,21.556101 30.4046427,21.6940771 28.5626516,24.7295516 C28.1021538,25.4194322 27.7798054,26.1553048 27.6416561,26.8451854 L27.6416561,26.8911774 L13.0899266,107.239268 L13.0899266,107.28526 L13.0899266,107.331252 L13.0899266,107.377244 C12.7215284,109.722838 12.9517773,111.56252 13.7806732,112.942281 C15.484515,115.747795 18.8921985,115.425851 20.4578909,114.873947 C20.7341895,114.781963 23.6813753,113.770138 28.1482036,112.298393 C42.8380824,107.377244 73.3230347,97.0750279 78.2043111,95.4193145 C84.7433794,93.2116967 86.263022,92.2918559 88.7036602,89.9002699 C89.2562575,89.3943575 89.8088548,88.750469 90.4535517,87.9686043 L90.4996015,87.9226123 C92.5718414,85.5310263 95.6571765,81.9436473 100.446353,79.8280135 C106.340725,77.2524594 111.728549,79.6440454 114.399436,81.2537667 C118.589965,83.8293209 121.399002,85.0251139 123.79359,85.255074 C125.589531,85.4850342 127.84597,85.3010661 131.069455,82.771504 Z M116.840074,77.2524594 C113.386341,75.1368256 106.386774,72.0553591 98.5122626,75.5047619 C92.7560405,78.034324 89.2562575,82.1276154 86.9077189,84.8411457 L86.7695695,85.0251139 C86.2169722,85.6230104 85.7564745,86.1749148 85.434126,86.4968591 C83.7302843,88.1525725 83.0855874,88.796461 76.6846684,90.9580868 C72.0796907,92.5218161 43.8511775,102.042168 28.7008009,107.147284 C23.2669273,108.986966 28.2863529,107.28526 19.9513433,110.090775 L19.5829451,110.228751 L19.0763976,110.412719 L18.6619496,110.550695 C18.2475016,110.688671 18.1093523,110.504703 18.0172527,110.412719 L17.9251532,110.274743 C17.8791034,110.228751 17.6488545,109.676846 17.7870038,108.021133 L32.1084844,27.8570102 C32.2466338,27.4430819 32.7071315,26.339273 34.2728239,26.2012969 C37.1739599,25.9713367 88.1510629,24.4995914 109.886558,23.8557029 L111.222001,23.8097109 C111.774598,23.8097109 119.925409,23.993679 123.83964,23.4877666 C128.03017,22.9358621 173.3892,16.6809449 176.244286,16.2210246 C176.474535,16.1750325 176.750834,16.1290405 177.027132,16.0830484 C179.421721,15.6691201 185.914739,14.5193191 187.526481,17.1868574 C187.75673,17.6007857 188.217228,18.1066981 188.217228,18.7045946 L188.033029,18.7045946 C188.217228,20.0843558 187.80278,21.2801488 187.065984,22.1999895 C185.868689,23.7177268 183.382001,24.6375676 180.066417,24.9135198 C172.836602,25.5114163 76.4083698,37.1014099 65.218274,38.4351791 C64.0670296,38.4811711 55.6859702,39.0330756 51.4493907,44.5521201 L51.4033409,44.5981122 L51.3572911,44.6441042 L51.3112414,44.6900963 C48.7324539,48.4154514 34.6412222,72.0553591 31.8321858,76.746547 L31.7400862,76.8845231 L31.7400862,76.9305151 L31.7400862,76.9765072 L31.7400862,77.0224992 C31.5558871,77.3904355 29.8980951,80.7478543 31.5558871,84.7491616 L31.6019369,84.7951537 L31.6019369,84.8411457 L31.6479867,84.8871377 L31.6940364,84.9331298 C31.786136,85.0711059 31.8782355,85.3470581 31.9703351,85.5310263 C33.443928,87.9686043 36.943711,90.8661027 49.9757978,90.8661027 L49.9757978,90.7281266 L50.0678974,90.6821346 L50.0678974,90.6361425 C54.7189249,90.1762221 60.7053958,85.5770183 62.1789887,79.5520613 C63.2381336,75.2288097 64.6196269,67.9160756 65.1261744,65.1565533 L65.1722242,64.8806011 C65.218274,64.5126648 65.3103735,64.2367125 65.3103735,64.0987364 C65.4485229,63.592824 67.0602651,61.201238 69.0864552,59.8214769 C71.204745,58.3497316 72.8625369,57.2459227 76.9609671,56.7400103 C81.6580443,56.1421138 111.129901,51.9568383 113.386341,51.634894 L113.662639,51.588902 L113.938938,51.54291 C116.379576,51.1749737 119.188612,50.7150533 121.168753,53.0606472 C121.168753,53.0606472 121.168753,53.0606472 121.168753,53.0606472 C121.168753,53.0606472 121.168753,53.1066393 121.214803,53.1066393 C121.7674,54.02648 123.563341,57.6598511 129.503762,71.4574626 L129.687962,71.963375 C130.01031,72.6992476 131.391803,76.4246027 128.03017,79.0461489 C125.589531,81.0697986 124.161988,81.7596791 116.840074,77.2524594 Z" id="Shape" fill="#B7B5B6" fill-rule="nonzero"></path>
                    <g id="PUNTOS_INTERMEDIOS_Y_SEMAFORO_1_" fill-rule="nonzero">
                        <path d="M8.43494657,72.255413 C8.43494657,72.0248597 8.6654096,71.840417 8.89587262,71.8865277 L24.106432,72.670409 C24.336895,72.670409 24.5212655,72.9009623 24.4751728,73.1315156 C24.4751728,73.362069 24.2447098,73.5465116 24.0142468,73.500401 L8.80368741,72.7165196 C8.61931699,72.6242983 8.43494657,72.4398557 8.43494657,72.255413 Z" id="Shape" fill="#AC1737"></path>
                        <g id="Group">
                            <path d="M0,70.8259824 C0,68.8893344 1.56714854,67.3215718 3.54913053,67.3215718 L8.94196522,67.3215718 C10.8778546,67.3215718 12.4450031,68.8893344 12.4450031,70.8259824 L12.4450031,73.0392943 C12.4450031,74.9759423 10.8778546,76.5437049 8.94196522,76.5437049 L3.54913053,76.5437049 C1.61324115,76.5437049 0,74.9759423 0,73.0392943 L0,70.8259824 Z" id="Shape" fill="#AC1737"></path>
                            <path d="M133.668552,9.22213312 L133.668552,20.2886929 L132.7467,20.2886929 L132.7467,9.22213312 L130.303792,9.22213312 C128.367903,9.22213312 126.754662,7.65437049 126.754662,5.71772253 L126.754662,3.50441059 C126.754662,1.56776263 128.32181,0 130.303792,0 L135.696627,0 C137.632516,0 139.199665,1.56776263 139.199665,3.50441059 L139.199665,5.71772253 C139.199665,7.65437049 137.632516,9.22213312 135.696627,9.22213312 L133.668552,9.22213312 Z" id="Combined-Shape" fill="#AC1737"></path>
                            <path d="M141.043369,3.50441059 C141.043369,1.56776263 142.610517,0 144.592499,0 L149.985334,0 C151.921224,0 153.488372,1.56776263 153.488372,3.50441059 L153.488372,5.71772253 C153.488372,7.65437049 151.921224,9.22213312 149.985334,9.22213312 L144.592499,9.22213312 C142.65661,9.22213312 141.043369,7.65437049 141.043369,5.71772253 L141.043369,3.50441059 Z" id="Shape-Copy-2" fill="#AC1737"></path>
                            <path d="M139.584,60.3246832 L125.241384,65.8302977 L124.910893,64.9693374 L139.273687,59.4559773 C139.225195,59.2264099 139.199665,58.9886178 139.199665,58.744988 L139.199665,56.531676 C139.199665,54.5950281 140.766813,53.0272654 142.748795,53.0272654 L148.14163,53.0272654 C150.077519,53.0272654 151.644668,54.5950281 151.644668,56.531676 L151.644668,58.744988 C151.644668,60.6816359 150.077519,62.2493986 148.14163,62.2493986 L142.748795,62.2493986 C141.381136,62.2493986 140.174514,61.4669156 139.584,60.3246832 Z" id="Combined-Shape" fill="#AC1737"></path>
                            <path d="M46.480326,64.6121825 L40.1004809,61.2199587 L40.5334338,60.4056927 L47.0133849,63.8511438 C47.6591608,63.1500413 48.5922967,62.7105052 49.6417348,62.7105052 L55.0345695,62.7105052 C56.9704588,62.7105052 58.5376074,64.2782678 58.5376074,66.2149158 L58.5376074,68.4282277 C58.5376074,70.3648757 56.9704588,71.9326383 55.0345695,71.9326383 L49.6417348,71.9326383 C47.7058454,71.9326383 46.0926042,70.3648757 46.0926042,68.4282277 L46.0926042,66.2149158 C46.0926042,65.6372446 46.2320387,65.0923944 46.480326,64.6121825 Z" id="Combined-Shape" fill="#AC1737"></path>
                            <g transform="translate(3.226482, 70.088212)" fill="#FFFFFF" id="Shape">
                                <polygon points="0.138277813 0 2.44290802 0 2.44290802 0.553327987 0.829666876 0.553327987 0.829666876 1.6138733 2.212445 1.6138733 2.212445 2.16720128 0.829666876 2.16720128 0.829666876 3.78107458 0.138277813 3.78107458"></polygon>
                                <polygon points="3.41085271 0 4.10224178 0 4.10224178 3.27385726 5.66939032 3.27385726 5.66939032 3.82718524 3.41085271 3.82718524"></polygon>
                            </g>
                        </g>
                        <g id="Group" transform="translate(0.921852, 78.388132)">
                            <path d="M7.46700189,0.184442662 C9.40289126,0.184442662 10.9700398,1.75220529 10.9700398,3.68885325 L10.9700398,24.8075381 C10.9700398,26.744186 9.40289126,28.3119487 7.46700189,28.3119487 L3.64131573,28.3119487 C1.70542636,28.3119487 0.138277813,26.744186 0.138277813,24.8075381 L0.138277813,3.68885325 C0.138277813,1.75220529 1.70542636,0.184442662 3.64131573,0.184442662 L7.46700189,0.184442662 Z" id="Shape" fill="#7B7C7D"></path>
                            <g transform="translate(0.921852, 18.905373)" id="Shape">
                                <path d="M0.230463021,3.82718524 C0.230463021,2.02886929 1.70542636,0.553327987 3.50303792,0.553327987 L5.71548292,0.553327987 C7.51309449,0.553327987 8.98805783,2.02886929 8.98805783,3.82718524 L8.98805783,5.07217322 C8.98805783,6.87048917 7.51309449,8.34603047 5.71548292,8.34603047 L3.50303792,8.34603047 C1.70542636,8.34603047 0.230463021,6.87048917 0.230463021,5.07217322 L0.230463021,3.82718524 Z" fill="#FFFFFF"></path>
                                <path d="M8.80368741,5.07217322 C8.80368741,6.77826784 7.42090928,8.11547715 5.76157553,8.11547715 L3.54913053,8.11547715 C1.84370417,8.11547715 0.507018647,6.73215718 0.507018647,5.07217322 L0.507018647,3.82718524 C0.507018647,2.12109062 1.88979677,0.783881315 3.54913053,0.783881315 L5.76157553,0.783881315 C7.46700189,0.783881315 8.80368741,2.16720128 8.80368741,3.82718524 L8.80368741,5.07217322 Z M9.26461345,5.07217322 L9.26461345,3.82718524 C9.26461345,1.89053729 7.69746491,0.322774659 5.76157553,0.322774659 L3.54913053,0.322774659 C1.61324115,0.322774659 0.0460926042,1.89053729 0.0460926042,3.82718524 L0.0460926042,5.07217322 C0.0460926042,7.00882117 1.61324115,8.5765838 3.54913053,8.5765838 L5.76157553,8.5765838 C7.69746491,8.62269447 9.26461345,7.00882117 9.26461345,5.07217322 Z" fill="#C7C6C5"></path>
                            </g>
                            <g transform="translate(1.382778, 19.366480)" fill="#1E1E1C">
                                <polygon id="Rectangle-path" points="4.14833438 0 5.99203855 0 5.99203855 1.38331997 4.14833438 1.38331997"></polygon>
                                <rect id="Rectangle-path" x="5.99203855" y="1.38331997" width="1.84370417" height="1.84442662"></rect>
                                <rect id="Rectangle-path" x="4.14833438" y="3.22774659" width="1.84370417" height="1.84442662"></rect>
                                <polygon id="Rectangle-path" points="0.921852085 0.922213312 2.30463021 0 2.30463021 1.38331997 0.460926042 1.38331997"></polygon>
                                <rect id="Rectangle-path" x="2.30463021" y="1.38331997" width="1.84370417" height="1.84442662"></rect>
                                <rect id="Rectangle-path" x="0.460926042" y="3.22774659" width="1.84370417" height="1.84442662"></rect>
                                <polygon id="Rectangle-path-Copy-3" points="-1.11022302e-16 5.07217322 0.460926042 5.07217322 0.460926042 6.91659984 0.230463021 6.45549318 2.77555756e-16 5.99438653"></polygon>
                                <polygon id="Rectangle-path-Copy-2" points="0 1.84442662 0.460926042 1.38331997 0.460926042 3.22774659 -1.11022302e-16 3.22774659"></polygon>
                                <rect id="Rectangle-path" x="5.99203855" y="5.07217322" width="1.84370417" height="1.84442662"></rect>
                                <polygon id="Rectangle-path-Copy" points="7.83574272 3.22774659 8.7575948 3.22774659 8.7575948 5.07217322 7.83574272 5.07217322"></polygon>
                                <polygon id="Rectangle-path" points="4.14833438 6.91659984 5.99203855 6.91659984 5.99203855 7.83881315 4.14833438 7.83881315"></polygon>
                                <rect id="Rectangle-path" x="2.30463021" y="5.07217322" width="1.84370417" height="1.84442662"></rect>
                                <polygon id="Rectangle-path" points="0.460926042 6.91659984 2.30463021 6.91659984 2.30463021 7.83881315 1.38277813 7.3777065"></polygon>
                            </g>
                            <g transform="translate(0.921852, 0.922213)" id="Shape">
                                <path d="M0.230463021,3.59663192 C0.230463021,1.79831596 1.70542636,0.322774659 3.50303792,0.322774659 L5.71548292,0.322774659 C7.51309449,0.322774659 8.98805783,1.79831596 8.98805783,3.59663192 L8.98805783,4.84161989 C8.98805783,6.63993585 7.51309449,8.11547715 5.71548292,8.11547715 L3.50303792,8.11547715 C1.70542636,8.11547715 0.230463021,6.63993585 0.230463021,4.84161989 L0.230463021,3.59663192 Z" fill="#C01724"></path>
                                <path d="M8.80368741,4.84161989 C8.80368741,6.54771451 7.42090928,7.88492382 5.76157553,7.88492382 L3.54913053,7.88492382 C1.84370417,7.88492382 0.507018647,6.50160385 0.507018647,4.84161989 L0.507018647,3.59663192 C0.507018647,1.89053729 1.88979677,0.553327987 3.54913053,0.553327987 L5.76157553,0.553327987 C7.46700189,0.553327987 8.80368741,1.93664796 8.80368741,3.59663192 L8.80368741,4.84161989 Z M9.26461345,4.84161989 L9.26461345,3.59663192 C9.26461345,1.65998396 7.69746491,0.0922213312 5.76157553,0.0922213312 L3.54913053,0.0922213312 C1.61324115,0.0922213312 0.0460926042,1.65998396 0.0460926042,3.59663192 L0.0460926042,4.84161989 C0.0460926042,6.77826784 1.61324115,8.34603047 3.54913053,8.34603047 L5.76157553,8.34603047 C7.69746491,8.34603047 9.26461345,6.77826784 9.26461345,4.84161989 Z" fill="#AA1920"></path>
                            </g>
                            <g transform="translate(0.921852, 10.144346)" id="Shape">
                                <path d="M0.230463021,3.50441059 C0.230463021,1.70609463 1.70542636,0.230553328 3.50303792,0.230553328 L5.71548292,0.230553328 C7.51309449,0.230553328 8.98805783,1.70609463 8.98805783,3.50441059 L8.98805783,4.74939856 C8.98805783,6.54771451 7.51309449,8.02325581 5.71548292,8.02325581 L3.50303792,8.02325581 C1.70542636,8.02325581 0.230463021,6.54771451 0.230463021,4.74939856 L0.230463021,3.50441059 Z" fill="#009548"></path>
                                <path d="M8.80368741,4.74939856 C8.80368741,6.45549318 7.42090928,7.79270249 5.76157553,7.79270249 L3.54913053,7.79270249 C1.84370417,7.79270249 0.507018647,6.40938252 0.507018647,4.74939856 L0.507018647,3.50441059 C0.507018647,1.79831596 1.88979677,0.461106656 3.54913053,0.461106656 L5.76157553,0.461106656 C7.46700189,0.461106656 8.80368741,1.84442662 8.80368741,3.50441059 L8.80368741,4.74939856 Z M9.26461345,4.74939856 L9.26461345,3.50441059 C9.26461345,1.56776263 7.69746491,2.84217094e-14 5.76157553,2.84217094e-14 L3.54913053,2.84217094e-14 C1.61324115,2.84217094e-14 0.0460926042,1.56776263 0.0460926042,3.50441059 L0.0460926042,4.74939856 C0.0460926042,6.68604651 1.61324115,8.25380914 3.54913053,8.25380914 L5.76157553,8.25380914 C7.69746491,8.25380914 9.26461345,6.68604651 9.26461345,4.74939856 Z" fill="#006139"></path>
                            </g>
                            <path d="M9.72553949,23.9775461 C9.72553949,25.6836407 8.34276137,27.02085 6.68342761,27.02085 L4.47098261,27.02085 C2.76555625,27.02085 1.42887073,25.6375301 1.42887073,23.9775461 L1.42887073,22.7325581 C1.42887073,21.0264635 2.81164886,19.6892542 4.47098261,19.6892542 L6.68342761,19.6892542 C8.38885397,19.6892542 9.72553949,21.0725742 9.72553949,22.7325581 L9.72553949,23.9775461 Z M10.1864655,23.9775461 L10.1864655,22.7325581 C10.1864655,20.7959102 8.61931699,19.2281476 6.68342761,19.2281476 L4.47098261,19.2281476 C2.53509323,19.2281476 0.967944689,20.7959102 0.967944689,22.7325581 L0.967944689,23.9775461 C0.967944689,25.9141941 2.53509323,27.4819567 4.47098261,27.4819567 L6.68342761,27.4819567 C8.61931699,27.5280674 10.1864655,25.9141941 10.1864655,23.9775461 Z" id="Shape" fill="#C7C6C5"></path>
                        </g>
                    </g>
                    <g id="textos_y_numeros_1_" transform="translate(3.617571, 11.369509)" fill="#7B7C7D" fill-rule="nonzero">
                        <path d="M19.9148379,8.89470564 L20.8368211,8.89470564 L20.8368211,6.17559873 L20.0531353,6.17559873 L20.0531353,5.71473316 C20.4680278,5.62256004 20.7446228,5.53038693 21.0212177,5.39212725 L21.5744077,5.39212725 L21.5744077,8.89470564 L22.4041926,8.89470564 L22.4041926,9.49383089 L19.9148379,9.49383089 L19.9148379,8.89470564 Z" id="Shape"></path>
                        <path d="M115.109607,3.82518429 C116.262086,2.71910691 116.999672,1.98172198 116.999672,1.33651017 C116.999672,0.921731154 116.769177,0.59912525 116.308185,0.59912525 C115.985491,0.59912525 115.708896,0.829558039 115.4784,1.05999083 L115.063508,0.645211808 C115.432301,0.230432789 115.801094,0 116.400383,0 C117.184069,0 117.69116,0.506952135 117.69116,1.29042362 C117.69116,2.02780854 116.999672,2.76519346 116.169888,3.64083806 C116.400383,3.64083806 116.676978,3.5947515 116.861375,3.5947515 L117.875557,3.5947515 L117.875557,4.23996331 L115.063508,4.23996331 L115.063508,3.82518429 L115.109607,3.82518429 Z" id="Shape"></path>
                        <path d="M193.57038,7.60428202 C193.800876,7.88080137 194.12357,8.0651476 194.538462,8.0651476 C194.999454,8.0651476 195.322148,7.83471481 195.322148,7.41993579 C195.322148,7.00515677 195.045553,6.72863743 194.12357,6.72863743 L194.12357,6.17559873 C194.953355,6.17559873 195.183851,5.89907939 195.183851,5.53038693 C195.183851,5.20778102 194.953355,4.97734823 194.584562,4.97734823 C194.261868,4.97734823 193.985273,5.11560791 193.754777,5.34604069 L193.385983,4.88517512 C193.754777,4.56256921 194.12357,4.37822298 194.630661,4.37822298 C195.414347,4.37822298 195.967536,4.74691544 195.967536,5.48430037 C195.967536,5.94516595 195.690942,6.26777185 195.22995,6.45211808 L195.22995,6.49820464 C195.737041,6.63646431 196.105834,6.95907021 196.105834,7.51210891 C196.105834,8.24949383 195.460446,8.71035941 194.67676,8.71035941 C193.985273,8.71035941 193.57038,8.43384006 193.293785,8.11123416 L193.57038,7.60428202 Z" id="Shape"></path>
                        <path d="M47.4821366,26.4997707 L46.9750458,26.4997707 L46.9750458,27.5597615 L46.2835584,27.5597615 L46.2835584,26.4997707 L44.4395919,26.4997707 L44.4395919,25.9928186 L46.0991617,23.4119713 L46.9750458,23.4119713 L46.9750458,25.9006454 L47.4821366,25.9006454 L47.4821366,26.4997707 Z M46.2835584,25.9006454 L46.2835584,24.9789143 C46.2835584,24.7484815 46.2835584,24.379789 46.3296575,24.1032697 L46.2835584,24.1032697 C46.19136,24.3337025 46.0530626,24.5180487 45.9608642,24.7484815 L45.2232777,25.9006454 L46.2835584,25.9006454 Z" id="Shape"></path>
                        <path d="M23.7410683,82.0801593 C23.9715641,82.3105921 24.2942582,82.5410249 24.7091507,82.5410249 C25.1701423,82.5410249 25.4928364,82.2645055 25.4928364,81.7575534 C25.4928364,81.2506013 25.1701423,80.9740819 24.7091507,80.9740819 C24.4325557,80.9740819 24.2942582,81.066255 24.0637624,81.2045147 L23.6949691,80.9740819 L23.8332666,78.9462734 L26.0460264,78.9462734 L26.0460264,79.5914852 L24.4786549,79.5914852 L24.3864566,80.6053894 C24.5708532,80.5132163 24.7091507,80.4671298 24.9396465,80.4671298 C25.6311339,80.4671298 26.230423,80.8819088 26.230423,81.7575534 C26.230423,82.6792845 25.5389356,83.1862367 24.7552498,83.1862367 C24.0637624,83.1862367 23.64887,82.9097173 23.3261758,82.633198 L23.7410683,82.0801593 Z" id="Shape"></path>
                        <path d="M58.4537371,78.9462734 C58.3154396,78.7619271 58.0388446,78.6236675 57.8083488,78.6236675 C57.301258,78.6236675 56.8863656,78.9923599 56.8402664,80.1445239 C57.0707622,79.821918 57.4395555,79.6375717 57.7161505,79.6375717 C58.4537371,79.6375717 58.9147287,80.0523508 58.9147287,80.9279953 C58.9147287,81.7575534 58.3154396,82.2645055 57.6239522,82.2645055 C56.7941672,82.2645055 56.1026798,81.6192937 56.1026798,80.236697 C56.1026798,78.6236675 56.8863656,77.9784557 57.7161505,77.9784557 C58.2232413,77.9784557 58.5920346,78.2088884 58.8225304,78.4393212 L58.4537371,78.9462734 Z M58.2232413,80.9740819 C58.2232413,80.4671298 57.9927454,80.236697 57.577853,80.236697 C57.3473572,80.236697 57.0707622,80.3749567 56.8402664,80.6975626 C56.9324647,81.4349475 57.2090597,81.7575534 57.6239522,81.7575534 C57.9466463,81.7575534 58.2232413,81.481034 58.2232413,80.9740819 Z" id="Shape"></path>
                        <path d="M69.1948417,52.7691086 L67.258677,52.7691086 L67.258677,52.1238968 L70.0246267,52.1238968 L70.0246267,52.5847624 C69.0565443,53.7830129 68.8721476,54.6586574 68.8260485,56.271687 L68.0423627,56.271687 C68.134561,54.7969171 68.411156,53.875186 69.1948417,52.7691086 Z" id="Shape"></path>
                        <path d="M120.549308,33.4588409 C120.226614,33.2284081 119.996118,32.9058022 119.996118,32.4449366 C119.996118,31.7536383 120.549308,31.3388592 121.240795,31.3388592 C121.978382,31.3388592 122.439374,31.7997248 122.439374,32.4449366 C122.439374,32.8597157 122.162779,33.1823216 121.886184,33.4127543 L121.886184,33.4588409 C122.254977,33.6892737 122.62377,33.965793 122.62377,34.5188317 C122.62377,35.1640435 122.07058,35.6249091 121.240795,35.6249091 C120.41101,35.6249091 119.85782,35.1640435 119.85782,34.4727452 C119.811721,34.0118796 120.180515,33.6892737 120.549308,33.4588409 Z M121.240795,35.1640435 C121.655688,35.1640435 121.932283,34.9336107 121.932283,34.5649183 C121.932283,34.1040527 121.51739,33.965793 120.918101,33.7353602 C120.641506,33.9197065 120.45711,34.1962258 120.45711,34.5188317 C120.45711,34.8875242 120.779804,35.1640435 121.240795,35.1640435 Z M121.840084,32.5371097 C121.840084,32.1684173 121.609589,31.8918979 121.240795,31.8918979 C120.918101,31.8918979 120.687605,32.1223307 120.687605,32.4449366 C120.687605,32.8597157 121.056399,33.0440619 121.51739,33.2284081 C121.701787,33.0440619 121.840084,32.8136291 121.840084,32.5371097 Z" id="Shape"></path>
                        <path d="M137.836494,71.6645972 C137.974791,71.8489435 138.251386,71.9872031 138.481882,71.9872031 C138.988973,71.9872031 139.403865,71.6185107 139.449964,70.4663467 C139.219468,70.7889526 138.850675,70.9272123 138.527981,70.9272123 C137.836494,70.9272123 137.329403,70.5124333 137.329403,69.6367887 C137.329403,68.8072307 137.928692,68.3002785 138.620179,68.3002785 C139.449964,68.3002785 140.095352,68.9454903 140.095352,70.3280871 C140.095352,71.9411166 139.311667,72.5863284 138.481882,72.5863284 C137.974791,72.5863284 137.605998,72.3558956 137.375502,72.1254628 L137.836494,71.6645972 Z M139.449964,69.8672215 C139.357766,69.1298366 139.081171,68.8072307 138.666278,68.8072307 C138.343584,68.8072307 138.066989,69.08375 138.066989,69.5907021 C138.066989,70.0976543 138.297485,70.3280871 138.712378,70.3280871 C138.942873,70.4202602 139.219468,70.235914 139.449964,69.8672215 Z" id="Shape"></path>
                        <g id="Group" transform="translate(97.269231, 74.660223)">
                            <path d="M0.138297485,3.5947515 L1.06028072,3.5947515 L1.06028072,0.875644597 L0.27659497,0.875644597 L0.27659497,0.414779019 C0.691487426,0.322605904 0.968082396,0.230432789 1.24467737,0.0921731154 L1.79786731,0.0921731154 L1.79786731,3.64083806 L2.62765222,3.64083806 L2.62765222,4.23996331 L0.138297485,4.23996331 L0.138297485,3.5947515 Z" id="Shape"></path>
                            <path d="M3.22694132,2.11998165 C3.22694132,0.737384923 3.78013126,0 4.60991617,0 C5.43970108,0 5.99289102,0.737384923 5.99289102,2.11998165 C5.99289102,3.50257839 5.43970108,4.28604987 4.60991617,4.28604987 C3.78013126,4.28604987 3.22694132,3.50257839 3.22694132,2.11998165 Z M5.34750276,2.11998165 C5.34750276,0.967817712 5.07090779,0.59912525 4.65601533,0.59912525 C4.24112288,0.59912525 3.96452791,0.967817712 3.96452791,2.11998165 C3.96452791,3.2721456 4.24112288,3.68692462 4.65601533,3.68692462 C5.02480863,3.68692462 5.34750276,3.2721456 5.34750276,2.11998165 Z" id="Shape"></path>
                        </g>
                        <g id="Group" transform="translate(81.595516, 85.720997)">
                            <path d="M0.0921983234,3.73301117 L1.01418156,3.73301117 L1.01418156,1.01390427 L0.230495809,1.01390427 L0.230495809,0.553038693 C0.645388264,0.460865577 0.921983234,0.368692462 1.1985782,0.230432789 L1.75176815,0.230432789 L1.75176815,3.77909773 L2.58155306,3.77909773 L2.58155306,4.37822298 L0.0921983234,4.37822298 L0.0921983234,3.73301117 Z" id="Shape"></path>
                            <path d="M3.41133797,3.73301117 L4.3333212,3.73301117 L4.3333212,1.01390427 L3.54963545,1.01390427 L3.54963545,0.553038693 C3.96452791,0.460865577 4.24112288,0.368692462 4.51771785,0.230432789 L5.07090779,0.230432789 L5.07090779,3.77909773 L5.9006927,3.77909773 L5.9006927,4.37822298 L3.41133797,4.37822298 L3.41133797,3.73301117 Z" id="Shape"></path>
                        </g>
                        <g id="Group" transform="translate(0.000000, 101.851293)">
                            <path d="M0.27659497,3.82518429 L1.1985782,3.82518429 L1.1985782,1.10607739 L0.414892456,1.10607739 L0.414892456,0.645211808 C0.829784911,0.553038693 1.10637988,0.460865577 1.38297485,0.322605904 L1.93616479,0.322605904 L1.93616479,3.82518429 L2.7659497,3.82518429 L2.7659497,4.42430954 L0.27659497,4.42430954 L0.27659497,3.82518429 Z" id="Shape"></path>
                            <path d="M3.36523881,3.96344396 C4.51771785,2.85736658 5.25530444,2.11998165 5.25530444,1.47476985 C5.25530444,1.05999083 5.02480863,0.737384923 4.56381701,0.737384923 C4.24112288,0.737384923 3.96452791,0.967817712 3.7340321,1.1982505 L3.31913964,0.783471481 C3.68793294,0.368692462 4.05672623,0.138259673 4.65601533,0.138259673 C5.43970108,0.138259673 5.94679186,0.645211808 5.94679186,1.42868329 C5.94679186,2.16606821 5.25530444,2.90345314 4.42551953,3.77909773 C4.65601533,3.77909773 4.9326103,3.73301117 5.11700695,3.73301117 L6.13118851,3.73301117 L6.13118851,4.37822298 L3.31913964,4.37822298 L3.36523881,3.96344396 Z" id="Shape"></path>
                        </g>
                    </g>
                    <path d="M131.467718,2.86297175 C131.197627,2.86297175 131,2.68510734 131,2.43477966 C131,2.17786441 131.197627,2 131.467718,2 C131.737808,2 131.935435,2.17786441 131.935435,2.43477966 C131.935435,2.68510734 131.737808,2.86297175 131.467718,2.86297175 Z M131.085638,6.664 L131.085638,3.42950282 L131.843209,3.42950282 L131.843209,6.664 L131.085638,6.664 Z M132.818169,6.664 L132.818169,6.04476836 L133.753605,6.04476836 L133.753605,3.29116384 L132.982859,3.29116384 L132.982859,2.81685876 C133.397876,2.73780791 133.687729,2.63240678 133.951232,2.47430508 L134.517763,2.47430508 L134.517763,6.04476836 L135.341209,6.04476836 L135.341209,6.664 L132.818169,6.664 Z" id="i1" fill="#FFFFFF"></path>
                    <path d="M50.4677175,65.8629718 C50.1976271,65.8629718 50,65.6851073 50,65.4347797 C50,65.1778644 50.1976271,65 50.4677175,65 C50.7378079,65 50.935435,65.1778644 50.935435,65.4347797 C50.935435,65.6851073 50.7378079,65.8629718 50.4677175,65.8629718 Z M50.0856384,69.664 L50.0856384,66.4295028 L50.843209,66.4295028 L50.843209,69.664 L50.0856384,69.664 Z M51.5810169,69.664 L51.5810169,69.2226328 C52.7470169,68.0961582 53.4782373,67.3583503 53.4782373,66.7193559 C53.4782373,66.2779887 53.2344972,65.9947232 52.7865424,65.9947232 C52.4637514,65.9947232 52.193661,66.212113 51.9696836,66.4624407 L51.5480791,66.0408362 C51.9301582,65.6324068 52.3122373,65.3952542 52.8853559,65.3952542 C53.6890395,65.3952542 54.2094576,65.9024972 54.2094576,66.6798305 C54.2094576,67.424226 53.5177627,68.1883842 52.6877288,69.0645311 C52.9051186,69.0447684 53.1817966,69.0184181 53.3860113,69.0184181 L54.4136723,69.0184181 L54.4136723,69.664 L51.5810169,69.664 Z" id="i2" fill="#FFFFFF"></path>
                    <path d="M143.480451,55.8864662 C143.203008,55.8864662 143,55.7037594 143,55.4466165 C143,55.1827068 143.203008,55 143.480451,55 C143.757895,55 143.960902,55.1827068 143.960902,55.4466165 C143.960902,55.7037594 143.757895,55.8864662 143.480451,55.8864662 Z M143.08797,59.7909774 L143.08797,56.4684211 L143.866165,56.4684211 L143.866165,59.7909774 L143.08797,59.7909774 Z M144.529323,59.2631579 L144.901504,58.762406 C145.158647,59.0263158 145.490226,59.2360902 145.923308,59.2360902 C146.390226,59.2360902 146.715038,58.9924812 146.715038,58.5864662 C146.715038,58.1398496 146.430827,57.8556391 145.449624,57.8556391 L145.449624,57.287218 C146.295489,57.287218 146.572932,56.9962406 146.572932,56.5969925 C146.572932,56.2383459 146.329323,56.0218045 145.936842,56.0218045 C145.598496,56.0218045 145.334586,56.1842105 145.070677,56.4278195 L144.671429,55.9473684 C145.036842,55.6225564 145.449624,55.406015 145.96391,55.406015 C146.789474,55.406015 147.357895,55.8120301 147.357895,56.5428571 C147.357895,57.0233083 147.073684,57.3481203 146.606767,57.5308271 L146.606767,57.5578947 C147.114286,57.6932331 147.5,58.0586466 147.5,58.6270677 C147.5,59.4120301 146.816541,59.8721805 145.990977,59.8721805 C145.293985,59.8721805 144.833835,59.6015038 144.529323,59.2631579 Z" id="i3" fill="#FFFFFF"></path>
                    <path d="M145.5,6.2920354 L145.9941,5.70943953 C146.340708,6.0339233 146.80531,6.25516224 147.255162,6.25516224 C147.79351,6.25516224 148.09587,6.01179941 148.09587,5.63569322 C148.09587,5.23746313 147.786136,5.1120944 147.343658,4.92772861 L146.687316,4.64011799 C146.207965,4.44100295 145.713864,4.06489676 145.713864,3.35693215 C145.713864,2.5899705 146.39233,2 147.328909,2 C147.896755,2 148.442478,2.2359882 148.818584,2.6120944 L148.376106,3.15781711 C148.073746,2.89970501 147.741888,2.74483776 147.328909,2.74483776 C146.871681,2.74483776 146.576696,2.95870206 146.576696,3.31268437 C146.576696,3.68879056 146.945428,3.82890855 147.343658,3.99115044 L147.992625,4.2640118 C148.567847,4.50737463 148.966077,4.86873156 148.966077,5.56932153 C148.966077,6.35103245 148.317109,7 147.233038,7 C146.584071,7 145.957227,6.74188791 145.5,6.2920354 Z" id="S" fill="#FFFFFF"></path>
                </g>
            </g>
        </g>
    </g>
</svg>