<?xml version="1.0" encoding="UTF-8"?>
<svg width="200px" height="84px" viewBox="0 0 200 84" version="1.1" xmlns="http://www.w3.org/2000/svg" xmlns:xlink="http://www.w3.org/1999/xlink">
    <!-- Generator: sketchtool 51.2 (57519) - http://www.bohemiancoding.com/sketch -->
    <title>6244144B-924F-4A5D-BC9F-020F73DCD142</title>
    <desc>Created with sketchtool.</desc>
    <defs></defs>
    <g id="Page-1" stroke="none" stroke-width="1" fill="none" fill-rule="evenodd">
        <g id="Circuit_info_05" transform="translate(-804.000000, -354.000000)">
            <g id="assets/circuits_info/118" transform="translate(804.000000, 342.000000)">
                <g id="assets/circuits/catalunya" transform="translate(0.000000, 12.500000)">
                    <path d="M119.5,77.0630841 C119.524049,75.3642335 120.895543,73.9998266 122.578995,74 L140.964991,74 C142.64118,74 144,75.3713895 144,77.0630841 L144,80.4369159 C144,82.1286105 142.64118,83.5 140.964991,83.5 L122.578995,83.5 C120.895543,83.5001734 119.524049,82.1357665 119.5,80.4369159 L119.5,77.0630841 Z" id="Shape" fill="#7B7C7D" fill-rule="nonzero"></path>
                    <path d="M138.743506,82.5 C137.22831,82.5 136,81.2383747 136,79.6820809 L136,77.7745665 C136.023059,76.2352292 137.244641,74.9998178 138.743506,75 L139.756494,75 C141.255359,74.9998178 142.476941,76.2352292 142.5,77.7745665 L142.5,79.6820809 C142.5,81.2383747 141.27169,82.5 139.756494,82.5 L138.743506,82.5 Z" id="Shape" fill="#FFFFFF" fill-rule="nonzero"></path>
                    <path d="M139.512195,74.8934426 C140.198868,74.8933449 140.856816,75.1756836 141.338338,75.6770781 C141.81986,76.1784725 142.084615,76.8569162 142.073171,77.5601093 L142.073171,79.4398907 C142.084615,80.1430838 141.81986,80.8215275 141.338338,81.3229219 C140.856816,81.8243164 140.198868,82.1066551 139.512195,82.1065574 L138.487805,82.1065574 C137.049844,82.1065574 135.884146,80.91265 135.884146,79.4398907 L135.884146,77.5601093 C135.884146,76.08735 137.049844,74.8934426 138.487805,74.8934426 L139.512195,74.8934426 Z M139.512195,74.5 L138.487805,74.5 C136.837686,74.5 135.5,75.8700576 135.5,77.5601093 L135.5,79.4398907 C135.5,81.1299424 136.837686,82.5 138.487805,82.5 L139.512195,82.5 C141.162314,82.5 142.5,81.1299424 142.5,79.4398907 L142.5,77.5601093 C142.5,75.8700576 141.162314,74.5 139.512195,74.5 Z" id="Shape" fill="#C7C6C5" fill-rule="nonzero"></path>
                    <g id="Group" transform="translate(136.000000, 75.000000)" fill="#1E1E1C" fill-rule="nonzero">
                        <rect id="Rectangle-path" x="0" y="2.20588235" width="1" height="1.76470588"></rect>
                        <rect id="Rectangle-path" x="0.866666667" y="0.441176471" width="1.73333333" height="1.76470588"></rect>
                        <polygon id="Rectangle-path-Copy" points="2.6 2.22044605e-16 4.33333333 2.22044605e-16 4.33333333 0.441176471 2.6 0.441176471"></polygon>
                        <rect id="Rectangle-path" x="2.6" y="2.20588235" width="1.73333333" height="1.76470588"></rect>
                        <polygon id="Rectangle-path" points="-3.22112707e-14 5.73529412 0.866666667 5.73529412 0.866666667 6.61764706 0.433333333 6.61764706"></polygon>
                        <rect id="Rectangle-path" x="0.866666667" y="3.97058824" width="1.73333333" height="1.76470588"></rect>
                        <rect id="Rectangle-path" x="2.6" y="5.73529412" width="1.73333333" height="1.76470588"></rect>
                        <polygon id="Rectangle-path" points="4.33333333 0.441176471 5.2 0.441176471 6.06666667 0.882352941 6.06666667 2.20588235 4.33333333 2.20588235"></polygon>
                        <rect id="Rectangle-path" x="6.06666667" y="2.20588235" width="1" height="1.76470588"></rect>
                        <rect id="Rectangle-path" x="4.33333333" y="3.97058824" width="1.73333333" height="1.76470588"></rect>
                        <rect id="Rectangle-path" x="6.06666667" y="5.73529412" width="1" height="1"></rect>
                    </g>
                    <path d="M122.935484,82.5 C121.324404,82.4767396 120.024231,81.2286374 120,79.6820809 L120,77.7745665 C120.024673,76.2352292 121.331735,74.9998178 122.935484,75 L124.064516,75 C125.668265,74.9998178 126.975327,76.2352292 127,77.7745665 L127,79.6820809 C126.975769,81.2286374 125.675596,82.4767396 124.064516,82.5 L122.935484,82.5 Z" id="Shape" fill="#C01724" fill-rule="nonzero"></path>
                    <path d="M124.036762,74.8934426 C124.727587,74.893345 125.389511,75.1756836 125.873944,75.6770781 C126.358377,76.1784725 126.624733,76.8569162 126.61322,77.5601093 L126.61322,79.4398907 C126.624733,80.1430838 126.358377,80.8215275 125.873944,81.3229219 C125.389511,81.8243164 124.727587,82.106655 124.036762,82.1065574 L122.963238,82.1065574 C121.533381,82.0826909 120.386588,80.8957455 120.38678,79.4398907 L120.38678,77.5601093 C120.375267,76.8569162 120.641623,76.1784725 121.126056,75.6770781 C121.610489,75.1756836 122.272413,74.893345 122.963238,74.8934426 L124.036762,74.8934426 Z M124.036762,74.5 L122.963238,74.5 C122.169924,74.4999152 121.409711,74.8237068 120.852803,75.3988807 C120.295896,75.9740545 119.988814,76.7525646 120.000312,77.5601093 L120.000312,79.4398907 C119.988814,80.2474354 120.295896,81.0259455 120.852803,81.6011193 C121.409711,82.1762932 122.169924,82.5000848 122.963238,82.5 L124.036762,82.5 C124.830076,82.5000848 125.590289,82.1762932 126.147197,81.6011193 C126.704104,81.0259455 127.011186,80.2474354 126.999688,79.4398907 L126.999688,77.5601093 C127.011186,76.7525646 126.704104,75.9740545 126.147197,75.3988807 C125.590289,74.8237068 124.830076,74.4999152 124.036762,74.5 Z" id="Shape" fill="#AA1920" fill-rule="nonzero"></path>
                    <path d="M130.743506,82.5 C129.22831,82.5 128,81.2383747 128,79.6820809 L128,77.7745665 C128.023059,76.2352292 129.244641,74.9998178 130.743506,75 L131.798701,75 C133.290587,75 134.5,76.2422157 134.5,77.7745665 L134.5,79.6820809 C134.500177,81.2216004 133.297389,82.4763151 131.798701,82.5 L130.743506,82.5 Z" id="Shape" fill="#009548" fill-rule="nonzero"></path>
                    <path d="M132.036762,74.8934426 C133.466619,74.9173091 134.613412,76.1042545 134.61322,77.5601093 L134.61322,79.4398907 C134.613412,80.8957455 133.466619,82.0826909 132.036762,82.1065574 L130.963238,82.1065574 C130.272413,82.106655 129.610489,81.8243164 129.126056,81.3229219 C128.641623,80.8215275 128.375267,80.1430838 128.38678,79.4398907 L128.38678,77.5601093 C128.375267,76.8569162 128.641623,76.1784725 129.126056,75.6770781 C129.610489,75.1756836 130.272413,74.893345 130.963238,74.8934426 L132.036762,74.8934426 Z M132.036762,74.5 L130.963238,74.5 C130.169924,74.4999152 129.409711,74.8237068 128.852803,75.3988807 C128.295896,75.9740545 127.988814,76.7525646 128.000312,77.5601093 L128.000312,79.4398907 C127.988814,80.2474354 128.295896,81.0259455 128.852803,81.6011193 C129.409711,82.1762932 130.169924,82.5000848 130.963238,82.5 L132.036762,82.5 C132.830076,82.5000848 133.590289,82.1762932 134.147197,81.6011193 C134.704104,81.0259455 135.011186,80.2474354 134.999688,79.4398907 L134.999688,77.5601093 C135.011186,76.7525646 134.704104,75.9740545 134.147197,75.3988807 C133.590289,74.8237068 132.830076,74.4999152 132.036762,74.5 Z" id="Shape" fill="#006139" fill-rule="nonzero"></path>
                    <path d="M139.512195,74.8934426 C140.198868,74.8933449 140.856816,75.1756836 141.338338,75.6770781 C141.81986,76.1784725 142.084615,76.8569162 142.073171,77.5601093 L142.073171,79.4398907 C142.084615,80.1430838 141.81986,80.8215275 141.338338,81.3229219 C140.856816,81.8243164 140.198868,82.1066551 139.512195,82.1065574 L138.487805,82.1065574 C137.049844,82.1065574 135.884146,80.91265 135.884146,79.4398907 L135.884146,77.5601093 C135.884146,76.08735 137.049844,74.8934426 138.487805,74.8934426 L139.512195,74.8934426 Z M139.512195,74.5 L138.487805,74.5 C136.837686,74.5 135.5,75.8700576 135.5,77.5601093 L135.5,79.4398907 C135.5,81.1299424 136.837686,82.5 138.487805,82.5 L139.512195,82.5 C141.162314,82.5 142.5,81.1299424 142.5,79.4398907 L142.5,77.5601093 C142.5,75.8700576 141.162314,74.5 139.512195,74.5 Z" id="Shape" fill="#C7C6C5" fill-rule="nonzero"></path>
                    <polygon id="Shape" fill="#7B7C7D" fill-rule="nonzero" points="31 69.4157303 31.9259259 69.4157303 31.9259259 66.7640449 31.1388889 66.7640449 31.1388889 66.3146067 32.1111111 66 32.6666667 66 32.6666667 69.4157303 33.5 69.4157303 33.5 70 31 70"></polygon>
                    <path d="M22.5409836,52.5702793 C23.5655738,51.5389497 24.2213115,50.8513967 24.2213115,50.2497877 C24.246915,50.0681875 24.1920403,49.8842675 24.0722964,49.7503436 C23.9525525,49.6164196 23.7810444,49.5471487 23.6065574,49.5622346 C23.3161721,49.5976744 23.0509615,49.7521623 22.8688525,49.9919553 L22.5,49.6052067 C22.7837831,49.2197035 23.2241236,48.9968113 23.6885246,49.0035978 C23.9998732,48.9773515 24.3065264,49.0956629 24.5273935,49.3272461 C24.7482606,49.5588294 24.8610974,49.8803609 24.8360656,50.2068156 C24.8360656,50.8943687 24.2213115,51.5819218 23.4836066,52.3983911 L25,52.3983911 L25,53 L22.5,53 L22.5,52.6132514 L22.5409836,52.5702793 Z" id="Shape" fill="#7B7C7D" fill-rule="nonzero"></path>
                    <path d="M0.245897716,25.5093286 C0.456215109,25.7815495 0.772506141,25.9395418 1.10653972,25.9392327 C1.51636925,25.9392327 1.80324992,25.7242807 1.80324992,25.337367 C1.80324992,24.9504533 1.5573522,24.6925108 0.737693149,24.6925108 L0.737693149,24.1766259 C1.4753863,24.1766259 1.68030106,23.9186835 1.68030106,23.5747602 C1.68078063,23.4301541 1.62337964,23.2919756 1.52208366,23.1938916 C1.42078768,23.0958075 1.28489763,23.0468239 1.14752268,23.0588753 C0.867118118,23.062786 0.600496696,23.1870888 0.409829527,23.4027986 L0.0819659054,22.9728945 C0.378662196,22.6711321 0.775248912,22.5016455 1.18850563,22.5 C1.88521582,22.5 2.37701126,22.8439233 2.37701126,23.5317698 C2.37398409,23.9521236 2.10683246,24.3199352 1.72128401,24.4345684 C2.17071006,24.4994407 2.50419511,24.9044955 2.49996012,25.3803574 C2.49996012,26.0682039 1.92619878,26.498108 1.22948858,26.498108 C0.759166655,26.5221694 0.304877272,26.315668 0,25.9392327 L0.245897716,25.5093286 Z" id="Shape" fill="#7B7C7D" fill-rule="nonzero"></path>
                    <path d="M194.5,17.3777778 L195.425926,17.3777778 L195.425926,14.7555556 L194.638889,14.7555556 L194.638889,14.3111111 C194.97557,14.2480468 195.302351,14.1434771 195.611111,14 L196.166667,14 L196.166667,17.3777778 L197,17.3777778 L197,18 L194.5,18 L194.5,17.3777778 Z" id="Shape" fill="#7B7C7D" fill-rule="nonzero"></path>
                    <path d="M197.745898,17.0093286 C197.956215,17.2815495 198.272506,17.4395418 198.60654,17.4392327 C199.016369,17.4392327 199.30325,17.2242807 199.30325,16.837367 C199.30325,16.4504533 199.057352,16.1925108 198.237693,16.1925108 L198.237693,15.6766259 C198.975386,15.6766259 199.180301,15.4186835 199.180301,15.0747602 C199.180781,14.9301541 199.12338,14.7919756 199.022084,14.6938916 C198.920788,14.5958075 198.784898,14.5468239 198.647523,14.5588753 C198.367118,14.562786 198.100497,14.6870888 197.90983,14.9027986 L197.581966,14.4728945 C197.878662,14.1711321 198.275249,14.0016455 198.688506,14 C199.385216,14 199.877011,14.3439233 199.877011,15.0317698 C199.873984,15.4521236 199.606832,15.8199352 199.221284,15.9345684 C199.67071,15.9994407 200.004195,16.4044955 199.99996,16.8803574 C199.99996,17.5682039 199.426199,17.998108 198.729489,17.998108 C198.259167,18.0221694 197.804877,17.815668 197.5,17.4392327 L197.745898,17.0093286 Z" id="Shape" fill="#7B7C7D" fill-rule="nonzero"></path>
                    <path d="M76.5,3.47777778 L76,3.47777778 L76,4.5 L75.3181818,4.5 L75.3181818,3.47777778 L73.5,3.47777778 L73.5,2.98888889 L75.1363636,0.5 L76,0.5 L76,2.9 L76.5,2.9 L76.5,3.47777778 Z M75.3181818,2.9 L75.3181818,2.01111111 C75.3118871,1.72891683 75.3270806,1.44665578 75.3636364,1.16666667 L75.3181818,1.16666667 C75.2272727,1.38888889 75.0909091,1.56666667 75,1.78888889 L74.2727273,2.9 L75.3181818,2.9 Z" id="Shape" fill="#7B7C7D" fill-rule="nonzero"></path>
                    <path d="M22.3566689,25.9543351 C22.5694975,26.2159551 22.8694816,26.3725606 23.1888962,26.3887961 C23.5609748,26.3887961 23.8626041,26.0581209 23.8626041,25.6502124 C23.8626041,25.2423038 23.5609748,24.9116286 23.1888962,24.9116286 C22.9876462,24.9178379 22.7933843,24.9938981 22.634078,25.1288591 L22.317039,24.9116286 L22.4359286,23 L24.3381626,23 L24.3381626,23.6082455 L22.9907468,23.6082455 L22.9114871,24.5640597 C23.0568959,24.4758075 23.2208611,24.4308688 23.3870456,24.4337214 C23.68811,24.4071856 23.9846341,24.5268022 24.1982057,24.7609401 C24.4117773,24.9950779 24.520887,25.3201564 24.496682,25.6502124 C24.5086645,26.018969 24.3775124,26.3760139 24.1357678,26.6327557 C23.8940231,26.8894976 23.564342,27.0218749 23.2285261,26.9970416 C22.7725878,27.0060526 22.3315713,26.8188971 22,26.4756883 L22.3566689,25.9543351 Z" id="Shape" fill="#7B7C7D" fill-rule="nonzero"></path>
                    <path d="M52.0895513,52.9032258 C51.9484392,52.7210119 51.7394763,52.6113304 51.515949,52.6021505 C51.0652614,52.6021505 50.6965171,52.9462365 50.6555455,54.0215053 C50.835769,53.7508847 51.1207071,53.5777103 51.4340058,53.548387 C52.0895513,53.548387 52.4992672,53.9354838 52.4992672,54.752688 C52.510392,55.0794736 52.3944553,55.3969597 52.1780952,55.6321999 C51.961735,55.86744 51.6635539,56.0002084 51.3520626,55.9999998 C50.6145739,55.9999998 50,55.3978493 50,54.1075268 C50,52.8172043 50.6965171,52 51.4340058,52 C51.803115,52.0009492 52.1567767,52.1556423 52.417324,52.4301075 L52.0895513,52.9032258 Z M51.8846933,54.7956988 C51.8846933,54.3225805 51.6798354,54.1075268 51.311091,54.1075268 C51.0400699,54.1339732 50.7969526,54.2934839 50.6555455,54.5376343 C50.7374887,55.2258063 50.9833183,55.5268815 51.3520626,55.5268815 C51.7208069,55.5268815 51.8846933,55.268817 51.8846933,54.7956988 Z" id="Shape" fill="#7B7C7D" fill-rule="nonzero"></path>
                    <path d="M71.75,40.6222222 L70,40.6222222 L70,40 L72.5,40 L72.5,40.4444444 C71.625,41.6 71.4583333,42.4444444 71.4166667,44 L70.7083333,44 C70.7140343,42.7852665 71.0785233,41.6033502 71.75,40.6222222 Z" id="Shape" fill="#7B7C7D" fill-rule="nonzero"></path>
                    <path d="M85.625,39.5018151 C85.3123603,39.2935417 85.1237015,38.9329568 85.125,38.5461614 C85.1354424,38.2500536 85.2614893,37.9712525 85.4739177,37.7743963 C85.6863461,37.57754 85.9667068,37.4797255 86.25,37.5036301 C86.5293335,37.4792758 86.8056477,37.5782649 87.0116195,37.7764791 C87.2175913,37.9746933 87.3343085,38.2539326 87.3333333,38.5461614 C87.3077308,38.9134682 87.1238742,39.2489017 86.8333333,39.4583763 C87.2168798,39.6357401 87.4738777,40.0208869 87.5,40.4574687 C87.5,41.065612 87,41.5 86.25,41.5 C85.5,41.5 85,41.065612 85,40.4140299 C85,39.7624479 85.2916667,39.7190091 85.625,39.5018151 Z M86.25,41.1090508 C86.4074484,41.1346202 86.5677089,41.0866165 86.6881258,40.9778165 C86.8085428,40.8690165 86.8768988,40.710459 86.875,40.5443463 C86.875,40.1099583 86.5,39.9796419 85.9583333,39.7624479 C85.7103097,39.9210646 85.5541425,40.1978403 85.5416667,40.5009075 C85.551686,40.682224 85.6338388,40.8509531 85.7683151,40.9664084 C85.9027914,41.0818638 86.0773866,41.133567 86.25,41.1090508 Z M86.7916667,38.633039 C86.8032965,38.4758972 86.7514049,38.3208387 86.6485349,38.205344 C86.545665,38.0898492 86.4011783,38.0244287 86.25,38.0248958 C85.9738576,38.0248958 85.75,38.2582744 85.75,38.5461614 C85.75,38.9371106 86.0833333,39.1108658 86.5,39.2846211 C86.6786926,39.1182191 86.7841159,38.882704 86.7916667,38.633039 Z" id="Shape" fill="#7B7C7D" fill-rule="nonzero"></path>
                    <path d="M102.95969,3.139785 C103.1031,3.32199884 103.315467,3.43168032 103.542635,3.44086025 C104.000664,3.44086025 104.375415,3.09677425 104.417054,2.0215055 C104.11915,2.39375996 103.623543,2.52639823 103.188122,2.35040269 C102.7527,2.17440714 102.475863,1.72955065 102.501661,1.247312 C102.490355,0.920526375 102.60818,0.603040262 102.828064,0.367800133 C103.047949,0.132560005 103.350987,-0.000208365697 103.667552,2.45462937e-07 C104.417054,2.45462937e-07 105,0.602150746 105,1.89247325 C105,3.18279575 104.292137,4 103.542635,4 C103.167514,3.99905078 102.808091,3.84435768 102.5433,3.5698925 L102.95969,3.139785 Z M104.417054,1.46236575 C104.333776,0.774193746 104.083942,0.473118496 103.709191,0.473118496 C103.33444,0.473118496 103.167885,0.731182996 103.167885,1.20430125 C103.167885,1.6774195 103.376079,1.89247325 103.75083,1.89247325 C104.125581,1.89247325 104.208859,1.80645175 104.417054,1.46236575 Z" id="Shape" fill="#7B7C7D" fill-rule="nonzero"></path>
                    <path d="M175,47.8777778 L175.925926,47.8777778 L175.925926,45.2555556 L175.138889,45.2555556 L175.138889,44.8111111 C175.47557,44.7480468 175.802351,44.6434771 176.111111,44.5 L176.666667,44.5 L176.666667,47.9222222 L177.5,47.9222222 L177.5,48.5 L175,48.5 L175,47.8777778 Z" id="Shape" fill="#7B7C7D" fill-rule="nonzero"></path>
                    <path d="M178,46.4784946 C178,45.188172 178.5,44.5 179.25,44.5 C180,44.5 180.5,45.188172 180.5,46.4784946 C180.5,47.7688172 180,48.5 179.25,48.5 C178.5,48.5 178,47.7688172 178,46.4784946 Z M179.916667,46.4784946 C179.916667,45.4032258 179.666667,45.0591398 179.291667,45.0591398 C178.916667,45.0591398 178.666667,45.4032258 178.666667,46.4784946 C178.666667,47.5537634 178.916667,47.9408602 179.291667,47.9408602 C179.666667,47.9408602 179.916667,47.5537634 179.916667,46.4784946 Z" id="Shape" fill="#7B7C7D" fill-rule="nonzero"></path>
                    <path d="M172,26.8777778 L172.925926,26.8777778 L172.925926,24.2555556 L172.138889,24.2555556 L172.138889,23.8111111 C172.47557,23.7480468 172.802351,23.6434771 173.111111,23.5 L173.666667,23.5 L173.666667,26.9222222 L174.5,26.9222222 L174.5,27.5 L172,27.5 L172,26.8777778 Z" id="Shape" fill="#7B7C7D" fill-rule="nonzero"></path>
                    <polygon id="Shape" fill="#7B7C7D" fill-rule="nonzero" points="175 26.8777778 175.925926 26.8777778 175.925926 24.2555556 175.138889 24.2555556 175.138889 23.8111111 176.111111 23.5 176.666667 23.5 176.666667 26.9222222 177.5 26.9222222 177.5 27.5 175 27.5"></polygon>
                    <path d="M147.5,10.4157303 L148.425926,10.4157303 L148.425926,7.76404494 L147.638889,7.76404494 L147.638889,7.31460674 C147.97557,7.25083381 148.302351,7.14508915 148.611111,7 L149.166667,7 L149.166667,10.4157303 L150,10.4157303 L150,11 L147.5,11 L147.5,10.4157303 Z" id="Shape" fill="#7B7C7D" fill-rule="nonzero"></path>
                    <path d="M150.540984,10.5702793 C151.565574,9.53894972 152.221311,8.85139665 152.221311,8.24978771 C152.246915,8.06818746 152.19204,7.8842675 152.072296,7.75034358 C151.952552,7.61641965 151.781044,7.54714866 151.606557,7.56223464 C151.316172,7.5976744 151.050962,7.75216231 150.868852,7.99195531 L150.5,7.60520671 C150.783783,7.21970347 151.224124,6.99681133 151.688525,7.00359777 C151.999873,6.97735146 152.306526,7.09566294 152.527393,7.32724615 C152.748261,7.55882935 152.861097,7.88036091 152.836066,8.20681565 C152.836066,8.89436872 152.221311,9.58192179 151.483607,10.3983911 L153,10.3983911 L153,11 L150.5,11 L150.5,10.6132514 L150.540984,10.5702793 Z" id="Shape" fill="#7B7C7D" fill-rule="nonzero"></path>
                    <path d="M176.056228,62.5 L37.8029852,62.5 C37.454411,62.5 34.4043867,62.2396671 32.5308004,59.8532822 C30.657214,57.4668973 30.6136423,55.1672901 30.7443576,52.9544604 C30.8750729,50.7416308 30.7443576,49.743688 30.2214963,48.8325229 L30.2214963,48.7023565 C29.4807761,47.3573032 29.1322019,46.7064709 27.3893309,45.968861 C25.6464599,45.2312512 18.5442605,42.4543669 18.064971,42.2808117 C17.5856815,42.1072564 13.9256523,40.7188143 11.4856329,38.0720965 C9.18551974,35.7410892 7.59875555,32.8066153 6.91059653,29.6112774 C6.22118506,26.6871256 6.40288635,23.6262524 7.43345783,20.8033477 C8.20789509,18.4579642 9.4200909,16.2792855 11.0063434,14.3818029 C13.4189143,11.4720898 16.4968637,9.18076041 19.9821291,7.69992519 C23.5114429,6.18131663 24.3393066,5.96437255 25.4721728,5.70403965 L26.1257494,5.53048438 C28.3645388,4.95980297 30.6574213,4.62531344 32.9665181,4.53254161 C35.4501093,4.4891528 62.9438995,4.4891528 64.9482012,4.53254161 C66.9525028,4.57593043 70.1768142,5.22676267 72.7039772,8.87142323 C76.1025756,13.7743595 73.0961231,19.8921825 71.7453981,21.671124 C69.929426,24.0153512 67.5247414,25.8412239 64.7739141,26.9645596 C61.7674616,28.1794464 59.8067317,28.3530017 56.5388485,28.3096129 L38.0208441,28.3096129 C36.5686382,28.2514121 35.1144131,28.2658933 33.6636665,28.3530017 C33.0972335,28.6133346 32.1386544,29.1340004 31.9643673,29.9583879 C31.7334501,30.7865297 31.8766442,31.6737737 32.3565133,32.3881616 C32.9085888,32.845889 33.4908506,33.2662562 34.0993843,33.6464373 L46.6044838,41.97709 C46.6480556,42.0204788 50.1337976,44.3634748 52.9223912,45.3614176 C55.9997648,46.5901138 59.2799697,47.2375146 62.5953253,47.2705255 L74.5775635,47.2705255 C74.9261377,47.2271367 75.8847167,47.0535814 76.3640063,46.5329157 C76.8432958,46.0122499 77.4533007,45.1010847 77.4533007,44.3634748 C77.4533007,43.625865 77.4533007,43.625865 77.4097289,43.148588 C77.3661571,41.2828689 77.2790136,38.7229287 77.8018749,36.8572097 C78.4339236,34.7855326 79.4377715,32.8450692 80.7647556,31.1298859 L93.4005704,12.9065831 C93.6620011,12.5160838 96.0584487,9.26192257 99.8491931,8.04703572 C103.639938,6.83214887 106.689962,6.83214887 109.914273,8.09042454 C112.441436,9.04497849 116.493611,11.5615298 118.933631,13.0367496 L120.15364,13.7743595 C121.765796,14.7723022 167.777591,41.7167571 168.25688,41.97709 L168.300452,41.97709 C168.655472,42.199328 169.058969,42.3332621 169.47689,42.3675893 L169.781892,42.194034 C169.757565,42.0021018 169.71377,41.8131183 169.651177,41.6299794 C169.128316,39.9812044 165.599002,30.2621096 165.55543,30.175332 C165.559477,30.1278253 165.54372,30.0807528 165.511858,30.0451655 C165.511858,30.0451655 165.076141,28.743501 163.986846,28.4397793 L163.725416,28.3530017 C161.023966,27.572003 157.363936,26.4872826 155.621065,24.1442865 C153.878194,21.8012904 152.832472,17.9396858 153.747479,15.1628016 C154.662486,12.3859173 156.928219,9.52225547 159.586097,8.65447915 C162.243975,7.78670282 163.725416,7.61314756 167.211158,8.74125678 L184.770583,14.598747 L184.94487,14.598747 C185.119157,14.6855246 189.519907,16.5078549 191.654924,20.2826819 C193.789941,24.0575089 193.484938,25.4893398 193.484938,28.04928 L193.484938,29.0472227 C193.52851,32.0410511 193.354223,46.0122499 193.354223,46.923415 C193.354223,47.8345801 193.354223,51.652796 192.177785,53.995792 C191.00343,56.4808617 189.183177,58.6080566 186.9056,60.1570039 C184.422009,61.7623901 181.981989,62.4566112 178.757678,62.4566112 L176.056228,62.5 Z M38.0208441,58.0743408 L178.714106,58.0743408 C181.5027,58.0309519 182.98414,57.4235085 184.509152,56.4689546 C186.121889,55.3348972 187.40062,53.7918815 188.212753,51.9999065 C188.779186,50.8717973 188.953474,48.094913 188.909902,46.923415 C188.953474,46.7932486 189.084189,32.1278287 189.040617,29.1340004 L189.040617,28.04928 C189.040617,25.7496727 189.040617,24.7951188 187.777036,22.5389003 C186.513454,20.2826819 183.72486,18.9810174 183.289143,18.8074621 L165.860433,13.1235272 C163.33327,12.2991397 162.679693,12.4293062 160.980394,12.9933608 C159.281095,13.5574154 158.322516,15.5966897 157.973941,16.724799 C157.625367,17.8529082 158.278944,20.4562371 159.193951,21.7145128 C160.108958,22.9727885 163.115411,23.7537872 164.988997,24.274453 L165.250428,24.3612306 C168.431167,25.3157846 169.564034,28.2662241 169.738321,28.9170563 C169.912608,29.5678885 173.311206,38.7663176 173.877639,40.5018702 C174.923362,43.7126426 173.224063,45.4915841 171.655479,46.4027492 C169.302603,47.7478025 166.601153,46.2725828 165.991148,45.8820834 C163.768987,44.5804189 119.500064,18.6772957 117.887908,17.6793529 L116.624327,16.941743 C114.445738,15.5966897 110.437135,13.1235272 108.302118,12.2991397 C106.167101,11.4747522 103.988512,11.4747522 101.199918,12.3425285 C98.4113246,13.2103048 97.0170277,15.5533009 97.0170277,15.5533009 C96.58131,16.2041332 85.6447944,31.9976622 84.3376411,33.8199925 C83.2945638,35.1306227 82.5243117,36.6351578 82.0719088,38.2456518 C81.7233346,39.4171498 81.8104782,41.6299794 81.85405,43.1051992 C81.85405,43.6692538 81.8976217,44.1899196 81.8976217,44.5804189 C81.85405,46.7932486 80.9826145,48.1383019 79.6318894,49.6135216 C78.2811644,51.0887414 75.1004248,51.7829624 74.7954224,51.7829624 L74.664707,51.7829624 L62.5517535,51.6961848 C58.7358441,51.6577025 54.9578389,50.9376052 51.3973791,49.5701328 C48.1294959,48.3552459 44.2951797,45.7953058 44.1208926,45.7085281 L31.6593649,37.3778754 C30.0036374,36.2497662 29.2193455,35.6857116 28.7400559,34.9914906 C27.535905,33.2580563 27.1390558,31.0924547 27.6507615,29.0472227 C28.2171946,26.4872826 30.3957834,24.8818964 32.2693697,24.2310641 C32.5743721,24.1442865 33.4893794,23.797176 38.1079876,23.9273424 C38.8487078,23.9273424 53.6195396,23.8839536 56.5824203,23.9273424 C59.545301,23.9707313 60.8088825,23.797176 63.1181866,22.8860108 C65.122342,22.0561776 66.8780487,20.726248 68.2160843,19.0244062 C69.0875198,17.896297 70.8739626,13.9479147 69.0875198,11.3879746 C67.301077,8.82803441 65.4274907,8.91481204 65.16606,8.91481204 L64.9917729,8.91481204 C64.6867705,8.91481204 35.4936811,8.87142323 33.0536617,8.95820086 C31.0791325,9.00849831 29.118267,9.2999359 27.2150438,9.82597718 L26.4743236,9.99953245 C25.6464599,10.1730877 25.0800268,10.3032542 21.7250001,11.7350851 C18.8904713,12.945694 16.3716633,14.7860531 14.3613701,17.1152983 C13.1421382,18.6259487 12.2117147,20.3466224 11.6163483,22.1917898 C10.8320563,24.4480082 10.6577692,26.5740602 11.1370587,28.4831681 C11.6535913,30.9605888 12.8793785,33.2361029 14.6663725,35.0348794 C16.4963871,36.9873761 19.5028396,38.0720965 19.5464113,38.0720965 L19.5899831,38.0720965 C19.8949856,38.1588741 26.6050389,40.7622031 29.1322019,41.8469235 C31.6593649,42.9316439 33.184377,44.8841406 34.0558125,46.5329157 L34.0558125,46.6196933 C35.2322504,48.7457453 35.2758222,51.0019637 35.1451069,53.1714045 C35.0143916,55.3408453 35.1451069,55.9482888 35.9729706,57.0330092 C36.8008343,58.1177296 37.846557,58.0309519 38.0208441,58.0743408 Z" id="Shape" fill="#B7B5B6" fill-rule="nonzero"></path>
                    <path d="M52.8704672,38.5083135 C52.9982738,38.5512076 53.040876,38.7656779 52.9556716,38.9801483 L48.013817,52.1915229 C47.9286126,52.4059933 47.7582038,52.5346755 47.6303973,52.4917814 C47.4966489,52.3734904 47.4613596,52.178069 47.5451929,52.0199466 L52.4870475,38.7656779 C52.6148541,38.5941017 52.7852629,38.4654194 52.8704672,38.5083135 Z" id="Shape" fill="#AC1737" fill-rule="nonzero"></path>
                    <path d="M159.939065,32.0077973 C160.034147,32.16051 160.016517,32.3601588 159.896243,32.4927172 L150.98916,43.8222099 C150.95298,43.9017991 150.885555,43.9617346 150.803795,43.9869848 C150.722036,44.0122349 150.633697,44.0004046 150.560935,43.9544608 C150.465853,43.801748 150.483483,43.6020992 150.603757,43.4695408 L159.51084,32.1841318 C159.608016,32.0444825 159.775142,31.9756634 159.939065,32.0077973 Z" id="Shape" fill="#AC1737" fill-rule="nonzero"></path>
                    <path d="M21.3923537,35.0036765 C21.5272557,35.0910974 21.5272557,35.2659393 21.4373211,35.4844916 L14.5123522,48.2479477 C14.4224176,48.4665 14.2425482,48.5539209 14.1076463,48.4665 C13.9727443,48.3790791 13.9727443,48.2042372 14.0626789,48.0293953 L20.9426804,35.2222288 C21.0327627,35.0671252 21.2106536,34.9806659 21.3923537,35.0036765 Z" id="Shape" fill="#AC1737" fill-rule="nonzero"></path>
                    <path d="M73.2272727,54 C73.4090909,54 73.5,54.1724138 73.5,54.387931 L73.5,68.612069 C73.5,68.8275862 73.4090909,69 73.2727273,69 C73.1363636,69 73,68.8275862 73,68.612069 L73,54.387931 C73,54.1724138 73.1363636,54 73.2272727,54 Z" id="Shape" fill="#AC1737" fill-rule="nonzero"></path>
                    <path d="M109.48125,66.173913 L110.53125,66.173913 C111.625,66.173913 112.5,67.5217391 112.5,69.173913 L112.5,71.0434783 C112.5,72.6521739 111.625,74 110.53125,74 L107.5125,74 C106.41875,74 105.5,72.6521739 105.5,71.0434783 L105.5,69.173913 C105.5,67.5217391 106.375,66.173913 107.5125,66.173913 L109,66.173913 L109,54.3913043 C109,54.173913 109.13125,54 109.21875,54 C109.39375,54 109.48125,54.173913 109.48125,54.3913043 L109.48125,66.173913 Z" id="Combined-Shape" fill="#AC1737" fill-rule="nonzero"></path>
                    <path d="M126,67.5391852 C126.011377,66.7213505 126.336461,65.9416967 126.903719,65.3717823 C127.470977,64.8018678 128.233929,64.4883904 129.024691,64.5003289 L133.561728,64.5003289 C135.184491,64.5003289 136.5,65.8608712 136.5,67.5391852 L136.5,69.4608148 C136.5,71.1391288 135.184491,72.4996711 133.561728,72.4996711 L129.024691,72.4996711 C128.233929,72.5116096 127.470977,72.1981322 126.903719,71.6282177 C126.336461,71.0583033 126.011377,70.2786495 126,69.4608148 L126,67.5391852 Z" id="Shape" fill="#AC1737" fill-rule="nonzero"></path>
                    <polygon id="Shape" fill="#FFFFFF" fill-rule="nonzero" points="129 67 131 67 131 67.4520548 129.577778 67.4520548 129.577778 68.2739726 130.777778 68.2739726 130.777778 68.7260274 129.577778 68.7260274 129.577778 70 129 70"></polygon>
                    <polygon id="Shape" fill="#FFFFFF" fill-rule="nonzero" points="131.5 67 132.090909 67 132.090909 69.5945946 133.5 69.5945946 133.5 70 131.5 70"></polygon>
                    <path d="M130.909091,54.0027147 C131.013132,53.9902504 131.117768,54.0210912 131.196144,54.0873216 C131.274519,54.1535521 131.319005,54.2487239 131.318182,54.3484109 L131.5,68.6083771 C131.5,68.711522 131.456899,68.8104423 131.38018,68.8833767 C131.303461,68.9563111 131.199407,68.9972853 131.090909,68.9972853 C130.986868,69.0097496 130.882232,68.9789088 130.803856,68.9126784 C130.725481,68.8464479 130.680995,68.7512761 130.681818,68.6515891 L130.5,54.3916229 C130.535616,54.1925343 130.69967,54.0365737 130.909091,54.0027147 Z" id="Shape" fill="#AC1737" fill-rule="nonzero"></path>
                    <polygon id="Shape" fill="#AC1737" fill-rule="nonzero" points="125 55.5 122.5 54.0405405 125 52.5 125 53.7162162"></polygon>
                    <rect id="Rectangle-path" fill="#AC1737" fill-rule="nonzero" x="124.5" y="54" width="6.5" height="1"></rect>
                    <path d="M144.5,43.5666667 C144.5,41.8777778 145.521277,40.5 146.797872,40.5 L150.244681,40.5 C151.478723,40.5 152.5,41.8777778 152.5,43.5666667 L152.5,45.4777778 C152.5,47.1666667 151.478723,48.5 150.244681,48.5 L146.797872,48.5 C145.521277,48.5 144.5,47.1666667 144.5,45.4777778 L144.5,43.5666667 Z" id="Shape" fill="#AC1737" fill-rule="nonzero"></path>
                    <path d="M146.500009,42.8503183 C146.500009,42.6330754 146.710531,42.5027296 147.026313,42.5027296 C147.146779,42.490197 147.267933,42.5212066 147.358683,42.5877997 C147.449432,42.6543927 147.50094,42.7500856 147.499987,42.8503183 C147.499987,43.0662823 147.287916,43.2413557 147.026313,43.2413557 C146.891849,43.2537687 146.757372,43.2181182 146.656803,43.1433962 C146.556233,43.0686742 146.499171,42.9620142 146.500009,42.8503183 Z M146.60527,43.7192902 L147.394726,43.7192902 L147.394726,46.5 L146.60527,46.5 L146.60527,43.7192902 Z" id="Shape" fill="#FFFFFF" fill-rule="nonzero"></path>
                    <path d="M148,45.5837708 L148.307011,45.1726013 C148.530388,45.4067398 148.849115,45.5412011 149.184184,45.5426538 C149.578911,45.5426538 149.842063,45.3370691 149.842063,45.0492505 C149.842063,44.7614319 149.578911,44.4736133 148.789456,44.4736133 L148.789456,44.0213269 C149.491194,44.0213269 149.710487,43.7746253 149.710487,43.4456897 C149.71105,43.3182599 149.654246,43.1965199 149.554046,43.1104117 C149.453847,43.0243036 149.319549,42.9818176 149.184184,42.9934033 C148.897035,42.9985448 148.625839,43.1181888 148.438587,43.3223389 L148.087717,42.9522864 C148.387325,42.6884722 148.774297,42.528848 149.184184,42.5 C149.885922,42.5 150.368367,42.8289355 150.368367,43.4045728 C150.399757,43.7719906 150.137972,44.1050614 149.754346,44.1857947 C150.186826,44.2472805 150.504888,44.5980797 150.499943,45.0081336 C150.499943,45.6660047 149.929781,45.9949402 149.228042,45.9949402 C148.774623,46.0301583 148.327038,45.880299 148,45.5837708 Z" id="Shape" fill="#FFFFFF" fill-rule="nonzero"></path>
                    <path d="M69.5,69.0666667 C69.5,67.3777778 70.375,66 71.5125,66 L74.53125,66 C75.625,66 76.5,67.3777778 76.5,69.0666667 L76.5,70.9777778 C76.5,72.6222222 75.625,74 74.53125,74 L71.5125,74 C70.41875,74 69.5,72.6222222 69.5,70.9777778 L69.5,69.0666667 Z" id="Shape" fill="#AC1737" fill-rule="nonzero"></path>
                    <path d="M72,71.9555954 L72.3628645,71.4566334 C72.59447,71.7324539 72.9128667,71.895278 73.2498665,71.9102353 C73.6530493,71.9102353 73.8546406,71.7287945 73.8546406,71.4112732 C73.8546406,71.0937519 73.6530493,71.0030316 73.3305031,70.866951 L72.8466838,70.6401501 C72.4465015,70.4882824 72.1729066,70.0718354 72.1612731,69.5968658 C72.1813342,69.2750296 72.3177109,68.9764902 72.5386336,68.7707939 C72.7595564,68.5650976 73.0457351,68.4702048 73.3305031,68.5082214 C73.7257373,68.507033 74.1043104,68.6872277 74.3787782,69.0071834 L74.056232,69.4607853 C73.8686572,69.2331848 73.6063599,69.10203 73.3305031,69.0979038 C73.0079569,69.0979038 72.7660472,69.2793445 72.7660472,69.5515056 C72.7660472,69.8236667 73.0482751,69.9597473 73.3305031,70.0958278 L73.7740041,70.3226288 C74.2063136,70.4308034 74.5102965,70.8677993 74.499733,71.365913 C74.499733,72.0009556 74.0159137,72.4999177 73.2498665,72.4999177 C72.7867644,72.5045946 72.3396032,72.309854 72,71.9555954 Z" id="Shape" fill="#FFFFFF" fill-rule="nonzero"></path>
                    <path d="M49,38.0666667 C49,36.3777778 50.0212766,35 51.2978723,35 L54.7446809,35 C56.0212766,35 57,36.3777778 57,38.0666667 L57,39.9777778 C57,41.6222222 56.0212766,43 54.7446809,43 L51.2978723,43 C50.0212766,43 49,41.6222222 49,39.9777778 L49,38.0666667 Z" id="Shape" fill="#AC1737" fill-rule="nonzero"></path>
                    <path d="M51.5,37 C51.5,36.7238576 51.7238576,36.5 52,36.5 C52.2761424,36.5 52.5,36.7238576 52.5,37 C52.5,37.2761424 52.2761424,37.5 52,37.5 C51.7238576,37.5 51.5,37.2761424 51.5,37 Z" id="Shape" fill="#FFFFFF" fill-rule="nonzero"></path>
                    <rect id="Rectangle-path" fill="#FFFFFF" fill-rule="nonzero" x="51.5" y="37.5" width="1" height="3"></rect>
                    <path d="M53.0438596,40.0886497 C54.0526316,39.1836791 54.6666667,38.5666537 54.6666667,38.0730333 C54.6666667,37.579413 54.4912281,37.4971429 54.0964912,37.4971429 C53.8124351,37.5066282 53.5508867,37.6446098 53.3947368,37.8673582 L53,37.538278 C53.2758552,37.1869839 53.7193756,36.9867028 54.1842105,37.0035226 C54.4860401,36.9795575 54.7842483,37.0787019 55.0025953,37.2756086 C55.2209422,37.4725154 55.3382623,37.748097 55.3245614,38.0318983 C55.3245614,38.6489237 54.7105263,39.2659492 54.0087719,39.9652446 L55.5,39.9652446 L55.5,40.5 L53.0438596,40.5 L53.0438596,40.0886497 Z" id="Shape" fill="#FFFFFF" fill-rule="nonzero"></path>
                    <path d="M10,47.5222222 C10,45.8777778 11.015873,44.5 12.2857143,44.5 L15.7566138,44.5 C16.984127,44.5 18,45.8777778 18,47.5222222 L18,49.4333333 C18,51.1222222 16.984127,52.5 15.7566138,52.5 L12.2857143,52.5 C11.0582011,52.5 10,51.1222222 10,49.4333333 L10,47.5222222 Z" id="Shape" fill="#AC1737" fill-rule="nonzero"></path>
                    <path d="M12.5000091,46.3934915 C12.499171,46.2817871 12.556233,46.1751189 12.6568027,46.1003912 C12.7573724,46.0256635 12.8918487,45.9900103 13.0263133,46.0024243 C13.2879161,46.0024243 13.499987,46.177511 13.499987,46.3934915 C13.5009398,46.4937319 13.4494318,46.589432 13.3586826,46.6560302 C13.2679335,46.7226283 13.1467787,46.7536403 13.0263133,46.7411067 C12.7105308,46.7411067 12.5000091,46.610751 12.5000091,46.3934915 Z M12.6052699,47.2190778 L13.3947262,47.2190778 L13.3947262,50 L12.6052699,50 L12.6052699,47.2190778 Z" id="Shape" fill="#FFFFFF" fill-rule="nonzero"></path>
                    <path d="M14,49.4878049 L14.76,49.4878049 L14.76,47.1829268 L14.12,47.1829268 L14.12,46.7560976 C14.3886297,46.735403 14.6489511,46.6476824 14.88,46.5 L15.36,46.5 L15.36,49.4878049 L16,49.4878049 L16,50 L14,50 L14,49.4878049 Z" id="Shape" fill="#FFFFFF" fill-rule="nonzero"></path>
                    <path d="M192.5,60.9157303 L193.425926,60.9157303 L193.425926,58.3089888 L192.685185,58.3089888 L192.685185,57.8595506 C193.01879,57.8125319 193.336132,57.6893033 193.611111,57.5 L194.166667,57.5 L194.166667,60.9157303 L195,60.9157303 L195,61.5 L192.5,61.5 L192.5,60.9157303 Z" id="Shape" fill="#7B7C7D" fill-rule="nonzero"></path>
                    <path d="M196.772727,59.0280899 C196.772727,58.8033708 196.818182,58.4438202 196.818182,58.1741573 L196.454545,58.8033708 L195.727273,59.9269663 L198,59.9269663 L198,60.511236 L195,60.511236 L195,60.0168539 L196.636364,57.5 L197.5,57.5 L197.5,61.5 L196.772727,61.5 L196.772727,59.0280899 Z" id="Shape" fill="#7B7C7D" fill-rule="nonzero"></path>
                    <path d="M107,72.0188319 L107,69 L107.53545,69 L107.53545,71.5664687 L108.786373,71.5664687 L108.786373,72.0188319 L107,72.0188319 Z M109.358751,72.0188319 L109.358751,69.4523632 L108.486336,69.4523632 L108.486336,69 L110.762,69 L110.762,69.4523632 L109.894201,69.4523632 L109.894201,72.0188319 L109.358751,72.0188319 Z" id="LT" fill="#FFFFFF"></path>
                </g>
            </g>
        </g>
    </g>
</svg>