<?xml version="1.0" encoding="utf-8"?>
<!-- Generator: Adobe Illustrator 25.3.1, SVG Export Plug-In . SVG Version: 6.00 Build 0)  -->
<svg version="1.1" id="Layer_1" xmlns="http://www.w3.org/2000/svg" xmlns:xlink="http://www.w3.org/1999/xlink" x="0px" y="0px"
	 viewBox="0 0 1293 974" style="enable-background:new 0 0 1293 974;" xml:space="preserve">
<style type="text/css">
	.st0{fill:#333333;stroke:#333333;stroke-miterlimit:3.8637;}
	.st1{fill:#5D5D5D;}
	.st2{fill:#AA1920;}
	.st3{fill:#349211;stroke:#343433;stroke-miterlimit:10;}
	.st4{fill:none;stroke:#343433;stroke-miterlimit:10;}
	.st5{clip-path:url(#SVGID_2_);}
	.st6{fill:url(#SVGID_3_);}
	.st7{fill:url(#SVGID_4_);}
	.st8{fill:url(#SVGID_5_);}
	.st9{fill:url(#SVGID_6_);}
	.st10{fill:url(#SVGID_7_);}
	.st11{fill:url(#SVGID_8_);}
	.st12{fill:url(#SVGID_9_);}
	.st13{fill:url(#SVGID_10_);}
	.st14{fill:url(#SVGID_11_);}
	.st15{fill:url(#SVGID_12_);}
	.st16{fill:url(#SVGID_13_);}
	.st17{fill:url(#SVGID_14_);}
	.st18{fill:url(#SVGID_15_);}
	.st19{fill:url(#SVGID_16_);}
	.st20{fill:url(#SVGID_17_);}
	.st21{fill:url(#SVGID_18_);}
	.st22{fill:url(#SVGID_19_);}
	.st23{fill:url(#SVGID_20_);}
	.st24{fill:url(#SVGID_21_);}
	.st25{fill:url(#SVGID_22_);}
	.st26{fill:none;stroke:#333333;stroke-miterlimit:10;}
	.st27{fill:#AC1737;}
	.st28{fill:#FFFFFF;}
	.st29{font-family:'Arial-BoldMT';}
	.st30{font-size:48.0769px;}
	.st31{fill:#B7B5B6;}
	.st32{font-size:38.4615px;}
	.st33{fill:none;stroke:#AC1737;stroke-miterlimit:10;}
	.st34{fill-rule:evenodd;clip-rule:evenodd;fill:#AC1737;}
	.st35{font-size:31.833px;}
	.st36{letter-spacing:1;}
	.st37{font-size:43.792px;}
	.st38{fill:none;stroke:#991915;stroke-miterlimit:3.8637;}
	.st39{font-size:37.7696px;}
</style>
<rect x="338.2" y="835.1" class="st0" width="216.6" height="25.4"/>
<path class="st1" d="M501.7,816.3h46.1c4.1,0,7.5,3.3,7.5,7.5v43.8c0,4.1-3.3,7.5-7.5,7.5h-46.1c-4.1,0-7.5-3.3-7.5-7.5v-43.8
	C494.2,819.7,497.6,816.3,501.7,816.3z"/>
<path class="st1" d="M547.8,816.8c3.9,0,7,3.1,7,7v43.8c0,3.9-3.1,7-7,7h-46.1c-3.9,0-7-3.1-7-7v-43.8c0-3.9,3.1-7,7-7H547.8
	 M547.8,815.8h-46.1c-4.4,0-8,3.6-8,8v43.8c0,4.4,3.6,8,8,8h46.1c4.4,0,8-3.6,8-8v-43.8C555.8,819.4,552.3,815.8,547.8,815.8z"/>
<path class="st1" d="M345.2,816.3h46.1c4.1,0,7.5,3.3,7.5,7.5v43.8c0,4.1-3.3,7.5-7.5,7.5h-46.1c-4.1,0-7.5-3.3-7.5-7.5v-43.8
	C337.8,819.7,341.1,816.3,345.2,816.3z"/>
<path class="st1" d="M391.4,816.8c3.9,0,7,3.1,7,7v43.8c0,3.9-3.1,7-7,7h-46.1c-3.9,0-7-3.1-7-7v-43.8c0-3.9,3.1-7,7-7H391.4
	 M391.4,815.8h-46.1c-4.4,0-8,3.6-8,8v43.8c0,4.4,3.6,8,8,8h46.1c4.4,0,8-3.6,8-8v-43.8C399.4,819.4,395.8,815.8,391.4,815.8z"/>
<path class="st1" d="M423.8,816.3h46.1c4.1,0,7.5,3.3,7.5,7.5v43.8c0,4.1-3.3,7.5-7.5,7.5h-46.1c-4.1,0-7.5-3.3-7.5-7.5v-43.8
	C416.3,819.7,419.7,816.3,423.8,816.3z"/>
<path class="st1" d="M469.9,816.8c3.9,0,7,3.1,7,7v43.8c0,3.9-3.1,7-7,7h-46.1c-3.9,0-7-3.1-7-7v-43.8c0-3.9,3.1-7,7-7H469.9
	 M469.9,815.8h-46.1c-4.4,0-8,3.6-8,8v43.8c0,4.4,3.6,8,8,8h46.1c4.4,0,8-3.6,8-8v-43.8C477.9,819.4,474.3,815.8,469.9,815.8z"/>
<path class="st2" d="M391.2,846c0,12.5-10.1,22.7-22.7,22.7c-12.5,0-22.7-10.1-22.7-22.7c0-12.5,10.1-22.7,22.7-22.7l0,0
	C381.1,823.3,391.2,833.5,391.2,846z"/>
<path class="st3" d="M469.8,846c0,12.5-10.1,22.7-22.7,22.7c-12.5,0-22.7-10.1-22.7-22.7c0-12.5,10.1-22.7,22.7-22.7l0,0
	C459.6,823.3,469.8,833.5,469.8,846z"/>
<path class="st4" d="M547.7,846c0,12.5-10.1,22.7-22.7,22.7c-12.5,0-22.7-10.1-22.7-22.7c0-12.5,10.1-22.7,22.7-22.7c0,0,0,0,0,0
	C537.6,823.3,547.7,833.5,547.7,846z"/>
<g>
	<defs>
		<path id="SVGID_1_" d="M547.7,846c0,12.5-10.1,22.7-22.7,22.7c-12.5,0-22.7-10.1-22.7-22.7c0-12.5,10.1-22.7,22.7-22.7
			c0,0,0,0,0,0C537.6,823.3,547.7,833.5,547.7,846z"/>
	</defs>
	<clipPath id="SVGID_2_">
		<use xlink:href="#SVGID_1_"  style="overflow:visible;"/>
	</clipPath>
	<g class="st5">
		
			<linearGradient id="SVGID_3_" gradientUnits="userSpaceOnUse" x1="498.1425" y1="139.5475" x2="509.0975" y2="150.5025" gradientTransform="matrix(1 0 0 -1 0 974)">
			<stop  offset="0" style="stop-color:#EDEDEC"/>
			<stop  offset="1" style="stop-color:#C7C6C6"/>
		</linearGradient>
		<rect x="498.3" y="823.3" class="st6" width="10.6" height="11.3"/>
		
			<linearGradient id="SVGID_4_" gradientUnits="userSpaceOnUse" x1="508.7249" y1="139.5449" x2="519.675" y2="150.5051" gradientTransform="matrix(1 0 0 -1 0 974)">
			<stop  offset="0" style="stop-color:#525252"/>
			<stop  offset="1" style="stop-color:#000100"/>
		</linearGradient>
		<rect x="508.9" y="823.3" class="st7" width="10.6" height="11.3"/>
		
			<linearGradient id="SVGID_5_" gradientUnits="userSpaceOnUse" x1="519.3125" y1="139.5475" x2="530.2675" y2="150.5025" gradientTransform="matrix(1 0 0 -1 0 974)">
			<stop  offset="0" style="stop-color:#EDEDEC"/>
			<stop  offset="1" style="stop-color:#C7C6C6"/>
		</linearGradient>
		<rect x="519.5" y="823.3" class="st8" width="10.6" height="11.3"/>
		
			<linearGradient id="SVGID_6_" gradientUnits="userSpaceOnUse" x1="529.8925" y1="139.5475" x2="540.8475" y2="150.5025" gradientTransform="matrix(1 0 0 -1 0 974)">
			<stop  offset="0" style="stop-color:#525252"/>
			<stop  offset="1" style="stop-color:#000100"/>
		</linearGradient>
		<rect x="530.1" y="823.3" class="st9" width="10.6" height="11.3"/>
		
			<linearGradient id="SVGID_7_" gradientUnits="userSpaceOnUse" x1="540.4725" y1="139.5475" x2="551.4275" y2="150.5025" gradientTransform="matrix(1 0 0 -1 0 974)">
			<stop  offset="0" style="stop-color:#EDEDEC"/>
			<stop  offset="1" style="stop-color:#C7C6C6"/>
		</linearGradient>
		<rect x="540.7" y="823.3" class="st10" width="10.6" height="11.3"/>
		
			<linearGradient id="SVGID_8_" gradientUnits="userSpaceOnUse" x1="498.1425" y1="128.2075" x2="509.0975" y2="139.1625" gradientTransform="matrix(1 0 0 -1 0 974)">
			<stop  offset="0" style="stop-color:#525252"/>
			<stop  offset="1" style="stop-color:#000100"/>
		</linearGradient>
		<rect x="498.3" y="834.7" class="st11" width="10.6" height="11.3"/>
		
			<linearGradient id="SVGID_9_" gradientUnits="userSpaceOnUse" x1="508.7249" y1="128.2049" x2="519.6751" y2="139.1651" gradientTransform="matrix(1 0 0 -1 0 974)">
			<stop  offset="0" style="stop-color:#EDEDEC"/>
			<stop  offset="1" style="stop-color:#C7C6C6"/>
		</linearGradient>
		<rect x="508.9" y="834.7" class="st12" width="10.6" height="11.3"/>
		
			<linearGradient id="SVGID_10_" gradientUnits="userSpaceOnUse" x1="519.3125" y1="128.2075" x2="530.2675" y2="139.1625" gradientTransform="matrix(1 0 0 -1 0 974)">
			<stop  offset="0" style="stop-color:#525252"/>
			<stop  offset="1" style="stop-color:#000100"/>
		</linearGradient>
		<rect x="519.5" y="834.7" class="st13" width="10.6" height="11.3"/>
		
			<linearGradient id="SVGID_11_" gradientUnits="userSpaceOnUse" x1="529.8925" y1="128.2075" x2="540.8475" y2="139.1625" gradientTransform="matrix(1 0 0 -1 0 974)">
			<stop  offset="0" style="stop-color:#EDEDEC"/>
			<stop  offset="1" style="stop-color:#C7C6C6"/>
		</linearGradient>
		<rect x="530.1" y="834.7" class="st14" width="10.6" height="11.3"/>
		
			<linearGradient id="SVGID_12_" gradientUnits="userSpaceOnUse" x1="540.4725" y1="128.2075" x2="551.4275" y2="139.1625" gradientTransform="matrix(1 0 0 -1 0 974)">
			<stop  offset="0" style="stop-color:#525252"/>
			<stop  offset="1" style="stop-color:#000100"/>
		</linearGradient>
		<rect x="540.7" y="834.7" class="st15" width="10.6" height="11.3"/>
		
			<linearGradient id="SVGID_13_" gradientUnits="userSpaceOnUse" x1="498.14" y1="116.87" x2="509.1" y2="127.83" gradientTransform="matrix(1 0 0 -1 0 974)">
			<stop  offset="0" style="stop-color:#EDEDEC"/>
			<stop  offset="1" style="stop-color:#C7C6C6"/>
		</linearGradient>
		<rect x="498.3" y="846" class="st16" width="10.6" height="11.3"/>
		
			<linearGradient id="SVGID_14_" gradientUnits="userSpaceOnUse" x1="508.7224" y1="116.8674" x2="519.6776" y2="127.8326" gradientTransform="matrix(1 0 0 -1 0 974)">
			<stop  offset="0" style="stop-color:#525252"/>
			<stop  offset="1" style="stop-color:#000100"/>
		</linearGradient>
		<rect x="508.9" y="846" class="st17" width="10.6" height="11.3"/>
		
			<linearGradient id="SVGID_15_" gradientUnits="userSpaceOnUse" x1="519.31" y1="116.87" x2="530.27" y2="127.83" gradientTransform="matrix(1 0 0 -1 0 974)">
			<stop  offset="0" style="stop-color:#EDEDEC"/>
			<stop  offset="1" style="stop-color:#C7C6C6"/>
		</linearGradient>
		<rect x="519.5" y="846" class="st18" width="10.6" height="11.3"/>
		
			<linearGradient id="SVGID_16_" gradientUnits="userSpaceOnUse" x1="529.89" y1="116.87" x2="540.85" y2="127.83" gradientTransform="matrix(1 0 0 -1 0 974)">
			<stop  offset="0" style="stop-color:#525252"/>
			<stop  offset="1" style="stop-color:#000100"/>
		</linearGradient>
		<rect x="530.1" y="846" class="st19" width="10.6" height="11.3"/>
		
			<linearGradient id="SVGID_17_" gradientUnits="userSpaceOnUse" x1="540.47" y1="116.87" x2="551.43" y2="127.83" gradientTransform="matrix(1 0 0 -1 0 974)">
			<stop  offset="0" style="stop-color:#EDEDEC"/>
			<stop  offset="1" style="stop-color:#C7C6C6"/>
		</linearGradient>
		<rect x="540.7" y="846" class="st20" width="10.6" height="11.3"/>
		
			<linearGradient id="SVGID_18_" gradientUnits="userSpaceOnUse" x1="498.1425" y1="105.5375" x2="509.0975" y2="116.4925" gradientTransform="matrix(1 0 0 -1 0 974)">
			<stop  offset="0" style="stop-color:#525252"/>
			<stop  offset="1" style="stop-color:#000100"/>
		</linearGradient>
		<rect x="498.3" y="857.3" class="st21" width="10.6" height="11.3"/>
		
			<linearGradient id="SVGID_19_" gradientUnits="userSpaceOnUse" x1="508.7225" y1="105.5375" x2="519.6775" y2="116.4925" gradientTransform="matrix(1 0 0 -1 0 974)">
			<stop  offset="0" style="stop-color:#EDEDEC"/>
			<stop  offset="1" style="stop-color:#C7C6C6"/>
		</linearGradient>
		<rect x="508.9" y="857.3" class="st22" width="10.6" height="11.3"/>
		
			<linearGradient id="SVGID_20_" gradientUnits="userSpaceOnUse" x1="519.3125" y1="105.5375" x2="530.2675" y2="116.4925" gradientTransform="matrix(1 0 0 -1 0 974)">
			<stop  offset="0" style="stop-color:#525252"/>
			<stop  offset="1" style="stop-color:#000100"/>
		</linearGradient>
		<rect x="519.5" y="857.3" class="st23" width="10.6" height="11.3"/>
		
			<linearGradient id="SVGID_21_" gradientUnits="userSpaceOnUse" x1="529.8901" y1="105.54" x2="540.8499" y2="116.4899" gradientTransform="matrix(1 0 0 -1 0 974)">
			<stop  offset="0" style="stop-color:#EDEDEC"/>
			<stop  offset="1" style="stop-color:#C7C6C6"/>
		</linearGradient>
		<rect x="530.1" y="857.3" class="st24" width="10.6" height="11.3"/>
		
			<linearGradient id="SVGID_22_" gradientUnits="userSpaceOnUse" x1="540.47" y1="105.5401" x2="551.4299" y2="116.4899" gradientTransform="matrix(1 0 0 -1 0 974)">
			<stop  offset="0" style="stop-color:#525252"/>
			<stop  offset="1" style="stop-color:#000100"/>
		</linearGradient>
		<rect x="540.7" y="857.3" class="st25" width="10.6" height="11.3"/>
	</g>
</g>
<path class="st26" d="M547.7,846c0,12.5-10.1,22.7-22.7,22.7c-12.5,0-22.7-10.1-22.7-22.7c0-12.5,10.1-22.7,22.7-22.7c0,0,0,0,0,0
	C537.6,823.3,547.7,833.5,547.7,846z"/>
<path class="st27" d="M398.8,764.8c0-14,11.3-25.3,25.4-25.3c0,0,0,0,0,0H463c14,0,25.4,11.3,25.4,25.3c0,0,0,0,0,0v15.9
	c0,14-11.4,25.3-25.4,25.3h-38.8c-14,0-25.4-11.3-25.4-25.3c0,0,0,0,0,0L398.8,764.8L398.8,764.8z"/>
<text transform="matrix(1 0 0 1 415.96 789.92)" class="st28 st29 st30">FL</text>
<text transform="matrix(1 0 0 1 92.47 697.67)" class="st31 st29 st32">1</text>
<text transform="matrix(1 0 0 1 217.46 554.45)" class="st31 st29 st32">2</text>
<text transform="matrix(1 0 0 1 580.31 457.42)" class="st31 st29 st32">3</text>
<text transform="matrix(1 0 0 1 424.45 327.62)" class="st31 st29 st32">4</text>
<text transform="matrix(1 0 0 1 679.25 132.21)" class="st31 st29 st32">5</text>
<text transform="matrix(1 0 0 1 692.99 246.91)" class="st31 st29 st32">6</text>
<text transform="matrix(1 0 0 1 630.49 361.75)" class="st31 st29 st32">7</text>
<text transform="matrix(1 0 0 1 867.11 374.87)" class="st31 st29 st32">8</text>
<text transform="matrix(1 0 0 1 847.51 237.52)" class="st31 st29 st32">9</text>
<text transform="matrix(1 0 0 1 1155.6801 517.67)" class="st31 st29 st32">10</text>
<text transform="matrix(1 0 0 1 896.12 457.86)" class="st31 st29 st32">11</text>
<text transform="matrix(1 0 0 1 961.83 592.55)" class="st31 st29 st32">12</text>
<text transform="matrix(1 0 0 1 547.73 568.4694)" class="st31 st29 st32">13</text>
<text transform="matrix(1 0 0 1 620.0828 719.4503)" class="st31 st29 st32">14</text>
<path class="st31" d="M252,719.5c-27.1,0-51.5-0.2-63.4-0.6c-13.5-0.4-26.3-6.5-35-16.8c-16.5-19.2-19.6-50.8-17.2-72
	c3.8-34.5,52.8-52.3,86.4-53.9c25.3-1.2,43.3-4.6,55-10.5c13-6.5,188.6-92.6,215-105.5c24-11.7,34.1-19.6,35.1-27.4
	c0.5-3.6-14-17.4-21.8-24.8c-6.5-6.2-14-13.2-21.8-21.4c-12.1-12.7-18-26.2-17.5-40c0.8-21.8,17.4-36.9,23.6-42.6
	c8.1-7.4,42-32,85.5-63.4c15.6-11.3,29.2-21,33.7-24.5l4.6-3.5c67.2-51.7,88.1-62.1,100.1-62.1c15,0,35.6,10.5,48.4,60.6
	c6.2,24,5.8,43.2-1.1,57c-4.7,9.4-21.6,20.2-50.1,32.1c-9.2,3.8-19.5,10.9-18.3,18.2c1.5,9.2,12.5,18.8,19.9,19.5
	c3.6,0.3,9.3,1,16.2,1.8c20.5,2.3,51.3,5.8,69.3,6.2c14.2,0.4,18.9-1.8,21.7-4c0.4-4.5,0.1-13.5-0.1-20.4c-0.2-5.9-0.4-11.9-0.4-18
	c0-27,11.3-35.4,26.2-43.6l1.2-0.7c20.9-11.6,48.6,5.8,59.5,13.8c9,6.6,152.2,97,194.3,122.8c37.9,23.3,42.3,26.7,49.1,53.6l0.7,2.7
	c6.2,24-7.4,45.6-35.5,56.4c-4.4,1.7-16.1,6.2-102.6-11.4c-34.9-7.1-53.5-4.6-59.3-2.9c-0.8,4.6-0.3,14.8,0,23.3
	c0.2,4.5,0.4,9.3,0.5,14.5c0.3,14.2-4.2,26.5-13.2,35.8c-11.2,11.5-26.8,15.5-37.7,15.5c-5.2,0-51.1,2.1-99.6,4.3
	c-73.5,3.3-156.7,7.1-172.3,7.1c-10.7,0-12.2,2.7-12.2,12.8c0,8.7,1.3,24,2.6,38.8c1.6,18.2-3.6,42.3-18.7,55.4s-45.6,17.2-55,17.2
	H370.5C365.8,718.9,303.8,719.5,252,719.5z M714.5,181.2c-5,1.4-22.4,10-81.7,55.6l-4.7,3.6c-4.8,3.7-17.8,13.1-34.3,25
	c-30,21.7-75.4,54.4-82.8,61.2c-6.2,5.7-13.4,13.2-13.7,21c-0.2,5.3,2.9,11.2,9.1,17.8c7.3,7.6,14.4,14.4,20.7,20.4
	c18.7,17.8,33.5,31.9,31.1,50.9c-3.2,25.3-27.5,39.1-52.1,51.1c-26.4,12.9-201.8,98.9-214.7,105.3c-15.8,7.9-37.2,12.3-67.2,13.7
	c-26.6,1.3-56,15-57.3,26.6c-1.8,16.3,1,38.2,10,48.6c3.2,3.9,7.9,6.1,12.9,6.2c34.2,1.3,179.1,0,180.5,0h177.4
	c8.9,0,29.2-4.7,34.9-9.7s9.2-17.8,8.2-29.4c-1.4-16.3-2.7-31.6-2.7-41.6c0-39.3,30-43.5,42.9-43.5c14.9,0,101.4-3.9,170.9-7.1
	c58.9-2.7,95.3-4.3,101-4.3c4.8,0,11.5-1.9,15.7-6.3c3.2-3.3,4.7-7.7,4.5-13.6c-0.1-5-0.3-9.7-0.5-14c-0.9-22.5-1.7-40.4,12-49.5
	c13.9-9.3,45.4-10.1,84.1-2.3c46.5,9.5,78.7,13.5,86.1,12.5c7.5-3,18.8-9.4,16.1-19.9l-0.7-2.7c-2.6-10-3.3-12.2-5.7-14.8
	c-4-4.3-13.9-10.5-29.8-20.2c-34.5-21.2-185.4-116.2-196.4-124.2c-12.8-9.4-24-12.5-26.6-11.6l-1.1,0.6c-10,5.5-10.3,5.7-10.3,16.8
	c0,5.6,0.2,11.4,0.4,17c0.8,21.6,1.2,34.6-7.8,42.4l-0.9,0.8c-7.5,6.7-17.7,13.7-44.4,13c-19.3-0.5-50.9-4.1-71.9-6.4
	c-6.7-0.8-12.3-1.4-15.8-1.7c-21.9-2.1-43.5-22.7-47.2-45c-3.5-21.2,10.2-40.5,36.8-51.6c18.1-7.6,31.4-15.3,34.9-18.5
	c1.6-4,3.8-14-1.6-34.7C725.5,189.9,716.8,182.1,714.5,181.2z"/>
<polyline class="st33" points="377.5,668.4 445.8,666.8 444,745.3 "/>
<polygon class="st34" points="394.1,668.7 395.2,654.3 358.1,665.9 393,683.1 394.1,668.7 "/>
<text transform="matrix(1 0 0 1 911.29 413.32)" class="st27 st29 st35 st36">PS</text>
<line class="st33" x1="939.4" y1="382.5" x2="954.9" y2="364.1"/>
<polygon class="st27" points="957.8,368.4 959.5,358.6 950.2,362 "/>
<path class="st27" d="M843.9,634.5c0-12.7,10.3-23,23-23h14.3c12.7,0,23,10.3,23,23v13.9c0,12.7-10.3,23-23,23h-14.3
	c-12.7,0-23-10.3-23-23L843.9,634.5L843.9,634.5z"/>
<text transform="matrix(1 0 0 1 855.03 656.79)" class="st28 st29 st37">i3</text>
<line class="st33" x1="867.1" y1="538" x2="874" y2="618.6"/>
<path class="st27" d="M398.8,415.2c0-12.7,10.3-23,23-23l0,0h14.3c12.7,0,23,10.3,23,23l0,0v13.9c0,12.7-10.3,23-23,23h-14.3
	c-12.7,0-23-10.3-23-23L398.8,415.2L398.8,415.2z"/>
<text transform="matrix(1 0 0 1 409.94 437.51)" class="st28 st29 st37">i1</text>
<line class="st33" x1="452.1" y1="431.4" x2="537.4" y2="370.5"/>
<path class="st27" d="M747.9,303.2c0-12.7,10.3-23,23-23h14.3c12.7,0,23,10.3,23,23v13.9c0,12.7-10.3,23-23,23h-14.3
	c-12.7,0-23-10.3-23-23L747.9,303.2L747.9,303.2z"/>
<text transform="matrix(1 0 0 1 759.02 325.48)" class="st28 st29 st37">i2</text>
<line class="st33" x1="801.7" y1="316.2" x2="867.1" y2="316.2"/>
<line class="st38" x1="298.5" y1="666.8" x2="303.5" y2="751.3"/>
<path class="st27" d="M280.2,766.5c0-10.9,8.9-19.8,19.8-19.8c0,0,0,0,0,0h7c10.9,0,19.8,8.9,19.8,19.8v12.4
	c0,10.9-8.9,19.8-19.8,19.8h-7c-10.9,0-19.8-8.9-19.8-19.8c0,0,0,0,0,0L280.2,766.5L280.2,766.5z"/>
<text transform="matrix(1 0 0 1 290.88 785.76)" class="st28 st29 st39 st36">S</text>
</svg>
