<svg id="Layer_1" data-name="Layer 1" xmlns="http://www.w3.org/2000/svg" xmlns:xlink="http://www.w3.org/1999/xlink" viewBox="0 0 1293 974"><defs><clipPath id="clip-path"><path d="M547.73,846a22.67,22.67,0,1,1-22.67-22.67A22.67,22.67,0,0,1,547.73,846Z" style="fill:none;stroke:#333;stroke-miterlimit:10"/></clipPath><linearGradient id="linear-gradient" x1="498.14" y1="834.46" x2="509.1" y2="823.5" gradientUnits="userSpaceOnUse"><stop offset="0" stop-color="#ededec"/><stop offset="1" stop-color="#c7c6c6"/></linearGradient><linearGradient id="linear-gradient-2" x1="508.73" y1="834.46" x2="519.68" y2="823.5" gradientUnits="userSpaceOnUse"><stop offset="0" stop-color="#525252"/><stop offset="1" stop-color="#000100"/></linearGradient><linearGradient id="linear-gradient-3" x1="519.31" y1="834.46" x2="530.27" y2="823.5" xlink:href="#linear-gradient"/><linearGradient id="linear-gradient-4" x1="529.89" y1="834.46" x2="540.85" y2="823.5" xlink:href="#linear-gradient-2"/><linearGradient id="linear-gradient-5" x1="540.47" y1="834.46" x2="551.43" y2="823.5" xlink:href="#linear-gradient"/><linearGradient id="linear-gradient-6" x1="498.14" y1="845.79" x2="509.1" y2="834.83" xlink:href="#linear-gradient-2"/><linearGradient id="linear-gradient-7" x1="508.73" y1="845.79" x2="519.68" y2="834.83" xlink:href="#linear-gradient"/><linearGradient id="linear-gradient-8" x1="519.31" y1="845.79" x2="530.27" y2="834.83" xlink:href="#linear-gradient-2"/><linearGradient id="linear-gradient-9" x1="529.89" y1="845.79" x2="540.85" y2="834.83" xlink:href="#linear-gradient"/><linearGradient id="linear-gradient-10" x1="540.47" y1="845.79" x2="551.43" y2="834.83" xlink:href="#linear-gradient-2"/><linearGradient id="linear-gradient-11" x1="498.14" y1="857.13" x2="509.1" y2="846.17" xlink:href="#linear-gradient"/><linearGradient id="linear-gradient-12" x1="508.73" y1="857.13" x2="519.68" y2="846.17" xlink:href="#linear-gradient-2"/><linearGradient id="linear-gradient-13" x1="519.31" y1="857.13" x2="530.27" y2="846.17" xlink:href="#linear-gradient"/><linearGradient id="linear-gradient-14" x1="529.89" y1="857.13" x2="540.85" y2="846.17" xlink:href="#linear-gradient-2"/><linearGradient id="linear-gradient-15" x1="540.47" y1="857.13" x2="551.43" y2="846.17" xlink:href="#linear-gradient"/><linearGradient id="linear-gradient-16" x1="498.15" y1="868.46" x2="509.1" y2="857.51" xlink:href="#linear-gradient-2"/><linearGradient id="linear-gradient-17" x1="508.73" y1="868.46" x2="519.68" y2="857.51" xlink:href="#linear-gradient"/><linearGradient id="linear-gradient-18" x1="519.31" y1="868.46" x2="530.27" y2="857.5" xlink:href="#linear-gradient-2"/><linearGradient id="linear-gradient-19" x1="529.89" y1="868.46" x2="540.85" y2="857.51" xlink:href="#linear-gradient"/><linearGradient id="linear-gradient-20" x1="540.47" y1="868.46" x2="551.43" y2="857.51" xlink:href="#linear-gradient-2"/></defs><path d="M108.57,171.76c-14.06-6.41-28.06-5.57-43.27-2-5.34,1.25-5-1.41-3.45-4.59,6-12.56,14.26-14.31,24.4-16.68,5.43-1.27,11.23-1.82,16.38-4.8,14.92-8.63,29.32-18,44.1-26.17L171.34,103c6.43-3.88,8.11-7.91,1.46-11.78-3.73-2.17-4.25-3.83-.31-6.05,15.69-8.84,30.11-19.73,45.88-29.3,4.09-2.48,10.31-.39,5.46,2.85-5.33,3.56-11.34,6.58-16.41,11.33-4.24,4-3.53,9.14,4.69,7.93,11.67-1.72,23-4.83,34.52-6.88,5.38-1.14,7.9-3.6,5.83-7.83-2.39-4.89-.91-6.22,2.51-6.56,10.82-1.08,27.8-.18,42.64.1,17.49.73,35,1.22,52.45,2.19,2,.11,4.43,1,.53,2-21.09,5.33-40.82,7-61.79,11.72-6.32,1.42-10.6,7.07-7.66,13,3.07,6.2,4.81,10.89-2.92,12.31-24.94,4.57-49.91,9-74.87,13.45-8.41,1.77-16.89,3.24-25.23,5.32-8.7,2.16-11.25,7.52-10.12,14,.65,3.68,1.66,7.29,2.4,10.95,1.06,5.22-1.67,10.44-8.13,12.93-17.93,6.89-34.93,6.77-52,9.28-2.67.4-6.19.59-1.38,1.67,9.33,2.09,21.7,2.82,35.14,2.19a99.58,99.58,0,0,0,26.49-4.59c7.5-2.48,12-8,12.2-15.33.14-5.91-1.11-11.77-1.88-17.62-.23-1.77-.27-3.25,3-3.86,34-6.27,68-12.51,101.88-19.08,8.17-1.59,18.14-2.9,14.8-12.72-1-3-3.58-5.32-5.1-8.14-1.3-2.39-.13-3.38,2.71-4.06,20.79-5,41.93-8.85,62-13.87,12.13-3,12.69-15.8-2.72-16.1-40.17-.76-70.81-2.73-107.5-.69-5.57.31-10.2,2.52-9,8.45.54,2.63,2.88,5.43.1,6.15-7.55,2-15.38,2.62-23,4.07-2.36.44-2.48-.08-.32-1.67,4.83-3.56,10-6.64,14.6-10.53,3.4-2.9,3.21-6.13-1.14-7.2-5.17-1.26-10-1.79-14.71,1.15-16.3,10.09-32.53,20.3-48.8,30.45-4.51,2.94-8,6.43-5.42,10.63,1,1.64,2.93,2.52,4.07,4.07.85,1.16.14,2.36-1.36,3.23Q135.19,118,105.44,135.47c-5.5,2.56-11.11,4.95-17.2,5.74-18.63,2.39-28.13,9.88-36.19,26.38-3.85,7.88-2.67,14.5,6.88,12.67,18.65-3.58,35.18-6.85,49.64-8.5Z" style="fill:#ec1c24;fill-rule:evenodd"/><path d="M84.3,163.44c3.42-4.27,6.07-6.81,12.49-8l32.05-5.95c-3.5,4.72-5,6.86-11.7,8.06L84.3,163.44Z" style="fill:#ec1c24;fill-rule:evenodd"/><path d="M217.54,200.21l7-27.89c.43-1.74-.15-2.55-1.91-2.55H218.2c-.49,0-.88.37-1,1l-7,27.89c-.43,1.74.15,2.55,1.9,2.55h4.45c.49,0,.88-.37,1-1Z" style="fill:#231f20;fill-rule:evenodd"/><path d="M318.57,200.21l7-27.89c.44-1.74-.15-2.55-1.9-2.55h-4.45c-.49,0-.88.37-1,1l-7,27.89c-.44,1.74.15,2.55,1.9,2.55h4.44c.5,0,.89-.37,1.05-1Z" style="fill:#231f20;fill-rule:evenodd"/><path d="M339.9,200.21,346,175.76c2.93.05,5.88.07,8.9.07a1.69,1.69,0,0,0,1.52-1.12l.74-2.77c.17-.63-.07-1.81-.73-1.82-3.59-.1-7.09-.19-10.58-.26a3.91,3.91,0,0,0-.88-.09h-4.18c-2.9,0-5.83-.07-8.82-.07a1.72,1.72,0,0,0-1.53,1.13l-.74,2.76c-.17.64.08,1.82.74,1.83l7.82.2-5.8,23.08c-.43,1.74.15,2.55,1.91,2.55h4.44c.49,0,.88-.37,1-1Z" style="fill:#231f20;fill-rule:evenodd"/><path d="M215.75,130.5c3,0,6,2.21,4.95,6.39l-1.14,4.55c-.62,2.49-2.58,3.85-4.9,4.68,1.83.52,3.68,2.12,3.09,4.53l-1.24,5c-1,4.13-4.91,6.3-9.2,6.3H193.58c-1.75,0-2.34-.81-1.9-2.54l7-27.9c.16-.66.55-1,1.05-1ZM203.4,143.78h6.47c.9,0,1.6-1.12,1.82-2l1.07-4.23c.11-.45-.27-1.17-.73-1.17h-6.77l-1.86,7.39Zm-3.08,12.5h7c.9,0,1.59-1.13,1.83-2l1.06-3.9c.12-.44-.27-1.17-.73-1.17h-7.33l-1.86,7.07Z" style="fill:#231f20;fill-rule:evenodd"/><path d="M232.58,143.78h6.47c.9,0,1.6-1.12,1.82-2l1.06-4.23c.12-.45-.27-1.17-.73-1.17h-6.77l-1.85,7.39Zm12.35-13.28c3,0,5.82,2.18,4.95,6.39l-1.44,6.89c-.52,2.5-4.23,4.57-6.56,5.42l3.4,10.25c.57,1.73.05,2.54-1.7,2.54h-4.45c-.49,0-.91-.37-1.13-1L234.71,151a1.49,1.49,0,0,0-1.29-.87l-1.47-.08a1.2,1.2,0,0,0-1.1.84l-2.6,10c-.17.67-.55,1-1.05,1h-4.44c-1.38,0-2-.5-2-1.55v-.05a4,4,0,0,1,.14-1l6.5-25.92a4.5,4.5,0,0,1,4.06-3Z" style="fill:#231f20;fill-rule:evenodd"/><path d="M294.59,162h-6c-2.86,0-6-2.94-5.26-5.71l5-19.89c.89-3.56,4.58-5.89,8.25-5.89h10.56c2.86,0,6,2.94,5.26,5.72l-5,19.88c-.9,3.57-4.58,5.89-8.26,5.89Zm1.32-24.76-4.49,17.85c-.12.47.34,1.2.82,1.19h6.4a1.73,1.73,0,0,0,1.55-1.13l4.45-17.71a.86.86,0,0,0-.7-1l-7.05-.06a1.12,1.12,0,0,0-1,.83Z" style="fill:#231f20;fill-rule:evenodd"/><path d="M192.32,201.25h-4.57c-2.86,0-5.95-2.94-5.26-5.71l5-19.89c.89-3.57,4.58-5.89,8.25-5.89h4.67l0,.13c3.12.06,6.26.14,9.46.23.66,0,.9,1.19.73,1.82l-.74,2.77a1.69,1.69,0,0,1-1.52,1.12c-4.1,0-8.06,0-12-.12-.51,0-1,.08-1.18.78l-4.49,17.85c-.16.66.24.9.77.91,3.94.08,7.87.18,11.9.28.66,0,.91,1.2.74,1.83l-.74,2.76a1.71,1.71,0,0,1-1.53,1.13c-3.2,0-6.33,0-9.43-.08l0,.08Z" style="fill:#231f20;fill-rule:evenodd"/><path d="M264,201.25h-4.57c-2.86,0-6-2.94-5.26-5.71l5-19.89c.9-3.57,4.58-5.89,8.26-5.89h4.66l0,.13c3.13.06,6.26.14,9.46.23.66,0,.91,1.19.74,1.82l-.74,2.77a1.7,1.7,0,0,1-1.53,1.12c-4.09,0-8.06,0-12-.12-.51,0-1,.08-1.18.78l-4.48,17.85c-.17.66.24.9.77.91,3.93.08,7.86.18,11.9.28.65,0,.9,1.2.73,1.83l-.74,2.76a1.69,1.69,0,0,1-1.53,1.13c-3.2,0-6.32,0-9.42-.08l0,.08Z" style="fill:#231f20;fill-rule:evenodd"/><path d="M292.82,201.25h-6.05c-2.86,0-5.95-2.94-5.26-5.71l3-11.76v.14l3.29-13.11c.17-.67.55-1,1.05-1h4.44c1.76,0,2.34.81,1.91,2.55l-3.5,13.9h0l-2,8.12a1.06,1.06,0,0,0,.82,1.19l6.4,0a1.7,1.7,0,0,0,1.55-1.12c2-7.86,3.88-15.43,5.93-23.58.17-.67.55-1,1-1h4.18c1.75,0,2.33.81,1.9,2.55l-3.81,15.14h-.1l-2,7.9c-.9,3.57-4.58,5.89-8.26,5.89Z" style="fill:#231f20;fill-rule:evenodd"/><path d="M236.18,183h6.46c.91,0,1.61-1.12,1.83-2l1.06-4.22c.12-.45-.27-1.17-.73-1.17H238L236.18,183Zm12.35-13.28c3,0,5.82,2.18,4.94,6.39L252,183c-.52,2.5-4.23,4.57-6.56,5.42l3.4,10.24c.57,1.74.05,2.55-1.7,2.55h-4.45c-.49,0-.91-.37-1.13-1l-3.29-9.93a1.49,1.49,0,0,0-1.29-.87l-1.47-.09a1.22,1.22,0,0,0-1.1.85l-2.6,10c-.17.66-.55,1-1,1h-4.44c-1.38,0-2-.5-2-1.55v0a4,4,0,0,1,.14-1l6.5-25.92a4.5,4.5,0,0,1,4.06-3Z" style="fill:#231f20;fill-rule:evenodd"/><path d="M257.38,160.94,262.74,140l1.87,19.39c.38,3.2,10.91,3.93,11.91,0l6.66-26.51c.44-1.74-.15-2.55-1.9-2.55h-4.45c-.49,0-.87.37-1,1l-5.36,21-2.12-19.22c-.35-3.21-10.67-4.1-11.66-.13L250,159.43c-.43,1.74.15,2.55,1.91,2.55h4.44c.49,0,.88-.37,1.05-1Z" style="fill:#231f20;fill-rule:evenodd"/><path d="M312.68,228.94l2.81-11.18c.17-.7-.06-1-.77-1h-1.78c-.2,0-.35.15-.42.41l-2.81,11.19c-.17.69.06,1,.76,1h1.79c.19,0,.35-.15.42-.42Z" style="fill:#ec1c24;fill-rule:evenodd"/><path d="M129.4,229.36h-1.83c-1.14,0-2.39-1.18-2.11-2.29l2-8a3.38,3.38,0,0,1,3.31-2.36h1.87l0,.05,3.8.09c.26,0,.36.48.29.74l-.29,1.1a.69.69,0,0,1-.62.46c-1.64,0-3.23,0-4.81,0-.21,0-.4,0-.47.31l-1.8,7.16c-.07.26.09.36.31.36l4.77.12c.26,0,.36.47.29.73l-.29,1.11a.7.7,0,0,1-.62.45c-1.28,0-2.53,0-3.78,0v0Z" style="fill:#ec1c24;fill-rule:evenodd"/><path d="M329.28,229.36h-1.83c-1.14,0-2.38-1.18-2.11-2.29l2-8a3.38,3.38,0,0,1,3.31-2.36h1.87l0,.05,3.8.09c.26,0,.36.48.29.74l-.29,1.1a.69.69,0,0,1-.62.46c-1.64,0-3.23,0-4.81,0-.21,0-.4,0-.47.31l-1.8,7.16c-.07.26.09.36.31.36l4.77.12c.26,0,.36.47.29.73l-.29,1.11a.7.7,0,0,1-.62.45c-1.28,0-2.53,0-3.78,0v0Z" style="fill:#ec1c24;fill-rule:evenodd"/><path d="M251.84,229.36h-2.43c-1.14,0-2.38-1.18-2.11-2.29l1.19-4.72v.06l1.32-5.26c.07-.26.22-.41.42-.41H252c.7,0,.94.32.76,1l-1.4,5.57h0l-.82,3.26c0,.19.13.48.33.47h2.56a.69.69,0,0,0,.62-.45c.79-3.16,1.56-6.19,2.38-9.46.07-.26.22-.41.42-.41h1.68c.7,0,.93.32.76,1l-1.53,6.07h0L257,227a3.38,3.38,0,0,1-3.31,2.36Z" style="fill:#ec1c24;fill-rule:evenodd"/><path d="M190.05,222.06h2.59c.37,0,.65-.45.74-.8l.42-1.7c0-.18-.11-.47-.29-.47H190.8l-.75,3Zm4.95-5.33a2,2,0,0,1,2,2.56l-.58,2.77c-.21,1-1.7,1.83-2.63,2.17l1.36,4.11c.23.69,0,1-.68,1h-1.78c-.2,0-.36-.15-.45-.42l-1.32-4a.6.6,0,0,0-.52-.35l-.59,0a.47.47,0,0,0-.44.33l-1,4c-.07.26-.23.41-.42.41h-1.79c-.55,0-.81-.2-.81-.62v0a2,2,0,0,1,0-.39L188,217.94a1.79,1.79,0,0,1,1.63-1.21Z" style="fill:#ec1c24;fill-rule:evenodd"/><path d="M278.09,216.75a1.94,1.94,0,0,1,2,2.56l-.46,1.83a2.77,2.77,0,0,1-2,1.88,1.53,1.53,0,0,1,1.23,1.81l-.49,2a3.56,3.56,0,0,1-3.69,2.53H269.2c-.7,0-.93-.33-.76-1l2.81-11.19c.07-.26.22-.41.42-.41Zm-4.95,5.33h2.6c.36,0,.64-.45.73-.8l.42-1.7c.05-.18-.11-.47-.29-.47h-2.71l-.75,3Zm-1.23,5h2.82c.36,0,.63-.45.73-.8l.42-1.57c.05-.18-.11-.47-.29-.47h-2.94l-.74,2.84Z" style="fill:#ec1c24;fill-rule:evenodd"/><path d="M67.56,229.36H65.73c-1.15,0-2.39-1.18-2.11-2.29l2-8a3.38,3.38,0,0,1,3.31-2.36H70.8v.05l3.79.09c.26,0,.36.48.3.74l-.3,1.1a.69.69,0,0,1-.61.46c-1.64,0-3.23,0-4.82,0a.39.39,0,0,0-.47.31l-1.8,7.16c-.07.26.1.36.31.36l4.77.12c.26,0,.36.47.29.73L72,228.91a.69.69,0,0,1-.61.45c-1.29,0-2.54,0-3.79,0v0Z" style="fill:#ec1c24;fill-rule:evenodd"/><path d="M293.82,229.36H292c-1.15,0-2.43-1.18-2.15-2.29.84-3.32,1.68-6.58,2.52-9.92.07-.26.22-.41.42-.41h1.78c.7,0,.94.32.76,1-.74,3-1.45,5.88-2.17,8.83-.07.26.09.36.3.36l4.78.12c.26,0,.36.47.29.73l-.3,1.11a.67.67,0,0,1-.61.45q-1.92,0-3.78,0v0Z" style="fill:#ec1c24;fill-rule:evenodd"/><path d="M231.34,222.06h2.6c.36,0,.64-.45.73-.8l.43-1.7c0-.18-.11-.47-.3-.47h-2.71l-.75,3Zm4.95-5.33a2,2,0,0,1,2,2.56l-.58,2.77c-.59,2.85-4.84,2.63-6.61,2.52a.47.47,0,0,0-.44.33l-1,4c-.07.26-.22.41-.42.41h-1.78c-.56,0-.82-.2-.82-.62v0a2,2,0,0,1,0-.39l2.61-10.39a1.8,1.8,0,0,1,1.63-1.21Z" style="fill:#ec1c24;fill-rule:evenodd"/><path d="M156.58,228.94l2.81-11.18c.18-.7-.06-1-.76-1h-1.78c-.2,0-.36.15-.42.41l-1,4.11h-4.16l.88-3.5c.17-.7-.06-1-.76-1h-1.79c-.19,0-.35.15-.42.41l-2.81,11.19c-.17.69.06,1,.77,1h1.78c.2,0,.35-.15.42-.42l1.22-4.87h4.16l-1.07,4.27c-.18.69.06,1,.76,1h1.78c.2,0,.35-.15.42-.42Z" style="fill:#ec1c24;fill-rule:evenodd"/><path d="M108.63,226.94l.74-2.93,4.27,0a.69.69,0,0,0,.61-.45l.3-1.11c.06-.26,0-.73-.3-.73l-4.29-.11.63-2.5c1.17,0,2.47,0,5.3,0a.67.67,0,0,0,.61-.46l.3-1.1c.07-.26,0-.73-.29-.74-2.24-.05-4.46-.11-6.69-.14h-1.43c-.19,0-.35.15-.42.41l-2.81,11.19c-.17.69.06,1,.77,1h1.78a.47.47,0,0,0,.17,0c1.22,0,2.5,0,5.48,0a.68.68,0,0,0,.61-.45l.3-1.11c.07-.26,0-.73-.3-.73-1.78,0-3.56-.1-5.34-.13Z" style="fill:#ec1c24;fill-rule:evenodd"/><path d="M96.18,218.71l.29-1.1c.07-.26,0-.73-.29-.74-3.28-.08-5.73-.16-9-.16a.68.68,0,0,0-.61.45l-.3,1.11c-.07.25,0,.72.3.73,3,.08,3.52.13,5.08.15.68,0,.52,0,.08.43C89.14,222,86.57,224.5,84,227c-.16.15-.3.27-.41.39a2.5,2.5,0,0,0-.45,1.12c-.07.25,0,.73.29.73,4.62.12,3.63.17,9.28.17a.69.69,0,0,0,.61-.45l.3-1.11c.06-.26,0-.73-.3-.73L88.36,227c-.56,0-.63.07-.2-.35l7.66-7.44a1.14,1.14,0,0,0,.36-.45Z" style="fill:#ec1c24;fill-rule:evenodd"/><path d="M209.75,226.94l.73-2.93,4.27,0a.7.7,0,0,0,.62-.45l.29-1.11c.07-.26,0-.73-.29-.73l-4.29-.11.63-2.5c1.17,0,2.47,0,5.3,0a.68.68,0,0,0,.61-.46l.3-1.1c.07-.26,0-.73-.3-.74-2.23-.05-4.46-.11-6.68-.14h-1.43c-.2,0-.35.15-.42.41l-2.81,11.19c-.18.69.06,1,.76,1h1.78a.43.43,0,0,0,.17,0c1.23,0,2.51,0,5.49,0a.69.69,0,0,0,.61-.45l.29-1.11c.07-.26,0-.73-.29-.73-1.79,0-3.56-.1-5.34-.13Z" style="fill:#ec1c24;fill-rule:evenodd"/><rect x="338.25" y="835.11" width="216.59" height="25.43" style="fill:#333;stroke:#333;stroke-miterlimit:3.86371"/><rect x="494.24" y="816.34" width="61.09" height="58.76" rx="7.48" ry="7.48" style="fill:#5d5d5d"/><path d="M547.85,816.84a7,7,0,0,1,7,7v43.8a7,7,0,0,1-7,7H501.72a7,7,0,0,1-7-7v-43.8a7,7,0,0,1,7-7h46.13m0-1H501.72a8,8,0,0,0-8,8v43.8a8,8,0,0,0,8,8h46.13a8,8,0,0,0,8-8v-43.8a8,8,0,0,0-8-8Z" style="fill:#5d5d5d"/><rect x="337.75" y="816.34" width="61.09" height="58.76" rx="7.48" ry="7.48" style="fill:#5d5d5d"/><path d="M391.35,816.84a7,7,0,0,1,7,7v43.8a7,7,0,0,1-7,7H345.23a7,7,0,0,1-7-7v-43.8a7,7,0,0,1,7-7h46.12m0-1H345.23a8,8,0,0,0-8,8v43.8a8,8,0,0,0,8,8h46.12a8,8,0,0,0,8-8v-43.8a8,8,0,0,0-8-8Z" style="fill:#5d5d5d"/><rect x="416.31" y="816.34" width="61.09" height="58.76" rx="7.48" ry="7.48" style="fill:#5d5d5d"/><path d="M469.91,816.84a7,7,0,0,1,7,7v43.8a7,7,0,0,1-7,7H423.79a7,7,0,0,1-7-7v-43.8a7,7,0,0,1,7-7h46.12m0-1H423.79a8,8,0,0,0-8,8v43.8a8,8,0,0,0,8,8h46.12a8,8,0,0,0,8-8v-43.8a8,8,0,0,0-8-8Z" style="fill:#5d5d5d"/><path d="M391.23,846a22.67,22.67,0,1,1-22.67-22.67A22.67,22.67,0,0,1,391.23,846Z" style="fill:#ec1c24;stroke:#343433;stroke-miterlimit:10"/><path d="M469.79,846a22.67,22.67,0,1,1-22.67-22.67A22.67,22.67,0,0,1,469.79,846Z" style="fill:#349211;stroke:#343433;stroke-miterlimit:10"/><path d="M547.73,846a22.67,22.67,0,1,1-22.67-22.67A22.67,22.67,0,0,1,547.73,846Z" style="fill:none;stroke:#343433;stroke-miterlimit:10"/><g style="clip-path:url(#clip-path)"><rect x="498.33" y="823.31" width="10.58" height="11.33" style="fill:url(#linear-gradient)"/><rect x="508.91" y="823.31" width="10.58" height="11.33" style="fill:url(#linear-gradient-2)"/><rect x="519.5" y="823.31" width="10.58" height="11.33" style="fill:url(#linear-gradient-3)"/><rect x="530.08" y="823.31" width="10.58" height="11.33" style="fill:url(#linear-gradient-4)"/><rect x="540.66" y="823.31" width="10.58" height="11.33" style="fill:url(#linear-gradient-5)"/><rect x="498.33" y="834.65" width="10.58" height="11.33" style="fill:url(#linear-gradient-6)"/><rect x="508.91" y="834.65" width="10.58" height="11.33" style="fill:url(#linear-gradient-7)"/><rect x="519.5" y="834.65" width="10.58" height="11.33" style="fill:url(#linear-gradient-8)"/><rect x="530.08" y="834.65" width="10.58" height="11.33" style="fill:url(#linear-gradient-9)"/><rect x="540.66" y="834.65" width="10.58" height="11.33" style="fill:url(#linear-gradient-10)"/><rect x="498.33" y="845.98" width="10.58" height="11.34" style="fill:url(#linear-gradient-11)"/><rect x="508.91" y="845.98" width="10.58" height="11.34" style="fill:url(#linear-gradient-12)"/><rect x="519.5" y="845.98" width="10.58" height="11.34" style="fill:url(#linear-gradient-13)"/><rect x="530.08" y="845.98" width="10.58" height="11.34" style="fill:url(#linear-gradient-14)"/><rect x="540.66" y="845.98" width="10.58" height="11.34" style="fill:url(#linear-gradient-15)"/><rect x="498.33" y="857.32" width="10.58" height="11.33" style="fill:url(#linear-gradient-16)"/><rect x="508.91" y="857.32" width="10.58" height="11.33" style="fill:url(#linear-gradient-17)"/><rect x="519.5" y="857.32" width="10.58" height="11.33" style="fill:url(#linear-gradient-18)"/><rect x="530.08" y="857.32" width="10.58" height="11.33" style="fill:url(#linear-gradient-19)"/><rect x="540.66" y="857.32" width="10.58" height="11.33" style="fill:url(#linear-gradient-20)"/></g><path d="M547.73,846a22.67,22.67,0,1,1-22.67-22.67A22.67,22.67,0,0,1,547.73,846Z" style="fill:none;stroke:#333;stroke-miterlimit:10"/><path d="M398.84,764.78a25.35,25.35,0,0,1,25.36-25.35H463a25.35,25.35,0,0,1,25.36,25.35v15.88A25.35,25.35,0,0,1,463,806H424.2a25.35,25.35,0,0,1-25.36-25.35V764.78Z" style="fill:#ec1c24"/><text transform="translate(415.96 789.92)" style="font-size:48.07691955566406px;fill:#fff;font-family:AkzidenzGroteskStd-Bold, Akzidenz-Grotesk Std;font-weight:700">FL</text><text transform="translate(92.47 697.67)" style="font-size:38.46154022216797px;fill:#ec1c24;font-family:AkzidenzGroteskStd-Regular, Akzidenz-Grotesk Std">1</text><text transform="translate(217.46 554.45)" style="font-size:38.46154022216797px;fill:#ec1c24;font-family:AkzidenzGroteskStd-Regular, Akzidenz-Grotesk Std">2</text><text transform="translate(580.31 457.42)" style="font-size:38.46154022216797px;fill:#ec1c24;font-family:AkzidenzGroteskStd-Regular, Akzidenz-Grotesk Std">3</text><text transform="translate(424.45 327.62)" style="font-size:38.46154022216797px;fill:#ec1c24;font-family:AkzidenzGroteskStd-Regular, Akzidenz-Grotesk Std">4</text><text transform="translate(679.25 132.21)" style="font-size:38.46154022216797px;fill:#ec1c24;font-family:AkzidenzGroteskStd-Regular, Akzidenz-Grotesk Std">5</text><text transform="translate(692.99 246.91)" style="font-size:38.46154022216797px;fill:#ec1c24;font-family:AkzidenzGroteskStd-Regular, Akzidenz-Grotesk Std">6</text><text transform="translate(630.49 361.75)" style="font-size:38.46154022216797px;fill:#ec1c24;font-family:AkzidenzGroteskStd-Regular, Akzidenz-Grotesk Std">7</text><text transform="translate(867.11 374.87)" style="font-size:38.46154022216797px;fill:#ec1c24;font-family:AkzidenzGroteskStd-Regular, Akzidenz-Grotesk Std">8</text><text transform="translate(847.51 237.52)" style="font-size:38.46154022216797px;fill:#ec1c24;font-family:AkzidenzGroteskStd-Regular, Akzidenz-Grotesk Std">9</text><text transform="translate(1155.68 517.67)" style="font-size:38.46154022216797px;fill:#ec1c24;font-family:AkzidenzGroteskStd-Regular, Akzidenz-Grotesk Std">10</text><text transform="translate(896.12 457.86)" style="font-size:38.46154022216797px;fill:#ec1c24;font-family:AkzidenzGroteskStd-Regular, Akzidenz-Grotesk Std">11</text><text transform="translate(961.83 592.55)" style="font-size:38.46154022216797px;fill:#ec1c24;font-family:AkzidenzGroteskStd-Regular, Akzidenz-Grotesk Std">12</text><text transform="translate(531.69 560.86)" style="font-size:38.46154022216797px;fill:#ec1c24;font-family:AkzidenzGroteskStd-Regular, Akzidenz-Grotesk Std">13</text><text transform="translate(626.78 722.97)" style="font-size:38.46154022216797px;fill:#ec1c24;font-family:AkzidenzGroteskStd-Regular, Akzidenz-Grotesk Std">14</text><path d="M252,719.45c-27.14,0-51.5-.16-63.43-.62a47.48,47.48,0,0,1-35-16.81c-16.5-19.17-19.6-50.8-17.24-72,3.84-34.54,52.81-52.32,86.36-53.92,25.29-1.21,43.26-4.64,55-10.48,13-6.49,188.6-92.63,215-105.48,24-11.67,34.14-19.62,35.14-27.42.46-3.63-14-17.39-21.8-24.78-6.54-6.2-13.95-13.24-21.76-21.44-12.1-12.71-18-26.17-17.5-40,.77-21.75,17.39-36.91,23.65-42.61,8.08-7.37,42-32,85.53-63.39,15.64-11.29,29.15-21,33.67-24.48l4.57-3.51c67.21-51.69,88.12-62.07,100.07-62.07,15,0,35.6,10.5,48.43,60.55,6.16,24,5.77,43.18-1.14,57-4.71,9.43-21.58,20.25-50.12,32.14-9.2,3.83-19.51,10.91-18.29,18.22,1.53,9.2,12.5,18.77,19.88,19.47,3.59.34,9.3,1,16.25,1.76,20.45,2.29,51.34,5.75,69.32,6.23,14.15.38,18.89-1.77,21.72-4,.42-4.47.11-13.5-.14-20.38-.2-5.87-.42-11.94-.42-18,0-27,11.35-35.44,26.18-43.64l1.19-.66c20.88-11.6,48.57,5.78,59.5,13.79,9,6.57,152.2,97,194.32,122.84,37.89,23.26,42.28,26.71,49.12,53.57l.68,2.68c6.17,24-7.44,45.61-35.54,56.42-4.41,1.7-16.14,6.2-102.56-11.37-34.88-7.1-53.45-4.65-59.32-2.88-.78,4.56-.35,14.83,0,23.29.19,4.5.39,9.35.52,14.51.35,14.16-4.23,26.53-13.25,35.79-11.17,11.45-26.79,15.53-37.68,15.53-5.25,0-51.06,2.08-99.57,4.29-73.46,3.34-156.73,7.12-172.33,7.12-10.67,0-12.18,2.74-12.18,12.85,0,8.71,1.33,24,2.61,38.82,1.59,18.2-3.57,42.29-18.65,55.36s-45.63,17.18-55,17.18H370.49C365.8,718.89,303.84,719.45,252,719.45ZM714.54,181.16c-5,1.43-22.41,10-81.72,55.63l-4.68,3.59c-4.83,3.68-17.84,13.07-34.3,24.95-30,21.67-75.39,54.42-82.82,61.19-6.21,5.66-13.38,13.16-13.66,21-.18,5.27,2.87,11.24,9.06,17.75,7.28,7.64,14.39,14.4,20.67,20.36,18.74,17.79,33.54,31.85,31.11,50.92-3.23,25.31-27.53,39.14-52.14,51.13C479.7,500.53,304.29,586.56,291.36,593c-15.81,7.91-37.17,12.26-67.23,13.69-26.55,1.27-56,15-57.31,26.64-1.81,16.31,1,38.24,10,48.64a16.91,16.91,0,0,0,12.94,6.17c34.16,1.31,179.08,0,180.54,0H547.67c8.94,0,29.18-4.69,34.93-9.68s9.2-17.75,8.19-29.36c-1.41-16.31-2.74-31.58-2.74-41.62,0-39.3,30-43.54,42.88-43.54,14.91,0,101.42-3.94,170.94-7.1,58.91-2.68,95.3-4.32,101-4.32,4.77,0,11.48-1.94,15.7-6.27,3.2-3.28,4.69-7.72,4.54-13.58-.12-5-.32-9.65-.5-14-.94-22.55-1.69-40.36,12-49.51,13.94-9.29,45.37-10.14,84.08-2.27,46.51,9.46,78.72,13.46,86.13,12.53,7.51-3,18.81-9.37,16.12-19.85l-.7-2.74c-2.56-10-3.27-12.22-5.65-14.77-4-4.29-13.95-10.5-29.78-20.22-34.49-21.18-185.4-116.16-196.42-124.24-12.79-9.38-24-12.51-26.58-11.65l-1.09.62c-10,5.51-10.34,5.72-10.34,16.78,0,5.56.21,11.35.4,17,.76,21.61,1.22,34.65-7.77,42.36l-.9.79c-7.46,6.66-17.69,13.7-44.42,13-19.27-.52-50.94-4.07-71.9-6.41-6.74-.76-12.28-1.38-15.75-1.71-21.89-2.08-43.53-22.68-47.25-45-3.54-21.25,10.2-40.54,36.76-51.6,18.13-7.56,31.42-15.3,34.9-18.49,1.62-4,3.75-14-1.56-34.7C725.53,189.92,716.78,182.05,714.54,181.16ZM819.93,343.7ZM715.19,181Z" style="fill:#333"/><polyline points="377.45 668.4 445.82 666.75 444.04 745.27" style="fill:none;stroke:#ec1c24;stroke-miterlimit:10"/><polygon points="394.07 668.74 395.19 654.34 358.08 665.93 392.95 683.13 394.07 668.74 394.07 668.74" style="fill:#ec1c24;fill-rule:evenodd"/><text transform="translate(911.29 413.32)" style="font-size:31.83296012878418px;fill:#eb2027;font-family:AkzidenzGroteskStd-Bold, Akzidenz-Grotesk Std;font-weight:700;letter-spacing:0.050004676554118395em">PS</text><line x1="939.42" y1="382.45" x2="954.93" y2="364.06" style="fill:none;stroke:#ec1c24;stroke-miterlimit:10"/><polygon points="957.8 368.39 959.55 358.57 950.17 361.96 957.8 368.39" style="fill:#ec1c24"/><path d="M843.92,634.54a23,23,0,0,1,23-23h14.29a23,23,0,0,1,23,23v13.93a23,23,0,0,1-23,23H866.89a23,23,0,0,1-23-23V634.54Z" style="fill:#ec1c24"/><text transform="translate(855.03 656.79)" style="font-size:43.79201889038086px;fill:#fff;font-family:AkzidenzGroteskStd-Bold, Akzidenz-Grotesk Std;font-weight:700">i3</text><line x1="867.11" y1="537.99" x2="874.03" y2="618.64" style="fill:none;stroke:#ec1c24;stroke-miterlimit:10"/><path d="M398.84,415.25a23,23,0,0,1,23-23H436.1a23,23,0,0,1,23,23v13.94a23,23,0,0,1-23,23H421.81a23,23,0,0,1-23-23V415.25Z" style="fill:#ec1c24"/><text transform="translate(409.94 437.51)" style="font-size:43.79201889038086px;fill:#fff;font-family:AkzidenzGroteskStd-Bold, Akzidenz-Grotesk Std;font-weight:700">i1</text><line x1="452.12" y1="431.4" x2="537.37" y2="370.51" style="fill:none;stroke:#ec1c24;stroke-miterlimit:10"/><path d="M747.91,303.22a23,23,0,0,1,23-23h14.29a23,23,0,0,1,23,23v13.94a23,23,0,0,1-23,23H770.88a23,23,0,0,1-23-23V303.22Z" style="fill:#ec1c24"/><text transform="translate(759.02 325.48)" style="font-size:43.79201889038086px;fill:#fff;font-family:AkzidenzGroteskStd-Bold, Akzidenz-Grotesk Std;font-weight:700">i2</text><line x1="801.65" y1="316.16" x2="867.11" y2="316.16" style="fill:none;stroke:#ec1c24;stroke-miterlimit:10"/><line x1="298.54" y1="666.75" x2="303.47" y2="751.28" style="fill:none;stroke:#991915;stroke-miterlimit:3.86371"/><path d="M280.16,766.52A19.81,19.81,0,0,1,300,746.71h7a19.81,19.81,0,0,1,19.8,19.81v12.4A19.81,19.81,0,0,1,307,798.73h-7a19.81,19.81,0,0,1-19.82-19.81v-12.4Z" style="fill:#ec1c24"/><text transform="translate(290.88 785.76)" style="font-size:37.76961898803711px;fill:#fff;font-family:AkzidenzGroteskStd-Bold, Akzidenz-Grotesk Std;font-weight:700;letter-spacing:0.05000505500461112em">S</text></svg>