<?xml version="1.0" encoding="UTF-8"?>
<svg width="159px" height="125px" viewBox="0 0 159 125" version="1.1" xmlns="http://www.w3.org/2000/svg" xmlns:xlink="http://www.w3.org/1999/xlink">
    <!-- Generator: sketchtool 51.2 (57519) - http://www.bohemiancoding.com/sketch -->
    <title>3487AF5F-3092-4FFA-90A4-28A8A881576A</title>
    <desc>Created with sketchtool.</desc>
    <defs>
        <path d="M0.100806452,4.03225806 C0.100806452,1.91532258 1.81451613,0.201612903 3.93145161,0.201612903 L5.29233871,0.201612903 C7.40927419,0.201612903 9.12298387,1.91532258 9.12298387,4.03225806 L9.12298387,6.4516129 C9.12298387,8.56854839 7.40927419,10.2822581 5.29233871,10.2822581 L3.93145161,10.2822581 C1.81451613,10.2822581 0.100806452,8.56854839 0.100806452,6.4516129 L0.100806452,4.03225806 Z" id="path-1"></path>
    </defs>
    <g id="Page-1" stroke="none" stroke-width="1" fill="none" fill-rule="evenodd">
        <g id="Circuit_info_05" transform="translate(-183.000000, -331.000000)">
            <g id="assets/circuits_info/101" transform="translate(162.000000, 331.000000)">
                <g id="assets/circuits_info/le-mans" transform="translate(21.000000, 0.000000)">
                    <g id="trazado" transform="translate(6.048387, 5.544355)" fill="#B7B5B6" fill-rule="nonzero">
                        <path d="M14.1129032,0.453629032 C10.3830645,0.302419355 8.77016129,3.67943548 8.06451613,5.09072581 C7.00604839,7.30846774 7.25806452,9.12298387 8.92137097,10.4334677 L12.7520161,13.4072581 C18.1451613,17.5403226 28.2258065,25.2520161 30.7459677,27.3689516 C32.4596774,28.7802419 37.6512097,33.1149194 40.171371,36.9455645 C43.9012097,42.641129 43.9516129,45.6653226 43.6491935,46.9254032 C43.3971774,47.8830645 42.7923387,48.6391129 41.7842742,49.1935484 C40.7762097,49.7479839 39.4657258,50 37.1975806,47.4798387 L37.0967742,47.328629 L36.9455645,47.2278226 C35.8870968,46.3709677 33.921371,43.8004032 31.9052419,41.078629 L29.5362903,37.953629 L29.4858871,37.9032258 C25.453629,33.2157258 20.8165323,28.578629 18.1955645,26.6129032 C13.5080645,23.0846774 10.7862903,21.8245968 8.11491935,21.9758065 C6.65322581,22.0766129 4.38508065,23.0342742 2.67137097,25 C2.01612903,25.7560484 1.31048387,26.8145161 0.856854839,28.1754032 C0.504032258,29.233871 0.302419355,30.4939516 0.403225806,31.9556452 C0.806451613,38.1048387 5.64516129,41.2298387 8.51814516,43.0947581 L8.82056452,43.296371 C11.391129,44.9596774 14.3649194,47.5302419 15.171371,48.4375 C16.078629,49.6471774 21.7237903,60.5846774 23.0342742,63.0040323 C25.9576613,68.2459677 30.0907258,66.4818548 32.358871,66.733871 C35.9375,67.1370968 35.6350806,71.3205645 37.1975806,74.8487903 C40.2217742,81.6028226 45.9173387,84.6774194 49.7479839,86.7439516 C56.5020161,90.3729839 65.171371,92.5907258 74.1935484,92.9939516 C80.4939516,93.2459677 132.006048,94.6068548 132.96371,94.6572581 C139.415323,95.3125 140.171371,93.8004032 140.524194,93.0947581 C140.574597,92.9939516 140.625,92.8931452 140.675403,92.6915323 C140.877016,92.0866935 141.179435,90.8770161 141.784274,88.1048387 L142.086694,86.8447581 C142.641129,84.375 140.826613,82.2076613 137.550403,81.3508065 L136.592742,81.1491935 C125.201613,78.578629 122.127016,76.9657258 121.270161,76.2096774 C119.455645,74.5967742 119.556452,73.4879032 119.657258,72.4798387 C119.758065,71.3205645 121.068548,69.8084677 122.177419,68.4475806 C123.487903,66.8850806 124.84879,65.2721774 125.302419,63.4576613 C126.310484,59.3245968 124.243952,55.3931452 120.362903,54.1834677 C119.102823,53.7802419 95.7157258,46.6229839 93.0947581,45.8165323 L92.9939516,45.766129 C90.9778226,45.1612903 85.6350806,43.5483871 82.8125,46.7741935 C80.8971774,48.9415323 79.8891129,49.2439516 77.0665323,47.2278226 C72.7822581,44.203629 37.8528226,16.5826613 31.9052419,11.7943548 C30.2923387,10.4334677 17.1875,0.554435484 14.1129032,0.453629032 Z M29.4354839,14.8185484 C35.4334677,19.6068548 70.4637097,47.3790323 74.7983871,50.4032258 C79.1330645,53.4778226 82.4092742,53.125 85.7862903,49.3447581 C86.3407258,48.7399194 87.8024194,48.2862903 91.8850806,49.4959677 L91.9858871,49.546371 C94.6068548,50.3528226 117.943548,57.5100806 119.203629,57.9133065 C121.572581,58.6693548 121.925403,60.8366935 121.522177,62.5 C121.320565,63.4072581 120.262097,64.6673387 119.203629,65.8770161 C117.641129,67.7419355 115.977823,69.6572581 115.77621,71.9758065 C115.625,73.3366935 115.322581,76.108871 118.699597,79.0826613 C120.766129,80.8971774 126.008065,82.7116935 135.78629,84.8790323 L136.643145,85.0806452 C137.701613,85.3326613 138.205645,85.7358871 138.306452,85.9375 C138.256048,86.0887097 138.004032,87.1975806 138.004032,87.1975806 C137.802419,88.1552419 137.399194,89.8185484 137.147177,90.7762097 C136.340726,90.8770161 134.727823,90.8770161 133.266129,90.7258065 L133.165323,90.7258065 L133.064516,90.7258065 C132.560484,90.7258065 80.6451613,89.3649194 74.3447581,89.0625 C66.0282258,88.7096774 57.7620968,86.5927419 51.5625,83.3165323 C48.2862903,81.5524194 42.0362903,77.6209677 39.7681452,70.9173387 C37.9032258,65.3729839 37.953629,62.6512097 32.7620968,63.1552419 C29.6875,63.4576613 27.4193548,63.2560484 26.5120968,61.3407258 C25.9576613,60.2318548 19.3044355,47.2782258 18.0443548,45.8669355 C16.9858871,44.7076613 13.6592742,41.8346774 10.8870968,40.0201613 L10.5846774,39.8185484 C8.0141129,38.1552419 4.53629032,35.9375 4.23387097,31.7540323 C4.13306452,30.141129 4.58669355,28.7298387 5.54435484,27.6209677 C6.60282258,26.4112903 7.91330645,25.9576613 8.26612903,25.9576613 C9.42540323,25.9072581 11.1391129,26.3104839 15.7258065,29.7883065 C18.0947581,31.5524194 22.5302419,36.0383065 26.3608871,40.4737903 C26.4112903,40.5745968 28.6290323,43.4979839 28.6290323,43.4979839 C30.9979839,46.6733871 32.9133065,49.2439516 34.4254032,50.4032258 L34.1733871,50.1512097 C38.0040323,54.3850806 41.3810484,53.8306452 43.5483871,52.671371 C45.3629032,51.6633065 46.5725806,50.3024194 47.1270161,48.4879032 C47.1774194,48.2862903 47.2782258,48.0846774 47.328629,47.8830645 C48.1854839,44.5060484 46.8245968,40.1209677 43.3467742,34.7782258 C40.7762097,30.8971774 36.2903226,26.9657258 33.1653226,24.3447581 C30.5443548,22.1774194 20.8669355,14.7177419 15.0201613,10.2822581 C15.0201613,10.2822581 11.2903226,7.40927419 11.2903226,7.40927419 C11.2903226,7.35887097 11.2903226,7.30846774 11.3407258,7.25806452 C11.391129,7.15725806 11.4415323,7.00604839 11.4919355,6.85483871 C12.5,4.6875 13.1552419,4.43548387 13.7096774,4.43548387 C15.5745968,4.93951613 24.1935484,10.6350806 29.4354839,14.8185484 Z" id="Shape"></path>
                    </g>
                    <g id="PUNTOS_INTERMEDIOS_Y_SEMAFORO" transform="translate(3.528226, 26.209677)">
                        <g id="Group" transform="translate(106.350806, 75.100806)">
                            <path d="M13.608871,3.83064516 C13.608871,1.71370968 15.3225806,0 17.4899194,0 L23.3870968,0 C25.5040323,0 27.2177419,1.71370968 27.2177419,3.83064516 L27.2177419,6.25 C27.2177419,8.36693548 25.5040323,10.0806452 23.3870968,10.0806452 L17.4899194,10.0806452 C15.3729839,10.0806452 13.608871,8.36693548 13.608871,6.25 L13.608871,3.83064516 Z" id="Shape" fill="#AC1737" fill-rule="nonzero"></path>
                            <path d="M0,3.83064516 C0,1.71370968 1.71370968,0 3.88104839,0 L9.77822581,0 C11.8951613,0 13.608871,1.71370968 13.608871,3.83064516 L13.608871,6.25 C13.608871,8.36693548 11.8951613,10.0806452 9.77822581,10.0806452 L3.88104839,10.0806452 C1.7641129,10.0806452 0,8.36693548 0,6.25 L0,3.83064516 Z" id="Shape-Copy-3" fill="#AC1737" fill-rule="nonzero"></path>
                            <path d="M4.03225806,7.4732832 L4.03225806,3.02419355 L4.82139323,3.02419355 L4.82139323,6.80660004 L6.66497625,6.80660004 L6.66497625,7.4732832 L4.03225806,7.4732832 Z M7.50853453,7.4732832 L7.50853453,3.69087671 L6.22278844,3.69087671 L6.22278844,3.02419355 L9.5766129,3.02419355 L9.5766129,3.69087671 L8.2976697,3.69087671 L8.2976697,7.4732832 L7.50853453,7.4732832 Z" id="LT" fill="#FFFFFF"></path>
                            <g transform="translate(17.641129, 3.024194)" fill="#FFFFFF" fill-rule="nonzero" id="Shape">
                                <polygon points="0 0 2.52016129 0 2.52016129 0.60483871 0.756048387 0.60483871 0.756048387 1.7641129 2.26814516 1.7641129 2.26814516 2.36895161 0.756048387 2.36895161 0.756048387 4.13306452 0 4.13306452"></polygon>
                                <polygon points="3.52822581 0 4.28427419 0 4.28427419 3.57862903 5.99798387 3.57862903 5.99798387 4.18346774 3.52822581 4.18346774"></polygon>
                            </g>
                        </g>
                        <path d="M98.5887097,15.171371 C98.8407258,15.2721774 98.9415323,15.5241935 98.8407258,15.7258065 L92.641129,31.25 C92.5403226,31.5020161 92.2883065,31.6028226 92.0866935,31.5020161 C91.8850806,31.4012097 91.733871,31.1491935 91.8346774,30.9475806 L97.983871,15.4737903 C98.0846774,15.2217742 98.3366935,15.1209677 98.5887097,15.171371 Z" id="Shape" fill="#AC1737" fill-rule="nonzero"></path>
                        <path d="M65.9778226,62.5504032 C66.2298387,62.6512097 66.3306452,62.9032258 66.2298387,63.1048387 L60.0806452,78.578629 C59.9798387,78.8306452 59.7278226,78.9314516 59.5262097,78.8306452 C59.2741935,78.7298387 59.1733871,78.4778226 59.2741935,78.2762097 L65.4233871,62.8024194 C65.4737903,62.5504032 65.7258065,62.4495968 65.9778226,62.5504032 Z" id="Shape" fill="#AC1737" fill-rule="nonzero"></path>
                        <g id="Group" transform="translate(91.733871, 11.592742)" fill-rule="nonzero">
                            <path d="M0.352822581,4.13306452 C0.352822581,2.01612903 2.06653226,0.252016129 4.18346774,0.252016129 L6.75403226,0.252016129 C8.87096774,0.252016129 10.6350806,1.96572581 10.6350806,4.13306452 L10.6350806,6.70362903 C10.6350806,8.82056452 8.92137097,10.5342742 6.75403226,10.5342742 L4.18346774,10.5342742 C2.06653226,10.5342742 0.352822581,8.82056452 0.352822581,6.70362903 L0.352822581,4.13306452 Z" id="Shape" fill="#AC1737"></path>
                            <g transform="translate(3.024194, 3.024194)" fill="#FFFFFF" id="Shape">
                                <path d="M0.151209677,0.504032258 C0.151209677,0.252016129 0.352822581,0.100806452 0.60483871,0.100806452 C0.856854839,0.100806452 1.05846774,0.252016129 1.05846774,0.504032258 C1.05846774,0.756048387 0.856854839,0.907258065 0.60483871,0.907258065 C0.352822581,0.907258065 0.151209677,0.756048387 0.151209677,0.504032258 Z M0.252016129,1.46169355 L1.00806452,1.46169355 L1.00806452,4.58669355 L0.252016129,4.58669355 L0.252016129,1.46169355 Z"></path>
                                <path d="M2.26814516,3.62903226 C2.52016129,3.88104839 2.82258065,4.08266129 3.22580645,4.08266129 C3.67943548,4.08266129 3.98185484,3.83064516 3.98185484,3.47782258 C3.98185484,3.07459677 3.72983871,2.77217742 2.77217742,2.77217742 L2.77217742,2.21774194 C3.57862903,2.21774194 3.83064516,1.96572581 3.83064516,1.5625 C3.83064516,1.20967742 3.57862903,1.00806452 3.22580645,1.00806452 C2.9233871,1.00806452 2.67137097,1.15927419 2.41935484,1.41129032 L2.01612903,0.95766129 C2.36895161,0.655241935 2.77217742,0.453629032 3.22580645,0.453629032 C3.98185484,0.453629032 4.53629032,0.856854839 4.53629032,1.51209677 C4.53629032,1.96572581 4.28427419,2.26814516 3.83064516,2.46975806 L3.83064516,2.52016129 C4.33467742,2.67137097 4.6875,2.97379032 4.6875,3.52822581 C4.6875,4.28427419 4.03225806,4.6875 3.27620968,4.6875 C2.62096774,4.6875 2.16733871,4.43548387 1.91532258,4.13306452 L2.26814516,3.62903226 Z"></path>
                            </g>
                        </g>
                        <g id="Group" transform="translate(92.237903, 61.491935)" fill="#7B7C7D" fill-rule="nonzero">
                            <path d="M13.1386862,26.9008106 C13.7320318,26.9008106 13.7320318,26.6371014 13.7320318,26.3074649 L13.7979591,2.60947466 C13.7979591,2.2798382 13.53425,2.08205632 13.2705408,2.08205632 L1.60141014,2.01612903 C1.27177368,2.01612903 1.00806452,2.2798382 1.00806452,2.60947466 C1.00806452,2.93911112 1.27177368,3.20282028 1.60141014,3.20282028 L12.413486,3.26874758 C12.5453406,3.26874758 12.6112679,3.40060216 12.6112679,3.46652945 L12.5453406,26.3074649 C12.6112679,26.6371014 12.5453406,26.9008106 13.1386862,26.9008106 Z" id="Shape"></path>
                            <path d="M0.197781875,3.00869741 C-0.0659272918,2.87684282 -0.0659272918,2.54720637 0.197781875,2.41535178 L2.30745521,1.22866053 L4.41712855,0.041969278 C4.68083772,-0.0898853056 4.94454688,0.10789657 4.94454688,0.371605737 L4.94454688,2.81091553 L4.94454688,5.25022533 C4.94454688,5.5139345 4.61491042,5.71171637 4.41712855,5.57986179 L2.30745521,4.39317054 L0.197781875,3.00869741 Z" id="Shape"></path>
                        </g>
                        <g id="Group" transform="translate(98.790323, 86.189516)">
                            <path d="M0,4.13306452 C0,2.01612903 1.71370968,0.302419355 3.83064516,0.302419355 L26.9153226,0.302419355 C29.0322581,0.302419355 30.7459677,2.01612903 30.7459677,4.13306452 L30.7459677,8.31653226 C30.7459677,10.4334677 29.0322581,12.1471774 26.9153226,12.1471774 L3.83064516,12.1471774 C1.71370968,12.1471774 0,10.4334677 0,8.31653226 L0,4.13306452 Z" id="Shape" fill="#7B7C7D" fill-rule="nonzero"></path>
                            <g transform="translate(20.665323, 1.008065)" fill-rule="nonzero" id="Shape">
                                <path d="M3.98185484,10.0302419 C2.01612903,10.0302419 0.403225806,8.41733871 0.403225806,6.4516129 L0.403225806,4.03225806 C0.403225806,2.06653226 2.01612903,0.453629032 3.98185484,0.453629032 L5.34274194,0.453629032 C7.30846774,0.453629032 8.92137097,2.06653226 8.92137097,4.03225806 L8.92137097,6.4516129 C8.92137097,8.41733871 7.30846774,10.0302419 5.34274194,10.0302419 L3.98185484,10.0302419 Z" fill="#FFFFFF"></path>
                                <path d="M5.34274194,0.655241935 C7.20766129,0.655241935 8.66935484,2.16733871 8.66935484,3.98185484 L8.66935484,6.40120968 C8.66935484,8.26612903 7.15725806,9.72782258 5.34274194,9.72782258 L3.98185484,9.72782258 C2.11693548,9.72782258 0.655241935,8.21572581 0.655241935,6.40120968 L0.655241935,4.03225806 C0.655241935,2.16733871 2.16733871,0.705645161 3.98185484,0.705645161 L5.34274194,0.705645161 L5.34274194,0.655241935 Z M5.34274194,0.151209677 L3.98185484,0.151209677 C1.86491935,0.151209677 0.151209677,1.86491935 0.151209677,3.98185484 L0.151209677,6.40120968 C0.151209677,8.51814516 1.86491935,10.2318548 3.98185484,10.2318548 L5.34274194,10.2318548 C7.45967742,10.2318548 9.1733871,8.51814516 9.1733871,6.40120968 L9.1733871,4.03225806 C9.1733871,1.86491935 7.45967742,0.151209677 5.34274194,0.151209677 Z" fill="#C7C6C5"></path>
                            </g>
                            <g id="Clipped" transform="translate(20.665323, 1.008065)">
                                <mask id="mask-2" fill="white">
                                    <use xlink:href="#path-1"></use>
                                </mask>
                                <g id="SVGID_5_"></g>
                                <g id="Group" mask="url(#mask-2)" fill="#1E1E1C" fill-rule="nonzero">
                                    <g transform="translate(-3.024194, 1.008065)" id="Rectangle-path">
                                        <rect x="0.453629032" y="0" width="2.11693548" height="2.11693548"></rect>
                                        <rect x="2.57056452" y="2.06653226" width="2.11693548" height="2.11693548"></rect>
                                        <rect x="4.6875" y="0" width="2.11693548" height="2.11693548"></rect>
                                        <rect x="6.80443548" y="2.06653226" width="2.11693548" height="2.11693548"></rect>
                                        <rect x="0.453629032" y="4.18346774" width="2.11693548" height="2.11693548"></rect>
                                        <rect x="2.57056452" y="6.30040323" width="2.11693548" height="2.11693548"></rect>
                                        <rect x="4.6875" y="4.18346774" width="2.11693548" height="2.11693548"></rect>
                                        <rect x="6.80443548" y="6.30040323" width="2.11693548" height="2.11693548"></rect>
                                        <rect x="8.87096774" y="0" width="2.11693548" height="2.11693548"></rect>
                                        <rect x="10.9879032" y="2.06653226" width="2.11693548" height="2.11693548"></rect>
                                        <rect x="8.87096774" y="4.18346774" width="2.11693548" height="2.11693548"></rect>
                                        <rect x="10.9879032" y="6.30040323" width="2.11693548" height="2.11693548"></rect>
                                    </g>
                                </g>
                            </g>
                            <g transform="translate(0.504032, 1.008065)" fill-rule="nonzero" id="Shape">
                                <path d="M4.23387097,10.0302419 C2.26814516,10.0302419 0.655241935,8.41733871 0.655241935,6.4516129 L0.655241935,4.03225806 C0.655241935,2.06653226 2.26814516,0.453629032 4.23387097,0.453629032 L5.59475806,0.453629032 C7.56048387,0.453629032 9.1733871,2.06653226 9.1733871,4.03225806 L9.1733871,6.4516129 C9.1733871,8.41733871 7.56048387,10.0302419 5.59475806,10.0302419 L4.23387097,10.0302419 Z" fill="#C01724"></path>
                                <path d="M5.59475806,0.655241935 C7.45967742,0.655241935 8.92137097,2.16733871 8.92137097,3.98185484 L8.92137097,6.40120968 C8.92137097,8.26612903 7.40927419,9.72782258 5.59475806,9.72782258 L4.23387097,9.72782258 C2.36895161,9.72782258 0.907258065,8.21572581 0.907258065,6.40120968 L0.907258065,4.03225806 C0.907258065,2.16733871 2.41935484,0.705645161 4.23387097,0.705645161 L5.59475806,0.705645161 L5.59475806,0.655241935 Z M5.59475806,0.151209677 L4.23387097,0.151209677 C2.11693548,0.151209677 0.403225806,1.86491935 0.403225806,3.98185484 L0.403225806,6.40120968 C0.403225806,8.51814516 2.11693548,10.2318548 4.23387097,10.2318548 L5.59475806,10.2318548 C7.71169355,10.2318548 9.42540323,8.51814516 9.42540323,6.40120968 L9.42540323,4.03225806 C9.42540323,1.86491935 7.71169355,0.151209677 5.59475806,0.151209677 Z" fill="#AA1920"></path>
                            </g>
                            <g transform="translate(10.584677, 1.008065)" fill-rule="nonzero" id="Shape">
                                <path d="M4.08266129,10.0302419 C2.11693548,10.0302419 0.504032258,8.41733871 0.504032258,6.4516129 L0.504032258,4.03225806 C0.504032258,2.06653226 2.11693548,0.453629032 4.08266129,0.453629032 L5.44354839,0.453629032 C7.40927419,0.453629032 9.02217742,2.06653226 9.02217742,4.03225806 L9.02217742,6.4516129 C9.02217742,8.41733871 7.40927419,10.0302419 5.44354839,10.0302419 L4.08266129,10.0302419 Z" fill="#009548"></path>
                                <path d="M5.44354839,0.655241935 C7.30846774,0.655241935 8.77016129,2.16733871 8.77016129,3.98185484 L8.77016129,6.40120968 C8.77016129,8.26612903 7.25806452,9.72782258 5.44354839,9.72782258 L4.08266129,9.72782258 C2.21774194,9.72782258 0.756048387,8.21572581 0.756048387,6.40120968 L0.756048387,4.03225806 C0.756048387,2.16733871 2.26814516,0.705645161 4.08266129,0.705645161 L5.44354839,0.705645161 L5.44354839,0.655241935 Z M5.44354839,0.151209677 L4.08266129,0.151209677 C1.96572581,0.151209677 0.252016129,1.86491935 0.252016129,3.98185484 L0.252016129,6.40120968 C0.252016129,8.51814516 1.96572581,10.2318548 4.08266129,10.2318548 L5.44354839,10.2318548 C7.56048387,10.2318548 9.27419355,8.51814516 9.27419355,6.40120968 L9.27419355,4.03225806 C9.32459677,1.86491935 7.6108871,0.151209677 5.44354839,0.151209677 Z" fill="#006139"></path>
                            </g>
                            <path d="M26.0080645,1.66330645 C27.8729839,1.66330645 29.3346774,3.17540323 29.3346774,4.98991935 L29.3346774,7.40927419 C29.3346774,9.27419355 27.8225806,10.7358871 26.0080645,10.7358871 L24.6471774,10.7358871 C22.7822581,10.7358871 21.3205645,9.22379032 21.3205645,7.40927419 L21.3205645,5.04032258 C21.3205645,3.17540323 22.8326613,1.71370968 24.6471774,1.71370968 L26.0080645,1.71370968 L26.0080645,1.66330645 Z M26.0080645,1.15927419 L24.6471774,1.15927419 C22.5302419,1.15927419 20.8165323,2.87298387 20.8165323,4.98991935 L20.8165323,7.40927419 C20.8165323,9.52620968 22.5302419,11.2399194 24.6471774,11.2399194 L26.0080645,11.2399194 C28.125,11.2399194 29.8387097,9.52620968 29.8387097,7.40927419 L29.8387097,5.04032258 C29.8387097,2.87298387 28.125,1.15927419 26.0080645,1.15927419 Z" id="Shape" fill="#C7C6C5" fill-rule="nonzero"></path>
                        </g>
                        <path d="M3.62903226,30.3931452 C3.42741935,30.2419355 3.37701613,29.9899194 3.47782258,29.7883065 L12.6512097,15.8770161 C12.8024194,15.6754032 13.0544355,15.625 13.2560484,15.7258065 C13.4576613,15.8266129 13.5080645,16.1290323 13.4072581,16.3306452 L4.23387097,30.2419355 C4.13306452,30.4939516 3.83064516,30.5443548 3.62903226,30.3931452 Z" id="Shape" fill="#AC1737" fill-rule="nonzero"></path>
                        <path d="M27.8225806,15.0201613 C27.6209677,14.8689516 27.5705645,14.6169355 27.671371,14.4153226 L36.8951613,0.504032258 C37.046371,0.302419355 37.2983871,0.252016129 37.5,0.352822581 C37.7016129,0.504032258 37.7520161,0.756048387 37.6512097,0.95766129 L28.4778226,14.8689516 C28.3266129,15.0705645 28.0241935,15.1209677 27.8225806,15.0201613 Z" id="Shape" fill="#AC1737" fill-rule="nonzero"></path>
                        <g id="Group" transform="translate(0.000000, 22.177419)" fill-rule="nonzero">
                            <path d="M0.151209677,4.23387097 C0.151209677,2.11693548 1.86491935,0.403225806 4.03225806,0.403225806 L5.99798387,0.403225806 C8.11491935,0.403225806 9.87903226,2.11693548 9.87903226,4.23387097 L9.87903226,7.00604839 C9.87903226,9.12298387 8.16532258,10.8870968 5.99798387,10.8870968 L4.03225806,10.8870968 C1.91532258,10.8870968 0.151209677,9.1733871 0.151209677,7.00604839 L0.151209677,4.23387097 Z" id="Shape" fill="#AC1737"></path>
                            <g transform="translate(2.520161, 3.024194)" fill="#FFFFFF" id="Shape">
                                <path d="M0.151209677,0.756048387 C0.151209677,0.504032258 0.352822581,0.352822581 0.60483871,0.352822581 C0.856854839,0.352822581 1.05846774,0.504032258 1.05846774,0.756048387 C1.05846774,1.00806452 0.856854839,1.15927419 0.60483871,1.15927419 C0.352822581,1.20967742 0.151209677,1.00806452 0.151209677,0.756048387 Z M0.252016129,1.7641129 L1.00806452,1.7641129 L1.00806452,4.8891129 L0.252016129,4.8891129 L0.252016129,1.7641129 Z"></path>
                                <path d="M2.26814516,4.28427419 L3.17540323,4.28427419 L3.17540323,1.61290323 L2.41935484,1.61290323 L2.41935484,1.15927419 C2.82258065,1.05846774 3.125,0.95766129 3.37701613,0.806451613 L3.93145161,0.806451613 L3.93145161,4.28427419 L4.73790323,4.28427419 L4.73790323,4.8891129 L2.26814516,4.8891129 L2.26814516,4.28427419 Z"></path>
                            </g>
                        </g>
                        <g id="Group" transform="translate(24.697581, 6.048387)" fill-rule="nonzero">
                            <path d="M0,4.28427419 C0,2.16733871 1.71370968,0.403225806 3.83064516,0.403225806 L6.35080645,0.403225806 C8.46774194,0.403225806 10.2318548,2.11693548 10.2318548,4.28427419 L10.2318548,6.85483871 C10.2318548,8.97177419 8.51814516,10.7358871 6.35080645,10.7358871 L3.83064516,10.7358871 C1.71370968,10.7358871 0,9.02217742 0,6.85483871 L0,4.28427419 Z" id="Shape" fill="#AC1737"></path>
                            <g transform="translate(2.520161, 3.024194)" fill="#FFFFFF" id="Shape">
                                <path d="M0.302419355,0.705645161 C0.302419355,0.453629032 0.504032258,0.302419355 0.756048387,0.302419355 C1.00806452,0.302419355 1.20967742,0.453629032 1.20967742,0.705645161 C1.20967742,0.95766129 1.00806452,1.10887097 0.756048387,1.10887097 C0.453629032,1.10887097 0.302419355,0.95766129 0.302419355,0.705645161 Z M0.352822581,1.66330645 L1.10887097,1.66330645 L1.10887097,4.78830645 L0.352822581,4.78830645 L0.352822581,1.66330645 Z"></path>
                                <path d="M2.11693548,4.38508065 C3.22580645,3.27620968 3.98185484,2.57056452 3.98185484,1.96572581 C3.98185484,1.51209677 3.72983871,1.26008065 3.3266129,1.26008065 C3.02419355,1.26008065 2.77217742,1.46169355 2.52016129,1.71370968 L2.11693548,1.31048387 C2.46975806,0.907258065 2.87298387,0.705645161 3.42741935,0.705645161 C4.18346774,0.705645161 4.73790323,1.20967742 4.73790323,1.96572581 C4.73790323,2.67137097 4.08266129,3.42741935 3.27620968,4.28427419 C3.47782258,4.28427419 3.78024194,4.23387097 3.93145161,4.23387097 L4.93951613,4.23387097 L4.93951613,4.83870968 L2.16733871,4.83870968 L2.16733871,4.38508065 L2.11693548,4.38508065 Z"></path>
                            </g>
                        </g>
                        <g id="Group" transform="translate(55.947581, 74.092742)" fill-rule="nonzero">
                            <path d="M0.201612903,3.93145161 C0.201612903,1.81451613 1.91532258,0.100806452 4.03225806,0.100806452 L5.39314516,0.100806452 C7.51008065,0.100806452 9.22379032,1.81451613 9.22379032,3.93145161 L9.22379032,6.35080645 C9.22379032,8.46774194 7.51008065,10.1814516 5.39314516,10.1814516 L4.03225806,10.1814516 C1.91532258,10.1814516 0.201612903,8.46774194 0.201612903,6.35080645 L0.201612903,3.93145161 Z" id="Shape" fill="#AC1737"></path>
                            <path d="M3.67943548,6.19959677 C3.98185484,6.50201613 4.38508065,6.65322581 4.78830645,6.65322581 C5.24193548,6.65322581 5.49395161,6.4516129 5.49395161,6.09879032 C5.49395161,5.74596774 5.24193548,5.64516129 4.83870968,5.49395161 L4.28427419,5.24193548 C3.88104839,5.09072581 3.42741935,4.73790323 3.42741935,4.13306452 C3.42741935,3.47782258 4.03225806,2.97379032 4.83870968,2.97379032 C5.34274194,2.97379032 5.79637097,3.17540323 6.14919355,3.52822581 L5.74596774,3.98185484 C5.49395161,3.78024194 5.19153226,3.62903226 4.83870968,3.62903226 C4.43548387,3.62903226 4.18346774,3.83064516 4.18346774,4.13306452 C4.18346774,4.43548387 4.4858871,4.58669355 4.83870968,4.73790323 L5.39314516,4.98991935 C5.89717742,5.19153226 6.25,5.49395161 6.25,6.09879032 C6.25,6.75403226 5.69556452,7.35887097 4.73790323,7.35887097 C4.18346774,7.35887097 3.62903226,7.15725806 3.22580645,6.75403226 L3.67943548,6.19959677 Z" id="Shape" fill="#FFFFFF"></path>
                        </g>
                    </g>
                    <g id="textos_y_numeros" fill="#7B7C7D" fill-rule="nonzero">
                        <path d="M50.1512097,96.7741935 L51.1592742,96.7741935 L51.1592742,93.8004032 L50.3024194,93.8004032 L50.3024194,93.296371 C50.7560484,93.1955645 51.0584677,93.0947581 51.3608871,92.9435484 L51.9657258,92.9435484 L51.9657258,96.7741935 L52.8729839,96.7741935 L52.8729839,97.4294355 L50.1512097,97.4294355 L50.1512097,96.7741935 Z" id="Shape"></path>
                        <path d="M41.5826613,89.3649194 C42.8427419,88.1552419 43.6491935,87.3487903 43.6491935,86.6431452 C43.6491935,86.1895161 43.3971774,85.8366935 42.8931452,85.8366935 C42.5403226,85.8366935 42.2379032,86.0887097 41.9858871,86.3407258 L41.5322581,85.8870968 C41.9354839,85.4334677 42.3387097,85.1814516 42.9939516,85.1814516 C43.8508065,85.1814516 44.4052419,85.7358871 44.4052419,86.5927419 C44.4052419,87.3991935 43.6491935,88.2056452 42.7419355,89.1633065 C42.9939516,89.1633065 43.296371,89.1129032 43.4979839,89.1129032 L44.6068548,89.1129032 L44.6068548,89.8185484 L41.5322581,89.8185484 L41.5322581,89.3649194 L41.5826613,89.3649194 Z" id="Shape"></path>
                        <path d="M31.6532258,77.8729839 L31.0987903,77.8729839 L31.0987903,79.0322581 L30.3427419,79.0322581 L30.3427419,77.8729839 L28.3266129,77.8729839 L28.3266129,77.3185484 L30.141129,74.4959677 L31.0987903,74.4959677 L31.0987903,77.2177419 L31.6532258,77.2177419 L31.6532258,77.8729839 Z M30.2923387,77.2177419 L30.2923387,76.2096774 C30.2923387,75.9576613 30.2923387,75.5544355 30.3427419,75.2520161 L30.2923387,75.2520161 C30.1915323,75.5040323 30.0403226,75.7056452 29.9395161,75.9576613 L29.1330645,77.2177419 L30.2923387,77.2177419 Z" id="Shape"></path>
                        <path d="M17.1370968,58.3165323 C17.3891129,58.5685484 17.7419355,58.8205645 18.1955645,58.8205645 C18.6995968,58.8205645 19.0524194,58.5181452 19.0524194,57.9637097 C19.0524194,57.4092742 18.6995968,57.1068548 18.1955645,57.1068548 C17.8931452,57.1068548 17.7419355,57.2076613 17.4899194,57.358871 L17.0866935,57.1068548 L17.2379032,54.8891129 L19.6572581,54.8891129 L19.6572581,55.5947581 L17.9435484,55.5947581 L17.8427419,56.703629 C18.0443548,56.6028226 18.1955645,56.5524194 18.4475806,56.5524194 C19.203629,56.5524194 19.858871,57.0060484 19.858871,57.9637097 C19.858871,58.9717742 19.1028226,59.5262097 18.2459677,59.5262097 C17.4899194,59.5262097 17.0362903,59.2237903 16.6834677,58.921371 L17.1370968,58.3165323 Z" id="Shape"></path>
                        <path d="M3.02419355,29.7883065 C2.87298387,29.5866935 2.57056452,29.4354839 2.31854839,29.4354839 C1.7641129,29.4354839 1.31048387,29.8387097 1.26008065,31.0987903 C1.51209677,30.7459677 1.91532258,30.5443548 2.21774194,30.5443548 C3.02419355,30.5443548 3.52822581,30.9979839 3.52822581,31.9556452 C3.52822581,32.8629032 2.87298387,33.4173387 2.11693548,33.4173387 C1.20967742,33.4173387 0.453629032,32.7116935 0.453629032,31.1995968 C0.453629032,29.4354839 1.31048387,28.7298387 2.21774194,28.7298387 C2.77217742,28.7298387 3.17540323,28.9818548 3.42741935,29.233871 L3.02419355,29.7883065 Z M2.77217742,32.0060484 C2.77217742,31.4516129 2.52016129,31.1995968 2.06653226,31.1995968 C1.81451613,31.1995968 1.51209677,31.3508065 1.26008065,31.703629 C1.3608871,32.5100806 1.66330645,32.8629032 2.11693548,32.8629032 C2.46975806,32.8629032 2.77217742,32.5604839 2.77217742,32.0060484 Z" id="Shape"></path>
                        <path d="M59.9294355,51.5120968 L57.8125,51.5120968 L57.8125,50.8064516 L60.8366935,50.8064516 L60.8366935,51.3104839 C59.7782258,52.6209677 59.5766129,53.578629 59.5262097,55.3427419 L58.6693548,55.3427419 C58.7701613,53.7298387 59.0725806,52.7217742 59.9294355,51.5120968 Z" id="Shape"></path>
                        <path d="M16.1794355,2.46975806 C15.8266129,2.21774194 15.5745968,1.86491935 15.5745968,1.3608871 C15.5745968,0.60483871 16.1794355,0.151209677 16.9354839,0.151209677 C17.7419355,0.151209677 18.2459677,0.655241935 18.2459677,1.3608871 C18.2459677,1.81451613 17.9435484,2.16733871 17.641129,2.41935484 L17.641129,2.46975806 C18.0443548,2.72177419 18.4475806,3.02419355 18.4475806,3.62903226 C18.4475806,4.33467742 17.8427419,4.83870968 16.9354839,4.83870968 C16.0282258,4.83870968 15.4233871,4.33467742 15.4233871,3.57862903 C15.3729839,3.07459677 15.7258065,2.72177419 16.1794355,2.46975806 Z M16.8850806,4.28427419 C17.3387097,4.28427419 17.641129,4.03225806 17.641129,3.62903226 C17.641129,3.125 17.1875,2.97379032 16.5322581,2.72177419 C16.2298387,2.9233871 16.0282258,3.22580645 16.0282258,3.57862903 C16.078629,4.03225806 16.4314516,4.28427419 16.8850806,4.28427419 Z M17.5907258,1.46169355 C17.5907258,1.05846774 17.3387097,0.756048387 16.9354839,0.756048387 C16.5826613,0.756048387 16.3306452,1.00806452 16.3306452,1.3608871 C16.3306452,1.81451613 16.733871,2.01612903 17.2379032,2.21774194 C17.4395161,2.01612903 17.5907258,1.7641129 17.5907258,1.46169355 Z" id="Shape"></path>
                        <path d="M82.358871,64.0120968 C82.5100806,64.2137097 82.8125,64.3649194 83.0645161,64.3649194 C83.6189516,64.3649194 84.0725806,63.9616935 84.1229839,62.7016129 C83.8709677,63.0040323 83.4677419,63.2056452 83.1149194,63.2056452 C82.358871,63.2056452 81.8044355,62.7520161 81.8044355,61.7943548 C81.8044355,60.8870968 82.4596774,60.3326613 83.2157258,60.3326613 C84.1229839,60.3326613 84.828629,61.0383065 84.828629,62.5504032 C84.828629,64.3145161 83.9717742,65.0201613 83.0645161,65.0201613 C82.5100806,65.0201613 82.1068548,64.7681452 81.8548387,64.516129 L82.358871,64.0120968 Z M84.1733871,62.0967742 C84.0725806,61.2903226 83.7701613,60.9375 83.3165323,60.9375 C82.9637097,60.9375 82.6612903,61.2399194 82.6612903,61.7943548 C82.6612903,62.3487903 82.9133065,62.6008065 83.3669355,62.6008065 C83.6189516,62.6512097 83.921371,62.5 84.1733871,62.0967742 Z" id="Shape"></path>
                        <g id="Group" transform="translate(84.173387, 43.346774)">
                            <path d="M0.100806452,3.93145161 L1.10887097,3.93145161 L1.10887097,0.95766129 L0.252016129,0.95766129 L0.252016129,0.453629032 C0.705645161,0.352822581 1.00806452,0.252016129 1.31048387,0.100806452 L1.91532258,0.100806452 L1.91532258,3.93145161 L2.82258065,3.93145161 L2.82258065,4.58669355 L0.100806452,4.58669355 L0.100806452,3.93145161 Z" id="Shape"></path>
                            <path d="M3.52822581,2.31854839 C3.52822581,0.806451613 4.13306452,0 5.04032258,0 C5.94758065,0 6.55241935,0.806451613 6.55241935,2.31854839 C6.55241935,3.83064516 5.94758065,4.6875 5.04032258,4.6875 C4.13306452,4.6875 3.52822581,3.83064516 3.52822581,2.31854839 Z M5.79637097,2.31854839 C5.79637097,1.05846774 5.49395161,0.655241935 5.04032258,0.655241935 C4.58669355,0.655241935 4.28427419,1.05846774 4.28427419,2.31854839 C4.28427419,3.57862903 4.58669355,4.03225806 5.04032258,4.03225806 C5.49395161,4.03225806 5.79637097,3.57862903 5.79637097,2.31854839 Z" id="Shape"></path>
                        </g>
                        <g id="Group" transform="translate(135.080645, 60.483871)">
                            <path d="M0.151209677,3.83064516 L1.15927419,3.83064516 L1.15927419,0.856854839 L0.302419355,0.856854839 L0.302419355,0.352822581 C0.756048387,0.252016129 1.05846774,0.151209677 1.3608871,-1.42108547e-14 L1.96572581,-1.42108547e-14 L1.96572581,3.83064516 L2.87298387,3.83064516 L2.87298387,4.4858871 L0.151209677,4.4858871 L0.151209677,3.83064516 Z" id="Shape"></path>
                            <path d="M3.83064516,3.83064516 L4.83870968,3.83064516 L4.83870968,0.856854839 L3.98185484,0.856854839 L3.98185484,0.352822581 C4.43548387,0.252016129 4.73790323,0.151209677 5.04032258,-1.42108547e-14 L5.64516129,-1.42108547e-14 L5.64516129,3.83064516 L6.55241935,3.83064516 L6.55241935,4.4858871 L3.83064516,4.4858871 L3.83064516,3.83064516 Z" id="Shape"></path>
                        </g>
                        <g id="Group" transform="translate(112.399194, 74.596774)">
                            <path d="M0.252016129,4.4858871 L1.26008065,4.4858871 L1.26008065,1.51209677 L0.403225806,1.51209677 L0.403225806,1.00806452 C0.856854839,0.907258065 1.15927419,0.806451613 1.46169355,0.655241935 L2.06653226,0.655241935 L2.06653226,4.4858871 L2.97379032,4.4858871 L2.97379032,5.14112903 L0.252016129,5.14112903 L0.252016129,4.4858871 Z" id="Shape"></path>
                            <path d="M3.62903226,4.63709677 C4.8891129,3.42741935 5.69556452,2.62096774 5.69556452,1.91532258 C5.69556452,1.46169355 5.44354839,1.10887097 4.93951613,1.10887097 C4.58669355,1.10887097 4.28427419,1.3608871 4.03225806,1.61290323 L3.57862903,1.15927419 C3.98185484,0.705645161 4.38508065,0.453629032 5.04032258,0.453629032 C5.89717742,0.453629032 6.4516129,1.00806452 6.4516129,1.86491935 C6.4516129,2.67137097 5.69556452,3.47782258 4.78830645,4.43548387 C5.04032258,4.43548387 5.34274194,4.38508065 5.54435484,4.38508065 L6.65322581,4.38508065 L6.65322581,5.09072581 L3.57862903,5.09072581 L3.57862903,4.63709677 L3.62903226,4.63709677 Z" id="Shape"></path>
                        </g>
                        <g id="Group" transform="translate(151.209677, 83.669355)">
                            <path d="M0.403225806,4.38508065 L1.41129032,4.38508065 L1.41129032,1.41129032 L0.554435484,1.41129032 L0.554435484,0.907258065 C1.00806452,0.806451613 1.31048387,0.705645161 1.61290323,0.554435484 L2.21774194,0.554435484 L2.21774194,4.38508065 L3.125,4.38508065 L3.125,5.04032258 L0.403225806,5.04032258 L0.403225806,4.38508065 Z" id="Shape"></path>
                            <path d="M4.08266129,3.98185484 C4.33467742,4.28427419 4.6875,4.4858871 5.14112903,4.4858871 C5.64516129,4.4858871 5.99798387,4.23387097 5.99798387,3.78024194 C5.99798387,3.3266129 5.69556452,3.02419355 4.6875,3.02419355 L4.6875,2.41935484 C5.59475806,2.41935484 5.84677419,2.11693548 5.84677419,1.71370968 C5.84677419,1.3608871 5.59475806,1.10887097 5.19153226,1.10887097 C4.83870968,1.10887097 4.53629032,1.26008065 4.28427419,1.51209677 L3.88104839,1.00806452 C4.28427419,0.655241935 4.6875,0.453629032 5.24193548,0.453629032 C6.09879032,0.453629032 6.70362903,0.856854839 6.70362903,1.66330645 C6.70362903,2.16733871 6.40120968,2.52016129 5.89717742,2.72177419 L5.89717742,2.77217742 C6.4516129,2.9233871 6.85483871,3.27620968 6.85483871,3.88104839 C6.85483871,4.6875 6.14919355,5.19153226 5.29233871,5.19153226 C4.53629032,5.19153226 4.08266129,4.8891129 3.78024194,4.53629032 L4.08266129,3.98185484 Z" id="Shape"></path>
                        </g>
                        <g id="Group" transform="translate(149.193548, 99.294355)">
                            <path d="M0,4.28427419 L1.00806452,4.28427419 L1.00806452,1.31048387 L0.151209677,1.31048387 L0.151209677,0.806451613 C0.60483871,0.705645161 0.907258065,0.60483871 1.20967742,0.453629032 L1.81451613,0.453629032 L1.81451613,4.28427419 L2.72177419,4.28427419 L2.72177419,4.93951613 L0,4.93951613 L0,4.28427419 Z" id="Shape"></path>
                            <path d="M6.60282258,3.78024194 L6.0483871,3.78024194 L6.0483871,4.93951613 L5.29233871,4.93951613 L5.29233871,3.78024194 L3.27620968,3.78024194 L3.27620968,3.22580645 L5.09072581,0.403225806 L6.0483871,0.403225806 L6.0483871,3.125 L6.60282258,3.125 L6.60282258,3.78024194 Z M5.24193548,3.17540323 L5.24193548,2.16733871 C5.24193548,1.91532258 5.24193548,1.51209677 5.29233871,1.20967742 L5.24193548,1.20967742 C5.14112903,1.46169355 4.98991935,1.66330645 4.8891129,1.91532258 L4.08266129,3.17540323 L5.24193548,3.17540323 Z" id="Shape"></path>
                        </g>
                        <path d="M46.875,66.8850806 C47.1270161,67.1875 47.4798387,67.3891129 47.9334677,67.3891129 C48.4375,67.3891129 48.7903226,67.1370968 48.7903226,66.6834677 C48.7903226,66.2298387 48.4879032,65.9274194 47.4798387,65.9274194 L47.4798387,65.3225806 C48.3870968,65.3225806 48.6391129,65.0201613 48.6391129,64.6169355 C48.6391129,64.2641129 48.3870968,64.0120968 47.983871,64.0120968 C47.6310484,64.0120968 47.328629,64.1633065 47.0766129,64.4153226 L46.6733871,63.9112903 C47.0766129,63.5584677 47.4798387,63.3568548 48.0342742,63.3568548 C48.891129,63.3568548 49.4959677,63.7600806 49.4959677,64.5665323 C49.4959677,65.0705645 49.1935484,65.4233871 48.6895161,65.625 L48.6895161,65.6754032 C49.2439516,65.8266129 49.6471774,66.1794355 49.6471774,66.7842742 C49.6471774,67.5907258 48.9415323,68.0947581 48.0846774,68.0947581 C47.328629,68.0947581 46.875,67.7923387 46.5725806,67.4395161 L46.875,66.8850806 Z" id="Shape"></path>
                    </g>
                    <rect id="Rectangle" fill="#AC1737" fill-rule="nonzero" transform="translate(130.500000, 98.000000) rotate(3.000000) translate(-130.500000, -98.000000) " x="130" y="93.5" width="1" height="9"></rect>
                    <rect id="Rectangle-Copy" fill="#AC1737" fill-rule="nonzero" transform="translate(116.656743, 97.514708) rotate(2.000000) translate(-116.656743, -97.514708) " x="116.156743" y="93.0147085" width="1" height="9"></rect>
                </g>
            </g>
        </g>
    </g>
</svg>