<?xml version="1.0" encoding="UTF-8"?>
<svg width="113px" height="125px" viewBox="0 0 113 125" version="1.1" xmlns="http://www.w3.org/2000/svg" xmlns:xlink="http://www.w3.org/1999/xlink">
    <!-- Generator: sketchtool 51.2 (57519) - http://www.bohemiancoding.com/sketch -->
    <title>BB959230-0FF1-4BF8-B8C5-CE3E32A0CA73</title>
    <desc>Created with sketchtool.</desc>
    <defs>
        <path d="M0.358606557,4.14959016 C0.358606557,1.99795082 2.10040984,0.256147541 4.25204918,0.256147541 L5.6352459,0.256147541 C7.78688525,0.256147541 9.52868852,1.99795082 9.52868852,4.14959016 L9.52868852,6.60860656 C9.52868852,8.7602459 7.78688525,10.5020492 5.6352459,10.5020492 L4.25204918,10.5020492 C2.10040984,10.5020492 0.358606557,8.7602459 0.358606557,6.60860656 L0.358606557,4.14959016 Z" id="path-1"></path>
    </defs>
    <g id="Page-1" stroke="none" stroke-width="1" fill="none" fill-rule="evenodd">
        <g id="Circuit_info_05" transform="translate(-1160.000000, -498.000000)">
            <g id="assets/circuits_info/104" transform="translate(1116.000000, 498.000000)">
                <g id="assets/circuits_info/Silverstone-circuit" transform="translate(44.000000, 0.000000)">
                    <g id="trazado" transform="translate(28.176230, 9.221311)" fill="#B7B5B6" fill-rule="nonzero">
                        <path d="M31.0963115,111.116803 C31.0963115,111.116803 31.0963115,111.116803 31.0963115,111.116803 C30.2254098,111.116803 29.4057377,110.963115 28.6885246,110.706967 C26.9467213,110.040984 25.7684426,108.657787 25.6147541,108.504098 C25.307377,108.145492 25.2561475,108.043033 23.7704918,105.379098 L23.6168033,105.122951 C22.182377,102.561475 19.4159836,99.692623 19.3647541,99.6413934 C19.1086066,99.3852459 12.397541,92.8278689 11.1680328,91.5983607 L9.83606557,92.9815574 C9.68237705,93.1352459 8.70901639,94.0061475 7.37704918,94.0061475 C6.71106557,94.0061475 6.04508197,93.8012295 5.48155738,93.3401639 C4.09836066,92.2643443 3.17622951,91.1372951 3.125,91.0860656 C0.461065574,87.807377 0.153688525,84.9897541 0.102459016,84.477459 C2.35922393e-16,83.3504098 0.358606557,82.7356557 0.614754098,82.3770492 L6.65983607,73.1557377 C8.40163934,70.5430328 16.9569672,57.4795082 17.3155738,56.9672131 C17.8278689,56.25 18.4938525,55.7377049 19.3135246,55.3790984 C20.1331967,55.0204918 21.2602459,54.7643443 22.6946721,54.6618852 C24.0778689,54.5594262 27.5102459,54.9180328 27.6639344,54.9692623 L27.7151639,54.9692623 C27.7151639,54.9692623 28.6372951,55.1229508 29.8668033,55.1229508 C30.6352459,55.1229508 31.3012295,55.0717213 31.9159836,54.9692623 C33.7090164,54.6106557 34.9897541,53.432377 34.9897541,53.432377 L43.2889344,45.7479508 C43.4938525,45.5942623 44.3647541,44.8258197 45.5942623,44.6721311 C47.2848361,44.4672131 48.2581967,46.0040984 48.3094262,46.1577869 L48.4118852,46.3627049 C48.4631148,46.5163934 50.0512295,50.4610656 50.5635246,51.7930328 C50.6659836,52.0491803 50.7172131,52.2028689 50.7684426,52.3053279 C50.7684426,52.3053279 50.7684426,52.3053279 50.7684426,52.3053279 C50.7684426,52.3053279 50.7684426,52.3053279 50.8196721,52.2540984 C51.5368852,50.5122951 51.7418033,49.897541 51.7418033,49.897541 C52.5614754,46.8237705 52.4077869,44.0061475 52.4077869,44.0061475 C52.4077869,43.5963115 52.3053279,43.0327869 52.2540984,42.7254098 C52.1516393,42.6229508 51.9467213,42.4180328 51.7930328,42.2643443 L26.2807377,22.182377 C26.2295082,22.1311475 22.1311475,18.852459 21.0040984,18.0327869 C20.1844262,17.3668033 19.1086066,17.3155738 19.1086066,17.3155738 C19.057377,17.3155738 19.0061475,17.3155738 18.9036885,17.3155738 C18.545082,17.3155738 17.8790984,17.4180328 17.0594262,17.8278689 C16.4959016,18.0840164 16.4446721,18.5963115 16.4446721,18.75 L16.4446721,18.8012295 L16.4446721,18.852459 L16.3422131,22.8995902 C16.0860656,25.307377 14.4979508,26.6393443 13.1147541,27.0491803 C12.7561475,27.1516393 12.2438525,27.3053279 11.5778689,27.3053279 C10.3483607,27.3053279 9.22131148,26.7930328 8.24795082,25.8196721 C6.60860656,24.1803279 6.76229508,22.182377 7.12090164,21.2602459 L10.2459016,13.6270492 C11.8852459,10.1946721 13.9344262,8.19672131 15.4713115,6.76229508 C17.2131148,5.07172131 19.9795082,4.50819672 20.3381148,4.4057377 L22.3360656,4.04713115 L40.6762295,1.07581967 C41.4446721,0.973360656 45.0819672,0.409836066 45.4405738,0.409836066 C45.4405738,0.409836066 45.4918033,0.409836066 45.5430328,0.409836066 C45.8504098,0.358606557 46.3114754,0.256147541 46.977459,0.256147541 C47.8995902,0.256147541 48.8217213,0.409836066 49.692623,0.768442623 C51.9467213,1.63934426 53.125,3.63729508 53.227459,3.84221311 L53.2786885,3.94467213 C56.4036885,10.6045082 57.5819672,16.5471311 57.5819672,16.8032787 C57.8381148,18.442623 58.2479508,21.3627049 58.2991803,21.4651639 C58.3504098,21.8237705 59.170082,28.9446721 59.3237705,30.8913934 C59.477459,32.5307377 60.2459016,33.8627049 60.5532787,34.375 C60.7069672,34.6311475 61.1168033,35.1946721 61.4754098,35.6557377 C61.8852459,36.1680328 62.2438525,36.6803279 62.4487705,37.0389344 C63.1147541,38.1659836 63.0122951,39.8565574 62.8586066,40.625 C62.807377,40.932377 62.6536885,41.4446721 62.3463115,42.4180328 C61.9364754,43.852459 61.2192623,46.2602459 61.1168033,47.182377 C61.0143443,48.2581967 61.3217213,49.2827869 61.8852459,50 C62.0901639,50.2561475 62.295082,50.5122951 62.5512295,50.7684426 C63.4733607,51.7930328 64.0368852,52.5102459 64.3442623,52.920082 C64.9077869,53.7397541 65.3688525,55.3278689 64.9590164,57.3258197 C64.4979508,59.5286885 62.704918,60.7069672 61.6803279,61.2192623 C61.2192623,61.4754098 60.6045082,61.6290984 60.0409836,61.7827869 C59.5286885,61.9364754 58.9651639,62.0901639 58.6065574,62.295082 C58.2991803,62.5 58.1967213,62.6536885 57.9918033,63.2172131 C57.9405738,63.3196721 57.8893443,63.4221311 57.8381148,63.5245902 C57.5307377,64.2418033 56.1987705,67.2131148 56.1987705,67.2131148 L42.5204918,98.1557377 C42.4180328,98.3606557 39.5491803,103.790984 38.0635246,106.25 C36.4754098,108.862705 35.7069672,109.477459 34.272541,110.348361 C33.4528689,110.860656 32.3258197,111.116803 31.0963115,111.116803 Z M11.2704918,88.7807377 C11.7315574,88.7807377 12.4487705,88.9344262 13.0635246,89.5491803 C13.8831967,90.3688525 21.2602459,97.6434426 21.3627049,97.6946721 C21.5163934,97.8483607 24.4877049,100.922131 26.0758197,103.790984 L26.2295082,104.047131 C27.5102459,106.352459 27.6639344,106.608607 27.7663934,106.762295 C27.9713115,107.018443 28.7397541,107.786885 29.6106557,108.094262 C30.0204918,108.247951 30.5327869,108.29918 31.045082,108.29918 C31.7622951,108.29918 32.4282787,108.145492 32.8381148,107.889344 C33.8114754,107.32582 34.272541,107.018443 35.6557377,104.764344 C37.0389344,102.459016 39.7540984,97.2848361 40.0102459,96.8237705 L53.9446721,66.1372951 C53.9446721,66.1372951 55.2766393,63.1659836 55.5840164,62.4487705 C55.6352459,62.3463115 55.6352459,62.295082 55.6864754,62.192623 C55.942623,61.5266393 56.352459,60.6045082 57.5307377,59.9385246 C58.1454918,59.579918 58.8627049,59.375 59.5286885,59.170082 C59.9897541,59.0163934 60.3995902,58.9139344 60.6557377,58.7602459 C61.2192623,58.4528689 62.2438525,57.7868852 62.5,56.7110656 C62.7561475,55.4815574 62.4487705,54.6618852 62.3463115,54.5081967 C62.1413934,54.2008197 61.3217213,53.2786885 60.7581967,52.5614754 C60.5020492,52.2540984 60.2971311,51.9979508 60.0922131,51.7418033 C59.0163934,50.4610656 58.5040984,48.6680328 58.6577869,46.875 C58.7602459,45.7479508 59.3237705,43.8012295 59.9897541,41.5983607 C60.1946721,40.932377 60.3995902,40.2151639 60.4508197,40.0102459 C60.5532787,39.3954918 60.5020492,38.5758197 60.3995902,38.3709016 C60.2459016,38.1147541 59.8872951,37.6536885 59.579918,37.2438525 C59.170082,36.6803279 58.7602459,36.1168033 58.5040984,35.7069672 C58.0942623,34.9897541 57.1209016,33.2991803 56.9159836,31.0963115 C56.7110656,29.1495902 55.8913934,21.8237705 55.8913934,21.772541 C55.8913934,21.772541 55.4815574,18.852459 55.2254098,17.2643443 C55.2254098,17.2131148 54.0983607,11.4754098 51.1270492,5.12295082 C51.0245902,4.91803279 50.2561475,3.79098361 49.0266393,3.27868852 C48.4631148,3.07377049 47.8995902,2.92008197 47.2848361,2.92008197 C46.875,2.92008197 46.567623,2.97131148 46.3627049,3.02254098 C46.2090164,3.02254098 46.1065574,3.07377049 46.0553279,3.07377049 C45.7991803,3.125 43.0840164,3.48360656 41.4446721,3.7397541 L23.1557377,6.71106557 L21.2090164,7.06967213 C20.5942623,7.17213115 18.75,7.73565574 17.7254098,8.70901639 C16.2909836,10.0409836 14.5491803,11.7315574 13.1147541,14.7028689 L10.0409836,22.182377 C9.9897541,22.3360656 9.83606557,23.0532787 10.5532787,23.8217213 C11.0143443,24.2827869 11.4754098,24.4877049 11.9364754,24.4877049 C12.192623,24.4877049 12.4487705,24.4364754 12.602459,24.3852459 C12.9610656,24.2827869 13.7807377,23.8729508 13.9344262,22.5922131 L14.0368852,18.75 C13.9856557,17.8278689 14.3954918,16.1372951 16.1885246,15.2663934 C17.4692623,14.6516393 18.545082,14.4979508 19.2110656,14.4979508 C19.3647541,14.4979508 19.4672131,14.4979508 19.5184426,14.4979508 C19.8770492,14.4979508 21.5163934,14.6516393 22.9508197,15.7786885 C24.0778689,16.6495902 28.0737705,19.8258197 28.227459,19.9795082 L53.6885246,40.0614754 C54.0983607,40.3688525 54.9180328,41.0860656 55.1229508,41.9057377 C55.2766393,42.5204918 55.3278689,43.5963115 55.3790984,43.8012295 C55.3790984,43.954918 55.5327869,47.079918 54.6106557,50.5635246 C54.5594262,50.6659836 54.4057377,51.3319672 53.5348361,53.329918 L53.4836066,53.432377 C53.0737705,54.2008197 52.1516393,55.0717213 50.9221311,54.9692623 C49.6413934,54.8668033 48.8217213,54.4569672 48.1557377,52.6639344 C47.7459016,51.5368852 46.4139344,48.2069672 46.1065574,47.4897541 C46.0553279,47.4385246 46.0553279,47.4385246 46.0040984,47.3872951 C45.6967213,47.4385246 45.3381148,47.6946721 45.2868852,47.7459016 L36.9877049,55.3790984 C36.9364754,55.4303279 35.1434426,57.1209016 32.5307377,57.6331967 C31.7622951,57.7868852 30.8913934,57.8381148 29.9692623,57.8381148 C28.6885246,57.8381148 27.6639344,57.6844262 27.4590164,57.6844262 C27.1004098,57.6331967 24.1290984,57.3258197 23.0020492,57.4282787 C21.567623,57.5307377 20.9016393,57.7356557 20.5942623,57.8893443 C20.1844262,58.0430328 19.9282787,58.2991803 19.6721311,58.6577869 C19.3135246,59.170082 13.1659836,68.4938525 9.11885246,74.692623 L2.97131148,84.0163934 C2.97131148,84.067623 2.97131148,84.1188525 2.97131148,84.272541 C2.97131148,84.5286885 3.22745902,86.6290984 5.37909836,89.3442623 C5.37909836,89.3442623 6.14754098,90.2663934 7.27459016,91.1372951 C7.37704918,91.2397541 7.42827869,91.2397541 7.4795082,91.2397541 C7.63319672,91.2397541 7.88934426,91.0860656 7.99180328,90.9836066 L9.42622951,89.4467213 C9.57991803,89.3954918 10.2971311,88.7807377 11.2704918,88.7807377 Z" id="Shape"></path>
                    </g>
                    <g id="PUNTOS_INTERMEDIOS_Y_SEMAFORO">
                        <path d="M82.8893443,104.354508 C82.7868852,104.610656 82.5307377,104.713115 82.3258197,104.610656 L69.3135246,99.897541 C69.057377,99.795082 68.954918,99.5389344 69.057377,99.3340164 C69.1598361,99.0778689 69.4159836,98.9754098 69.6209016,99.0778689 L82.6331967,103.790984 C82.8381148,103.893443 82.9918033,104.14959 82.8893443,104.354508 Z" id="Shape" fill="#AC1737" fill-rule="nonzero"></path>
                        <g id="Group" transform="translate(0.000000, 46.106557)" fill-rule="nonzero">
                            <path d="M76.8442623,55.1229508 C76.8442623,52.9713115 78.5860656,51.2295082 80.7377049,51.2295082 L82.1209016,51.2295082 C84.272541,51.2295082 86.0143443,52.9713115 86.0143443,55.1229508 L86.0143443,57.5819672 C86.0143443,59.7336066 84.272541,61.4754098 82.1209016,61.4754098 L80.7377049,61.4754098 C78.5860656,61.4754098 76.8442623,59.7336066 76.8442623,57.5819672 L76.8442623,55.1229508 Z" id="Shape" fill="#AC1737"></path>
                            <path d="M54.2520492,4.93096177 L82.4695734,7.39967526 L82.3802745,8.42036654 L54.2520492,5.9594657 L54.2520492,6.35245902 C54.2520492,8.50409836 52.5102459,10.2459016 50.3586066,10.2459016 L48.9754098,10.2459016 C46.8237705,10.2459016 45.0819672,8.50409836 45.0819672,6.35245902 L45.0819672,3.89344262 C45.0819672,1.74180328 46.8237705,0 48.9754098,0 L50.3586066,0 C52.5102459,0 54.2520492,1.74180328 54.2520492,3.89344262 L54.2520492,4.93096177 Z" id="Combined-Shape" fill="#AC1737"></path>
                            <path d="M9.17008197,37.717847 L37.3876062,40.1865605 L37.2983073,41.2072518 L9.17008197,38.746351 L9.17008197,39.1393443 C9.17008197,41.2909836 7.42827869,43.0327869 5.27663934,43.0327869 L3.89344262,43.0327869 C1.74180328,43.0327869 0,41.2909836 0,39.1393443 L0,36.6803279 C0,34.5286885 1.74180328,32.7868852 3.89344262,32.7868852 L5.27663934,32.7868852 C7.42827869,32.7868852 9.17008197,34.5286885 9.17008197,36.6803279 L9.17008197,37.717847 Z" id="Combined-Shape-Copy" fill="#AC1737"></path>
                            <path d="M102.971311,16.3934426 L86.0655738,16.3934426 L86.0655738,15.3688525 L102.971311,15.3688525 L102.971311,14.6516393 C102.971311,12.5 104.713115,10.7581967 106.864754,10.7581967 L108.247951,10.7581967 C110.39959,10.7581967 112.141393,12.5 112.141393,14.6516393 L112.141393,17.1106557 C112.141393,19.2622951 110.39959,21.0040984 108.247951,21.0040984 L106.864754,21.0040984 C104.713115,21.0040984 102.971311,19.2622951 102.971311,17.1106557 L102.971311,16.3934426 Z" id="Combined-Shape" fill="#AC1737"></path>
                            <path d="M80.4815574,57.4282787 C80.7889344,57.7356557 81.1987705,57.8893443 81.6086066,57.8893443 C82.0696721,57.8893443 82.3258197,57.6844262 82.3258197,57.3258197 C82.3258197,56.9672131 82.0696721,56.8647541 81.6598361,56.7110656 L81.0963115,56.454918 C80.6864754,56.3012295 80.2254098,55.942623 80.2254098,55.3278689 C80.2254098,54.6618852 80.8401639,54.1495902 81.6598361,54.1495902 C82.1721311,54.1495902 82.6331967,54.3545082 82.9918033,54.7131148 L82.5819672,55.1741803 C82.3258197,54.9692623 82.0184426,54.8155738 81.6598361,54.8155738 C81.25,54.8155738 80.9938525,55.0204918 80.9938525,55.3278689 C80.9938525,55.6352459 81.3012295,55.7889344 81.6598361,55.942623 L82.2233607,56.1987705 C82.7356557,56.4036885 83.0942623,56.7110656 83.0942623,57.3258197 C83.0942623,57.9918033 82.5307377,58.6065574 81.557377,58.6065574 C80.9938525,58.6065574 80.4303279,58.4016393 80.0204918,57.9918033 L80.4815574,57.4282787 Z" id="Shape" fill="#FFFFFF"></path>
                        </g>
                        <g id="Group" transform="translate(44.057377, 1.024590)" fill-rule="nonzero">
                            <path d="M8.46936649,10.5020492 L9.32377049,16.8032787 C9.32377049,16.9057377 9.42622951,16.9569672 9.52868852,16.9569672 L17.8790984,15.7786885 C18.1352459,15.7786885 18.3401639,15.932377 18.3913934,16.1885246 C18.3913934,16.4446721 18.2377049,16.6495902 17.9815574,16.7008197 L9.01639344,17.9815574 C8.81147541,18.0327869 8.60655738,17.8790984 8.55532787,17.6229508 L7.55840164,10.5020492 L4.20081967,10.5020492 C2.04918033,10.5020492 0.256147541,8.7602459 0.256147541,6.60860656 L0.256147541,4.14959016 C0.256147541,1.99795082 1.99795082,0.256147541 4.20081967,0.256147541 L10.1946721,0.256147541 C12.3463115,0.256147541 14.0881148,1.99795082 14.0881148,4.14959016 L14.0881148,6.60860656 C14.0881148,8.7602459 12.3463115,10.5020492 10.1946721,10.5020492 L8.46936649,10.5020492 Z" id="Combined-Shape" fill="#AC1737"></path>
                            <g transform="translate(4.098361, 3.073770)" fill="#FFFFFF" id="Shape">
                                <polygon points="0 0.153688525 2.56147541 0.153688525 2.56147541 0.768442623 0.768442623 0.768442623 0.768442623 1.94672131 2.30532787 1.94672131 2.30532787 2.56147541 0.768442623 2.56147541 0.768442623 4.3545082 0 4.3545082"></polygon>
                                <polygon points="3.63729508 0.153688525 4.4057377 0.153688525 4.4057377 3.79098361 6.14754098 3.79098361 6.14754098 4.4057377 3.63729508 4.4057377"></polygon>
                            </g>
                        </g>
                        <g id="Group" transform="translate(50.717213, 5.122951)" fill="#AC1737" fill-rule="nonzero">
                            <path d="M11.8852459,12.3463115 C12.0389344,12.192623 12.0389344,11.9364754 11.8340164,11.8852459 L10.0922131,11.1680328 L8.35040984,10.4508197 C8.1454918,10.3483607 7.94057377,10.5532787 7.99180328,10.7581967 L8.24795082,12.602459 L8.50409836,14.4467213 C8.55532787,14.6516393 8.7602459,14.7540984 8.96516393,14.6516393 L10.4508197,13.4733607 L11.8852459,12.3463115 Z" id="Shape"></path>
                        </g>
                        <g id="Group" transform="translate(12.807377, 0.000000)">
                            <path d="M0.204918033,4.25204918 C0.204918033,2.10040984 1.94672131,0.358606557 4.09836066,0.358606557 L27.5614754,0.358606557 C29.7131148,0.358606557 31.454918,2.10040984 31.454918,4.25204918 L31.454918,8.50409836 C31.454918,10.6557377 29.7131148,12.397541 27.5614754,12.397541 L4.09836066,12.397541 C1.94672131,12.397541 0.204918033,10.6557377 0.204918033,8.50409836 L0.204918033,4.25204918 Z" id="Shape" fill="#7B7C7D" fill-rule="nonzero"></path>
                            <g transform="translate(21.004098, 1.024590)" fill-rule="nonzero" id="Shape">
                                <path d="M4.30327869,10.2459016 C2.30532787,10.2459016 0.665983607,8.60655738 0.665983607,6.60860656 L0.665983607,4.14959016 C0.665983607,2.15163934 2.30532787,0.512295082 4.30327869,0.512295082 L5.68647541,0.512295082 C7.68442623,0.512295082 9.32377049,2.15163934 9.32377049,4.14959016 L9.32377049,6.60860656 C9.32377049,8.60655738 7.68442623,10.2459016 5.68647541,10.2459016 L4.30327869,10.2459016 Z" fill="#FFFFFF"></path>
                                <path d="M5.68647541,0.717213115 C7.58196721,0.717213115 9.06762295,2.25409836 9.06762295,4.09836066 L9.06762295,6.55737705 C9.06762295,8.45286885 7.5307377,9.93852459 5.68647541,9.93852459 L4.30327869,9.93852459 C2.40778689,9.93852459 0.922131148,8.40163934 0.922131148,6.55737705 L0.922131148,4.09836066 C0.922131148,2.20286885 2.45901639,0.717213115 4.30327869,0.717213115 L5.68647541,0.717213115 Z M5.68647541,0.204918033 L4.30327869,0.204918033 C2.15163934,0.204918033 0.409836066,1.94672131 0.409836066,4.09836066 L0.409836066,6.55737705 C0.409836066,8.70901639 2.15163934,10.4508197 4.30327869,10.4508197 L5.68647541,10.4508197 C7.83811475,10.4508197 9.57991803,8.70901639 9.57991803,6.55737705 L9.57991803,4.09836066 C9.57991803,1.94672131 7.83811475,0.204918033 5.68647541,0.204918033 Z" fill="#C7C6C5"></path>
                            </g>
                            <g id="Clipped" transform="translate(21.004098, 1.024590)">
                                <mask id="mask-2" fill="white">
                                    <use xlink:href="#path-1"></use>
                                </mask>
                                <g id="SVGID_3_"></g>
                                <g id="Group" mask="url(#mask-2)" fill="#1E1E1C" fill-rule="nonzero">
                                    <g transform="translate(-2.561475, 1.024590)" id="Rectangle-path">
                                        <rect x="0.204918033" y="0.0512295082" width="2.15163934" height="2.15163934"></rect>
                                        <rect x="2.35655738" y="2.15163934" width="2.15163934" height="2.15163934"></rect>
                                        <rect x="4.50819672" y="0.0512295082" width="2.15163934" height="2.15163934"></rect>
                                        <rect x="6.60860656" y="2.15163934" width="2.15163934" height="2.15163934"></rect>
                                        <rect x="0.204918033" y="4.30327869" width="2.15163934" height="2.15163934"></rect>
                                        <rect x="2.35655738" y="6.45491803" width="2.15163934" height="2.15163934"></rect>
                                        <rect x="4.50819672" y="4.30327869" width="2.15163934" height="2.15163934"></rect>
                                        <rect x="6.60860656" y="6.45491803" width="2.15163934" height="2.15163934"></rect>
                                        <rect x="8.7602459" y="0.0512295082" width="2.15163934" height="2.15163934"></rect>
                                        <rect x="10.9118852" y="2.15163934" width="2.15163934" height="2.15163934"></rect>
                                        <rect x="8.7602459" y="4.30327869" width="2.15163934" height="2.15163934"></rect>
                                        <rect x="10.9118852" y="6.45491803" width="2.15163934" height="2.15163934"></rect>
                                    </g>
                                </g>
                            </g>
                            <g transform="translate(1.024590, 1.024590)" fill-rule="nonzero" id="Shape">
                                <path d="M3.99590164,10.2459016 C1.99795082,10.2459016 0.358606557,8.60655738 0.358606557,6.60860656 L0.358606557,4.14959016 C0.358606557,2.15163934 1.99795082,0.512295082 3.99590164,0.512295082 L5.37909836,0.512295082 C7.37704918,0.512295082 9.01639344,2.15163934 9.01639344,4.14959016 L9.01639344,6.60860656 C9.01639344,8.60655738 7.37704918,10.2459016 5.37909836,10.2459016 L3.99590164,10.2459016 Z" fill="#C01724"></path>
                                <path d="M5.37909836,0.717213115 C7.27459016,0.717213115 8.7602459,2.25409836 8.7602459,4.09836066 L8.7602459,6.55737705 C8.7602459,8.45286885 7.22336066,9.93852459 5.37909836,9.93852459 L3.99590164,9.93852459 C2.10040984,9.93852459 0.614754098,8.40163934 0.614754098,6.55737705 L0.614754098,4.09836066 C0.614754098,2.20286885 2.15163934,0.717213115 3.99590164,0.717213115 L5.37909836,0.717213115 Z M5.37909836,0.204918033 L3.99590164,0.204918033 C1.8442623,0.204918033 0.102459016,1.94672131 0.102459016,4.09836066 L0.102459016,6.55737705 C0.102459016,8.70901639 1.8442623,10.4508197 3.99590164,10.4508197 L5.37909836,10.4508197 C7.5307377,10.4508197 9.27254098,8.70901639 9.27254098,6.55737705 L9.27254098,4.09836066 C9.32377049,1.94672131 7.58196721,0.204918033 5.37909836,0.204918033 Z" fill="#AA1920"></path>
                            </g>
                            <g transform="translate(11.270492, 1.024590)" fill-rule="nonzero" id="Shape">
                                <path d="M3.89344262,10.2459016 C1.8954918,10.2459016 0.256147541,8.60655738 0.256147541,6.60860656 L0.256147541,4.14959016 C0.256147541,2.15163934 1.8954918,0.512295082 3.89344262,0.512295082 L5.27663934,0.512295082 C7.27459016,0.512295082 8.91393443,2.15163934 8.91393443,4.14959016 L8.91393443,6.60860656 C8.91393443,8.60655738 7.27459016,10.2459016 5.27663934,10.2459016 L3.89344262,10.2459016 Z" fill="#009548"></path>
                                <path d="M5.27663934,0.717213115 C7.17213115,0.717213115 8.65778689,2.25409836 8.65778689,4.09836066 L8.65778689,6.55737705 C8.65778689,8.45286885 7.12090164,9.93852459 5.27663934,9.93852459 L3.89344262,9.93852459 C1.99795082,9.93852459 0.512295082,8.40163934 0.512295082,6.55737705 L0.512295082,4.09836066 C0.512295082,2.20286885 2.04918033,0.717213115 3.89344262,0.717213115 L5.27663934,0.717213115 Z M5.27663934,0.204918033 L3.89344262,0.204918033 C1.74180328,0.204918033 2.84217094e-14,1.94672131 2.84217094e-14,4.09836066 L2.84217094e-14,6.55737705 C2.84217094e-14,8.70901639 1.74180328,10.4508197 3.89344262,10.4508197 L5.27663934,10.4508197 C7.42827869,10.4508197 9.17008197,8.70901639 9.17008197,6.55737705 L9.17008197,4.09836066 C9.22131148,1.94672131 7.42827869,0.204918033 5.27663934,0.204918033 Z" fill="#006139"></path>
                            </g>
                            <path d="M26.6905738,1.74180328 C28.5860656,1.74180328 30.0717213,3.27868852 30.0717213,5.12295082 L30.0717213,7.58196721 C30.0717213,9.47745902 28.5348361,10.9631148 26.6905738,10.9631148 L25.307377,10.9631148 C23.4118852,10.9631148 21.9262295,9.42622951 21.9262295,7.58196721 L21.9262295,5.12295082 C21.9262295,3.22745902 23.4631148,1.74180328 25.307377,1.74180328 L26.6905738,1.74180328 Z M26.6905738,1.2295082 L25.307377,1.2295082 C23.1557377,1.2295082 21.4139344,2.97131148 21.4139344,5.12295082 L21.4139344,7.58196721 C21.4139344,9.73360656 23.1557377,11.4754098 25.307377,11.4754098 L26.6905738,11.4754098 C28.8422131,11.4754098 30.5840164,9.73360656 30.5840164,7.58196721 L30.5840164,5.12295082 C30.5840164,2.97131148 28.8422131,1.2295082 26.6905738,1.2295082 Z" id="Shape" fill="#C7C6C5" fill-rule="nonzero"></path>
                        </g>
                    </g>
                    <g id="textos_y_numeros" transform="translate(11.270492, 7.172131)">
                        <g id="Group" transform="translate(53.278689, 112.704918)" fill="#7B7C7D" fill-rule="nonzero">
                            <path d="M2.30532787,1.07581967 L0.153688525,1.07581967 L0.153688525,0.358606557 L3.22745902,0.358606557 L3.22745902,0.870901639 C2.15163934,2.20286885 1.94672131,3.17622951 1.8954918,4.9692623 L1.02459016,4.9692623 C1.07581967,3.32991803 1.38319672,2.30532787 2.30532787,1.07581967 Z" id="Shape"></path>
                        </g>
                        <path d="M23.2581967,101.588115 C23.4118852,101.793033 23.7192623,101.946721 23.9754098,101.946721 C24.5389344,101.946721 25,101.536885 25.0512295,100.256148 C24.795082,100.563525 24.3852459,100.768443 24.0266393,100.768443 C23.2581967,100.768443 22.6946721,100.307377 22.6946721,99.3340164 C22.6946721,98.4118852 23.3606557,97.8483607 24.1290984,97.8483607 C25.0512295,97.8483607 25.7684426,98.5655738 25.7684426,100.102459 C25.7684426,101.895492 24.897541,102.612705 23.9754098,102.612705 C23.4118852,102.612705 23.0020492,102.356557 22.7459016,102.10041 L23.2581967,101.588115 Z M25.0512295,99.6413934 C24.9487705,98.8217213 24.6413934,98.4631148 24.1803279,98.4631148 C23.8217213,98.4631148 23.5143443,98.7704918 23.5143443,99.3340164 C23.5143443,99.897541 23.7704918,100.153689 24.2315574,100.153689 C24.4877049,100.153689 24.795082,100 25.0512295,99.6413934 Z" id="Shape" fill="#7B7C7D" fill-rule="nonzero"></path>
                        <g id="Group" transform="translate(4.098361, 61.987705)" fill="#7B7C7D" fill-rule="nonzero">
                            <path d="M0.358606557,3.99590164 L1.38319672,3.99590164 L1.38319672,0.973360656 L0.512295082,0.973360656 L0.512295082,0.461065574 C0.973360656,0.358606557 1.2807377,0.256147541 1.58811475,0.102459016 L2.20286885,0.102459016 L2.20286885,3.99590164 L3.125,3.99590164 L3.125,4.66188525 L0.358606557,4.66188525 L0.358606557,3.99590164 Z" id="Shape"></path>
                            <path d="M4.04713115,3.99590164 L5.07172131,3.99590164 L5.07172131,0.973360656 L4.20081967,0.973360656 L4.20081967,0.461065574 C4.66188525,0.358606557 4.9692623,0.256147541 5.27663934,0.102459016 L5.89139344,0.102459016 L5.89139344,3.99590164 L6.81352459,3.99590164 L6.81352459,4.66188525 L4.04713115,4.66188525 L4.04713115,3.99590164 Z" id="Shape"></path>
                        </g>
                        <g id="Group" transform="translate(41.495902, 50.204918)" fill="#7B7C7D" fill-rule="nonzero">
                            <path d="M0.204918033,4.20081967 L1.2295082,4.20081967 L1.2295082,1.17827869 L0.358606557,1.17827869 L0.358606557,0.665983607 C0.819672131,0.56352459 1.12704918,0.461065574 1.43442623,0.307377049 L2.04918033,0.307377049 L2.04918033,4.20081967 L2.97131148,4.20081967 L2.97131148,4.86680328 L0.204918033,4.86680328 L0.204918033,4.20081967 Z" id="Shape"></path>
                            <path d="M3.63729508,4.4057377 C4.91803279,3.17622951 5.73770492,2.35655738 5.73770492,1.63934426 C5.73770492,1.17827869 5.48155738,0.819672131 4.9692623,0.819672131 C4.61065574,0.819672131 4.30327869,1.07581967 4.04713115,1.33196721 L3.58606557,0.870901639 C3.99590164,0.409836066 4.4057377,0.153688525 5.07172131,0.153688525 C5.94262295,0.153688525 6.50614754,0.717213115 6.50614754,1.58811475 C6.50614754,2.40778689 5.73770492,3.22745902 4.81557377,4.20081967 C5.07172131,4.20081967 5.37909836,4.14959016 5.58401639,4.14959016 L6.71106557,4.14959016 L6.71106557,4.86680328 L3.58606557,4.86680328 L3.58606557,4.4057377 L3.63729508,4.4057377 Z" id="Shape"></path>
                        </g>
                        <g id="Group" transform="translate(86.065574, 84.528689)" fill="#7B7C7D" fill-rule="nonzero">
                            <path d="M0,4.4057377 L1.02459016,4.4057377 L1.02459016,1.38319672 L0.153688525,1.38319672 L0.153688525,0.870901639 C0.614754098,0.768442623 0.922131148,0.665983607 1.2295082,0.512295082 L1.8442623,0.512295082 L1.8442623,4.4057377 L2.76639344,4.4057377 L2.76639344,5.07172131 L0,5.07172131 L0,4.4057377 Z" id="Shape"></path>
                            <path d="M6.65983607,3.89344262 L6.09631148,3.89344262 L6.09631148,5.07172131 L5.32786885,5.07172131 L5.32786885,3.89344262 L3.27868852,3.89344262 L3.27868852,3.32991803 L5.12295082,0.461065574 L6.09631148,0.461065574 L6.09631148,3.22745902 L6.65983607,3.22745902 L6.65983607,3.89344262 Z M5.32786885,3.27868852 L5.32786885,2.25409836 C5.32786885,1.99795082 5.32786885,1.58811475 5.37909836,1.2807377 L5.32786885,1.2807377 C5.22540984,1.53688525 5.07172131,1.74180328 4.9692623,1.99795082 L4.14959016,3.27868852 L5.32786885,3.27868852 Z" id="Shape"></path>
                        </g>
                        <g id="Group" transform="translate(16.393443, 26.127049)" fill="#7B7C7D" fill-rule="nonzero">
                            <path d="M0.153688525,4.04713115 L1.17827869,4.04713115 L1.17827869,1.02459016 L0.307377049,1.02459016 L0.307377049,0.512295082 C0.768442623,0.409836066 1.07581967,0.307377049 1.38319672,0.153688525 L1.99795082,0.153688525 L1.99795082,4.04713115 L2.92008197,4.04713115 L2.92008197,4.71311475 L0.153688525,4.71311475 L0.153688525,4.04713115 Z" id="Shape"></path>
                            <path d="M5.84016393,0.819672131 L3.68852459,0.819672131 L3.68852459,0.102459016 L6.76229508,0.102459016 L6.76229508,0.614754098 C5.68647541,1.94672131 5.48155738,2.92008197 5.43032787,4.71311475 L4.55942623,4.71311475 C4.61065574,3.125 4.91803279,2.10040984 5.84016393,0.819672131 Z" id="Shape"></path>
                        </g>
                        <g id="Group" transform="translate(0.000000, 43.032787)" fill="#7B7C7D" fill-rule="nonzero">
                            <path d="M7.28015098e-15,3.89344262 L1.02459016,3.89344262 L1.02459016,0.870901639 L0.153688525,0.870901639 L0.153688525,0.358606557 C0.614754098,0.256147541 0.922131148,0.153688525 1.2295082,0 L1.8442623,0 L1.8442623,3.89344262 L2.76639344,3.89344262 L2.76639344,4.55942623 L0,4.55942623 L0,3.89344262 Z" id="Shape"></path>
                            <path d="M5.68647541,1.07581967 C5.53278689,0.870901639 5.22540984,0.717213115 4.9692623,0.717213115 C4.4057377,0.717213115 3.94467213,1.12704918 3.89344262,2.40778689 C4.14959016,2.04918033 4.55942623,1.8442623 4.86680328,1.8442623 C5.68647541,1.8442623 6.19877049,2.30532787 6.19877049,3.27868852 C6.19877049,4.20081967 5.53278689,4.76434426 4.76434426,4.76434426 C3.84221311,4.76434426 3.07377049,4.04713115 3.07377049,2.5102459 C3.07377049,0.717213115 3.94467213,0 4.86680328,0 C5.43032787,0 5.84016393,0.256147541 6.09631148,0.512295082 L5.68647541,1.07581967 Z M5.43032787,3.32991803 C5.43032787,2.76639344 5.17418033,2.5102459 4.71311475,2.5102459 C4.45696721,2.5102459 4.14959016,2.66393443 3.89344262,3.02254098 C3.99590164,3.84221311 4.30327869,4.20081967 4.76434426,4.20081967 C5.12295082,4.20081967 5.43032787,3.89344262 5.43032787,3.32991803 Z" id="Shape"></path>
                        </g>
                        <g id="Group" transform="translate(6.659836, 8.709016)" fill="#7B7C7D" fill-rule="nonzero">
                            <path d="M0.307377049,4.45696721 L1.33196721,4.45696721 L1.33196721,1.43442623 L0.512295082,1.43442623 L0.512295082,0.922131148 C0.973360656,0.819672131 1.2807377,0.717213115 1.58811475,0.56352459 L2.20286885,0.56352459 L2.20286885,4.45696721 L3.125,4.45696721 L3.125,5.12295082 L0.358606557,5.12295082 L0.358606557,4.45696721 L0.307377049,4.45696721 Z" id="Shape"></path>
                            <path d="M4.61065574,2.81762295 C4.25204918,2.56147541 3.99590164,2.20286885 3.99590164,1.69057377 C3.99590164,0.922131148 4.61065574,0.461065574 5.37909836,0.461065574 C6.19877049,0.461065574 6.71106557,0.973360656 6.71106557,1.69057377 C6.71106557,2.15163934 6.40368852,2.5102459 6.09631148,2.76639344 L6.09631148,2.81762295 C6.50614754,3.07377049 6.91598361,3.38114754 6.91598361,3.99590164 C6.91598361,4.71311475 6.30122951,5.22540984 5.37909836,5.22540984 C4.45696721,5.22540984 3.84221311,4.71311475 3.84221311,3.94467213 C3.79098361,3.38114754 4.20081967,3.02254098 4.61065574,2.81762295 Z M5.37909836,4.66188525 C5.84016393,4.66188525 6.14754098,4.4057377 6.14754098,3.99590164 C6.14754098,3.48360656 5.68647541,3.32991803 5.0204918,3.07377049 C4.71311475,3.27868852 4.50819672,3.58606557 4.50819672,3.94467213 C4.50819672,4.3545082 4.91803279,4.66188525 5.37909836,4.66188525 Z M6.04508197,1.74180328 C6.04508197,1.33196721 5.78893443,1.02459016 5.37909836,1.02459016 C5.0204918,1.02459016 4.76434426,1.2807377 4.76434426,1.63934426 C4.76434426,2.10040984 5.17418033,2.30532787 5.68647541,2.5102459 C5.89139344,2.30532787 6.04508197,2.04918033 6.04508197,1.74180328 Z" id="Shape"></path>
                        </g>
                        <g id="Group" transform="translate(70.696721, 0.000000)" fill="#7B7C7D" fill-rule="nonzero">
                            <path d="M0.153688525,3.89344262 L1.17827869,3.89344262 L1.17827869,0.870901639 L0.307377049,0.870901639 L0.307377049,0.358606557 C0.768442623,0.256147541 1.07581967,0.153688525 1.38319672,0 L1.99795082,0 L1.99795082,3.89344262 L2.92008197,3.89344262 L2.92008197,4.55942623 L0.153688525,4.55942623 L0.153688525,3.89344262 Z" id="Shape"></path>
                        </g>
                        <g id="Group" transform="translate(78.893443, 28.176230)" fill="#7B7C7D" fill-rule="nonzero">
                            <path d="M0.153688525,4.30327869 C1.43442623,3.07377049 2.25409836,2.25409836 2.25409836,1.53688525 C2.25409836,1.07581967 1.99795082,0.717213115 1.48565574,0.717213115 C1.12704918,0.717213115 0.819672131,0.973360656 0.56352459,1.2295082 L0.102459016,0.768442623 C0.512295082,0.307377049 0.922131148,0.0512295082 1.58811475,0.0512295082 C2.45901639,0.0512295082 3.02254098,0.614754098 3.02254098,1.48565574 C3.02254098,2.30532787 2.25409836,3.125 1.33196721,4.09836066 C1.58811475,4.09836066 1.8954918,4.04713115 2.10040984,4.04713115 L3.22745902,4.04713115 L3.22745902,4.76434426 L0.102459016,4.76434426 L0.102459016,4.30327869 L0.153688525,4.30327869 Z" id="Shape"></path>
                        </g>
                        <g id="Group" transform="translate(80.430328, 47.131148)" fill="#7B7C7D" fill-rule="nonzero">
                            <path d="M3.48360656,3.58606557 L2.92008197,3.58606557 L2.92008197,4.76434426 L2.15163934,4.76434426 L2.15163934,3.58606557 L0.102459016,3.58606557 L0.102459016,3.02254098 L1.94672131,0.153688525 L2.92008197,0.153688525 L2.92008197,2.92008197 L3.48360656,2.92008197 L3.48360656,3.58606557 Z M2.15163934,2.97131148 L2.15163934,1.94672131 C2.15163934,1.69057377 2.15163934,1.2807377 2.20286885,0.973360656 L2.15163934,0.973360656 C2.04918033,1.2295082 1.8954918,1.43442623 1.79303279,1.69057377 L0.973360656,2.97131148 L2.15163934,2.97131148 Z" id="Shape"></path>
                        </g>
                        <g id="Group" transform="translate(48.668033, 38.422131)" fill="#7B7C7D" fill-rule="nonzero">
                            <path d="M0,3.89344262 L1.02459016,3.89344262 L1.02459016,0.870901639 L0.153688525,0.870901639 L0.153688525,0.358606557 C0.614754098,0.256147541 0.922131148,0.153688525 1.2295082,0 L1.8442623,0 L1.8442623,3.89344262 L2.76639344,3.89344262 L2.76639344,4.55942623 L0,4.55942623 L0,3.89344262 Z" id="Shape"></path>
                            <path d="M3.53483607,3.48360656 C3.79098361,3.7397541 4.14959016,3.99590164 4.61065574,3.99590164 C5.12295082,3.99590164 5.48155738,3.68852459 5.48155738,3.125 C5.48155738,2.56147541 5.12295082,2.25409836 4.61065574,2.25409836 C4.30327869,2.25409836 4.14959016,2.35655738 3.89344262,2.5102459 L3.48360656,2.25409836 L3.63729508,0 L6.09631148,0 L6.09631148,0.717213115 L4.3545082,0.717213115 L4.25204918,1.8442623 C4.45696721,1.74180328 4.61065574,1.69057377 4.86680328,1.69057377 C5.6352459,1.69057377 6.30122951,2.15163934 6.30122951,3.125 C6.30122951,4.14959016 5.53278689,4.71311475 4.66188525,4.71311475 C3.89344262,4.71311475 3.43237705,4.4057377 3.07377049,4.09836066 L3.53483607,3.48360656 Z" id="Shape"></path>
                        </g>
                        <g id="Group" transform="translate(57.377049, 54.303279)" fill="#7B7C7D" fill-rule="nonzero">
                            <path d="M0,4.30327869 L1.02459016,4.30327869 L1.02459016,1.2807377 L0.153688525,1.2807377 L0.153688525,0.768442623 C0.614754098,0.665983607 0.922131148,0.56352459 1.2295082,0.409836066 L1.8442623,0.409836066 L1.8442623,4.30327869 L2.76639344,4.30327869 L2.76639344,4.9692623 L0,4.9692623 L0,4.30327869 Z" id="Shape"></path>
                            <path d="M3.7397541,3.89344262 C3.99590164,4.20081967 4.3545082,4.4057377 4.81557377,4.4057377 C5.32786885,4.4057377 5.68647541,4.14959016 5.68647541,3.68852459 C5.68647541,3.22745902 5.37909836,2.92008197 4.3545082,2.92008197 L4.3545082,2.30532787 C5.27663934,2.30532787 5.53278689,1.99795082 5.53278689,1.58811475 C5.53278689,1.2295082 5.27663934,0.973360656 4.86680328,0.973360656 C4.50819672,0.973360656 4.20081967,1.12704918 3.94467213,1.38319672 L3.53483607,0.870901639 C3.94467213,0.512295082 4.3545082,0.307377049 4.91803279,0.307377049 C5.78893443,0.307377049 6.40368852,0.717213115 6.40368852,1.53688525 C6.40368852,2.04918033 6.09631148,2.40778689 5.58401639,2.61270492 L5.58401639,2.66393443 C6.14754098,2.81762295 6.55737705,3.17622951 6.55737705,3.79098361 C6.55737705,4.61065574 5.84016393,5.12295082 4.9692623,5.12295082 C4.20081967,5.12295082 3.7397541,4.81557377 3.43237705,4.45696721 L3.7397541,3.89344262 Z" id="Shape"></path>
                        </g>
                        <path d="M81.9159836,42.2131148 C82.1721311,42.5204918 82.5307377,42.7254098 82.9918033,42.7254098 C83.5040984,42.7254098 83.8627049,42.4692623 83.8627049,42.0081967 C83.8627049,41.5471311 83.5553279,41.2397541 82.5307377,41.2397541 L82.5307377,40.625 C83.4528689,40.625 83.7090164,40.317623 83.7090164,39.9077869 C83.7090164,39.5491803 83.4528689,39.2930328 83.0430328,39.2930328 C82.6844262,39.2930328 82.3770492,39.4467213 82.1209016,39.7028689 L81.7110656,39.1905738 C82.1209016,38.8319672 82.5307377,38.6270492 83.0942623,38.6270492 C83.9651639,38.6270492 84.579918,39.0368852 84.579918,39.8565574 C84.579918,40.3688525 84.272541,40.727459 83.7602459,40.932377 L83.7602459,40.9836066 C84.3237705,41.1372951 84.7336066,41.4959016 84.7336066,42.1106557 C84.7336066,42.9303279 84.0163934,43.442623 83.1454918,43.442623 C82.3770492,43.442623 81.9159836,43.1352459 81.6086066,42.7766393 L81.9159836,42.2131148 Z" id="Shape" fill="#7B7C7D" fill-rule="nonzero"></path>
                        <path d="M84.0163934,61.8340164 C84.272541,62.0901639 84.6311475,62.3463115 85.0922131,62.3463115 C85.6045082,62.3463115 85.9631148,62.0389344 85.9631148,61.4754098 C85.9631148,60.9118852 85.6045082,60.6045082 85.0922131,60.6045082 C84.7848361,60.6045082 84.6311475,60.7069672 84.375,60.8606557 L83.9651639,60.6045082 L84.1188525,58.3504098 L86.5778689,58.3504098 L86.5778689,59.067623 L84.8360656,59.067623 L84.7336066,60.1946721 C84.9385246,60.0922131 85.0922131,60.0409836 85.3483607,60.0409836 C86.1168033,60.0409836 86.7827869,60.5020492 86.7827869,61.4754098 C86.7827869,62.5 86.0143443,63.0635246 85.1434426,63.0635246 C84.375,63.0635246 83.9139344,62.7561475 83.5553279,62.4487705 L84.0163934,61.8340164 Z" id="Shape" fill="#7B7C7D" fill-rule="nonzero"></path>
                        <g id="Group" transform="translate(75.819672, 66.598361)" fill="#7B7C7D" fill-rule="nonzero">
                            <path d="M2.61270492,1.12704918 C2.45901639,0.922131148 2.15163934,0.768442623 1.8954918,0.768442623 C1.33196721,0.768442623 0.870901639,1.17827869 0.819672131,2.45901639 C1.07581967,2.10040984 1.48565574,1.8954918 1.79303279,1.8954918 C2.61270492,1.8954918 3.125,2.35655738 3.125,3.32991803 C3.125,4.25204918 2.45901639,4.81557377 1.69057377,4.81557377 C0.768442623,4.81557377 0,4.09836066 0,2.56147541 C0,0.768442623 0.870901639,0.0512295082 1.79303279,0.0512295082 C2.35655738,0.0512295082 2.76639344,0.307377049 3.02254098,0.56352459 L2.61270492,1.12704918 Z M2.35655738,3.38114754 C2.35655738,2.81762295 2.10040984,2.56147541 1.63934426,2.56147541 C1.38319672,2.56147541 1.07581967,2.71516393 0.819672131,3.07377049 C0.922131148,3.89344262 1.2295082,4.25204918 1.69057377,4.25204918 C2.04918033,4.25204918 2.35655738,3.94467213 2.35655738,3.38114754 Z" id="Shape"></path>
                        </g>
                        <path d="M29.5081967,87.4487705 C29.1495902,87.192623 28.8934426,86.8340164 28.8934426,86.3217213 C28.8934426,85.5532787 29.5081967,85.0922131 30.2766393,85.0922131 C31.0963115,85.0922131 31.6086066,85.6045082 31.6086066,86.3217213 C31.6086066,86.7827869 31.3012295,87.1413934 30.9938525,87.397541 L30.9938525,87.4487705 C31.4036885,87.704918 31.8135246,88.0122951 31.8135246,88.6270492 C31.8135246,89.3442623 31.1987705,89.8565574 30.2766393,89.8565574 C29.3545082,89.8565574 28.7397541,89.3442623 28.7397541,88.5758197 C28.6885246,88.0635246 29.0983607,87.704918 29.5081967,87.4487705 Z M30.2766393,89.3442623 C30.7377049,89.3442623 31.045082,89.0881148 31.045082,88.6782787 C31.045082,88.1659836 30.5840164,88.0122951 29.9180328,87.7561475 C29.6106557,87.9610656 29.4057377,88.2684426 29.4057377,88.6270492 C29.4057377,89.0368852 29.7643443,89.3442623 30.2766393,89.3442623 Z M30.942623,86.4241803 C30.942623,86.0143443 30.6864754,85.7069672 30.2766393,85.7069672 C29.9180328,85.7069672 29.6618852,85.9631148 29.6618852,86.3217213 C29.6618852,86.7827869 30.0717213,86.9877049 30.5840164,87.192623 C30.7889344,86.9877049 30.942623,86.7315574 30.942623,86.4241803 Z" id="Shape" fill="#7B7C7D" fill-rule="nonzero"></path>
                        <g id="Group" transform="translate(6.659836, 84.016393)" fill="#7B7C7D" fill-rule="nonzero">
                            <path d="M0.256147541,3.99590164 L1.2807377,3.99590164 L1.2807377,0.973360656 L0.409836066,0.973360656 L0.409836066,0.461065574 C0.870901639,0.358606557 1.17827869,0.256147541 1.48565574,0.102459016 L2.10040984,0.102459016 L2.10040984,3.99590164 L3.02254098,3.99590164 L3.02254098,4.66188525 L0.256147541,4.66188525 L0.256147541,3.99590164 Z" id="Shape"></path>
                            <path d="M3.7397541,2.35655738 C3.7397541,0.819672131 4.3545082,0 5.27663934,0 C6.19877049,0 6.81352459,0.819672131 6.81352459,2.35655738 C6.81352459,3.89344262 6.19877049,4.76434426 5.27663934,4.76434426 C4.3545082,4.76434426 3.7397541,3.89344262 3.7397541,2.35655738 Z M6.04508197,2.35655738 C6.04508197,1.07581967 5.73770492,0.665983607 5.27663934,0.665983607 C4.81557377,0.665983607 4.50819672,1.07581967 4.50819672,2.35655738 C4.50819672,3.63729508 4.81557377,4.09836066 5.27663934,4.09836066 C5.73770492,4.09836066 6.04508197,3.63729508 6.04508197,2.35655738 Z" id="Shape"></path>
                        </g>
                        <path d="M56.0963115,42.7766393 L69.4672131,46.1065574" id="Shape" stroke="#7B7C7D" stroke-dasharray="3"></path>
                        <g id="Group" transform="translate(6.659836, 19.467213)" stroke="#7B7C7D">
                            <path d="M28.329918,0.102459016 L28.6372951,0.819672131" id="Shape"></path>
                            <path d="M29.1495902,2.10040984 L31.9159836,8.96516393" id="Shape" stroke-dasharray="2.6436,2.6436"></path>
                            <polyline id="Shape" points="32.1721311 9.63114754 32.4795082 10.3483607 31.7622951 10.6557377"></polyline>
                            <path d="M30.3278689,11.3217213 L1.8954918,24.4877049" id="Shape" stroke-dasharray="3.137,3.137"></path>
                            <path d="M1.12704918,24.8463115 L0.461065574,25.1536885" id="Shape"></path>
                        </g>
                        <path d="M67.7766393,57.1209016 C67.7766393,57.1209016 71.977459,82.1209016 72.4897541,82.2233607 C73.0020492,82.3258197 84.579918,87.3463115 84.579918,87.3463115" id="Shape" stroke="#7B7C7D" stroke-dasharray="3"></path>
                        <path d="M32.6331967,8.86270492 L15.829918,11.6290984" id="Shape" stroke="#7B7C7D" stroke-dasharray="3"></path>
                        <path d="M35.1434426,59.3237705 C35.5532787,60.0409836 11.8852459,64.6516393 11.8852459,64.6516393" id="Shape" stroke="#7B7C7D" stroke-dasharray="3"></path>
                    </g>
                    <path d="M106.012006,60.3104219 C105.735274,60.3104219 105.532787,60.1281838 105.532787,59.8717005 C105.532787,59.6084676 105.735274,59.4262295 106.012006,59.4262295 C106.288738,59.4262295 106.491224,59.6084676 106.491224,59.8717005 C106.491224,60.1281838 106.288738,60.3104219 106.012006,60.3104219 Z M105.620531,64.204918 L105.620531,60.890884 L106.396731,60.890884 L106.396731,64.204918 L105.620531,64.204918 Z M107.395665,64.204918 L107.395665,63.5704594 L108.354103,63.5704594 L108.354103,60.7491433 L107.564404,60.7491433 L107.564404,60.263175 C107.989627,60.1821802 108.286607,60.0741873 108.55659,59.9121978 L109.137052,59.9121978 L109.137052,63.5704594 L109.980747,63.5704594 L109.980747,64.204918 L107.395665,64.204918 Z" id="i1" fill="#FFFFFF"></path>
                    <path d="M3.05006729,82.3564045 C2.76792268,82.3564045 2.56147541,82.1706019 2.56147541,81.909102 C2.56147541,81.6407206 2.76792268,81.454918 3.05006729,81.454918 C3.33221189,81.454918 3.53865916,81.6407206 3.53865916,81.909102 C3.53865916,82.1706019 3.33221189,82.3564045 3.05006729,82.3564045 Z M2.65093589,86.3270736 L2.65093589,82.94822 L3.4423171,82.94822 L3.4423171,86.3270736 L2.65093589,86.3270736 Z M4.21305358,86.3270736 L4.21305358,85.8660081 C5.43109249,84.6892586 6.19494739,83.9185221 6.19494739,83.2510093 C6.19494739,82.7899437 5.94032909,82.494036 5.47238194,82.494036 C5.13518473,82.494036 4.85304013,82.721128 4.61906655,82.9826278 L4.17864571,82.542207 C4.5777771,82.1155493 4.97690849,81.8678126 5.57560558,81.8678126 C6.41515782,81.8678126 6.9588023,82.3976939 6.9588023,83.2097198 C6.9588023,83.9873379 6.23623685,84.7856007 5.36915831,85.7008503 C5.59625031,85.6802055 5.88527649,85.6526792 6.09860533,85.6526792 L7.17213115,85.6526792 L7.17213115,86.3270736 L4.21305358,86.3270736 Z" id="i2" fill="#FFFFFF"></path>
                    <path d="M47.623413,49.5762973 C47.339147,49.5762973 47.1311475,49.3890977 47.1311475,49.1256317 C47.1311475,48.8552323 47.339147,48.6680328 47.623413,48.6680328 C47.907679,48.6680328 48.1156785,48.8552323 48.1156785,49.1256317 C48.1156785,49.3890977 47.907679,49.5762973 47.623413,49.5762973 Z M47.2212807,53.5768212 L47.2212807,50.1725626 L48.0186121,50.1725626 L48.0186121,53.5768212 L47.2212807,53.5768212 Z M48.6980772,53.0360224 L49.0794096,52.522957 C49.3428756,52.7933563 49.6826082,53.0082892 50.1263404,53.0082892 C50.6047393,53.0082892 50.9375385,52.7586898 50.9375385,52.3426907 C50.9375385,51.8850918 50.6463392,51.5938925 49.6410083,51.5938925 L49.6410083,51.0114939 C50.5076729,51.0114939 50.7919389,50.7133613 50.7919389,50.3042956 C50.7919389,49.9368298 50.5423395,49.7149636 50.1402071,49.7149636 C49.7935412,49.7149636 49.5231419,49.8813632 49.2527425,50.1309627 L48.8436768,49.6386972 C49.2180759,49.3058979 49.6410083,49.0840318 50.1679403,49.0840318 C51.013805,49.0840318 51.5962036,49.5000308 51.5962036,50.248829 C51.5962036,50.7410945 51.3050043,51.0738938 50.8266054,51.2610933 L50.8266054,51.2888266 C51.3466042,51.4274929 51.7418033,51.801892 51.7418033,52.3842906 C51.7418033,53.1885554 51.0415383,53.660021 50.1956736,53.660021 C49.481542,53.660021 49.0100764,53.3826883 48.6980772,53.0360224 Z" id="i3" fill="#FFFFFF"></path>
                </g>
            </g>
        </g>
    </g>
</svg>