<?xml version="1.0" encoding="UTF-8"?>
<svg width="198px" height="125px" viewBox="0 0 198 125" version="1.1" xmlns="http://www.w3.org/2000/svg" xmlns:xlink="http://www.w3.org/1999/xlink">
    <!-- Generator: sketchtool 51.2 (57519) - http://www.bohemiancoding.com/sketch -->
    <title>5E812887-FBF4-4E3B-B6C8-5DAE1C82500F</title>
    <desc>Created with sketchtool.</desc>
    <defs>
        <path d="M0.265957447,4.25531915 C0.265957447,2.0212766 2.07446809,0.212765957 4.30851064,0.212765957 L5.74468085,0.212765957 C7.9787234,0.212765957 9.78723404,2.0212766 9.78723404,4.25531915 L9.78723404,6.80851064 C9.78723404,9.04255319 7.9787234,10.8510638 5.74468085,10.8510638 L4.30851064,10.8510638 C2.07446809,10.8510638 0.265957447,9.04255319 0.265957447,6.80851064 L0.265957447,4.25531915 Z" id="path-1"></path>
    </defs>
    <g id="Page-1" stroke="none" stroke-width="1" fill="none" fill-rule="evenodd">
        <g id="Circuit_info_05" transform="translate(-162.000000, -498.000000)">
            <g id="assets/circuits_info/83" transform="translate(161.000000, 498.000000)">
                <g id="assets/circuits_info/Sachsenring" transform="translate(1.500000, 0.000000)">
                    <g id="trazado" transform="translate(2.659574, 8.510638)" fill-rule="nonzero">
                        <path d="M141.06383,15.6382979 C135.585106,16.9680851 116.542553,22.2340426 115.744681,22.5 L115.691489,22.5 L115.638298,22.5531915 C115.585106,22.5531915 111.329787,23.9893617 106.170213,22.1276596 L106.06383,22.0744681 L105.957447,22.0744681 C105.585106,21.9680851 67.1276596,11.3829787 59.4680851,8.61702128 L51.8085106,5.74468085 C45.6914894,3.40425532 39.9468085,1.17021277 36.6489362,0.585106383 C31.5957447,-0.319148936 19.3085106,1.11702128 15.4787234,11.0638298 L15.4255319,11.1702128 L1.22340426,53.4574468 C0.638297872,55.1595745 0.372340426,58.6702128 3.40425532,61.0106383 C6.54255319,63.4574468 8.93617021,63.6170213 14.5212766,61.8085106 C19.5212766,60.1595745 76.3829787,43.6702128 76.9680851,43.5106383 C77.287234,43.4042553 111.010638,34.0425532 119.946809,32.0744681 C127.340426,30.4255319 137.393617,28.1914894 140.212766,27.9255319 C143.351064,27.606383 144.946809,27.7659574 146.010638,30.3723404 C146.542553,31.6489362 146.702128,32.5 146.542553,33.1914894 C146.329787,34.0957447 145.585106,34.6276596 144.414894,35.212766 C141.542553,36.7021277 135.159574,40 133.351064,48.4574468 C133.191489,49.3085106 133.031915,50.212766 132.978723,51.2234043 C132.074468,62.0744681 138.670213,65.7978723 138.93617,65.9574468 L138.989362,66.0106383 L139.042553,66.0638298 C140.265957,66.6489362 143.670213,68.6702128 145.159574,70.9042553 L146.117021,72.287234 C147.978723,75 149.734043,77.5531915 148.93617,81.2765957 C148.93617,81.2765957 148.93617,81.2765957 148.93617,81.2765957 C148.404255,83.8829787 144.734043,85.1595745 144.734043,85.1595745 L138.617021,87.0744681 L138.56383,87.1276596 C138.351064,87.1808511 136.542553,87.7659574 134.734043,86.2234043 C133.297872,84.9468085 133.404255,83.5106383 133.723404,81.9148936 L133.829787,81.2765957 L134.042553,79.787234 C134.414894,77.606383 134.946809,74.3617021 135.053191,72.6595745 C135.159574,70.5319149 135.478723,63.9893617 129.308511,57.9787234 C124.042553,52.8191489 118.297872,47.9787234 111.648936,50.2659574 C102.5,53.4574468 97.606383,56.8617021 96.7021277,60.6382979 C96.6489362,60.9042553 96.5957447,61.1702128 96.5425532,61.3829787 C95.7978723,64.893617 96.0638298,66.3829787 96.5425532,67.9255319 L96.6489362,68.3510638 C96.6489362,68.4042553 100.904255,83.8297872 101.010638,84.2021277 C101.276596,85.3191489 104.414894,98.0319149 118.617021,103.829787 C133.138298,109.734043 145.957447,102.074468 146.489362,101.755319 C146.43617,101.755319 172.446809,86.4893617 172.446809,86.4893617 L172.553191,86.4361702 L172.659574,86.3297872 C173.457447,85.7446809 180.478723,80.3723404 182.606383,78.0851064 C184.255319,76.3297872 185.425532,74.5212766 185.957447,72.0744681 C186.276596,70.5851064 186.329787,68.8829787 186.170213,66.8085106 C185.638298,61.3829787 184.840426,57.1808511 182.180851,51.5425532 C179.680851,46.3297872 173.191489,33.5638298 172.5,32.1808511 C172.12766,31.1702128 170.797872,28.6702128 166.276596,25.7978723 L152.553191,17.2340426 C152.180851,17.1808511 147.5,14.0957447 141.06383,15.6382979 Z M142.12766,20.0531915 C146.542553,18.9893617 149.680851,21.0106383 149.840426,21.1170213 C149.893617,21.1702128 163.56383,29.6808511 163.56383,29.6808511 C167.234043,32.0212766 167.925532,33.7765957 167.925532,33.7765957 C167.925532,33.8297872 167.978723,33.8829787 167.978723,33.8829787 L168.085106,34.1489362 C168.138298,34.3085106 175.265957,48.1382979 177.765957,53.5106383 C180.159574,58.5638298 180.851064,62.2340426 181.382979,67.2340426 C181.542553,68.8297872 181.489362,70.0531915 181.276596,71.0638298 C180.904255,72.7659574 180.106383,73.8297872 179.042553,74.9468085 C177.5,76.5957447 171.914894,80.9574468 169.787234,82.5531915 C169.574468,82.712766 143.93617,97.7659574 143.93617,97.7659574 C143.776596,97.8723404 132.5,104.521277 120.159574,99.5212766 C107.925532,94.5212766 105.425532,83.5638298 105.319149,83.0851064 L105.319149,83.0319149 L100.957447,67.1276596 C100.957447,67.1808511 100.797872,66.5957447 100.797872,66.5957447 C100.531915,65.6914894 100.319149,64.893617 101.06383,61.6489362 C101.170213,61.1170213 102.340426,58.2446809 113.031915,54.5212766 C116.861702,53.1914894 120.691489,55.9574468 126.010638,61.1702128 C130.691489,65.7446809 130.478723,70.5319149 130.37234,72.3404255 C130.319149,73.7765957 129.787234,77.0212766 129.468085,78.9361702 L129.202128,80.4787234 L129.148936,80.9042553 C128.829787,82.4468085 128.031915,86.4361702 131.648936,89.5744681 C134.787234,92.287234 138.457447,91.9148936 140.106383,91.2765957 L139.946809,91.3297872 L146.06383,89.4148936 C146.329787,89.3085106 152.234043,87.3404255 153.351064,82.1276596 C153.351064,82.1276596 153.351064,82.1276596 153.351064,82.1276596 C154.574468,76.4361702 151.968085,72.606383 149.840426,69.5744681 L148.989362,68.2978723 C146.648936,64.7340426 142.021277,62.3404255 141.170213,61.9148936 C140.904255,61.7553191 136.914894,59.2021277 137.553191,51.5425532 C137.606383,50.7978723 137.712766,50.0531915 137.87234,49.4148936 C139.202128,43.0851064 143.93617,40.6382979 146.542553,39.2553191 C149.095745,37.9255319 150.585106,36.2234043 151.06383,34.0957447 C151.382979,32.5 151.117021,30.6382979 150.265957,28.5106383 C147.765957,22.4468085 142.393617,22.9787234 139.787234,23.2446809 C136.914894,23.5106383 128.989362,25.2659574 118.93617,27.5 C109.840426,29.5212766 77.0744681,38.6170213 75.6914894,38.9893617 C73.2978723,39.6808511 18.1382979,55.6914894 13.0851064,57.3404255 C8.29787234,58.8829787 7.65957447,58.4574468 6.22340426,57.287234 C5.31914894,56.5957447 5.37234043,55.5319149 5.4787234,55.0531915 C5.4787234,54.9468085 5.53191489,54.8404255 5.53191489,54.8404255 C5.53191489,54.8404255 19.2021277,14.2021277 19.7340426,12.6595745 C22.606383,5.31914894 32.6595745,4.5212766 35.8510638,5.05319149 C38.7234043,5.53191489 44.5212766,7.81914894 50.1595745,9.94680851 L57.9255319,12.8723404 C65.7978723,15.6914894 103.191489,26.0106383 104.734043,26.4361702 L104.574468,26.3829787 C111.010638,28.7234043 116.276596,27.1276596 117.021277,26.8617021 C117.446809,26.7553191 136.755319,21.3829787 142.12766,20.0531915 Z" id="Shape" fill="#8F979C"></path>
                        <path d="M140.744681,15.4255319 C135.265957,16.7553191 116.223404,22.0212766 115.37234,22.287234 L115.319149,22.287234 L115.265957,22.3404255 C115.212766,22.3404255 110.957447,23.7765957 105.797872,21.9148936 L105.691489,21.8617021 L105.585106,21.8617021 C105.212766,21.7553191 66.7553191,11.1702128 59.0957447,8.40425532 L51.4361702,5.53191489 C45.3191489,3.19148936 39.5744681,0.957446809 36.2765957,0.372340426 C31.2234043,-0.531914894 18.9361702,0.904255319 15.106383,10.8510638 L15.0531915,10.9574468 L0.85106383,53.2446809 C0.265957447,54.9468085 -3.44169138e-15,58.4574468 3.03191489,60.7978723 C6.17021277,63.2446809 8.56382979,63.4042553 14.1489362,61.5957447 C19.1489362,59.9468085 76.0106383,43.4574468 76.5957447,43.2978723 C76.9148936,43.1914894 110.638298,33.8297872 119.574468,31.8617021 C126.968085,30.212766 137.021277,27.9787234 139.840426,27.712766 C142.978723,27.393617 144.574468,27.5531915 145.638298,30.1595745 C146.170213,31.4361702 146.329787,32.287234 146.170213,32.9787234 C145.957447,33.8829787 145.212766,34.4148936 144.042553,35 C141.170213,36.4893617 134.787234,39.787234 132.978723,48.2446809 C132.819149,49.0957447 132.659574,50 132.606383,51.0106383 C131.702128,61.8617021 138.297872,65.5851064 138.56383,65.7446809 L138.617021,65.7978723 L138.670213,65.8510638 C139.893617,66.4361702 143.297872,68.4574468 144.787234,70.6914894 L145.744681,72.0744681 C147.606383,74.787234 149.361702,77.3404255 148.56383,81.0638298 C148.56383,81.0638298 148.56383,81.0638298 148.56383,81.0638298 C148.031915,83.6702128 144.361702,84.9468085 144.361702,84.9468085 L138.244681,86.8617021 L138.191489,86.9148936 C137.978723,86.9680851 136.170213,87.5531915 134.361702,86.0106383 C132.925532,84.7340426 133.031915,83.2978723 133.351064,81.7021277 L133.457447,81.0638298 L133.670213,79.5744681 C134.042553,77.393617 134.574468,74.1489362 134.680851,72.4468085 C134.787234,70.3191489 135.106383,63.7765957 128.93617,57.7659574 C123.670213,52.606383 117.925532,47.7659574 111.276596,50.0531915 C102.12766,53.2446809 97.2340426,56.6489362 96.3297872,60.4255319 C96.2765957,60.6914894 96.2234043,60.9574468 96.1702128,61.1702128 C95.4255319,64.6808511 95.6914894,66.1702128 96.1702128,67.712766 L96.2765957,68.1382979 C96.2765957,68.1914894 100.531915,83.6170213 100.638298,83.9893617 C100.904255,85.106383 104.042553,97.8191489 118.244681,103.617021 C132.765957,109.521277 145.585106,101.861702 146.117021,101.542553 C146.06383,101.542553 172.074468,86.2765957 172.074468,86.2765957 L172.180851,86.2234043 L172.287234,86.1170213 C173.085106,85.5319149 180.106383,80.1595745 182.234043,77.8723404 C183.882979,76.1170213 185.053191,74.3085106 185.585106,71.8617021 C185.904255,70.3723404 185.957447,68.6702128 185.797872,66.5957447 C185.265957,61.1702128 184.468085,56.9680851 181.808511,51.3297872 C179.308511,46.1170213 172.819149,33.3510638 172.12766,31.9680851 C171.755319,30.9574468 170.425532,28.4574468 165.904255,25.5851064 L152.180851,17.0212766 C151.861702,16.9680851 147.180851,13.9361702 140.744681,15.4255319 Z M141.808511,19.893617 C146.223404,18.8297872 149.361702,20.8510638 149.521277,20.9574468 C149.574468,21.0106383 163.244681,29.5212766 163.244681,29.5212766 C166.914894,31.8617021 167.606383,33.6170213 167.606383,33.6170213 C167.606383,33.6702128 167.659574,33.7234043 167.659574,33.7234043 L167.765957,33.9893617 C167.819149,34.1489362 174.946809,47.9787234 177.446809,53.3510638 C179.840426,58.4042553 180.531915,62.0744681 181.010638,67.0744681 C181.170213,68.6702128 181.117021,69.893617 180.904255,70.9042553 C180.531915,72.606383 179.734043,73.6702128 178.670213,74.787234 C177.12766,76.4361702 171.542553,80.7978723 169.414894,82.393617 C169.202128,82.5531915 143.56383,97.606383 143.56383,97.606383 C143.404255,97.712766 132.12766,104.361702 119.787234,99.3617021 C107.553191,94.3617021 105.053191,83.4042553 104.946809,82.9255319 L104.946809,82.8723404 L100.585106,66.9680851 C100.585106,67.0212766 100.425532,66.4361702 100.425532,66.4361702 C100.159574,65.5319149 99.9468085,64.7340426 100.691489,61.4893617 C100.797872,60.9574468 101.968085,58.0851064 112.659574,54.3617021 C116.489362,53.0319149 120.319149,55.7978723 125.638298,61.0106383 C130.319149,65.5851064 130.106383,70.3723404 130,72.1808511 C129.946809,73.6170213 129.414894,76.8617021 129.095745,78.7765957 L128.829787,80.3191489 L128.776596,80.7446809 C128.457447,82.287234 127.659574,86.2765957 131.276596,89.4148936 C134.414894,92.1276596 138.085106,91.7553191 139.734043,91.1170213 L139.574468,91.1702128 L145.691489,89.2553191 C145.957447,89.1489362 151.861702,87.1808511 152.978723,81.9680851 C152.978723,81.9680851 152.978723,81.9680851 152.978723,81.9680851 C154.202128,76.2765957 151.595745,72.4468085 149.468085,69.4148936 L148.617021,68.1382979 C146.329787,64.5744681 141.648936,62.1808511 140.797872,61.7553191 C140.531915,61.5957447 136.542553,59.0425532 137.180851,51.3829787 C137.234043,50.6382979 137.340426,49.893617 137.5,49.2553191 C138.829787,42.9255319 143.56383,40.4787234 146.170213,39.0957447 C148.723404,37.7659574 150.212766,36.0638298 150.691489,33.9361702 C151.010638,32.3404255 150.744681,30.4787234 149.893617,28.3510638 C147.393617,22.3404255 142.021277,22.8723404 139.414894,23.1382979 C136.542553,23.4042553 128.617021,25.1595745 118.56383,27.393617 C109.468085,29.4148936 76.7021277,38.5106383 75.3191489,38.8829787 C72.9255319,39.5744681 17.7659574,55.5851064 12.712766,57.2340426 C7.92553191,58.7765957 7.28723404,58.3510638 5.85106383,57.1808511 C4.94680851,56.4893617 5,55.4255319 5.10638298,54.9468085 C5.10638298,54.8404255 5.15957447,54.7340426 5.15957447,54.7340426 C5.15957447,54.7340426 18.8297872,14.0957447 19.3617021,12.5531915 C22.2340426,5.21276596 32.287234,4.41489362 35.4787234,4.94680851 C38.3510638,5.42553191 44.1489362,7.71276596 49.787234,9.84042553 L57.5531915,12.7659574 C65.4255319,15.5851064 102.819149,25.9042553 104.361702,26.3297872 L104.202128,26.2765957 C110.638298,28.6170213 115.904255,27.0212766 116.648936,26.7553191 C117.12766,26.5425532 136.43617,21.1702128 141.808511,19.893617 Z" id="Shape" fill="#B7B5B6"></path>
                    </g>
                    <g id="PUNTOS_INTERMEDIOS_Y_SEMAFORO" transform="translate(37.765957, 9.042553)">
                        <g id="Group" transform="translate(42.553191, 28.723404)" fill="#AC1737" fill-rule="nonzero">
                            <path d="M4.14893617,18.1382979 C3.88297872,18.1914894 3.61702128,18.0319149 3.56382979,17.8191489 L0.106382979,4.78723404 C0.0531914894,4.57446809 0.159574468,4.30851064 0.425531915,4.25531915 L9.5212766,1.80851064 C9.78723404,1.75531915 10.0531915,1.91489362 10.106383,2.12765957 C10.1595745,2.39361702 10,2.65957447 9.78723404,2.71276596 L1.32978723,4.94680851 C1.22340426,4.94680851 1.17021277,5.05319149 1.22340426,5.15957447 L4.5212766,17.5 C4.5212766,17.8191489 4.36170213,18.0319149 4.14893617,18.1382979 Z" id="Shape"></path>
                            <path d="M11.3297872,2.07446809 C11.4893617,1.91489362 11.4361702,1.64893617 11.2234043,1.59574468 L9.36170213,1.06382979 L7.5,0.531914894 C7.28723404,0.478723404 7.07446809,0.691489362 7.12765957,0.904255319 L7.60638298,2.76595745 L8.08510638,4.62765957 C8.13829787,4.84042553 8.40425532,4.89361702 8.56382979,4.73404255 L9.94680851,3.35106383 L11.3297872,2.07446809 Z" id="Shape"></path>
                        </g>
                        <path d="M16.9692671,60.2792553 L19.893617,60.2792553 C22.1276596,60.2792553 23.9361702,62.087766 23.9361702,64.3218085 L23.9361702,66.875 C23.9361702,69.1090426 22.1276596,70.9175532 19.893617,70.9175532 L13.6702128,70.9175532 C11.4361702,70.9175532 9.57446809,69.1090426 9.57446809,66.875 L9.57446809,64.3218085 C9.57446809,62.087766 11.3829787,60.2792553 13.6702128,60.2792553 L15.9797366,60.2792553 L11.1702128,45.2792553 C11.1170213,45.0132979 11.2234043,44.8005319 11.4893617,44.6941489 C11.7553191,44.6409574 12.0212766,44.7473404 12.0744681,45.0132979 L16.9692671,60.2792553 Z" id="Combined-Shape" fill="#AC1737" fill-rule="nonzero"></path>
                        <path d="M7.39479905,42.7260638 L10.3191489,42.7260638 C12.5531915,42.7260638 14.3617021,44.5345745 14.3617021,46.768617 L14.3617021,49.3218085 C14.3617021,51.5558511 12.5531915,53.3643617 10.3191489,53.3643617 L4.09574468,53.3643617 C1.86170213,53.3643617 0,51.5558511 0,49.3218085 L0,46.768617 C0,44.5345745 1.80851064,42.7260638 4.09574468,42.7260638 L6.40526849,42.7260638 L1.59574468,27.7260638 C1.54255319,27.4601064 1.64893617,27.2473404 1.91489362,27.1409574 C2.18085106,27.087766 2.44680851,27.1941489 2.5,27.4601064 L7.39479905,42.7260638 Z" id="Combined-Shape-Copy" fill="#AC1737" fill-rule="nonzero" transform="translate(7.180851, 40.246011) scale(-1, -1) translate(-7.180851, -40.246011) "></path>
                        <path d="M4.25531915,34.4531915 L4.25531915,29.787234 L5.08292016,29.787234 L5.08292016,33.7540113 L7.01636736,33.7540113 L7.01636736,34.4531915 L4.25531915,34.4531915 Z M7.90104431,34.4531915 L7.90104431,30.4864142 L6.55262541,30.4864142 L6.55262541,29.787234 L10.0699297,29.787234 L10.0699297,30.4864142 L8.72864533,30.4864142 L8.72864533,34.4531915 L7.90104431,34.4531915 Z" id="LT" fill="#FFFFFF"></path>
                        <path d="M50.0531915,22.287234 C49.787234,22.2340426 49.6808511,21.9680851 49.7340426,21.7021277 L54.3617021,4.73404255 C54.4148936,4.46808511 54.6808511,4.36170213 54.9468085,4.41489362 C55.212766,4.46808511 55.3191489,4.73404255 55.2659574,5 L50.6382979,21.9680851 C50.5851064,22.2340426 50.3191489,22.3404255 50.0531915,22.287234 Z" id="Shape" fill="#AC1737" fill-rule="nonzero"></path>
                        <path d="M53.1914894,32.7659574 C53.4574468,32.712766 53.7234043,32.8191489 53.7765957,33.0851064 L59.1489362,49.8404255 C59.2021277,50.106383 59.0957447,50.3723404 58.8297872,50.4255319 C58.5638298,50.4787234 58.2978723,50.3723404 58.2446809,50.106383 L52.8723404,33.3510638 C52.7659574,33.1382979 52.9255319,32.8723404 53.1914894,32.7659574 Z" id="Shape" fill="#AC1737" fill-rule="nonzero"></path>
                        <path d="M114.680851,53.5638298 C114.893617,53.7234043 114.946809,53.9893617 114.787234,54.2021277 L104.893617,68.7234043 C104.734043,68.9361702 104.468085,68.9893617 104.255319,68.8297872 C104.042553,68.6702128 103.989362,68.4042553 104.148936,68.1914894 L114.042553,53.6702128 C114.148936,53.4574468 114.468085,53.4042553 114.680851,53.5638298 Z" id="Shape" fill="#AC1737" fill-rule="nonzero"></path>
                        <path d="M113.776596,112.340426 C113.56383,112.446809 113.244681,112.393617 113.138298,112.12766 L105.053191,96.4893617 C104.946809,96.2765957 105,95.9574468 105.265957,95.8510638 C105.478723,95.7446809 105.797872,95.7978723 105.904255,96.0638298 L113.989362,111.702128 C114.095745,111.914894 113.989362,112.234043 113.776596,112.340426 Z" id="Shape" fill="#AC1737" fill-rule="nonzero"></path>
                        <g id="Group" transform="translate(107.446809, 104.787234)" fill-rule="nonzero">
                            <path d="M0,4.25531915 C0,2.0212766 1.80851064,0.159574468 4.04255319,0.159574468 L6.70212766,0.159574468 C8.93617021,0.159574468 10.7978723,1.96808511 10.7978723,4.25531915 L10.7978723,6.96808511 C10.7978723,9.20212766 8.9893617,11.0638298 6.70212766,11.0638298 L4.04255319,11.0638298 C1.80851064,11.0638298 0,9.25531915 0,6.96808511 L0,4.25531915 Z" id="Shape" fill="#AC1737"></path>
                            <g transform="translate(2.659574, 3.191489)" fill="#FFFFFF" id="Shape">
                                <path d="M0.372340426,0.478723404 C0.372340426,0.212765957 0.585106383,0.0531914894 0.85106383,0.0531914894 C1.11702128,0.0531914894 1.32978723,0.212765957 1.32978723,0.478723404 C1.32978723,0.744680851 1.11702128,0.904255319 0.85106383,0.904255319 C0.585106383,0.904255319 0.372340426,0.744680851 0.372340426,0.478723404 Z M0.425531915,1.4893617 L1.22340426,1.4893617 L1.22340426,4.78723404 L0.425531915,4.78723404 L0.425531915,1.4893617 Z"></path>
                                <path d="M2.28723404,4.36170213 C3.45744681,3.19148936 4.25531915,2.44680851 4.25531915,1.80851064 C4.25531915,1.32978723 3.9893617,1.06382979 3.56382979,1.06382979 C3.24468085,1.06382979 2.9787234,1.27659574 2.71276596,1.54255319 L2.28723404,1.11702128 C2.65957447,0.691489362 3.08510638,0.478723404 3.67021277,0.478723404 C4.46808511,0.478723404 5.05319149,1.0106383 5.05319149,1.80851064 C5.05319149,2.55319149 4.36170213,3.35106383 3.5106383,4.25531915 C3.72340426,4.25531915 4.04255319,4.20212766 4.20212766,4.20212766 L5.26595745,4.20212766 L5.26595745,4.84042553 L2.34042553,4.84042553 L2.34042553,4.36170213 L2.28723404,4.36170213 Z"></path>
                            </g>
                        </g>
                        <g id="Group" transform="translate(53.723404, 41.489362)" fill-rule="nonzero">
                            <path d="M0.478723404,4.14893617 C0.478723404,1.91489362 2.28723404,0.106382979 4.5212766,0.106382979 L5.95744681,0.106382979 C8.19148936,0.106382979 10,1.91489362 10,4.14893617 L10,6.70212766 C10,8.93617021 8.19148936,10.7446809 5.95744681,10.7446809 L4.5212766,10.7446809 C2.28723404,10.7446809 0.478723404,8.93617021 0.478723404,6.70212766 L0.478723404,4.14893617 Z" id="Shape" fill="#AC1737"></path>
                            <path d="M4.14893617,6.54255319 C4.46808511,6.86170213 4.89361702,7.0212766 5.31914894,7.0212766 C5.79787234,7.0212766 6.06382979,6.80851064 6.06382979,6.43617021 C6.06382979,6.06382979 5.79787234,5.95744681 5.37234043,5.79787234 L4.78723404,5.53191489 C4.36170213,5.37234043 3.88297872,5 3.88297872,4.36170213 C3.88297872,3.67021277 4.5212766,3.13829787 5.37234043,3.13829787 C5.90425532,3.13829787 6.38297872,3.35106383 6.75531915,3.72340426 L6.32978723,4.20212766 C6.06382979,3.9893617 5.74468085,3.82978723 5.37234043,3.82978723 C4.94680851,3.82978723 4.68085106,4.04255319 4.68085106,4.36170213 C4.68085106,4.68085106 5,4.84042553 5.37234043,5 L5.95744681,5.26595745 C6.4893617,5.4787234 6.86170213,5.79787234 6.86170213,6.43617021 C6.86170213,7.12765957 6.27659574,7.76595745 5.26595745,7.76595745 C4.68085106,7.76595745 4.09574468,7.55319149 3.67021277,7.12765957 L4.14893617,6.54255319 Z" id="Shape" fill="#FFFFFF"></path>
                        </g>
                        <g id="Group" transform="translate(9.042553, 60.106383)" fill="#FFFFFF" fill-rule="nonzero">
                            <g transform="translate(4.255319, 2.659574)" id="Shape">
                                <polygon points="0.212765957 0.478723404 2.87234043 0.478723404 2.87234043 1.11702128 1.0106383 1.11702128 1.0106383 2.34042553 2.60638298 2.34042553 2.60638298 2.9787234 1.0106383 2.9787234 1.0106383 4.84042553 0.212765957 4.84042553"></polygon>
                                <polygon points="3.9893617 0.478723404 4.78723404 0.478723404 4.78723404 4.25531915 6.59574468 4.25531915 6.59574468 4.89361702 3.9893617 4.89361702"></polygon>
                            </g>
                        </g>
                        <g id="Group" transform="translate(111.702128, 50.531915)" fill-rule="nonzero">
                            <path d="M0.425531915,4.36170213 C0.425531915,2.12765957 2.23404255,0.319148936 4.5212766,0.319148936 L6.59574468,0.319148936 C8.82978723,0.319148936 10.6914894,2.12765957 10.6914894,4.36170213 L10.6914894,7.28723404 C10.6914894,9.5212766 8.88297872,11.3829787 6.59574468,11.3829787 L4.5212766,11.3829787 C2.28723404,11.3829787 0.425531915,9.57446809 0.425531915,7.28723404 L0.425531915,4.36170213 Z" id="Shape" fill="#AC1737"></path>
                            <g transform="translate(2.659574, 3.191489)" fill="#FFFFFF" id="Shape">
                                <path d="M0.478723404,0.691489362 C0.478723404,0.425531915 0.691489362,0.265957447 0.957446809,0.265957447 C1.22340426,0.265957447 1.43617021,0.425531915 1.43617021,0.691489362 C1.43617021,0.957446809 1.22340426,1.11702128 0.957446809,1.11702128 C0.638297872,1.11702128 0.478723404,0.957446809 0.478723404,0.691489362 Z M0.531914894,1.70212766 L1.32978723,1.70212766 L1.32978723,5 L0.531914894,5 L0.531914894,1.70212766 Z"></path>
                                <path d="M2.65957447,4.41489362 L3.61702128,4.41489362 L3.61702128,1.59574468 L2.81914894,1.59574468 L2.81914894,1.11702128 C3.24468085,1.0106383 3.56382979,0.904255319 3.82978723,0.744680851 L4.41489362,0.744680851 L4.41489362,4.41489362 L5.26595745,4.41489362 L5.26595745,5.05319149 L2.65957447,5.05319149 L2.65957447,4.41489362 Z"></path>
                            </g>
                        </g>
                        <g id="Group" transform="translate(23.404255, 59.042553)">
                            <path d="M0.212765957,4.36170213 C0.212765957,2.12765957 2.0212766,0.319148936 4.25531915,0.319148936 L7.87234043,0.319148936 C10.106383,0.319148936 11.9148936,2.12765957 11.9148936,4.36170213 L11.9148936,8.77659574 C11.9148936,11.0106383 10.106383,12.8191489 7.87234043,12.8191489 L4.25531915,12.8191489 C2.0212766,12.8191489 0.212765957,11.0106383 0.212765957,8.77659574 L0.212765957,4.36170213 Z" id="Shape" fill="#7B7C7D" fill-rule="nonzero"></path>
                            <g transform="translate(1.063830, 1.063830)" fill-rule="nonzero" id="Shape">
                                <path d="M4.36170213,10.5851064 C2.28723404,10.5851064 0.585106383,8.88297872 0.585106383,6.80851064 L0.585106383,4.25531915 C0.585106383,2.18085106 2.28723404,0.478723404 4.36170213,0.478723404 L5.79787234,0.478723404 C7.87234043,0.478723404 9.57446809,2.18085106 9.57446809,4.25531915 L9.57446809,6.80851064 C9.57446809,8.88297872 7.87234043,10.5851064 5.79787234,10.5851064 L4.36170213,10.5851064 Z" fill="#FFFFFF"></path>
                                <path d="M5.79787234,0.691489362 C7.76595745,0.691489362 9.30851064,2.28723404 9.30851064,4.20212766 L9.30851064,6.75531915 C9.30851064,8.72340426 7.71276596,10.2659574 5.79787234,10.2659574 L4.36170213,10.2659574 C2.39361702,10.2659574 0.85106383,8.67021277 0.85106383,6.75531915 L0.85106383,4.25531915 C0.85106383,2.28723404 2.44680851,0.744680851 4.36170213,0.744680851 L5.79787234,0.744680851 L5.79787234,0.691489362 Z M5.79787234,0.159574468 L4.36170213,0.159574468 C2.12765957,0.159574468 0.319148936,1.96808511 0.319148936,4.20212766 L0.319148936,6.75531915 C0.319148936,8.9893617 2.12765957,10.7978723 4.36170213,10.7978723 L5.79787234,10.7978723 C8.03191489,10.7978723 9.84042553,8.9893617 9.84042553,6.75531915 L9.84042553,4.25531915 C9.89361702,1.96808511 8.08510638,0.159574468 5.79787234,0.159574468 Z" fill="#C7C6C5"></path>
                            </g>
                            <g id="Clipped" transform="translate(1.063830, 1.063830)">
                                <mask id="mask-2" fill="white">
                                    <use xlink:href="#path-1"></use>
                                </mask>
                                <g id="SVGID_19_"></g>
                                <g id="Group" mask="url(#mask-2)" fill="#1E1E1C" fill-rule="nonzero">
                                    <g transform="translate(-2.659574, 1.063830)" id="Rectangle-path">
                                        <rect x="0.106382979" y="0" width="2.23404255" height="2.23404255"></rect>
                                        <rect x="2.28723404" y="2.18085106" width="2.23404255" height="2.23404255"></rect>
                                        <rect x="4.5212766" y="0" width="2.23404255" height="2.23404255"></rect>
                                        <rect x="6.75531915" y="2.18085106" width="2.23404255" height="2.23404255"></rect>
                                        <rect x="0.106382979" y="4.41489362" width="2.23404255" height="2.23404255"></rect>
                                        <rect x="2.28723404" y="6.64893617" width="2.23404255" height="2.23404255"></rect>
                                        <rect x="4.5212766" y="4.41489362" width="2.23404255" height="2.23404255"></rect>
                                        <rect x="6.75531915" y="6.64893617" width="2.23404255" height="2.23404255"></rect>
                                        <rect x="8.93617021" y="0" width="2.23404255" height="2.23404255"></rect>
                                        <rect x="11.1702128" y="2.18085106" width="2.23404255" height="2.23404255"></rect>
                                        <rect x="8.93617021" y="4.41489362" width="2.23404255" height="2.23404255"></rect>
                                        <rect x="11.1702128" y="6.64893617" width="2.23404255" height="2.23404255"></rect>
                                    </g>
                                </g>
                            </g>
                            <path d="M6.86170213,1.75531915 C8.82978723,1.75531915 10.3723404,3.35106383 10.3723404,5.26595745 L10.3723404,7.81914894 C10.3723404,9.78723404 8.77659574,11.3297872 6.86170213,11.3297872 L5.42553191,11.3297872 C3.45744681,11.3297872 1.91489362,9.73404255 1.91489362,7.81914894 L1.91489362,5.31914894 C1.91489362,3.35106383 3.5106383,1.80851064 5.42553191,1.80851064 L6.86170213,1.80851064 L6.86170213,1.75531915 Z M6.86170213,1.22340426 L5.42553191,1.22340426 C3.19148936,1.22340426 1.38297872,3.03191489 1.38297872,5.26595745 L1.38297872,7.81914894 C1.38297872,10.0531915 3.19148936,11.8617021 5.42553191,11.8617021 L6.86170213,11.8617021 C9.09574468,11.8617021 10.9042553,10.0531915 10.9042553,7.81914894 L10.9042553,5.31914894 C10.9574468,3.03191489 9.14893617,1.22340426 6.86170213,1.22340426 Z" id="Shape" fill="#C7C6C5" fill-rule="nonzero"></path>
                        </g>
                        <g id="Group" transform="translate(31.914894, 45.744681)" fill-rule="nonzero">
                            <path d="M0,4.14893617 C0,1.91489362 1.80851064,0.106382979 4.04255319,0.106382979 L17.7659574,0.106382979 C20,0.106382979 21.8085106,1.91489362 21.8085106,4.14893617 L21.8085106,8.56382979 C21.8085106,10.7978723 20,12.606383 17.7659574,12.606383 L4.04255319,12.606383 C1.80851064,12.606383 0,10.7978723 0,8.56382979 L0,4.14893617 Z" id="Shape" fill="#7B7C7D"></path>
                            <g transform="translate(0.531915, 1.063830)" id="Shape">
                                <g>
                                    <path d="M4.41489362,10.4255319 C2.34042553,10.4255319 0.638297872,8.72340426 0.638297872,6.64893617 L0.638297872,4.09574468 C0.638297872,2.0212766 2.34042553,0.319148936 4.41489362,0.319148936 L5.85106383,0.319148936 C7.92553191,0.319148936 9.62765957,2.0212766 9.62765957,4.09574468 L9.62765957,6.64893617 C9.62765957,8.72340426 7.92553191,10.4255319 5.85106383,10.4255319 L4.41489362,10.4255319 Z" fill="#C01724"></path>
                                    <path d="M5.85106383,0.531914894 C7.81914894,0.531914894 9.36170213,2.12765957 9.36170213,4.04255319 L9.36170213,6.59574468 C9.36170213,8.56382979 7.76595745,10.106383 5.85106383,10.106383 L4.41489362,10.106383 C2.44680851,10.106383 0.904255319,8.5106383 0.904255319,6.59574468 L0.904255319,4.04255319 C0.904255319,2.07446809 2.5,0.531914894 4.41489362,0.531914894 L5.85106383,0.531914894 Z M5.85106383,0 L4.41489362,0 C2.18085106,0 0.372340426,1.80851064 0.372340426,4.04255319 L0.372340426,6.59574468 C0.372340426,8.82978723 2.18085106,10.6382979 4.41489362,10.6382979 L5.85106383,10.6382979 C8.08510638,10.6382979 9.89361702,8.82978723 9.89361702,6.59574468 L9.89361702,4.04255319 C9.94680851,1.80851064 8.08510638,0 5.85106383,0 Z" fill="#AA1920"></path>
                                </g>
                                <g transform="translate(10.638298, 0.000000)">
                                    <path d="M4.30851064,10.4255319 C2.23404255,10.4255319 0.531914894,8.72340426 0.531914894,6.64893617 L0.531914894,4.09574468 C0.531914894,2.0212766 2.23404255,0.319148936 4.30851064,0.319148936 L5.74468085,0.319148936 C7.81914894,0.319148936 9.5212766,2.0212766 9.5212766,4.09574468 L9.5212766,6.64893617 C9.5212766,8.72340426 7.81914894,10.4255319 5.74468085,10.4255319 L4.30851064,10.4255319 Z" fill="#009548"></path>
                                    <path d="M5.74468085,0.531914894 C7.71276596,0.531914894 9.25531915,2.12765957 9.25531915,4.04255319 L9.25531915,6.59574468 C9.25531915,8.56382979 7.65957447,10.106383 5.74468085,10.106383 L4.30851064,10.106383 C2.34042553,10.106383 0.79787234,8.5106383 0.79787234,6.59574468 L0.79787234,4.04255319 C0.79787234,2.07446809 2.39361702,0.531914894 4.30851064,0.531914894 L5.74468085,0.531914894 Z M5.74468085,0 L4.30851064,0 C2.07446809,0 0.265957447,1.80851064 0.265957447,4.04255319 L0.265957447,6.59574468 C0.265957447,8.82978723 2.07446809,10.6382979 4.30851064,10.6382979 L5.74468085,10.6382979 C7.9787234,10.6382979 9.78723404,8.82978723 9.78723404,6.59574468 L9.78723404,4.04255319 C9.78723404,1.80851064 7.9787234,0 5.74468085,0 Z" fill="#006139"></path>
                                </g>
                            </g>
                        </g>
                        <g id="Group" transform="translate(48.404255, 0.000000)" fill-rule="nonzero">
                            <path d="M0.372340426,4.20212766 C0.372340426,1.96808511 2.18085106,0.106382979 4.41489362,0.106382979 L7.12765957,0.106382979 C9.36170213,0.106382979 11.2234043,1.91489362 11.2234043,4.20212766 L11.2234043,6.91489362 C11.2234043,9.14893617 9.41489362,10.9574468 7.12765957,10.9574468 L4.41489362,10.9574468 C2.18085106,10.9574468 0.372340426,9.14893617 0.372340426,6.91489362 L0.372340426,4.20212766 Z" id="Shape" fill="#AC1737"></path>
                            <g transform="translate(3.191489, 2.659574)" fill="#FFFFFF" id="Shape">
                                <path d="M0.159574468,0.904255319 C0.159574468,0.638297872 0.372340426,0.478723404 0.638297872,0.478723404 C0.904255319,0.478723404 1.11702128,0.638297872 1.11702128,0.904255319 C1.11702128,1.17021277 0.904255319,1.32978723 0.638297872,1.32978723 C0.372340426,1.32978723 0.159574468,1.17021277 0.159574468,0.904255319 Z M0.265957447,1.91489362 L1.06382979,1.91489362 L1.06382979,5.21276596 L0.265957447,5.21276596 L0.265957447,1.91489362 Z"></path>
                                <path d="M2.39361702,4.20212766 C2.65957447,4.46808511 2.9787234,4.68085106 3.40425532,4.68085106 C3.88297872,4.68085106 4.20212766,4.41489362 4.20212766,4.04255319 C4.20212766,3.61702128 3.93617021,3.29787234 2.92553191,3.29787234 L2.92553191,2.71276596 C3.77659574,2.71276596 4.04255319,2.44680851 4.04255319,2.0212766 C4.04255319,1.64893617 3.77659574,1.43617021 3.40425532,1.43617021 C3.08510638,1.43617021 2.81914894,1.59574468 2.55319149,1.86170213 L2.12765957,1.38297872 C2.5,1.06382979 2.92553191,0.85106383 3.40425532,0.85106383 C4.20212766,0.85106383 4.78723404,1.27659574 4.78723404,1.96808511 C4.78723404,2.44680851 4.5212766,2.76595745 4.04255319,2.9787234 L4.04255319,3.03191489 C4.57446809,3.19148936 4.94680851,3.5106383 4.94680851,4.09574468 C4.94680851,4.89361702 4.25531915,5.31914894 3.45744681,5.31914894 C2.76595745,5.31914894 2.28723404,5.05319149 2.0212766,4.73404255 L2.39361702,4.20212766 Z"></path>
                            </g>
                        </g>
                    </g>
                    <g id="textos_y_numeros" fill="#7B7C7D" fill-rule="nonzero">
                        <path d="M139.148936,42.7659574 L140.212766,42.7659574 L140.212766,39.6276596 L139.308511,39.6276596 L139.308511,39.0957447 C139.787234,38.9893617 140.106383,38.8829787 140.425532,38.7234043 L141.06383,38.7234043 L141.06383,42.7659574 L142.021277,42.7659574 L142.021277,43.4574468 L139.148936,43.4574468 L139.148936,42.7659574 Z" id="Shape"></path>
                        <path d="M143.191489,62.9787234 C144.521277,61.7021277 145.37234,60.8510638 145.37234,60.106383 C145.37234,59.6276596 145.106383,59.2553191 144.574468,59.2553191 C144.202128,59.2553191 143.882979,59.5212766 143.617021,59.787234 L143.138298,59.3085106 C143.56383,58.8297872 143.989362,58.5638298 144.680851,58.5638298 C145.585106,58.5638298 146.170213,59.1489362 146.170213,60.0531915 C146.170213,60.9042553 145.37234,61.7553191 144.414894,62.7659574 C144.680851,62.7659574 145,62.712766 145.212766,62.712766 L146.382979,62.712766 L146.382979,63.4574468 L143.138298,63.4574468 L143.138298,62.9787234 L143.191489,62.9787234 Z" id="Shape"></path>
                        <path d="M142.819149,90 C143.085106,90.3191489 143.457447,90.5319149 143.93617,90.5319149 C144.468085,90.5319149 144.840426,90.2659574 144.840426,89.787234 C144.840426,89.3085106 144.521277,88.9893617 143.457447,88.9893617 L143.457447,88.3510638 C144.414894,88.3510638 144.680851,88.0319149 144.680851,87.606383 C144.680851,87.2340426 144.414894,86.9680851 143.989362,86.9680851 C143.617021,86.9680851 143.297872,87.1276596 143.031915,87.393617 L142.606383,86.8617021 C143.031915,86.4893617 143.457447,86.2765957 144.042553,86.2765957 C144.946809,86.2765957 145.585106,86.7021277 145.585106,87.5531915 C145.585106,88.0851064 145.265957,88.4574468 144.734043,88.6702128 L144.734043,88.7234043 C145.319149,88.8829787 145.744681,89.2553191 145.744681,89.893617 C145.744681,90.7446809 145,91.2765957 144.095745,91.2765957 C143.297872,91.2765957 142.819149,90.9574468 142.5,90.5851064 L142.819149,90 Z" id="Shape"></path>
                        <path d="M128.138298,77.9787234 L127.553191,77.9787234 L127.553191,79.2021277 L126.755319,79.2021277 L126.755319,77.9787234 L124.62766,77.9787234 L124.62766,77.393617 L126.542553,74.4148936 L127.553191,74.4148936 L127.553191,77.287234 L128.138298,77.287234 L128.138298,77.9787234 Z M126.755319,77.3404255 L126.755319,76.2765957 C126.755319,76.0106383 126.755319,75.5851064 126.808511,75.2659574 L126.755319,75.2659574 C126.648936,75.5319149 126.489362,75.7446809 126.382979,76.0106383 L125.531915,77.3404255 L126.755319,77.3404255 Z" id="Shape"></path>
                        <path d="M116.223404,53.6170213 C116.489362,53.8829787 116.861702,54.1489362 117.340426,54.1489362 C117.87234,54.1489362 118.244681,53.8297872 118.244681,53.2446809 C118.244681,52.6595745 117.87234,52.3404255 117.340426,52.3404255 C117.021277,52.3404255 116.861702,52.4468085 116.595745,52.606383 L116.170213,52.3404255 L116.329787,50 L118.882979,50 L118.882979,50.7446809 L117.074468,50.7446809 L116.968085,51.9148936 C117.180851,51.8085106 117.340426,51.7553191 117.606383,51.7553191 C118.404255,51.7553191 119.095745,52.2340426 119.095745,53.2446809 C119.095745,54.3085106 118.297872,54.893617 117.393617,54.893617 C116.595745,54.893617 116.117021,54.5744681 115.744681,54.2553191 L116.223404,53.6170213 Z" id="Shape"></path>
                        <path d="M95.5851064,69.2021277 C95.4255319,68.9893617 95.106383,68.8297872 94.8404255,68.8297872 C94.2553191,68.8297872 93.7765957,69.2553191 93.7234043,70.5851064 C93.9893617,70.212766 94.4148936,70 94.7340426,70 C95.5851064,70 96.1170213,70.4787234 96.1170213,71.4893617 C96.1170213,72.4468085 95.4255319,73.0319149 94.6276596,73.0319149 C93.6702128,73.0319149 92.8723404,72.287234 92.8723404,70.6914894 C92.8723404,68.8297872 93.7765957,68.0851064 94.7340426,68.0851064 C95.3191489,68.0851064 95.7446809,68.3510638 96.0106383,68.6170213 L95.5851064,69.2021277 Z M95.3191489,71.5425532 C95.3191489,70.9574468 95.0531915,70.6914894 94.5744681,70.6914894 C94.3085106,70.6914894 93.9893617,70.8510638 93.7234043,71.2234043 C93.8297872,72.0744681 94.1489362,72.4468085 94.6276596,72.4468085 C95,72.4468085 95.3191489,72.1276596 95.3191489,71.5425532 Z" id="Shape"></path>
                        <path d="M115,114.202128 L112.765957,114.202128 L112.765957,113.457447 L115.957447,113.457447 L115.957447,113.989362 C114.840426,115.37234 114.62766,116.382979 114.574468,118.244681 L113.670213,118.244681 C113.723404,116.542553 114.095745,115.478723 115,114.202128 Z" id="Shape"></path>
                        <path d="M194.468085,80.5851064 C194.095745,80.3191489 193.829787,79.9468085 193.829787,79.4148936 C193.829787,78.6170213 194.468085,78.1382979 195.265957,78.1382979 C196.117021,78.1382979 196.648936,78.6702128 196.648936,79.4148936 C196.648936,79.893617 196.329787,80.2659574 196.010638,80.5319149 L196.010638,80.5851064 C196.43617,80.8510638 196.861702,81.1702128 196.861702,81.8085106 C196.861702,82.5531915 196.223404,83.0851064 195.265957,83.0851064 C194.308511,83.0851064 193.670213,82.5531915 193.670213,81.7553191 C193.617021,81.2234043 194.042553,80.8510638 194.468085,80.5851064 Z M195.265957,82.5 C195.744681,82.5 196.06383,82.2340426 196.06383,81.8085106 C196.06383,81.2765957 195.585106,81.1170213 194.893617,80.8510638 C194.574468,81.0638298 194.361702,81.3829787 194.361702,81.7553191 C194.361702,82.1808511 194.734043,82.5 195.265957,82.5 Z M195.957447,79.5212766 C195.957447,79.0957447 195.691489,78.7765957 195.265957,78.7765957 C194.893617,78.7765957 194.62766,79.0425532 194.62766,79.4148936 C194.62766,79.893617 195.053191,80.106383 195.585106,80.3191489 C195.797872,80.106383 195.957447,79.8404255 195.957447,79.5212766 Z" id="Shape"></path>
                        <path d="M175.744681,33.8829787 C175.904255,34.0957447 176.223404,34.2553191 176.489362,34.2553191 C177.074468,34.2553191 177.553191,33.8297872 177.606383,32.5 C177.340426,32.8191489 176.914894,33.0319149 176.542553,33.0319149 C175.744681,33.0319149 175.159574,32.5531915 175.159574,31.5425532 C175.159574,30.5851064 175.851064,30 176.648936,30 C177.606383,30 178.351064,30.7446809 178.351064,32.3404255 C178.351064,34.2021277 177.446809,34.9468085 176.489362,34.9468085 C175.904255,34.9468085 175.478723,34.6808511 175.212766,34.4148936 L175.744681,33.8829787 Z M177.606383,31.8617021 C177.5,31.0106383 177.180851,30.6382979 176.702128,30.6382979 C176.329787,30.6382979 176.010638,30.9574468 176.010638,31.5425532 C176.010638,32.1276596 176.276596,32.393617 176.755319,32.393617 C177.021277,32.393617 177.340426,32.2340426 177.606383,31.8617021 Z" id="Shape"></path>
                        <g id="Group" transform="translate(147.872340, 14.361702)">
                            <path d="M0.0531914894,4.62765957 L1.11702128,4.62765957 L1.11702128,1.4893617 L0.212765957,1.4893617 L0.212765957,0.957446809 C0.691489362,0.85106383 1.0106383,0.744680851 1.32978723,0.585106383 L1.96808511,0.585106383 L1.96808511,4.62765957 L2.92553191,4.62765957 L2.92553191,5.31914894 L0.0531914894,5.31914894 L0.0531914894,4.62765957 Z" id="Shape"></path>
                            <path d="M3.67021277,2.92553191 C3.67021277,1.32978723 4.30851064,0.478723404 5.26595745,0.478723404 C6.22340426,0.478723404 6.86170213,1.32978723 6.86170213,2.92553191 C6.86170213,4.5212766 6.22340426,5.42553191 5.26595745,5.42553191 C4.30851064,5.42553191 3.67021277,4.57446809 3.67021277,2.92553191 Z M6.06382979,2.92553191 C6.06382979,1.59574468 5.74468085,1.17021277 5.26595745,1.17021277 C4.78723404,1.17021277 4.46808511,1.59574468 4.46808511,2.92553191 C4.46808511,4.25531915 4.78723404,4.73404255 5.26595745,4.73404255 C5.74468085,4.73404255 6.06382979,4.30851064 6.06382979,2.92553191 Z" id="Shape"></path>
                        </g>
                        <g id="Group" transform="translate(111.170213, 21.808511)">
                            <path d="M0.425531915,4.09574468 L1.4893617,4.09574468 L1.4893617,0.957446809 L0.585106383,0.957446809 L0.585106383,0.425531915 C1.06382979,0.319148936 1.38297872,0.212765957 1.70212766,0.0531914894 L2.34042553,0.0531914894 L2.34042553,4.09574468 L3.29787234,4.09574468 L3.29787234,4.78723404 L0.425531915,4.78723404 L0.425531915,4.09574468 Z" id="Shape"></path>
                            <path d="M4.25531915,4.09574468 L5.31914894,4.09574468 L5.31914894,0.957446809 L4.41489362,0.957446809 L4.41489362,0.425531915 C4.89361702,0.319148936 5.21276596,0.212765957 5.53191489,0.0531914894 L6.17021277,0.0531914894 L6.17021277,4.09574468 L7.12765957,4.09574468 L7.12765957,4.78723404 L4.25531915,4.78723404 L4.25531915,4.09574468 Z" id="Shape"></path>
                        </g>
                        <g id="Group" transform="translate(25.000000, 0.000000)">
                            <path d="M0.372340426,4.30851064 L1.43617021,4.30851064 L1.43617021,1.17021277 L0.531914894,1.17021277 L0.531914894,0.638297872 C1.0106383,0.531914894 1.32978723,0.425531915 1.64893617,0.265957447 L2.28723404,0.265957447 L2.28723404,4.30851064 L3.24468085,4.30851064 L3.24468085,5 L0.372340426,5 L0.372340426,4.30851064 Z" id="Shape"></path>
                            <path d="M3.93617021,4.5212766 C5.26595745,3.24468085 6.11702128,2.39361702 6.11702128,1.64893617 C6.11702128,1.17021277 5.85106383,0.79787234 5.31914894,0.79787234 C4.94680851,0.79787234 4.62765957,1.06382979 4.36170213,1.32978723 L3.88297872,0.85106383 C4.30851064,0.372340426 4.73404255,0.106382979 5.42553191,0.106382979 C6.32978723,0.106382979 6.91489362,0.691489362 6.91489362,1.59574468 C6.91489362,2.44680851 6.11702128,3.29787234 5.15957447,4.30851064 C5.42553191,4.30851064 5.74468085,4.25531915 5.95744681,4.25531915 L7.12765957,4.25531915 L7.12765957,5 L3.88297872,5 L3.88297872,4.5212766 L3.93617021,4.5212766 Z" id="Shape"></path>
                        </g>
                        <g id="Group" transform="translate(0.000000, 72.872340)">
                            <path d="M0.212765957,4.30851064 L1.27659574,4.30851064 L1.27659574,1.17021277 L0.372340426,1.17021277 L0.372340426,0.638297872 C0.85106383,0.531914894 1.17021277,0.425531915 1.4893617,0.265957447 L2.12765957,0.265957447 L2.12765957,4.30851064 L3.08510638,4.30851064 L3.08510638,5 L0.212765957,5 L0.212765957,4.30851064 Z" id="Shape"></path>
                            <path d="M4.14893617,3.88297872 C4.41489362,4.20212766 4.78723404,4.41489362 5.26595745,4.41489362 C5.79787234,4.41489362 6.17021277,4.14893617 6.17021277,3.67021277 C6.17021277,3.19148936 5.85106383,2.87234043 4.78723404,2.87234043 L4.78723404,2.23404255 C5.74468085,2.23404255 6.0106383,1.91489362 6.0106383,1.4893617 C6.0106383,1.11702128 5.74468085,0.85106383 5.31914894,0.85106383 C4.94680851,0.85106383 4.62765957,1.0106383 4.36170213,1.27659574 L3.93617021,0.744680851 C4.36170213,0.372340426 4.78723404,0.159574468 5.37234043,0.159574468 C6.27659574,0.159574468 6.91489362,0.585106383 6.91489362,1.43617021 C6.91489362,1.96808511 6.59574468,2.34042553 6.06382979,2.55319149 L6.06382979,2.60638298 C6.64893617,2.76595745 7.07446809,3.13829787 7.07446809,3.77659574 C7.07446809,4.62765957 6.32978723,5.15957447 5.42553191,5.15957447 C4.62765957,5.15957447 4.14893617,4.84042553 3.82978723,4.46808511 L4.14893617,3.88297872 Z" id="Shape"></path>
                        </g>
                    </g>
                </g>
            </g>
        </g>
    </g>
</svg>