<?xml version="1.0" encoding="UTF-8"?>
<svg width="164px" height="125px" viewBox="0 0 164 125" version="1.1" xmlns="http://www.w3.org/2000/svg" xmlns:xlink="http://www.w3.org/1999/xlink">
    <!-- Generator: sketchtool 51.2 (57519) - http://www.bohemiancoding.com/sketch -->
    <title>61508014-E38A-4840-97C0-5DA3E60EF875</title>
    <desc>Created with sketchtool.</desc>
    <defs>
        <path d="M0.223214286,4.6875 C0.223214286,2.34375 2.12053571,0.446428571 4.46428571,0.446428571 L5.97098214,0.446428571 C8.31473214,0.446428571 10.2120536,2.34375 10.2120536,4.6875 L10.2120536,7.36607143 C10.2120536,9.70982143 8.31473214,11.6071429 5.97098214,11.6071429 L4.46428571,11.6071429 C2.12053571,11.6071429 0.223214286,9.70982143 0.223214286,7.36607143 L0.223214286,4.6875 Z" id="path-1"></path>
    </defs>
    <g id="Page-1" stroke="none" stroke-width="1" fill="none" fill-rule="evenodd">
        <g id="Circuit_info_05" transform="translate(-495.000000, -331.000000)">
            <g id="assets/circuits_info/6" transform="translate(477.000000, 331.000000)">
                <g id="assets/circuits_info/mugello" transform="translate(18.000000, 0.000000)">
                    <g id="trazado" transform="translate(3.906250, 6.696429)" fill="#B7B5B6" fill-rule="nonzero">
                        <path d="M50.8370536,6.41741071 C50.8370536,6.41741071 22.6004464,0.502232143 22.5446429,0.502232143 C21.7075893,0.279017857 13.1138393,-1.67410714 8.31473214,5.13392857 L8.25892857,5.18973214 L2.67857143,14.5089286 L2.734375,14.3973214 C2.62276786,14.5089286 1.5625,16.1830357 0.78125,18.8616071 C0.111607143,21.2053571 -0.334821429,24.3303571 0.446428571,27.7901786 C2.00892857,34.9888393 11.5513393,38.28125 11.9419643,38.3928571 C11.9419643,38.3928571 23.9397321,42.6897321 24.7767857,42.96875 C26.5066964,43.6941964 29.5200893,45.4241071 30.4129464,46.9866071 C31.3616071,48.6607143 31.8080357,50.0558036 31.8080357,51.171875 L31.640625,60.9933036 C31.640625,61.1049107 31.5290179,65.0111607 34.5424107,67.5223214 L60.3236607,88.8392857 L60.3794643,88.8950893 C60.8258929,89.1741071 64.6763393,91.8526786 68.5267857,90.234375 C71.4285714,89.0066964 74.4977679,87.3325893 74.609375,87.2767857 C74.7767857,87.2209821 76.2276786,86.5513393 78.1808036,87.890625 C81.3616071,90.0669643 108.984375,108.984375 109.263393,109.151786 L109.319196,109.207589 L109.430804,109.263393 C112.109375,110.770089 118.247768,111.997768 122.154018,106.026786 C123.883929,103.348214 125.334821,101.004464 125.725446,100.334821 C125.892857,100.111607 126.897321,99.2745536 129.017857,99.7767857 C132.8125,100.669643 140.736607,102.287946 141.071429,102.34375 L141.127232,102.34375 L141.183036,102.34375 C144.252232,102.790179 150.446429,102.232143 151.953125,96.9308036 C151.953125,96.875 151.953125,96.875 152.008929,96.8191964 C153.962054,89.84375 147.991071,87.1651786 146.037946,86.2723214 L145.926339,86.2165179 L127.957589,79.0736607 C127.957589,79.0736607 127.957589,79.0736607 127.957589,79.0736607 C127.957589,79.0736607 126.116071,78.2924107 122.935268,76.6183036 C114.787946,72.4888393 101.897321,64.7321429 101.283482,64.3415179 C100.837054,64.0625 97.3214286,61.6071429 92.96875,59.4866071 C88.4486607,57.3102679 73.6607143,50.390625 67.0758929,47.3772321 L25.1116071,28.1808036 C21.875,26.6741071 16.6294643,23.2142857 16.1272321,20.2008929 C15.8482143,18.4709821 15.9598214,17.0758929 16.2946429,15.9598214 C16.6852679,14.7321429 17.2991071,13.8392857 17.9129464,13.28125 C18.3035714,12.9464286 21.6517857,9.87723214 26.7299107,13.7276786 C32.6450893,18.1919643 58.984375,38.5044643 60.15625,39.3973214 C60.7700893,39.8995536 63.7276786,42.4107143 67.4665179,42.4107143 L72.3214286,42.2991071 C72.4888393,42.2991071 74.9441964,42.1316964 77.1205357,44.0848214 C80.078125,46.7075893 86.0491071,51.3950893 86.328125,51.5625 L86.4397321,51.6183036 L86.5513393,51.6741071 C89.7321429,53.5714286 96.8191964,55.5245536 100.669643,49.3303571 C102.734375,46.0379464 102.399554,43.359375 101.785714,41.6852679 C100.167411,37.3325893 94.9776786,35.3794643 93.4709821,34.9330357 C89.2299107,33.59375 61.1049107,25.1674107 60.8258929,25.1116071 C60.4352679,25 57.3102679,23.9397321 57.3660714,20.3683036 C57.421875,14.9553571 57.3660714,13.3370536 57.3660714,13.28125 C57.421875,12.9464286 56.9754464,7.8125 50.8370536,6.41741071 Z M53.1808036,13.5044643 C53.1808036,13.8950893 53.2366071,15.6808036 53.1808036,20.3125 C53.125,25.8928571 57.421875,28.5714286 59.7098214,29.1852679 C59.9330357,29.2410714 88.0580357,37.6674107 92.2991071,39.0066964 C94.4196429,39.6763393 97.1540179,41.1830357 97.8794643,43.1919643 C98.3258929,44.3638393 98.046875,45.6473214 97.1540179,47.0982143 C94.6428571,51.1160714 89.7321429,48.6049107 88.8950893,48.1026786 C88.2254464,47.6004464 82.7008929,43.2477679 80.0223214,40.8482143 C76.4508929,37.6674107 72.265625,38.0022321 72.0982143,38.0022321 C72.1540179,38.0022321 67.4665179,38.1138393 67.4665179,38.1138393 C65.1227679,38.1138393 63.0022321,36.2165179 62.9464286,36.1607143 L62.890625,36.1049107 L62.8348214,36.0491071 C62.5558036,35.8258929 35.3236607,14.84375 29.296875,10.3236607 C22.8794643,5.52455357 17.2433036,8.03571429 14.9553571,10.2678571 C13.671875,11.4955357 12.7790179,13.0580357 12.2767857,14.7879464 C11.71875,16.6294643 11.6629464,18.6941964 11.9977679,20.9263393 C13.0022321,27.0647321 22.3772321,31.5848214 23.4375,32.03125 C23.4375,32.03125 65.3459821,51.3392857 65.3459821,51.3392857 C71.9308036,54.3526786 86.6629464,61.2723214 91.1830357,63.4486607 C95.4241071,65.4575893 98.9397321,67.96875 98.9955357,67.96875 L99.0513393,68.0245536 L99.1071429,68.0803571 C99.21875,68.1361607 112.611607,76.2276786 121.09375,80.5245536 C124.497768,82.2544643 126.339286,83.0357143 126.395089,83.0915179 C126.450893,83.0915179 143.694196,90.0111607 144.363839,90.234375 C147.712054,91.7410714 148.660714,93.1919643 147.935268,95.7589286 C147.935268,95.7589286 147.935268,95.7589286 147.935268,95.8147321 C147.042411,98.828125 142.131696,98.2700893 141.852679,98.2142857 C141.350446,98.1026786 133.649554,96.5401786 130.022321,95.703125 C125.948661,94.7544643 123.270089,96.5401786 122.377232,97.7678571 L122.321429,97.8794643 L122.265625,97.9910714 C122.265625,97.9910714 120.647321,100.725446 118.638393,103.738839 C116.015625,107.700893 112.388393,106.082589 111.551339,105.636161 C109.598214,104.296875 83.6495536,86.6071429 80.5803571,84.4866071 C77.1763393,82.1428571 73.9397321,82.8683036 72.4888393,83.6495536 C72.4888393,83.6495536 69.53125,85.2678571 66.8526786,86.3839286 C65.4575893,86.9419643 63.5044643,85.9933036 62.890625,85.4910714 C62.7232143,85.3236607 37.2767857,64.3415179 37.2767857,64.3415179 C35.8816964,63.2254464 35.9375,61.2165179 35.9375,61.2165179 C35.9375,61.2165179 36.1049107,51.2834821 36.1049107,51.2834821 C36.1049107,49.3861607 35.4352679,47.3214286 34.1517857,45.0334821 C32.2544643,41.6852679 27.0647321,39.3973214 26.4508929,39.1741071 L26.3950893,39.1741071 L13.3928571,34.5424107 C11.2165179,33.8169643 5.52455357,31.0267857 4.63169643,27.0089286 C4.07366071,24.3861607 4.40848214,21.9866071 4.91071429,20.2008929 C5.52455357,18.1919643 6.30580357,16.9642857 6.30580357,16.9084821 L6.36160714,16.8526786 C6.36160714,16.8526786 11.7745536,7.92410714 11.8861607,7.70089286 C15.1227679,3.18080357 21.3727679,4.74330357 21.5959821,4.79910714 L21.7075893,4.79910714 C21.7075893,4.79910714 49.8883929,10.6584821 49.9441964,10.7142857 C52.734375,11.2165179 53.125,13.0580357 53.1808036,13.5044643 Z" id="Shape"></path>
                    </g>
                    <g id="PUNTOS_INTERMEDIOS_Y_SEMAFORO" transform="translate(8.370536, 37.946429)">
                        <path d="M112.276786,37.0535714 C112.5,37.2209821 112.555804,37.5 112.444196,37.7232143 L102.566964,53.2924107 C102.399554,53.515625 102.120536,53.5714286 101.897321,53.4598214 C101.674107,53.2924107 101.618304,53.0133929 101.729911,52.7901786 L111.607143,37.2209821 C111.71875,36.9977679 111.997768,36.8861607 112.276786,37.0535714 Z" id="Shape" fill="#AC1737" fill-rule="nonzero"></path>
                        <path d="M9.93303571,0.334821429 C10.2120536,0.446428571 10.3236607,0.725446429 10.2120536,0.948660714 L3.68303571,18.1919643 C3.57142857,18.4709821 3.29241071,18.5825893 3.06919643,18.4709821 C2.79017857,18.359375 2.67857143,18.0803571 2.79017857,17.8571429 L9.31919643,0.613839286 C9.375,0.390625 9.65401786,0.223214286 9.93303571,0.334821429 Z" id="Shape" fill="#AC1737" fill-rule="nonzero"></path>
                        <path d="M100.502232,66.8526786 C100.725446,67.0200893 100.78125,67.3549107 100.613839,67.5223214 L89.2299107,82.03125 C89.0625,82.2544643 88.7276786,82.3102679 88.5602679,82.1428571 C88.3370536,81.9754464 88.28125,81.640625 88.4486607,81.4732143 L99.8325893,66.9642857 C100,66.7410714 100.334821,66.6852679 100.502232,66.8526786 Z" id="Shape" fill="#AC1737" fill-rule="nonzero"></path>
                        <path d="M85.6026786,6.36160714 C85.7700893,6.58482143 85.7700893,6.86383929 85.546875,7.03125 L74.6651786,16.5178571 C74.4419643,16.6852679 74.1629464,16.6852679 73.9955357,16.4620536 C73.828125,16.2388393 73.828125,15.9598214 74.0513393,15.7924107 L84.9330357,6.30580357 C85.1004464,6.13839286 85.4352679,6.13839286 85.6026786,6.36160714 Z" id="Shape" fill="#AC1737" fill-rule="nonzero"></path>
                        <g id="Group" transform="translate(78.683036, 5.022321)" fill-rule="nonzero">
                            <path d="M0.223214286,4.57589286 C0.223214286,2.23214286 2.12053571,0.279017857 4.46428571,0.279017857 L7.31026786,0.279017857 C9.65401786,0.279017857 11.6071429,2.17633929 11.6071429,4.57589286 L11.6071429,7.421875 C11.6071429,9.765625 9.70982143,11.6629464 7.31026786,11.6629464 L4.46428571,11.6629464 C2.12053571,11.6629464 0.223214286,9.765625 0.223214286,7.421875 L0.223214286,4.57589286 Z" id="Shape" fill="#AC1737"></path>
                            <g transform="translate(3.348214, 3.348214)" fill="#FFFFFF" id="Shape">
                                <path d="M0.0558035714,0.613839286 C0.0558035714,0.334821429 0.279017857,0.167410714 0.558035714,0.167410714 C0.837053571,0.167410714 1.06026786,0.334821429 1.06026786,0.613839286 C1.06026786,0.892857143 0.837053571,1.06026786 0.558035714,1.06026786 C0.279017857,1.06026786 0.0558035714,0.837053571 0.0558035714,0.613839286 Z M0.167410714,1.67410714 L1.00446429,1.67410714 L1.00446429,5.13392857 L0.167410714,5.13392857 L0.167410714,1.67410714 Z"></path>
                                <path d="M2.39955357,4.07366071 C2.67857143,4.35267857 3.01339286,4.57589286 3.45982143,4.57589286 C3.96205357,4.57589286 4.296875,4.296875 4.296875,3.90625 C4.296875,3.45982143 4.01785714,3.125 2.95758929,3.125 L2.95758929,2.51116071 C3.85044643,2.51116071 4.12946429,2.23214286 4.12946429,1.78571429 C4.12946429,1.39508929 3.85044643,1.171875 3.45982143,1.171875 C3.125,1.171875 2.84598214,1.33928571 2.56696429,1.61830357 L2.12053571,1.11607143 C2.51116071,0.78125 2.95758929,0.558035714 3.45982143,0.558035714 C4.296875,0.558035714 4.91071429,1.00446429 4.91071429,1.72991071 C4.91071429,2.23214286 4.63169643,2.56696429 4.12946429,2.79017857 C4.6875,2.95758929 5.078125,3.29241071 5.078125,3.90625 C5.078125,4.74330357 4.35267857,5.18973214 3.515625,5.18973214 C2.79017857,5.18973214 2.28794643,4.91071429 2.00892857,4.57589286 L2.39955357,4.07366071 Z"></path>
                            </g>
                        </g>
                        <g id="Group" transform="translate(69.196429, 18.973214)" fill="#AC1737" fill-rule="nonzero">
                            <path d="M0.558035714,13.671875 C0.334821429,13.5602679 0.223214286,13.2254464 0.334821429,13.0022321 L7.08705357,0.613839286 C7.19866071,0.390625 7.47767857,0.334821429 7.70089286,0.446428571 L16.3504464,5.18973214 C16.5736607,5.30133929 16.6852679,5.63616071 16.5736607,5.859375 C16.4620536,6.08258929 16.1272321,6.19419643 15.9040179,6.08258929 L7.86830357,1.67410714 C7.75669643,1.61830357 7.64508929,1.67410714 7.58928571,1.72991071 L1.171875,13.5044643 C1.11607143,13.671875 0.78125,13.7834821 0.558035714,13.671875 Z" id="Shape"></path>
                            <path d="M17.6339286,6.640625 C17.8571429,6.640625 18.0245536,6.36160714 17.8571429,6.19419643 L16.796875,4.46428571 L15.7366071,2.734375 C15.625,2.51116071 15.3459821,2.56696429 15.234375,2.734375 L14.2299107,4.52008929 L13.2254464,6.30580357 C13.1138393,6.52901786 13.28125,6.75223214 13.5044643,6.75223214 L15.5691964,6.69642857 L17.6339286,6.640625 Z" id="Shape"></path>
                        </g>
                        <g id="Group" transform="translate(53.571429, 37.388393)">
                            <path d="M0.0558035714,4.296875 C0.0558035714,1.953125 1.953125,0.0558035714 4.296875,0.0558035714 L29.8549107,0.0558035714 C32.1986607,0.0558035714 34.0959821,1.953125 34.0959821,4.296875 L34.0959821,8.92857143 C34.0959821,11.2723214 32.1986607,13.1696429 29.8549107,13.1696429 L4.296875,13.1696429 C1.953125,13.1696429 0.0558035714,11.2723214 0.0558035714,8.92857143 L0.0558035714,4.296875 Z" id="Shape" fill="#7B7C7D" fill-rule="nonzero"></path>
                            <g transform="translate(22.879464, 0.558036)" fill-rule="nonzero" id="Shape">
                                <path d="M4.52008929,11.3839286 C2.34375,11.3839286 0.558035714,9.59821429 0.558035714,7.421875 L0.558035714,4.74330357 C0.558035714,2.56696429 2.34375,0.78125 4.52008929,0.78125 L6.02678571,0.78125 C8.203125,0.78125 9.98883929,2.56696429 9.98883929,4.74330357 L9.98883929,7.421875 C9.98883929,9.59821429 8.203125,11.3839286 6.02678571,11.3839286 L4.52008929,11.3839286 Z" fill="#FFFFFF"></path>
                                <path d="M6.02678571,1.00446429 C8.09151786,1.00446429 9.70982143,2.67857143 9.70982143,4.6875 L9.70982143,7.36607143 C9.70982143,9.43080357 8.03571429,11.0491071 6.02678571,11.0491071 L4.52008929,11.0491071 C2.45535714,11.0491071 0.837053571,9.375 0.837053571,7.36607143 L0.837053571,4.6875 C0.837053571,2.62276786 2.51116071,1.00446429 4.52008929,1.00446429 L6.02678571,1.00446429 Z M6.02678571,0.446428571 L4.52008929,0.446428571 C2.17633929,0.446428571 0.279017857,2.34375 0.279017857,4.6875 L0.279017857,7.36607143 C0.279017857,9.70982143 2.17633929,11.6071429 4.52008929,11.6071429 L6.02678571,11.6071429 C8.37053571,11.6071429 10.2678571,9.70982143 10.2678571,7.36607143 L10.2678571,4.6875 C10.2678571,2.34375 8.37053571,0.446428571 6.02678571,0.446428571 Z" fill="#C7C6C5"></path>
                            </g>
                            <g id="Clipped" transform="translate(22.879464, 0.558036)">
                                <mask id="mask-2" fill="white">
                                    <use xlink:href="#path-1"></use>
                                </mask>
                                <g id="SVGID_7_"></g>
                                <g id="Group" mask="url(#mask-2)" fill="#1E1E1C" fill-rule="nonzero">
                                    <g transform="translate(-2.790179, 1.116071)" id="Rectangle-path">
                                        <rect x="0.0558035714" y="0.223214286" width="2.34375" height="2.34375"></rect>
                                        <rect x="2.39955357" y="2.56696429" width="2.34375" height="2.34375"></rect>
                                        <rect x="4.74330357" y="0.223214286" width="2.34375" height="2.34375"></rect>
                                        <rect x="7.03125" y="2.56696429" width="2.34375" height="2.34375"></rect>
                                        <rect x="0.0558035714" y="4.91071429" width="2.34375" height="2.34375"></rect>
                                        <rect x="2.39955357" y="7.19866071" width="2.34375" height="2.34375"></rect>
                                        <rect x="4.74330357" y="4.91071429" width="2.34375" height="2.34375"></rect>
                                        <rect x="7.03125" y="7.19866071" width="2.34375" height="2.34375"></rect>
                                        <rect x="9.375" y="0.223214286" width="2.34375" height="2.34375"></rect>
                                        <rect x="11.71875" y="2.56696429" width="2.34375" height="2.34375"></rect>
                                        <rect x="9.375" y="4.91071429" width="2.34375" height="2.34375"></rect>
                                        <rect x="11.71875" y="7.19866071" width="2.34375" height="2.34375"></rect>
                                    </g>
                                </g>
                            </g>
                            <g transform="translate(0.558036, 0.558036)" fill-rule="nonzero" id="Shape">
                                <path d="M4.74330357,11.3839286 C2.56696429,11.3839286 0.78125,9.59821429 0.78125,7.421875 L0.78125,4.74330357 C0.78125,2.56696429 2.56696429,0.78125 4.74330357,0.78125 L6.25,0.78125 C8.42633929,0.78125 10.2120536,2.56696429 10.2120536,4.74330357 L10.2120536,7.421875 C10.2120536,9.59821429 8.42633929,11.3839286 6.25,11.3839286 L4.74330357,11.3839286 Z" fill="#C01724"></path>
                                <path d="M6.25,1.00446429 C8.31473214,1.00446429 9.93303571,2.67857143 9.93303571,4.6875 L9.93303571,7.36607143 C9.93303571,9.43080357 8.25892857,11.0491071 6.25,11.0491071 L4.74330357,11.0491071 C2.67857143,11.0491071 1.06026786,9.375 1.06026786,7.36607143 L1.06026786,4.6875 C1.06026786,2.62276786 2.734375,1.00446429 4.74330357,1.00446429 L6.25,1.00446429 Z M6.25,0.446428571 L4.74330357,0.446428571 C2.39955357,0.446428571 0.502232143,2.34375 0.502232143,4.6875 L0.502232143,7.36607143 C0.502232143,9.70982143 2.39955357,11.6071429 4.74330357,11.6071429 L6.25,11.6071429 C8.59375,11.6071429 10.4910714,9.70982143 10.4910714,7.36607143 L10.4910714,4.6875 C10.546875,2.34375 8.64955357,0.446428571 6.25,0.446428571 Z" fill="#AA1920"></path>
                            </g>
                            <g transform="translate(11.718750, 0.558036)" fill-rule="nonzero" id="Shape">
                                <path d="M4.63169643,11.3839286 C2.45535714,11.3839286 0.669642857,9.59821429 0.669642857,7.421875 L0.669642857,4.74330357 C0.669642857,2.56696429 2.45535714,0.78125 4.63169643,0.78125 L6.13839286,0.78125 C8.31473214,0.78125 10.1004464,2.56696429 10.1004464,4.74330357 L10.1004464,7.421875 C10.1004464,9.59821429 8.31473214,11.3839286 6.13839286,11.3839286 L4.63169643,11.3839286 Z" fill="#009548"></path>
                                <path d="M6.13839286,1.00446429 C8.203125,1.00446429 9.82142857,2.67857143 9.82142857,4.6875 L9.82142857,7.36607143 C9.82142857,9.43080357 8.14732143,11.0491071 6.13839286,11.0491071 L4.63169643,11.0491071 C2.56696429,11.0491071 0.948660714,9.375 0.948660714,7.36607143 L0.948660714,4.6875 C0.948660714,2.62276786 2.62276786,1.00446429 4.63169643,1.00446429 L6.13839286,1.00446429 Z M6.13839286,0.446428571 L4.63169643,0.446428571 C2.28794643,0.446428571 0.390625,2.34375 0.390625,4.6875 L0.390625,7.36607143 C0.390625,9.70982143 2.28794643,11.6071429 4.63169643,11.6071429 L6.13839286,11.6071429 C8.48214286,11.6071429 10.3794643,9.70982143 10.3794643,7.36607143 L10.3794643,4.6875 C10.4352679,2.34375 8.48214286,0.446428571 6.13839286,0.446428571 Z" fill="#006139"></path>
                            </g>
                            <path d="M28.90625,1.5625 C30.9709821,1.5625 32.5892857,3.23660714 32.5892857,5.24553571 L32.5892857,7.92410714 C32.5892857,9.98883929 30.9151786,11.6071429 28.90625,11.6071429 L27.3995536,11.6071429 C25.3348214,11.6071429 23.7165179,9.93303571 23.7165179,7.92410714 L23.7165179,5.24553571 C23.7165179,3.18080357 25.390625,1.5625 27.3995536,1.5625 L28.90625,1.5625 Z M28.90625,1.00446429 L27.3995536,1.00446429 C25.0558036,1.00446429 23.1584821,2.90178571 23.1584821,5.24553571 L23.1584821,7.92410714 C23.1584821,10.2678571 25.0558036,12.1651786 27.3995536,12.1651786 L28.90625,12.1651786 C31.25,12.1651786 33.1473214,10.2678571 33.1473214,7.92410714 L33.1473214,5.24553571 C33.1473214,2.90178571 31.25,1.00446429 28.90625,1.00446429 Z" id="Shape" fill="#C7C6C5" fill-rule="nonzero"></path>
                        </g>
                        <g id="Group" transform="translate(84.821429, 74.776786)" fill-rule="nonzero">
                            <path d="M0.167410714,4.52008929 C0.167410714,2.17633929 2.06473214,0.279017857 4.46428571,0.279017857 L6.640625,0.279017857 C8.984375,0.279017857 10.9375,2.17633929 10.9375,4.52008929 L10.9375,7.58928571 C10.9375,9.93303571 9.04017857,11.8861607 6.640625,11.8861607 L4.46428571,11.8861607 C2.12053571,11.8861607 0.167410714,9.98883929 0.167410714,7.58928571 L0.167410714,4.52008929 Z" id="Shape" fill="#AC1737"></path>
                            <g transform="translate(2.790179, 3.348214)" fill="#FFFFFF" id="Shape">
                                <path d="M0.223214286,0.669642857 C0.223214286,0.390625 0.446428571,0.223214286 0.725446429,0.223214286 C1.00446429,0.223214286 1.22767857,0.390625 1.22767857,0.669642857 C1.22767857,0.948660714 1.00446429,1.11607143 0.725446429,1.11607143 C0.446428571,1.11607143 0.223214286,0.948660714 0.223214286,0.669642857 Z M0.279017857,1.72991071 L1.11607143,1.72991071 L1.11607143,5.18973214 L0.279017857,5.18973214 L0.279017857,1.72991071 Z"></path>
                                <path d="M2.51116071,4.52008929 L3.515625,4.52008929 L3.515625,1.5625 L2.67857143,1.5625 L2.67857143,1.06026786 C3.125,0.948660714 3.45982143,0.837053571 3.73883929,0.669642857 L4.35267857,0.669642857 L4.35267857,4.52008929 L5.24553571,4.52008929 L5.24553571,5.18973214 L2.51116071,5.18973214 L2.51116071,4.52008929 Z"></path>
                            </g>
                        </g>
                        <g id="Group" transform="translate(0.000000, 9.486607)" fill-rule="nonzero">
                            <path d="M0.502232143,4.296875 C0.502232143,1.953125 2.39955357,0 4.74330357,0 L7.53348214,0 C9.87723214,0 11.8303571,1.89732143 11.8303571,4.296875 L11.8303571,7.14285714 C11.8303571,9.48660714 9.93303571,11.4397321 7.53348214,11.4397321 L4.74330357,11.4397321 C2.39955357,11.4397321 0.502232143,9.54241071 0.502232143,7.14285714 L0.502232143,4.296875 Z" id="Shape" fill="#AC1737"></path>
                            <g transform="translate(3.348214, 2.790179)" fill="#FFFFFF" id="Shape">
                                <path d="M0.279017857,0.892857143 C0.279017857,0.613839286 0.502232143,0.446428571 0.78125,0.446428571 C1.06026786,0.446428571 1.28348214,0.613839286 1.28348214,0.892857143 C1.28348214,1.171875 1.06026786,1.33928571 0.78125,1.33928571 C0.502232143,1.33928571 0.279017857,1.171875 0.279017857,0.892857143 Z M0.334821429,1.953125 L1.171875,1.953125 L1.171875,5.41294643 L0.334821429,5.41294643 L0.334821429,1.953125 Z"></path>
                                <path d="M2.34375,4.96651786 C3.57142857,3.73883929 4.40848214,2.95758929 4.40848214,2.28794643 C4.40848214,1.78571429 4.12946429,1.50669643 3.68303571,1.50669643 C3.34821429,1.50669643 3.06919643,1.72991071 2.79017857,2.00892857 L2.34375,1.5625 C2.734375,1.11607143 3.18080357,0.892857143 3.79464286,0.892857143 C4.63169643,0.892857143 5.24553571,1.45089286 5.24553571,2.28794643 C5.24553571,3.06919643 4.52008929,3.90625 3.62723214,4.85491071 C3.85044643,4.85491071 4.18526786,4.79910714 4.35267857,4.79910714 L5.46875,4.79910714 L5.46875,5.46875 L2.39955357,5.46875 L2.39955357,4.96651786 L2.34375,4.96651786 Z"></path>
                            </g>
                        </g>
                        <g id="Group" transform="translate(98.214286, 46.875000)" fill-rule="nonzero">
                            <path d="M0.390625,4.52008929 C0.390625,2.17633929 2.28794643,0.279017857 4.63169643,0.279017857 L6.13839286,0.279017857 C8.48214286,0.279017857 10.3794643,2.17633929 10.3794643,4.52008929 L10.3794643,7.19866071 C10.3794643,9.54241071 8.48214286,11.4397321 6.13839286,11.4397321 L4.63169643,11.4397321 C2.28794643,11.4397321 0.390625,9.54241071 0.390625,7.19866071 L0.390625,4.52008929 Z" id="Shape" fill="#AC1737"></path>
                            <path d="M4.24107143,7.03125 C4.57589286,7.36607143 5.02232143,7.53348214 5.46875,7.53348214 C5.97098214,7.53348214 6.25,7.31026786 6.25,6.91964286 C6.25,6.52901786 5.97098214,6.41741071 5.52455357,6.25 L4.91071429,5.97098214 C4.46428571,5.80357143 3.96205357,5.41294643 3.96205357,4.74330357 C3.96205357,4.01785714 4.63169643,3.45982143 5.52455357,3.45982143 C6.08258929,3.45982143 6.58482143,3.68303571 6.97544643,4.07366071 L6.52901786,4.57589286 C6.25,4.35267857 5.91517857,4.18526786 5.52455357,4.18526786 C5.078125,4.18526786 4.79910714,4.40848214 4.79910714,4.74330357 C4.79910714,5.078125 5.13392857,5.24553571 5.52455357,5.41294643 L6.13839286,5.69196429 C6.69642857,5.91517857 7.08705357,6.25 7.08705357,6.91964286 C7.08705357,7.64508929 6.47321429,8.31473214 5.41294643,8.31473214 C4.79910714,8.31473214 4.18526786,8.09151786 3.73883929,7.64508929 L4.24107143,7.03125 Z" id="Shape" fill="#FFFFFF"></path>
                        </g>
                        <g id="Group" transform="translate(59.709821, 26.227679)" fill-rule="nonzero">
                            <path d="M0.111607143,4.24107143 C0.111607143,1.89732143 2.00892857,0 4.40848214,0 L10.9375,0 C13.28125,0 15.1785714,1.89732143 15.1785714,4.24107143 L15.1785714,6.91964286 C15.1785714,9.26339286 13.28125,11.1607143 10.9375,11.1607143 L4.40848214,11.1607143 C2.06473214,11.1607143 0.111607143,9.26339286 0.111607143,6.91964286 L0.111607143,4.24107143 Z" id="Shape" fill="#AC1737"></path>
                            <g transform="translate(3.906250, 2.790179)" fill="#FFFFFF" id="Shape">
                                <polygon points="0.390625 0.446428571 3.18080357 0.446428571 3.18080357 1.11607143 1.22767857 1.11607143 1.22767857 2.39955357 2.90178571 2.39955357 2.90178571 3.06919643 1.22767857 3.06919643 1.22767857 5.02232143 0.390625 5.02232143"></polygon>
                                <polygon points="4.296875 0.446428571 5.13392857 0.446428571 5.13392857 4.40848214 7.03125 4.40848214 7.03125 5.078125 4.296875 5.078125"></polygon>
                            </g>
                        </g>
                    </g>
                    <g id="textos_y_numeros" fill="#7B7C7D" fill-rule="nonzero">
                        <path d="M160.379464,105.859375 L161.495536,105.859375 L161.495536,102.566964 L160.546875,102.566964 L160.546875,102.008929 C161.049107,101.897321 161.383929,101.785714 161.71875,101.618304 L162.388393,101.618304 L162.388393,105.859375 L163.392857,105.859375 L163.392857,106.584821 L160.379464,106.584821 L160.379464,105.859375 Z" id="Shape"></path>
                        <path d="M131.808036,113.169643 C133.203125,111.830357 134.095982,110.9375 134.095982,110.15625 C134.095982,109.654018 133.816964,109.263393 133.258929,109.263393 C132.868304,109.263393 132.533482,109.542411 132.254464,109.821429 L131.752232,109.319196 C132.198661,108.816964 132.645089,108.537946 133.370536,108.537946 C134.319196,108.537946 134.933036,109.151786 134.933036,110.100446 C134.933036,110.993304 134.095982,111.886161 133.091518,112.946429 C133.370536,112.946429 133.705357,112.890625 133.928571,112.890625 L135.15625,112.890625 L135.15625,113.671875 L131.752232,113.671875 L131.752232,113.169643 L131.808036,113.169643 Z" id="Shape"></path>
                        <path d="M117.578125,123.381696 C117.857143,123.716518 118.247768,123.939732 118.75,123.939732 C119.308036,123.939732 119.698661,123.660714 119.698661,123.158482 C119.698661,122.65625 119.363839,122.321429 118.247768,122.321429 L118.247768,121.651786 C119.252232,121.651786 119.53125,121.316964 119.53125,120.870536 C119.53125,120.479911 119.252232,120.200893 118.805804,120.200893 C118.415179,120.200893 118.080357,120.368304 117.801339,120.647321 L117.354911,120.089286 C117.801339,119.698661 118.247768,119.475446 118.861607,119.475446 C119.810268,119.475446 120.479911,119.921875 120.479911,120.814732 C120.479911,121.372768 120.145089,121.763393 119.587054,121.986607 L119.587054,122.042411 C120.200893,122.209821 120.647321,122.600446 120.647321,123.270089 C120.647321,124.162946 119.866071,124.720982 118.917411,124.720982 C118.080357,124.720982 117.578125,124.386161 117.243304,123.995536 L117.578125,123.381696 Z" id="Shape"></path>
                        <path d="M68.2477679,102.957589 C68.5267857,103.236607 68.9174107,103.515625 69.4196429,103.515625 C69.9776786,103.515625 70.3683036,103.180804 70.3683036,102.566964 C70.3683036,101.953125 69.9776786,101.618304 69.4196429,101.618304 C69.0848214,101.618304 68.9174107,101.729911 68.6383929,101.897321 L68.1919643,101.618304 L68.359375,99.1629464 L71.0379464,99.1629464 L71.0379464,99.9441964 L69.140625,99.9441964 L69.0290179,101.171875 C69.2522321,101.060268 69.4196429,101.004464 69.6986607,101.004464 C70.5357143,101.004464 71.2611607,101.506696 71.2611607,102.566964 C71.2611607,103.683036 70.4241071,104.296875 69.4754464,104.296875 C68.6383929,104.296875 68.1361607,103.962054 67.7455357,103.627232 L68.2477679,102.957589 Z" id="Shape"></path>
                        <path d="M34.375,74.7209821 C34.2075893,74.4977679 33.8727679,74.3303571 33.59375,74.3303571 C32.9799107,74.3303571 32.4776786,74.7767857 32.421875,76.171875 C32.7008929,75.78125 33.1473214,75.5580357 33.4821429,75.5580357 C34.375,75.5580357 34.9330357,76.0602679 34.9330357,77.1205357 C34.9330357,78.125 34.2075893,78.7388393 33.3705357,78.7388393 C32.3660714,78.7388393 31.5290179,77.9575893 31.5290179,76.2834821 C31.5290179,74.3303571 32.4776786,73.5491071 33.4821429,73.5491071 C34.0959821,73.5491071 34.5424107,73.828125 34.8214286,74.1071429 L34.375,74.7209821 Z M34.0959821,77.1763393 C34.0959821,76.5625 33.8169643,76.2834821 33.3147321,76.2834821 C33.0357143,76.2834821 32.7008929,76.4508929 32.421875,76.8415179 C32.5334821,77.734375 32.8683036,78.125 33.3705357,78.125 C33.7611607,78.125 34.0959821,77.7901786 34.0959821,77.1763393 Z" id="Shape"></path>
                        <path d="M32.3660714,55.46875 L30.0223214,55.46875 L30.0223214,54.6875 L33.3705357,54.6875 L33.3705357,55.2455357 C32.1986607,56.6964286 31.9754464,57.7566964 31.9196429,59.7098214 L30.9709821,59.7098214 C31.0825893,57.9241071 31.4174107,56.8080357 32.3660714,55.46875 Z" id="Shape"></path>
                        <path d="M1.11607143,38.7276786 C0.725446429,38.4486607 0.446428571,38.0580357 0.446428571,37.5 C0.446428571,36.6629464 1.11607143,36.1607143 1.953125,36.1607143 C2.84598214,36.1607143 3.40401786,36.71875 3.40401786,37.5 C3.40401786,38.0022321 3.06919643,38.3928571 2.734375,38.671875 L2.734375,38.7276786 C3.18080357,39.0066964 3.62723214,39.3415179 3.62723214,40.0111607 C3.62723214,40.7924107 2.95758929,41.3504464 1.953125,41.3504464 C0.948660714,41.3504464 0.279017857,40.7924107 0.279017857,39.9553571 C0.223214286,39.3973214 0.669642857,38.9508929 1.11607143,38.7276786 Z M1.953125,40.7366071 C2.45535714,40.7366071 2.79017857,40.4575893 2.79017857,40.0111607 C2.79017857,39.453125 2.28794643,39.2857143 1.5625,39.0066964 C1.22767857,39.2299107 1.00446429,39.5647321 1.00446429,39.9553571 C1.00446429,40.4017857 1.45089286,40.7366071 1.953125,40.7366071 Z M2.67857143,37.6116071 C2.67857143,37.1651786 2.39955357,36.8303571 1.953125,36.8303571 C1.5625,36.8303571 1.28348214,37.109375 1.28348214,37.5 C1.28348214,38.0022321 1.72991071,38.2254464 2.28794643,38.4486607 C2.51116071,38.1696429 2.67857143,37.890625 2.67857143,37.6116071 Z" id="Shape"></path>
                        <path d="M14.3415179,4.18526786 C14.5089286,4.40848214 14.84375,4.57589286 15.1227679,4.57589286 C15.7366071,4.57589286 16.2388393,4.12946429 16.2946429,2.734375 C16.015625,3.06919643 15.5691964,3.29241071 15.1785714,3.29241071 C14.3415179,3.29241071 13.7276786,2.79017857 13.7276786,1.72991071 C13.7276786,0.725446429 14.453125,0.111607143 15.2901786,0.111607143 C16.2946429,0.111607143 17.0758929,0.892857143 17.0758929,2.56696429 C17.0758929,4.52008929 16.1272321,5.30133929 15.1227679,5.30133929 C14.5089286,5.30133929 14.0625,5.02232143 13.7834821,4.74330357 L14.3415179,4.18526786 Z M16.3504464,2.06473214 C16.2388393,1.171875 15.9040179,0.78125 15.4017857,0.78125 C15.0111607,0.78125 14.6763393,1.11607143 14.6763393,1.72991071 C14.6763393,2.34375 14.9553571,2.62276786 15.4575893,2.62276786 C15.7366071,2.62276786 16.0714286,2.45535714 16.3504464,2.06473214 Z" id="Shape"></path>
                        <g id="Group" transform="translate(59.709821, 6.138393)">
                            <path d="M0.502232143,4.35267857 L1.61830357,4.35267857 L1.61830357,1.06026786 L0.669642857,1.06026786 L0.669642857,0.502232143 C1.171875,0.390625 1.50669643,0.279017857 1.84151786,0.111607143 L2.51116071,0.111607143 L2.51116071,4.35267857 L3.515625,4.35267857 L3.515625,5.078125 L0.502232143,5.078125 L0.502232143,4.35267857 Z" id="Shape"></path>
                            <path d="M4.296875,2.56696429 C4.296875,0.892857143 4.96651786,0 5.97098214,0 C6.97544643,0 7.64508929,0.892857143 7.64508929,2.56696429 C7.64508929,4.24107143 6.97544643,5.18973214 5.97098214,5.18973214 C4.96651786,5.18973214 4.296875,4.24107143 4.296875,2.56696429 Z M6.80803571,2.56696429 C6.80803571,1.171875 6.47321429,0.725446429 5.97098214,0.725446429 C5.46875,0.725446429 5.13392857,1.171875 5.13392857,2.56696429 C5.13392857,3.96205357 5.46875,4.46428571 5.97098214,4.46428571 C6.47321429,4.46428571 6.80803571,3.96205357 6.80803571,2.56696429 Z" id="Shape"></path>
                        </g>
                        <g id="Group" transform="translate(64.174107, 23.437500)">
                            <path d="M0.502232143,4.296875 L1.61830357,4.296875 L1.61830357,1.00446429 L0.669642857,1.00446429 L0.669642857,0.446428571 C1.171875,0.334821429 1.50669643,0.223214286 1.84151786,0.0558035714 L2.51116071,0.0558035714 L2.51116071,4.296875 L3.515625,4.296875 L3.515625,5.02232143 L0.502232143,5.02232143 L0.502232143,4.296875 Z" id="Shape"></path>
                            <path d="M4.52008929,4.296875 L5.63616071,4.296875 L5.63616071,1.00446429 L4.6875,1.00446429 L4.6875,0.446428571 C5.18973214,0.334821429 5.52455357,0.223214286 5.859375,0.0558035714 L6.52901786,0.0558035714 L6.52901786,4.296875 L7.53348214,4.296875 L7.53348214,5.02232143 L4.52008929,5.02232143 L4.52008929,4.296875 Z" id="Shape"></path>
                        </g>
                        <g id="Group" transform="translate(109.933036, 51.339286)">
                            <path d="M0.0558035714,4.57589286 L1.171875,4.57589286 L1.171875,1.28348214 L0.223214286,1.28348214 L0.223214286,0.725446429 C0.725446429,0.613839286 1.06026786,0.502232143 1.39508929,0.334821429 L2.06473214,0.334821429 L2.06473214,4.57589286 L3.06919643,4.57589286 L3.06919643,5.30133929 L0.0558035714,5.30133929 L0.0558035714,4.57589286 Z" id="Shape"></path>
                            <path d="M3.79464286,4.79910714 C5.18973214,3.45982143 6.08258929,2.56696429 6.08258929,1.78571429 C6.08258929,1.28348214 5.80357143,0.892857143 5.24553571,0.892857143 C4.85491071,0.892857143 4.52008929,1.171875 4.24107143,1.45089286 L3.73883929,0.948660714 C4.18526786,0.446428571 4.63169643,0.167410714 5.35714286,0.167410714 C6.30580357,0.167410714 6.91964286,0.78125 6.91964286,1.72991071 C6.91964286,2.62276786 6.08258929,3.515625 5.078125,4.57589286 C5.35714286,4.57589286 5.69196429,4.52008929 5.91517857,4.52008929 L7.14285714,4.52008929 L7.14285714,5.30133929 L3.73883929,5.30133929 L3.73883929,4.79910714 L3.79464286,4.79910714 Z" id="Shape"></path>
                        </g>
                        <g id="Group" transform="translate(22.879464, 21.205357)">
                            <path d="M0.223214286,4.63169643 L1.33928571,4.63169643 L1.33928571,1.33928571 L0.390625,1.33928571 L0.390625,0.78125 C0.892857143,0.669642857 1.22767857,0.558035714 1.5625,0.390625 L2.23214286,0.390625 L2.23214286,4.63169643 L3.23660714,4.63169643 L3.23660714,5.35714286 L0.223214286,5.35714286 L0.223214286,4.63169643 Z" id="Shape"></path>
                            <path d="M4.24107143,4.18526786 C4.52008929,4.46428571 4.91071429,4.74330357 5.41294643,4.74330357 C5.97098214,4.74330357 6.36160714,4.40848214 6.36160714,3.79464286 C6.36160714,3.18080357 5.97098214,2.84598214 5.41294643,2.84598214 C5.078125,2.84598214 4.91071429,2.95758929 4.63169643,3.125 L4.18526786,2.84598214 L4.35267857,0.390625 L7.03125,0.390625 L7.03125,1.171875 L5.13392857,1.171875 L5.02232143,2.39955357 C5.24553571,2.28794643 5.41294643,2.23214286 5.69196429,2.23214286 C6.52901786,2.23214286 7.25446429,2.734375 7.25446429,3.79464286 C7.25446429,4.91071429 6.41741071,5.52455357 5.46875,5.52455357 C4.63169643,5.52455357 4.12946429,5.18973214 3.73883929,4.85491071 L4.24107143,4.18526786 Z" id="Shape"></path>
                        </g>
                        <g id="Group" transform="translate(73.102679, 50.223214)">
                            <path d="M0.279017857,4.40848214 L1.39508929,4.40848214 L1.39508929,1.11607143 L0.446428571,1.11607143 L0.446428571,0.558035714 C0.948660714,0.446428571 1.28348214,0.334821429 1.61830357,0.167410714 L2.28794643,0.167410714 L2.28794643,4.40848214 L3.29241071,4.40848214 L3.29241071,5.13392857 L0.279017857,5.13392857 L0.279017857,4.40848214 Z" id="Shape"></path>
                            <path d="M4.35267857,3.90625 C4.63169643,4.24107143 5.02232143,4.46428571 5.52455357,4.46428571 C6.08258929,4.46428571 6.47321429,4.18526786 6.47321429,3.68303571 C6.47321429,3.18080357 6.13839286,2.84598214 5.02232143,2.84598214 L5.02232143,2.23214286 C6.02678571,2.23214286 6.30580357,1.89732143 6.30580357,1.45089286 C6.30580357,1.06026786 6.02678571,0.78125 5.58035714,0.78125 C5.18973214,0.78125 4.85491071,0.948660714 4.57589286,1.22767857 L4.12946429,0.669642857 C4.57589286,0.279017857 5.02232143,0.0558035714 5.63616071,0.0558035714 C6.58482143,0.0558035714 7.25446429,0.502232143 7.25446429,1.39508929 C7.25446429,1.953125 6.91964286,2.34375 6.36160714,2.56696429 L6.36160714,2.62276786 C6.97544643,2.79017857 7.421875,3.18080357 7.421875,3.85044643 C7.421875,4.74330357 6.640625,5.30133929 5.69196429,5.30133929 C4.85491071,5.30133929 4.35267857,4.96651786 4.01785714,4.57589286 L4.35267857,3.90625 Z" id="Shape"></path>
                        </g>
                        <g id="Group" transform="translate(92.075893, 21.205357)">
                            <path d="M0.279017857,4.40848214 L1.39508929,4.40848214 L1.39508929,1.11607143 L0.446428571,1.11607143 L0.446428571,0.558035714 C0.948660714,0.446428571 1.28348214,0.334821429 1.61830357,0.167410714 L2.28794643,0.167410714 L2.28794643,4.40848214 L3.29241071,4.40848214 L3.29241071,5.13392857 L0.279017857,5.13392857 L0.279017857,4.40848214 Z" id="Shape"></path>
                            <path d="M7.58928571,3.90625 L6.97544643,3.90625 L6.97544643,5.18973214 L6.13839286,5.18973214 L6.13839286,3.90625 L3.90625,3.90625 L3.90625,3.29241071 L5.91517857,0.167410714 L6.97544643,0.167410714 L6.97544643,3.18080357 L7.58928571,3.18080357 L7.58928571,3.90625 Z M6.13839286,3.18080357 L6.13839286,2.06473214 C6.13839286,1.78571429 6.13839286,1.33928571 6.19419643,1.00446429 L6.13839286,1.00446429 C6.02678571,1.28348214 5.859375,1.50669643 5.74776786,1.78571429 L4.85491071,3.18080357 L6.13839286,3.18080357 Z" id="Shape"></path>
                        </g>
                        <path d="M82.3660714,100.111607 L81.7522321,100.111607 L81.7522321,101.395089 L80.9151786,101.395089 L80.9151786,100.111607 L78.6830357,100.111607 L78.6830357,99.4977679 L80.6919643,96.3727679 L81.7522321,96.3727679 L81.7522321,99.3861607 L82.3660714,99.3861607 L82.3660714,100.111607 Z M80.9151786,99.4419643 L80.9151786,98.3258929 C80.9151786,98.046875 80.9151786,97.6004464 80.9709821,97.265625 L80.9151786,97.265625 C80.8035714,97.5446429 80.6361607,97.7678571 80.5245536,98.046875 L79.6316964,99.4419643 L80.9151786,99.4419643 Z" id="Shape"></path>
                    </g>
                </g>
            </g>
        </g>
    </g>
</svg>