<?xml version="1.0" encoding="UTF-8"?>
<svg width="148px" height="125px" viewBox="0 0 148 125" version="1.1" xmlns="http://www.w3.org/2000/svg" xmlns:xlink="http://www.w3.org/1999/xlink">
    <!-- Generator: sketchtool 51.2 (57519) - http://www.bohemiancoding.com/sketch -->
    <title>27FDCCDC-9E6E-4199-B1CE-70C801F34760</title>
    <desc>Created with sketchtool.</desc>
    <defs>
        <path d="M0.255102041,3.97959184 C0.255102041,1.83673469 1.98979592,0.102040816 4.13265306,0.102040816 L5.51020408,0.102040816 C7.65306122,0.102040816 9.3877551,1.83673469 9.3877551,3.97959184 L9.3877551,6.42857143 C9.3877551,8.57142857 7.65306122,10.3061224 5.51020408,10.3061224 L4.13265306,10.3061224 C1.98979592,10.3061224 0.255102041,8.57142857 0.255102041,6.42857143 L0.255102041,3.97959184 Z" id="path-1"></path>
    </defs>
    <g id="Page-1" stroke="none" stroke-width="1" fill="none" fill-rule="evenodd">
        <g id="Circuit_info_05" transform="translate(-503.000000, -845.000000)">
            <g id="assets/circuits_info/75" transform="translate(477.000000, 845.000000)">
                <g id="assets/circuits_info/Sepang-International-Circuit" stroke-width="1" transform="translate(26.500000, 0.000000)">
                    <g id="trazado" transform="translate(4.081633, 5.102041)" fill="#B7B5B6" fill-rule="nonzero">
                        <path d="M65.255102,1.2244898 C64.6428571,1.42857143 53.1122449,5.56122449 47.5,7.04081633 C41.4795918,8.62244898 26.7346939,12.0408163 25.1530612,12.3469388 C24.6428571,12.4489796 12.5,15.1020408 9.54081633,26.6836735 C8.52040816,30.5612245 8.16326531,33.3163265 8.1122449,35.4081633 C8.06122449,38.0612245 8.57142857,39.6938776 9.28571429,41.377551 L9.54081633,42.0918367 C10.0510204,43.4693878 10.8673469,44.744898 11.6836735,45.9693878 C12.2959184,46.8877551 13.3673469,48.622449 13.3673469,49.2346939 C13.3673469,49.2346939 13.3673469,49.2857143 13.3673469,49.2857143 C13.2142857,49.6938776 13.0612245,49.8469388 12.9591837,49.8979592 C12.8571429,49.9489796 12.6020408,49.8979592 12.3469388,49.744898 C10.1530612,48.4183673 6.93877551,46.9897959 4.18367347,47.9081633 C3.1122449,48.2653061 1.63265306,49.1326531 0.765306122,51.2755102 C-0.255102041,53.7755102 0.408163265,55.6632653 1.17346939,56.7346939 C2.65306122,58.9795918 5.35714286,59.744898 6.37755102,59.7959184 C6.37755102,59.7959184 86.8367347,61.0714286 86.8367347,61.0714286 L110.765306,61.5306122 C111.479592,61.5306122 113.673469,61.6326531 113.72449,63.6734694 C113.77551,64.2857143 113.571429,64.5918367 113.367347,64.744898 C112.704082,65.4081633 111.173469,65.5612245 110.561224,65.5612245 L110.459184,65.5612245 L110.357143,65.5612245 L16.2244898,73.7244898 L16.1734694,73.7244898 C13.1632653,74.1836735 10.1020408,76.1734694 10.5102041,79.4387755 C10.7653061,81.3265306 12.0408163,87.755102 18.5714286,90.8163265 C24.0816327,93.3673469 29.744898,93.6734694 34.8469388,91.7346939 L43.0102041,88.622449 C43.0102041,88.622449 45.6122449,87.7040816 47.3979592,89.1836735 C49.4897959,90.9693878 61.122449,102.857143 67.0918367,109.030612 C68.1122449,110.612245 70.5102041,112.857143 73.8265306,112.44898 C74.3367347,112.44898 76.9897959,112.295918 79.4897959,108.77551 C81.377551,106.173469 85.1020408,101.020408 85.2040816,93.4693878 C85.2040816,92.5510204 85.2040816,91.5306122 85.0510204,90.5102041 C84.4897959,85.0510204 79.5918367,82.0918367 78.9285714,81.7346939 C78.877551,81.7346939 74.744898,79.0306122 74.744898,79.0306122 C74.744898,79.0306122 74.744898,78.9795918 74.744898,78.9285714 C74.744898,78.9285714 74.744898,78.877551 74.744898,78.877551 C74.8979592,78.877551 75.0510204,78.8265306 75.1530612,78.877551 L75.3061224,78.877551 L75.5102041,78.877551 C75.7142857,78.877551 95.255102,77.7040816 100.357143,77.8061224 L125.459184,78.4183673 L124.897959,78.3163265 C126.173469,78.7244898 129.081633,78.7244898 130.714286,75.6632653 C131.938776,73.4183673 135,68.2653061 135.102041,68.1122449 C135.459184,67.6020408 135.816327,66.7857143 135.867347,65.7653061 C135.867347,64.744898 135.561224,63.5714286 134.642857,62.3469388 C133.061224,60.255102 116.479592,36.9387755 116.326531,36.6836735 C116.22449,36.5306122 112.755102,31.3265306 106.173469,31.1734694 C103.214286,31.122449 99.0306122,31.6836735 96.122449,34.8469388 C96.122449,34.8469388 95.9693878,35.0510204 95.9693878,35.0510204 C92.3469388,39.1836735 88.0612245,39.5918367 85.1020408,39.1836735 C78.0612245,38.2142857 75.7142857,31.5306122 75.4591837,29.2857143 C75.4591837,29.2346939 73.0612245,5.05102041 73.0612245,4.74489796 C73.0612245,4.69387755 73.0612245,4.59183673 73.0612245,4.54081633 C73.0612245,3.21428571 72.3979592,1.63265306 70.7142857,0.765306122 C68.4693878,-0.153061224 65.9693878,0.867346939 65.255102,1.2244898 Z M14.1836735,53.7755102 C15.1020408,53.4693878 16.3265306,52.7040816 17.0918367,50.7653061 C18.0102041,48.4183673 16.4795918,46.0714286 15.0510204,43.8265306 C14.3877551,42.755102 13.6734694,41.6326531 13.3163265,40.6632653 L13.0102041,39.8469388 C12.1938776,37.8571429 11.377551,35.7653061 13.4693878,27.6530612 C15.8163265,18.4693878 25.6122449,16.3265306 26.0204082,16.2755102 C27.9081633,15.8673469 42.755102,12.3979592 48.5714286,10.9183673 C54.4897959,9.3877551 66.2244898,5.15306122 66.7346939,5 L66.8367347,4.94897959 L66.9387755,4.89795918 C67.5510204,4.59183673 68.5204082,4.3877551 68.8265306,4.54081633 C68.9285714,4.59183673 68.9795918,4.64285714 68.9795918,4.64285714 C68.9795918,4.64285714 68.9795918,4.64285714 68.9795918,4.64285714 C68.9795918,4.69387755 68.9795918,4.79591837 68.9795918,4.79591837 L68.9795918,5.15306122 L71.4285714,29.9489796 C71.9897959,34.6938776 75.9183673,42.1938776 84.5408163,43.3673469 C90.1020408,44.1326531 95.255102,42.1938776 98.9795918,37.9081633 L98.9795918,37.755102 C100.867347,35.7142857 103.826531,35.3571429 105.969388,35.4081633 C110.357143,35.5102041 112.755102,39.0306122 112.857143,39.1836735 C113.571429,40.2040816 129.693878,62.8571429 131.326531,65 C131.734694,65.5102041 131.785714,65.8673469 131.734694,66.0204082 C131.734694,66.0204082 131.734694,66.0204082 131.734694,66.0204082 L131.581633,66.2244898 C131.428571,66.4285714 128.367347,71.5816327 127.091837,73.9285714 C126.989796,74.1326531 126.632653,74.744898 125.969388,74.5918367 L126.020408,74.5918367 L125.765306,74.5408163 L125.459184,74.5408163 L100.306122,73.877551 C95.2040816,73.7755102 76.7346939,74.8469388 75.3061224,74.9489796 C73.4693878,74.7959184 71.377551,75.5612245 70.8163265,77.6530612 C70.0510204,80.4081633 71.6836735,82.0918367 72.6020408,82.6020408 L72.4489796,82.5 L76.6836735,85.255102 L76.7346939,85.3061224 C76.7857143,85.3061224 80.5612245,87.5 80.9183673,91.0714286 C81.0204082,91.9387755 81.0204082,92.755102 81.0204082,93.5204082 C80.9183673,99.7959184 77.8061224,104.081633 76.0714286,106.530612 C74.744898,108.418367 73.622449,108.520408 73.5714286,108.520408 C73.5714286,108.520408 73.5204082,108.520408 73.5204082,108.520408 L73.3163265,108.520408 C71.4285714,108.826531 70.255102,106.887755 70.2040816,106.785714 L70.1020408,106.581633 L69.9489796,106.377551 C69.2346939,105.663265 52.6020408,88.4693878 49.7959184,86.122449 C46.1734694,83.0612245 41.5306122,84.7959184 41.377551,84.8469388 C41.377551,84.8469388 33.2142857,87.9591837 33.2142857,87.9591837 C29.0816327,89.5408163 24.6428571,89.2346939 20.0510204,87.1428571 C15.4081633,85 14.4897959,80.3061224 14.2857143,78.9285714 C14.2857143,78.9285714 14.2857143,78.877551 14.2857143,78.877551 C14.2857143,78.3673469 15.7142857,77.8061224 16.5306122,77.7040816 C16.7346939,77.7040816 110.204082,69.5918367 110.408163,69.5918367 C111.173469,69.5918367 114.132653,69.4897959 116.071429,67.6020408 C117.040816,66.6326531 117.55102,65.3571429 117.602041,63.877551 C117.602041,63.7755102 117.602041,63.622449 117.602041,63.5204082 C117.397959,59.0306122 113.367347,57.5 110.663265,57.5510204 C110.663265,57.5510204 86.7346939,57.0918367 86.7346939,57.0918367 C86.7346939,57.0918367 7.85714286,55.8163265 6.37755102,55.8163265 C5.96938776,55.7653061 4.79591837,55.255102 4.33673469,54.4897959 C4.23469388,54.3367347 4.13265306,54.0816327 4.13265306,53.7755102 C4.13265306,53.5204082 4.18367347,53.2142857 4.33673469,52.8061224 C4.64285714,52.0408163 5,51.8367347 5.25510204,51.7346939 C6.2244898,51.4285714 8.06122449,51.9387755 10.0510204,53.1632653 C11.4285714,53.9795918 12.9081633,54.1836735 14.1836735,53.7755102 Z" id="Shape"></path>
                    </g>
                    <g id="PUNTOS_INTERMEDIOS_Y_SEMAFORO" transform="translate(19.387755, 18.367347)">
                        <path d="M0.255102041,0.408163265 C0.459183673,0.255102041 0.714285714,0.255102041 0.867346939,0.459183673 L11.8877551,13.2142857 C12.0408163,13.4183673 12.0408163,13.6734694 11.8367347,13.8265306 C11.6326531,13.9795918 11.377551,13.9795918 11.2244898,13.7755102 L0.204081633,1.02040816 C0.0510204082,0.867346939 0.102040816,0.56122449 0.255102041,0.408163265 Z" id="Shape" fill="#AC1737" fill-rule="nonzero"></path>
                        <path d="M10.1530612,50.4591837 C9.89795918,50.4081633 9.74489796,50.2040816 9.74489796,49.9489796 L11.5306122,33.1632653 C11.5816327,32.9081633 11.7857143,32.755102 12.0408163,32.755102 C12.2959184,32.755102 12.4489796,33.0102041 12.4489796,33.2653061 L10.6632653,50.0510204 C10.6122449,50.3061224 10.4081633,50.5102041 10.1530612,50.4591837 Z" id="Shape" fill="#AC1737" fill-rule="nonzero"></path>
                        <path d="M9.74489796,71.2755102 C10,71.3265306 10.1530612,71.5816327 10.0510204,71.8367347 L5.96938776,88.2142857 C5.91836735,88.4693878 5.66326531,88.622449 5.40816327,88.5204082 C5.15306122,88.4693878 5,88.2142857 5.10204082,87.9591837 L9.18367347,71.5816327 C9.28571429,71.377551 9.54081633,71.2244898 9.74489796,71.2755102 Z" id="Shape" fill="#AC1737" fill-rule="nonzero"></path>
                        <path d="M107.55102,43.877551 C107.44898,43.6734694 107.5,43.3673469 107.755102,43.2653061 L122.55102,35.2040816 C122.755102,35.1020408 123.061224,35.1530612 123.163265,35.4081633 C123.265306,35.6632653 123.214286,35.9183673 122.959184,36.0204082 L108.163265,44.0816327 C107.908163,44.1836735 107.653061,44.1326531 107.55102,43.877551 Z" id="Shape" fill="#AC1737" fill-rule="nonzero"></path>
                        <g id="Group" transform="translate(59.693878, 38.265306)" fill="#AC1737" fill-rule="nonzero">
                            <path d="M10.6632653,0 C10.9183673,0 11.122449,0.204081633 11.122449,0.459183673 L10.9183673,13.3673469 C10.9183673,13.622449 10.7142857,13.7755102 10.5102041,13.7755102 L1.47959184,13.622449 C1.2244898,13.622449 1.02040816,13.4183673 1.02040816,13.1632653 C1.02040816,12.9081633 1.2244898,12.7040816 1.47959184,12.7040816 L9.84693878,12.8571429 C9.94897959,12.8571429 10,12.8061224 10,12.7040816 L10.2040816,0.459183673 C10.2040816,0.153061224 10.4081633,0 10.6632653,0 Z" id="Shape"></path>
                            <path d="M0.153061224,13.1447245 C-0.0510204082,13.2467653 -0.0510204082,13.5018673 0.153061224,13.6039081 L1.78571429,14.5732959 L3.41836735,15.5426836 C3.62244898,15.6447245 3.82653061,15.5426836 3.82653061,15.2875816 L3.87755102,13.3998265 L3.92857143,11.5120714 C3.92857143,11.3079898 3.7244898,11.1549285 3.52040816,11.2569694 L1.8877551,12.1753367 L0.153061224,13.1447245 Z" id="Shape"></path>
                        </g>
                        <g id="Group" transform="translate(63.775510, 31.122449)" fill-rule="nonzero">
                            <path d="M0,3.87755102 C0,1.73469388 1.73469388,0 3.92857143,0 L9.89795918,0 C12.0408163,0 13.7755102,1.73469388 13.7755102,3.87755102 L13.7755102,6.32653061 C13.7755102,8.46938776 12.0408163,10.2040816 9.89795918,10.2040816 L3.92857143,10.2040816 C1.78571429,10.2040816 1.45008722e-14,8.46938776 1.45008722e-14,6.32653061 L1.45008722e-14,3.87755102 Z" id="Shape" fill="#AC1737"></path>
                            <g transform="translate(3.571429, 3.061224)" fill="#FFFFFF" id="Shape">
                                <polygon points="0 0 2.55102041 0 2.55102041 0.612244898 0.765306122 0.612244898 0.765306122 1.78571429 2.29591837 1.78571429 2.29591837 2.39795918 0.765306122 2.39795918 0.765306122 4.18367347 0 4.18367347"></polygon>
                                <polygon points="3.57142857 0 4.33673469 0 4.33673469 3.62244898 6.07142857 3.62244898 6.07142857 4.23469388 3.57142857 4.23469388"></polygon>
                            </g>
                        </g>
                        <g id="Group" transform="translate(4.591837, 7.142857)" fill-rule="nonzero">
                            <path d="M0,3.87755102 C0,1.73469388 1.73469388,0 3.92857143,0 L5.91836735,0 C8.06122449,0 9.84693878,1.73469388 9.84693878,3.87755102 L9.84693878,6.68367347 C9.84693878,8.82653061 8.1122449,10.6122449 5.91836735,10.6122449 L3.92857143,10.6122449 C1.78571429,10.6122449 0,8.87755102 0,6.68367347 L0,3.87755102 Z" id="Shape" fill="#AC1737"></path>
                            <path d="M53.5714286,34.0816327 L53.5714286,41.8367347 L52.5510204,41.8367347 L52.5510204,34.0816327 L51.8877551,34.0816327 C49.744898,34.0816327 47.9591837,32.3469388 47.9591837,30.1530612 L47.9591837,27.3469388 C47.9591837,25.2040816 49.6938776,23.4693878 51.8877551,23.4693878 L53.877551,23.4693878 C56.0204082,23.4693878 57.8061224,25.2040816 57.8061224,27.3469388 L57.8061224,30.1530612 C57.8061224,32.2959184 56.0714286,34.0816327 53.877551,34.0816327 L53.5714286,34.0816327 Z" id="Combined-Shape" fill="#AC1737"></path>
                            <g transform="translate(2.551020, 2.551020)" fill="#FFFFFF" id="Shape">
                                <path d="M0.204081633,0.867346939 C0.204081633,0.612244898 0.408163265,0.459183673 0.663265306,0.459183673 C0.918367347,0.459183673 1.12244898,0.612244898 1.12244898,0.867346939 C1.12244898,1.12244898 0.918367347,1.2755102 0.663265306,1.2755102 C0.408163265,1.2755102 0.204081633,1.12244898 0.204081633,0.867346939 Z M0.255102041,1.83673469 L1.02040816,1.83673469 L1.02040816,5 L0.255102041,5 L0.255102041,1.83673469 Z"></path>
                                <path d="M2.29591837,4.43877551 L3.21428571,4.43877551 L3.21428571,1.73469388 L2.44897959,1.73469388 L2.44897959,1.2755102 C2.85714286,1.17346939 3.16326531,1.07142857 3.41836735,0.918367347 L3.97959184,0.918367347 L3.97959184,4.43877551 L4.79591837,4.43877551 L4.79591837,5.05102041 L2.29591837,5.05102041 L2.29591837,4.43877551 Z"></path>
                            </g>
                        </g>
                        <g id="Group" transform="translate(1.020408, 83.163265)" fill-rule="nonzero">
                            <path d="M0.357142857,4.3877551 C0.357142857,2.24489796 2.09183673,0.459183673 4.23469388,0.459183673 L6.83673469,0.459183673 C8.97959184,0.459183673 10.7653061,2.19387755 10.7653061,4.3877551 L10.7653061,6.98979592 C10.7653061,9.13265306 9.03061224,10.8673469 6.83673469,10.8673469 L4.23469388,10.8673469 C2.09183673,10.8673469 0.357142857,9.13265306 0.357142857,6.98979592 L0.357142857,4.3877551 Z" id="Shape" fill="#AC1737"></path>
                            <g transform="translate(3.061224, 3.061224)" fill="#FFFFFF" id="Shape">
                                <path d="M0.204081633,0.765306122 C0.204081633,0.510204082 0.408163265,0.357142857 0.663265306,0.357142857 C0.918367347,0.357142857 1.12244898,0.510204082 1.12244898,0.765306122 C1.12244898,1.02040816 0.918367347,1.17346939 0.663265306,1.17346939 C0.408163265,1.17346939 0.204081633,0.969387755 0.204081633,0.765306122 Z M0.306122449,1.73469388 L1.07142857,1.73469388 L1.07142857,4.89795918 L0.306122449,4.89795918 L0.306122449,1.73469388 Z"></path>
                                <path d="M2.34693878,3.92857143 C2.60204082,4.18367347 2.90816327,4.3877551 3.31632653,4.3877551 C3.7755102,4.3877551 4.08163265,4.13265306 4.08163265,3.7755102 C4.08163265,3.36734694 3.82653061,3.06122449 2.85714286,3.06122449 L2.85714286,2.5 C3.67346939,2.5 3.92857143,2.24489796 3.92857143,1.83673469 C3.92857143,1.47959184 3.67346939,1.2755102 3.31632653,1.2755102 C3.01020408,1.2755102 2.75510204,1.42857143 2.5,1.68367347 L2.09183673,1.2244898 C2.44897959,0.918367347 2.85714286,0.714285714 3.31632653,0.714285714 C4.08163265,0.714285714 4.64285714,1.12244898 4.64285714,1.78571429 C4.64285714,2.24489796 4.3877551,2.55102041 3.92857143,2.75510204 L3.92857143,2.80612245 C4.43877551,2.95918367 4.79591837,3.26530612 4.79591837,3.82653061 C4.79591837,4.59183673 4.13265306,5 3.36734694,5 C2.70408163,5 2.24489796,4.74489796 1.98979592,4.43877551 L2.34693878,3.92857143 Z"></path>
                            </g>
                        </g>
                        <g id="Group" transform="translate(19.387755, 29.081633)">
                            <path d="M0.102040816,4.08163265 C0.102040816,1.93877551 1.83673469,0.204081633 3.97959184,0.204081633 L27.3469388,0.204081633 C29.4897959,0.204081633 31.2244898,1.93877551 31.2244898,4.08163265 L31.2244898,8.31632653 C31.2244898,10.4591837 29.4897959,12.1938776 27.3469388,12.1938776 L3.97959184,12.1938776 C1.83673469,12.1938776 0.102040816,10.4591837 0.102040816,8.31632653 L0.102040816,4.08163265 Z" id="Shape" fill="#7B7C7D" fill-rule="nonzero"></path>
                            <g transform="translate(20.918367, 1.020408)" fill-rule="nonzero" id="Shape">
                                <path d="M4.13265306,10.0510204 C2.14285714,10.0510204 0.510204082,8.41836735 0.510204082,6.42857143 L0.510204082,3.97959184 C0.510204082,1.98979592 2.14285714,0.357142857 4.13265306,0.357142857 L5.51020408,0.357142857 C7.5,0.357142857 9.13265306,1.98979592 9.13265306,3.97959184 L9.13265306,6.42857143 C9.13265306,8.41836735 7.5,10.0510204 5.51020408,10.0510204 L4.13265306,10.0510204 Z" fill="#FFFFFF"></path>
                                <path d="M5.51020408,0.56122449 C7.39795918,0.56122449 8.87755102,2.09183673 8.87755102,3.92857143 L8.87755102,6.37755102 C8.87755102,8.26530612 7.34693878,9.74489796 5.51020408,9.74489796 L4.13265306,9.74489796 C2.24489796,9.74489796 0.765306122,8.21428571 0.765306122,6.37755102 L0.765306122,3.92857143 C0.765306122,2.04081633 2.29591837,0.56122449 4.13265306,0.56122449 L5.51020408,0.56122449 Z M5.51020408,0.0510204082 L4.13265306,0.0510204082 C1.98979592,0.0510204082 0.255102041,1.78571429 0.255102041,3.92857143 L0.255102041,6.37755102 C0.255102041,8.52040816 1.98979592,10.255102 4.13265306,10.255102 L5.51020408,10.255102 C7.65306122,10.255102 9.3877551,8.52040816 9.3877551,6.37755102 L9.3877551,3.92857143 C9.43877551,1.78571429 7.70408163,0.0510204082 5.51020408,0.0510204082 Z" fill="#C7C6C5"></path>
                            </g>
                            <g id="Clipped" transform="translate(20.918367, 1.020408)">
                                <mask id="mask-2" fill="white">
                                    <use xlink:href="#path-1"></use>
                                </mask>
                                <g id="SVGID_33_"></g>
                                <g id="Group" mask="url(#mask-2)" fill="#1E1E1C" fill-rule="nonzero">
                                    <g transform="translate(-2.551020, 0.510204)" id="Rectangle-path">
                                        <rect x="0.102040816" y="0.408163265" width="2.14285714" height="2.14285714"></rect>
                                        <rect x="2.24489796" y="2.5" width="2.14285714" height="2.14285714"></rect>
                                        <rect x="4.33673469" y="0.408163265" width="2.14285714" height="2.14285714"></rect>
                                        <rect x="6.47959184" y="2.5" width="2.14285714" height="2.14285714"></rect>
                                        <rect x="0.102040816" y="4.64285714" width="2.14285714" height="2.14285714"></rect>
                                        <rect x="2.24489796" y="6.78571429" width="2.14285714" height="2.14285714"></rect>
                                        <rect x="4.33673469" y="4.64285714" width="2.14285714" height="2.14285714"></rect>
                                        <rect x="6.47959184" y="6.78571429" width="2.14285714" height="2.14285714"></rect>
                                        <rect x="8.62244898" y="0.408163265" width="2.14285714" height="2.14285714"></rect>
                                        <rect x="10.7142857" y="2.5" width="2.14285714" height="2.14285714"></rect>
                                        <rect x="8.62244898" y="4.64285714" width="2.14285714" height="2.14285714"></rect>
                                        <rect x="10.7142857" y="6.78571429" width="2.14285714" height="2.14285714"></rect>
                                    </g>
                                </g>
                            </g>
                            <g transform="translate(1.020408, 1.020408)" fill-rule="nonzero" id="Shape">
                                <path d="M3.87755102,10.0510204 C1.8877551,10.0510204 0.255102041,8.41836735 0.255102041,6.42857143 L0.255102041,3.97959184 C0.255102041,1.98979592 1.8877551,0.357142857 3.87755102,0.357142857 L5.25510204,0.357142857 C7.24489796,0.357142857 8.87755102,1.98979592 8.87755102,3.97959184 L8.87755102,6.42857143 C8.87755102,8.41836735 7.24489796,10.0510204 5.25510204,10.0510204 L3.87755102,10.0510204 Z" fill="#C01724"></path>
                                <path d="M5.25510204,0.56122449 C7.14285714,0.56122449 8.62244898,2.09183673 8.62244898,3.92857143 L8.62244898,6.37755102 C8.62244898,8.26530612 7.09183673,9.74489796 5.25510204,9.74489796 L3.87755102,9.74489796 C1.98979592,9.74489796 0.510204082,8.21428571 0.510204082,6.37755102 L0.510204082,3.92857143 C0.510204082,2.04081633 2.04081633,0.56122449 3.87755102,0.56122449 L5.25510204,0.56122449 Z M5.25510204,0.0510204082 L3.87755102,0.0510204082 C1.73469388,0.0510204082 2.84217094e-14,1.78571429 2.84217094e-14,3.92857143 L2.84217094e-14,6.37755102 C2.84217094e-14,8.52040816 1.73469388,10.255102 3.87755102,10.255102 L5.25510204,10.255102 C7.39795918,10.255102 9.13265306,8.52040816 9.13265306,6.37755102 L9.13265306,3.92857143 C9.18367347,1.78571429 7.39795918,0.0510204082 5.25510204,0.0510204082 Z" fill="#AA1920"></path>
                            </g>
                            <g transform="translate(10.714286, 1.020408)" fill-rule="nonzero" id="Shape">
                                <path d="M4.28571429,10.0510204 C2.29591837,10.0510204 0.663265306,8.41836735 0.663265306,6.42857143 L0.663265306,3.97959184 C0.663265306,1.98979592 2.29591837,0.357142857 4.28571429,0.357142857 L5.66326531,0.357142857 C7.65306122,0.357142857 9.28571429,1.98979592 9.28571429,3.97959184 L9.28571429,6.42857143 C9.28571429,8.41836735 7.65306122,10.0510204 5.66326531,10.0510204 L4.28571429,10.0510204 Z" fill="#009548"></path>
                                <path d="M5.66326531,0.56122449 C7.55102041,0.56122449 9.03061224,2.09183673 9.03061224,3.92857143 L9.03061224,6.37755102 C9.03061224,8.26530612 7.5,9.74489796 5.66326531,9.74489796 L4.28571429,9.74489796 C2.39795918,9.74489796 0.918367347,8.21428571 0.918367347,6.37755102 L0.918367347,3.92857143 C0.918367347,2.04081633 2.44897959,0.56122449 4.28571429,0.56122449 L5.66326531,0.56122449 Z M5.66326531,0.0510204082 L4.28571429,0.0510204082 C2.14285714,0.0510204082 0.408163265,1.78571429 0.408163265,3.92857143 L0.408163265,6.37755102 C0.408163265,8.52040816 2.14285714,10.255102 4.28571429,10.255102 L5.66326531,10.255102 C7.80612245,10.255102 9.54081633,8.52040816 9.54081633,6.37755102 L9.54081633,3.92857143 C9.54081633,1.78571429 7.80612245,0.0510204082 5.66326531,0.0510204082 Z" fill="#006139"></path>
                            </g>
                            <path d="M26.4285714,1.58163265 C28.3163265,1.58163265 29.7959184,3.1122449 29.7959184,4.94897959 L29.7959184,7.39795918 C29.7959184,9.28571429 28.2653061,10.7653061 26.4285714,10.7653061 L25.0510204,10.7653061 C23.1632653,10.7653061 21.6836735,9.23469388 21.6836735,7.39795918 L21.6836735,4.94897959 C21.6836735,3.06122449 23.2142857,1.58163265 25.0510204,1.58163265 L26.4285714,1.58163265 Z M26.4285714,1.07142857 L25.0510204,1.07142857 C22.9081633,1.07142857 21.1734694,2.80612245 21.1734694,4.94897959 L21.1734694,7.39795918 C21.1734694,9.54081633 22.9081633,11.2755102 25.0510204,11.2755102 L26.4285714,11.2755102 C28.5714286,11.2755102 30.3061224,9.54081633 30.3061224,7.39795918 L30.3061224,4.94897959 C30.3571429,2.80612245 28.622449,1.07142857 26.4285714,1.07142857 Z" id="Shape" fill="#C7C6C5" fill-rule="nonzero"></path>
                        </g>
                        <g id="Group" transform="translate(115.306122, 31.122449)" fill-rule="nonzero">
                            <path d="M0,4.18367347 C0,2.04081633 1.73469388,0.255102041 3.87755102,0.255102041 L6.42857143,0.255102041 C8.57142857,0.255102041 10.3571429,1.98979592 10.3571429,4.18367347 L10.3571429,6.78571429 C10.3571429,8.92857143 8.62244898,10.7142857 6.42857143,10.7142857 L3.87755102,10.7142857 C1.73469388,10.7142857 0,8.97959184 0,6.78571429 L0,4.18367347 Z" id="Shape" fill="#AC1737"></path>
                            <g transform="translate(2.551020, 3.061224)" fill="#FFFFFF" id="Shape">
                                <path d="M0.306122449,0.56122449 C0.306122449,0.306122449 0.510204082,0.153061224 0.765306122,0.153061224 C1.02040816,0.153061224 1.2244898,0.306122449 1.2244898,0.56122449 C1.2244898,0.816326531 1.02040816,0.969387755 0.765306122,0.969387755 C0.459183673,0.969387755 0.306122449,0.765306122 0.306122449,0.56122449 Z M0.357142857,1.53061224 L1.12244898,1.53061224 L1.12244898,4.69387755 L0.357142857,4.69387755 L0.357142857,1.53061224 Z"></path>
                                <path d="M2.14285714,4.28571429 C3.26530612,3.16326531 4.03061224,2.44897959 4.03061224,1.83673469 C4.03061224,1.37755102 3.7755102,1.12244898 3.36734694,1.12244898 C3.06122449,1.12244898 2.80612245,1.32653061 2.55102041,1.58163265 L2.14285714,1.17346939 C2.5,0.765306122 2.90816327,0.56122449 3.46938776,0.56122449 C4.23469388,0.56122449 4.79591837,1.07142857 4.79591837,1.83673469 C4.79591837,2.55102041 4.13265306,3.31632653 3.31632653,4.18367347 C3.52040816,4.18367347 3.82653061,4.13265306 3.97959184,4.13265306 L5,4.13265306 L5,4.74489796 L2.19387755,4.74489796 L2.19387755,4.28571429 L2.14285714,4.28571429 Z"></path>
                            </g>
                        </g>
                        <g id="Group" transform="translate(7.653061, 30.612245)" fill-rule="nonzero">
                            <path d="M0.357142857,3.97959184 C0.357142857,1.83673469 2.09183673,0.102040816 4.23469388,0.102040816 L5.6122449,0.102040816 C7.75510204,0.102040816 9.48979592,1.83673469 9.48979592,3.97959184 L9.48979592,6.42857143 C9.48979592,8.57142857 7.75510204,10.3061224 5.6122449,10.3061224 L4.23469388,10.3061224 C2.09183673,10.3061224 0.357142857,8.57142857 0.357142857,6.42857143 L0.357142857,3.97959184 Z" id="Shape" fill="#AC1737"></path>
                            <path d="M3.82653061,6.2244898 C4.13265306,6.53061224 4.54081633,6.68367347 4.94897959,6.68367347 C5.40816327,6.68367347 5.66326531,6.47959184 5.66326531,6.12244898 C5.66326531,5.76530612 5.40816327,5.66326531 5,5.51020408 L4.43877551,5.25510204 C4.03061224,5.10204082 3.57142857,4.74489796 3.57142857,4.13265306 C3.57142857,3.46938776 4.18367347,2.95918367 5,2.95918367 C5.51020408,2.95918367 5.96938776,3.16326531 6.32653061,3.52040816 L5.91836735,3.97959184 C5.66326531,3.7755102 5.35714286,3.62244898 5,3.62244898 C4.59183673,3.62244898 4.33673469,3.82653061 4.33673469,4.13265306 C4.33673469,4.43877551 4.64285714,4.59183673 5,4.74489796 L5.56122449,5 C6.07142857,5.20408163 6.42857143,5.51020408 6.42857143,6.12244898 C6.42857143,6.78571429 5.86734694,7.39795918 4.89795918,7.39795918 C4.33673469,7.39795918 3.7755102,7.19387755 3.36734694,6.78571429 L3.82653061,6.2244898 Z" id="Shape" fill="#FFFFFF"></path>
                        </g>
                    </g>
                    <g id="textos_y_numeros" fill="#7B7C7D" fill-rule="nonzero">
                        <path d="M79.9489796,3.87755102 L79.3877551,3.87755102 L79.3877551,5.05102041 L78.622449,5.05102041 L78.622449,3.87755102 L76.5816327,3.87755102 L76.5816327,3.31632653 L78.4183673,0.459183673 L79.3877551,0.459183673 L79.3877551,3.21428571 L79.9489796,3.21428571 L79.9489796,3.87755102 Z M78.622449,3.21428571 L78.622449,2.19387755 C78.622449,1.93877551 78.622449,1.53061224 78.6734694,1.2244898 L78.622449,1.2244898 C78.5204082,1.47959184 78.3673469,1.68367347 78.2653061,1.93877551 L77.4489796,3.21428571 L78.622449,3.21428571 Z" id="Shape"></path>
                        <path d="M89.1326531,40.5102041 C89.3877551,40.7653061 89.744898,41.0204082 90.2040816,41.0204082 C90.7142857,41.0204082 91.0714286,40.7142857 91.0714286,40.1530612 C91.0714286,39.5918367 90.7142857,39.2857143 90.2040816,39.2857143 C89.8979592,39.2857143 89.744898,39.3877551 89.4897959,39.5408163 L89.0816327,39.2857143 L89.2346939,37.0408163 L91.6836735,37.0408163 L91.6836735,37.755102 L89.9489796,37.755102 L89.8469388,38.877551 C90.0510204,38.7755102 90.2040816,38.7244898 90.4591837,38.7244898 C91.2244898,38.7244898 91.8877551,39.1836735 91.8877551,40.1530612 C91.8877551,41.1734694 91.122449,41.7346939 90.255102,41.7346939 C89.4897959,41.7346939 89.0306122,41.4285714 88.6734694,41.122449 L89.1326531,40.5102041 Z" id="Shape"></path>
                        <path d="M111.326531,44.8979592 C111.173469,44.6938776 110.867347,44.5408163 110.612245,44.5408163 C110.05102,44.5408163 109.591837,44.9489796 109.540816,46.2244898 C109.795918,45.8673469 110.204082,45.6632653 110.510204,45.6632653 C111.326531,45.6632653 111.836735,46.122449 111.836735,47.0918367 C111.836735,48.0102041 111.173469,48.5714286 110.408163,48.5714286 C109.489796,48.5714286 108.72449,47.8571429 108.72449,46.3265306 C108.72449,44.5408163 109.591837,43.8265306 110.510204,43.8265306 C111.071429,43.8265306 111.479592,44.0816327 111.734694,44.3367347 L111.326531,44.8979592 Z M111.071429,47.1428571 C111.071429,46.5816327 110.816327,46.3265306 110.357143,46.3265306 C110.102041,46.3265306 109.795918,46.4795918 109.540816,46.8367347 C109.642857,47.6530612 109.94898,48.0102041 110.408163,48.0102041 C110.765306,48.0102041 111.071429,47.7040816 111.071429,47.1428571 Z" id="Shape"></path>
                        <path d="M145.765306,68.1122449 L143.622449,68.1122449 L143.622449,67.3979592 L146.683673,67.3979592 L146.683673,67.9081633 C145.612245,69.2346939 145.408163,70.2040816 145.357143,71.9897959 L144.489796,71.9897959 C144.540816,70.3571429 144.846939,69.3367347 145.765306,68.1122449 Z" id="Shape"></path>
                        <path d="M134.285714,88.5714286 C133.928571,88.3163265 133.673469,87.9591837 133.673469,87.4489796 C133.673469,86.6836735 134.285714,86.2244898 135.05102,86.2244898 C135.867347,86.2244898 136.377551,86.7346939 136.377551,87.4489796 C136.377551,87.9081633 136.071429,88.2653061 135.765306,88.5204082 L135.765306,88.5714286 C136.173469,88.8265306 136.581633,89.1326531 136.581633,89.744898 C136.581633,90.4591837 135.969388,90.9693878 135.05102,90.9693878 C134.132653,90.9693878 133.520408,90.4591837 133.520408,89.6938776 C133.469388,89.1836735 133.877551,88.8265306 134.285714,88.5714286 Z M135.05102,90.4081633 C135.510204,90.4081633 135.816327,90.1530612 135.816327,89.744898 C135.816327,89.2346939 135.357143,89.0816327 134.693878,88.8265306 C134.387755,89.0306122 134.183673,89.3367347 134.183673,89.6938776 C134.183673,90.1530612 134.591837,90.4081633 135.05102,90.4081633 Z M135.714286,87.5510204 C135.714286,87.1428571 135.459184,86.8367347 135.05102,86.8367347 C134.693878,86.8367347 134.438776,87.0918367 134.438776,87.4489796 C134.438776,87.9081633 134.846939,88.1122449 135.357143,88.3163265 C135.561224,88.1122449 135.714286,87.8571429 135.714286,87.5510204 Z" id="Shape"></path>
                        <path d="M69.9489796,85.3061224 C70.1020408,85.5102041 70.4081633,85.6632653 70.6632653,85.6632653 C71.2244898,85.6632653 71.6836735,85.255102 71.7346939,83.9795918 C71.4795918,84.2857143 71.0714286,84.4897959 70.7142857,84.4897959 C69.9489796,84.4897959 69.3877551,84.0306122 69.3877551,83.0612245 C69.3877551,82.1428571 70.0510204,81.5816327 70.8163265,81.5816327 C71.7346939,81.5816327 72.4489796,82.2959184 72.4489796,83.8265306 C72.4489796,85.6122449 71.5816327,86.3265306 70.6632653,86.3265306 C70.1020408,86.3265306 69.6938776,86.0714286 69.4387755,85.8163265 L69.9489796,85.3061224 Z M71.7346939,83.3673469 C71.6326531,82.5510204 71.3265306,82.1938776 70.8673469,82.1938776 C70.5102041,82.1938776 70.2040816,82.5 70.2040816,83.0612245 C70.2040816,83.622449 70.4591837,83.877551 70.9183673,83.877551 C71.1734694,83.877551 71.4795918,83.7244898 71.7346939,83.3673469 Z" id="Shape"></path>
                        <g id="Group" transform="translate(92.857143, 91.836735)">
                            <path d="M0.306122449,4.33673469 L1.32653061,4.33673469 L1.32653061,1.32653061 L0.510204082,1.32653061 L0.510204082,0.816326531 C0.969387755,0.714285714 1.2755102,0.612244898 1.58163265,0.459183673 L2.19387755,0.459183673 L2.19387755,4.33673469 L3.1122449,4.33673469 L3.1122449,5 L0.357142857,5 L0.357142857,4.33673469 L0.306122449,4.33673469 Z" id="Shape"></path>
                            <path d="M3.7755102,2.70408163 C3.7755102,1.17346939 4.3877551,0.357142857 5.30612245,0.357142857 C6.2244898,0.357142857 6.83673469,1.17346939 6.83673469,2.70408163 C6.83673469,4.23469388 6.2244898,5.10204082 5.30612245,5.10204082 C4.3877551,5.10204082 3.7755102,4.23469388 3.7755102,2.70408163 Z M6.07142857,2.70408163 C6.07142857,1.42857143 5.76530612,1.02040816 5.30612245,1.02040816 C4.84693878,1.02040816 4.54081633,1.42857143 4.54081633,2.70408163 C4.54081633,3.97959184 4.84693878,4.43877551 5.30612245,4.43877551 C5.76530612,4.43877551 6.07142857,3.97959184 6.07142857,2.70408163 Z" id="Shape"></path>
                        </g>
                        <g id="Group" transform="translate(77.040816, 119.897959)">
                            <path d="M0.102040816,4.03061224 L1.12244898,4.03061224 L1.12244898,1.02040816 L0.255102041,1.02040816 L0.255102041,0.510204082 C0.714285714,0.408163265 1.02040816,0.306122449 1.32653061,0.153061224 L1.93877551,0.153061224 L1.93877551,4.03061224 L2.85714286,4.03061224 L2.85714286,4.69387755 L0.102040816,4.69387755 L0.102040816,4.03061224 Z" id="Shape"></path>
                            <path d="M3.82653061,4.03061224 L4.84693878,4.03061224 L4.84693878,1.02040816 L3.97959184,1.02040816 L3.97959184,0.510204082 C4.43877551,0.408163265 4.74489796,0.306122449 5.05102041,0.153061224 L5.66326531,0.153061224 L5.66326531,4.03061224 L6.58163265,4.03061224 L6.58163265,4.69387755 L3.82653061,4.69387755 L3.82653061,4.03061224 Z" id="Shape"></path>
                        </g>
                        <g id="Group" transform="translate(45.408163, 96.938776)">
                            <path d="M0.459183673,4.43877551 L1.47959184,4.43877551 L1.47959184,1.42857143 L0.612244898,1.42857143 L0.612244898,0.918367347 C1.07142857,0.816326531 1.37755102,0.714285714 1.68367347,0.56122449 L2.29591837,0.56122449 L2.29591837,4.43877551 L3.21428571,4.43877551 L3.21428571,5.10204082 L0.459183673,5.10204082 L0.459183673,4.43877551 Z" id="Shape"></path>
                            <path d="M3.87755102,4.64285714 C5.15306122,3.41836735 5.96938776,2.60204082 5.96938776,1.8877551 C5.96938776,1.42857143 5.71428571,1.07142857 5.20408163,1.07142857 C4.84693878,1.07142857 4.54081633,1.32653061 4.28571429,1.58163265 L3.82653061,1.12244898 C4.23469388,0.663265306 4.64285714,0.408163265 5.30612245,0.408163265 C6.17346939,0.408163265 6.73469388,0.969387755 6.73469388,1.83673469 C6.73469388,2.65306122 5.96938776,3.46938776 5.05102041,4.43877551 C5.30612245,4.43877551 5.6122449,4.3877551 5.81632653,4.3877551 L6.93877551,4.3877551 L6.93877551,5.10204082 L3.82653061,5.10204082 L3.82653061,4.64285714 L3.87755102,4.64285714 Z" id="Shape"></path>
                        </g>
                        <g id="Group" transform="translate(15.306122, 96.428571)">
                            <path d="M0.102040816,4.43877551 L1.12244898,4.43877551 L1.12244898,1.42857143 L0.255102041,1.42857143 L0.255102041,0.918367347 C0.714285714,0.816326531 1.02040816,0.714285714 1.32653061,0.56122449 L1.93877551,0.56122449 L1.93877551,4.43877551 L2.85714286,4.43877551 L2.85714286,5.10204082 L0.102040816,5.10204082 L0.102040816,4.43877551 Z" id="Shape"></path>
                            <path d="M3.82653061,4.03061224 C4.08163265,4.33673469 4.43877551,4.54081633 4.89795918,4.54081633 C5.40816327,4.54081633 5.76530612,4.28571429 5.76530612,3.82653061 C5.76530612,3.36734694 5.45918367,3.06122449 4.43877551,3.06122449 L4.43877551,2.44897959 C5.35714286,2.44897959 5.6122449,2.14285714 5.6122449,1.73469388 C5.6122449,1.37755102 5.35714286,1.12244898 4.94897959,1.12244898 C4.59183673,1.12244898 4.28571429,1.2755102 4.03061224,1.53061224 L3.62244898,1.02040816 C4.03061224,0.663265306 4.43877551,0.459183673 5,0.459183673 C5.86734694,0.459183673 6.47959184,0.867346939 6.47959184,1.68367347 C6.47959184,2.19387755 6.17346939,2.55102041 5.66326531,2.75510204 L5.66326531,2.80612245 C6.2244898,2.95918367 6.63265306,3.31632653 6.63265306,3.92857143 C6.63265306,4.74489796 5.91836735,5.25510204 5.05102041,5.25510204 C4.28571429,5.25510204 3.82653061,4.94897959 3.52040816,4.59183673 L3.82653061,4.03061224 Z" id="Shape"></path>
                        </g>
                        <g id="Group" transform="translate(6.632653, 77.551020)">
                            <path d="M0.0510204082,4.33673469 L1.07142857,4.33673469 L1.07142857,1.32653061 L0.204081633,1.32653061 L0.204081633,0.816326531 C0.663265306,0.714285714 0.969387755,0.612244898 1.2755102,0.459183673 L1.8877551,0.459183673 L1.8877551,4.33673469 L2.80612245,4.33673469 L2.80612245,5 L0.0510204082,5 L0.0510204082,4.33673469 Z" id="Shape"></path>
                            <path d="M6.73469388,3.87755102 L6.17346939,3.87755102 L6.17346939,5.05102041 L5.40816327,5.05102041 L5.40816327,3.87755102 L3.36734694,3.87755102 L3.36734694,3.31632653 L5.20408163,0.459183673 L6.17346939,0.459183673 L6.17346939,3.21428571 L6.73469388,3.21428571 L6.73469388,3.87755102 Z M5.35714286,3.21428571 L5.35714286,2.19387755 C5.35714286,1.93877551 5.35714286,1.53061224 5.40816327,1.2244898 L5.35714286,1.2244898 C5.25510204,1.47959184 5.10204082,1.68367347 5,1.93877551 L4.18367347,3.21428571 L5.35714286,3.21428571 Z" id="Shape"></path>
                        </g>
                        <path d="M0.255102041,60.1530612 L1.2755102,60.1530612 L1.2755102,57.1428571 L0.408163265,57.1428571 L0.408163265,56.6326531 C0.867346939,56.5306122 1.17346939,56.4285714 1.47959184,56.2755102 L2.09183673,56.2755102 L2.09183673,60.1530612 L3.01020408,60.1530612 L3.01020408,60.8163265 L0.255102041,60.8163265 L0.255102041,60.1530612 Z" id="Shape"></path>
                        <path d="M23.6734694,50.255102 C24.9489796,49.0306122 25.7653061,48.2142857 25.7653061,47.5 C25.7653061,47.0408163 25.5102041,46.6836735 25,46.6836735 C24.6428571,46.6836735 24.3367347,46.9387755 24.0816327,47.1938776 L23.622449,46.7346939 C24.0306122,46.2755102 24.4387755,46.0204082 25.1020408,46.0204082 C25.9693878,46.0204082 26.5306122,46.5816327 26.5306122,47.4489796 C26.5306122,48.2653061 25.7653061,49.0816327 24.8469388,50.0510204 C25.1020408,50.0510204 25.4081633,50 25.6122449,50 L26.7346939,50 L26.7346939,50.7142857 L23.622449,50.7142857 L23.622449,50.255102 L23.6734694,50.255102 Z" id="Shape"></path>
                        <path d="M14.3877551,20.1020408 C14.6428571,20.4081633 15,20.6122449 15.4591837,20.6122449 C15.9693878,20.6122449 16.3265306,20.3571429 16.3265306,19.8979592 C16.3265306,19.4387755 16.0204082,19.1326531 15,19.1326531 L15,18.5204082 C15.9183673,18.5204082 16.1734694,18.2142857 16.1734694,17.8061224 C16.1734694,17.4489796 15.9183673,17.1938776 15.5102041,17.1938776 C15.1530612,17.1938776 14.8469388,17.3469388 14.5918367,17.6020408 L14.1836735,17.0918367 C14.5918367,16.7346939 15,16.5306122 15.5612245,16.5306122 C16.4285714,16.5306122 17.0408163,16.9387755 17.0408163,17.755102 C17.0408163,18.2653061 16.7346939,18.622449 16.2244898,18.8265306 L16.2244898,18.877551 C16.7857143,19.0306122 17.1938776,19.3877551 17.1938776,20 C17.1938776,20.8163265 16.4795918,21.3265306 15.6122449,21.3265306 C14.8469388,21.3265306 14.3877551,21.0204082 14.0816327,20.6632653 L14.3877551,20.1020408 Z" id="Shape"></path>
                        <g id="Group" transform="translate(124.489796, 66.836735)">
                            <path d="M0.0510204082,4.28571429 L1.07142857,4.28571429 L1.07142857,1.2755102 L0.204081633,1.2755102 L0.204081633,0.765306122 C0.663265306,0.663265306 0.969387755,0.56122449 1.2755102,0.408163265 L1.8877551,0.408163265 L1.8877551,4.28571429 L2.80612245,4.28571429 L2.80612245,4.94897959 L0.0510204082,4.94897959 L0.0510204082,4.28571429 Z" id="Shape"></path>
                            <path d="M3.7244898,3.87755102 C3.97959184,4.13265306 4.33673469,4.3877551 4.79591837,4.3877551 C5.30612245,4.3877551 5.66326531,4.08163265 5.66326531,3.52040816 C5.66326531,2.95918367 5.30612245,2.65306122 4.79591837,2.65306122 C4.48979592,2.65306122 4.33673469,2.75510204 4.08163265,2.90816327 L3.67346939,2.65306122 L3.82653061,0.408163265 L6.2755102,0.408163265 L6.2755102,1.12244898 L4.59183673,1.12244898 L4.48979592,2.24489796 C4.69387755,2.14285714 4.84693878,2.09183673 5.10204082,2.09183673 C5.86734694,2.09183673 6.53061224,2.55102041 6.53061224,3.52040816 C6.53061224,4.54081633 5.76530612,5.10204082 4.89795918,5.10204082 C4.13265306,5.10204082 3.67346939,4.79591837 3.31632653,4.48979592 L3.7244898,3.87755102 Z" id="Shape"></path>
                        </g>
                    </g>
                </g>
                <path d="M101,56.7225129 L101,52.5 L101.748947,52.5 L101.748947,56.0897816 L103.498643,56.0897816 L103.498643,56.7225129 L101,56.7225129 Z M104.299242,56.7225129 L104.299242,53.1327313 L103.078974,53.1327313 L103.078974,52.5 L106.262,52.5 L106.262,53.1327313 L105.048189,53.1327313 L105.048189,56.7225129 L104.299242,56.7225129 Z" id="LT" fill="#FFFFFF"></path>
            </g>
        </g>
    </g>
</svg>