<?xml version="1.0" encoding="UTF-8"?>
<svg viewBox="0 0 117 111" version="1.1" xmlns="http://www.w3.org/2000/svg" xmlns:xlink="http://www.w3.org/1999/xlink">
    <!-- Generator: sketchtool 51.2 (57519) - http://www.bohemiancoding.com/sketch -->
    <title>460C91C7-7AE1-42F2-827C-07C4CD23A7EF</title>
    <desc>Created with sketchtool.</desc>
    <defs></defs>
    <g id="Page-1" stroke="none" stroke-width="1" fill="none" fill-rule="evenodd">
        <g id="Circuit_info_05" transform="translate(-1134.000000, -688.000000)">
            <g id="assets/circuits_info/76" transform="translate(1133.000000, 688.000000)">
                <rect id="Background" x="0" y="0" width="140" height="111"></rect>
                <g id="assets/circuits_info/Twin-Ring-Motegi" transform="translate(0.900322, 0.000000)" fill-rule="nonzero">
                    <g id="trazado" transform="translate(5.852090, 0.000000)" fill="#B7B5B6">
                        <path d="M74.4565916,0.135365854 C72.8810289,0.451219512 72.0257235,1.35365854 71.5755627,2.0304878 C70.5401929,3.65487805 70.9453376,5.55 70.9903537,5.77560976 C70.9903537,5.77560976 79.6334405,42.595122 79.6334405,42.595122 L79.6784566,42.7304878 C79.7234727,42.9109756 79.903537,43.5426829 79.1832797,44.1743902 C78.6430868,44.6707317 78.192926,44.5353659 77.9228296,44.354878 L77.8778135,44.3097561 L77.7877814,44.2646341 L59.6012862,34.6085366 C59.4662379,34.5182927 55.8649518,32.6231707 51.7234727,35.0597561 C47.3569132,37.5865854 47.3118971,41.7378049 47.3118971,43.2719512 L47.3118971,43.9036585 C47.3118971,45.4378049 47.3118971,47.0170732 46.0064309,48.2804878 C44.4758842,49.7695122 42.6302251,49.8597561 41.1446945,49.904878 L41.0546624,49.904878 C39.4340836,49.95 19.85209,51.4390244 18.9967846,51.4841463 C18.8167203,51.4841463 15.3504823,51.845122 12.1993569,54.4170732 C9.09324759,56.9439024 7.8778135,59.9670732 7.83279743,60.0573171 L0.405144695,78.8731707 L0.360128617,79.0085366 C0.270096463,79.504878 -0.180064309,82.1219512 1.44051447,83.6109756 C2.43086817,84.5134146 4.1414791,85.4609756 6.66237942,84.6487805 C8.01286174,84.2426829 53.659164,70.7512195 54.1093248,70.6158537 C54.8745981,70.4353659 57.3504823,70.1195122 58.7909968,71.247561 C60.5016077,72.6012195 60.681672,73.6390244 60.681672,73.6390244 L60.681672,73.5487805 L60.681672,73.7743902 L60.7717042,74.045122 C60.7717042,74.045122 62.392283,78.6926829 62.5273312,79.0085366 C62.5273312,79.0536585 62.5273312,79.0536585 62.5273312,79.0987805 C62.5273312,79.2792683 62.5273312,79.595122 62.392283,79.7756098 C62.3022508,79.9109756 62.0771704,80.3621951 60.7717042,80.5426829 C59.2861736,80.7682927 10.8038585,88.5743902 8.73311897,88.8902439 L8.8681672,88.8902439 C6.75241158,89.0256098 2.79099678,90.4695122 2.88102894,94.8012195 L2.92604502,98.9073171 L2.97106109,99.1329268 C3.51125402,100.982927 5.31189711,104.141463 8.68810289,104.05122 C11.659164,103.960976 66.1286174,100.847561 68.4244373,100.712195 C68.7845659,100.667073 71.5755627,100.396341 72.7459807,98.3207317 C73.2411576,97.4182927 73.6463023,95.9292683 72.5659164,93.7182927 C72.0257235,92.5902439 72.5209003,91.9134146 72.7009646,91.7329268 L72.7909968,91.6426829 L78.5530547,85.1902439 L78.6430868,85.054878 C78.733119,84.9195122 79.0482315,84.5585366 79.7234727,84.6487805 L79.8585209,84.6487805 L97.9549839,83.7012195 C98.2250804,83.7012195 100.07074,83.5207317 101.151125,81.9865854 C101.646302,81.2646341 102.096463,80.0463415 101.601286,78.1963415 L80.0385852,3.15853659 C79.5884244,1.7597561 77.8778135,-0.586585366 74.4565916,0.135365854 Z M74.2315113,5.00853659 C74.0514469,4.10609756 74.3665595,3.56463415 75.1318328,3.42926829 C76.2122186,3.20365854 76.6623794,3.7 76.8424437,4.15121951 C76.8874598,4.33170732 98.2700965,79.1890244 98.2700965,79.1890244 C98.3151125,79.4146341 98.3601286,79.595122 98.3601286,79.7304878 C98.3601286,79.9109756 98.3601286,80.0463415 98.3151125,80.1365854 C98.2250804,80.3170732 97.8649518,80.4073171 97.6398714,80.452439 C97.6398714,80.452439 79.8135048,81.354878 79.7234727,81.4 C77.562701,81.2646341 76.1672026,82.5731707 75.6720257,83.3853659 L75.85209,83.1146341 L70.1800643,89.4768293 L70.3151125,89.3414634 C69.414791,90.1536585 68.1093248,92.454878 69.4598071,95.252439 C69.7749196,95.8841463 69.8649518,96.4256098 69.7299035,96.6963415 C69.5048232,97.102439 68.6045016,97.3731707 68.0643087,97.4182927 C67.5241158,97.4634146 11.3890675,100.667073 8.46302251,100.757317 C7.11254019,100.802439 6.34726688,98.997561 6.1221865,98.4109756 C6.1221865,97.9597561 6.07717042,94.8012195 6.07717042,94.8012195 C6.03215434,92.6353659 8.50803859,92.3195122 9.00321543,92.2743902 L9.04823151,92.2743902 L9.13826367,92.2743902 C9.63344051,92.1841463 59.6463023,84.152439 61.1318328,83.9268293 C63.1575563,83.6560976 64.5080386,82.7987805 65.2733119,81.354878 C65.7234727,80.452439 65.7684887,79.55 65.7684887,78.9634146 C65.7684887,78.647561 65.7234727,78.4219512 65.6784566,78.3317073 L65.6784566,78.2414634 C65.6784566,78.2414634 63.9678457,73.4134146 63.8778135,73.1426829 C63.7427653,72.3756098 63.2025723,70.6158537 60.7717042,68.7207317 C57.7106109,66.3292683 53.2990354,67.4121951 53.1189711,67.4573171 C51.1832797,68.0439024 6.93247588,81.1292683 5.53697749,81.5353659 C4.50160772,81.8512195 4.00643087,81.5804878 3.60128617,81.2195122 C3.51125402,81.1292683 3.46623794,80.9036585 3.46623794,80.5878049 C3.46623794,80.3621951 3.46623794,80.0463415 3.51125402,79.8207317 C3.64630225,79.4146341 10.8038585,61.3658537 10.8038585,61.3658537 C10.8038585,61.3207317 11.7942122,59.0195122 14.1800643,57.0792683 C16.5209003,55.1841463 19.1318328,54.8682927 19.1768489,54.8682927 C26.1543408,54.3268293 39.7942122,53.3341463 41.0546624,53.2890244 L41.1446945,53.2890244 C42.8553055,53.2439024 45.7813505,53.1536585 48.2122186,50.7170732 C50.5530547,48.4609756 50.5080386,45.7085366 50.5080386,43.9036585 L50.5080386,43.3621951 C50.5530547,41.3768293 50.8681672,39.3463415 53.2540193,37.9926829 C55.7749196,36.5487805 57.8006431,37.5865854 57.8906752,37.6317073 L76.0771704,47.2878049 L75.8971061,47.152439 C76.8874598,47.8292683 79.2733119,48.6414634 81.3440514,46.7012195 C83.3247588,44.8512195 83.0996785,42.595122 82.6495177,41.5121951 L82.7395498,41.7829268 L74.2315113,5.00853659 Z" id="Shape"></path>
                    </g>
                    <g id="PUNTOS_INTERMEDIOS_Y_SEMAFORO" transform="translate(28.360129, 7.219512)">
                        <path d="M21.1575563,69.9841463 C20.9324759,70.0743902 20.7073955,69.9390244 20.6623794,69.7134146 L15.9807074,55.545122 C15.8906752,55.3195122 16.0257235,55.0939024 16.2508039,55.0487805 C16.4758842,54.9585366 16.7009646,55.0939024 16.7459807,55.3195122 L21.4276527,69.4878049 C21.4726688,69.6682927 21.3376206,69.8939024 21.1575563,69.9841463 Z" id="Shape" fill="#AC1737"></path>
                        <path d="M12.1543408,48.7768293 C11.9292605,48.7768293 11.7491961,48.5963415 11.7491961,48.3707317 L11.3440514,33.4804878 C11.3440514,33.254878 11.5241158,33.0743902 11.7491961,33.0743902 C11.9742765,33.0743902 12.1543408,33.254878 12.1543408,33.4804878 L12.5594855,48.3707317 C12.5144695,48.5963415 12.3794212,48.7768293 12.1543408,48.7768293 Z" id="Shape" fill="#AC1737"></path>
                        <path d="M62.2572347,55.8609756 C62.1672026,55.6353659 62.3022508,55.4097561 62.5273312,55.3646341 L76.6623794,50.6719512 C76.8874598,50.5817073 77.1125402,50.7170732 77.1575563,50.9426829 C77.2475884,51.1682927 77.1125402,51.3939024 76.8874598,51.4390244 L62.7524116,56.1317073 C62.5723473,56.1768293 62.3472669,56.0414634 62.2572347,55.8609756 Z" id="Shape" fill="#AC1737"></path>
                        <path d="M56.1350482,10.3329268 C56.0450161,10.1073171 56.1800643,9.88170732 56.4051447,9.83658537 L70.5401929,5.14390244 C70.7652733,5.05365854 70.9903537,5.18902439 71.0353698,5.41463415 C71.0803859,5.6402439 70.9903537,5.86585366 70.7652733,5.91097561 L56.6302251,10.6036585 C56.4051447,10.6487805 56.1800643,10.5585366 56.1350482,10.3329268 Z" id="Shape" fill="#AC1737"></path>
                        <g id="Group" transform="translate(0.000000, 89.792683)" fill="#AC1737">
                            <path d="M9.90353698,0.0451219512 C10.1286174,0.0451219512 10.3086817,0.225609756 10.3086817,0.451219512 L10.1286174,11.8670732 C10.1286174,12.0926829 9.94855305,12.2280488 9.76848875,12.2280488 L1.80064309,12.0926829 C1.5755627,12.0926829 1.39549839,11.9121951 1.39549839,11.6865854 C1.39549839,11.4609756 1.5755627,11.2804878 1.80064309,11.2804878 L9.18327974,11.4158537 C9.2733119,11.4158537 9.31832797,11.3707317 9.31832797,11.2804878 L9.49839228,0.451219512 C9.49839228,0.225609756 9.67845659,0.0451219512 9.90353698,0.0451219512 Z" id="Shape"></path>
                            <path d="M0.360128617,11.4609756 C0.180064309,11.5512195 0.180064309,11.7768293 0.360128617,11.8670732 L1.80064309,12.7243902 L3.24115756,13.5817073 C3.42122186,13.6719512 3.60128617,13.5817073 3.60128617,13.3560976 L3.64630225,11.6865854 L3.69131833,10.0170732 C3.69131833,9.83658537 3.51125402,9.70121951 3.33118971,9.79146341 L1.89067524,10.6036585 L0.360128617,11.4609756 Z" id="Shape"></path>
                        </g>
                        <g id="Group" transform="translate(3.601286, 82.121951)">
                            <path d="M0.270096463,3.65487805 C0.270096463,1.7597561 1.80064309,0.225609756 3.73633441,0.225609756 L9.00321543,0.225609756 C10.8938907,0.225609756 12.4244373,1.7597561 12.4244373,3.65487805 L12.4244373,5.82073171 C12.4244373,7.71585366 10.8938907,9.25 9.00321543,9.25 L3.73633441,9.25 C1.84565916,9.25 0.270096463,7.71585366 0.270096463,5.82073171 L0.270096463,3.65487805 Z" id="Shape" fill="#AC1737"></path>
                            <g transform="translate(3.601286, 2.707317)" fill="#FFFFFF" id="Shape">
                                <polygon points="0.0450160772 0.180487805 2.29581994 0.180487805 2.29581994 0.72195122 0.720257235 0.72195122 0.720257235 1.7597561 2.07073955 1.7597561 2.07073955 2.30121951 0.720257235 2.30121951 0.720257235 3.8804878 0.0450160772 3.8804878"></polygon>
                                <polygon points="3.19614148 0.180487805 3.87138264 0.180487805 3.87138264 3.38414634 5.40192926 3.38414634 5.40192926 3.92560976 3.19614148 3.92560976"></polygon>
                            </g>
                        </g>
                        <g id="Group" transform="translate(12.154341, 50.536585)">
                            <path d="M0.360128617,3.7 C0.360128617,1.80487805 1.89067524,0.270731707 3.82636656,0.270731707 L5.58199357,0.270731707 C7.47266881,0.270731707 9.04823151,1.80487805 9.04823151,3.7 L9.04823151,6.18170732 C9.04823151,8.07682927 7.51768489,9.65609756 5.58199357,9.65609756 L3.82636656,9.65609756 C1.93569132,9.65609756 0.360128617,8.12195122 0.360128617,6.18170732 L0.360128617,3.7 Z" id="Shape" fill="#AC1737"></path>
                            <g transform="translate(2.250804, 2.707317)" fill="#FFFFFF" id="Shape">
                                <path d="M0.405144695,0.586585366 C0.405144695,0.36097561 0.585209003,0.225609756 0.810289389,0.225609756 C1.03536977,0.225609756 1.21543408,0.36097561 1.21543408,0.586585366 C1.21543408,0.812195122 1.03536977,0.947560976 0.810289389,0.947560976 C0.585209003,0.947560976 0.405144695,0.812195122 0.405144695,0.586585366 Z M0.495176849,1.44390244 L1.17041801,1.44390244 L1.17041801,4.24146341 L0.495176849,4.24146341 L0.495176849,1.44390244 Z"></path>
                                <path d="M2.25080386,3.74512195 L3.06109325,3.74512195 L3.06109325,1.35365854 L2.38585209,1.35365854 L2.38585209,0.902439024 C2.74598071,0.812195122 3.01607717,0.72195122 3.24115756,0.586585366 L3.73633441,0.586585366 L3.73633441,3.7 L4.45659164,3.7 L4.45659164,4.24146341 L2.25080386,4.24146341 L2.25080386,3.74512195 Z"></path>
                            </g>
                        </g>
                        <g id="Group" transform="translate(63.922830, 0.000000)">
                            <path d="M0.180064309,3.8804878 C0.180064309,1.98536585 1.71061093,0.406097561 3.60128617,0.406097561 L5.89710611,0.406097561 C7.78778135,0.406097561 9.36334405,1.9402439 9.36334405,3.8804878 L9.36334405,6.18170732 C9.36334405,8.07682927 7.83279743,9.61097561 5.89710611,9.61097561 L3.60128617,9.61097561 C1.71061093,9.61097561 0.180064309,8.07682927 0.180064309,6.18170732 L0.180064309,3.8804878 Z" id="Shape" fill="#AC1737"></path>
                            <g transform="translate(2.700965, 2.707317)" fill="#FFFFFF" id="Shape">
                                <path d="M0.0450160772,0.676829268 C0.0450160772,0.451219512 0.225080386,0.315853659 0.450160772,0.315853659 C0.675241158,0.315853659 0.855305466,0.451219512 0.855305466,0.676829268 C0.855305466,0.902439024 0.675241158,1.03780488 0.450160772,1.03780488 C0.225080386,1.03780488 0.0450160772,0.857317073 0.0450160772,0.676829268 Z M0.135048232,1.53414634 L0.810289389,1.53414634 L0.810289389,4.33170732 L0.135048232,4.33170732 L0.135048232,1.53414634 Z"></path>
                                <path d="M1.93569132,3.47439024 C2.1607717,3.7 2.43086817,3.8804878 2.79099678,3.8804878 C3.19614148,3.8804878 3.46623794,3.65487805 3.46623794,3.33902439 C3.46623794,2.97804878 3.24115756,2.70731707 2.38585209,2.70731707 L2.38585209,2.21097561 C3.10610932,2.21097561 3.33118971,1.98536585 3.33118971,1.62439024 C3.33118971,1.30853659 3.10610932,1.12804878 2.79099678,1.12804878 C2.52090032,1.12804878 2.29581994,1.26341463 2.07073955,1.48902439 L1.71061093,1.08292683 C2.02572347,0.812195122 2.38585209,0.631707317 2.79099678,0.631707317 C3.46623794,0.631707317 3.96141479,0.992682927 3.96141479,1.57926829 C3.96141479,1.98536585 3.73633441,2.25609756 3.33118971,2.43658537 L3.33118971,2.48170732 C3.78135048,2.61707317 4.09646302,2.88780488 4.09646302,3.38414634 C4.09646302,4.06097561 3.51125402,4.42195122 2.83601286,4.42195122 C2.25080386,4.42195122 1.84565916,4.19634146 1.62057878,3.92560976 L1.93569132,3.47439024 Z"></path>
                            </g>
                        </g>
                        <g id="Group" transform="translate(6.752412, 32.036585)">
                            <path d="M0.135048232,3.56463415 C0.135048232,1.6695122 1.66559486,0.0902439024 3.5562701,0.0902439024 L5.80707395,0.0902439024 C7.6977492,0.0902439024 9.2733119,1.62439024 9.2733119,3.56463415 L9.2733119,5.86585366 C9.2733119,7.76097561 7.74276527,9.3402439 5.80707395,9.3402439 L3.5562701,9.3402439 C1.66559486,9.3402439 0.135048232,7.80609756 0.135048232,5.86585366 L0.135048232,3.56463415 Z" id="Shape" fill="#AC1737"></path>
                            <g transform="translate(2.250804, 2.707317)" fill="#FFFFFF" id="Shape">
                                <path d="M0.405144695,0.36097561 C0.405144695,0.135365854 0.585209003,0 0.810289389,0 C1.03536977,0 1.21543408,0.135365854 1.21543408,0.36097561 C1.21543408,0.586585366 1.03536977,0.72195122 0.810289389,0.72195122 C0.585209003,0.72195122 0.405144695,0.586585366 0.405144695,0.36097561 Z M0.495176849,1.21829268 L1.17041801,1.21829268 L1.17041801,4.01585366 L0.495176849,4.01585366 L0.495176849,1.21829268 Z"></path>
                                <path d="M2.07073955,3.65487805 C3.06109325,2.66219512 3.73633441,2.0304878 3.73633441,1.48902439 C3.73633441,1.08292683 3.51125402,0.857317073 3.1511254,0.857317073 C2.88102894,0.857317073 2.65594855,1.03780488 2.43086817,1.26341463 L2.07073955,0.902439024 C2.38585209,0.541463415 2.74598071,0.36097561 3.24115756,0.36097561 C3.91639871,0.36097561 4.41157556,0.812195122 4.41157556,1.48902439 C4.41157556,2.12073171 3.82636656,2.79756098 3.10610932,3.56463415 C3.28617363,3.56463415 3.5562701,3.5195122 3.69131833,3.5195122 L4.59163987,3.5195122 L4.59163987,4.06097561 L2.11575563,4.06097561 L2.11575563,3.65487805 L2.07073955,3.65487805 Z"></path>
                            </g>
                        </g>
                        <g id="Group" transform="translate(60.771704, 48.731707)">
                            <path d="M0.0900321543,3.5195122 C0.0900321543,1.62439024 1.62057878,0.0902439024 3.51125402,0.0902439024 L4.7266881,0.0902439024 C6.61736334,0.0902439024 8.14790997,1.62439024 8.14790997,3.5195122 L8.14790997,5.68536585 C8.14790997,7.5804878 6.61736334,9.11463415 4.7266881,9.11463415 L3.51125402,9.11463415 C1.62057878,9.11463415 0.0900321543,7.5804878 0.0900321543,5.68536585 L0.0900321543,3.5195122 Z" id="Shape" fill="#AC1737"></path>
                            <path d="M3.1511254,5.55 C3.42122186,5.82073171 3.78135048,5.95609756 4.1414791,5.95609756 C4.54662379,5.95609756 4.77170418,5.77560976 4.77170418,5.4597561 C4.77170418,5.14390244 4.54662379,5.05365854 4.18649518,4.91829268 L3.69131833,4.69268293 C3.33118971,4.55731707 2.92604502,4.24146341 2.92604502,3.7 C2.92604502,3.11341463 3.46623794,2.66219512 4.18649518,2.66219512 C4.63665595,2.66219512 5.04180064,2.84268293 5.35691318,3.15853659 L4.99678457,3.56463415 C4.77170418,3.38414634 4.50160772,3.24878049 4.18649518,3.24878049 C3.82636656,3.24878049 3.60128617,3.42926829 3.60128617,3.7 C3.60128617,3.97073171 3.87138264,4.10609756 4.18649518,4.24146341 L4.68167203,4.46707317 C5.1318328,4.64756098 5.44694534,4.91829268 5.44694534,5.4597561 C5.44694534,6.04634146 4.95176849,6.58780488 4.09646302,6.58780488 C3.60128617,6.58780488 3.10610932,6.40731707 2.74598071,6.04634146 L3.1511254,5.55 Z" id="Shape" fill="#FFFFFF"></path>
                        </g>
                    </g>
                    <g id="textos_y_numeros" transform="translate(0.000000, 3.158537)" fill="#7B7C7D">
                        <path d="M7.20257235,104.276829 L8.10289389,104.276829 L8.10289389,101.614634 L7.33762058,101.614634 L7.33762058,101.163415 C7.74276527,101.073171 8.01286174,100.982927 8.2829582,100.847561 L8.82315113,100.847561 L8.82315113,104.276829 L9.63344051,104.276829 L9.63344051,104.863415 L7.20257235,104.863415 L7.20257235,104.276829 Z" id="Shape"></path>
                        <path d="M3.1511254,90.5146341 C4.27652733,89.4317073 4.99678457,88.7097561 4.99678457,88.0780488 C4.99678457,87.6719512 4.77170418,87.3560976 4.32154341,87.3560976 C4.00643087,87.3560976 3.73633441,87.5817073 3.51125402,87.8073171 L3.10610932,87.4012195 C3.46623794,86.995122 3.82636656,86.7695122 4.41157556,86.7695122 C5.17684887,86.7695122 5.67202572,87.2658537 5.67202572,88.0329268 C5.67202572,88.754878 4.99678457,89.4768293 4.18649518,90.3341463 C4.41157556,90.3341463 4.68167203,90.2890244 4.86173633,90.2890244 L5.85209003,90.2890244 L5.85209003,90.9207317 L3.1511254,90.9207317 L3.1511254,90.5146341 Z" id="Shape"></path>
                        <path d="M74.1864952,77.3390244 C74.4115756,77.6097561 74.7266881,77.7902439 75.1318328,77.7902439 C75.5819936,77.7902439 75.8971061,77.5646341 75.8971061,77.1585366 C75.8971061,76.752439 75.6270096,76.4817073 74.7266881,76.4817073 L74.7266881,75.9402439 C75.5369775,75.9402439 75.7620579,75.6695122 75.7620579,75.3085366 C75.7620579,74.9926829 75.5369775,74.7670732 75.1768489,74.7670732 C74.8617363,74.7670732 74.5916399,74.902439 74.3665595,75.1280488 L74.0064309,74.6768293 C74.3665595,74.3609756 74.7266881,74.1804878 75.221865,74.1804878 C75.9871383,74.1804878 76.5273312,74.5414634 76.5273312,75.2634146 C76.5273312,75.7146341 76.2572347,76.0304878 75.807074,76.2109756 L75.807074,76.2560976 C76.3022508,76.3914634 76.6623794,76.7073171 76.6623794,77.2487805 C76.6623794,77.9707317 76.0321543,78.4219512 75.266881,78.4219512 C74.5916399,78.4219512 74.1864952,78.1512195 73.9163987,77.8353659 L74.1864952,77.3390244 Z" id="Shape"></path>
                        <path d="M66.3536977,62.9 L65.8585209,62.9 L65.8585209,63.9378049 L65.1832797,63.9378049 L65.1832797,62.9 L63.3826367,62.9 L63.3826367,62.4036585 L65.0032154,59.8768293 L65.8585209,59.8768293 L65.8585209,62.3134146 L66.3536977,62.3134146 L66.3536977,62.9 Z M65.1832797,62.3134146 L65.1832797,61.4109756 C65.1832797,61.1853659 65.1832797,60.8243902 65.2282958,60.5536585 L65.1832797,60.5536585 C65.0932476,60.7792683 64.9581994,60.9597561 64.8681672,61.1853659 L64.14791,62.3134146 L65.1832797,62.3134146 Z" id="Shape"></path>
                        <path d="M18.6366559,45.5280488 C18.5016077,45.347561 18.2315113,45.2121951 18.0064309,45.2121951 C17.511254,45.2121951 17.1061093,45.5731707 17.0610932,46.7012195 C17.2861736,46.3853659 17.6463023,46.204878 17.9163987,46.204878 C18.6366559,46.204878 19.0868167,46.6109756 19.0868167,47.4682927 C19.0868167,48.2804878 18.5016077,48.7768293 17.8263666,48.7768293 C17.0160772,48.7768293 16.340836,48.145122 16.340836,46.7914634 C16.340836,45.2121951 17.1061093,44.5804878 17.9163987,44.5804878 C18.4115756,44.5804878 18.7717042,44.8060976 18.9967846,45.0317073 L18.6366559,45.5280488 Z M18.4115756,47.5134146 C18.4115756,47.0170732 18.1864952,46.7914634 17.7813505,46.7914634 C17.5562701,46.7914634 17.2861736,46.9268293 17.0610932,47.2426829 C17.1511254,47.9646341 17.4212219,48.2804878 17.8263666,48.2804878 C18.1414791,48.2804878 18.4115756,48.0097561 18.4115756,47.5134146 Z" id="Shape"></path>
                        <path d="M0.540192926,79.3695122 C0.765273312,79.595122 1.08038585,79.8207317 1.48553055,79.8207317 C1.93569132,79.8207317 2.25080386,79.55 2.25080386,79.0536585 C2.25080386,78.5573171 1.93569132,78.2865854 1.48553055,78.2865854 C1.21543408,78.2865854 1.08038585,78.3768293 0.855305466,78.5121951 L0.495176849,78.2865854 L0.63022508,76.3012195 L2.79099678,76.3012195 L2.79099678,76.9329268 L1.26045016,76.9329268 L1.17041801,77.9256098 C1.35048232,77.8353659 1.48553055,77.7902439 1.71061093,77.7902439 C2.38585209,77.7902439 2.97106109,78.1963415 2.97106109,79.0536585 C2.97106109,79.9560976 2.29581994,80.452439 1.53054662,80.452439 C0.855305466,80.452439 0.450160772,80.1817073 0.135048232,79.9109756 L0.540192926,79.3695122 Z" id="Shape"></path>
                        <path d="M50.4630225,41.5121951 L48.5723473,41.5121951 L48.5723473,40.8804878 L51.2733119,40.8804878 L51.2733119,41.3317073 C50.3279743,42.504878 50.14791,43.3621951 50.1028939,44.9414634 L49.3376206,44.9414634 C49.4276527,43.497561 49.6977492,42.595122 50.4630225,41.5121951 Z" id="Shape"></path>
                        <path d="M54.7395498,28.8780488 C54.4244373,28.652439 54.1993569,28.3365854 54.1993569,27.8853659 C54.1993569,27.2085366 54.7395498,26.802439 55.414791,26.802439 C56.1350482,26.802439 56.585209,27.2536585 56.585209,27.8853659 C56.585209,28.2914634 56.3151125,28.6073171 56.0450161,28.8329268 L56.0450161,28.8780488 C56.4051447,29.1036585 56.7652733,29.3743902 56.7652733,29.9158537 C56.7652733,30.547561 56.2250804,30.9987805 55.414791,30.9987805 C54.6045016,30.9987805 54.0643087,30.547561 54.0643087,29.8707317 C53.9742765,29.4195122 54.3344051,29.1036585 54.7395498,28.8780488 Z M55.3697749,30.502439 C55.7749196,30.502439 56.0450161,30.2768293 56.0450161,29.9158537 C56.0450161,29.4646341 55.6398714,29.3292683 55.0546624,29.1036585 C54.7845659,29.2841463 54.6045016,29.554878 54.6045016,29.8707317 C54.6495177,30.2768293 54.9646302,30.502439 55.3697749,30.502439 Z M55.9549839,27.9756098 C55.9549839,27.6146341 55.7299035,27.3439024 55.3697749,27.3439024 C55.0546624,27.3439024 54.829582,27.5695122 54.829582,27.8853659 C54.829582,28.2914634 55.1897106,28.4719512 55.6398714,28.652439 C55.8649518,28.4719512 55.9549839,28.2463415 55.9549839,27.9756098 Z" id="Shape"></path>
                        <path d="M88.6366559,48.3707317 C88.7717042,48.5512195 89.0418006,48.6865854 89.266881,48.6865854 C89.7620579,48.6865854 90.1672026,48.3256098 90.2122186,47.197561 C89.9871383,47.4682927 89.6270096,47.6487805 89.3118971,47.6487805 C88.6366559,47.6487805 88.1414791,47.2426829 88.1414791,46.3853659 C88.1414791,45.5731707 88.7266881,45.0768293 89.4019293,45.0768293 C90.2122186,45.0768293 90.8424437,45.7085366 90.8424437,47.0621951 C90.8424437,48.6414634 90.0771704,49.2731707 89.266881,49.2731707 C88.7717042,49.2731707 88.4115756,49.047561 88.1864952,48.8219512 L88.6366559,48.3707317 Z M90.2122186,46.6109756 C90.1221865,45.8890244 89.85209,45.5731707 89.4469453,45.5731707 C89.1318328,45.5731707 88.8617363,45.8439024 88.8617363,46.3402439 C88.8617363,46.8365854 89.0868167,47.0621951 89.4919614,47.0621951 C89.7170418,47.1073171 89.9871383,46.9719512 90.2122186,46.6109756 Z" id="Shape"></path>
                        <g id="Group" transform="translate(68.424437, 0.000000)">
                            <path d="M0.180064309,3.6097561 L1.08038585,3.6097561 L1.08038585,0.947560976 L0.31511254,0.947560976 L0.31511254,0.496341463 C0.720257235,0.406097561 0.990353698,0.315853659 1.26045016,0.180487805 L1.80064309,0.180487805 L1.80064309,3.6097561 L2.61093248,3.6097561 L2.61093248,4.19634146 L0.180064309,4.19634146 L0.180064309,3.6097561 Z" id="Shape"></path>
                            <path d="M3.19614148,2.16585366 C3.19614148,0.812195122 3.73633441,0.0902439024 4.54662379,0.0902439024 C5.35691318,0.0902439024 5.89710611,0.812195122 5.89710611,2.16585366 C5.89710611,3.5195122 5.35691318,4.28658537 4.54662379,4.28658537 C3.73633441,4.28658537 3.19614148,3.5195122 3.19614148,2.16585366 Z M5.26688103,2.16585366 C5.26688103,1.03780488 4.99678457,0.676829268 4.59163987,0.676829268 C4.18649518,0.676829268 3.91639871,1.03780488 3.91639871,2.16585366 C3.91639871,3.29390244 4.18649518,3.7 4.59163987,3.7 C4.95176849,3.7 5.26688103,3.29390244 5.26688103,2.16585366 Z" id="Shape"></path>
                        </g>
                        <g id="Group" transform="translate(110.289389, 78.060976)">
                            <path d="M0.135048232,3.47439024 L1.03536977,3.47439024 L1.03536977,0.812195122 L0.270096463,0.812195122 L0.270096463,0.36097561 C0.675241158,0.270731707 0.945337621,0.180487805 1.21543408,0.0451219512 L1.75562701,0.0451219512 L1.75562701,3.47439024 L2.5659164,3.47439024 L2.5659164,4.06097561 L0.135048232,4.06097561 L0.135048232,3.47439024 Z" id="Shape"></path>
                            <path d="M3.42122186,3.47439024 L4.32154341,3.47439024 L4.32154341,0.812195122 L3.5562701,0.812195122 L3.5562701,0.36097561 C3.96141479,0.270731707 4.23151125,0.180487805 4.50160772,0.0451219512 L5.04180064,0.0451219512 L5.04180064,3.47439024 L5.85209003,3.47439024 L5.85209003,4.06097561 L3.42122186,4.06097561 L3.42122186,3.47439024 Z" id="Shape"></path>
                        </g>
                        <g id="Group" transform="translate(85.080386, 83.024390)">
                            <path d="M0.225080386,3.74512195 L1.12540193,3.74512195 L1.12540193,1.08292683 L0.360128617,1.08292683 L0.360128617,0.631707317 C0.765273312,0.541463415 1.03536977,0.451219512 1.30546624,0.315853659 L1.84565916,0.315853659 L1.84565916,3.74512195 L2.65594855,3.74512195 L2.65594855,4.33170732 L0.225080386,4.33170732 L0.225080386,3.74512195 Z" id="Shape"></path>
                            <path d="M3.24115756,3.92560976 C4.36655949,2.84268293 5.08681672,2.12073171 5.08681672,1.48902439 C5.08681672,1.08292683 4.86173633,0.767073171 4.41157556,0.767073171 C4.09646302,0.767073171 3.82636656,0.992682927 3.60128617,1.21829268 L3.19614148,0.812195122 C3.5562701,0.406097561 3.91639871,0.180487805 4.50160772,0.180487805 C5.26688103,0.180487805 5.76205788,0.676829268 5.76205788,1.44390244 C5.76205788,2.16585366 5.08681672,2.88780488 4.27652733,3.74512195 C4.50160772,3.74512195 4.77170418,3.7 4.95176849,3.7 L5.94212219,3.7 L5.94212219,4.33170732 L3.19614148,4.33170732 L3.19614148,3.92560976 L3.24115756,3.92560976 Z" id="Shape"></path>
                        </g>
                        <g id="Group" transform="translate(67.073955, 84.378049)">
                            <path d="M0,3.7 L0.900321543,3.7 L0.900321543,1.03780488 L0.135048232,1.03780488 L0.135048232,0.586585366 C0.540192926,0.496341463 0.810289389,0.406097561 1.08038585,0.270731707 L1.62057878,0.270731707 L1.62057878,3.7 L2.43086817,3.7 L2.43086817,4.28658537 L0,4.28658537 L0,3.7 Z" id="Shape"></path>
                            <path d="M3.33118971,3.33902439 C3.5562701,3.6097561 3.87138264,3.7902439 4.27652733,3.7902439 C4.7266881,3.7902439 5.04180064,3.56463415 5.04180064,3.15853659 C5.04180064,2.75243902 4.77170418,2.48170732 3.87138264,2.48170732 L3.87138264,1.9402439 C4.68167203,1.9402439 4.90675241,1.6695122 4.90675241,1.30853659 C4.90675241,0.992682927 4.68167203,0.767073171 4.32154341,0.767073171 C4.00643087,0.767073171 3.73633441,0.902439024 3.51125402,1.12804878 L3.1511254,0.676829268 C3.51125402,0.36097561 3.87138264,0.180487805 4.36655949,0.180487805 C5.1318328,0.180487805 5.67202572,0.541463415 5.67202572,1.26341463 C5.67202572,1.71463415 5.40192926,2.0304878 4.95176849,2.21097561 L4.95176849,2.25609756 C5.44694534,2.39146341 5.80707395,2.70731707 5.80707395,3.24878049 C5.80707395,3.97073171 5.17684887,4.42195122 4.41157556,4.42195122 C3.73633441,4.42195122 3.33118971,4.15121951 3.06109325,3.83536585 L3.33118971,3.33902439 Z" id="Shape"></path>
                        </g>
                        <g id="Group" transform="translate(80.578778, 94.304878)">
                            <path d="M0.360128617,3.8804878 L1.26045016,3.8804878 L1.26045016,1.21829268 L0.495176849,1.21829268 L0.495176849,0.767073171 C0.900321543,0.676829268 1.17041801,0.586585366 1.44051447,0.451219512 L1.9807074,0.451219512 L1.9807074,3.8804878 L2.79099678,3.8804878 L2.79099678,4.46707317 L0.360128617,4.46707317 L0.360128617,3.8804878 Z" id="Shape"></path>
                            <path d="M6.25723473,3.42926829 L5.76205788,3.42926829 L5.76205788,4.46707317 L5.08681672,4.46707317 L5.08681672,3.42926829 L3.28617363,3.42926829 L3.28617363,2.93292683 L4.90675241,0.406097561 L5.76205788,0.406097561 L5.76205788,2.84268293 L6.25723473,2.84268293 L6.25723473,3.42926829 Z M5.08681672,2.88780488 L5.08681672,1.98536585 C5.08681672,1.7597561 5.08681672,1.39878049 5.1318328,1.12804878 L5.08681672,1.12804878 C4.99678457,1.35365854 4.86173633,1.53414634 4.77170418,1.7597561 L4.05144695,2.88780488 L5.08681672,2.88780488 Z" id="Shape"></path>
                        </g>
                    </g>
                </g>
                <g id="Group" transform="translate(45.466238, 102.426829)" fill-rule="nonzero">
                    <path d="M2.32298421,0 L16.5837682,2.79408855e-13 C17.8675226,2.79408855e-13 18.9067524,1.04452517 18.9067524,2.33482097 L18.9067524,4.88469123 C18.9067524,6.17498703 17.8675226,7.2195122 16.5837682,7.2195122 L2.32298421,7.2195122 C1.03922978,7.2195122 0,6.17498703 0,4.88469123 L0,2.33482097 C0,1.04452517 1.03922978,0 2.32298421,0 Z" id="Shape" fill="#7B7C7D"></path>
                    <g transform="translate(12.604502, 0.451220)" id="Shape">
                        <path d="M2.31739569,5.86585366 C1.20930764,5.86585366 0.300107181,4.87792041 0.300107181,3.67387677 L0.300107181,2.19197689 C0.300107181,0.987933248 1.20930764,0 2.31739569,0 L3.08453357,0 C4.19262163,0 5.10182208,0.987933248 5.10182208,2.19197689 L5.10182208,3.67387677 C5.10182208,4.87792041 4.19262163,5.86585366 3.08453357,5.86585366 L2.31739569,5.86585366 Z" fill="#FFFFFF"></path>
                        <path d="M3.09110397,0.293292683 C4.20150054,0.293292683 5.07181136,1.17317073 5.07181136,2.22902439 L5.07181136,3.63682927 C5.07181136,4.7220122 4.17148982,5.57256098 3.09110397,5.57256098 L2.28081458,5.57256098 C1.17041801,5.57256098 0.300107181,4.69268293 0.300107181,3.63682927 L0.300107181,2.22902439 C0.300107181,1.14384146 1.20042872,0.293292683 2.28081458,0.293292683 L3.09110397,0.293292683 Z M3.09110397,0 L2.28081458,0 C1.02036442,0 0,0.997195122 0,2.22902439 L0,3.63682927 C0,4.86865854 1.02036442,5.86585366 2.28081458,5.86585366 L3.09110397,5.86585366 C4.35155413,5.86585366 5.37191854,4.86865854 5.37191854,3.63682927 L5.37191854,2.22902439 C5.40192926,0.997195122 4.38156484,0 3.09110397,0 Z" fill="#C7C6C5"></path>
                    </g>
                    <g id="Clipped" transform="translate(12.604502, 0.451220)" fill="#1E1E1C">
                        <g id="Group" transform="translate(-1.540024, 0.293293)">
                            <rect id="Rectangle-path" x="0" y="0.205304878" width="1.2936199" height="1.23182927"></rect>
                            <rect id="Rectangle-path" x="1.54002369" y="1.46646341" width="1.23201895" height="1.17317073"></rect>
                            <polygon id="Rectangle-path" points="4.0040616 0 5.23608056 2.1649349e-16 5.23608056 0.325 4.0040616 0.325"></polygon>
                            <rect id="Rectangle-path-Copy-3" x="2.77204265" y="0.293292683" width="1.23201895" height="1.17317073"></rect>
                            <rect id="Rectangle-path" x="4.0040616" y="1.46646341" width="1.23201895" height="1.17317073"></rect>
                            <rect id="Rectangle-path" x="0" y="2.63963415" width="1.2936199" height="1.23182927"></rect>
                            <rect id="Rectangle-path" x="1.54002369" y="3.81280488" width="1.23201895" height="1.17317073"></rect>
                            <rect id="Rectangle-path-Copy" x="2.77204265" y="4.98597561" width="1.23201895" height="1.17317073"></rect>
                            <polygon id="Rectangle-path-Copy-2" points="5.23608056 4.98597561 6.16009477 4.98597561 5.85209003 5.31097561 5.23608056 5.31097561"></polygon>
                            <rect id="Rectangle-path" x="2.77204265" y="2.63963415" width="1.23201895" height="1.17317073"></rect>
                            <rect id="Rectangle-path" x="4.0040616" y="3.81280488" width="1.23201895" height="1.17317073"></rect>
                            <rect id="Rectangle-path" x="5.23608056" y="0.293292683" width="1.23201895" height="1.17317073"></rect>
                            <rect id="Rectangle-path" x="6.46809951" y="1.46646341" width="1.23201895" height="1.17317073"></rect>
                            <rect id="Rectangle-path" x="5.23608056" y="2.63963415" width="1.23201895" height="1.17317073"></rect>
                            <polygon id="Rectangle-path" points="6.46809951 3.81280488 6.81020477 3.81280488 6.81020477 4.39939024 6.46809951 4.69268293"></polygon>
                        </g>
                    </g>
                    <g transform="translate(0.900322, 0.451220)" fill="#C01724" id="Shape" stroke="#D0021B">
                        <path d="M2.25609987,5.86585366 C1.01683374,5.86585366 0,4.87792041 0,3.67387677 L0,2.19197689 C0,0.987933248 1.01683374,0 2.25609987,0 L3.11405334,0 C4.35331946,0 5.37015321,0.987933248 5.37015321,2.19197689 L5.37015321,3.67387677 C5.37015321,4.87792041 4.35331946,5.86585366 3.11405334,5.86585366 L2.25609987,5.86585366 Z"></path>
                    </g>
                    <g transform="translate(6.752412, 0.451220)" id="Shape">
                        <path d="M2.13076099,5.86585366 C0.96034298,5.86585366 0,4.92731707 0,3.78347561 L0,2.37567073 C0,1.23182927 0.96034298,0.293292683 2.13076099,0.293292683 L2.94105038,0.293292683 C4.11146838,0.293292683 5.07181136,1.23182927 5.07181136,2.37567073 L5.07181136,3.78347561 C5.07181136,4.92731707 4.11146838,5.86585366 2.94105038,5.86585366 L2.13076099,5.86585366 Z" fill="#009548"></path>
                        <path d="M3.09110397,0.293292683 C4.20150054,0.293292683 5.07181136,1.17317073 5.07181136,2.22902439 L5.07181136,3.63682927 C5.07181136,4.7220122 4.17148982,5.57256098 3.09110397,5.57256098 L2.28081458,5.57256098 C1.17041801,5.57256098 0.300107181,4.69268293 0.300107181,3.63682927 L0.300107181,2.22902439 C0.300107181,1.14384146 1.20042872,0.293292683 2.28081458,0.293292683 L3.09110397,0.293292683 Z M3.09110397,0 L2.28081458,0 C1.02036442,0 0,0.997195122 0,2.22902439 L0,3.63682927 C0,4.86865854 1.02036442,5.86585366 2.28081458,5.86585366 L3.09110397,5.86585366 C4.35155413,5.86585366 5.37191854,4.86865854 5.37191854,3.63682927 L5.37191854,2.22902439 C5.37191854,0.997195122 4.35155413,0 3.09110397,0 Z" fill="#006139"></path>
                    </g>
                    <path d="M15.7125009,0.744512195 C16.8289667,0.744512195 17.7040345,1.62439024 17.7040345,2.6802439 L17.7040345,4.08804878 C17.7040345,5.17323171 16.7987919,6.02378049 15.7125009,6.02378049 L14.8977827,6.02378049 C13.7813169,6.02378049 12.9062491,5.14390244 12.9062491,4.08804878 L12.9062491,2.6802439 C12.9062491,1.59506098 13.8114916,0.744512195 14.8977827,0.744512195 L15.7125009,0.744512195 Z M15.7125009,0.451219512 L14.8977827,0.451219512 C13.6304431,0.451219512 12.6045016,1.44841463 12.6045016,2.6802439 L12.6045016,4.08804878 C12.6045016,5.31987805 13.6304431,6.31707317 14.8977827,6.31707317 L15.7125009,6.31707317 C16.9798404,6.31707317 18.005782,5.31987805 18.005782,4.08804878 L18.005782,2.6802439 C18.0359567,1.44841463 17.0100152,0.451219512 15.7125009,0.451219512 Z" id="Shape" fill="#C7C6C5"></path>
                </g>
            </g>
        </g>
    </g>
</svg>