<?xml version="1.0" encoding="UTF-8"?>
<svg width="122px" height="126px" viewBox="0 0 122 126" version="1.1" xmlns="http://www.w3.org/2000/svg" xmlns:xlink="http://www.w3.org/1999/xlink">
    <!-- Generator: sketchtool 51.2 (57519) - http://www.bohemiancoding.com/sketch -->
    <title>B998278C-D757-48C5-B607-469FF70312B1</title>
    <desc>Created with sketchtool.</desc>
    <defs>
        <path d="M0.42,4.14640884 C0.42,1.94198895 2.205,0.157458564 4.41,0.157458564 L5.8275,0.157458564 C8.0325,0.157458564 9.8175,1.94198895 9.8175,4.14640884 L9.8175,6.66574586 C9.8175,8.87016575 8.0325,10.6546961 5.8275,10.6546961 L4.41,10.6546961 C2.205,10.6546961 0.42,8.87016575 0.42,6.66574586 L0.42,4.14640884 Z" id="path-1"></path>
    </defs>
    <g id="Page-1" stroke="none" stroke-width="1" fill="none" fill-rule="evenodd">
        <g id="Circuit_info_05" transform="translate(-1155.000000, -329.000000)">
            <g id="assets/circuits_info/107" transform="translate(1116.000000, 330.000000)">
                <g id="assets/circuits_info/assen" transform="translate(39.500000, -0.500000)">
                    <g id="trazado" transform="translate(8.000000, 13.500000)" fill="#B7B5B6" fill-rule="nonzero">
                        <path d="M9.59310345,104.7375 C6.85221675,104.7375 4.16403941,102.585 3.63694581,102.165 C3.10985222,101.7975 0.105418719,99.4875 0.105418719,95.655 C0.105418719,91.4025 2.7408867,87.6225 3.63694581,86.3625 C3.90049261,85.9425 4.32216749,85.4175 4.74384236,84.84 C5.69261084,83.58 6.85221675,82.0575 7.32660099,81.1125 L7.64285714,80.535 C8.43349754,79.065 9.38226601,77.2275 10.7,75.915 C11.8596059,74.7075 14.7059113,73.5 18.3428571,71.9775 C18.9753695,71.715 19.6078818,71.4525 20.1349754,71.2425 C21.8216749,70.5075 24.5625616,69.1425 26.9871921,67.935 C28.4103448,67.2 29.6226601,66.57 30.4660099,66.2025 C31.9945813,65.4675 33.7866995,65.205 35.6842365,64.9425 C36.791133,64.785 38.0034483,64.6275 39.1103448,64.3125 C42.1674877,63.525 44.4339901,62.895 47.1748768,61.005 C50.126601,58.9575 51.7605911,56.91 52.1295567,54.81 C52.5512315,52.605 52.762069,49.98 52.8674877,47.04 C52.920197,45.78 52.8674877,43.6275 52.8674877,41.5275 C52.8674877,39.4275 52.8674877,37.4325 52.8674877,36.3825 C52.920197,33.495 54.3960591,32.655 56.5571429,32.2875 C57.453202,32.13 57.6640394,31.71 58.0857143,30.6075 C58.1384236,30.45 58.191133,30.345 58.2438424,30.24 C58.8236453,28.875 59.8778325,27.195 60.9847291,25.83 C61.9334975,24.7275 64.2,22.8375 67.8369458,20.16 C70.1561576,18.48 89.5004926,2.52 89.6586207,2.3625 C90.1857143,1.89 92.18867,0.2625 93.7172414,0.2625 C95.6674877,0.2625 97.7231527,1.89 99.5152709,3.36 L100.042365,3.78 C101.676355,5.04 103.67931,6.4575 103.73202,6.51 L103.837438,6.615 C105.682266,8.2425 105.840394,10.92 105.893103,12.6525 C105.893103,12.9675 105.945813,13.2825 105.945813,13.4925 C106.15665,15.54 106.367488,17.115 106.578325,18.06 C106.894581,19.32 106.841872,20.685 106.841872,20.9475 C106.841872,22.3125 106.420197,23.52 105.524138,24.4125 C104.153695,25.7775 102.256158,25.9875 101.20197,25.9875 C100.516749,25.9875 99.8842365,25.8825 99.3044335,25.725 C97.1433498,25.095 94.7714286,23.415 94.2970443,20.9475 C93.8753695,18.9 94.9295567,17.1675 95.9837438,15.4875 C96.1418719,15.1725 96.3527094,14.91 96.5108374,14.595 C97.2487685,13.2825 96.9325123,12.285 96.7743842,12.1275 C96.6689655,12.075 96.5635468,12.0225 96.4581281,12.0225 C96.4054187,12.0225 96.0364532,12.075 95.1931034,13.1775 C93.7699507,15.0675 92.6103448,18.585 91.7142857,21.4725 C90.8182266,24.36 88.8152709,27.51 86.917734,30.555 C86.3906404,31.395 85.8635468,32.1825 85.3891626,33.0225 C83.1226601,36.6975 79.2221675,42.3675 77.8517241,44.2575 C77.0610837,45.3075 76.0596059,46.62 75.1108374,47.8275 C74.4256158,48.72 73.7403941,49.56 73.2133005,50.295 C72.844335,50.82 72.4753695,51.3975 72.0536946,52.0275 C71.1049261,53.4975 69.9453202,55.2825 68.0477833,57.015 C65.4123153,59.4825 60.1413793,62.2125 59.9305419,62.3175 C57.0315271,63.9975 55.7137931,64.89 54.6596059,66.7275 C53.7108374,68.355 53.8162562,74.025 53.8689655,77.0175 L53.8689655,77.8575 C53.9216749,81.5325 53.6054187,84.3675 51.7605911,86.205 C50.6536946,87.3075 48.7034483,87.8325 45.7517241,87.8325 C44.8029557,87.8325 43.7487685,87.78 42.5364532,87.675 C41.9566502,87.6225 41.3768473,87.57 40.6916256,87.57 C38.846798,87.57 36.791133,87.78 34.6300493,87.99 L33.6812808,88.095 C31.2039409,88.3575 28.2522167,88.3575 25.51133,88.3575 L22.9812808,88.3575 C19.8714286,88.3575 18.3955665,88.4625 17.28867,89.1975 C16.129064,89.985 15.6019704,93.5025 15.2330049,97.23 C14.7059113,102.585 12.6502463,103.8975 11.9123153,104.2125 C11.1216749,104.58 10.3837438,104.7375 9.59310345,104.7375 Z M93.7172414,2.73 C93.3482759,2.73 92.1359606,3.465 91.2926108,4.2525 C90.4492611,4.935 71.6847291,20.4225 69.3128079,22.155 C64.9906404,25.305 63.462069,26.7225 62.882266,27.405 C61.9334975,28.56 60.9847291,30.03 60.5103448,31.1325 C60.4576355,31.2375 60.4049261,31.3425 60.3522167,31.5 C59.9305419,32.6025 59.2453202,34.2825 56.9261084,34.7025 C55.5029557,34.965 55.3448276,35.07 55.2921182,36.435 C55.2921182,37.485 55.2921182,39.4275 55.2921182,41.475 C55.2921182,43.575 55.3448276,45.7275 55.2921182,47.04 C55.2394089,50.1375 54.9758621,52.8675 54.5541872,55.23 C54.0270936,58.0125 52.0768473,60.585 48.5453202,63 C45.4881773,65.1525 42.9054187,65.8875 39.6901478,66.675 C38.4778325,66.99 37.2128079,67.1475 36.053202,67.3575 C34.3137931,67.62 32.7325123,67.83 31.520197,68.4075 C30.7295567,68.775 29.464532,69.4575 28.0940887,70.14 C25.6167488,71.4 22.8758621,72.765 21.1364532,73.5525 C20.6093596,73.7625 19.9768473,74.025 19.2916256,74.34 C16.9197044,75.285 13.3881773,76.755 12.4921182,77.7 C11.437931,78.8025 10.5945813,80.43 9.85665025,81.795 L9.54039409,82.3725 C8.96059113,83.475 7.74827586,85.1025 6.74679803,86.415 C6.32512315,86.9925 5.95615764,87.465 5.69261084,87.8325 C4.84926108,89.04 2.63546798,92.2425 2.63546798,95.7075 C2.63546798,98.49 5.06009852,100.17 5.11280788,100.17 L5.2182266,100.275 C5.85073892,100.8525 7.90640394,102.27 9.59310345,102.27 C9.96206897,102.27 10.3310345,102.165 10.5945813,102.0075 L10.8054187,101.9025 C11.0689655,101.6925 12.1758621,100.695 12.5448276,97.02 C13.0719212,91.6125 13.7571429,88.4625 15.7073892,87.15 C17.4995074,85.995 19.6605911,85.89 22.7704433,85.89 L25.3004926,85.89 C27.98867,85.89 30.8349754,85.8375 33.2596059,85.6275 L34.2083744,85.5225 C36.4221675,85.3125 38.5305419,85.1025 40.5334975,85.1025 C41.3241379,85.1025 42.0093596,85.155 42.6418719,85.2075 C43.7487685,85.3125 44.7502463,85.365 45.5935961,85.365 C48.4399015,85.365 49.4413793,84.7875 49.8103448,84.4725 C51.0753695,83.2125 51.2334975,80.535 51.1807882,77.91 L51.1807882,77.07 C51.0753695,72.135 51.1280788,67.5675 52.2876847,65.4675 C53.6581281,63.105 55.2394089,62.0025 58.5600985,60.1125 C58.6655172,60.06 63.7783251,57.435 66.1502463,55.1775 C67.7842365,53.655 68.8384236,52.0275 69.7344828,50.6625 C70.1561576,49.98 70.5778325,49.35 70.9995074,48.7725 C71.5793103,48.0375 72.264532,47.145 72.9497537,46.2525 C73.8985222,45.045 74.9,43.785 75.6906404,42.735 C77.1137931,40.845 81.0142857,35.175 83.1226601,31.71 C83.5970443,30.9225 84.1241379,30.0825 84.7039409,29.2425 C86.5487685,26.355 88.4463054,23.3625 89.2369458,20.79 C90.2384236,17.535 91.4507389,13.9125 93.0847291,11.7075 C93.8226601,10.71 94.8768473,9.555 96.3527094,9.555 C96.9325123,9.555 97.4068966,9.7125 97.7231527,9.87 C98.4083744,10.185 98.935468,10.7625 99.1990148,11.6025 C99.6206897,12.915 99.4098522,14.4375 98.5665025,15.855 C98.355665,16.17 98.1975369,16.485 97.9866995,16.8 C97.0906404,18.27 96.4054187,19.425 96.6162562,20.475 C96.879803,21.84 98.4610837,22.9425 99.8842365,23.31 C100.200493,23.415 100.674877,23.4675 101.096552,23.4675 C102.203448,23.4675 103.099507,23.1525 103.626601,22.6275 C104.048276,22.2075 104.206404,21.6825 104.206404,20.9475 L104.206404,20.895 L104.206404,20.8425 C104.206404,20.8425 104.259113,19.6875 104.048276,18.6375 C103.784729,17.5875 103.573892,15.9075 103.363054,13.7025 C103.363054,13.44 103.310345,13.0725 103.310345,12.7575 C103.257635,11.34 103.152217,9.45 102.150739,8.505 C101.781773,8.2425 99.9369458,6.9825 98.4083744,5.7225 L97.8812808,5.3025 C96.6689655,4.2525 94.7714286,2.73 93.7172414,2.73 Z" id="Shape"></path>
                    </g>
                    <g id="PUNTOS_INTERMEDIOS_Y_SEMAFORO" transform="translate(0.000000, 6.500000)">
                        <g id="Group" transform="translate(0.000000, 7.372928)">
                            <path d="M10.71,80.0258867 L18.165,86.5773481 C18.375,86.7348066 18.375,87.0497238 18.2175,87.2071823 C18.06,87.4171271 17.745,87.4171271 17.5875,87.2596685 L10.7099531,81.2433982 C10.6993871,83.438767 8.91829155,85.2127072 6.6675,85.2127072 L3.99,85.2127072 C1.785,85.2127072 0,83.4281768 0,81.2237569 L0,78.5469613 C0,76.3425414 1.785,74.5055249 3.99,74.5055249 L6.6675,74.5055249 C8.8725,74.5055249 10.71,76.2900552 10.71,78.5469613 L10.71,80.0258867 Z" id="Combined-Shape" fill="#AC1737" fill-rule="nonzero"></path>
                            <path d="M74.9709299,8.96857716 L82.4259299,15.5200386 C82.6359299,15.6774971 82.6359299,15.9924143 82.4784299,16.1498728 C82.3209299,16.3598176 82.0059299,16.3598176 81.8484299,16.202359 L74.9708829,10.1860887 C74.960317,12.3814575 73.1792214,14.1553977 70.9284299,14.1553977 L68.2509299,14.1553977 C66.0459299,14.1553977 64.2609299,12.3708673 64.2609299,10.1664474 L64.2609299,7.48965183 C64.2609299,5.28523194 66.0459299,3.44821537 68.2509299,3.44821537 L70.9284299,3.44821537 C73.1334299,3.44821537 74.9709299,5.23274575 74.9709299,7.48965183 L74.9709299,8.96857716 Z" id="Combined-Shape-Copy" fill="#AC1737" fill-rule="nonzero" transform="translate(73.425814, 9.881406) scale(-1, 1) rotate(92.000000) translate(-73.425814, -9.881406) "></path>
                            <path d="M69.825,8.18532773 L69.825,4.17403315 L70.5366707,4.17403315 L70.5366707,7.58424689 L72.1992806,7.58424689 L72.1992806,8.18532773 L69.825,8.18532773 Z M72.960032,8.18532773 L72.960032,4.77511399 L71.8004996,4.77511399 L71.8004996,4.17403315 L74.8251,4.17403315 L74.8251,4.77511399 L73.6717027,4.77511399 L73.6717027,8.18532773 L72.960032,8.18532773 Z" id="LT" fill="#FFFFFF"></path>
                            <g transform="translate(2.625000, 77.654696)" fill="#FFFFFF" fill-rule="nonzero" id="Shape">
                                <path d="M0.315,0.524861878 C0.315,0.262430939 0.525,0.104972376 0.7875,0.104972376 C1.05,0.104972376 1.26,0.262430939 1.26,0.524861878 C1.26,0.787292818 1.05,0.944751381 0.7875,0.944751381 C0.4725,0.944751381 0.315,0.73480663 0.315,0.524861878 Z M0.3675,1.52209945 L1.155,1.52209945 L1.155,4.77624309 L0.3675,4.77624309 L0.3675,1.52209945 Z"></path>
                                <path d="M2.52,3.77900552 C2.7825,4.04143646 3.0975,4.25138122 3.5175,4.25138122 C3.99,4.25138122 4.305,3.98895028 4.305,3.62154696 C4.305,3.20165746 4.0425,2.88674033 3.045,2.88674033 L3.045,2.30939227 C3.885,2.30939227 4.1475,2.04696133 4.1475,1.62707182 C4.1475,1.25966851 3.885,1.04972376 3.5175,1.04972376 C3.2025,1.04972376 2.94,1.20718232 2.6775,1.46961326 L2.2575,0.997237569 C2.625,0.682320442 3.045,0.472375691 3.5175,0.472375691 C4.305,0.472375691 4.8825,0.892265193 4.8825,1.57458564 C4.8825,2.04696133 4.62,2.36187845 4.1475,2.5718232 L4.1475,2.62430939 C4.6725,2.78176796 5.04,3.09668508 5.04,3.67403315 C5.04,4.46132597 4.3575,4.88121547 3.57,4.88121547 C2.8875,4.88121547 2.415,4.61878453 2.1525,4.3038674 L2.52,3.77900552 Z"></path>
                            </g>
                        </g>
                        <g id="Group" transform="translate(65.600000, 25.718232)" fill="#AC1737" fill-rule="nonzero">
                            <path d="M0.1825,0.577348066 C-0.0275,0.73480663 -0.0275,1.04972376 0.13,1.20718232 L9.0025,11.0745856 C9.16,11.2320442 9.4225,11.2845304 9.6325,11.1270718 L16.51,4.88121547 C16.72,4.72375691 16.72,4.40883978 16.5625,4.25138122 C16.405,4.04143646 16.09,4.04143646 15.9325,4.19889503 L9.5275,9.97237569 C9.475,10.0248619 9.37,10.0248619 9.265,9.97237569 L0.8125,0.629834254 C0.655,0.419889503 0.34,0.419889503 0.1825,0.577348066 Z" id="Shape"></path>
                            <path d="M17.2975,3.20165746 C17.5075,3.14917127 17.7175,3.35911602 17.6125,3.56906077 L17.035,5.40607735 L16.4575,7.24309392 C16.405,7.45303867 16.1425,7.50552486 15.985,7.3480663 L14.6725,5.93093923 L13.36,4.51381215 C13.2025,4.35635359 13.3075,4.09392265 13.5175,4.04143646 L15.4075,3.62154696 L17.2975,3.20165746 Z" id="Shape"></path>
                        </g>
                        <g id="Group" transform="translate(19.950000, 15.220994)">
                            <path d="M0.2625,4.3038674 C0.2625,2.09944751 2.0475,0.314917127 4.2525,0.314917127 L28.2975,0.314917127 C30.5025,0.314917127 32.2875,2.09944751 32.2875,4.3038674 L32.2875,8.66022099 C32.2875,10.8646409 30.5025,12.6491713 28.2975,12.6491713 L4.2525,12.6491713 C2.0475,12.6491713 0.2625,10.8646409 0.2625,8.66022099 L0.2625,4.3038674 Z" id="Shape" fill="#7B7C7D" fill-rule="nonzero"></path>
                            <g transform="translate(21.525000, 1.049724)" fill-rule="nonzero" id="Shape">
                                <path d="M4.41,10.4447514 C2.3625,10.4447514 0.6825,8.76519337 0.6825,6.71823204 L0.6825,4.19889503 C0.6825,2.1519337 2.3625,0.472375691 4.41,0.472375691 L5.8275,0.472375691 C7.875,0.472375691 9.555,2.1519337 9.555,4.19889503 L9.555,6.71823204 C9.555,8.76519337 7.875,10.4447514 5.8275,10.4447514 L4.41,10.4447514 Z" fill="#FFFFFF"></path>
                                <path d="M5.8275,0.682320442 C7.77,0.682320442 9.2925,2.25690608 9.2925,4.14640884 L9.2925,6.66574586 C9.2925,8.60773481 7.7175,10.1298343 5.8275,10.1298343 L4.41,10.1298343 C2.4675,10.1298343 0.945,8.55524862 0.945,6.66574586 L0.945,4.14640884 C0.945,2.20441989 2.52,0.682320442 4.41,0.682320442 L5.8275,0.682320442 Z M5.8275,0.157458564 L4.41,0.157458564 C2.205,0.157458564 0.42,1.94198895 0.42,4.14640884 L0.42,6.66574586 C0.42,8.87016575 2.205,10.6546961 4.41,10.6546961 L5.8275,10.6546961 C8.0325,10.6546961 9.8175,8.87016575 9.8175,6.66574586 L9.8175,4.14640884 C9.87,1.94198895 8.0325,0.157458564 5.8275,0.157458564 Z" fill="#C7C6C5"></path>
                            </g>
                            <g id="Clipped" transform="translate(21.525000, 1.049724)">
                                <mask id="mask-2" fill="white">
                                    <use xlink:href="#path-1"></use>
                                </mask>
                                <g id="SVGID_11_"></g>
                                <g id="Group" mask="url(#mask-2)" fill="#1E1E1C" fill-rule="nonzero">
                                    <g transform="translate(-2.625000, 1.049724)" id="Rectangle-path">
                                        <rect x="0.2625" y="0" width="2.205" height="2.20441989"></rect>
                                        <rect x="2.415" y="2.1519337" width="2.205" height="2.20441989"></rect>
                                        <rect x="4.62" y="0" width="2.205" height="2.20441989"></rect>
                                        <rect x="6.825" y="2.1519337" width="2.205" height="2.20441989"></rect>
                                        <rect x="0.2625" y="4.35635359" width="2.205" height="2.20441989"></rect>
                                        <rect x="2.415" y="6.56077348" width="2.205" height="2.20441989"></rect>
                                        <rect x="4.62" y="4.35635359" width="2.205" height="2.20441989"></rect>
                                        <rect x="6.825" y="6.56077348" width="2.205" height="2.20441989"></rect>
                                        <rect x="9.03" y="0" width="2.205" height="2.20441989"></rect>
                                        <rect x="11.1825" y="2.1519337" width="2.205" height="2.20441989"></rect>
                                        <rect x="9.03" y="4.35635359" width="2.205" height="2.20441989"></rect>
                                        <rect x="11.1825" y="6.56077348" width="2.205" height="2.20441989"></rect>
                                    </g>
                                </g>
                            </g>
                            <g transform="translate(1.050000, 1.049724)" fill-rule="nonzero" id="Shape">
                                <path d="M4.1475,10.4447514 C2.1,10.4447514 0.42,8.76519337 0.42,6.71823204 L0.42,4.19889503 C0.42,2.1519337 2.1,0.472375691 4.1475,0.472375691 L5.565,0.472375691 C7.6125,0.472375691 9.2925,2.1519337 9.2925,4.19889503 L9.2925,6.71823204 C9.2925,8.76519337 7.6125,10.4447514 5.565,10.4447514 L4.1475,10.4447514 Z" fill="#C01724"></path>
                                <path d="M5.565,0.682320442 C7.5075,0.682320442 9.03,2.25690608 9.03,4.14640884 L9.03,6.66574586 C9.03,8.60773481 7.455,10.1298343 5.565,10.1298343 L4.1475,10.1298343 C2.205,10.1298343 0.6825,8.55524862 0.6825,6.66574586 L0.6825,4.14640884 C0.6825,2.20441989 2.2575,0.682320442 4.1475,0.682320442 L5.565,0.682320442 Z M5.565,0.157458564 L4.1475,0.157458564 C1.9425,0.157458564 0.1575,1.94198895 0.1575,4.14640884 L0.1575,6.66574586 C0.1575,8.87016575 1.9425,10.6546961 4.1475,10.6546961 L5.565,10.6546961 C7.77,10.6546961 9.555,8.87016575 9.555,6.66574586 L9.555,4.14640884 C9.555,1.94198895 7.77,0.157458564 5.565,0.157458564 Z" fill="#AA1920"></path>
                            </g>
                            <g transform="translate(11.550000, 1.049724)" fill-rule="nonzero" id="Shape">
                                <path d="M4.0425,10.4447514 C1.995,10.4447514 0.315,8.76519337 0.315,6.71823204 L0.315,4.19889503 C0.315,2.1519337 1.995,0.472375691 4.0425,0.472375691 L5.46,0.472375691 C7.5075,0.472375691 9.1875,2.1519337 9.1875,4.19889503 L9.1875,6.71823204 C9.1875,8.76519337 7.5075,10.4447514 5.46,10.4447514 L4.0425,10.4447514 Z" fill="#009548"></path>
                                <path d="M5.46,0.682320442 C7.4025,0.682320442 8.925,2.25690608 8.925,4.14640884 L8.925,6.66574586 C8.925,8.60773481 7.35,10.1298343 5.46,10.1298343 L4.0425,10.1298343 C2.1,10.1298343 0.5775,8.55524862 0.5775,6.66574586 L0.5775,4.14640884 C0.5775,2.20441989 2.1525,0.682320442 4.0425,0.682320442 L5.46,0.682320442 Z M5.46,0.157458564 L4.0425,0.157458564 C1.8375,0.157458564 0.0525,1.94198895 0.0525,4.14640884 L0.0525,6.66574586 C0.0525,8.87016575 1.8375,10.6546961 4.0425,10.6546961 L5.46,10.6546961 C7.665,10.6546961 9.45,8.87016575 9.45,6.66574586 L9.45,4.14640884 C9.45,1.94198895 7.665,0.157458564 5.46,0.157458564 Z" fill="#006139"></path>
                            </g>
                            <path d="M27.3525,1.7320442 C29.295,1.7320442 30.8175,3.30662983 30.8175,5.1961326 L30.8175,7.71546961 C30.8175,9.65745856 29.2425,11.179558 27.3525,11.179558 L25.935,11.179558 C23.9925,11.179558 22.47,9.60497238 22.47,7.71546961 L22.47,5.1961326 C22.47,3.25414365 24.045,1.7320442 25.935,1.7320442 L27.3525,1.7320442 Z M27.3525,1.20718232 L25.935,1.20718232 C23.73,1.20718232 21.945,2.99171271 21.945,5.1961326 L21.945,7.71546961 C21.945,9.9198895 23.73,11.7044199 25.935,11.7044199 L27.3525,11.7044199 C29.5575,11.7044199 31.3425,9.9198895 31.3425,7.71546961 L31.3425,5.1961326 C31.395,2.99171271 29.5575,1.20718232 27.3525,1.20718232 Z" id="Shape" fill="#C7C6C5" fill-rule="nonzero"></path>
                        </g>
                        <path d="M74.97,85.1850829 C74.97,85.4475138 74.76,85.6574586 74.4975,85.6574586 L57.1725,85.5 C56.91,85.5 56.7,85.2900552 56.7,85.0276243 C56.7,84.7651934 56.91,84.5552486 57.1725,84.5552486 L74.4975,84.7127072 C74.76,84.7127072 74.97,84.9226519 74.97,85.1850829 Z" id="Shape" fill="#AC1737" fill-rule="nonzero"></path>
                        <path d="M92.0325,64.1381215 C91.875,64.3480663 91.56,64.3480663 91.4025,64.1906077 L78.2775,52.8535912 C78.0675,52.6961326 78.0675,52.3812155 78.225,52.2237569 C78.3825,52.0138122 78.6975,52.0138122 78.855,52.1712707 L91.98,63.5082873 C92.19,63.6657459 92.19,63.9281768 92.0325,64.1381215 Z" id="Shape" fill="#AC1737" fill-rule="nonzero"></path>
                        <path d="M102.4275,35.6381215 C102.27,35.8480663 101.955,35.8480663 101.7975,35.6906077 L88.6725,24.3535912 C88.4625,24.1961326 88.4625,23.8812155 88.62,23.7237569 C88.7775,23.5138122 89.0925,23.5138122 89.25,23.6712707 L102.375,35.0082873 C102.585,35.1657459 102.585,35.4281768 102.4275,35.6381215 Z" id="Shape" fill="#AC1737" fill-rule="nonzero"></path>
                        <g id="Group" transform="translate(65.625000, 79.254144)" fill-rule="nonzero">
                            <path d="M0.2625,4.51381215 C0.2625,2.30939227 2.0475,0.472375691 4.2525,0.472375691 L6.8775,0.472375691 C9.0825,0.472375691 10.92,2.25690608 10.92,4.51381215 L10.92,7.19060773 C10.92,9.39502762 9.135,11.2320442 6.8775,11.2320442 L4.2525,11.2320442 C2.0475,11.2320442 0.2625,9.44751381 0.2625,7.19060773 L0.2625,4.51381215 Z" id="Shape" fill="#AC1737"></path>
                            <g transform="translate(3.150000, 3.149171)" fill="#FFFFFF" id="Shape">
                                <path d="M0.0525,0.787292818 C0.0525,0.524861878 0.2625,0.367403315 0.525,0.367403315 C0.7875,0.367403315 0.9975,0.524861878 0.9975,0.787292818 C0.9975,1.04972376 0.7875,1.20718232 0.525,1.20718232 C0.2625,1.20718232 0.0525,1.04972376 0.0525,0.787292818 Z M0.1575,1.78453039 L0.945,1.78453039 L0.945,5.03867403 L0.1575,5.03867403 L0.1575,1.78453039 Z"></path>
                                <path d="M1.995,4.61878453 C3.15,3.4640884 3.9375,2.72928177 3.9375,2.09944751 C3.9375,1.62707182 3.675,1.36464088 3.255,1.36464088 C2.94,1.36464088 2.6775,1.57458564 2.415,1.83701657 L1.995,1.41712707 C2.3625,0.997237569 2.7825,0.787292818 3.36,0.787292818 C4.1475,0.787292818 4.725,1.3121547 4.725,2.09944751 C4.725,2.83425414 4.0425,3.62154696 3.2025,4.51381215 C3.4125,4.51381215 3.7275,4.46132597 3.885,4.46132597 L4.935,4.46132597 L4.935,5.09116022 L2.0475,5.09116022 L2.0475,4.61878453 L1.995,4.61878453 Z"></path>
                            </g>
                        </g>
                        <g id="Group" transform="translate(84.525000, 54.585635)" fill-rule="nonzero">
                            <path d="M0.3675,3.98895028 C0.3675,1.78453039 2.1525,0 4.3575,0 L5.775,0 C7.98,0 9.765,1.78453039 9.765,3.98895028 L9.765,6.50828729 C9.765,8.71270718 7.98,10.4972376 5.775,10.4972376 L4.3575,10.4972376 C2.1525,10.4972376 0.3675,8.71270718 0.3675,6.50828729 L0.3675,3.98895028 Z" id="Shape" fill="#AC1737"></path>
                            <path d="M3.9375,6.29834254 C4.2525,6.61325967 4.6725,6.77071823 5.0925,6.77071823 C5.565,6.77071823 5.8275,6.56077348 5.8275,6.19337017 C5.8275,5.82596685 5.565,5.72099448 5.145,5.56353591 L4.5675,5.30110497 C4.1475,5.14364641 3.675,4.77624309 3.675,4.14640884 C3.675,3.4640884 4.305,2.93922652 5.145,2.93922652 C5.67,2.93922652 6.1425,3.14917127 6.51,3.51657459 L6.09,3.98895028 C5.8275,3.77900552 5.5125,3.62154696 5.145,3.62154696 C4.725,3.62154696 4.4625,3.83149171 4.4625,4.14640884 C4.4625,4.46132597 4.7775,4.61878453 5.145,4.77624309 L5.7225,5.03867403 C6.2475,5.24861878 6.615,5.56353591 6.615,6.19337017 C6.615,6.87569061 6.0375,7.50552486 5.04,7.50552486 C4.4625,7.50552486 3.885,7.29558011 3.465,6.87569061 L3.9375,6.29834254 Z" id="Shape" fill="#FFFFFF"></path>
                        </g>
                        <g id="Group" transform="translate(53.550000, 16.270718)" fill-rule="nonzero">
                            <path d="M0,4.14640884 C0,1.94198895 1.785,0.157458564 4.0425,0.157458564 L10.185,0.157458564 C12.39,0.157458564 14.175,1.94198895 14.175,4.14640884 L14.175,6.66574586 C14.175,8.87016575 12.39,10.6546961 10.185,10.6546961 L4.0425,10.6546961 C1.8375,10.6546961 0,8.87016575 0,6.66574586 L0,4.14640884 Z" id="Shape" fill="#AC1737"></path>
                            <g transform="translate(3.675000, 3.149171)" fill="#FFFFFF" id="Shape">
                                <polygon points="0.2625 0.104972376 2.8875 0.104972376 2.8875 0.73480663 1.05 0.73480663 1.05 1.94198895 2.625 1.94198895 2.625 2.62430939 1.05 2.62430939 1.05 4.46132597 0.2625 4.46132597"></polygon>
                                <polygon points="3.9375 0.104972376 4.725 0.104972376 4.725 3.83149171 6.51 3.83149171 6.51 4.46132597 3.9375 4.46132597"></polygon>
                            </g>
                        </g>
                        <g id="Group" transform="translate(85.050000, 20.994475)" fill-rule="nonzero">
                            <path d="M0.315,4.3038674 C0.315,2.09944751 2.1,0.314917127 4.3575,0.314917127 L6.405,0.314917127 C8.61,0.314917127 10.4475,2.09944751 10.4475,4.3038674 L10.4475,7.19060773 C10.4475,9.39502762 8.6625,11.2320442 6.405,11.2320442 L4.3575,11.2320442 C2.1525,11.2320442 0.315,9.44751381 0.315,7.19060773 L0.315,4.3038674 Z" id="Shape" fill="#AC1737"></path>
                            <g transform="translate(2.625000, 3.149171)" fill="#FFFFFF" id="Shape">
                                <path d="M0.3675,0.682320442 C0.3675,0.419889503 0.5775,0.262430939 0.84,0.262430939 C1.1025,0.262430939 1.3125,0.419889503 1.3125,0.682320442 C1.3125,0.944751381 1.1025,1.10220994 0.84,1.10220994 C0.525,1.10220994 0.3675,0.944751381 0.3675,0.682320442 Z M0.42,1.67955801 L1.2075,1.67955801 L1.2075,4.93370166 L0.42,4.93370166 L0.42,1.67955801 Z"></path>
                                <path d="M2.52,4.3038674 L3.465,4.3038674 L3.465,1.52209945 L2.6775,1.52209945 L2.6775,1.04972376 C3.0975,0.944751381 3.4125,0.839779006 3.675,0.682320442 L4.2525,0.682320442 L4.2525,4.3038674 L5.0925,4.3038674 L5.0925,4.93370166 L2.52,4.93370166 L2.52,4.3038674 Z"></path>
                            </g>
                        </g>
                        <g id="Group" transform="translate(102.375000, 0.000000)">
                            <path d="M1.575,0.0524861878 C1.575,0.314917127 1.4175,13.4889503 1.365,17.4254144" id="Shape" stroke="#AC1737" stroke-width="2" stroke-linecap="round" stroke-dasharray="2,4"></path>
                            <ellipse id="Oval" fill="#AC1737" fill-rule="nonzero" cx="1.365" cy="17.3729282" rx="1.2075" ry="1.20718232"></ellipse>
                        </g>
                    </g>
                    <g id="textos_y_numeros" transform="translate(1.500000, 0.000000)" fill="#7B7C7D" fill-rule="nonzero">
                        <path d="M94.6524229,12.3399582 L95.7052863,12.3399582 L95.7052863,9.241841 L94.8103524,9.241841 L94.8103524,8.7167364 C95.284141,8.61171548 95.6,8.50669456 95.915859,8.34916318 L96.5475771,8.34916318 L96.5475771,12.3399582 L97.4951542,12.3399582 L97.4951542,13.0225941 L94.6524229,13.0225941 L94.6524229,12.3399582 Z" id="Shape"></path>
                        <path d="M115.18326,19.4813808 C116.499339,18.2211297 117.34163,17.3809623 117.34163,16.6458159 C117.34163,16.1732218 117.078414,15.8056485 116.551982,15.8056485 C116.18348,15.8056485 115.867621,16.0682008 115.604405,16.3307531 L115.130617,15.858159 C115.551762,15.3855649 115.972907,15.1230126 116.657269,15.1230126 C117.552203,15.1230126 118.131278,15.7006276 118.131278,16.5933054 C118.131278,17.4334728 117.34163,18.2736402 116.394053,19.2713389 C116.657269,19.2713389 116.973128,19.2188285 117.1837,19.2188285 L118.34185,19.2188285 L118.34185,19.9539749 L115.130617,19.9539749 L115.130617,19.4813808 L115.18326,19.4813808 Z" id="Shape"></path>
                        <path d="M101.07489,3.5707113 C101.338106,3.8332636 101.706608,4.0958159 102.180396,4.0958159 C102.706828,4.0958159 103.07533,3.78075314 103.07533,3.20313808 C103.07533,2.62552301 102.706828,2.31046025 102.180396,2.31046025 C101.864537,2.31046025 101.706608,2.41548117 101.443392,2.57301255 L101.022247,2.31046025 L101.180176,1.99840144e-15 L103.707048,1.99840144e-15 L103.707048,0.735146444 L101.917181,0.735146444 L101.811894,1.89037657 C102.022467,1.78535565 102.180396,1.73284519 102.443612,1.73284519 C103.23326,1.73284519 103.917621,2.20543933 103.917621,3.20313808 C103.917621,4.25334728 103.127974,4.83096234 102.23304,4.83096234 C101.443392,4.83096234 100.969604,4.51589958 100.601101,4.20083682 L101.07489,3.5707113 Z" id="Shape"></path>
                        <path d="M116.18348,39.6453975 C116.446696,39.9604603 116.815198,40.1705021 117.288987,40.1705021 C117.815419,40.1705021 118.183921,39.9079498 118.183921,39.4353556 C118.183921,38.9627615 117.868062,38.6476987 116.815198,38.6476987 L116.815198,38.0175732 C117.762775,38.0175732 118.025991,37.7025105 118.025991,37.2824268 C118.025991,36.9148536 117.762775,36.6523013 117.34163,36.6523013 C116.973128,36.6523013 116.657269,36.8098326 116.394053,37.0723849 L115.972907,36.5472803 C116.394053,36.1797071 116.815198,35.9696653 117.394273,35.9696653 C118.289207,35.9696653 118.920925,36.389749 118.920925,37.2299163 C118.920925,37.7550209 118.605066,38.1225941 118.078634,38.332636 C118.657709,38.4901674 119.078855,38.8577406 119.078855,39.4878661 C119.078855,40.3280335 118.34185,40.8531381 117.446916,40.8531381 C116.657269,40.8531381 116.18348,40.5380753 115.867621,40.1705021 L116.18348,39.6453975 Z" id="Shape"></path>
                        <path d="M79.8070485,70.8366109 C79.6491189,70.626569 79.3332599,70.4690377 79.0700441,70.4690377 C78.4909692,70.4690377 78.0171806,70.8891213 77.9645374,72.2018828 C78.2277533,71.8343096 78.6488987,71.6242678 78.9647577,71.6242678 C79.8070485,71.6242678 80.3334802,72.0968619 80.3334802,73.0945607 C80.3334802,74.039749 79.6491189,74.617364 78.8594714,74.617364 C77.9118943,74.617364 77.1222467,73.8822176 77.1222467,72.3069038 C77.1222467,70.4690377 78.0171806,69.7338912 78.9647577,69.7338912 C79.5438326,69.7338912 79.964978,69.9964435 80.2281938,70.2589958 L79.8070485,70.8366109 Z M79.5964758,73.1470711 C79.5964758,72.5694561 79.3332599,72.3069038 78.8594714,72.3069038 C78.5962555,72.3069038 78.2803965,72.4644351 78.0171806,72.8320084 C78.122467,73.6721757 78.438326,74.039749 78.9121145,74.039749 C79.2806167,74.039749 79.5964758,73.7246862 79.5964758,73.1470711 Z" id="Shape"></path>
                        <path d="M67.0147577,80.0259414 L64.7511013,80.0259414 L64.7511013,79.290795 L67.9096916,79.290795 L67.9096916,79.8158996 C66.804185,81.1811715 66.5936123,82.1788703 66.5409692,84.0167364 L65.6460352,84.0167364 C65.7513216,82.3364017 66.1198238,81.2861925 67.0147577,80.0259414 Z" id="Shape"></path>
                        <path d="M62.3295154,101.607741 C61.9610132,101.345188 61.6977974,100.977615 61.6977974,100.45251 C61.6977974,99.6648536 62.3295154,99.1922594 63.119163,99.1922594 C63.9614537,99.1922594 64.4878855,99.717364 64.4878855,100.45251 C64.4878855,100.925105 64.1720264,101.292678 63.8561674,101.55523 L63.8561674,101.607741 C64.2773128,101.870293 64.6984581,102.185356 64.6984581,102.815481 C64.6984581,103.550628 64.0667401,104.075732 63.119163,104.075732 C62.1715859,104.075732 61.5398678,103.550628 61.5398678,102.762971 C61.4345815,102.237866 61.8557269,101.870293 62.3295154,101.607741 Z M63.0665198,103.498117 C63.5403084,103.498117 63.8561674,103.235565 63.8561674,102.815481 C63.8561674,102.290377 63.3823789,102.132845 62.6980176,101.870293 C62.3821586,102.080335 62.1715859,102.395397 62.1715859,102.762971 C62.2242291,103.183054 62.5927313,103.498117 63.0665198,103.498117 Z M63.7508811,100.557531 C63.7508811,100.137448 63.4876652,99.8223849 63.0665198,99.8223849 C62.6980176,99.8223849 62.4348018,100.084937 62.4348018,100.45251 C62.4348018,100.925105 62.8559471,101.135146 63.3823789,101.345188 C63.6455947,101.135146 63.7508811,100.872594 63.7508811,100.557531 Z" id="Shape"></path>
                        <path d="M24.9002203,109.169247 C25.0581498,109.379289 25.3740088,109.53682 25.6372247,109.53682 C26.2162996,109.53682 26.6900881,109.116736 26.7427313,107.803975 C26.4795154,108.119038 26.05837,108.329079 25.6898678,108.329079 C24.9002203,108.329079 24.3211454,107.856485 24.3211454,106.858787 C24.3211454,105.913598 25.0055066,105.335983 25.7951542,105.335983 C26.7427313,105.335983 27.4797357,106.07113 27.4797357,107.646444 C27.4797357,109.48431 26.5848018,110.219456 25.6372247,110.219456 C25.0581498,110.219456 24.6370044,109.956904 24.3737885,109.694351 L24.9002203,109.169247 Z M26.7953744,107.173849 C26.6900881,106.333682 26.3742291,105.966109 25.9004405,105.966109 C25.5319383,105.966109 25.2160793,106.281172 25.2160793,106.858787 C25.2160793,107.436402 25.4792952,107.698954 25.9530837,107.698954 C26.1636564,107.751464 26.5321586,107.593933 26.7953744,107.173849 Z" id="Shape"></path>
                        <g id="Group" transform="translate(16.845815, 120.248954)">
                            <path d="M0.157929515,4.30585774 L1.21079295,4.30585774 L1.21079295,1.20774059 L0.315859031,1.20774059 L0.315859031,0.682635983 C0.789647577,0.577615063 1.10550661,0.472594142 1.42136564,0.315062762 L2.0530837,0.315062762 L2.0530837,4.30585774 L3.00066079,4.30585774 L3.00066079,4.98849372 L0.157929515,4.98849372 L0.157929515,4.30585774 Z" id="Shape"></path>
                            <path d="M3.68502203,2.62552301 C3.68502203,1.05020921 4.31674009,0.210041841 5.26431718,0.210041841 C6.21189427,0.210041841 6.84361233,1.05020921 6.84361233,2.62552301 C6.84361233,4.20083682 6.21189427,5.09351464 5.26431718,5.09351464 C4.31674009,5.09351464 3.68502203,4.25334728 3.68502203,2.62552301 Z M6.10660793,2.62552301 C6.10660793,1.31276151 5.7907489,0.892677824 5.31696035,0.892677824 C4.84317181,0.892677824 4.52731278,1.31276151 4.52731278,2.62552301 C4.52731278,3.93828452 4.84317181,4.41087866 5.31696035,4.41087866 C5.73810573,4.41087866 6.10660793,3.99079498 6.10660793,2.62552301 Z" id="Shape"></path>
                        </g>
                        <g id="Group" transform="translate(0.000000, 113.422594)">
                            <path d="M0.368502203,4.30585774 L1.42136564,4.30585774 L1.42136564,1.20774059 L0.526431718,1.20774059 L0.526431718,0.682635983 C1.00022026,0.577615063 1.3160793,0.472594142 1.63193833,0.315062762 L2.26365639,0.315062762 L2.26365639,4.30585774 L3.21123348,4.30585774 L3.21123348,4.98849372 L0.368502203,4.98849372 L0.368502203,4.30585774 Z" id="Shape"></path>
                            <path d="M4.15881057,4.30585774 L5.21167401,4.30585774 L5.21167401,1.20774059 L4.31674009,1.20774059 L4.31674009,0.682635983 C4.79052863,0.577615063 5.10638767,0.472594142 5.4222467,0.315062762 L6.05396476,0.315062762 L6.05396476,4.30585774 L7.00154185,4.30585774 L7.00154185,4.98849372 L4.15881057,4.98849372 L4.15881057,4.30585774 Z" id="Shape"></path>
                        </g>
                        <g id="Group" transform="translate(10.528634, 81.916318)">
                            <path d="M0.0526431718,4.46338912 L1.10550661,4.46338912 L1.10550661,1.36527197 L0.210572687,1.36527197 L0.210572687,0.840167364 C0.684361233,0.735146444 1.00022026,0.630125523 1.3160793,0.472594142 L1.94779736,0.472594142 L1.94779736,4.46338912 L2.89537445,4.46338912 L2.89537445,5.1460251 L0.0526431718,5.1460251 L0.0526431718,4.46338912 Z" id="Shape"></path>
                            <path d="M3.63237885,4.67343096 C4.94845815,3.41317992 5.7907489,2.57301255 5.7907489,1.83786611 C5.7907489,1.36527197 5.52753304,0.997698745 5.00110132,0.997698745 C4.63259912,0.997698745 4.31674009,1.26025105 4.05352423,1.52280335 L3.57973568,1.05020921 C4.00088106,0.577615063 4.42202643,0.315062762 5.10638767,0.315062762 C6.00132159,0.315062762 6.58039648,0.892677824 6.58039648,1.78535565 C6.58039648,2.62552301 5.7907489,3.46569038 4.84317181,4.46338912 C5.10638767,4.46338912 5.4222467,4.41087866 5.63281938,4.41087866 L6.79096916,4.41087866 L6.79096916,5.1460251 L3.57973568,5.1460251 L3.57973568,4.67343096 L3.63237885,4.67343096 Z" id="Shape"></path>
                        </g>
                        <g id="Group" transform="translate(34.218062, 70.889121)">
                            <path d="M0.315859031,4.25334728 L1.36872247,4.25334728 L1.36872247,1.15523013 L0.473788546,1.15523013 L0.473788546,0.630125523 C0.947577093,0.525104603 1.26343612,0.420083682 1.57929515,0.262552301 L2.21101322,0.262552301 L2.21101322,4.25334728 L3.15859031,4.25334728 L3.15859031,4.93598326 L0.315859031,4.93598326 L0.315859031,4.25334728 Z" id="Shape"></path>
                            <path d="M4.15881057,3.8332636 C4.42202643,4.14832636 4.79052863,4.3583682 5.26431718,4.3583682 C5.7907489,4.3583682 6.1592511,4.0958159 6.1592511,3.62322176 C6.1592511,3.15062762 5.84339207,2.83556485 4.79052863,2.83556485 L4.79052863,2.20543933 C5.73810573,2.20543933 6.00132159,1.89037657 6.00132159,1.47029289 C6.00132159,1.10271967 5.73810573,0.840167364 5.31696035,0.840167364 C4.94845815,0.840167364 4.63259912,0.997698745 4.36938326,1.26025105 L3.94823789,0.735146444 C4.36938326,0.367573222 4.79052863,0.157531381 5.36960352,0.157531381 C6.26453744,0.157531381 6.89625551,0.577615063 6.89625551,1.41778243 C6.89625551,1.94288703 6.58039648,2.31046025 6.05396476,2.52050209 L6.05396476,2.57301255 C6.63303965,2.73054393 7.05418502,3.09811715 7.05418502,3.72824268 C7.05418502,4.56841004 6.31718062,5.09351464 5.4222467,5.09351464 C4.63259912,5.09351464 4.15881057,4.77845188 3.84295154,4.41087866 L4.15881057,3.8332636 Z" id="Shape"></path>
                        </g>
                        <g id="Group" transform="translate(49.484581, 65.112971)">
                            <path d="M0.421145374,4.41087866 L1.47400881,4.41087866 L1.47400881,1.31276151 L0.57907489,1.31276151 L0.57907489,0.787656904 C1.05286344,0.682635983 1.36872247,0.577615063 1.6845815,0.420083682 L2.31629956,0.420083682 L2.31629956,4.41087866 L3.26387665,4.41087866 L3.26387665,5.09351464 L0.421145374,5.09351464 L0.421145374,4.41087866 Z" id="Shape"></path>
                            <path d="M4.26409692,3.99079498 C4.52731278,4.25334728 4.89581498,4.51589958 5.36960352,4.51589958 C5.89603524,4.51589958 6.26453744,4.20083682 6.26453744,3.62322176 C6.26453744,3.04560669 5.89603524,2.73054393 5.36960352,2.73054393 C5.05374449,2.73054393 4.89581498,2.83556485 4.63259912,2.99309623 L4.21145374,2.73054393 L4.36938326,0.420083682 L6.89625551,0.420083682 L6.89625551,1.15523013 L5.10638767,1.15523013 L5.00110132,2.31046025 C5.21167401,2.20543933 5.36960352,2.15292887 5.63281938,2.15292887 C6.42246696,2.15292887 7.10682819,2.62552301 7.10682819,3.62322176 C7.10682819,4.67343096 6.31718062,5.25104603 5.4222467,5.25104603 C4.63259912,5.25104603 4.15881057,4.93598326 3.79030837,4.6209205 L4.26409692,3.99079498 Z" id="Shape"></path>
                        </g>
                        <g id="Group" transform="translate(51.590308, 43.058577)">
                            <path d="M0.210572687,4.25334728 L1.26343612,4.25334728 L1.26343612,1.15523013 L0.368502203,1.15523013 L0.368502203,0.630125523 C0.842290749,0.525104603 1.15814978,0.420083682 1.47400881,0.262552301 L2.10572687,0.262552301 L2.10572687,4.25334728 L3.05330396,4.25334728 L3.05330396,4.93598326 L0.210572687,4.93598326 L0.210572687,4.25334728 Z" id="Shape"></path>
                            <path d="M6.47511013,1.20774059 C6.31718062,0.997698745 6.00132159,0.840167364 5.73810573,0.840167364 C5.15903084,0.840167364 4.68524229,1.26025105 4.63259912,2.57301255 C4.89581498,2.20543933 5.31696035,1.99539749 5.63281938,1.99539749 C6.47511013,1.99539749 7.00154185,2.46799163 7.00154185,3.46569038 C7.00154185,4.41087866 6.31718062,4.98849372 5.52753304,4.98849372 C4.57995595,4.98849372 3.79030837,4.25334728 3.79030837,2.67803347 C3.79030837,0.840167364 4.68524229,0.105020921 5.63281938,0.105020921 C6.21189427,0.105020921 6.63303965,0.367573222 6.89625551,0.630125523 L6.47511013,1.20774059 Z M6.21189427,3.46569038 C6.21189427,2.88807531 5.94867841,2.62552301 5.47488987,2.62552301 C5.21167401,2.62552301 4.89581498,2.78305439 4.63259912,3.15062762 C4.73788546,3.99079498 5.05374449,4.3583682 5.52753304,4.3583682 C5.89603524,4.3583682 6.21189427,4.04330544 6.21189427,3.46569038 Z" id="Shape"></path>
                        </g>
                        <g id="Group" transform="translate(66.856828, 46.734310)">
                            <path d="M0.157929515,4.51589958 L1.21079295,4.51589958 L1.21079295,1.41778243 L0.315859031,1.41778243 L0.315859031,0.892677824 C0.789647577,0.787656904 1.10550661,0.682635983 1.42136564,0.525104603 L2.0530837,0.525104603 L2.0530837,4.51589958 L3.00066079,4.51589958 L3.00066079,5.19853556 L0.157929515,5.19853556 L0.157929515,4.51589958 Z" id="Shape"></path>
                            <path d="M5.94867841,1.20774059 L3.7376652,1.20774059 L3.7376652,0.472594142 L6.89625551,0.472594142 L6.89625551,0.997698745 C5.7907489,2.36297071 5.58017621,3.36066946 5.52753304,5.19853556 L4.63259912,5.19853556 C4.73788546,3.51820084 5.05374449,2.46799163 5.94867841,1.20774059 Z" id="Shape"></path>
                        </g>
                        <g id="Group" transform="translate(57.907489, 35.707113)">
                            <path d="M0.0526431718,4.41087866 L1.10550661,4.41087866 L1.10550661,1.31276151 L0.210572687,1.31276151 L0.210572687,0.787656904 C0.684361233,0.682635983 1.00022026,0.577615063 1.3160793,0.420083682 L1.94779736,0.420083682 L1.94779736,4.41087866 L2.89537445,4.41087866 L2.89537445,5.09351464 L0.0526431718,5.09351464 L0.0526431718,4.41087866 Z" id="Shape"></path>
                            <path d="M4.4746696,2.67803347 C4.1061674,2.41548117 3.84295154,2.04790795 3.84295154,1.52280335 C3.84295154,0.735146444 4.4746696,0.262552301 5.26431718,0.262552301 C6.10660793,0.262552301 6.63303965,0.787656904 6.63303965,1.52280335 C6.63303965,1.99539749 6.31718062,2.36297071 6.00132159,2.62552301 L6.00132159,2.67803347 C6.42246696,2.94058577 6.84361233,3.25564854 6.84361233,3.88577406 C6.84361233,4.6209205 6.21189427,5.1460251 5.26431718,5.1460251 C4.31674009,5.1460251 3.68502203,4.6209205 3.68502203,3.8332636 C3.63237885,3.308159 4.05352423,2.94058577 4.4746696,2.67803347 Z M5.26431718,4.56841004 C5.73810573,4.56841004 6.05396476,4.30585774 6.05396476,3.88577406 C6.05396476,3.36066946 5.58017621,3.20313808 4.89581498,2.94058577 C4.57995595,3.15062762 4.36938326,3.46569038 4.36938326,3.8332636 C4.36938326,4.25334728 4.79052863,4.56841004 5.26431718,4.56841004 Z M5.94867841,1.62782427 C5.94867841,1.20774059 5.68546256,0.892677824 5.26431718,0.892677824 C4.89581498,0.892677824 4.63259912,1.15523013 4.63259912,1.52280335 C4.63259912,1.99539749 5.05374449,2.20543933 5.58017621,2.41548117 C5.7907489,2.20543933 5.94867841,1.94288703 5.94867841,1.62782427 Z" id="Shape"></path>
                        </g>
                        <path d="M108.70815,33.7642259 L108.129075,33.7642259 L108.129075,34.9719665 L107.339427,34.9719665 L107.339427,33.7642259 L105.2337,33.7642259 L105.2337,33.1866109 L107.128855,30.2460251 L108.129075,30.2460251 L108.129075,33.08159 L108.70815,33.08159 L108.70815,33.7642259 Z M107.339427,33.08159 L107.339427,32.0313808 C107.339427,31.7688285 107.339427,31.3487448 107.39207,31.033682 L107.339427,31.033682 C107.234141,31.2962343 107.076211,31.5062762 106.970925,31.7688285 L106.128634,33.08159 L107.339427,33.08159 Z" id="Shape"></path>
                    </g>
                </g>
            </g>
        </g>
    </g>
</svg>