<?xml version="1.0" encoding="utf-8"?>
<!-- Generator: Adobe Illustrator 25.3.1, SVG Export Plug-In . SVG Version: 6.00 Build 0)  -->
<svg version="1.1" xmlns="http://www.w3.org/2000/svg" xmlns:xlink="http://www.w3.org/1999/xlink" x="0px" y="0px"
	 viewBox="0 0 1726 1052.2" style="enable-background:new 0 0 1726 1052.2;" xml:space="preserve">
<style type="text/css">
	.st0{display:none;}
	.st1{display:inline;fill:#892DC4;}
	.st2{fill:#B6B4B5;}
	.st3{fill:#7B7C7D;}
	.st4{fill:#AB1737;}
	.st5{fill:#7C7D7E;}
	.st6{fill:#7E7E7F;}
	.st7{fill:#7D7E7F;}
	.st8{fill:#7E7F80;}
	.st9{fill:#7C7C7D;}
	.st10{fill:#808182;}
	.st11{fill:#828384;}
	.st12{fill:#E7E7E8;}
	.st13{fill:#C6C5C4;}
	.st14{fill:#A91920;}
	.st15{fill:#006139;}
	.st16{fill:#FDFAFB;}
	.st17{fill:#FCF8F9;}
	.st18{fill:#FDFDFD;}
	.st19{fill:#FDFCFC;}
	.st20{fill:#F9F2F3;}
	.st21{fill:#F9F1F3;}
	.st22{fill:#FAF2F4;}
	.st23{fill:#FCF9FA;}
	.st24{fill:#FEFEFE;}
	.st25{fill:#FAF4F5;}
	.st26{fill:#FDFCFD;}
	.st27{fill:#7B7C7C;}
	.st28{fill:#FDFDFC;}
	.st29{fill:#1E1E1C;}
	.st30{fill:#1F1F1D;}
	.st31{fill:#292927;}
	.st32{fill:#20201E;}
	.st33{fill:#F8F8F7;}
	.st34{fill:#40403E;}
	.st35{fill:#282826;}
	.st36{fill:#E6E6E6;}
	.st37{fill:#EBEBEB;}
	.st38{fill:#BF1724;}
	.st39{fill:#009448;}
	.st40{fill:#F8F8F8;}
</style>
<g id="Layer_2" class="st0">
	<rect x="-286.9" y="-123.2" class="st1" width="2085.2" height="1387.8"/>
</g>
<g id="Layer_1">
	<path class="st2" d="M761,730.9c-7.5,2.4-13.9,7-20.7,10.7c-30.5,16.8-60.8,33.8-91.2,50.7c-37.8,21-75.6,42.1-113.4,63.1
		c-25.4,14.1-51,28-76.3,42.4c-19.8,11.3-39.6,22.5-60.4,32c-26.7,12.2-54.1,22.4-83,27.8c-31.6,5.8-63.2,5.8-94.1-4
		c-26.3-8.3-48.7-23.1-68.9-41.8c-27.5-25.3-43.8-56.8-54.6-92C89,789,82,757.6,77,725.7c-2.4-15.1-5.1-30.1-6.6-45.3
		c-2.4-23.8,0.5-47,10-69.2c6.4-14.9,14.6-28.6,26.2-39.7c14.5-13.9,32-23,51.8-27.5c22.5-5,44.2-1.5,65.6,5.5
		c10.9,3.6,21.6,7.8,32.2,12c3.1,1.2,7.3,4,9.6,1.3c2.2-2.4-0.2-6.7-1.9-9.7c-10.9-19.1-18.7-39.7-27-60c0.3-1.5,1.6-2,2.8-2.6
		c10-4.6,20.3-8.8,30.3-13.5c1.3-0.6,2.8-1.2,4.2-0.3c5.4,12.4,10.3,24.9,15.6,37.3c3.4,7.8,8.1,15,11.6,22.7
		c5.1,11.1,7.8,22.5,6,34.9c-2.7,18-19.3,32.9-37.5,33.7c-13.6,0.6-25.9-3.4-38.2-8.6c-14-5.9-28.3-11.1-43.5-12.7
		c-18.6-2-35.5,3.1-49,15.5c-21.8,20-30,46-27.1,75.1c2.9,29.5,7.9,58.8,14.1,87.8c5.9,27.2,13,54.1,24.8,79.5
		c4.5,9.6,10.4,18.2,17.1,26.3c14.3,17.3,30.9,31.7,51.3,41.4c16.3,7.7,33.6,11.2,51.7,12.1c30.2,1.4,58.4-6.4,86.1-17
		c27-10.3,52.5-23.5,77.5-38c26.1-15.1,52.6-29.5,79-44.1c29.1-16.1,58.2-32.5,87.3-48.6c32.1-17.7,64-35.7,96.2-53.3
		c15.2-8.3,30.2-17,45.4-25.2c1.6-0.2,2.4,1,3,2.2c4.5,9.6,10.4,18.5,14.5,28.3C760.8,727.6,761.7,729.1,761,730.9z"/>
	<path class="st2" d="M932.1,131c19.7-2.7,38.9-9.3,59.1-7.8c29.5,2.2,55.2,12.4,70.2,39.7c15.4,28.1,15,56.6-1.2,84.6
		c-9.4,16.3-23.5,27.1-40,35.6c-19.7,10.1-39.2,20.6-57.8,32.6c-9.8,6.3-17.3,15.1-25.8,22.7c-14.2,12.8-27.8,26.3-41.7,39.5
		c-2.4,2.3-3,5-2.7,8.2c0.3,3.1,1.9,4.4,5,3.9c4.8-0.8,9.3-2.6,13.7-4.5c47.5-19.6,94.7-39.9,143-57.8c25.1-9.3,50.2-18.7,76.9-22.4
		c24.9-3.5,50-5.7,75.1-4c30.2,2,58.4,12,86.1,23.6c31.3,13.1,59.7,31.6,89,48.4c49,28,96.3,58.7,143.3,89.9
		c1.4,0.9,2.6,2.2,4.5,1.8c0.8,1,0.1,1.9-0.5,2.7c-7.1,9.4-13.9,19.1-21.1,28.3c-0.9,1.1-1.7,2.6-3.6,2.2
		c-23.1-15.4-46.6-30.4-70-45.5c-38.1-24.5-77.3-47.3-116.5-69.9c-28.3-16.3-58.1-29-90-36.4c-16.6-3.9-33.5-4.6-50.6-3.6
		c-15,0.9-29.8,2.9-44.6,5c-19,2.7-36.6,9.9-54.4,16.3c-52.7,19-104,41.4-155.9,62.3c-10,4-20.6,5.9-31.4,4.6
		c-16.5-2-28.3-10.6-33.9-26.4c-5.4-15.1-5.2-30,2.3-44.6c1.4-2.7,3.1-5.1,5.3-7.2c20.1-20.4,41.3-39.6,61.9-59.6
		c10.8-10.5,24.1-17.7,37.2-25.1c14.9-8.4,30.1-16.5,45.1-24.7c21.2-11.5,29.8-34.5,20.5-56.1c-6.4-15-19.4-20.7-34.4-23
		c-7.1-1.1-14.3-0.4-21.3,0.9c-9.5,1.8-19.1,3.1-28.6,4.9c-1.3,0.2-2.6,0.5-4,0c-1.5-1.1-1.6-2.8-2-4.4c-2-9.8-4.5-19.4-6.5-29.2
		C931.3,134.8,930.4,132.8,932.1,131z"/>
	<path class="st2" d="M234.2,485.2c-9.6-23.6-18-47.6-20.8-73.1c-3.3-29.5-1.9-58.6,11.7-85.7c13.7-27.3,34-48.7,60.5-64
		c21.8-12.6,45.4-19.2,70.6-20.5c30.2-1.5,59.5,3.7,88.6,10.6c31.8,7.5,63.6,15.6,95.6,21.9c35.5,7,70.5,5.3,103.1-12.8
		c15.7-8.8,30.2-19.4,45.1-29.5c21.6-14.6,43.4-29.1,63.7-45.6c24.4-19.8,52.2-31.9,82.3-38.7c20.2-4.6,40.8-7.2,61.3-10.7
		c8.2-1.4,16.4-2.8,24.6-4c2-0.3,2.4-1.4,2.6-3c1.7,0.2,1.9,1.7,2.2,2.9c2.7,11.9,5.7,23.7,8,35.7c0.2,0.8,0.1,1.6-0.2,2.4
		c-4.9,3.4-10.8,3.1-16.2,4.1c-27.6,5.3-55.6,8.8-82.6,17.2c-21.4,6.6-41.3,15.7-58.7,30.1c-14.6,12.1-30.6,22.5-46.2,33.3
		c-19.2,13.3-38.2,26.8-58,39.1c-28.2,17.4-58.9,25.7-92.1,25.7c-22.2,0-43.7-3.1-65.2-8.3c-32.4-7.9-64.9-15.2-97.3-22.7
		c-23.5-5.4-47.4-7.3-71.4-4.1c-13.8,1.9-26.8,6.6-38.8,13.8c-23.5,14-40.7,33.2-49.1,59.5c-4.1,12.8-4.4,26.1-3.7,39.5
		c1.3,24.7,8.8,47.7,17.6,70.4c0,1.8-1.4,2.5-2.8,3.1c-9.8,4.5-19.8,8.7-29.7,12.9C237.5,485.4,235.9,486.2,234.2,485.2z"/>
	<path class="st2" d="M1534.7,469.9c8.5,6.4,17.1,12.6,25.4,19.3c26.9,21.5,46.3,48.2,55.1,81.7c4.8,18.1,2.8,36.4-2.4,54.1
		c-9.6,33-28.3,59.2-60.2,73.9c-31.9,14.7-64.7,14.7-97.4,2.2c-1.1-0.4-2.2-0.7-3.3-1.1c-2.2-5.3-0.7-9.3,4.4-11.7
		c1.6-0.7,3.7-0.7,4.2-3.4c-2.4-1-4.4,0.2-6.3,1.3c-1.7,1-3.3,2.1-5.2,0c-2.1-2.3-2.6-0.4-2.8,1.5c-0.3,2.9,1,6-1.5,8.5
		c-5.2-2.1-5.2-2.1-6.6,3c-1.6-1.1-1.4-2.9-1.6-4.5c-1-7.7-4.2-10.4-11.9-10.1c-1.3,0.1-2.7,0.5-3.8-0.6c0.4-0.7,0.8-1.4-0.2-2.1
		c-12-8.8-22.1-19.6-31.9-30.7c1.1-1.7,3-1.9,4.6-2.8c5.1-2.9,6.6-7.5,6.3-13.1c-0.3-5.2-2.2-9.3-7.1-11.6
		c-6.1-2.8-12.8-0.3-16.3,6.2c-0.8,1.4-0.9,3.2-2.5,4.2c-7.8-9-15.5-18.2-23.5-27.1c-14.4-16.1-28.4-32.6-43.4-48.1
		c-20.7-21.4-45.7-35.5-74.7-42.9c-35.7-9.2-69.8-3.7-103,10.5c-22.7,9.7-43.3,23.4-64.9,35.1c-26.8,14.5-53.2,29.5-79.8,44.3
		c-3.3,1.8-6.9,3.2-9.6,6.1c-1.7,0.2-2.3-1.2-2.8-2.3c-5-9.7-10.8-18.9-15.5-28.7c-0.5-1-1.1-2-0.6-3.3c7.5-5.5,16-9.5,24.1-14.1
		c25.6-14.3,51.2-28.5,76.8-42.6c21.6-11.9,42.4-25.3,65.5-34.1c19.5-7.4,39.5-12.9,60.5-14.4c52.4-3.7,98.5,11.9,138.9,44.9
		c14.3,11.7,26.5,25.7,38.9,39.4c12.2,13.6,24.4,27.3,36.5,41c4.1,4.6,8.7,8.7,11.9,14c1,10.3,0.1,20.5,0.5,30.8
		c0.1,2.1-1,5.7,1.9,5.8c3.1,0.1,1.9-3.6,2-5.6c0.3-3-0.1-6,0.2-8.9c0.6-4.6,2.5-6.3,7.5-6.9c2,0.5,3.3,2,4.8,3.3
		c1.9,2.6,1.3,5.7,1.4,8.6c0.1,1.8-0.1,3.6,0,5.4c0.1,1.6-0.5,4,1.5,4.2c2.3,0.1,1.5-2.4,1.6-3.9c0.2-1.6,0-3.3,0.6-4.9
		c1.2-2.1,2.4-0.7,3.5,0.1c2.1,1.5,3.8,3.4,5.8,5c2,2.4,4.4,4.3,7.2,5.7c27.9,19.8,57.8,26,89.9,11.5c20.8-9.4,32.2-27.1,38.1-48.6
		c1.6-5.8,2.8-11.6,3-17.7c0.6-19.8-8.4-36-19.6-51.1c-10.6-14.3-24.7-25.1-39.2-35.2c-3.1-2.2-6.5-4-9-7c-0.7-1.9,0.5-3.2,1.4-4.5
		c6.2-8.7,12.5-17.2,19-25.7C1532.1,471.2,1532.9,469.8,1534.7,469.9z"/>
	<path class="st2" d="M967.9,616c-4.3,0.6-7.5,3.3-11.1,5.3c-27.5,15.2-54.9,30.6-82.3,45.9c-33.7,18.7-67.4,37.4-101.1,56.1
		c-1.7,1-3.5,1.8-5.3,2.7c-2,0.3-2.5-1.4-3.1-2.6c-5.1-9.8-9.9-19.7-14.9-29.6c-0.3-0.6-0.3-1.3-0.2-1.9
		c17.6-10.2,35.4-19.8,53.2-29.7c43.2-24.1,86.5-48,129.7-72.2c5.3-3,10.4-6.7,16.4-8.3c2.3,0.5,3,2.5,3.9,4.2
		c4.7,8.5,9.3,17.1,14,25.5C967.8,612.7,968.8,614.2,967.9,616z"/>
	<path class="st3" d="M863.3,847.8c31.2,0,62.3,0.4,93.4-0.2c19.5-0.4,34.6,15.7,33.5,33.6c-0.7,11-0.1,22-0.1,33
		c-0.1,17.8-13.8,31.7-31.7,31.7c-63.6,0.1-127.3,0.1-190.9,0c-17.9,0-31.6-13.9-31.6-31.8c-0.1-11.5,0-23,0-34.5
		c0.1-18.2,13.6-31.8,32-31.8C799.7,847.7,831.5,847.8,863.3,847.8z"/>
	<path class="st4" d="M807,827.5c-8,0-16,0.1-24,0c-18.5-0.2-32.1-13.9-32.1-32.3c0-6.5,0-13,0-19.5c0.1-17.1,13.2-31.1,30.3-31.5
		c17.5-0.4,35-0.4,52.5,0c15.4,0.4,28.3,12.7,29.5,28.1c0.7,8.8,0.8,17.7,0.1,26.5c-1.3,16.7-14.5,28.6-31.3,28.8
		C823.6,827.6,815.3,827.5,807,827.5z"/>
	<path class="st4" d="M932.6,171.2c-3.1-13.7-6.3-27.4-9.4-41.1c-2.6-11.7-5.4-23.3-7.7-35c-0.8-3.8-3.1-3.2-5.5-3.1
		c-12.4,0.5-22.5-3.8-29.6-14.2c-3.6-5.2-5.4-11-5.4-17.3c0-7.5-0.1-15,0-22.5c0.1-17.6,14.2-31.6,31.8-31.7c7,0,14,0,21,0
		c16.5,0.1,30.3,12,31.8,28.6c0.9,10.2,1.4,20.7-0.4,30.9c-2.7,15.4-15.6,26.1-31.3,26.2c-3.8,0-5.1,0.4-4,4.8
		c3.1,11.4,5.5,22.9,8.2,34.4c2.4,13.2,5.6,26.1,8.8,39.1c1.5,1,1.8,2.7,2.2,4.3c2.2,8.5,3.9,17.1,5.9,25.7c0.4,1.6,0.5,3.3,0,4.9
		c-0.6,2.1-1.9,3.5-4.1,3.9c-2.2,0.4-4.3-0.6-4.9-2.6C936.5,194.8,932.6,183.4,932.6,171.2z"/>
	<path class="st4" d="M234.2,485.2c12.5-4.8,24.7-10.4,36.9-15.9c0.9-2.1,2.9-2.6,4.7-3.4c6.6-2.9,13.1-5.8,19.7-8.4
		c3.9-1.5,5.4-3.9,5.1-8c-0.2-2.3,0-4.7,0-7c0-21.8,13.1-35.7,34.9-36.7c8.1-0.4,16.3-0.5,24.4,0.7c14.4,2.1,25.4,12.4,28.1,26.6
		c2.2,11.3,1.5,22.6,0,33.7c-2,14.9-15.1,25.7-30,26.6c-9.8,0.6-19.5,1.7-29.3-0.1c-12.8-2.3-21.4-9.7-25.8-21.6
		c-1.5-3.9-2.8-4.9-6.7-3.1c-5.6,2.6-11.3,5-17,7.3c-1.7,0.7-3.2,1.9-5.2,1c-12.3,5.4-24.7,10.7-37,16.1
		c-8.9,3.8-17.8,7.6-26.7,11.5c-2.7,1.2-5.6,2.3-7.2-1.2c-1.6-3.6,1.3-4.9,4-6.1C216.2,493.3,225.2,489.2,234.2,485.2z"/>
	<path class="st4" d="M1534.7,469.9c-7.9,10.7-15.8,21.4-23.8,32.1c-0.2,0.6,0.3-0.1,0,0.5c-6.9,11.8-15.4,22.4-24,32.9
		c-1.5,1.8-3.8,2.1-5.9,0.5c-2.1-1.6-2.5-3.8-1.5-6.2c0.5-1.2,1.3-2.3,2.1-3.4c6.3-8.6,12.9-16.9,19-25.6c0.9-1.2,1.7-2.5,3.4-2.6
		c8.2-11,16.4-22,24.6-33c5.5-7.3,10.8-14.7,16.4-22c1.7-2.2,2.3-3.9,0.6-6.6c-2.6-3.9-3.7-8.4-4-13.2c-0.4-9.1-0.7-18.3,0-27.4
		c1.3-15.7,11.6-27.2,27.2-29.2c9-1.2,18.3-1.3,27.3,0.3c15.3,2.7,25.8,15.5,25.8,30.9c0,8,0.1,16,0,24c-0.2,17-14.1,31-31.2,31.2
		c-5,0.1-10-0.1-15,0c-7.6,0.3-14.5-1.4-20.7-5.9c-1.8-1.3-2.9-1.5-4.4,0.6C1545.5,455.2,1540.1,462.5,1534.7,469.9z"/>
	<path class="st4" d="M967.9,616c-6.2-11.4-12.5-22.7-18.7-34.1c-5.1-5.2-7.3-12.1-11.1-18.1c-2.2-3.5-3.9-7.3-5.6-11.1
		c-1.2-4.3-1.3-8.7-0.2-13c2.8-2.7,4.1-0.2,5.2,1.7c2.3,3.8,4.6,7.6,6.4,11.6c0.3,0.7,0.7,1.3,1,2c3.1,5.7,6.3,11.3,9.4,17
		c1,1.8,2.5,3.6,2,6c6.2,11.3,12.4,22.7,18.7,34c7.1,13.2,14.3,26.3,21.3,39.5c1.2,2.2,2.3,2.1,4.3,1.4c9.7-3.4,19.9-2.9,29.6-1.2
		c14.4,2.6,24.2,15,24.8,29.8c0.3,7.3,0.3,14.7,0,22c-0.7,17.8-14.3,30.7-32.2,30.6c-6.3,0-12.7,0.8-18.9-0.9
		c-14-3.8-23.6-15.9-23.8-30.3c-0.1-6.8-0.1-13.7,0-20.5c0.1-8.3,2.8-15.7,8.7-21.7c1.8-1.9,2.1-3.2,0.8-5.5
		C982.2,642.2,975.1,629.1,967.9,616z"/>
	<path class="st4" d="M750.4,691.9c5.9,11.4,11.8,22.7,17.7,34.1c1.8,3.7,3.5,7.5,5.3,11.2c1.2,2.5,2,5-1,6.4
		c-3,1.5-4.9-0.4-6.3-3.1c-1.6-3.3-3.4-6.5-5.1-9.7c-5.9-11.7-11.8-23.3-17.7-35c-2.1-0.8-2.7-2.9-3.5-4.6
		c-6.7-13.2-13.2-26.5-20.1-39.6c-2.8-5.4-1.9-7.8,3.9-10.7c13.8-7,27.7-13.9,41.5-20.8c5.3-2.6,5.3-2.7,2.5-7.8
		c-0.6-1-1.2-2-1.6-3.1c-1.2-3.7,0.1-6.5,3.9-6.2c9.3,0.8,18.6,0.1,27.9,1.5c4.9,0.8,6,3.2,3.4,7.4c-4.5,7.2-8.6,14.6-13.6,21.5
		c-3.6,5-6.6,4.8-9.7-0.7c-3.4-6-3.4-6-9.7-2.8c-11,5.5-22.1,11-33.1,16.5c-4.9,2.5-5,3-2.6,8.1c5.2,10.6,10.8,21,16.2,31.5
		C749.7,687.8,751.3,689.5,750.4,691.9z"/>
	<path class="st5" d="M8.9,266.5c0-5.3,0.1-10.7,0-16c-0.1-2.4,0.4-3.6,3.2-3.6c2.9,0,3.9,1.1,3.6,3.8c0,0.3,0,0.7,0,1
		c0.1,11.4,0.1,11.3,11.7,10.7c2.5-0.1,3.7-0.8,3.5-3.5c-0.2-2.7,0-5.3-0.1-8c-0.1-2.4,0-4.1,3.3-4.1c3.3,0,3.8,1.2,3.8,4.1
		c-0.1,10.2-0.1,20.3,0,30.5c0,2.9-0.6,4.2-3.8,4.2c-3.3,0-3.3-1.8-3.3-4.2c0.1-3.2-0.1-6.3,0.1-9.5c0.1-2.6-1-3.3-3.5-3.5
		c-11.7-0.6-11.7-0.7-11.7,11.2c0,1.2,0,2.3,0,3.5c-0.1,2.5-1.9,2.3-3.6,2.3c-1.9,0.1-3.2-0.3-3.2-2.7C9,277.5,8.9,272,8.9,266.5z"
		/>
	<path class="st5" d="M129.9,258.9c2.3-1,3.9-1.9,5.7-2.4c6-1.7,11,1.4,11.4,7.6c0.4,6.5,0.1,13,0.3,19.4c0.1,3-1.9,2.4-3.7,2.5
		c-2.1,0.1-3.4-0.3-3.4-2.9c0.2-5,0-10,0-15c0-3.1-0.6-6.1-4.4-5.8c-3.4,0.3-6.5,1.9-6.6,6.1c-0.1,4.8-0.1,9.6,0,14.5
		c0.1,2.4-0.8,3.2-3.1,3.2c-2.3-0.1-3.8-0.2-3.7-3.1c0.1-12,0.1-23.9,0-35.9c0-3,1.6-3.1,3.8-3.1c2.1,0,4-0.1,3.8,3
		C129.8,250.8,129.9,254.6,129.9,258.9z"/>
	<path class="st3" d="M1613.9,772.5c1.8-0.9,3-1.7,4.4-2.2c6.5-2.6,11.6,0.2,12.7,7.1c1,6.3,0.2,12.6,0.5,18.9
		c0.1,2.7-1.6,2.8-3.6,2.8c-2.3,0.1-3.9-0.2-3.8-3.1c0.2-5,0.1-10,0-15c0-2.9-0.7-5.6-4.3-5.3c-3.4,0.3-6.2,1.6-6.3,5.6
		c-0.1,4.7-0.1,9.3,0,14c0.1,2.7-0.6,3.9-3.6,3.9c-2.8,0-3.3-1.2-3.3-3.6c0.1-11.6,0.1-23.3,0-34.9c0-2.9,1-3.6,3.8-3.7
		c3.1-0.1,3.6,1.3,3.5,3.9C1613.8,764.5,1613.9,768.2,1613.9,772.5z"/>
	<path class="st5" d="M99.9,209.7c6.3-3.8,7.3-14.3,17.8-11.3c-2.1,2.5-3.8,5.2-6.1,7.2c-3.4,3-2.9,5.5-0.5,8.8
		c2.7,3.7,5,7.8,7.6,11.9c-5,1.5-8.5,0.7-10.3-4.1c-0.2-0.5-0.4-0.9-0.8-1.3c-1.6-1.8-1.9-5.9-4.3-5.2c-2.9,0.8-4.8,3.9-4.2,7.6
		c0.6,3.5-1.6,3.7-4.2,3.6c-2.9-0.1-2.5-2.1-2.5-3.9c0-11.3,0.1-22.7-0.1-34c0-3.1,1.2-3.9,4.1-3.9c3.1,0,3.5,1.4,3.5,4
		C99.9,195.8,99.9,202.6,99.9,209.7z"/>
	<path class="st3" d="M1503.1,798.8c-5.9,0.1-9.7-1.2-13.2-3.7c-1.1-0.8-2.9-1.6-1.3-3.5c1.1-1.4,2.3-2.3,4.2-0.9
		c2.9,2.2,6.3,2.9,9.9,2.5c2.1-0.3,3.8-1.2,4.4-3.5c0.6-2.5-0.5-4.2-2.7-5.3c-3-1.5-6-2.8-9-4.4c-5.5-2.8-8-7.1-7.1-11.9
		c1-5.1,5.5-8.8,11.6-9.3c4.2-0.3,7.9,1,11.3,3.2c1.3,0.8,2.7,1.6,1.3,3.5c-1.1,1.5-2,3-4.4,1.4c-2.1-1.5-4.5-2.2-7.1-2
		c-2.3,0.2-4.3,1-4.8,3.5c-0.5,2.4,1.1,3.8,2.9,4.7c2.4,1.2,4.9,2.1,7.3,3.2c7.1,3.2,9.8,7.5,8.6,13.3
		C1513.7,795.3,1508.6,798.8,1503.1,798.8z"/>
	<path class="st3" d="M1150.5,120.1c3.5-0.3,6.5,1.2,9.4,2.9c1.5,0.9,2.9,1.7,1.3,3.8c-1.2,1.6-2.2,2.8-4.4,1.2
		c-2.4-1.8-5.1-2.4-8-1.7c-1.9,0.4-3.4,1.4-3.7,3.5c-0.3,1.9,0.7,3.3,2.3,4.1c2.5,1.3,5.1,2.3,7.7,3.4c7.3,3.1,10.2,7.6,8.8,13.7
		c-1.2,5.2-7,9.1-13.6,8.9c-4.1-0.1-7.9-1.2-11.2-3.7c-1.1-0.8-3.5-1.3-1.8-3.7c1.3-1.7,2.6-2.3,4.6-0.8c2.7,2.1,5.9,2.9,9.4,2.5
		c2.3-0.3,4.2-1.2,4.7-3.7c0.5-2.5-0.6-4.2-2.8-5.3c-2.5-1.2-5.1-2.4-7.7-3.6c-6.7-3.1-9.6-7.8-8.2-13.1
		C1138.8,123.1,1143.5,120,1150.5,120.1z"/>
	<path class="st3" d="M1231.8,273.1c-3.8,0.1-7.3-1-10.3-3.1c-1.1-0.8-4.1-1.1-2.3-3.8c1.3-2,2.8-2.2,5-0.7c1.7,1.2,3.9,2,6,2.4
		c3.1,0.6,6.3-0.1,7.5-3.3c1.3-3.5-1.4-5.1-4-6.4c-2.7-1.3-5.4-2.5-8.1-3.9c-4.6-2.3-7.2-5.9-6.5-11.2c0.7-5.3,4.3-8,9.2-9.3
		c5-1.3,9.5,0.2,13.7,2.9c1.3,0.8,2.6,1.7,1,3.5c-1.2,1.3-1.8,3.2-4.3,1.3c-2.1-1.6-4.7-2.5-7.5-1.9c-1.9,0.4-3.9,0.9-4.3,3.5
		c-0.3,2.4,0.8,3.8,2.8,4.8c2.2,1.1,4.6,2,6.9,3c7.5,3.2,10.5,7.6,9.1,13.4C1244.3,269.8,1239.1,273.1,1231.8,273.1z"/>
	<path class="st3" d="M1196.2,254.5c6.2,3.5,7.8,6.2,6.8,11.6c-1.1,5.3-5,7.5-9.9,8.5c-4.8,0.9-9.2-0.1-13.2-3c-2-1.4-2.2-3-0.9-5.1
		c1.7-2.6,2.8-0.3,3.9,0.4c2.4,1.5,5,1.7,7.7,1.5c3-0.3,5-1.9,5.3-5c0.2-2.9-1.4-4.7-4.1-5.5c-1.3-0.4-2.6-0.7-3.9-0.8
		c-1.7-0.1-2.8-0.5-2.8-2.6c0-2.1,0.9-3.1,2.9-3.1c0.2,0,0.3-0.1,0.5-0.1c2.9-0.1,5.2-1.3,6.1-4.3c0.7-2-0.3-3.6-1.8-4.8
		c-2.6-2-5.3-1.2-8,0.1c-1.5,0.7-2.7,2.8-4.5,0.2c-1.3-1.8-1.8-3,0.5-4.4c5.2-3.2,10.7-3.9,16.2-1.3
		C1203.9,240.2,1203.6,248.4,1196.2,254.5z"/>
	<path class="st6" d="M1381.3,697.6c0-3.7,0-7.3,0-11c0-1.3-0.2-2.9,1.6-3.1c1.4-0.2,3.4-0.9,3.9,0.9c1.1,3.5,2.4,1.3,3.8,0.4
		c3.8-2.4,7.8-3,11.7-0.7c2.6,1.5,3.6,4.3,3.6,7.3c0.1,6,0,12,0.1,17.9c0,2.3-0.6,3.4-3.1,3.3c-2.3,0-3.8-0.4-3.8-3.2
		c0.1-5,0.1-10-0.1-14.9c-0.1-2.8-0.6-5.6-4.3-5.4c-3.5,0.1-6.1,1.8-6.2,5.7c-0.1,4.8-0.1,9.6,0,14.5c0.1,2.6-0.9,3.5-3.5,3.5
		c-2.7,0-4-0.7-3.9-3.7C1381.4,705.2,1381.3,701.4,1381.3,697.6z"/>
	<path class="st6" d="M1514.1,261.4c0,2.8-0.1,5.6,0,8.5c0.1,2.2,0,3.9-3,3.9c-2.7,0-3.9-0.8-3.8-3.7c0.1-5,0-10-0.1-14.9
		c-0.1-2.9-0.9-5.5-4.6-5.1c-3.2,0.3-5.9,1.6-6,5.4c-0.1,4.8-0.1,9.6,0,14.4c0.1,2.7-0.6,4-3.6,3.9c-2.8,0-3.8-0.9-3.8-3.8
		c0.1-7.5,0-14.9,0.1-22.4c0-1.1-0.2-2.5,1.3-2.9c1.4-0.4,3.4-1,4.1,0.5c1.3,2.8,2.4,1.5,4.1,0.6c8.7-5,15.2-1.3,15.3,8.7
		C1514.1,256.8,1514.1,259.1,1514.1,261.4z"/>
	<path class="st3" d="M1418.6,274c-9.3-0.1-15.2-4.3-17.8-11.7c-3.2-9-0.9-18.6,5.7-24.2c5.3-4.5,12.9-5.3,18.6-1.9
		c2.3,1.4,4.9,2.7,1.4,5.8c-1.7,1.5-2.6,0.6-3.8-0.2c-3.5-2.2-6.9-2.2-10.3,0.2c-6.7,4.7-7.2,18.4-0.9,23.6c3.7,3,7.8,3.2,11.5,0.4
		c2.5-1.9,3.6-1,5.1,0.9c1.9,2.5-0.5,3.2-1.7,4.2C1423.6,273.3,1420.4,273.9,1418.6,274z"/>
	<path class="st3" d="M1309.1,713c-13.4,0-21.4-13.8-16.1-27.6c4.2-10.8,16-15.5,24.6-9.7c1.2,0.8,3.9,1.4,2.2,3.9
		c-1.2,1.8-2.4,3.1-5.2,1.4c-5.7-3.4-11.6-1-14.1,5.2c-1.9,4.7-1.8,9.4,0.1,14.1c2.6,6.5,8.8,8.8,14.5,4.8c2.6-1.8,3.6-0.9,5.1,1
		c1.9,2.4-0.3,3.2-1.7,4.2C1315.7,712.3,1312.5,713.1,1309.1,713z"/>
	<path class="st5" d="M298.2,1031.3c3.9,0,7.4,0.1,10.9,0c2.5-0.1,3.7,0.7,3.6,3.4c-0.1,2.6-1.4,3-3.5,3c-6.3-0.1-12.7,0-19,0
		c-1.1,0-2.5,0.4-3.1-1c-0.6-1.5-0.1-2.8,1.1-4c3.5-3.5,7-7.1,10.5-10.7c2.1-2.2,3.9-4.6,4.9-7.5c1-3,1.1-6.1-1.6-8.2
		c-2.7-2.2-5.8-1.8-8.3,0.3c-2.3,1.9-4.2,2.6-5.9-0.3c-1.7-3,1.4-3.7,2.9-4.7c4.9-3.4,12.2-3.1,16.3,0.4c4,3.4,4.7,9.8,1.9,15.6
		C306.4,1022.6,301.9,1026.4,298.2,1031.3z"/>
	<path class="st5" d="M1691.8,784.3c0-3.7,0-7.3,0-11c0-1.2-0.4-2.9,1.5-3.1c1.4-0.1,3.3-0.8,4,1.1c0.9,2.4,1.9,1.3,3.3,0.5
		c9.2-5.3,15.3-2.1,15.9,8.4c0.3,5.3,0,10.6,0.2,16c0.1,3-1.7,3-3.9,3c-2.1,0-3.5-0.3-3.5-2.9c0.1-4.8,0-9.6,0-14.5
		c0-2.9-0.1-5.9-4.2-6.1c-3.5-0.2-6.5,2.7-6.5,6.5c-0.1,4.5-0.1,9,0,13.5c0.1,2.5-0.7,3.6-3.4,3.5c-2.5,0-3.6-0.7-3.5-3.4
		C1691.9,792,1691.8,788.1,1691.8,784.3z"/>
	<path class="st3" d="M1373.8,634.1c1.5-8.1,7.3-13.4,14.3-13.1c6.8,0.3,12.4,5.9,12.9,12.8c0.7,10.2-3,15.5-12.2,17.3
		C1379.5,652.4,1372.3,644.2,1373.8,634.1z"/>
	<path class="st3" d="M1304.8,258.9c0-3.7,0-7.3,0-11c0-1.2-0.6-2.9,1.3-3.3c1.6-0.3,3.7-0.9,4.3,1.2c0.9,2.9,1.8,1.1,2.9,0.4
		c8.5-5.4,14.9-2.5,16,7.5c0.6,5.6,0.2,11.3,0.4,16.9c0.1,3-1.7,3-3.9,3.1c-2.4,0.1-3.3-0.8-3.2-3.2c0.1-4.8,0.2-9.7,0-14.5
		c-0.1-3-0.6-6.4-4.8-6.1c-3.7,0.3-6.2,2.1-6.1,6.3c0.1,4.7-0.1,9.3,0.1,14c0.1,2.7-1.1,3.4-3.6,3.4c-2.5,0.1-3.6-0.7-3.5-3.4
		C1304.9,266.5,1304.8,262.7,1304.8,258.9z"/>
	<path class="st3" d="M1618.6,722c4.1,0,7.2,0,10.4,0c2.2,0,4.2-0.3,4.2,3.2c-0.1,3.2-1.9,2.9-4,2.9c-6,0-12,0-18,0
		c-1.3,0-3.2,0.8-3.8-1.3c-0.5-1.9,0.6-3.1,2-4.2c3.9-3.2,7.2-7,10.4-10.7c1.8-2,3.3-4.2,4.3-6.7c1.3-3.3,1.2-6.3-1.6-8.6
		c-2.8-2.2-5.6-1.2-8.3,0.4c-1.1,0.7-1.8,2.4-3.3,1.8c-1.1-0.5-2.2-1.6-2.8-2.7c-0.8-1.3,0.5-2.1,1.3-2.8c4.5-4.3,12.8-5,17.6-1.5
		c4.7,3.4,5.8,10.1,2.6,16.3C1627,712.9,1622.8,716.8,1618.6,722z"/>
	<path class="st3" d="M150.2,198.5c5.6-1.9,8,0.1,9.3,5.2c1.3,5,3.3,9.9,5.5,16.1c2-6.9,3.5-12.6,5.2-18.3c0.5-1.7,0.7-3.5,3.3-3.6
		c3.2-0.1,5.1,0,3.5,4.1c-3.5,9.2-6.4,18.5-9.9,27.7c-2.4,6.3-6.3,9.2-11.3,8.8c-1.2-0.1-3.5,0.4-3.3-1.9c0.1-1.5,0-3.3,2.9-3.7
		c4.8-0.5,6.6-4.1,4.8-8.7C157,215.8,153.6,207.3,150.2,198.5z"/>
	<path class="st5" d="M1577.1,785c0,3.5,0.1,7,0,10.5c0,1.2,0.7,3-1.2,3.4c-1.5,0.3-3.6,1.1-4.4-0.9c-0.9-2.3-1.6-1-2.8-0.3
		c-8.4,5.2-14.9,2.1-15.6-7.6c-0.4-5.6,0-11.3-0.1-17c-0.1-2.6,1.3-3,3.4-2.9c2.1,0,3.5,0.3,3.4,3c-0.1,5-0.1,10,0,15
		c0,3,0.6,6.1,4.5,5.8c3.5-0.2,5.8-2.2,5.8-6.1c0-4.8,0.1-9.7-0.1-14.5c-0.1-2.9,1.4-3.2,3.7-3.2c2.2,0,3.5,0.4,3.4,3
		C1577,777,1577.1,781,1577.1,785z"/>
	<path class="st5" d="M84.2,212.6c0,3.7,0,7.3,0,11c0,1.2,0.5,2.9-1.4,3.2c-1.4,0.2-3.2,0.8-4-1c-1.1-2.6-2.1-0.9-3.2-0.2
		c-8.1,4.7-14.2,1.9-15.1-7.4c-0.5-5.8-0.1-11.6-0.3-17.4c-0.1-2.8,1.5-2.7,3.5-2.8c2.3-0.1,3.3,0.6,3.3,3.1c-0.1,5,0,10,0,15
		c0,2.9,0.8,5.5,4.4,5.4c3.4-0.1,5.8-1.9,6-5.4c0.2-4.5,0.1-9,0.1-13.5c0-2.3-0.5-4.6,3.3-4.7c4.1-0.1,3.5,2.4,3.5,4.9
		C84.2,206,84.2,209.3,84.2,212.6z"/>
	<path class="st7" d="M274.7,1016.4c0,2.8,0,5.7,0,8.5c0,3.8-1.3,8.5,5.5,7.5c2.2-0.3,1.7,1.9,1.8,3.3c0.1,1.8-0.9,2.2-2.4,2.2
		c-6,0-12-0.1-18,0c-2.1,0-2.4-1.1-2.4-2.8c0-1.8,0.2-3.6,2.6-3.1c6.1,1.2,5.8-2.6,5.7-6.7c-0.2-4.5-0.1-9,0-13.5
		c0.1-2.7-0.3-4.6-3.7-4.2c-1.5,0.2-3.1,0.1-3.3-2.1c-0.2-1.9,1-2.5,2.6-3c13.2-4.5,11.8-3.8,11.7,8
		C274.7,1012.4,274.7,1014.4,274.7,1016.4z"/>
	<path class="st8" d="M31.2,207.4c0-4.8,0-9.7,0-14.5c0-2.6-0.4-4.9,3.6-4.8c3.7,0,4,1.8,4,4.6c-0.1,8,0.1,16-0.1,24
		c-0.1,3.3,1,4.5,4.3,4.2c2.6-0.2,5.3,0,8-0.1c2.2-0.1,3.4,0.4,3.4,3c0,2.5-1,3.1-3.3,3.1c-5.5-0.1-11-0.1-16.5,0
		c-2.8,0.1-3.4-1.1-3.3-3.6C31.3,218,31.2,212.7,31.2,207.4z"/>
	<path class="st3" d="M54.1,538.2c0,4,0.2,8-0.1,12c-0.2,3,0.7,4.3,3.9,3.9c2-0.3,4-0.3,3.9,2.9c-0.1,3-1.8,3-4,3
		c-5.2-0.1-10.3-0.1-15.5,0c-2.1,0-3.4-0.3-3.4-2.9c0-2.6,1.2-3.3,3.3-2.9c4.5,0.8,5.2-1.5,5-5.3c-0.3-5-0.2-10,0-15
		c0.1-3-0.7-4.3-3.9-3.9c-1.4,0.2-3,0.4-3.2-2c-0.2-2.2,1.1-2.7,2.8-3.3c11.2-4.1,11.2-4.1,11.2,7.6
		C54.1,534.2,54.1,536.2,54.1,538.2z"/>
	<path class="st3" d="M84.1,538.3c0,3,0.1,6,0,9c-0.1,3.9-0.7,8,5.5,6.7c1.8-0.4,2.2,1,2.1,2.5c-0.1,1.5,0.1,3.2-2.1,3.2
		c-6.1,0-12.3,0-18.4,0c-2.2,0-2.1-1.5-2.2-3.1c-0.1-1.8,0.4-3.1,2.5-2.7c5.9,1.3,5.9-2.3,5.7-6.5c-0.2-4.6-0.2-9.3,0-14
		c0.1-2.7-0.6-4-3.6-3.7c-1.5,0.2-3.4,0.5-3.5-2.2c-0.1-2.4,1.4-2.6,3-3.1c11-3.9,11-3.9,11,7.8C84.1,534.4,84.1,536.4,84.1,538.3z"
		/>
	<path class="st5" d="M1540.1,832.9c0-5.3,0.2-10.6-0.1-15.9c-0.1-3.4,1.9-3.1,4.2-3.2c2.4-0.1,3.7,0.4,3.7,3.2
		c-0.1,8.3,0.1,16.6-0.1,24.9c-0.1,3.2,0.8,4.5,4.2,4.2c2.6-0.2,5.3,0,8-0.1c2.4-0.1,3.8,0.4,3.8,3.2c0,2.7-1.5,2.9-3.5,2.8
		c-5.5-0.1-11-0.2-16.4,0c-2.9,0.1-3.7-1-3.6-3.8C1540.2,843.2,1540.1,838.1,1540.1,832.9z"/>
	<path class="st9" d="M1210.8,561.6c0,3.2,0.1,6.3,0,9.5c-0.1,3.6-0.7,7.3,5.1,6.4c2.1-0.4,2.2,1.4,2.3,3c0.1,2-0.8,2.6-2.7,2.6
		c-5.8-0.1-11.7-0.1-17.5,0c-1.9,0-2.7-0.7-2.7-2.6c0.1-1.8,0.3-3.6,2.7-3.2c5.9,1.1,6.4-2.2,6.1-6.8c-0.3-4.5-0.2-9,0-13.5
		c0.1-3-0.6-4.4-3.8-4c-1.3,0.2-3.1,0.7-3.4-1.7c-0.2-2.1,0.9-2.7,2.8-3.3c11.2-3.8,11.2-3.8,11.2,7.7
		C1210.8,557.6,1210.8,559.6,1210.8,561.6z"/>
	<path class="st5" d="M1596.7,799.9c-4.7-0.5-7.9-2.2-8.9-7c-0.9-4.1-0.3-8.3-0.5-12.4c-0.1-2.2,0.8-4.9-3-5
		c-1.6-0.1-1.3-1.6-1.4-2.7c0-1.2-0.1-2.6,1.6-2.6c3.6,0,3.4-2.6,3.4-4.8c0-2.7,1-3.3,3.6-3.4c2.9-0.1,3.4,1.4,3.1,3.7
		c-0.4,3.2,0.7,4.7,4.1,4.3c2.2-0.3,3.3,0.3,3.3,2.9c0,2.7-1.4,3.1-3.5,2.8c-3.6-0.5-4.2,1.5-4,4.4c0.2,2.5,0.1,5,0,7.5
		c-0.1,3.8,0,7.3,5.6,6.2c2-0.4,1.6,1.6,2,2.7c0.5,1.4,0,2.2-1.5,2.5C1599.2,799.3,1597.8,799.6,1596.7,799.9z"/>
	<path class="st3" d="M185.4,286.1c-2.9,0.3-5.7-0.4-8.2-1.8c-1.5-0.8-3.6-1.5-1.9-4.1c1.3-1.9,2.5-2.3,4.4-0.8
		c0.8,0.6,1.7,1.1,2.7,1.3c2.6,0.5,5.8,1.3,6.8-2.1c0.9-3.1-2.3-3.5-4.3-4.4c-1-0.5-2.2-0.8-3.2-1.3c-3.9-1.8-6.8-4.3-6.1-9.2
		c0.7-4.2,4.4-7.1,9.4-7.5c2.9-0.2,5.6,0.4,8.2,1.8c1.2,0.7,3.1,1.1,1.6,3.2c-0.9,1.2-1.4,3.3-3.7,1.7c-0.7-0.5-1.5-0.8-2.3-1
		c-2.3-0.4-5-1.3-6,1.8c-0.8,2.8,1.8,3.5,3.7,4.3c1.5,0.7,3.1,1.2,4.6,1.9c3.8,1.8,6.2,4.6,5.3,9.1c-0.9,4.7-4.1,6.6-8.5,7.1
		C187.1,286.2,186.3,286.1,185.4,286.1z"/>
	<path class="st3" d="M778.5,106.9c-4.2,0-8.5-0.1-12.7,0c-2.2,0.1-3.4-0.5-3.5-3c-0.1-2.5,1.1-3.1,3.3-3.1c6.3,0.1,12.6,0.1,18.9,0
		c4.2-0.1,4.3,2.5,2.5,4.7c-7.1,9-10.1,19.2-10.2,30.5c0,3.5-2.9,2.3-4.9,2.5c-2.5,0.2-2.4-1.3-2.3-3.2c0.5-8.6,2.7-16.6,7-24.1
		C777.5,110.1,778.9,109.1,778.5,106.9z"/>
	<path class="st5" d="M1262.5,274.1c-6.2,0.2-8.9-2.2-9.9-7c-0.8-3.8-0.2-7.6-0.4-11.4c-0.2-2.4,1.2-5.2-3.2-5.9
		c-1.5-0.2-2.1-4.1,0.8-4.7c3.3-0.7,3.4-2.6,3.4-5c0-2.4,0.8-3.7,3.5-3.7c2.9,0,3.3,1.7,3.1,3.9c-0.4,3.3,1,4.6,4.2,4.2
		c2.3-0.3,3.2,0.7,3.2,3.1c0,2.9-1.7,2.9-3.6,2.7c-3.6-0.5-4.7,1.1-4.4,4.5c0.2,2.5,0.1,5,0,7.5c-0.1,3.7,0.5,6.8,5.4,6.1
		c1.9-0.3,2.1,1.1,2.4,2.5c0.4,1.6-0.2,2.6-1.7,3C1263.9,274,1262.6,274.1,1262.5,274.1z"/>
	<path class="st5" d="M156.9,271.8c0-2.2,0-4.3,0-6.5c0-1.6,0-3.1-2.2-3.1c-1.7,0-2.3-0.9-2.3-2.5c0-1.4,0.1-2.8,2-2.8
		c2.7,0.1,2.7-1.8,2.9-3.7c0.2-2.3,0.2-4.6,3.8-4.5c3.6,0.1,3,2.3,2.9,4.4c-0.2,2.8,1.1,3.5,3.5,3.3c1.9-0.2,3.5-0.1,3.6,2.7
		c0.1,3-1.5,3.3-3.7,3c-3.3-0.4-3.9,1.4-3.7,4.2c0.2,2.6,0,5.3,0,8c0,3.8,0.2,7.3,5.7,6.1c2.1-0.5,1.5,1.7,2,2.7
		c0.9,1.8-0.3,2.5-1.8,2.7c-7.3,1.4-12.9-0.6-12.8-9.1C156.9,275.1,156.9,273.4,156.9,271.8z"/>
	<path class="st8" d="M1473.4,249c3-3.1,5.1-5.6,8.7-5.1c1.1,0.2,3.2-0.8,3,1.4c-0.2,1.7,0.5,4-2.5,4.7c-7,1.5-7.8,2.6-7.8,9.6
		c0,3.2-0.1,6.3,0,9.5c0.2,2.8-0.4,4.2-3.7,4.2c-3.1,0-4-1.1-3.9-4c0.2-6.8,0-13.6,0.1-20.4c0-1.9-0.6-4,2.6-4.4
		C1473.1,244,1473.1,246.2,1473.4,249z"/>
	<path class="st8" d="M1254.2,135.1c2.8-2.9,4.9-5.4,8.5-5c1.3,0.1,3.4-0.8,3.2,1.8c-0.2,1.6,0.1,3.6-2.4,4.3
		c-7.3,1.8-7.8,2.6-7.9,10c0,3.2-0.1,6.3,0,9.4c0.2,2.8-0.9,3.7-3.7,3.7c-2.8,0-3.8-0.9-3.7-3.7c0.2-7,0-13.9,0.1-20.9
		c0-1.8-0.4-3.7,2.5-3.8C1253.7,130.7,1254,132.3,1254.2,135.1z"/>
	<path class="st9" d="M1675.7,774.4c2.8-2.5,4.5-4.7,7.4-4.8c1.6-0.1,4.2-1.2,4.2,1.6c0,1.8,0.4,4.7-3.5,4.6c-4.5-0.1-6.8,3-6.9,7.5
		c-0.1,4-0.2,8,0,12c0.1,2.8-0.8,3.7-3.7,3.7c-3.1,0-3.5-1.4-3.4-3.9c0.1-6.8,0-13.6,0.1-20.4c0-1.5-1.3-3.8,1.6-4.4
		C1674.4,769.6,1675.6,771.1,1675.7,774.4z"/>
	<path class="st5" d="M1365.7,688.3c2.8-3.2,4.8-5.4,7.9-5.4c1.5,0,4.2-1.4,4,1.7c-0.1,1.8,0.2,4.4-3.3,4.4c-5-0.1-6.9,3.3-7.1,7.7
		c-0.2,3.5,0,7,0,10.5c0,2.3,0.9,5-3.4,5c-4,0-3.7-2.2-3.7-4.8c0.1-6.5-0.1-12.9,0.1-19.4c0-1.7-1.1-4.2,2.1-4.7
		C1365.2,683,1366.1,684.6,1365.7,688.3z"/>
	<path class="st7" d="M1374.3,248.5c2.3-2.8,4.7-5.1,8.4-4.6c1.1,0.1,3.3-0.6,2.8,1.5c-0.3,1.6,0.5,4-2.6,4.6
		c-6.6,1.1-7.9,3-7.9,9.5c0,3.3-0.1,6.6,0,10c0.1,2.3-0.2,3.7-3.1,3.6c-2.6-0.1-3.9-0.5-3.8-3.5c0.2-6.8,0-13.6,0.1-20.4
		c0-1.7-1.1-4.2,2-4.7C1373.4,243.8,1373.5,246.3,1374.3,248.5z"/>
	<path class="st5" d="M1558.2,248.9c3.3-2.8,5.2-5.4,8.6-4.9c1.2,0.2,3.5-1,3.3,1.6c-0.1,1.9,0.5,4.3-3.1,4.5
		c-5.2,0.3-7.1,2.8-7.2,8.1c-0.1,4-0.2,8,0,12c0.2,3.1-1.8,2.9-3.9,3c-2.3,0.1-3.3-0.6-3.2-3.1c0.1-7.2,0-14.3,0.1-21.5
		c0-1.6-0.9-3.8,2.1-4.2C1557.6,244.1,1558.4,245.5,1558.2,248.9z"/>
	<path class="st3" d="M1444.7,696.1c0.1-3.3,0.1-6.6,0.2-9.9c0-1-0.6-2.7,1.4-2.4c1.2,0.2,3.1-1.2,3.5,0.7c1,4.3,2.5,1.5,3.8,0.4
		c1.6-1.2,3.4-2.2,5.5-1.9c1.2,0.1,3.5-1,3,1.8c-0.3,1.6,0.5,3.6-2.3,4.3c-7.4,1.7-8,2.8-7.8,11c-0.1,2.8-0.3,5.7-0.1,8.5
		c0.2,2.9-0.9,3.7-3.7,3.7c-2.8,0-3.3-1.2-3.2-3.6C1445,704.5,1444.8,700.3,1444.7,696.1z"/>
	<path class="st7" d="M1176.8,145.5c0,3.7-0.1,7.3,0,11c0.1,2.6-0.8,3.5-3.4,3.5c-2.3-0.1-3.7-0.3-3.7-3.2c0.1-7.6,0.1-15.3,0-23
		c0-2.6,1.3-2.9,3.4-2.9c2.3,0,3.8,0.3,3.7,3.2C1176.7,137.9,1176.8,141.7,1176.8,145.5z"/>
	<path class="st7" d="M1270.1,145.2c0-3.8,0.1-7.6,0-11.4c-0.1-2.7,1.4-2.9,3.5-2.9c2,0,3.5,0,3.5,2.8c-0.1,7.8-0.1,15.6,0,23.4
		c0,2.7-1.3,2.9-3.4,2.9c-2,0-3.6-0.1-3.5-2.8C1270.2,153.2,1270.1,149.2,1270.1,145.2z"/>
	<path class="st10" d="M1172.7,126.1c-2.3-0.3-3.9-1.5-3.7-4.2c0.2-2.7,2-3.8,4.5-3.6c2.4,0.2,4.2,1.6,4,4.2
		C1177.2,124.9,1175.3,126.1,1172.7,126.1z"/>
	<path class="st11" d="M1273.8,126.1c-2.8-0.1-4.5-1.3-4.4-3.9c0-2.6,1.8-4,4.3-3.9c2.4,0.1,4.3,1.3,4.2,3.9
		C1277.8,124.8,1276,125.9,1273.8,126.1z"/>
	<path class="st8" d="M84.2,247.9c-0.1,2.7-1.6,4-4.1,4c-2.4-0.1-4.2-1.4-4.1-4c0.1-2.4,1.7-3.6,3.9-3.7
		C82.3,244.1,84.1,245.1,84.2,247.9z"/>
	<path class="st3" d="M1407.7,610.8c1.4-2.7,3.8-1.6,5.7-1.1c2.2,0.5,1.2,2.7,1.3,4.3c0.2,1.6-0.1,3.3,0.1,5
		c0.3,2.6,1.1,4.2,4.5,3.3c8.6-2.1,12.4,1.2,12.7,10.1c0.1,2.2,0,4.3,0,6.5c0,3.1-0.1,6.3-0.1,9.4c0,2.2-1.1,2.8-3.1,2.8
		c-2.1,0-2.9-0.8-3-2.9c-0.3-5.7,1-11.5-0.8-17.2c-0.9-1.1-1.8-2.3-3.1-3c-5.5,0.3-7,1.9-7.1,7.2c0,4.1-0.1,8.3,0,12.4
		c0.1,2.6-1,3.4-3.5,3.4c-2.5,0-3.5-0.8-3.5-3.5C1407.9,635.4,1407.8,623.1,1407.7,610.8z"/>
	<path class="st12" d="M1422,628c2.1-0.2,2.9,1.1,3.1,3C1423.6,630.5,1422.7,629.4,1422,628z"/>
	<path class="st13" d="M982.9,896.2c0,7.3,0.6,14.7-2.3,21.7c-5.8,13.7-16.5,20.5-31.2,20.8c-5.1,0.1-10.3-0.2-15.4-0.9
		c-13.7-1.8-25.9-16-26-30c-0.1-7.3,0-14.7,0-22c0.1-16.6,13.8-30.6,30.4-30.9c6.8-0.1,13.6-0.8,20.4,0.9
		c14.6,3.6,24.1,15.8,24.2,30.9C982.9,889.9,982.9,893,982.9,896.2z"/>
	<path class="st14" d="M818,896.4c-0.2,8.1,1,16.3-3.1,24c-6.4,12-16.1,18.2-29.8,17.8c-4.3-0.1-8.6,0.3-12.9-0.1
		c-17.2-1.7-29.1-14.8-29-32.2c0-8.3-0.8-16.6,0.7-24.9c2.7-15.1,14.9-25.7,30.3-26c6.3-0.1,12.6-0.8,18.9,0.7
		c15.3,3.6,24.9,15.6,24.9,31.2C818,890.1,818,893.2,818,896.4z"/>
	<path class="st15" d="M825.9,895.3c0.4-5-0.7-11.1,1-17.2c3.6-13,15.7-22.8,29.3-23.1c6-0.1,12.1-0.6,17.9,0.4
		c15.9,2.6,26.3,15.2,26.7,32c0.2,7.8,0.4,15.6-0.6,23.4c-2.4,17.8-17.1,28.1-34,27.9c-3.7-0.1-7.3-0.4-11-0.5
		c-15.8-0.6-28.9-13.8-29.4-29.7C825.8,904.4,825.9,900.4,825.9,895.3z"/>
	<path class="st16" d="M782,785.8c0-4.7,0.1-9.3,0-14c-0.1-2.5,0.5-3.6,3.2-3.5c5,0.2,10,0.1,15,0c2.1,0,2.9,0.6,2.9,2.8
		c0,2.4-1.2,2.7-3.1,2.6c-2-0.1-4,0.2-6-0.1c-4.3-0.6-5.9,0.8-5.6,5.3c0.2,3.3,1.2,4.4,4.3,4c1.8-0.2,3.7,0.1,5.5-0.1
		c2.2-0.2,2.9,0.8,2.8,2.9c0,2-0.8,2.5-2.7,2.6c-3.2,0.2-7.5-1.6-9.3,1.1c-1.5,2.2-0.6,6.1-0.4,9.3c0.1,2.8-0.3,4.2-3.7,4.1
		c-3.7,0-2.9-2.3-2.9-4.3C782,794.5,782,790.2,782,785.8z"/>
	<path class="st17" d="M811.4,785.5c0-4.5,0.1-9-0.1-13.5c-0.1-2.9,1-3.7,3.7-3.7c3.2-0.1,2.9,1.8,2.9,3.9c0,7.2,0.3,14.3-0.1,21.5
		c-0.2,4,1.2,4.9,4.8,4.5c2.3-0.3,4.7,0,7-0.1c2-0.1,2.5,0.9,2.5,2.7c0,1.8-0.5,2.8-2.5,2.7c-5.2-0.1-10.3-0.1-15.5,0
		c-2.3,0-2.8-1.1-2.8-3.1C811.5,795.5,811.4,790.5,811.4,785.5z"/>
	<path class="st18" d="M924.3,62.9c3.9,0,7,0.1,10.1,0c2.2-0.1,2.8,0.8,2.8,2.9c0,2.2-1.2,2.3-2.8,2.3c-5.5,0-11,0.1-16.5-0.1
		c-1.3,0-3.2,1-3.7-1.3c-0.3-1.7,0-3.2,1.4-4.5c2.8-2.6,5.4-5.4,8-8.2c1.8-2,3.5-4,4.6-6.5c1.3-2.8,1.5-5.6-1-7.7
		c-2.4-2-5.1-1.5-7.3,0.4c-2,1.7-3.6,2.3-5.1-0.2c-1.7-2.8,1.3-3.4,2.6-4.3c4.2-2.9,11.4-2.4,15,0.7c3.7,3.3,4.3,8.7,1.5,14.2
		C931.6,55,928,58.6,924.3,62.9z"/>
	<path class="st19" d="M905.2,54.8c0,3.3-0.1,6.6,0,9.9c0.1,2.2-0.5,3.3-3,3.3c-2.6,0-3.5-0.8-3.4-3.4c0.2-6.6,0.1-13.2,0-19.9
		c0-2.2,0.5-3.3,3-3.3c2.6,0,3.6,0.8,3.4,3.4C905,48.2,905.2,51.5,905.2,54.8z"/>
	<path class="st20" d="M906,33.7c-0.1,2.5-1.6,3.5-3.9,3.5c-2.1,0-3.6-1-3.8-3.1c-0.2-2.4,1.4-3.7,3.7-3.8
		C904.1,30.3,905.8,31.2,906,33.7z"/>
	<path class="st19" d="M356.5,451c5.2,2.2,7.4,5.5,6.5,10.5c-0.7,4.2-3.7,6.4-7.4,7.2c-5.1,1.1-10.3,0.9-14.5-3
		c-0.4-0.4-1.2-0.9-0.6-1.6c1.2-1.4,1.5-4.8,4.6-2.3c2.3,1.9,5,2.7,7.9,2c2.2-0.6,3.9-1.8,4.1-4.4c0.1-2.5-1.2-4.1-3.4-4.9
		c-1.4-0.5-2.9-0.7-4.4-0.8c-1.7-0.2-2.1-1.1-2.1-2.7c0-1.7,0.6-2.4,2.3-2.5c0.7,0,1.3-0.2,2-0.3c3.3-0.7,5.2-2.6,4.2-6
		c-1-3.5-4-3.7-6.9-2.8c-1.2,0.4-2.2,1.4-3.4,2c-2.1,1.2-2.4-1-3.4-1.9c-1.4-1.2-0.2-2,0.7-2.6c2.8-1.9,5.8-3.1,9.3-2.9
		c4.4,0.4,8.3,1.8,9.7,6.4C363,444.9,361.2,448.3,356.5,451z"/>
	<path class="st21" d="M332.9,455.1c0,3.3-0.1,6.6,0,10c0.1,2.4-0.5,3.7-3.3,3.6c-2.4-0.1-3.6-0.5-3.6-3.3c0.2-6.6,0.2-13.3,0-19.9
		c-0.1-2.7,1.1-3.3,3.5-3.3c2.7-0.1,3.4,1.1,3.3,3.5C332.8,448.8,332.9,451.9,332.9,455.1z"/>
	<path class="st22" d="M329.4,431.1c2.1,0.2,3.8,1,3.8,3.5c0,2.2-1.3,3.3-3.4,3.4c-2.3,0.1-4-0.7-4.1-3.2
		C325.5,432.4,327.1,431.3,329.4,431.1z"/>
	<path class="st23" d="M1594.5,409c0,2.8,0.1,5.7,0,8.5c-0.1,3.3-0.5,6.5,4.6,5.7c2-0.3,1.9,1.3,1.9,2.7c0,1.4-0.1,2.7-2,2.6
		c-5.5,0-11,0-16.5,0c-2.1,0-2.4-1.2-2.4-2.9c0-2.1,1-2.8,2.7-2.5c4.8,0.9,5.5-1.5,5.2-5.5c-0.3-4.1-0.2-8.3,0-12.5
		c0.1-2.7-0.2-4.6-3.7-4.1c-1.2,0.2-2.8,0.4-2.9-1.7c-0.1-1.7,0.9-2.1,2.3-2.7c10.4-4.2,10.8-3.9,10.8,7.2
		C1594.5,405.7,1594.5,407.4,1594.5,409z"/>
	<path class="st24" d="M1563.8,414.8c0-3,0.1-6,0-9c-0.1-2.4,0.1-4,3.3-3.9c2.9,0.1,3.1,1.4,3.1,3.7c-0.1,6.3-0.1,12.6,0,18.9
		c0,2.2-0.1,3.6-3.1,3.7c-3.2,0.1-3.4-1.4-3.3-3.9C1563.9,421.1,1563.8,417.9,1563.8,414.8z"/>
	<path class="st25" d="M1566.6,390.8c2.5,0,3.9,1.1,3.8,3.5c0,2.2-1.5,3.2-3.6,3.2c-2.2,0-3.9-0.8-4-3.3
		C1562.8,391.8,1564.4,390.9,1566.6,390.8z"/>
	<path class="st26" d="M1016.8,711c-3-0.1-6-0.7-8.5-2.4c-1.3-0.9-4.6-1-2.6-4.1c1.4-2.2,2.6-4.1,5.6-1.5c2.3,1.9,5.5,2.4,8.5,1.6
		c1.7-0.4,3.1-1.3,3.3-3.3c0.3-2-0.3-3.6-2.3-4.5c-2.9-1.3-5.8-2.5-8.6-3.9c-4-2.1-6.6-5.3-5.9-10c0.7-4.6,3.9-7.1,8.4-8.1
		c3.9-0.8,7.7-0.4,11,1.8c1.2,0.8,4.1,1.1,2.2,3.8c-1.2,1.8-2.4,2.9-4.8,1.2c-1.9-1.4-4.3-1.9-6.6-1.3c-1.7,0.4-3.1,1.2-3.5,3.1
		c-0.4,2,0.7,3.2,2.2,4.1c2,1.1,4.2,2,6.3,3c6.8,3.1,9.3,6.7,8.3,11.8C1028.6,707.7,1023.5,711.1,1016.8,711z"/>
	<path class="st3" d="M950.6,535.2c-0.9-9.7-7.4-12.8-15.7-7.7c-1.5,0.9-2.5,2.2-3.5-0.6c-0.6-1.7-2.7-0.9-4.1-0.8
		c-2,0.1-1.5,1.9-1.5,3.1c-0.1,7-0.1,14,0,21c0,1.6-1.2,4.1,1.4,4.6c2.3,0.5,5,1,6.4-2c-1.6-4.5-0.6-9.2-0.7-13.8
		c-0.1-4.6,2.3-7.8,6.2-7.6c4.4,0.2,4.7,3.7,4.6,6.9c-0.2,5.2,0.9,10.5-0.6,15.7c0,0,0,0,0,0c0.3,0.3,0.5,0.6,0.8,0.9
		c2.3-1,6.6,2.6,6.9-2.8C951,546.5,951.2,540.8,950.6,535.2z"/>
	<path class="st3" d="M117.7,287.2c-0.7-5-4.8-5.8-9-6c-2.8-0.1-5.7-0.1-8.5-0.3c-1.5-0.1-2.4-1.1-2.3-2.7c0.1-1.8,1.1-1.8,2.7-1.7
		c9.7,0.8,14.2-4.4,12-14.4c2.5-0.2,4.8,0.1,4.5-3.3c-0.3-3.4-2.8-2.2-4.5-2.3c-3.8-0.3-7.6-0.6-11.4-0.5
		c-6.8,0.2-11.9,6.6-9.6,12.6c1.4,3.6,2.9,6.6,0.2,10.2c-0.8,1-0.2,2.8,0.6,3.7c1.5,1.7,0.8,2.5-0.4,4c-3.7,4.7-2.2,9.3,3.7,11.1
		c5.4,1.6,10.9,1.2,16.1-1C115.9,294.9,118.4,291.8,117.7,287.2z M102.3,260.7c3.5-0.2,4.8,2.3,5.2,5.6c-0.2,3-1.3,5.6-4.8,5.6
		c-3.2,0.1-4.6-2.1-4.7-5.2C97.8,263.6,98.8,260.9,102.3,260.7z M103.4,294c-1.3,0-2.6-0.3-3.9-0.6c-1.8-0.5-2.7-1.7-2.4-3.7
		c0.3-2,1.4-2.9,3.4-2.8c1.2,0.1,2.3,0,3.8,0c2.2,0.6,6.5-1.4,6.6,2.6C111,293.5,106.8,294,103.4,294z"/>
	<path class="st3" d="M1315.9,612.1c-1.8,0-3.7,0.1-5.5,0c-2.7-0.3-3.4,1-3.3,3.5c0.1,5.3,0,10.6,0,15.9c0,2.3,0,4.6,0,7
		c0,13.5,0,13.5,13.6,12.6c6.9-0.4,12.6-4.4,14.3-11.1C1338.6,625.4,1335,612.2,1315.9,612.1z M1328.7,635.1
		c-1.2,6.7-7,11.4-12.9,10.6c-2-0.3-1.7-1.7-1.7-3c0-3.5,0-7,0-10.5c0-3,0.3-6-0.1-9c-0.5-5,1.8-5.6,5.9-4.7
		C1326.9,620.3,1330.3,626.4,1328.7,635.1z"/>
	<path class="st3" d="M1210.8,138.8c-1.3-4.7-4.3-7.8-9.3-8.5c-3.3-0.5-5.9,1.6-9.5,2.9c0-4.1-0.1-7.6,0-11.1c0.1-2.5-0.3-4-3.4-3.9
		c-3,0-3.5,1.3-3.5,3.9c0.1,11.1,0,22.3,0,33.4c0,5.5,0.5,5.9,5.9,3.4c1.6-0.7,2.1,0.3,2.9,0.8c4.5,2.4,8.8,2,12.5-1.4
		C1212.1,152.8,1212.7,146,1210.8,138.8z M1201.3,153.4c-2.2,2.3-4.8,1.6-7.3,0.3c-3.7-1.9-1.1-5.4-2-7.4c0.1-4-1.1-7.9,3.4-9.5
		c0.9-0.3,1.9-0.7,2.8-0.8c3-0.2,4.8,1.7,5.3,4.2C1204.5,144.9,1205.1,149.6,1201.3,153.4z"/>
	<path class="st3" d="M1659.5,830.1c-2.4-7-8.9-9.6-15.7-6.4c-1.6,0.8-2.8,2.6-5-0.2c-1.6-2.2-4.8,0-4.8,3.3c0,11,0.1,22-0.1,32.9
		c0,2.8,0.4,4.2,3.8,4.2c3.3,0,4-1.4,3.8-4.2c-0.2-3-0.3-5.9-0.5-9.3c10.5,4.4,17.6,0.5,19.4-10.4
		C1661.1,836.5,1660.6,833.3,1659.5,830.1z M1651.2,845.3c-1.8,2.3-4.3,2.1-6.8,1.3c-4.5-1.5-2.7-5.3-3.3-8.9
		c0.2-1.6-0.1-3.9,0.7-5.8c1-2.4,3.5-3.5,6.1-3.4c2.5,0.1,4.2,1.7,5,4.1C1654.3,837.1,1654.3,841.5,1651.2,845.3z"/>
	<path class="st3" d="M598.6,232c-2.9-2.1-0.5-3.2,0.5-4.7c4.2-6,2.2-13.1-4.4-15.5c-4.8-1.7-10.9-0.3-13.7,3.3
		c-2.9,3.7-2.8,8.4,0.8,13.2c1.1,1.5,1.6,2.4-0.1,3.6c-4.3,3.1-4.9,7.5-3,11.9c2.1,4.9,6.5,6.2,11.5,6.2c6.3,0,10.5-2.3,12.2-6.7
		C604.2,238.6,602.4,234.8,598.6,232z M592.3,245c-2.3,0.6-6.8-3.9-6.8-6.4c0.1-3.2,2-5,5.1-4.9c3.5,0.1,4.8,2.6,5.1,6
		C595.2,241.7,595,244.3,592.3,245z M592.3,227.8c-2.3,0.6-6.8-3.9-6.8-6.4c0.1-3.2,2-5,5.1-4.9c3.5,0.1,4.8,2.6,5.1,6
		C595.2,224.5,595,227.1,592.3,227.8z"/>
	<path class="st3" d="M1112.5,137.7c-3.3-4.7-9.4-5.1-16.3-0.9c0.4-10.2,4.1-13,12.9-10.1c2.2,0.7,2.6-0.9,3.5-1.8
		c1.4-1.4,0.4-2.3-0.7-3.2c-4.4-3.6-12.1-3.5-16.6,0.4c-7.3,6.3-8.7,23.8-2.4,31.3c4.4,5.2,11.8,6.3,17,2.4
		C1114.8,151.9,1116.2,143,1112.5,137.7z M1102.3,152.8c-3.2,0.1-6.7-4.5-6.3-8.3c0.3-3.7,3.4-4.7,6.3-5.1c3.4-0.4,5.7,2.6,5.6,7.3
		C1107.7,149.6,1106.5,152.6,1102.3,152.8z"/>
	<path class="st3" d="M247.5,222c-3.9-4.1-10-5-15.1-2.1c-4.8,2.7-6.9,9.4-5,15.4c1.5,4.7,6,7.3,11.4,6.8c2.4-0.2,4.2-1.8,6.8-2.8
		c-1.2,11.1-3.8,13.1-13.2,10.1c-2.5-0.8-3.2,1.3-4.3,2.5c-1.4,1.6,0.5,2.3,1.5,3c4.7,3.4,12.3,2.9,16.7-1.1
		C253.4,247.3,254.2,229.1,247.5,222z M246,231.8c-0.3,3.7-3,4.7-6,5.3c-4.3-0.3-6.1-2.7-6-6.6c0.1-3.6,1.3-6.7,5.6-6.8
		C242.9,223.5,246.3,227.9,246,231.8z"/>
	<path class="st3" d="M1533,769.3c-8.2-0.1-14.2,6.4-14.1,15.4c0.1,8.6,6.2,15.2,14,15.1c8-0.1,13.9-6.6,13.8-15.2
		C1546.7,775.8,1541,769.5,1533,769.3z M1538.9,788.5c-0.9,3.3-2.8,5.8-6.6,5.4c-3.8-0.4-5.3-2.9-5.6-6.5c-0.1-0.8,0-1.7,0-4
		c0,0.2,0-1.2,0.3-2.5c0.6-3.2,2.3-5.7,5.8-5.8c3.8-0.1,5.6,2.4,6.3,5.9C1539.5,783.5,1539.6,786,1538.9,788.5z"/>
	<path class="st3" d="M1581.6,822.8c-8.1,0-13.7,6.1-13.8,15c-0.1,8.9,5.5,15,13.6,15.2c8.1,0.1,14-6.1,14.2-14.7
		C1595.9,829.4,1589.9,822.8,1581.6,822.8z M1587,843.7c-1.1,2-2.6,3.3-5,3.4c-2.7,0.1-4.5-1.2-5.5-3.4c-0.8-1.6-1.2-3.5-1.3-5.2
		c-0.4-5.6,2.5-10,6.5-10c3.9-0.1,6.4,3.7,6.4,9.5C1588.1,839.9,1588,841.9,1587,843.7z"/>
	<path class="st3" d="M1355.2,621.1c-8-0.2-14.2,6.6-14.3,15.4c-0.1,8.4,5.6,14.5,13.7,14.6c8.4,0.1,14-5.7,14.1-14.6
		C1368.9,627.8,1363.2,621.3,1355.2,621.1z M1360.3,642.1c-0.8,2.4-2.6,3.8-5.2,3.9c-2.9,0.1-4.7-1.4-5.7-3.9
		c-1.1-2.8-1.2-5.8-0.6-8.8c0.6-3.4,2.4-6.1,6.1-6c3.7,0,5.5,2.6,6.1,6.1c0.2,1.1,0.2,2.3,0.4,4.1
		C1361.2,638.6,1360.9,640.4,1360.3,642.1z"/>
	<path class="st3" d="M1613.6,822.8c-8.1,0.1-13.7,6.2-13.7,15.1c0,8.8,5.7,15,13.7,15.1c8.2,0,14.3-6.5,14.1-15.3
		C1627.6,829,1621.7,822.8,1613.6,822.8z M1613.6,847.1c-3.8-0.1-6.4-3.8-6.5-9.1c0-5.4,2.8-9.5,6.6-9.6c3.8-0.1,6.6,4,6.6,9.5
		C1620.3,843.8,1617.7,847.2,1613.6,847.1z"/>
	<path class="st3" d="M1447.4,243.9c-8.4-0.1-14.1,5.6-14.4,14.4c-0.2,8.9,5.6,15.5,13.8,15.7c7.9,0.2,13.9-6.2,14.1-14.8
		C1461.1,250.3,1455.6,244,1447.4,243.9z M1452.9,263.3c-0.8,2.8-2.5,4.7-5.6,4.8c-3.4,0.1-5.2-1.9-6.1-4.8c-0.8-2.5-1-5.1-0.3-7.8
		c0.8-3.4,2.6-6,6.2-6.1c3.6,0,5.5,2.6,6.1,6.1c0.2,1.1,0.4,2.3,0.6,3.2C1453.4,260.4,1453.3,261.9,1452.9,263.3z"/>
	<path class="st3" d="M1339.2,682.8c-8-0.1-14.2,6.7-14.1,15.5c0,8.2,6.1,14.6,13.9,14.6c8.1,0,13.9-6.2,14-15
		C1353,689.2,1347.3,682.9,1339.2,682.8z M1345.1,702c-1,3.3-2.7,6-6.4,5.7c-3.6-0.3-5.3-3-5.8-6.4c-0.1-1-0.2-2-0.3-3.3
		c0.2-1.3,0.3-3,0.8-4.6c0.9-2.7,2.7-4.5,5.9-4.5c3.2,0,4.8,2,5.7,4.7C1345.7,696.4,1346,699.1,1345.1,702z"/>
	<path class="st5" d="M1308.6,150.2c0,0-0.1,0-0.1,0c0-2.5,0.2-5,0-7.5c-1.2-12-9.1-16.2-20-10.6c-1.5,0.8-3.2,1.3-1.9,3.6
		c1,1.9,2,2.9,4.2,1.4c2.2-1.4,4.7-1.8,7.2-1.1c1.8,0.5,2.9,1.7,3.1,3.5c0.2,2.3-1.9,2-3.2,2.2c-3,0.6-5.9,1.2-8.6,2.6
		c-2.7,1.4-4.4,3.4-4.5,6.6c-0.2,7.4,6.2,11.2,13.7,8.1c1.5-0.6,2.7-2.6,4.8,0.2c1.8,2.4,5.1,0.5,5.3-2.6
		C1308.7,154.5,1308.6,152.3,1308.6,150.2z M1295.3,155.2c-2.3,0-3.8-1.2-4-3.5c-0.2-2.6,4.6-5.6,8.3-5.6c2.5,0,1.9,1.7,2,2.9
		C1301.6,152.7,1298.8,155.3,1295.3,155.2z"/>
	<path class="st3" d="M1284.5,243.9c-8.3,0-13.9,6-13.9,14.9c0,8.8,5.8,15.2,13.8,15.2c8.1,0,13.8-6.2,13.8-15.1
		C1298.2,249.8,1292.8,243.9,1284.5,243.9z M1290.2,263.5c-0.9,2.7-2.6,4.6-5.8,4.6c-3.1,0-4.7-1.9-5.8-4.6c-0.6-1.6-0.7-3.2-0.7-5
		c-0.2-2.1,0.4-4.2,1.5-6c2.4-4.2,7.7-4.2,10,0C1291.4,256,1291.5,259.7,1290.2,263.5z"/>
	<path class="st2" d="M1381,636.5c-0.2-2.4,0.1-4.7,1.7-6.6c1.7-2,3.7-3.5,6.5-2.3c4.3,1.9,4.6,5.7,4.7,9.6c0.1,3.8-1.3,7-4.9,8.5
		c-2.7,1.1-4.8-0.4-6.4-2.6C1381.2,641.1,1380.8,638.9,1381,636.5z"/>
	<path class="st3" d="M1237.1,132.6c-4-3-9.7-3.1-14-0.2c-6.5,4.3-8.7,14.1-4.9,21.4c3.3,6.4,10.9,9,18.6,6.1
		c1.4-0.5,4.1-0.3,3.3-3.2c-0.8-2.8-2.6-2.8-5-1.7c-3.7,1.7-7.2,0.9-9.9-2.2c-1-1.1-1.9-2.6-1.3-4.1c0.6-1.5,2.4-0.6,3.6-0.7
		c1.7-0.1,3.3,0,5,0c2.2,0,4.3,0,6.5,0c1.4,0,2.5,0,3-1.8C1243,142,1240.7,135.2,1237.1,132.6z M1235.6,141.2
		c-0.3,3.5-3.8,0.7-5.7,2c-1.8-1.4-5.8,1.8-5.9-2.3c-0.1-3.2,2.9-5.3,6.2-5.3C1233.7,135.7,1235.9,138.3,1235.6,141.2z"/>
	<path class="st3" d="M141.3,198.9c-4.4-2.6-10.7-1.8-14.8,1.9c-5.5,5-6.9,14.2-3.2,20.6c3.5,6,10.9,8.3,18.4,5.5
		c1.5-0.6,4.5-0.4,3.3-3.7c-1.1-2.9-2.9-1.8-4.8-1.1c-4,1.5-7.5,0.8-10.1-2.9c-0.7-1.1-1.6-2.4-0.8-3.7c0.7-1.1,2.1-0.6,3.2-0.6
		c1.8-0.1,3.7,0,5.5,0c2.2,0,4.3,0,6.5,0c1.5,0,2.4-0.4,2.7-2.1C148.2,207.8,145.6,201.4,141.3,198.9z M135.1,210.3
		c-1.9-1.2-5,1.4-5.9-1.8c-0.7-2.4,3.2-5.6,6.3-5.7c3.5-0.1,5.5,2.1,5.4,5.2C140.7,212.3,136.9,208.9,135.1,210.3z"/>
	<path class="st3" d="M1540.6,245.3c-3.8-2.3-10.4-1.9-14.2,0.9c-6,4.5-8,14.6-4.2,21.3c3.6,6.2,12.1,8.6,19.4,5.4
		c1.4-0.6,3.4-0.9,2.4-3.4c-0.9-2.5-2.3-2.2-4.2-1.3c-3.5,1.6-6.9,1.3-9.7-1.5c-1.3-1.3-2.7-3-1.9-4.8c0.7-1.6,2.7-0.7,4-0.8
		c1.5-0.1,3,0,4.5,0c2.2,0,4.3-0.1,6.5,0c2.1,0.2,3-0.8,3.3-2.7C1547.1,253.7,1544.4,247.6,1540.6,245.3z M1539.5,254.4
		c-0.4,3.8-4.2,0.3-5.7,2.2c-2.1-1.4-5.7,1.2-5.8-2c-0.1-3.3,2.6-5.6,6.4-5.6C1537.8,249.1,1539.9,251.6,1539.5,254.4z"/>
	<path class="st3" d="M1654.8,769.9c-5.3-1.3-10,0-13.4,4.3c-4.3,5.4-4.7,11.7-2.1,17.9c2.3,5.5,6.9,7.8,13.8,7.8
		c0.7-0.1,2.5,0,3.9-0.7c1.8-0.8,5.4-0.2,4.4-3.8c-0.9-3.6-3.4-1.8-5.5-1.2c-4.6,1.4-8.8-0.5-10.3-4.5c-0.8-2.1-0.5-3.1,2-3
		c4.2,0.1,8.3,0,12.5,0c1.5,0,2.9,0.2,3.5-1.9C1665.1,779.4,1660.5,771.3,1654.8,769.9z M1651.3,782.6c-2.1-1.7-5.8,1.2-5.8-2.3
		c0-2.9,2.5-5.3,6.1-5.5c3.5-0.1,5.6,1.9,5.5,5.1C1656.8,784.9,1652.4,779.7,1651.3,782.6z"/>
	<path class="st3" d="M1351.1,243.9c-6.7-0.6-11.5,2.3-14.3,8.5c-2.9,6.7-1.7,14.4,2.9,18.5c4.1,3.6,12.5,4.4,17.5,1.8
		c1.6-0.8,2.2-1.7,1.4-3.5c-0.8-1.7-1.7-2-3.5-1.2c-3.6,1.7-7.1,1.6-10.2-1.3c-1.4-1.3-2.7-2.9-1.9-4.8c0.7-1.7,2.6-0.7,4-0.8
		c1.5-0.1,3,0,4.5,0c2.3,0,4.7,0,7,0c1,0,1.8-0.1,2.3-1.3C1363.5,253.5,1357.9,244.6,1351.1,243.9z M1348.7,256.5
		c-1.7-1.4-5.4,1.5-5.4-2.2c0-3.1,2.7-5.2,6.2-5.3c3.2,0,5.3,2,5.3,4.8C1354.7,258.6,1350.6,255,1348.7,256.5z"/>
	<path class="st3" d="M1431.9,707.2c-4.2,1.8-8.2,1.3-10.9-3c-1.8-2.8-1.6-4.3,2.5-4.4c4.9-0.1,9.9,1.1,14.7-0.7
		c-1.1-14.5-5.4-18.3-17.3-15.2c-7.9,4.7-10.9,13.7-7,21.8c3.3,7,11.4,9.6,19.7,6.2c1.4-0.6,3.5-0.6,2.4-3.2
		C1435.1,706.6,1434.1,706.3,1431.9,707.2z M1425.9,688.5c3.6-0.2,6,2.4,5.7,5.5c-0.3,3.8-4,0.8-6,2.1c-1.8-1.3-5.4,1.5-5.6-2
		C1419.9,690.9,1422.6,688.7,1425.9,688.5z"/>
	<path class="st3" d="M64.4,257.1c-4.5-2.4-10.9-1.4-14.8,2.3c-5.3,5-6.6,14.7-2.7,20.7c3.8,5.9,11.8,8,19.1,4.9
		c1.5-0.6,3.3-0.9,2.2-3.4c-0.9-2-1.8-2.3-3.8-1.4c-3.6,1.6-7.2,1.5-10.1-1.5c-1.3-1.3-2.6-3-1.8-4.9c0.7-1.5,2.7-0.6,4.1-0.7
		c1.5-0.1,3,0,4.5,0c2.3,0,4.7-0.1,7,0c2,0.1,2.5-0.9,2.7-2.7C71.3,265.3,68.5,259.4,64.4,257.1z M58.6,269.4c-2.3-1.4-5.9,1.1-6-2
		c-0.2-3.3,2.6-5.7,6.2-5.8c3.3-0.1,5.5,1.9,5.5,5.1C64.2,271.7,59.8,266.9,58.6,269.4z"/>
	<path class="st27" d="M84.1,260.2c0.1-3.3-1.1-4.3-4.3-4.3c-3.3,0-3.9,1.5-3.8,4.3c0.1,3.5,0,7,0,10.4c0,3.8,0.1,7.6,0,11.4
		c-0.2,3.1,1,4,4,4c3,0,4.1-0.9,4.1-4C84,274.8,84,267.5,84.1,260.2z"/>
	<path class="st3" d="M867.9,465.1c0,5.3-0.1,10.7,0.1,16c0.1,3-1.5,3.1-3.7,3.1c-2.2,0-3.5-0.4-3.3-3c0.2-3.2,0-6.3,0-9.5
		c0-0.8,0.3-1.9-0.1-2.5c-3.2-4.4-7.8-1.1-11.7-2c-2-0.5-3.5,0.3-3.5,2.9c0.1,3.7-0.1,7.3,0.1,11c0.1,2.9-1.5,3.1-3.8,3.1
		c-2.5,0.1-3.1-1-3.1-3.3c0.1-10.7,0.1-21.3,0-32c0-2.4,0.8-3.2,3.2-3.2c2.3,0,4,0.4,3.7,3.2c-0.1,0.5,0,1,0,1.5
		c0.1,11.3,1.2,12.1,12.8,10.5c2-0.3,2.5-1.1,2.4-2.9c-0.1-3,0.1-6-0.1-9c-0.2-2.7,1-3.4,3.5-3.4c2.4,0,3.7,0.5,3.6,3.3
		C867.7,454.4,867.9,459.8,867.9,465.1z"/>
	<path class="st3" d="M334.7,875.1c-11.3,0-20.8-10.8-20.5-22.1c0.3-10,8.2-17.5,18.2-17.1c1.4,0.1,3.9-0.9,3.4,2
		c-0.3,1.6,0.2,3.7-3.3,3.5c-7.7-0.3-12.7,6.9-10.7,14.3c1.3,4.6,3.6,8.5,7.8,11.2c3.6,2.4,7.3,2.1,10.8,0c4.1-2.4,4.2-6.8,0.5-9.6
		c-1.5-1.1-2.5-0.2-3.6,0.5c-2.1,1.4-3.6,1.9-5.2-0.9c-1.9-3.3,0.8-3.6,2.5-4.6c8.2-4.8,8.5-4.9,11.9,2c1.8,3.6,6.6,6.6,3,12
		C345.6,871.9,340.3,874.7,334.7,875.1z"/>
	<path class="st3" d="M642.7,667.8c0.7-1.2,1.3-2.2,1.9-3.2c4.5-6.9,11.6-7.1,16.2-0.4c3.3,5,6.1,10.3,9.3,15.4
		c1.2,1.9,0.8,3-1.2,3.9c-1.7,0.7-3.3,2.8-5-0.1c-2.5-4.5-5.2-8.9-7.8-13.3c-1.6-2.7-3.7-4.8-6.9-2.5c-2.7,2-4.1,4.7-2,8.2
		c2.5,4.1,4.7,8.4,7.3,12.5c1.4,2.2,0.8,3.2-1.3,4.2c-1.7,0.8-3.2,2.6-4.8-0.4c-6-10.6-12.1-21.1-18.3-31.5c-1.5-2.5,0-3.1,1.7-4
		c1.6-0.8,3-2.3,4.4,0.3C638.3,660.5,640.5,664,642.7,667.8z"/>
	<path class="st3" d="M519.4,767.1c-1.8-0.3-4.6,1-4.5-3.1c0.1-4,2.6-3,4.8-3c2.8,0,5.3-0.8,7.5-2.3c1.9-1.3,3.4-2.9,2.6-5.4
		c-0.8-2.6-2.8-3.6-5.4-3.4c-3.6,0.3-7.3,0.8-10.9,1.1c-4.4,0.3-7.9-1.4-9.7-5.5c-1.8-4.1-1.5-8.2,1.5-11.7
		c3.8-4.6,8.8-6.3,14.6-5.9c1.4,0.1,3.3-0.2,2.9,2.2c-0.3,1.7-0.2,3.9-2.9,3.8c-2-0.1-4,0-5.8,1c-2.6,1.3-4.7,3-3.8,6.2
		c0.9,3,3.5,3.2,6.1,2.9c3.1-0.3,6.3-0.8,9.4-1c5-0.4,8.8,1.7,10.7,6.4c1.8,4.3,0.3,9.8-3.6,13.1
		C529.1,765.6,524.7,767.3,519.4,767.1z"/>
	<path class="st3" d="M903.1,227.1c2.2,0,4.3,0.1,6.5,0c2.3-0.1,3.7,0.3,3.6,3.2c-0.1,2.7-1.4,3-3.4,2.9c-2-0.1-4,0.2-6-0.1
		c-3.9-0.6-5.1,1.1-5.3,4.8c-0.1,2.7,0.2,3.3,3,3.2c8.6-0.4,13.2,3.7,13.3,11.1c0.2,7.8-5.3,13.4-13.5,13.5c-3.2,0-6.4-0.5-9.1-2.3
		c-1.5-1-5-1.3-2.6-4.9c1.8-2.8,3.1-2.8,5.7-0.8c3.2,2.4,7.3,2.9,10.6-0.1c2.6-2.4,2.8-5.7,1-8.7c-2.1-3.5-5.4-3.6-8.8-2.6
		c-5.4,1.5-6.3,0.9-6.1-4.8c0-1.3,0.1-2.7,0.2-4C892.6,227.1,892.6,227.1,903.1,227.1z"/>
	<path class="st7" d="M1471.3,636.3c0-3.5-0.1-7,0-10.5c0-1.3-0.8-3.4,1.5-3.6c1.5-0.2,3.5-1,4.4,1.1c1.1,2.8,2.2,0.8,3.3,0.1
		c3.4-2.1,6.9-3.1,10.9-1.5c2.8,1.1,4.1,3.4,4.5,6.1c1.2,6.8,0.6,13.6,0.7,20.4c0.1,2.9-1.9,2.5-3.7,2.6c-1.9,0-3.7,0.1-3.6-2.7
		c0.1-4.8,0.1-9.7,0-14.5c0-3.1-0.2-6.3-4.3-6.6c-3.4-0.2-6.3,2.9-6.3,6.8c-0.1,4.3-0.2,8.7,0,13c0.1,2.9-0.5,4.1-3.8,4.2
		c-3.6,0-3.6-1.8-3.6-4.4C1471.4,643.3,1471.3,639.8,1471.3,636.3z"/>
	<path class="st3" d="M835.9,536.6c0.1-12.7,8.3-21.3,19.3-20.8c2.8,0.1,5.2,1.1,7.4,2.7c1.2,0.9,3.3,1.7,1.5,3.8
		c-1.3,1.5-2.1,2.9-4.8,1.4c-6.6-3.8-13.1-0.8-15,6.5c-1,3.7-0.9,7.6,0.2,11.4c2.2,7.3,8.8,10,15.3,5.8c2.2-1.4,2.9-0.8,4.4,0.7
		c1.9,2.1,0.6,3.2-0.9,4.4c-6.8,5.7-19.1,3.3-24.1-4.6C836.8,544.3,835.8,540.3,835.9,536.6z"/>
	<path class="st3" d="M435.6,817.9c-1.6,0.2-1.9-1.1-2.4-2.1c-3.8-6.4-7.7-12.9-11.4-19.4c-0.6-1-2.3-2.2-0.6-3.3
		c1.4-0.9,3-3.1,4.7-1.6c2.2,1.9,2.3,0,2.9-1.1c5-8.9,12.6-9.2,18-0.5c2.8,4.5,5.2,9.3,8.1,13.8c1.7,2.6,0.1,3.4-1.7,4.5
		c-2,1.3-3.3,1.6-4.6-1c-2.4-4.6-5.1-9-7.8-13.4c-1.5-2.5-3.6-4.3-6.5-2.1c-2.4,1.9-4.4,4.2-2.3,7.7c2.4,4.2,4.8,8.4,7.2,12.6
		C440.7,814.6,438.8,817.8,435.6,817.9z"/>
	<path class="st3" d="M909.1,469.3c0-3.7,0-7.3,0-11c0-1.3-0.3-3,1.6-3c1.5,0,3.6-1.1,4.1,1.4c0.5,2.7,1.6,1.1,2.6,0.5
		c1-0.6,1.9-1.3,3-1.8c6.8-2.9,12.7,0.3,13.3,7.6c0.5,6.1,0.1,12.3,0.2,18.4c0.1,2.8-1.6,2.7-3.6,2.7c-2,0-3.6,0.1-3.5-2.7
		c0.2-4.6,0-9.3,0-14c0-3.3-0.1-6.6-4.7-6.7c-3.7-0.1-6.3,3-6.3,7.2c0,4.2-0.1,8.3,0,12.5c0.1,2.7-0.5,3.8-3.5,3.8
		c-3.1,0-3.5-1.5-3.4-4C909.2,476.6,909.1,472.9,909.1,469.3z"/>
	<path class="st5" d="M335.1,617c0,4.2,0.1,8.3,0,12.5c-0.1,2.6,0.8,3.6,3.4,3.4c2.1-0.2,4.5-0.6,4.3,3c-0.2,3.6-2.7,2.7-4.7,2.8
		c-4.8,0.1-9.6,0-14.4,0c-2.2,0-3.8-0.2-3.8-3.1c0-2.6,0.8-3.8,3.4-3.4c3.2,0.5,4.4-0.9,4.2-4.1c-0.2-5.3-0.2-10.6,0-15.9
		c0.1-2.8-0.5-4.5-3.8-4.1c-1.4,0.2-2.7,0.1-2.7-2c0-1.5,0.2-2.7,1.9-2.9c0.2,0,0.3,0,0.5-0.1c11-4.1,11.6-3.7,11.6,8
		C335.1,613,335.1,615,335.1,617z"/>
	<path class="st3" d="M682.3,675c-3.3-0.1-5.8-1.7-7.4-4.4c-2-3.2-3.8-6.7-5.6-10c-1-1.7-1.2-4.5-4.4-2.4c-1.5,1-2-0.6-2.6-1.5
		c-0.5-0.9-1.8-2-0.1-2.9c3.1-1.7,1.8-3.9,0.6-5.9c-1.4-2.3-0.6-3.4,1.5-4.7c2.4-1.5,3.3-0.3,4,1.6c1.3,3.4,3.2,3.8,5.9,1.5
		c1.6-1.3,2.8-1.3,3.9,0.8c1,1.8,1.1,3.1-1,3.9c-4,1.5-3.6,3.8-1.4,6.7c1.5,2,2.5,4.3,3.8,6.4c1.8,3.2,3.9,5.7,7.9,2.7
		c1.8-1.3,2.3,0.3,3.2,1.1c1.3,1.2,1,2.2-0.2,3.3C688,673.3,685.4,674.6,682.3,675z"/>
	<path class="st3" d="M550.2,751.7c-3.5-0.3-6-2.1-7.6-4.7c-1.9-2.9-3.4-6.1-5.1-9.1c-1.1-2-1.5-5.1-5.2-3.1c-1.2,0.7-1.8-1.1-2.4-2
		c-0.7-0.9-0.9-1.9,0.2-2.5c3.2-1.7,1.6-3.9,0.5-5.9c-1.4-2.4-0.4-3.4,1.6-4.7c2.6-1.6,3.3,0.1,4,1.8c1.2,2.8,2.7,3.9,5.4,1.6
		c1.6-1.3,3-1.7,4.3,0.7c1,2,0.7,3.1-1.2,3.9c-3.8,1.4-3.6,3.5-1.5,6.3c1.7,2.4,3.1,5.1,4.6,7.7c1.7,2.7,3.7,4.5,6.8,2
		c1.8-1.5,2.6-0.1,3.6,1c1.2,1.3,0.8,2.4-0.3,3.4C555.7,750.1,553,751.2,550.2,751.7z"/>
	<path class="st8" d="M910.1,530.7c2.8-3.3,5-5.1,7.9-5.4c1.5-0.2,3.8-0.9,3.9,1.7c0.1,1.9,0.2,4.3-3,4.8c-6,1-7.2,2.6-7.3,8.5
		c0,3.3-0.1,6.7,0,10c0.1,2.7,0,4.8-3.8,4.8c-3.6-0.1-3.6-2-3.6-4.5c0.1-6.8,0-13.6,0.1-20.5c0-1.6-0.9-3.8,2.2-4.1
		C909.4,525.7,910.3,527.1,910.1,530.7z"/>
	<path class="st5" d="M380.1,821.6c1.3-3.8,1.9-6.6,4.4-8.2c1.3-0.8,3-2.6,4.1-0.1c0.7,1.6,2.8,3.5-0.1,5.6
		c-5.2,3.8-5.5,6.2-2.4,11.8c1.9,3.5,3.8,7,5.9,10.4c1.8,2.8-0.4,3.3-2,4.3c-1.8,1.2-3,1.5-4.2-0.9c-3.5-6.4-7.3-12.7-10.8-19.1
		c-0.8-1.5-3.4-3.1-0.8-5.1C376.1,818.8,378.4,816.7,380.1,821.6z"/>
	<path class="st5" d="M557.6,719.2c0.7-3.6,1.3-6.1,3.4-7.7c1.4-1.1,3.2-3.5,4.8-0.7c1,1.7,2.8,3.9-0.6,5.8
		c-4.4,2.4-4.4,6.4-2.4,10.4c1.7,3.4,3.7,6.7,5.6,10c1.4,2.3,2.5,4-0.9,5.9c-3.2,1.8-4-0.1-5.2-2.1c-3.4-6.1-7-12.1-10.3-18.2
		c-0.8-1.4-3.3-2.9-0.4-4.9C553.9,715.9,555.7,715.7,557.6,719.2z"/>
	<path class="st5" d="M481.7,761.7c1.5-2.3,1.5-5,3.5-6.4c1.5-1.1,3.1-4.1,5.2-1.2c1.2,1.7,3,4-0.7,6c-4.2,2.3-4.5,6.2-2.2,10.3
		c2.1,3.8,4.1,7.6,6.4,11.2c1.4,2.3,0.6,3.2-1.4,4.1c-1.8,0.9-3.3,2.2-4.9-0.6c-3.6-6.6-7.5-12.9-11.1-19.5
		c-0.8-1.4-3.4-2.9-0.3-4.9C478.3,759.4,480.1,758.5,481.7,761.7z"/>
	<path class="st7" d="M995,530.2c2.6-2.4,4.4-4.5,7.2-4.8c1.6-0.2,4.2-1.1,4.3,1.6c0.1,1.8,0.4,4.6-3.4,4.9c-5,0.3-7.1,3-7.2,8.2
		c-0.1,3.8-0.1,7.6,0,11.4c0.1,2.5-0.5,3.6-3.3,3.6c-2.9,0-3.7-1-3.7-3.7c0.2-7,0-13.9,0.1-20.9c0-1.5-1.2-3.8,1.8-4.3
		C993.8,525.6,994.9,526.9,995,530.2z"/>
	<path class="st5" d="M615.6,713.2c-0.6,1.9-2.7,2-4,3.1c-1.3,1-2,0.3-2.7-0.9c-4.2-7.2-8.3-14.4-12.6-21.5c-1-1.6-0.5-2.5,1-3
		c1.5-0.6,3.2-3.3,4.6-1c4.7,7.4,9,15.2,13.4,22.8C615.4,712.8,615.5,712.9,615.6,713.2z"/>
	<path class="st7" d="M598.1,683c-0.3,2.4-1.8,3.9-4.2,3.9c-2.5,0-4.1-1.4-3.9-4c0.2-2.8,2-4,4.7-3.9C597.1,679,598,680.6,598.1,683
		z"/>
	<path class="st3" d="M1463.6,647.6c-0.2-4.3,0-8.7-0.1-13c-0.4-12.4-9.1-17.3-20.2-11.3c-1.5,0.8-3.1,1.3-1.8,3.7
		c1.1,2.1,2,2.8,4.1,1.4c1.7-1.1,3.6-1.7,5.7-1.6c2.4,0.2,4.4,1.2,4.6,3.7c0.2,2.8-2.4,2.1-4.1,2.4c-10.2,2-13.2,5.4-11.9,13
		c1.7,2.5,3.8,4.7,7.1,5.2c1.3-0.1,2.7,0.1,4-0.2c2.9-0.6,5.4-3,8.8-0.2C1461.5,652.2,1463.8,650.8,1463.6,647.6z M1450.5,645.9
		c-2.8,0.4-4.8-1.3-4.5-4c0.5-4.3,4.3-4.4,7.5-5.1c2.8-0.6,2.5,1.2,2.5,2.7C1456.4,643.6,1454.1,645.5,1450.5,645.9z"/>
	<path class="st24" d="M972,914.9c0,0.2,0,0.3-0.1,0.5c-0.9,3.5,1.5,7.5-1.5,10.5c-4.1,4-9.1,7.3-14.7,7.7
		c-7.7,0.6-15.6,1.3-23.3-0.8c-4.5-1.2-8.8-3-11.6-7.2c-1.8-4-2.1-8.1,0-12.1c5.6-1.9,11.2-1.8,16.9-0.1c2.8,3.3,1.5,7.3,1.7,11
		c0.3,5.5,0.5,5.8,6.1,5.9c8.9,0.1,8.8,0.1,9-9c0-2.6-0.4-5.4,1.3-7.7c5.2-2,10.4-1.6,15.7-0.4C972.1,913.7,972.3,914.2,972,914.9z"
		/>
	<path class="st28" d="M929,861.8c11-4.2,21.9-4.2,32.9,0c-5.3,1.7-5.9,5.8-5.5,10.6c0.2,2.4,0.5,5-1.5,7.1
		c-5.2,1.4-10.4,1.3-15.6,0.1c-2.3-2.1-1.4-4.8-1.7-7.4c-0.3-2.7,1-5.6-1.2-8C934.2,862.6,931,864.2,929,861.8z"/>
	<path class="st29" d="M929,861.8c3,0.1,5.9,0.1,8.9,0.2c1,5.7,0.7,11.4,0.2,17.2c-5.7,1.8-11.4,2.1-17.1-0.2
		c-0.1-1.8-0.2-3.6-0.2-5.4C920.7,865.6,921.4,864.7,929,861.8z"/>
	<path class="st30" d="M955,879c0-3.2,0-6.3-0.1-9.5c0-7.3,0-7.3,6.9-7.7c4.3,1.6,7.6,4.3,10.2,8c0.5,1.6,1.2,3.1,1.2,4.8
		c0,3.6-1.3,5.8-5.2,5.8c-3.8,0-7.7,0.3-11.5-0.3C956,879.8,955.5,879.5,955,879z"/>
	<path class="st31" d="M955,879c0.3,0,0.6,0,0.9,0c0.1,0.3,0.2,0.6,0.3,0.9c-0.2,0.2-0.4,0.4-0.6,0.7c-0.5,0.3-1.1,0.5-1.6,0.7
		c-5.3,0.5-10.6,0.2-15.9,0.2c-3.8,0.1-7.6,0-11.4,0c-2.9,0-4.3,1.3-4.2,4.2c0,0.8,0,1.7,0,2.5c0,5.9,0.4,6.2,6.1,6.4
		c3.1,0.1,6.3-0.7,9.2,1.2c0.4,0.5,0.4,1,0,1.5c-1.7,1.3-3.7,1.2-5.7,1.2c-10.5,0-9.5-0.5-9.6,9.8c0,2,0,4-1.5,5.6
		c-0.1,3.9-0.1,7.9-0.2,11.8c-4.4-2.5-5.5-7.4-7.8-11.4c5.2-2,6-6,5.5-10.9c-0.2-1.9-0.1-4,1.5-5.5c0-0.3-0.1-0.7-0.1-1
		c-2.5-5.6-2.4-11.3,0-16.9c0-0.3,0-0.6,0-1l0,0c0.3,0,0.7,0,1,0c5.7,0,11.3,0,17,0c0.3-0.5,0.7-0.5,1,0
		C944.3,879.7,949.7,879.6,955,879z"/>
	<path class="st32" d="M920,879.9c0,5.6,0,11.3,0,16.9c-7.9,0.2-7.9,0.2-7.9-7.7c0-0.8,0-1.7,0-2.5
		C912.5,879.4,912.5,879.4,920,879.9z"/>
	<path class="st33" d="M920.1,897.9c0.1,4,0.1,8,0.4,11.9c0.2,3.1-0.6,4.7-4,4.2c-1.1-0.2-2.3,0.2-3.4,0.3
		c-0.1-3.8-1.1-7.4-1.2-11.2c-0.1-4.1,1.2-5.8,5.3-5.2C918.1,898,919.1,897.9,920.1,897.9z"/>
	<path class="st34" d="M956,879.9c0-0.3,0-0.7,0-1c3.6,0,7.3-0.3,10.9,0c4.3,0.4,5.7-1.3,5.1-5.3c-0.2-1.3,0.1-2.6,0.1-3.9
		c0.3,0.4,0.6,0.8,0.9,1.3c1.1,2.6,2,5.3,0.1,7.9c-0.1,0.4-0.1,0.7-0.2,1.1c2.5,5.7,2.4,11.4,0,17c0,0.3,0.1,0.7,0.1,1
		c1.9,2.5,1.3,5.4,1.3,8.2c0,2.9,0.4,5.6,2.6,7.7c0.1,3.2-1.8,5.3-3.3,8.2c-2-2.5-0.1-5.2-1.6-7.2c0-0.3-0.1-0.6-0.1-0.9
		c-2-2.6-1.4-5.6-1.5-8.5c-0.1-7-0.1-6.9-7.2-7.1c-2.9-0.1-6,0.6-8.5-1.5c-2-5.6-1.9-11.2-0.2-16.9C955,880,955.5,880,956,879.9
		c2,2.4,1.4,5.4,1.4,8.2c0.2,6.1,0.4,6.4,6.6,6.4c1.2,0,2.3,0,3.5-0.1c1.8-0.1,2.7-1.1,2.9-2.8c0.1-1.2,0.1-2.3,0.1-3.5
		c0-6.3-0.2-6.5-6.4-6.6C961.4,881.3,958.4,882,956,879.9z"/>
	<path class="st35" d="M973,897c0-5.7,0-11.4,0-17c3.6-1,5.3,0.3,5.2,4.1c-0.1,2.7-0.3,5.4,0.1,8C978.9,896.4,976.9,897.6,973,897z"
		/>
	<path class="st24" d="M977,913.9c-3,0.4-4.5-0.6-4.2-4c0.4-4,0.2-8,0.3-12c3.9-0.7,5.5,0.8,5,4.8
		C977.5,906.5,979.1,910.4,977,913.9z"/>
	<path class="st36" d="M920,879c-2,0-4,0-6.4,0c1-4.2,2.8-7.5,6.4-10.2C920,872.2,920,875.6,920,879L920,879z"/>
	<path class="st37" d="M973.2,878.9c-0.5-2.6-0.4-5.3-0.1-7.9c1.7,0.7,2,2.4,2.8,3.8C977.9,878.1,976.5,879.2,973.2,878.9z"/>
	<path class="st38" d="M748,895.4c0.4-4.5-1-10.1,0.6-15.4c3.4-11,10.4-18.2,22.2-20.2c7.7-1.3,15.3-1.4,22.7,0.6
		c12.4,3.3,18.9,12.2,20.1,24.5c0.9,8.9,1.3,17.9-0.6,26.8c-2.7,12.5-12.9,22.8-28.3,22.3c-9-0.3-17.9,0.5-25.8-5.4
		c-6.8-5.2-10.7-11.6-10.9-20.2C747.9,904.4,748,900.4,748,895.4z"/>
	<path class="st39" d="M896,897.3c-0.3,7,1,14.7-3,21.9c-4,7.4-9.9,12-17.9,13.8c-7.5,1.8-15.4,1.8-22.8,0.3
		c-11.9-2.5-19.5-10.1-21.6-22.5c-1.5-9.3-1.5-18.7-0.4-27.8c1.6-13.2,11.7-22.4,25.2-23.7c7.2-0.7,14.6-1,21.8,1.4
		c10.7,3.6,18.6,14,18.6,25.2C896,889.4,896,893.1,896,897.3z"/>
	<path class="st3" d="M638.3,696.3c-3.3,1.1-6.3,3-9.4,4.5c-1.7,0.8-3.7,1.8-4.7-0.6c-1-2.4,1.5-2.5,2.9-3.1
		c7.3-3.7,8.9-9.5,4.2-16.3c-0.9-1.2-1.8-2,0.2-3c2.4-1.2,1.1-2.7,0.3-4c-1.3-2.1-2.5-0.5-3.7,0.1c-3.1,1.5-6.2,3.1-9.3,4.6
		c-5.4,2.7-8.6,8.3-6.3,13.1c2.6,5.3,7.9,9,10,14.9c0.4,1.3,1.7,2.2,1.4,4.1c-0.6,3.5,0.4,6.3,4.1,7.5c7.5,2.5,20.3-6.8,20.3-14.8
		C648.1,697.6,644,694.5,638.3,696.3z M623.5,692.9c-3.9,0.1-5.6-2.7-5.8-6.1c-0.2-2.9,1.8-4.8,4.6-4.7c3.5,0.1,4.9,2.8,5.8,5.7
		C627.8,690.8,626.3,692.8,623.5,692.9z M641.5,706.4c-2.1,3.7-5.4,5.6-9.4,6.4c-1.7-0.1-3-0.8-3.6-2.3c-0.6-1.4-0.2-2.7,1.1-3.4
		c2.7-1.6,5.5-3,8.2-4.5c1.1-0.6,2.2-0.7,3.2,0.3C642,703.9,642.2,705.1,641.5,706.4z"/>
	<path class="st9" d="M966.6,446.1c0-2.5-1.2-3-3.4-3c-2.2,0-4,0.2-3.9,3.1c0.1,3.5,0,6.9,0,10.7c-3.3-1.7-6.7-2.7-10.4-1.4
		c-5.5,2-9.6,8.9-9.4,16.3c0.3,11.7,7.9,16.6,18.7,12.1c1.3-0.5,1.7-0.2,2.9,0.4c2.1,1.1,5.4,2.6,5.5-2.1
		C966.7,470.1,966.6,458.1,966.6,446.1z M960,470.1c0,1.3-0.1,2.7,0,4c0.2,2.4-1.2,3.7-3.1,4.6c-2,0.9-4.2,1.1-6.2-0.3
		c-4.1-2.9-3.9-13.8,0.4-16.7c2.1-1.4,4.4-1.1,6.7-0.1c2,0.9,2.4,2.5,2.3,4.5C959.9,467.4,960,468.7,960,470.1z"/>
	<path class="st3" d="M425.9,819.9c-5.8-10.1-11.8-20-17.4-30.2c-1.4-2.6-2.6-2.5-4.9-1.2c-2.6,1.4-2.6,2.8-1.2,5
		c1.9,2.9,3.6,5.9,5.4,9c-12.2,1.7-16.6,10.8-10.4,21.3c1.2,2.1,2.9,4.1,4.7,5.7c5.8,5.1,12.8,3.9,16.9-2.7c0.7-1.2,0.7-3.4,3.3-1.6
		c1.3,0.9,3.1-0.9,4.2-1.9C427.9,822.2,426.5,821,425.9,819.9z M413.9,824.5c-2.8,2.2-5.3,1.2-7.5-1.1c-2.6-2.7-4.3-5.9-4.6-8.9
		c-0.1-4.2,1.7-5.9,4.8-6.8c3.2-1,4.6,0.5,5.8,3c0.9,1.9,2,3.8,3.2,5.6C418,819.8,416.6,822.3,413.9,824.5z"/>
	<path class="st3" d="M370.3,606.3c-2.2-4.1-5.4-6.5-10.4-6.4c-4.7,0.2-8,2.5-9.7,6.6c-3.7,8.7-3.6,17.5,0.3,26.1
		c1.9,4.1,5.3,6.3,9.9,6.3c4.6-0.1,7.8-2.4,9.8-6.5c2-4.1,2.8-8.5,2.7-13C373,614.8,372.5,610.4,370.3,606.3z M364.9,629.4
		c-0.9,2.1-2.2,3.8-4.8,3.7c-2.3-0.1-3.7-1.5-4.4-3.5c-2.4-6.8-2.3-13.7-0.1-20.5c0.7-2,2.2-3.3,4.5-3.4c2.5,0,4,1.3,4.9,3.5
		c1.4,3.3,1.2,6.8,1.2,10.3C366.2,622.9,366.3,626.2,364.9,629.4z"/>
	<path class="st3" d="M836.6,413.2c0.1-1.4-0.6-2.3-2-2.1c-2.8,0.3-2.7-1.6-2.7-3.5c0-2.5,0-5,0-7.5c0-2.2,0.2-4.3-0.1-6.5
		c-0.2-1.6,1.1-4.2-1.6-4.5c-2.5-0.2-5.6-1.5-7.4,1.2c-4.6,6.7-9.1,13.6-13.2,20.6c-2.3,3.9-0.8,6,3.9,6.1c2.2,0,4.4,0.2,6.5,0
		c4-0.5,5.9,0.8,5.3,5.1c-0.4,2.6,0,4.4,3.5,4.3c3.4-0.1,3.2-2,3.2-4.2c0-2.5-0.9-5.5,3.5-5.5C836.9,416.6,836.5,414.5,836.6,413.2z
		 M822.4,411.7c-1.7-0.2-4,0.9-5-0.7c-0.9-1.5,1.1-2.8,1.9-4.2c1.5-2.7,3.3-5.3,5.7-9.2c0,4.8-0.1,8.2,0,11.5
		C825.1,411,824.3,411.9,822.4,411.7z"/>
	<path class="st3" d="M378.4,848.4c-2.7-4.8-5.4-9.5-8.3-14.2c-1.9-3.1-4.5-5.3-9.2-5.3c-5,0.4-9,3.7-12.1,8.2
		c-0.9,1.3-2.1,2.7,0.3,4c2,1.1,3.2,1.2,4.3-1.1c1.1-2.3,3.1-3.9,5.5-4.8c2-0.7,3.7,0.1,4.7,1.8c1.1,1.7-1,2.1-1.8,2.9
		c-1.4,1.5-3,2.7-4.3,4.2c-4.6,5.3-4.4,11.8,0.5,15.3c4.4,3.2,10,1.5,13.8-4.4c0.9-1.4,1.1-2.3,3.5-1.4
		C377.9,854.6,379.9,851,378.4,848.4z M364,853.4c-2.3,0.1-3.6-1.9-3.3-4.1c0.5-3.4,3.3-5.2,5.9-7.2c1.7,1.5,3.4,3.3,3.2,5.3
		C369.5,850.7,367.4,853.2,364,853.4z"/>
	<path class="st3" d="M601.7,719.5c-3-4.8-5.7-9.8-8.7-14.6c-1.9-3.1-4.5-5.3-8.6-5.2c-5.8,0.5-9.7,3.8-12.8,8.4
		c-1,1.6-1.6,2.8,0.6,3.9c1.7,0.9,2.9,1.3,4-0.9c0.7-1.4,1.9-2.7,3.2-3.8c2.1-1.7,4.8-2.6,6.7-0.3c2.5,3-1.4,3.4-2.6,4.6
		c-3,3.2-6.3,6.2-6.3,10.9c0,4.2,2,7.4,6.2,8.7c4.7,1.4,8-0.9,10.7-4.4c1.1-1.5,1.2-4.7,4.7-2.5
		C599.6,724.9,604.1,723.3,601.7,719.5z M586.8,724.3c-2.1,0.3-3.3-1.3-3.6-3.3c-0.3-2.1,3.8-7.8,5.7-7.5c2.4,0.4,2.6,3,3.6,4.6
		C591.8,721.4,590.2,723.8,586.8,724.3z"/>
	<path class="st3" d="M888.5,455c-8,0.1-13.6,6.3-13.5,15.2c0,8.8,5.7,14.8,13.9,14.8c8,0,13.9-6.3,13.9-14.9
		C902.9,461.3,896.8,454.9,888.5,455z M894,476.1c-1.1,2.1-2.9,3.2-5.2,3.2c-2.4,0-4.1-1.3-5.1-3.3c-1.8-3.6-1.9-7.4-0.4-11.1
		c1-2.5,2.7-4.2,5.6-4.1c2.9,0,4.7,1.6,5.5,4.2c0.5,1.6,0.7,3.2,0.9,4.2C895.2,472,895.1,474.1,894,476.1z"/>
	<path class="st3" d="M883.7,525.2c-8,0.1-13.7,6.4-13.7,15.2c0,9.1,5.8,15.3,14.2,15.2c7.9-0.1,13.8-6.7,13.7-15.3
		C897.7,531.7,891.5,525.1,883.7,525.2z M883.5,549.8c-3.9-0.3-6.6-4.1-6.3-9.3c0.1-1.3,0.4-2.6,0.7-3.9c0.7-3.3,2.5-5.6,6-5.6
		c3.8,0,5.4,2.7,6.1,6.1c0.3,1.3,0.3,2.6,0.3,3.2C890.1,546.7,887.4,550.1,883.5,549.8z"/>
	<path class="st3" d="M967.9,525.6c-6.2,1.6-9.7,5.8-10.8,11.8c-1.1,6-0.4,11.8,5,15.7c5.2,3.8,10.9,3.5,16.6,1
		c1.6-0.7,2.5-1.4,1.5-3.4c-0.9-1.7-1.7-2-3.5-1.2c-3,1.4-6.1,1.8-9-0.3c-1.9-1.4-3.9-3.4-3.2-5.7c0.6-2,3.2-0.7,4.9-0.9
		c1.1-0.2,2.3,0,3.5,0c0,0,0,0,0,0c2.3,0,4.7,0,7,0c1.4,0,2.4-0.4,2.8-2.1C984.9,531.9,976.5,523.4,967.9,525.6z M970.2,538.4
		c-2.1-1.5-5.8,1.2-5.8-2.3c0-3.3,2.8-5.6,6.4-5.5c3.1,0,5.2,2,5.1,4.9C975.8,540.5,971.5,536,970.2,538.4z"/>
	<path class="st3" d="M997.9,480.5c-0.2-2.3,0-4.6,0-7c0-1.7,0-3.3,0-5c0-12.4-7.7-17.3-19.1-12.2c-1.4,0.6-4.3,0.7-2.8,3.9
		c1.3,2.9,2.8,2.4,4.9,1.2c2.2-1.2,4.6-1.9,7.1-0.7c1.7,0.8,2.7,2.2,2.6,3.9c-0.1,1.9-2,1.2-3.2,1.5c-3.3,0.7-6.5,1.4-9.3,3.2
		c-2.9,1.9-4.3,4.7-3.8,8.1c0.5,3.4,2.5,5.6,5.7,6.9c2.7,1,5.2,0.4,7.7-0.6c1.8-0.7,3-2.2,5.3,0.1
		C994.7,485.3,998.3,484.8,997.9,480.5z M984.8,479.8c-2.5-0.1-4.2-1.5-3.9-4c0.4-4.7,4.5-4.6,7.7-5.4c3-0.7,1.8,1.9,2.2,2.8
		C990.9,477.2,988.2,480,984.8,479.8z"/>
	<path class="st3" d="M479.7,788c-2-1.5-3-0.7-4.4,0.9c-3.6,4-8.1,4.6-11.6,2.2c-1.9-1.3-2.6-2.6,0-4c3.5-1.9,6.9-4.1,10.4-5.9
		c2.6-1.3,2.7-2.7,1.3-5c-3.4-5.8-8.6-8.4-14.1-6.9c-5.8,1.6-9.4,6.7-9.3,13.2c0,7,4.3,13.4,10.4,15.6c5.7,2,12.7-0.3,16.8-5.8
		C480,791.2,482.3,790,479.7,788z M458.1,780.4c0.3-2.4,1.6-5,5.3-5.6c2.4-0.4,4.4,0.7,5.3,2.8c1,2.2-1.6,2.4-2.8,3.3
		c-1.4,1.1-3.1,1.9-4.6,2.8C458.4,785.6,458,783.9,458.1,780.4z"/>
	<path class="st30" d="M956.2,914c-0.1,4.8-0.4,9.6-0.3,14.4c0,2.6-0.7,3.6-3.4,3.4c-4.6-0.2-10.6,1.5-13.5-0.8
		c-3.1-2.4-0.7-8.7-1-13.2c-0.1-1.3,0-2.6,0-4c0.2-0.2,0.4-0.4,0.7-0.6c5.3-1.4,10.7-1,16-0.3C955.3,913.2,955.8,913.5,956.2,914z"
		/>
	<path class="st30" d="M956.2,914c-0.4,0-0.8-0.1-1.3-0.1c-2.5-5.3-1.6-10.7-0.6-16.2c0.2-0.2,0.4-0.5,0.6-0.7c4.4,0,8.9,0.2,13.3,0
		c2.7-0.1,3.9,0.8,3.7,3.6c-0.2,4.4,0,8.9,0,13.3C966.7,914,961.4,914,956.2,914z"/>
	<path class="st29" d="M921,913.9c0-4.5,0.2-9,0.1-13.5c-0.1-2.6,1-3.5,3.5-3.4c4.5,0.1,9,0,13.5,0c0.2,0.2,0.4,0.5,0.6,0.7
		c1,5.5,2,11-0.7,16.3c0,0,0.1-0.1,0.1-0.1C932.4,913.9,926.7,913.9,921,913.9z"/>
	<path class="st40" d="M939,878.9c-0.3,0-0.7,0-1,0c0-5.7,0-11.3,0-17C940.3,867.5,938.4,873.3,939,878.9z"/>
	<path class="st30" d="M954.6,880.1c0.8,5.6,0.2,11.3,0.4,16.9c0,0-0.1,0.1-0.1,0.1c-5.5,2.2-11.1,2.1-16.6,0.1c0,0-0.2-0.2-0.2-0.2
		c0-0.3,0-0.6,0-0.9c-2.4-5.4-2.6-10.8,0.1-16.1C943.6,880,949.1,880,954.6,880.1z"/>
	<path class="st40" d="M938.1,879.9c0,5.4-0.1,10.7-0.1,16.1c-4.8,0.9-9.6,0.1-14.4,0.4c-2.2,0.1-3-0.8-2.8-2.9c0-0.2,0-0.3,0-0.5
		c-0.6-13.3-0.6-13.3,12.8-13.2C935.1,879.8,936.6,879.9,938.1,879.9z"/>
	<path class="st18" d="M956,879.9c4.5,0,9,0,13.5-0.1c2.1-0.1,2.7,0.7,2.9,2.8c1,13.4-0.2,14.7-13.7,13.7c-2.1-0.2-2.9-0.8-2.8-2.9
		C956,888.9,956,884.4,956,879.9C956,879.9,956,879.9,956,879.9z"/>
	<path class="st28" d="M938.2,897.2c5.5,0,11.1,0,16.6-0.1c0,5.6,0.1,11.2,0.1,16.8c-5.7,0-11.3,0-17,0.1
		C938,908.4,938.1,902.8,938.2,897.2z"/>
</g>
</svg>
