<?xml version="1.0" encoding="utf-8"?>
<!-- Generator: Adobe Illustrator 25.2.3, SVG Export Plug-In . SVG Version: 6.00 Build 0)  -->
<svg version="1.1" id="Capa_1" xmlns="http://www.w3.org/2000/svg" xmlns:xlink="http://www.w3.org/1999/xlink" x="0px" y="0px"
	 viewBox="0 0 200 117" style="enable-background:new 0 0 200 117;" xml:space="preserve">
<style type="text/css">
	.st0{fill:#7B7C7D;}
	.st1{fill:#B7B5B6;}
	.st2{fill:#AC1737;}
	.st3{fill:#FFFFFF;}
	.st4{fill:#C7C6C5;}
	.st5{fill:#1E1E1C;}
	.st6{fill:#C01724;}
	.st7{fill:#AA1920;}
	.st8{fill:#009548;}
	.st9{fill:#006139;}
</style>
<desc>Created with sketchtool.</desc>
<path id="Shape_82_" class="st0" d="M88.3,57.4c-0.1-0.1-0.3-0.2-0.5-0.2c-0.3,0-0.6,0.2-0.6,0.9c0.2-0.2,0.4-0.3,0.7-0.3
	c0.6,0,1,0.3,1,1S88.4,60,87.7,60s-1.3-0.5-1.3-1.7s0.7-1.8,1.4-1.8c0.5,0,0.8,0.2,1,0.4L88.3,57.4z M88,58.8c0-0.3-0.2-0.4-0.4-0.4
	s-0.3,0.1-0.4,0.3c0.1,0.5,0.3,0.6,0.4,0.6C87.8,59.3,88,59.2,88,58.8z"/>
<path id="Shape_73_" class="st0" d="M19.3,99.4H20v-1.8h-0.6V97c0.4-0.1,0.7-0.2,0.9-0.3H21v2.6h0.6v0.7h-2.3
	C19.3,100,19.3,99.4,19.3,99.4z"/>
<path id="Shape_72_" class="st0" d="M2.1,67.4c0.8-0.7,1.4-1.3,1.4-1.8c0-0.3-0.2-0.4-0.4-0.4s-0.4,0.2-0.6,0.3L2,65
	c0.3-0.4,0.7-0.6,1.2-0.6c0.7,0,1.2,0.4,1.2,1.1c0,0.6-0.5,1.1-1,1.6c0.2,0,0.4,0,0.6,0h0.6v0.8H2.1V67.4z"/>
<path id="Shape_71_" class="st0" d="M24.5,36.9c0.2,0.2,0.4,0.3,0.7,0.3c0.3,0,0.5-0.1,0.5-0.3c0-0.3-0.1-0.4-0.9-0.4v-0.7
	c0.6,0,0.7-0.1,0.7-0.4c0-0.2-0.1-0.3-0.3-0.3c-0.2,0-0.4,0.1-0.6,0.3l-0.5-0.6c0.3-0.3,0.7-0.4,1.1-0.4c0.7,0,1.2,0.3,1.2,1
	c0,0.3-0.2,0.6-0.6,0.7c0.4,0.1,0.7,0.4,0.7,0.8c0,0.7-0.6,1-1.3,1c-0.6,0-1-0.2-1.2-0.5L24.5,36.9z"/>
<path id="Shape_70_" class="st0" d="M34.1,71.8h-0.3v0.8h-0.9v-0.8h-1.4v-0.7l1.2-2h1.1v2h0.3C34.1,71.1,34.1,71.8,34.1,71.8z
	 M32.9,71.1v-0.4c0-0.2,0-0.6,0-0.8c-0.1,0.2-0.2,0.4-0.3,0.6l-0.2,0.6L32.9,71.1L32.9,71.1z"/>
<path id="Shape_69_" class="st0" d="M113.9,64.5c0.2,0.2,0.4,0.3,0.7,0.3c0.3,0,0.5-0.1,0.5-0.4s-0.2-0.4-0.5-0.4
	c-0.2,0-0.3,0-0.5,0.2l-0.4-0.3l0.1-1.7h2V63h-1.2v0.5c0.1,0,0.2,0,0.3,0c0.6,0,1.1,0.3,1.1,1c0,0.8-0.6,1.2-1.3,1.2
	c-0.6,0-1-0.2-1.2-0.5L113.9,64.5z"/>
<path id="Shape_68_" class="st0" d="M57.5,48.5H56v-0.8h2.4v0.6c-0.8,0.9-0.9,1.5-0.9,2.8h-0.9C56.7,50,56.9,49.4,57.5,48.5z"/>
<path id="Shape_67_" class="st0" d="M39,26.5c-0.3-0.2-0.4-0.5-0.4-0.8c0-0.6,0.5-1,1.1-1c0.7,0,1,0.3,1,1c0,0.3-0.2,0.6-0.4,0.7
	c0.3,0.2,0.6,0.4,0.6,0.9c0,0.6-0.5,1-1.3,1c-0.7,0-1.2-0.4-1.2-0.9C38.4,26.9,38.6,26.7,39,26.5z M39.6,27.6c0.2,0,0.4-0.1,0.4-0.3
	s-0.2-0.3-0.7-0.5c-0.1,0.1-0.2,0.3-0.2,0.5C39.2,27.4,39.4,27.6,39.6,27.6z M40,25.7c0-0.2-0.1-0.4-0.3-0.4s-0.3,0.1-0.3,0.3
	c0,0.2,0.2,0.3,0.5,0.5C40,26,40,25.8,40,25.7z"/>
<path id="Shape_66_" class="st0" d="M93.1,30.9c0.1,0.1,0.3,0.2,0.5,0.2c0.3,0,0.6-0.2,0.6-0.9c-0.2,0.2-0.4,0.3-0.7,0.3
	c-0.6,0-1-0.3-1-1s0.5-1.2,1.2-1.2S95,28.8,95,30s-0.7,1.8-1.4,1.8c-0.5,0-0.8-0.2-1-0.4L93.1,30.9z M94.2,29.7
	c-0.1-0.5-0.3-0.6-0.4-0.6c-0.2,0-0.3,0.1-0.3,0.5c0,0.3,0.2,0.4,0.4,0.4C93.9,29.9,94,29.8,94.2,29.7z"/>
<g id="Group_20_" transform="translate(107.159353, 16.166282)">
	<path id="Shape_65_" class="st0" d="M5-5.4h0.7v-1.7H5v-0.6C5.4-7.8,5.7-7.9,5.9-8h0.7v2.6h0.6v0.7H4.9L5-5.4L5-5.4z"/>
	<path id="Shape_64_" class="st0" d="M7.7-6.4c0-1.2,0.5-1.7,1.3-1.7c0.7,0,1.3,0.6,1.3,1.7c0,1.2-0.5,1.8-1.3,1.8
		C8.3-4.6,7.7-5.2,7.7-6.4z M9.4-6.4c0-0.9-0.2-1-0.4-1s-0.4,0.1-0.4,1S8.8-5.3,9-5.3S9.4-5.5,9.4-6.4z"/>
</g>
<g id="Group_19_" transform="translate(139.491917, 18.013857)">
	<path id="Shape_63_" class="st0" d="M1.3-8.9H2v-1.8H1.3v-0.5c0.5-0.1,0.8-0.2,1-0.4H3V-9h0.6v0.7H1.3V-8.9z"/>
	<path id="Shape_62_" class="st0" d="M4.2-8.9h0.7v-1.8H4.3v-0.5c0.4-0.1,0.7-0.2,0.9-0.3h0.7v2.6h0.6v0.7H4.2V-8.9z"/>
</g>
<g id="Group_18_" transform="translate(81.293303, 63.741339)">
	<path id="Shape_61_" class="st0" d="M50.9-11.6h0.7v-1.7h-0.7v-0.6c0.4-0.1,0.7-0.2,0.9-0.3h0.7v2.6h0.6v0.7h-2.3L50.9-11.6
		L50.9-11.6z"/>
	<path id="Shape_60_" class="st0" d="M53.6-11.4c0.8-0.7,1.4-1.3,1.4-1.8c0-0.3-0.2-0.4-0.4-0.4s-0.4,0.2-0.6,0.3l-0.5-0.5
		c0.3-0.4,0.7-0.6,1.2-0.6c0.7,0,1.2,0.4,1.2,1.1c0,0.6-0.5,1.1-1,1.6c0.2,0,0.4,0,0.6,0h0.6v0.8h-2.5
		C53.6-10.9,53.6-11.4,53.6-11.4z"/>
</g>
<path class="st1" d="M22.6,94.3c-2.3,0-4.2-0.7-5.6-2.1c-1.5-1.5-2-2.8-2.3-3.9c-0.1-0.2-0.1-0.4-0.2-0.6L8.2,70.8
	c-0.3-0.7-0.8-2.2-0.8-4.1c0-2.5,0.8-4.2,1.3-5.1C9,61.1,17.3,46.7,18.2,45l0.1-0.1l0.1-0.1c0.4-0.6,1.9-2.6,4.4-3.3
	c0.7-0.2,1.4-0.3,2.1-0.3c1.8,0,3.4,0.6,4.7,1.6c1.8,1.5,2.4,3.1,2.8,4.6c0.3,1.1,2.9,10.8,3.1,11.6c0.1,0.4,0.6,1.6,1.5,2.2
	c1.3,0.9,1.6,1,4,1h63.4h0.1c0.4,0,0.6-0.2,0.8-0.8c0.1-0.1,0.1-0.2,0.1-0.3c-0.1-0.2-0.6-0.6-1-0.7c-1.4-0.6-11.3-4.6-11.7-4.8
	c-0.1,0-2.9-1.1-6.2-1.1c-0.3,0-0.6,0-0.8,0c-3.1,0.2-6.3,0.9-10.4,1.8c-1.8,0.4-3.7,0.8-5.8,1.3c-2.1,0.4-3.8,0.8-5.1,1.1
	c-3.1,0.7-4.7,1-6.3,1c-0.1,0-0.2,0-0.4,0c-4.8-0.1-8.7-2.5-11.3-6.9L40,43c-1.3-1.9-2.7-6.2,0.1-10.2c1.8-2.6,4.4-3.9,7.6-3.9
	c1.1,0,2.2,0.2,3.4,0.3c0,0,40.4,5.6,40.5,5.6h0.1c0.2,0,1,0.1,2,0.1c1.8,0,3.3-0.3,4.3-0.9c2.6-1.5,3.8-2.8,6.2-5.4
	c0.5-0.5,1-1.1,1.6-1.7l10.8-11.5c0.5-0.5,5.3-5.3,11.4-5.6c4.1-0.2,4.7-0.2,4.8-0.2h0.1h0.1c0.6,0,2.6,0.1,4.6,1.1
	c3,1.6,4.8,4.5,4.9,8.2c0.1,4.7,0.3,20.3,0.3,21.5c0,1,0.4,3.7,1.8,5.3c2,2.5,3.1,3.1,7.3,5l13.7,6.2c-0.1-0.1-0.2-0.3-0.4-0.6
	l-10.8-15.9c-1.7-2.2-3.7-7-1-11.8c2.3-4.1,7.2-6.6,13.1-6.6c0.4,0,0.8,0,1.1,0c5.2,0.3,9.5,3.1,13.1,8.4
	c3.1,4.6,12.5,18.5,13.1,19.3s4.1,6.2,4.4,13.9c0.3,7.6-2,14.5-6.7,20c-2.5,3-5.4,5.3-8.7,7.1c-4.1,2.2-8.6,3.3-13.4,3.3
	c-0.2,0-0.4,0-0.7,0h-62.6H23.4C23.1,94.3,22.8,94.3,22.6,94.3z M105.9,89.6h62.7c9.2,0.2,15.5-4.3,19.2-8.7s5.8-10.1,5.6-16.9
	s-3.6-11.5-3.6-11.5s-9.9-14.6-13.1-19.3s-6.5-6.2-9.6-6.4c-3.1-0.2-8,0.7-10,4.2s0.7,6.8,0.7,6.8s9.9,14.6,10.9,16.1s2.4,4.1,0,6.6
	c-2.5,2.5-5.3,0.8-5.3,0.8s-9.2-4.1-13.7-6.2c-4.6-2.1-6.4-3.1-9-6.4c-2.6-3.3-2.8-8.1-2.8-8.1s-0.2-16.7-0.3-21.5
	c-0.1-4.9-4.9-4.8-4.9-4.8s-0.3,0-4.7,0.2c-4.4,0.2-8.2,4.2-8.2,4.2s-7.3,7.7-10.8,11.5s-5,5.7-8.8,8s-9.2,1.4-9.3,1.3
	c-0.2,0-37.4-5.2-40.4-5.6s-5-0.7-6.7,1.7s0,5,0,5l6.5,9.9c2.4,4.1,5.7,4.6,7.5,4.7c1.8,0.1,3.9-0.6,10.7-2s11.9-2.9,16.8-3.2
	c5-0.3,9,1.4,9,1.4s10.2,4.2,11.7,4.8s5.1,2.8,3.5,6.9c-1.6,4.2-5.4,3.7-5.4,3.7s-60.4,0-63.1,0s-4.3-0.1-6.7-1.8
	c-2.4-1.8-3.2-4.7-3.2-4.7S28.3,49.8,28,48.6s-0.5-1.6-1.3-2.3c-0.8-0.6-1.8-0.7-2.8-0.5s-1.7,1.3-1.7,1.3s-9.2,16-9.5,16.5
	S12,65.1,12,66.4s0.5,2.4,0.5,2.4s5.8,15.8,6.3,17.1c0.5,1.3,0.5,1.9,1.5,2.8s2.9,0.7,2.9,0.7L105.9,89.6L105.9,89.6z"/>
<g>
	<path id="Shape_98_" class="st2" d="M56.1,101.8c-0.2,0-0.4-0.2-0.4-0.4V89.5c0-0.2,0.2-0.4,0.4-0.4s0.4,0.2,0.4,0.4v11.9
		C56.5,101.6,56.3,101.8,56.1,101.8z"/>
	<path id="Shape_97_" class="st2" d="M52.2,101.3c0-1.9,1.5-3.3,3.3-3.3h1.2c1.9,0,3.3,1.5,3.3,3.3v2.1c0,1.9-1.5,3.3-3.3,3.3h-1.2
		c-1.9,0-3.3-1.5-3.3-3.3V101.3z"/>
	<path id="Shape_96_" class="st3" d="M55.1,103.1c0.3,0.3,0.6,0.4,1,0.4s0.6-0.2,0.6-0.5s-0.2-0.4-0.6-0.5l-0.5-0.2
		c-0.4-0.1-0.7-0.4-0.7-1s0.5-1,1.2-1c0.4,0,0.8,0.2,1.1,0.5l-0.4,0.4c-0.2-0.2-0.5-0.3-0.8-0.3c-0.4,0-0.6,0.2-0.6,0.4
		s0.3,0.4,0.6,0.5l0.5,0.2c0.4,0.2,0.7,0.4,0.7,1s-0.5,1.1-1.3,1.1c-0.5,0-1-0.2-1.3-0.5L55.1,103.1z"/>
</g>
<g>
	<path id="Shape_95_" class="st2" d="M132.8,40.5c0-0.2,0.2-0.4,0.3-0.4L145,40c0.2,0,0.4,0.2,0.4,0.3c0,0.2-0.2,0.4-0.3,0.4
		l-11.9,0.2C132.9,40.8,132.7,40.7,132.8,40.5z"/>
	<g id="Group_28_" transform="translate(60.969977, 52.193995)">
		<path id="Shape_94_" class="st2" d="M66.1-12.8c0-1.9,1.5-3.4,3.3-3.4h2.2c1.9,0,3.4,1.5,3.4,3.4v2.2c0,1.9-1.5,3.3-3.4,3.3h-2.2
			c-1.9,0-3.3-1.5-3.3-3.3V-12.8z"/>
		<g id="Shape_93_" transform="translate(2.309469, 2.771363)">
			<path class="st3" d="M66.3-16.1c0-0.2,0.2-0.4,0.4-0.4c0.2,0,0.4,0.1,0.4,0.4c0,0.3-0.2,0.4-0.4,0.4
				C66.5-15.8,66.3-15.9,66.3-16.1z M66.3-15.3H67v2.7h-0.7V-15.3z"/>
			<path class="st3" d="M68.1-13.4c0.2,0.2,0.5,0.4,0.8,0.4c0.4,0,0.7-0.2,0.7-0.5c0-0.4-0.2-0.6-1.1-0.6v-0.5
				c0.7,0,0.9-0.2,0.9-0.6c0-0.3-0.2-0.5-0.5-0.5s-0.5,0.1-0.7,0.4l-0.3-0.4c0.3-0.3,0.7-0.4,1.1-0.4c0.7,0,1.1,0.4,1.1,0.9
				c0,0.4-0.2,0.7-0.6,0.8l0,0c0.4,0.1,0.7,0.4,0.7,0.9c0,0.7-0.6,1-1.2,1s-1-0.2-1.2-0.5L68.1-13.4z"/>
		</g>
	</g>
</g>
<g>
	<path id="Shape_92_" class="st2" d="M23.2,55.8c-0.1-0.2,0.1-0.4,0.3-0.5l11.3-3.7c0.2-0.1,0.4,0.1,0.5,0.3
		c0.1,0.2-0.1,0.4-0.3,0.5l-11.3,3.7C23.4,56.1,23.1,56,23.2,55.8z"/>
	<g id="Group_27_" transform="translate(104.849885, 18.013857)">
		<path id="Shape_91_" class="st2" d="M-84.9,37.7c0-1.9,1.5-3.3,3.4-3.3h1.7c1.9,0,3.4,1.5,3.4,3.3v2.4c0,1.9-1.5,3.4-3.4,3.4h-1.7
			c-1.9,0-3.4-1.5-3.4-3.4V37.7z"/>
		<g id="Shape_90_" transform="translate(2.309469, 2.771363)">
			<path class="st3" d="M-85,34.5c0-0.2,0.2-0.4,0.4-0.4c0.2,0,0.4,0.1,0.4,0.4s-0.2,0.4-0.4,0.4C-84.8,34.9-85,34.7-85,34.5z
				 M-84.9,35.3h0.7V38h-0.7V35.3z"/>
			<path class="st3" d="M-83.1,37.5h0.8v-2.3H-83v-0.4c0.4-0.1,0.6-0.2,0.8-0.3h0.5v3h0.7V38h-2.2L-83.1,37.5L-83.1,37.5z"/>
		</g>
	</g>
</g>
<g>
	<path id="Shape_89_" class="st2" d="M114.3,97.8V87.3c0,0,0-0.1-0.1-0.1H107c-0.2,0-0.4-0.2-0.4-0.4c0-0.2,0.2-0.4,0.4-0.4h7.8
		c0.2,0,0.4,0.1,0.4,0.4V98c0,0.2-0.2,0.4-0.4,0.4C114.5,98.2,114.3,98.1,114.3,97.8z"/>
	<g>
		<g id="Group_26_" transform="translate(0.000000, 90.993072)">
			<path id="Shape_88_" class="st2" d="M107.9,10.1c0-1.9,1.5-3.3,3.4-3.3h5.2c1.9,0,3.3,1.5,3.3,3.3v2.1c0,1.9-1.5,3.3-3.3,3.3
				h-5.2c-1.9,0-3.4-1.5-3.4-3.3V10.1z"/>
			<g id="Shape_87_" transform="translate(3.695150, 2.771363)">
				<polygon class="st3" points="107.8,6.6 110,6.6 110,7.2 108.4,7.2 108.4,8.2 109.7,8.2 109.7,8.7 108.4,8.7 108.4,10.2 
					107.8,10.2 				"/>
				<polygon class="st3" points="110.8,6.6 111.5,6.6 111.5,9.8 113,9.8 113,10.3 110.8,10.3 				"/>
			</g>
		</g>
		<path id="Shape_86_" class="st2" d="M105.7,85.9l1.4-0.8c0.2-0.1,0.4,0,0.4,0.2v1.6v1.6c0,0.2-0.2,0.3-0.4,0.2l-1.4-0.8l-1.4-0.8
			c-0.2-0.1-0.2-0.3,0-0.4L105.7,85.9z"/>
	</g>
</g>
<g>
	<path id="Shape_85_" class="st2" d="M68.3,41.8c-0.2-0.1-0.3-0.3-0.4-0.5l2-11.7c0.1-0.2,0.3-0.3,0.5-0.4c0.2,0.1,0.3,0.3,0.4,0.5
		l-2,11.7C68.7,41.7,68.5,41.9,68.3,41.8z"/>
	<g id="Group_25_" transform="translate(42.494226, 0.000000)">
		<path id="Shape_84_" class="st2" d="M20.5,41.5c0-1.9,1.5-3.4,3.3-3.4H26c1.9,0,3.4,1.5,3.4,3.4v2.2c0,1.9-1.5,3.4-3.4,3.4h-2.2
			c-1.9,0-3.3-1.5-3.3-3.4V41.5z"/>
		<g id="Shape_83_" transform="translate(2.309469, 2.309469)">
			<path class="st3" d="M20.6,38.7c0-0.2,0.2-0.4,0.4-0.4c0.2,0,0.4,0.1,0.4,0.4s-0.2,0.4-0.4,0.4S20.6,38.9,20.6,38.7z M20.7,39.5
				h0.7v2.7h-0.7V39.5z"/>
			<path class="st3" d="M22.3,41.9c1-1,1.6-1.6,1.6-2.1c0-0.4-0.2-0.6-0.6-0.6c-0.3,0-0.5,0.2-0.7,0.4l-0.4-0.4
				c0.3-0.4,0.7-0.5,1.1-0.5c0.7,0,1.1,0.4,1.1,1.1c0,0.6-0.6,1.3-1.3,2c0.2,0,0.4,0,0.6,0h0.9v0.5h-2.4L22.3,41.9L22.3,41.9z"/>
		</g>
	</g>
</g>
<g id="Group_21_" transform="translate(87.417219, 42.384106)">
	<path id="Shape_58_" class="st0" d="M81.1,22.6h0.8v-1.8h-0.7v-0.6c0.4-0.1,0.7-0.2,0.9-0.4h0.7v2.7h0.6v0.8h-2.3V22.6z"/>
	<path id="Shape_57_" class="st0" d="M84.2,22.3c0.2,0.2,0.4,0.3,0.7,0.3c0.3,0,0.5-0.1,0.5-0.3c0-0.3-0.1-0.4-0.9-0.4v-0.7
		c0.6,0,0.8-0.1,0.8-0.4c0-0.2-0.1-0.3-0.4-0.3s-0.4,0.1-0.6,0.3l-0.5-0.6c0.4-0.3,0.7-0.4,1.1-0.4c0.8,0,1.2,0.4,1.2,1
		c0,0.4-0.2,0.6-0.6,0.8c0.4,0.1,0.7,0.4,0.7,0.8c0,0.7-0.6,1-1.3,1c-0.6,0-1-0.2-1.2-0.5L84.2,22.3z"/>
</g>
<g id="Group_14_" transform="translate(74.613687, 47.682119)">
	<path id="Shape_56_" class="st0" d="M77.8-30.3h0.8v-1.8h-0.7v-0.6c0.4-0.1,0.7-0.2,0.9-0.4h0.7v2.7h0.6v0.8h-2.3V-30.3z"/>
	<path id="Shape_55_" class="st0" d="M83.2-30.3h-0.4v0.8H82v-0.8h-1.5V-31l1.2-2h1.1v2h0.4V-30.3z M82-31v-0.4c0-0.2,0-0.6,0-0.8
		c-0.1,0.2-0.2,0.4-0.3,0.6L81.4-31H82L82-31z"/>
</g>
<g id="Group_13_" transform="translate(61.810155, 25.165563)">
	<path id="Shape_54_" class="st0" d="M119.1,51.8h0.8V50h-0.7v-0.6c0.4-0.1,0.7-0.2,0.9-0.4h0.7v2.7h0.6v0.8h-2.3V51.8z"/>
	<path id="Shape_42_" class="st0" d="M122.2,51.5c0.2,0.2,0.4,0.3,0.7,0.3c0.3,0,0.5-0.1,0.5-0.4s-0.2-0.4-0.5-0.4
		c-0.2,0-0.3,0-0.5,0.2l-0.4-0.3l0.1-1.8h2v0.8H123v0.5c0.1,0,0.2,0,0.3,0c0.6,0,1.1,0.4,1.1,1.1c0,0.8-0.6,1.2-1.3,1.2
		c-0.6,0-1-0.2-1.2-0.5L122.2,51.5z"/>
</g>
<g>
	<path id="Shape_18_" class="st0" d="M127.4,100.2c0-1.9,1.5-3.3,3.3-3.3h20.2c1.9,0,3.3,1.5,3.3,3.3v3.7c0,1.9-1.5,3.3-3.3,3.3
		h-20.1c-1.9,0-3.3-1.5-3.3-3.3L127.4,100.2L127.4,100.2z"/>
	<g id="Group_5_" transform="translate(32.794457, 105.773672)">
		<path id="Shape_19_" class="st3" d="M116.2,0.5c-1.7,0-3.1-1.4-3.1-3.1v-2.2c-0.1-1.7,1.3-3.1,3.1-3.1h1.2c1.7,0,3.1,1.4,3.1,3.1
			v2.1c0,1.7-1.4,3.1-3.1,3.1L116.2,0.5L116.2,0.5z"/>
		<path id="Shape_20_" class="st4" d="M117.3-7.7c1.6,0,2.9,1.3,2.9,2.9v2.1c0,1.6-1.3,2.9-2.9,2.9h-1.2c-1.6,0-2.9-1.3-2.9-2.9
			v-2.1c0-1.6,1.3-2.9,2.9-2.9H117.3z M117.3-8.2h-1.2c-1.9,0-3.3,1.5-3.3,3.3v2.1c0,1.9,1.5,3.3,3.3,3.3h1.2c1.9,0,3.3-1.5,3.3-3.3
			v-2C120.7-6.7,119.2-8.2,117.3-8.2z"/>
	</g>
	<g id="Clipped_1_" transform="translate(32.794457, 105.773672)">
		<g id="SVGID_1_">
		</g>
		<g id="Group_6_">
			<g id="Rectangle-path_1_" transform="translate(-2.309469, 0.461894)">
				<polygon class="st5" points="115.3,-6 116.5,-6 116.5,-4.1 115.3,-4.2 				"/>
				<rect x="116.4" y="-7.9" class="st5" width="1.9" height="1.9"/>
				<rect x="118.3" y="-6" class="st5" width="1.9" height="1.9"/>
				<rect x="118.3" y="-8.4" class="st5" width="1.9" height="0.5"/>
				<polygon class="st5" points="115.4,-2.4 116.5,-2.4 116.6,-0.6 116.1,-1 				"/>
				<rect x="116.4" y="-4.2" class="st5" width="1.9" height="1.9"/>
				<rect x="118.3" y="-2.4" class="st5" width="1.9" height="1.9"/>
				<polygon class="st5" points="120.1,-7.9 121.7,-7.8 122,-7.5 122,-6 120.1,-6 				"/>
				<rect x="122" y="-6" class="st5" width="0.8" height="1.9"/>
				<rect x="120.1" y="-4.2" class="st5" width="1.9" height="1.9"/>
				<polygon class="st5" points="122,-2.4 122.8,-2.4 122.4,-1.5 121.7,-0.8 				"/>
			</g>
		</g>
	</g>
	<g id="Group_7_" transform="translate(14.318707, 105.773672)">
		<path id="Shape_21_" class="st6" d="M117.2,0.5c-1.7,0-3.1-1.4-3.1-3.1v-2.2c0-1.7,1.4-3.1,3.1-3.1h1.2c1.7,0,3.1,1.4,3.1,3.1v2.1
			c0,1.7-1.4,3.1-3.1,3.1L117.2,0.5L117.2,0.5z"/>
		<path id="Shape_22_" class="st7" d="M118.4-7.7c1.6,0,2.9,1.3,2.9,2.9v2.1c0,1.6-1.3,2.9-2.9,2.9h-1.2c-1.6,0-2.9-1.3-2.9-2.9
			v-2.1c0-1.6,1.3-2.9,2.9-2.9H118.4z M118.4-8.2h-1.2c-1.9,0-3.3,1.5-3.3,3.3v2.1c0,1.9,1.5,3.3,3.3,3.3h1.2c1.9,0,3.3-1.5,3.3-3.3
			v-2C121.8-6.7,120.3-8.2,118.4-8.2z"/>
	</g>
	<g id="Group_8_" transform="translate(23.556582, 105.773672)">
		<path id="Shape_23_" class="st8" d="M116.7,0.5c-1.7,0-3.1-1.4-3.1-3.1v-2.2c0-1.7,1.4-3.1,3.1-3.1h1.2c1.7,0,3.1,1.4,3.1,3.1v2.1
			c0,1.7-1.4,3.1-3.1,3.1L116.7,0.5L116.7,0.5z"/>
		<path id="Shape_24_" class="st9" d="M117.9-7.7c1.6,0,2.9,1.3,2.9,2.9v2.1c0,1.6-1.3,2.9-2.9,2.9h-1.2c-1.6,0-2.9-1.3-2.9-2.9
			v-2.1c0-1.6,1.3-2.9,2.9-2.9H117.9z M117.9-8.2h-1.2c-1.9,0-3.3,1.5-3.3,3.3v2.1c0,1.9,1.5,3.3,3.3,3.3h1.2c1.9,0,3.3-1.5,3.3-3.3
			v-2C121.3-6.7,119.8-8.2,117.9-8.2z"/>
	</g>
	<path id="Shape_25_" class="st4" d="M150.1,98c1.6,0,2.9,1.3,2.9,2.9v2.1c0,1.6-1.3,2.9-2.9,2.9h-1.2c-1.6,0-2.9-1.3-2.9-2.9v-2.1
		c0-1.6,1.3-2.9,2.9-2.9H150.1z M150.1,97.6h-1.2c-1.9,0-3.3,1.5-3.3,3.3v2.1c0,1.9,1.5,3.3,3.3,3.3h1.2c1.9,0,3.3-1.5,3.3-3.3v-2.1
		C153.5,99.1,152,97.6,150.1,97.6z"/>
</g>
</svg>
