<?xml version="1.0" encoding="UTF-8"?>
<svg width="161px" height="125px" viewBox="0 0 161 125" version="1.1" xmlns="http://www.w3.org/2000/svg" xmlns:xlink="http://www.w3.org/1999/xlink">
    <!-- Generator: sketchtool 51.2 (57519) - http://www.bohemiancoding.com/sketch -->
    <title>5579B60E-A5A4-4417-AFC3-D353AB4570E7</title>
    <desc>Created with sketchtool.</desc>
    <defs>
        <path d="M0.0502008032,4.26706827 C0.0502008032,2.15863454 1.75702811,0.451807229 3.86546185,0.451807229 L5.22088353,0.451807229 C7.32931727,0.451807229 9.03614458,2.15863454 9.03614458,4.26706827 L9.03614458,6.67670683 C9.03614458,8.78514056 7.32931727,10.4919679 5.22088353,10.4919679 L3.86546185,10.4919679 C1.75702811,10.4919679 0.0502008032,8.78514056 0.0502008032,6.67670683 L0.0502008032,4.26706827 Z" id="path-1"></path>
    </defs>
    <g id="Page-1" stroke="none" stroke-width="1" fill="none" fill-rule="evenodd">
        <g id="Circuit_info_05" transform="translate(-170.000000, -160.000000)">
            <g id="assets/circuits_info/93" transform="translate(151.000000, 160.000000)">
                <g id="assets/circuits-info/qatar" stroke-width="1" transform="translate(19.500000, 0.000000)">
                    <g id="trazado" transform="translate(9.538153, 7.530120)" fill="#B7B5B6" fill-rule="nonzero">
                        <path d="M5.82329317,23.0923695 C7.42971888,27.8614458 16.6164659,54.6686747 16.6164659,54.6686747 C16.6164659,54.6686747 16.7168675,54.9698795 16.8172691,55.2710843 C17.5200803,57.1787149 18.7751004,58.8855422 20.5321285,59.7891566 C24.3473896,61.8473896 30.7228916,65.2108434 31.7771084,65.7630522 C37.7008032,68.2228916 39.1566265,79.0160643 32.7811245,81.375502 L17.7710843,90.2108434 C13.9056225,93.3232932 16.5662651,97.2389558 18.8253012,97.2891566 C21.2851406,97.2891566 131.827309,97.3895582 131.827309,97.3895582 C131.827309,97.3895582 132.128514,97.439759 132.228916,97.3895582 C134.889558,97.2891566 135.742972,93.1726908 134.186747,91.6666667 L113.353414,59.688755 C113.353414,59.688755 113.10241,59.2871486 112.801205,58.6345382 C111.345382,55.3212851 111.89759,51.6566265 114.35743,48.8453815 C117.570281,45.0803213 129.919679,30.7228916 129.919679,30.7228916 C132.47992,28.0120482 131.977912,26.0542169 129.96988,23.1927711 L124.096386,12.1485944 C124.096386,12.1485944 123.995984,11.9477912 123.945783,11.8473896 C123.443775,10.9939759 122.690763,10.4919679 121.686747,10.4919679 C118.373494,10.3413655 110.843373,10.2911647 109.889558,10.2409639 C107.630522,10.4417671 105.170683,11.5963855 104.216867,13.8052209 C102.058233,18.7248996 96.3353414,33.1325301 96.3353414,33.1325301 C96.3353414,33.1325301 95.2811245,35.3413655 93.7248996,38.002008 C88.3534137,47.188755 80.1706827,53.9156627 69.2771084,55.9738956 C58.9859438,57.8815261 59.2369478,48.8955823 59.2871486,48.1927711 C59.8393574,43.2228916 61.8473896,38.3032129 63.1526104,33.4839357 C64.3072289,29.7690763 61.2449799,28.1626506 58.9859438,26.0542169 C53.4136546,20.7831325 51.7570281,15.7128514 49.9497992,9.03614458 C48.7449799,4.46787149 43.8253012,4.46787149 42.7208835,9.03614458 C42.4698795,10.0401606 39.3574297,33.935743 39.0562249,36.5461847 C39.1064257,42.6706827 30.6726908,46.937751 27.5100402,39.7088353 C24.748996,33.5341365 22.3895582,24.6987952 20.2811245,18.1726908 C20.2811245,18.1726908 20.2309237,17.9718876 20.1305221,17.8212851 C19.4277108,16.315261 17.7208835,15.8634538 15.6124498,16.1646586 L7.42971888,18.875502 C6.67670683,19.4277108 5.07028112,20.9337349 5.82329317,23.0923695 Z M14.2068273,10.7931727 C18.6746988,9.98995984 24.0963855,11.3955823 25.4518072,16.6164659 C26.3554217,19.4277108 31.8273092,37.248996 32.7811245,38.002008 C33.1325301,37.751004 33.4839357,36.6967871 33.4839357,36.2449799 C33.4839357,36.2449799 34.3875502,29.3674699 35.2911647,22.439759 C36.1947791,15.562249 37.1485944,8.38353414 37.2991968,7.73092369 C39.7590361,-2.61044177 52.560241,-2.20883534 55.1706827,7.63052209 C57.4297189,16.1144578 58.5843373,18.0220884 65.060241,24.246988 C68.2730924,27.3594378 69.7289157,30.3714859 68.373494,35.0401606 C68.3232932,35.2911647 67.4196787,38.5542169 66.5160643,41.9176707 C65.5120482,45.6325301 64.6586345,48.8453815 64.6586345,48.8955823 C64.4076305,51.0542169 66.6164659,50.9538153 68.1726908,50.6526104 C79.4678715,48.5441767 86.4959839,40.9638554 91.2148594,30.9738956 C91.7670683,29.6184739 97.0381526,16.3654618 99.0963855,11.6465863 C100.903614,7.53012048 105.421687,4.91967871 109.688755,4.81927711 C109.688755,4.81927711 118.273092,4.91967871 121.837349,5.07028112 C124.899598,5.17068273 127.710843,7.02811245 128.965863,9.83935743 L134.588353,20.4317269 C137.851406,25.3012048 138.202811,29.8694779 133.885542,34.4879518 C133.032129,35.4919679 121.536145,48.8955823 118.423695,52.5100402 C117.319277,53.815261 117.118474,55.4718876 117.921687,56.8273092 L138.403614,88.3032129 C143.273092,93.373494 138.75502,103.664659 131.526104,102.961847 C126.957831,102.961847 21.0843373,102.861446 18.6746988,102.861446 C10.6927711,102.861446 6.47590361,91.4658635 14.6084337,85.7429719 C14.6084337,85.7429719 18.5240964,83.4337349 22.439759,81.124498 C26.3052209,78.8654618 30.3714859,76.5060241 30.6726908,76.3554217 C31.7269076,75.8534137 31.626506,71.7871486 29.3172691,70.8333333 C29.3172691,70.8333333 21.937751,66.9176707 17.8212851,64.7088353 C14.6586345,63.002008 12.1987952,59.7389558 11.2951807,56.2751004 C10.6425703,54.4176707 2.10843373,29.4678715 0.552208835,24.8995984 C-0.903614458,20.5321285 1.15461847,16.2148594 4.86947791,13.9558233 L14.2068273,10.7931727 Z" id="Shape"></path>
                    </g>
                    <g id="PUNTOS_INTERMEDIOS_Y_SEMAFORO" transform="translate(0.000000, 4.518072)">
                        <path d="M132.329317,19.2771084 C132.228916,19.0763052 132.279116,18.7751004 132.47992,18.6746988 L144.226908,11.8473896 C144.427711,11.746988 144.728916,11.7971888 144.829317,11.997992 C144.929719,12.1987952 144.879518,12.5 144.678715,12.6004016 L132.931727,19.4277108 C132.730924,19.5281124 132.47992,19.4779116 132.329317,19.2771084 Z" id="Shape" fill="#AC1737" fill-rule="nonzero"></path>
                        <path d="M24.246988,38.5542169 C24.2971888,38.8052209 24.1967871,39.0562249 23.9457831,39.1064257 L5.02008032,45.0301205 C4.76907631,45.0803213 4.51807229,44.9799197 4.46787149,44.7289157 C4.41767068,44.4779116 4.51807229,44.2269076 4.76907631,44.1767068 L23.6947791,38.253012 C23.8955823,38.2028112 24.1465863,38.3032129 24.246988,38.5542169 Z" id="Shape" fill="#AC1737" fill-rule="nonzero"></path>
                        <g id="Group" transform="translate(46.686747, 96.887550)" fill-rule="nonzero">
                            <path d="M4.46787149,17.4698795 C4.21686747,17.4698795 4.01606426,17.2690763 4.01606426,17.0180723 L4.01606426,0.451807229 C4.01606426,0.200803213 4.21686747,0 4.46787149,0 C4.7188755,0 4.91967871,0.200803213 4.91967871,0.451807229 L4.91967871,17.0180723 C4.91967871,17.2690763 4.7188755,17.4698795 4.46787149,17.4698795 Z" id="Shape" fill="#AC1737"></path>
                            <path d="M0,16.3654618 C0,14.2570281 1.70682731,12.5502008 3.81526104,12.5502008 L5.17068273,12.5502008 C7.27911647,12.5502008 8.98594378,14.2570281 8.98594378,16.3654618 L8.98594378,18.7751004 C8.98594378,20.8835341 7.27911647,22.5903614 5.17068273,22.5903614 L3.81526104,22.5903614 C1.70682731,22.5903614 0,20.8835341 0,18.7751004 L0,16.3654618 Z" id="Shape" fill="#AC1737"></path>
                            <path d="M3.31325301,18.7248996 C3.61445783,19.0261044 4.01606426,19.1767068 4.41767068,19.1767068 C4.86947791,19.1767068 5.12048193,18.9759036 5.12048193,18.624498 C5.12048193,18.2730924 4.86947791,18.1726908 4.46787149,18.0220884 L3.91566265,17.7710843 C3.51405622,17.6204819 3.062249,17.2690763 3.062249,16.6666667 C3.062249,16.0140562 3.66465863,15.5120482 4.46787149,15.5120482 C4.96987952,15.5120482 5.42168675,15.7128514 5.77309237,16.064257 L5.37148594,16.5160643 C5.12048193,16.315261 4.81927711,16.1646586 4.46787149,16.1646586 C4.06626506,16.1646586 3.81526104,16.3654618 3.81526104,16.6666667 C3.81526104,16.9678715 4.11646586,17.1184739 4.46787149,17.2690763 L5.02008032,17.5200803 C5.52208835,17.7208835 5.87349398,18.0220884 5.87349398,18.624498 C5.87349398,19.2771084 5.32128514,19.8795181 4.36746988,19.8795181 C3.81526104,19.8795181 3.26305221,19.6787149 2.86144578,19.2771084 L3.31325301,18.7248996 Z" id="Shape" fill="#FFFFFF"></path>
                        </g>
                        <g id="Group-Copy" transform="translate(120.983936, 96.887550)" fill="#AC1737" fill-rule="nonzero">
                            <path d="M4.46787149,17.4698795 C4.21686747,17.4698795 4.01606426,17.2690763 4.01606426,17.0180723 L4.01606426,0.451807229 C4.01606426,0.200803213 4.21686747,0 4.46787149,0 C4.7188755,0 4.91967871,0.200803213 4.91967871,0.451807229 L4.91967871,17.0180723 C4.91967871,17.2690763 4.7188755,17.4698795 4.46787149,17.4698795 Z" id="Shape"></path>
                            <path d="M0,16.3654618 C0,14.2570281 1.70682731,12.5502008 3.81526104,12.5502008 L5.17068273,12.5502008 C7.27911647,12.5502008 8.98594378,14.2570281 8.98594378,16.3654618 L8.98594378,18.7751004 C8.98594378,20.8835341 7.27911647,22.5903614 5.17068273,22.5903614 L3.81526104,22.5903614 C1.70682731,22.5903614 0,20.8835341 0,18.7751004 L0,16.3654618 Z" id="Shape"></path>
                        </g>
                        <g id="Group" transform="translate(66.265060, 108.433735)" fill-rule="nonzero">
                            <path d="M0.100401606,4.16666667 C0.100401606,2.05823293 1.80722892,0.351405622 3.96586345,0.351405622 L9.83935743,0.351405622 C11.9477912,0.351405622 13.6546185,2.05823293 13.6546185,4.16666667 L13.6546185,6.57630522 C13.6546185,8.68473896 11.9477912,10.3915663 9.83935743,10.3915663 L3.96586345,10.3915663 C1.85742972,10.3915663 0.100401606,8.68473896 0.100401606,6.57630522 L0.100401606,4.16666667 Z" id="Shape" fill="#AC1737"></path>
                            <g transform="translate(3.514056, 3.012048)" fill="#FFFFFF" id="Shape">
                                <polygon points="0.351405622 0.301204819 2.86144578 0.301204819 2.86144578 0.903614458 1.10441767 0.903614458 1.10441767 2.05823293 2.61044177 2.05823293 2.61044177 2.66064257 1.10441767 2.66064257 1.10441767 4.41767068 0.351405622 4.41767068"></polygon>
                                <polygon points="3.91566265 0.301204819 4.6686747 0.301204819 4.6686747 3.86546185 6.37550201 3.86546185 6.37550201 4.46787149 3.91566265 4.46787149"></polygon>
                            </g>
                        </g>
                        <g id="Group" transform="translate(144.076305, 5.020080)" fill-rule="nonzero">
                            <path d="M0.100401606,4.06626506 C0.100401606,1.95783133 1.80722892,0.200803213 3.91566265,0.200803213 L6.47590361,0.200803213 C8.58433735,0.200803213 10.3413655,1.90763052 10.3413655,4.06626506 L10.3413655,6.62650602 C10.3413655,8.73493976 8.63453815,10.4417671 6.47590361,10.4417671 L3.91566265,10.4417671 C1.80722892,10.4417671 0.100401606,8.73493976 0.100401606,6.62650602 L0.100401606,4.06626506 Z" id="Shape" fill="#AC1737"></path>
                            <g transform="translate(2.510040, 3.012048)" fill="#FFFFFF" id="Shape">
                                <path d="M0.401606426,0.451807229 C0.401606426,0.200803213 0.602409639,0.0502008032 0.853413655,0.0502008032 C1.10441767,0.0502008032 1.30522088,0.200803213 1.30522088,0.451807229 C1.30522088,0.702811245 1.10441767,0.853413655 0.853413655,0.853413655 C0.602409639,0.853413655 0.401606426,0.702811245 0.401606426,0.451807229 Z M0.502008032,1.40562249 L1.25502008,1.40562249 L1.25502008,4.51807229 L0.502008032,4.51807229 L0.502008032,1.40562249 Z"></path>
                                <path d="M2.56024096,3.56425703 C2.81124498,3.81526104 3.1124498,4.01606426 3.51405622,4.01606426 C3.96586345,4.01606426 4.26706827,3.76506024 4.26706827,3.41365462 C4.26706827,3.01204819 4.01606426,2.71084337 3.062249,2.71084337 L3.062249,2.15863454 C3.86546185,2.15863454 4.11646586,1.90763052 4.11646586,1.5060241 C4.11646586,1.15461847 3.86546185,0.953815261 3.51405622,0.953815261 C3.21285141,0.953815261 2.96184739,1.10441767 2.71084337,1.35542169 L2.30923695,0.903614458 C2.66064257,0.602409639 3.062249,0.401606426 3.51405622,0.401606426 C4.26706827,0.401606426 4.81927711,0.803212851 4.81927711,1.45582329 C4.81927711,1.90763052 4.56827309,2.20883534 4.11646586,2.40963855 L4.11646586,2.45983936 C4.6184739,2.61044177 4.96987952,2.91164659 4.96987952,3.46385542 C4.96987952,4.21686747 4.31726908,4.6184739 3.56425703,4.6184739 C2.91164659,4.6184739 2.45983936,4.36746988 2.20883534,4.06626506 L2.56024096,3.56425703 Z"></path>
                            </g>
                        </g>
                        <g id="Group" transform="translate(0.000000, 38.654618)" fill-rule="nonzero">
                            <path d="M0.100401606,4.11646586 C0.100401606,2.00803213 1.80722892,0.301204819 3.96586345,0.301204819 L5.92369478,0.301204819 C8.03212851,0.301204819 9.78915663,2.00803213 9.78915663,4.11646586 L9.78915663,6.87751004 C9.78915663,8.98594378 8.08232932,10.7429719 5.92369478,10.7429719 L3.96586345,10.7429719 C1.85742972,10.7429719 0.100401606,9.03614458 0.100401606,6.87751004 L0.100401606,4.11646586 Z" id="Shape" fill="#AC1737"></path>
                            <g transform="translate(2.510040, 3.012048)" fill="#FFFFFF" id="Shape">
                                <path d="M0.15060241,0.652610442 C0.15060241,0.401606426 0.351405622,0.251004016 0.602409639,0.251004016 C0.853413655,0.251004016 1.05421687,0.401606426 1.05421687,0.652610442 C1.05421687,0.903614458 0.853413655,1.05421687 0.602409639,1.05421687 C0.351405622,1.05421687 0.15060241,0.903614458 0.15060241,0.652610442 Z M0.251004016,1.6064257 L1.00401606,1.6064257 L1.00401606,4.7188755 L0.251004016,4.7188755 L0.251004016,1.6064257 Z"></path>
                                <path d="M2.25903614,4.16666667 L3.1626506,4.16666667 L3.1626506,1.5060241 L2.40963855,1.5060241 L2.40963855,1.00401606 C2.81124498,0.903614458 3.1124498,0.803212851 3.36345382,0.652610442 L3.91566265,0.652610442 L3.91566265,4.11646586 L4.7188755,4.11646586 L4.7188755,4.7188755 L2.25903614,4.7188755 L2.25903614,4.16666667 Z"></path>
                            </g>
                        </g>
                        <g id="Group" transform="translate(68.273092, 0.000000)" fill-rule="nonzero">
                            <path d="M0.351405622,4.21686747 C0.351405622,2.10843373 2.05823293,0.351405622 4.16666667,0.351405622 L6.67670683,0.351405622 C8.78514056,0.351405622 10.5421687,2.05823293 10.5421687,4.21686747 L10.5421687,6.77710843 C10.5421687,8.88554217 8.83534137,10.6425703 6.67670683,10.6425703 L4.16666667,10.6425703 C2.05823293,10.6425703 0.351405622,8.93574297 0.351405622,6.77710843 L0.351405622,4.21686747 Z" id="Shape" fill="#AC1737"></path>
                            <g transform="translate(3.012048, 3.012048)" fill="#FFFFFF" id="Shape">
                                <path d="M0.15060241,0.652610442 C0.15060241,0.401606426 0.351405622,0.251004016 0.602409639,0.251004016 C0.853413655,0.251004016 1.05421687,0.401606426 1.05421687,0.652610442 C1.05421687,0.903614458 0.853413655,1.05421687 0.602409639,1.05421687 C0.351405622,1.05421687 0.15060241,0.903614458 0.15060241,0.652610442 Z M0.251004016,1.6064257 L1.00401606,1.6064257 L1.00401606,4.7188755 L0.251004016,4.7188755 L0.251004016,1.6064257 Z"></path>
                                <path d="M2.00803213,4.31726908 C3.1124498,3.21285141 3.86546185,2.51004016 3.86546185,1.90763052 C3.86546185,1.45582329 3.61445783,1.20481928 3.21285141,1.20481928 C2.91164659,1.20481928 2.66064257,1.40562249 2.40963855,1.65662651 L2.00803213,1.25502008 C2.35943775,0.853413655 2.76104418,0.652610442 3.31325301,0.652610442 C4.06626506,0.652610442 4.6184739,1.15461847 4.6184739,1.90763052 C4.6184739,2.61044177 3.96586345,3.36345382 3.1626506,4.21686747 C3.36345382,4.21686747 3.66465863,4.16666667 3.81526104,4.16666667 L4.81927711,4.16666667 L4.81927711,4.76907631 L2.00803213,4.76907631 L2.00803213,4.31726908 Z"></path>
                            </g>
                        </g>
                        <path d="M56.7269076,14.8594378 C56.626506,14.6586345 56.7269076,14.3574297 56.9277108,14.2570281 L69.2269076,8.53413655 C69.4277108,8.43373494 69.7289157,8.53413655 69.8293173,8.73493976 C69.9297189,8.93574297 69.8293173,9.23694779 69.6285141,9.3373494 L57.2791165,15.060241 C57.0783133,15.1606426 56.8273092,15.060241 56.7269076,14.8594378 Z" id="Shape" fill="#AC1737" fill-rule="nonzero"></path>
                        <path d="M72.7911647,109.688755 C73.0421687,109.688755 73.2429719,109.487952 73.2429719,109.236948 L73.2429719,96.5361446 C73.2429719,96.2851406 73.0421687,96.1345382 72.8413655,96.1345382 L63.9558233,96.1345382 C63.7048193,96.1345382 63.5040161,96.3353414 63.5040161,96.5863454 C63.5040161,96.8373494 63.7048193,97.0381526 63.9558233,97.0381526 L72.188755,97.0381526 C72.2891566,97.0381526 72.3393574,97.1385542 72.3393574,97.188755 L72.3393574,109.236948 C72.3895582,109.538153 72.5903614,109.688755 72.7911647,109.688755 Z" id="Shape" fill="#AC1737" fill-rule="nonzero"></path>
                        <path d="M62.3493976,96.8373494 C62.1485944,96.7369478 62.1485944,96.4859438 62.3493976,96.3855422 L63.9558233,95.4819277 L65.562249,94.5783133 C65.7630522,94.4779116 65.9638554,94.6285141 65.9638554,94.8293173 L65.9638554,96.686747 L65.9638554,98.5441767 C65.9638554,98.7449799 65.7630522,98.8955823 65.562249,98.7951807 L63.9558233,97.8915663 L62.3493976,96.8373494 Z" id="Shape" fill="#AC1737" fill-rule="nonzero"></path>
                        <g id="Group" transform="translate(81.827309, 108.433735)">
                            <path d="M0.401606426,3.91566265 C0.401606426,1.80722892 2.10843373,0.100401606 4.21686747,0.100401606 L27.2088353,0.100401606 C29.3172691,0.100401606 31.0240964,1.80722892 31.0240964,3.91566265 L31.0240964,8.08232932 C31.0240964,10.1907631 29.3172691,11.8975904 27.2088353,11.8975904 L4.21686747,11.8975904 C2.10843373,11.8975904 0.401606426,10.1907631 0.401606426,8.08232932 L0.401606426,3.91566265 Z" id="Shape" fill="#7B7C7D" fill-rule="nonzero"></path>
                            <g transform="translate(21.084337, 0.502008)" fill-rule="nonzero" id="Shape">
                                <path d="M3.86546185,10.2911647 C1.90763052,10.2911647 0.301204819,8.68473896 0.301204819,6.72690763 L0.301204819,4.31726908 C0.301204819,2.35943775 1.90763052,0.753012048 3.86546185,0.753012048 L5.22088353,0.753012048 C7.17871486,0.753012048 8.78514056,2.35943775 8.78514056,4.31726908 L8.78514056,6.72690763 C8.78514056,8.68473896 7.17871486,10.2911647 5.22088353,10.2911647 L3.86546185,10.2911647 Z" fill="#FFFFFF"></path>
                                <path d="M5.22088353,0.953815261 C7.07831325,0.953815261 8.53413655,2.45983936 8.53413655,4.26706827 L8.53413655,6.67670683 C8.53413655,8.53413655 7.02811245,9.98995984 5.22088353,9.98995984 L3.86546185,9.98995984 C2.00803213,9.98995984 0.552208835,8.48393574 0.552208835,6.67670683 L0.552208835,4.26706827 C0.552208835,2.40963855 2.05823293,0.953815261 3.86546185,0.953815261 L5.22088353,0.953815261 Z M5.22088353,0.451807229 L3.86546185,0.451807229 C1.75702811,0.451807229 0.0502008032,2.15863454 0.0502008032,4.26706827 L0.0502008032,6.67670683 C0.0502008032,8.78514056 1.75702811,10.4919679 3.86546185,10.4919679 L5.22088353,10.4919679 C7.32931727,10.4919679 9.03614458,8.78514056 9.03614458,6.67670683 L9.03614458,4.26706827 C9.08634538,2.15863454 7.32931727,0.451807229 5.22088353,0.451807229 Z" fill="#C7C6C5"></path>
                            </g>
                            <g id="Clipped" transform="translate(21.084337, 0.502008)">
                                <mask id="mask-2" fill="white">
                                    <use xlink:href="#path-1"></use>
                                </mask>
                                <g id="SVGID_3_"></g>
                                <g id="Group" mask="url(#mask-2)" fill="#1E1E1C" fill-rule="nonzero">
                                    <g transform="translate(-3.012048, 1.004016)" id="Rectangle-path">
                                        <rect x="0.401606426" y="0.301204819" width="2.10843373" height="2.10843373"></rect>
                                        <rect x="2.45983936" y="2.35943775" width="2.10843373" height="2.10843373"></rect>
                                        <rect x="4.56827309" y="0.301204819" width="2.10843373" height="2.10843373"></rect>
                                        <rect x="6.67670683" y="2.35943775" width="2.10843373" height="2.10843373"></rect>
                                        <rect x="0.401606426" y="4.46787149" width="2.10843373" height="2.10843373"></rect>
                                        <rect x="2.45983936" y="6.57630522" width="2.10843373" height="2.10843373"></rect>
                                        <rect x="4.56827309" y="4.46787149" width="2.10843373" height="2.10843373"></rect>
                                        <rect x="6.67670683" y="6.57630522" width="2.10843373" height="2.10843373"></rect>
                                        <rect x="8.73493976" y="0.301204819" width="2.10843373" height="2.10843373"></rect>
                                        <rect x="10.8433735" y="2.35943775" width="2.10843373" height="2.10843373"></rect>
                                        <rect x="8.73493976" y="4.46787149" width="2.10843373" height="2.10843373"></rect>
                                        <rect x="10.8433735" y="6.57630522" width="2.10843373" height="2.10843373"></rect>
                                    </g>
                                </g>
                            </g>
                            <g transform="translate(1.004016, 0.502008)" fill-rule="nonzero" id="Shape">
                                <path d="M4.11646586,10.2911647 C2.15863454,10.2911647 0.552208835,8.68473896 0.552208835,6.72690763 L0.552208835,4.31726908 C0.552208835,2.35943775 2.15863454,0.753012048 4.11646586,0.753012048 L5.47188755,0.753012048 C7.42971888,0.753012048 9.03614458,2.35943775 9.03614458,4.31726908 L9.03614458,6.72690763 C9.03614458,8.68473896 7.42971888,10.2911647 5.47188755,10.2911647 L4.11646586,10.2911647 Z" fill="#C01724"></path>
                                <path d="M5.47188755,0.953815261 C7.32931727,0.953815261 8.78514056,2.45983936 8.78514056,4.26706827 L8.78514056,6.67670683 C8.78514056,8.53413655 7.27911647,9.98995984 5.47188755,9.98995984 L4.11646586,9.98995984 C2.25903614,9.98995984 0.803212851,8.48393574 0.803212851,6.67670683 L0.803212851,4.26706827 C0.803212851,2.40963855 2.30923695,0.953815261 4.11646586,0.953815261 L5.47188755,0.953815261 Z M5.47188755,0.451807229 L4.11646586,0.451807229 C2.00803213,0.451807229 0.301204819,2.15863454 0.301204819,4.26706827 L0.301204819,6.67670683 C0.301204819,8.78514056 2.00803213,10.4919679 4.11646586,10.4919679 L5.47188755,10.4919679 C7.58032129,10.4919679 9.28714859,8.78514056 9.28714859,6.67670683 L9.28714859,4.26706827 C9.28714859,2.15863454 7.58032129,0.451807229 5.47188755,0.451807229 Z" fill="#AA1920"></path>
                            </g>
                            <g transform="translate(11.044177, 0.502008)" fill-rule="nonzero" id="Shape">
                                <path d="M4.01606426,10.2911647 C2.05823293,10.2911647 0.451807229,8.68473896 0.451807229,6.72690763 L0.451807229,4.31726908 C0.451807229,2.35943775 2.05823293,0.753012048 4.01606426,0.753012048 L5.37148594,0.753012048 C7.32931727,0.753012048 8.93574297,2.35943775 8.93574297,4.31726908 L8.93574297,6.72690763 C8.93574297,8.68473896 7.32931727,10.2911647 5.37148594,10.2911647 L4.01606426,10.2911647 Z" fill="#009548"></path>
                                <path d="M5.37148594,0.953815261 C7.22891566,0.953815261 8.68473896,2.45983936 8.68473896,4.26706827 L8.68473896,6.67670683 C8.68473896,8.53413655 7.17871486,9.98995984 5.37148594,9.98995984 L4.01606426,9.98995984 C2.15863454,9.98995984 0.702811245,8.48393574 0.702811245,6.67670683 L0.702811245,4.26706827 C0.702811245,2.40963855 2.20883534,0.953815261 4.01606426,0.953815261 L5.37148594,0.953815261 Z M5.37148594,0.451807229 L4.01606426,0.451807229 C1.90763052,0.451807229 0.200803213,2.15863454 0.200803213,4.26706827 L0.200803213,6.67670683 C0.200803213,8.78514056 1.90763052,10.4919679 4.01606426,10.4919679 L5.37148594,10.4919679 C7.47991968,10.4919679 9.18674699,8.78514056 9.18674699,6.67670683 L9.18674699,4.26706827 C9.18674699,2.15863454 7.47991968,0.451807229 5.37148594,0.451807229 Z" fill="#006139"></path>
                            </g>
                            <path d="M26.3052209,1.45582329 C28.1626506,1.45582329 29.6184739,2.96184739 29.6184739,4.76907631 L29.6184739,7.17871486 C29.6184739,9.03614458 28.1124498,10.4919679 26.3052209,10.4919679 L24.9497992,10.4919679 C23.0923695,10.4919679 21.6365462,8.98594378 21.6365462,7.17871486 L21.6365462,4.76907631 C21.6365462,2.91164659 23.1425703,1.45582329 24.9497992,1.45582329 L26.3052209,1.45582329 Z M26.3052209,0.953815261 L24.9497992,0.953815261 C22.8413655,0.953815261 21.1345382,2.66064257 21.1345382,4.76907631 L21.1345382,7.17871486 C21.1345382,9.28714859 22.8413655,10.9939759 24.9497992,10.9939759 L26.3052209,10.9939759 C28.4136546,10.9939759 30.1204819,9.28714859 30.1204819,7.17871486 L30.1204819,4.76907631 C30.1706827,2.66064257 28.4136546,0.953815261 26.3052209,0.953815261 Z" id="Shape" fill="#C7C6C5" fill-rule="nonzero"></path>
                        </g>
                    </g>
                    <g id="textos_y_numeros" transform="translate(2.008032, 0.000000)" fill="#7B7C7D" fill-rule="nonzero">
                        <path d="M11.9477912,108.935743 L12.8012048,108.935743 L12.8012048,106.927711 L12.0481928,106.927711 L12.0481928,106.2751 C12.5,106.174699 12.8012048,106.074297 13.0522088,105.873494 L13.8554217,105.873494 L13.8554217,108.935743 L14.5582329,108.935743 L14.5582329,109.789157 L11.9477912,109.789157 L11.9477912,108.935743 Z" id="Shape"></path>
                        <path d="M49.246988,81.1746988 C50.2008032,80.3212851 50.9036145,79.6686747 50.9036145,79.1164659 C50.9036145,78.7650602 50.7028112,78.6144578 50.4016064,78.6144578 C50.1506024,78.6144578 49.9497992,78.815261 49.748996,78.9658635 L49.1967871,78.4136546 C49.5983936,77.9618474 50,77.7610442 50.5522088,77.7610442 C51.3554217,77.7610442 51.9076305,78.2630522 51.9076305,79.0662651 C51.9076305,79.7188755 51.3052209,80.3714859 50.8032129,80.9236948 C51.0040161,80.9236948 51.3052209,80.873494 51.4558233,80.873494 L52.1084337,80.873494 L52.1084337,81.7771084 L49.246988,81.7771084 L49.246988,81.1746988 Z" id="Shape"></path>
                        <path d="M16.2148594,74.0461847 C16.4658635,74.246988 16.7168675,74.3975904 17.0180723,74.3975904 C17.3694779,74.3975904 17.5702811,74.2971888 17.5702811,74.0461847 C17.5702811,73.7449799 17.4196787,73.5943775 16.5662651,73.5943775 L16.5662651,72.8413655 C17.2188755,72.8413655 17.4196787,72.6907631 17.4196787,72.3895582 C17.4196787,72.1385542 17.2690763,72.0381526 17.0180723,72.0381526 C16.7670683,72.0381526 16.5662651,72.1385542 16.315261,72.3393574 L15.7630522,71.686747 C16.1646586,71.3855422 16.5662651,71.184739 17.0180723,71.184739 C17.8714859,71.184739 18.4236948,71.5863454 18.4236948,72.2891566 C18.4236948,72.6907631 18.2228916,72.9417671 17.7710843,73.1425703 C18.2228916,73.2931727 18.5240964,73.5943775 18.5240964,74.0963855 C18.5240964,74.8493976 17.8212851,75.251004 17.0180723,75.251004 C16.3654618,75.251004 15.9136546,75.0502008 15.6124498,74.6987952 L16.2148594,74.0461847 Z" id="Shape"></path>
                        <path d="M3.1124498,23.0923695 L2.71084337,23.0923695 L2.71084337,23.9959839 L1.70682731,23.9959839 L1.70682731,23.0923695 L0,23.0923695 L0,22.3393574 L1.35542169,20.0301205 L2.66064257,20.0301205 L2.66064257,22.2891566 L3.062249,22.2891566 L3.062249,23.0923695 L3.1124498,23.0923695 Z M1.70682731,22.2891566 L1.70682731,21.8373494 C1.70682731,21.5863454 1.70682731,21.184739 1.75702811,20.8835341 C1.65662651,21.1345382 1.5562249,21.3353414 1.45582329,21.5863454 L1.00401606,22.2891566 L1.70682731,22.2891566 Z" id="Shape"></path>
                        <path d="M25.9538153,14.5080321 C26.2048193,14.7088353 26.4558233,14.8594378 26.7570281,14.8594378 C27.1084337,14.8594378 27.3594378,14.7088353 27.3594378,14.3574297 C27.3594378,14.0060241 27.1586345,13.8554217 26.8072289,13.8554217 C26.6064257,13.8554217 26.5060241,13.9056225 26.2550201,14.0562249 L25.8032129,13.7550201 L25.9036145,11.746988 L28.2128514,11.746988 L28.2128514,12.6506024 L26.8072289,12.6506024 L26.7570281,13.2028112 C26.9076305,13.1526104 27.0080321,13.1526104 27.1084337,13.1526104 C27.811245,13.1526104 28.3634538,13.5542169 28.3634538,14.3574297 C28.3634538,15.2610442 27.6606426,15.7630522 26.8574297,15.7630522 C26.2048193,15.7630522 25.753012,15.5120482 25.4518072,15.2108434 L25.9538153,14.5080321 Z" id="Shape"></path>
                        <path d="M43.6746988,55.6726908 C43.5742972,55.5220884 43.3232932,55.4216867 43.0722892,55.4216867 C42.6706827,55.4216867 42.3694779,55.6726908 42.3694779,56.4759036 C42.5702811,56.2248996 42.8714859,56.0742972 43.12249,56.0742972 C43.7751004,56.0742972 44.3273092,56.4257028 44.3273092,57.2791165 C44.3273092,58.1325301 43.7248996,58.6345382 42.9718876,58.6345382 C42.2188755,58.6345382 41.4156627,58.0823293 41.4156627,56.6767068 C41.4156627,55.2710843 42.2188755,54.5682731 43.0220884,54.5682731 C43.5742972,54.5682731 43.9759036,54.8192771 44.2269076,55.0702811 L43.6746988,55.6726908 Z M43.2730924,57.2791165 C43.2730924,56.87751 43.0722892,56.8273092 42.8212851,56.8273092 C42.6204819,56.8273092 42.4698795,56.9277108 42.3192771,57.1787149 C42.4196787,57.7309237 42.6204819,57.8815261 42.8212851,57.8815261 C43.0722892,57.8313253 43.2730924,57.6807229 43.2730924,57.2791165 Z" id="Shape"></path>
                        <path d="M50.2008032,1.20481928 L48.4939759,1.20481928 L48.4939759,0.301204819 L51.3052209,0.301204819 L51.3052209,0.953815261 C50.4016064,2.00803213 50.3012048,2.71084337 50.251004,4.21686747 L49.1967871,4.21686747 C49.246988,3.01204819 49.4477912,2.20883534 50.2008032,1.20481928 Z" id="Shape"></path>
                        <path d="M69.2269076,20.6827309 C68.9257028,20.4317269 68.7248996,20.1305221 68.7248996,19.7289157 C68.7248996,19.0261044 69.2771084,18.624498 70.0301205,18.624498 C70.7831325,18.624498 71.2349398,19.0261044 71.2349398,19.7289157 C71.2349398,20.0803213 71.0341365,20.3815261 70.7329317,20.5321285 C71.1345382,20.7329317 71.3855422,21.0341365 71.3855422,21.5863454 C71.3855422,22.2389558 70.8333333,22.6907631 69.9297189,22.6907631 C69.126506,22.6907631 68.5240964,22.2389558 68.5240964,21.6365462 C68.5742972,21.1345382 68.8253012,20.8835341 69.2269076,20.6827309 Z M69.9799197,21.937751 C70.2309237,21.937751 70.4317269,21.8373494 70.4317269,21.5361446 C70.4317269,21.2349398 70.1807229,21.1345382 69.6787149,20.9337349 C69.5783133,21.0843373 69.4779116,21.2851406 69.4779116,21.4859438 C69.4779116,21.7871486 69.7289157,21.937751 69.9799197,21.937751 Z M70.3815261,19.7791165 C70.3815261,19.5281124 70.2309237,19.3273092 69.9799197,19.3273092 C69.7791165,19.3273092 69.6285141,19.4277108 69.6285141,19.7289157 C69.6285141,19.9799197 69.8293173,20.1305221 70.2309237,20.2811245 C70.3313253,20.1305221 70.3815261,19.9297189 70.3815261,19.7791165 Z" id="Shape"></path>
                        <path d="M80.6726908,33.9859438 C80.7730924,34.1365462 81.0240964,34.2369478 81.2751004,34.2369478 C81.6767068,34.2369478 81.9779116,33.9859438 81.9779116,33.1827309 C81.7771084,33.4337349 81.4759036,33.5843373 81.2248996,33.5843373 C80.5722892,33.5843373 80.0200803,33.2329317 80.0200803,32.3795181 C80.0200803,31.5261044 80.62249,31.0240964 81.375502,31.0240964 C82.1285141,31.0240964 82.9317269,31.5763052 82.9317269,32.9819277 C82.9317269,34.3875502 82.1285141,35.0903614 81.3253012,35.0903614 C80.7730924,35.0903614 80.3714859,34.8393574 80.1204819,34.5883534 L80.6726908,33.9859438 Z M81.9779116,32.5301205 C81.87751,31.9779116 81.6767068,31.8273092 81.4759036,31.8273092 C81.2751004,31.8273092 81.0742972,31.9779116 81.0742972,32.3795181 C81.0742972,32.7811245 81.2751004,32.8313253 81.5261044,32.8313253 C81.626506,32.8313253 81.8273092,32.7309237 81.9779116,32.5301205 Z" id="Shape"></path>
                        <g id="Group" transform="translate(68.273092, 67.771084)">
                            <path d="M0.451807229,3.56425703 L1.30522088,3.56425703 L1.30522088,1.5562249 L0.552208835,1.5562249 L0.552208835,0.903614458 C1.00401606,0.803212851 1.30522088,0.702811245 1.5562249,0.502008032 L2.35943775,0.502008032 L2.35943775,3.56425703 L3.062249,3.56425703 L3.062249,4.41767068 L0.451807229,4.41767068 L0.451807229,3.56425703 Z" id="Shape"></path>
                            <path d="M3.56425703,2.45983936 C3.56425703,1.10441767 4.16666667,0.451807229 5.02008032,0.451807229 C5.87349398,0.451807229 6.47590361,1.15461847 6.47590361,2.45983936 C6.47590361,3.81526104 5.87349398,4.51807229 5.02008032,4.51807229 C4.16666667,4.51807229 3.56425703,3.76506024 3.56425703,2.45983936 Z M5.52208835,2.45983936 C5.52208835,1.40562249 5.32128514,1.25502008 5.07028112,1.25502008 C4.81927711,1.25502008 4.6184739,1.40562249 4.6184739,2.45983936 C4.6184739,3.51405622 4.81927711,3.71485944 5.07028112,3.71485944 C5.32128514,3.71485944 5.52208835,3.46385542 5.52208835,2.45983936 Z" id="Shape"></path>
                        </g>
                        <g id="Group" transform="translate(101.907631, 49.698795)">
                            <path d="M0.15060241,3.31325301 L1.00401606,3.31325301 L1.00401606,1.30522088 L0.251004016,1.30522088 L0.251004016,0.652610442 C0.702811245,0.552208835 1.00401606,0.451807229 1.25502008,0.251004016 L2.05823293,0.251004016 L2.05823293,3.31325301 L2.76104418,3.31325301 L2.76104418,4.16666667 L0.15060241,4.16666667 L0.15060241,3.31325301 Z" id="Shape"></path>
                            <path d="M3.51405622,3.31325301 L4.36746988,3.31325301 L4.36746988,1.30522088 L3.61445783,1.30522088 L3.61445783,0.652610442 C4.06626506,0.552208835 4.36746988,0.451807229 4.6184739,0.251004016 L5.42168675,0.251004016 L5.42168675,3.31325301 L6.12449799,3.31325301 L6.12449799,4.16666667 L3.51405622,4.16666667 L3.51405622,3.31325301 Z" id="Shape"></path>
                        </g>
                        <g id="Group" transform="translate(104.417671, 5.522088)">
                            <path d="M0.401606426,3.46385542 L1.25502008,3.46385542 L1.25502008,1.45582329 L0.502008032,1.45582329 L0.502008032,0.803212851 C0.953815261,0.702811245 1.25502008,0.602409639 1.5060241,0.401606426 L2.30923695,0.401606426 L2.30923695,3.46385542 L3.01204819,3.46385542 L3.01204819,4.31726908 L0.401606426,4.31726908 L0.401606426,3.46385542 Z" id="Shape"></path>
                            <path d="M3.56425703,3.71485944 C4.51807229,2.86144578 5.22088353,2.20883534 5.22088353,1.65662651 C5.22088353,1.30522088 5.02008032,1.15461847 4.7188755,1.15461847 C4.46787149,1.15461847 4.26706827,1.35542169 4.06626506,1.5060241 L3.51405622,0.953815261 C3.91566265,0.502008032 4.31726908,0.301204819 4.86947791,0.301204819 C5.67269076,0.301204819 6.2248996,0.803212851 6.2248996,1.6064257 C6.2248996,2.25903614 5.62248996,2.91164659 5.12048193,3.46385542 C5.32128514,3.46385542 5.62248996,3.41365462 5.77309237,3.41365462 L6.42570281,3.41365462 L6.42570281,4.31726908 L3.56425703,4.31726908 L3.56425703,3.71485944 Z" id="Shape"></path>
                        </g>
                        <g id="Group" transform="translate(132.028112, 4.518072)">
                            <path d="M0.0502008032,3.56425703 L0.903614458,3.56425703 L0.903614458,1.5562249 L0.15060241,1.5562249 L0.15060241,0.903614458 C0.602409639,0.803212851 0.903614458,0.702811245 1.15461847,0.502008032 L1.95783133,0.502008032 L1.95783133,3.56425703 L2.66064257,3.56425703 L2.66064257,4.41767068 L0.0502008032,4.41767068 L0.0502008032,3.56425703 Z" id="Shape"></path>
                            <path d="M3.56425703,3.26305221 C3.81526104,3.46385542 4.06626506,3.61445783 4.36746988,3.61445783 C4.7188755,3.61445783 4.91967871,3.51405622 4.91967871,3.26305221 C4.91967871,2.96184739 4.76907631,2.81124498 3.91566265,2.81124498 L3.91566265,2.05823293 C4.56827309,2.05823293 4.76907631,1.90763052 4.76907631,1.6064257 C4.76907631,1.35542169 4.6184739,1.25502008 4.36746988,1.25502008 C4.11646586,1.25502008 3.91566265,1.35542169 3.66465863,1.5562249 L3.1124498,0.903614458 C3.51405622,0.602409639 3.91566265,0.401606426 4.36746988,0.401606426 C5.22088353,0.401606426 5.77309237,0.803212851 5.77309237,1.5060241 C5.77309237,1.90763052 5.57228916,2.15863454 5.12048193,2.35943775 C5.57228916,2.51004016 5.87349398,2.81124498 5.87349398,3.31325301 C5.87349398,4.06626506 5.17068273,4.46787149 4.36746988,4.46787149 C3.71485944,4.46787149 3.26305221,4.26706827 2.96184739,3.91566265 L3.56425703,3.26305221 Z" id="Shape"></path>
                        </g>
                        <g id="Group" transform="translate(148.092369, 32.128514)">
                            <path d="M0.351405622,3.1626506 L1.20481928,3.1626506 L1.20481928,1.15461847 L0.451807229,1.15461847 L0.451807229,0.502008032 C0.903614458,0.401606426 1.20481928,0.301204819 1.45582329,0.100401606 L2.25903614,0.100401606 L2.25903614,3.1626506 L2.96184739,3.1626506 L2.96184739,4.01606426 L0.351405622,4.01606426 L0.351405622,3.1626506 Z" id="Shape"></path>
                            <path d="M6.47590361,3.1626506 L6.07429719,3.1626506 L6.07429719,4.01606426 L5.07028112,4.01606426 L5.07028112,3.1124498 L3.41365462,3.1124498 L3.41365462,2.35943775 L4.76907631,0.0502008032 L6.07429719,0.0502008032 L6.07429719,2.30923695 L6.47590361,2.30923695 L6.47590361,3.1626506 Z M5.07028112,2.35943775 L5.07028112,1.90763052 C5.07028112,1.65662651 5.07028112,1.25502008 5.12048193,0.953815261 C5.02008032,1.20481928 4.91967871,1.40562249 4.81927711,1.65662651 L4.46787149,2.30923695 L5.07028112,2.30923695 L5.07028112,2.35943775 Z" id="Shape"></path>
                        </g>
                        <g id="Group" transform="translate(110.441767, 60.240964)">
                            <path d="M0.0502008032,3.36345382 L0.903614458,3.36345382 L0.903614458,1.35542169 L0.15060241,1.35542169 L0.15060241,0.702811245 C0.602409639,0.602409639 0.903614458,0.502008032 1.15461847,0.301204819 L1.95783133,0.301204819 L1.95783133,3.36345382 L2.66064257,3.36345382 L2.66064257,4.21686747 L0.0502008032,4.21686747 L0.0502008032,3.36345382 Z" id="Shape"></path>
                            <path d="M3.56425703,3.1124498 C3.81526104,3.31325301 4.06626506,3.46385542 4.36746988,3.46385542 C4.7188755,3.46385542 4.96987952,3.31325301 4.96987952,2.96184739 C4.96987952,2.61044177 4.76907631,2.45983936 4.41767068,2.45983936 C4.21686747,2.45983936 4.11646586,2.51004016 3.86546185,2.66064257 L3.41365462,2.35943775 L3.51405622,0.351405622 L5.82329317,0.351405622 L5.82329317,1.25502008 L4.41767068,1.25502008 L4.36746988,1.80722892 C4.51807229,1.75702811 4.6184739,1.75702811 4.7188755,1.75702811 C5.42168675,1.75702811 5.97389558,2.15863454 5.97389558,2.96184739 C5.97389558,3.86546185 5.27108434,4.36746988 4.46787149,4.36746988 C3.81526104,4.36746988 3.36345382,4.11646586 3.062249,3.81526104 L3.56425703,3.1124498 Z" id="Shape"></path>
                        </g>
                        <g id="Group" transform="translate(151.606426, 104.417671)">
                            <path d="M0.451807229,3.31325301 L1.30522088,3.31325301 L1.30522088,1.30522088 L0.552208835,1.30522088 L0.552208835,0.652610442 C1.00401606,0.552208835 1.30522088,0.451807229 1.5562249,0.251004016 L2.35943775,0.251004016 L2.35943775,3.31325301 L3.062249,3.31325301 L3.062249,4.16666667 L0.451807229,4.16666667 L0.451807229,3.31325301 Z" id="Shape"></path>
                            <path d="M5.92369478,1.30522088 C5.82329317,1.15461847 5.57228916,1.05421687 5.32128514,1.05421687 C4.91967871,1.05421687 4.6184739,1.30522088 4.6184739,2.10843373 C4.81927711,1.85742972 5.12048193,1.70682731 5.37148594,1.70682731 C6.02409639,1.70682731 6.57630522,2.05823293 6.57630522,2.91164659 C6.57630522,3.76506024 5.97389558,4.26706827 5.22088353,4.26706827 C4.46787149,4.26706827 3.66465863,3.71485944 3.66465863,2.30923695 C3.66465863,0.903614458 4.46787149,0.200803213 5.27108434,0.200803213 C5.82329317,0.200803213 6.2248996,0.451807229 6.47590361,0.702811245 L5.92369478,1.30522088 Z M5.57228916,2.91164659 C5.57228916,2.51004016 5.37148594,2.45983936 5.12048193,2.45983936 C4.91967871,2.45983936 4.76907631,2.56024096 4.6184739,2.81124498 C4.7188755,3.36345382 4.91967871,3.51405622 5.12048193,3.51405622 C5.37148594,3.46385542 5.57228916,3.36345382 5.57228916,2.91164659 Z" id="Shape"></path>
                        </g>
                    </g>
                </g>
                <path d="M122.5,120.719875 L122.5,116.5 L125.048701,116.5 L125.048701,117.132336 L123.248479,117.132336 L123.248479,118.326031 L124.7777,118.326031 L124.7777,118.958367 L123.248479,118.958367 L123.248479,120.719875 L122.5,120.719875 Z M125.764918,120.719875 L125.764918,116.5 L126.513398,116.5 L126.513398,120.087539 L128.262,120.087539 L128.262,120.719875 L125.764918,120.719875 Z" id="FL" fill="#FFFFFF"></path>
            </g>
        </g>
    </g>
</svg>