<?xml version="1.0" encoding="UTF-8"?>
<svg width="200px" height="119px" viewBox="0 0 200 119" version="1.1" xmlns="http://www.w3.org/2000/svg" xmlns:xlink="http://www.w3.org/1999/xlink">
    <!-- Generator: sketchtool 51.2 (57519) - http://www.bohemiancoding.com/sketch -->
    <title>EEB1327A-E6EE-4349-9CDC-F452B252FFD1</title>
    <desc>Created with sketchtool.</desc>
    <defs>
        <path d="M0.19047619,3.66666667 C0.19047619,1.66666667 1.80952381,0.0476190476 3.80952381,0.0476190476 L5.0952381,0.0476190476 C7.0952381,0.0476190476 8.71428571,1.66666667 8.71428571,3.66666667 L8.71428571,5.95238095 C8.71428571,7.95238095 7.0952381,9.57142857 5.0952381,9.57142857 L3.80952381,9.57142857 C1.80952381,9.57142857 0.19047619,7.95238095 0.19047619,5.95238095 L0.19047619,3.66666667 Z" id="path-1"></path>
    </defs>
    <g id="Page-1" stroke="none" stroke-width="1" fill="none" fill-rule="evenodd">
        <g id="Circuit_info_05" transform="translate(-151.000000, -682.000000)">
            <g id="assets/circuits_info/102" transform="translate(151.000000, 679.000000)">
                <g id="assets/circuits_info/Misano-WCM-Simoncelli" transform="translate(0.000000, 3.500000)">
                    <g id="trazado" transform="translate(5.714286, 0.000000)" fill="#B7B5B6" fill-rule="nonzero">
                        <path d="M4.42857143,44.3809524 C3.9047619,44.8095238 3.95238095,45.1904762 4.23809524,45.7619048 L6.66666667,48.6190476 L16.9047619,60.6190476 C23.3333333,68.3809524 26.6190476,71.5714286 37.047619,72.7142857 C39.2857143,72.952381 41.8095238,71.8571429 43.3809524,70.2380952 C43.3809524,70.2380952 44.8095238,68.8571429 46.2857143,67.4761905 C48.4285714,65.4285714 51.1428571,62.3333333 54.3809524,62.3333333 C58.9047619,62.3333333 62.5238095,67.3809524 65.2380952,70.4285714 C65.2380952,70.4285714 65.4285714,70.7142857 65.5238095,70.8571429 C67.4761905,73.4761905 70.5238095,73.8095238 73.3809524,72.2857143 L90.8095238,65.4761905 L113.714286,56.4761905 L134.666667,48.1428571 L149.52381,42.7619048 C152.047619,41.5238095 156.095238,43.7142857 157.333333,46 C158.095238,47.4285714 161.619048,53.6190476 161.619048,53.6190476 L168.904762,66.5714286 L174.190476,76.047619 C174.190476,76.047619 174.333333,76.3333333 174.52381,76.8095238 C175.428571,79.1428571 175.238095,81.7619048 174,83.952381 C172.190476,87.0952381 164.142857,98.1904762 164.142857,98.1904762 C163.714286,98.7142857 160.142857,103.52381 160.571429,104.857143 C160.904762,106.095238 161.857143,106.714286 163.666667,105.809524 C166.333333,104.47619 179.714286,96.1904762 179.714286,96.1904762 C179.714286,96.1904762 179.857143,96.0952381 179.952381,96 C181.428571,94.7619048 181.761905,92.5238095 181.619048,90.7142857 C181.142857,85.4285714 180.619048,75.7142857 180.571429,74.8571429 C180.285714,72.4285714 179.333333,69.6666667 177.904762,67.6666667 C175.333333,64.1428571 156.095238,37.8571429 156.095238,37.8571429 C156.095238,37.8571429 156,37.7142857 155.857143,37.5714286 C154.571429,36.0952381 152.809524,35.047619 151,34.3333333 C146.809524,32.7142857 114.809524,20.2857143 114.809524,20.2857143 L77.2857143,5.71428571 L74.1904762,4.57142857 C71.3333333,3.71428571 66,3.0952381 65.1428571,7.14285714 C64.6666667,9.23809524 68.5714286,12.7142857 70,14.4285714 L70.1428571,14.6666667 C72.8095238,17.8095238 88.5714286,20.6190476 92.5238095,21.4761905 C99.9047619,23.0952381 112.619048,26.0952381 119.571429,29.5714286 C122.952381,31.2857143 126.857143,33.7619048 127.47619,37.8571429 C128.142857,41.0952381 126.047619,44 123.190476,45.4761905 C123.190476,45.4761905 120.428571,46.8095238 114.52381,48.1428571 C108.904762,49.4285714 92.4285714,53.2857143 92.4285714,53.2857143 C84.6666667,55.2857143 73.5238095,57.5238095 65.5238095,57.6666667 C53.8095238,57.8571429 42.0952381,58.4285714 30.4285714,58.8571429 C22.0952381,59.5714286 21.2380952,59.5714286 17.7619048,50.9047619 L14.6190476,44.5714286 L14.4761905,44.2380952 C13.5714286,42.5714286 6.23809524,44.1428571 4.42857143,44.3809524 Z M72.8571429,0.285714286 C74.2857143,0.571428571 75.4761905,0.952380952 75.4761905,0.952380952 L78.6666667,2.14285714 L116.190476,16.6190476 C116.190476,16.6190476 148.142857,29.047619 152.333333,30.6666667 C154.761905,31.5714286 157.619048,33.3333333 159.190476,35.5238095 C159.190476,35.5238095 178.428571,61.8095238 181,65.2857143 C182.809524,67.7142857 184.142857,71.3809524 184.428571,74.4285714 C184.428571,74.4285714 185,84.8095238 185.47619,90.2380952 C185.761905,93.5238095 184.714286,97.5714286 181.714286,99.3333333 C181.714286,99.3333333 168.142857,107.761905 165.428571,109.095238 C160,111.809524 155.333333,107.333333 157.238095,102.142857 C158.047619,99.8571429 159.619048,97.5714286 161.095238,95.6666667 C161.095238,95.6666667 168.952381,84.8571429 170.714286,81.8095238 C171.428571,80.6190476 171.52381,79 170.904762,77.7619048 L165.619048,68.2857143 L158.333333,55.3333333 C158.333333,55.3333333 154.809524,49.0952381 154.047619,47.6666667 C153.761905,47.1428571 151.952381,45.952381 151.428571,46 L151.095238,46.1428571 L136.142857,51.6190476 L115.238095,59.952381 L92.2857143,68.952381 L75.0952381,75.6666667 C70.4761905,78 65.1428571,77.0952381 62.2380952,72.6190476 C60.6190476,70.7619048 57,66.047619 54.4761905,66.047619 C52.6190476,66.047619 47.5714286,71.5238095 46.2380952,72.8095238 C46.2380952,72.8095238 45.952381,73.0952381 45.4761905,73.5238095 C39.0952381,78.8571429 29.3809524,76.0952381 23,72 C20.2857143,70.2857143 16.2380952,65.6190476 14.0952381,63 L3.85714286,51 L1.14285714,47.8095238 C-0.380952381,44.9047619 0.285714286,41.8571429 3.38095238,40.5238095 C3.38095238,40.5238095 9.0952381,39.7142857 12.3809524,39.5238095 C14.8571429,39.3333333 17.3333333,40.4285714 18.1904762,42.8571429 L21.3333333,49.2380952 C21.3333333,49.2380952 21.7619048,50.2857143 22.1904762,51.3809524 C24.3809524,56.5238095 25.2857143,55.3809524 30.2857143,54.952381 L52.4285714,54.0952381 C57.2380952,53.9047619 63.0952381,53.8095238 65.5238095,53.7619048 C73.1904762,53.6666667 84.1428571,51.4285714 91.5714286,49.4761905 C91.5714286,49.4761905 108.095238,45.6190476 113.714286,44.3333333 C118.666667,43.1904762 121.142857,42.1428571 121.52381,41.952381 C122.952381,41.2380952 123.857143,40.2380952 123.761905,38.6666667 L123.714286,38.4285714 C123,32.9047619 108.761905,29.6666667 104.761905,28.5714286 C96.5238095,26.2380952 88.2380952,24.7142857 79.952381,22.7142857 C77,22 69.0952381,19.6666667 67.047619,16.8095238 C64.5714286,13.8571429 60.5238095,10.6190476 61.4285714,6.33333333 C62.4761905,0.952380952 68.2857143,-0.619047619 72.8571429,0.285714286 Z" id="Shape"></path>
                    </g>
                    <g id="PUNTOS_INTERMEDIOS_Y_SEMAFORO" transform="translate(21.904762, 6.190476)">
                        <path d="M15.3809524,39.0952381 C15.4761905,39.2857143 15.3809524,39.5714286 15.1904762,39.6666667 L0.80952381,46.0952381 C0.619047619,46.1904762 0.333333333,46.0952381 0.238095238,45.9047619 C0.142857143,45.7142857 0.238095238,45.4285714 0.428571429,45.3333333 L14.8095238,38.9047619 C15.047619,38.7619048 15.2857143,38.8571429 15.3809524,39.0952381 Z" id="Shape" fill="#AC1737" fill-rule="nonzero"></path>
                        <path d="M106.904762,18.2857143 C106.666667,18.2380952 106.571429,18 106.619048,17.7619048 L111.428571,2.76190476 C111.47619,2.52380952 111.714286,2.42857143 111.952381,2.47619048 C112.190476,2.52380952 112.285714,2.76190476 112.238095,3 L107.428571,18 C107.333333,18.2380952 107.095238,18.3809524 106.904762,18.2857143 Z" id="Shape" fill="#AC1737" fill-rule="nonzero"></path>
                        <path d="M61.3809524,24.9047619 C61.1428571,24.8571429 61.047619,24.6190476 61.0952381,24.3809524 L65.9047619,9.38095238 C65.952381,9.14285714 66.1904762,9.04761905 66.4285714,9.0952381 C66.6666667,9.14285714 66.7619048,9.38095238 66.7142857,9.61904762 L61.9047619,24.6190476 C61.8571429,24.8571429 61.6190476,24.952381 61.3809524,24.9047619 Z" id="Shape" fill="#AC1737" fill-rule="nonzero"></path>
                        <path d="M150.285714,94.952381 C150.47619,94.8571429 150.761905,94.9047619 150.857143,95.0952381 L158.761905,108.714286 C158.857143,108.904762 158.809524,109.190476 158.619048,109.285714 C158.428571,109.380952 158.142857,109.333333 158.047619,109.142857 L150.142857,95.5238095 C150,95.3333333 150.047619,95.0952381 150.285714,94.952381 Z" id="Shape" fill="#AC1737" fill-rule="nonzero"></path>
                        <g id="Group" transform="translate(57.619048, 20.000000)" fill-rule="nonzero">
                            <path d="M0,3.71428571 C0,1.71428571 1.61904762,0.0476190476 3.61904762,0.0476190476 L6,0.0476190476 C8,0.0476190476 9.66666667,1.66666667 9.66666667,3.71428571 L9.66666667,6.14285714 C9.66666667,8.14285714 8.04761905,9.80952381 6,9.80952381 L3.61904762,9.80952381 C1.61904762,9.80952381 0,8.19047619 0,6.14285714 L0,3.71428571 Z" id="Shape" fill="#AC1737"></path>
                            <g transform="translate(2.380952, 2.380952)" fill="#FFFFFF" id="Shape">
                                <path d="M0.285714286,0.80952381 C0.285714286,0.571428571 0.476190476,0.428571429 0.714285714,0.428571429 C0.952380952,0.428571429 1.14285714,0.571428571 1.14285714,0.80952381 C1.14285714,1.04761905 0.952380952,1.19047619 0.714285714,1.19047619 C0.476190476,1.19047619 0.285714286,1 0.285714286,0.80952381 Z M0.380952381,1.71428571 L1.0952381,1.71428571 L1.0952381,4.66666667 L0.380952381,4.66666667 L0.380952381,1.71428571 Z"></path>
                                <path d="M2.04761905,4.28571429 C3.0952381,3.23809524 3.80952381,2.57142857 3.80952381,2 C3.80952381,1.57142857 3.57142857,1.33333333 3.19047619,1.33333333 C2.9047619,1.33333333 2.66666667,1.52380952 2.42857143,1.76190476 L2.04761905,1.38095238 C2.38095238,1 2.76190476,0.80952381 3.28571429,0.80952381 C4,0.80952381 4.52380952,1.28571429 4.52380952,2 C4.52380952,2.66666667 3.9047619,3.38095238 3.14285714,4.19047619 C3.33333333,4.19047619 3.61904762,4.14285714 3.76190476,4.14285714 L4.71428571,4.14285714 L4.71428571,4.71428571 L2.0952381,4.71428571 L2.0952381,4.28571429 L2.04761905,4.28571429 Z"></path>
                            </g>
                        </g>
                        <g id="Group" transform="translate(107.619048, 0.000000)" fill-rule="nonzero">
                            <path d="M0.142857143,4 C0.142857143,2 1.76190476,0.380952381 3.76190476,0.380952381 L5.04761905,0.380952381 C7.04761905,0.380952381 8.66666667,2 8.66666667,4 L8.66666667,6.28571429 C8.66666667,8.28571429 7.04761905,9.9047619 5.04761905,9.9047619 L3.76190476,9.9047619 C1.76190476,9.9047619 0.142857143,8.28571429 0.142857143,6.28571429 L0.142857143,4 Z" id="Shape" fill="#AC1737"></path>
                            <path d="M3.42857143,6.0952381 C3.71428571,6.38095238 4.0952381,6.52380952 4.47619048,6.52380952 C4.9047619,6.52380952 5.14285714,6.33333333 5.14285714,6 C5.14285714,5.66666667 4.9047619,5.57142857 4.52380952,5.42857143 L4,5.19047619 C3.61904762,5.04761905 3.19047619,4.71428571 3.19047619,4.14285714 C3.19047619,3.52380952 3.76190476,3.04761905 4.52380952,3.04761905 C5,3.04761905 5.42857143,3.23809524 5.76190476,3.57142857 L5.38095238,4 C5.14285714,3.80952381 4.85714286,3.66666667 4.52380952,3.66666667 C4.14285714,3.66666667 3.9047619,3.85714286 3.9047619,4.14285714 C3.9047619,4.42857143 4.19047619,4.57142857 4.52380952,4.71428571 L5.04761905,4.95238095 C5.52380952,5.14285714 5.85714286,5.42857143 5.85714286,6 C5.85714286,6.61904762 5.33333333,7.19047619 4.42857143,7.19047619 C3.9047619,7.19047619 3.38095238,7 3,6.61904762 L3.42857143,6.0952381 Z" id="Shape" fill="#FFFFFF"></path>
                        </g>
                        <g id="Group" transform="translate(82.380952, 47.619048)" fill="#AC1737" fill-rule="nonzero">
                            <path d="M13.9047619,12.6190476 C14.1428571,12.5238095 14.2380952,12.2857143 14.1904762,12.0952381 L10.3333333,0.714285714 C10.2857143,0.523809524 10.047619,0.380952381 9.85714286,0.476190476 L1.85714286,3.19047619 C1.61904762,3.28571429 1.52380952,3.52380952 1.57142857,3.71428571 C1.66666667,3.95238095 1.9047619,4.04761905 2.0952381,4 L9.52380952,1.47619048 C9.61904762,1.42857143 9.71428571,1.47619048 9.71428571,1.57142857 L13.3809524,12.3809524 C13.4285714,12.5714286 13.6666667,12.7142857 13.9047619,12.6190476 Z" id="Shape"></path>
                            <path d="M0.571428571,4.23809524 C0.380952381,4.19047619 0.285714286,3.95238095 0.428571429,3.80952381 L1.57142857,2.47619048 L2.71428571,1.14285714 C2.85714286,1 3.0952381,1.04761905 3.14285714,1.23809524 L3.71428571,2.9047619 L4.28571429,4.57142857 C4.33333333,4.76190476 4.19047619,4.95238095 4,4.9047619 L2.28571429,4.57142857 L0.571428571,4.23809524 Z" id="Shape"></path>
                        </g>
                        <g id="Group" transform="translate(89.523810, 45.714286)" fill-rule="nonzero">
                            <path d="M0,17.4285714 C0,15.4285714 1.61904762,13.8095238 3.66666667,13.8095238 L9.23809524,13.8095238 C11.2380952,13.8095238 12.8571429,15.4285714 12.8571429,17.4285714 L12.8571429,19.7142857 C12.8571429,21.7142857 11.2380952,23.3333333 9.23809524,23.3333333 L3.66666667,23.3333333 C1.66666667,23.3333333 0,21.7142857 0,19.7142857 L0,17.4285714 Z" id="Shape" fill="#AC1737"></path>
                            <path d="M16.5805531,9.36877717 L13.3814359,0.579274829 L14.2763812,0.25354136 L17.3486969,8.6946594 C17.927828,8.31579558 18.6251987,8.0952381 19.3809524,8.0952381 L24.952381,8.0952381 C26.952381,8.0952381 28.5714286,9.71428571 28.5714286,11.7142857 L28.5714286,14 C28.5714286,16 26.952381,17.6190476 24.952381,17.6190476 L19.3809524,17.6190476 C17.3809524,17.6190476 15.7142857,16 15.7142857,14 L15.7142857,11.7142857 C15.7142857,10.8191325 16.0386212,10.0002935 16.5805531,9.36877717 Z" id="Combined-Shape" fill="#AC1737"></path>
                            <g transform="translate(3.333333, 16.666667)" fill="#FFFFFF" id="Shape">
                                <polygon points="0.238095238 0.0476190476 2.61904762 0.0476190476 2.61904762 0.619047619 0.952380952 0.619047619 0.952380952 1.71428571 2.38095238 1.71428571 2.38095238 2.28571429 0.952380952 2.28571429 0.952380952 3.95238095 0.238095238 3.95238095"></polygon>
                                <polygon points="3.61904762 0.0476190476 4.33333333 0.0476190476 4.33333333 3.42857143 5.95238095 3.42857143 5.95238095 4 3.61904762 4"></polygon>
                            </g>
                        </g>
                        <g id="Group" transform="translate(7.142857, 33.809524)" fill-rule="nonzero">
                            <path d="M0.0952380952,3.95238095 C0.0952380952,1.95238095 1.71428571,0.333333333 3.76190476,0.333333333 L5.61904762,0.333333333 C7.61904762,0.333333333 9.28571429,1.95238095 9.28571429,3.95238095 L9.28571429,6.57142857 C9.28571429,8.57142857 7.66666667,10.2380952 5.61904762,10.2380952 L3.76190476,10.2380952 C1.76190476,10.2380952 0.0952380952,8.61904762 0.0952380952,6.57142857 L0.0952380952,3.95238095 Z" id="Shape" fill="#AC1737"></path>
                            <g transform="translate(2.380952, 2.857143)" fill="#FFFFFF" id="Shape">
                                <path d="M0.142857143,0.666666667 C0.142857143,0.428571429 0.333333333,0.285714286 0.571428571,0.285714286 C0.80952381,0.285714286 1,0.428571429 1,0.666666667 C1,0.904761905 0.80952381,1.04761905 0.571428571,1.04761905 C0.285714286,1.0952381 0.142857143,0.904761905 0.142857143,0.666666667 Z M0.19047619,1.61904762 L0.904761905,1.61904762 L0.904761905,4.57142857 L0.19047619,4.57142857 L0.19047619,1.61904762 Z"></path>
                                <path d="M2.0952381,4 L2.95238095,4 L2.95238095,1.47619048 L2.23809524,1.47619048 L2.23809524,1.04761905 C2.61904762,0.952380952 2.9047619,0.857142857 3.14285714,0.714285714 L3.66666667,0.714285714 L3.66666667,4 L4.42857143,4 L4.42857143,4.57142857 L2.0952381,4.57142857 L2.0952381,4 Z"></path>
                            </g>
                        </g>
                        <g id="Group" transform="translate(153.809524, 101.904762)" fill-rule="nonzero">
                            <path d="M0,3.76190476 C0,1.76190476 1.61904762,0.0952380952 3.61904762,0.0952380952 L6.04761905,0.0952380952 C8.04761905,0.0952380952 9.71428571,1.71428571 9.71428571,3.76190476 L9.71428571,6.19047619 C9.71428571,8.19047619 8.0952381,9.80952381 6.04761905,9.80952381 L3.61904762,9.80952381 C1.61904762,9.80952381 0,8.19047619 0,6.19047619 L0,3.76190476 Z" id="Shape" fill="#AC1737"></path>
                            <g transform="translate(2.380952, 2.380952)" fill="#FFFFFF" id="Shape">
                                <path d="M0.333333333,0.80952381 C0.333333333,0.571428571 0.523809524,0.428571429 0.761904762,0.428571429 C1,0.428571429 1.19047619,0.571428571 1.19047619,0.80952381 C1.19047619,1.04761905 1,1.19047619 0.761904762,1.19047619 C0.523809524,1.23809524 0.333333333,1.04761905 0.333333333,0.80952381 Z M0.380952381,1.71428571 L1.0952381,1.71428571 L1.0952381,4.66666667 L0.380952381,4.66666667 L0.380952381,1.71428571 Z"></path>
                                <path d="M2.33333333,3.76190476 C2.57142857,4 2.85714286,4.19047619 3.23809524,4.19047619 C3.66666667,4.19047619 3.95238095,3.95238095 3.95238095,3.61904762 C3.95238095,3.23809524 3.71428571,2.95238095 2.80952381,2.95238095 L2.80952381,2.42857143 C3.57142857,2.42857143 3.80952381,2.19047619 3.80952381,1.80952381 C3.80952381,1.47619048 3.57142857,1.28571429 3.23809524,1.28571429 C2.95238095,1.28571429 2.71428571,1.42857143 2.47619048,1.66666667 L2.0952381,1.23809524 C2.42857143,0.952380952 2.80952381,0.761904762 3.23809524,0.761904762 C3.95238095,0.761904762 4.47619048,1.14285714 4.47619048,1.76190476 C4.47619048,2.19047619 4.23809524,2.47619048 3.80952381,2.66666667 L3.80952381,2.71428571 C4.28571429,2.85714286 4.61904762,3.14285714 4.61904762,3.66666667 C4.61904762,4.38095238 4,4.76190476 3.28571429,4.76190476 C2.66666667,4.76190476 2.23809524,4.52380952 2,4.23809524 L2.33333333,3.76190476 Z"></path>
                            </g>
                        </g>
                        <g id="Group" transform="translate(91.428571, 72.380952)">
                            <path d="M0.0476190476,3.76190476 C0.0476190476,1.76190476 1.66666667,0.142857143 3.66666667,0.142857143 L25.4761905,0.142857143 C27.4761905,0.142857143 29.0952381,1.76190476 29.0952381,3.76190476 L29.0952381,7.71428571 C29.0952381,9.71428571 27.4761905,11.3333333 25.4761905,11.3333333 L3.66666667,11.3333333 C1.66666667,11.3333333 0.0476190476,9.71428571 0.0476190476,7.71428571 L0.0476190476,3.76190476 Z" id="Shape" fill="#7B7C7D" fill-rule="nonzero"></path>
                            <g transform="translate(19.523810, 0.952381)" fill-rule="nonzero" id="Shape">
                                <path d="M3.85714286,9.33333333 C2,9.33333333 0.476190476,7.80952381 0.476190476,5.95238095 L0.476190476,3.66666667 C0.476190476,1.80952381 2,0.285714286 3.85714286,0.285714286 L5.14285714,0.285714286 C7,0.285714286 8.52380952,1.80952381 8.52380952,3.66666667 L8.52380952,5.95238095 C8.52380952,7.80952381 7,9.33333333 5.14285714,9.33333333 L3.85714286,9.33333333 Z" fill="#FFFFFF"></path>
                                <path d="M5.14285714,0.476190476 C6.9047619,0.476190476 8.28571429,1.9047619 8.28571429,3.61904762 L8.28571429,5.9047619 C8.28571429,7.66666667 6.85714286,9.04761905 5.14285714,9.04761905 L3.85714286,9.04761905 C2.0952381,9.04761905 0.714285714,7.61904762 0.714285714,5.9047619 L0.714285714,3.61904762 C0.714285714,1.85714286 2.14285714,0.476190476 3.85714286,0.476190476 L5.14285714,0.476190476 Z M5.14285714,0 L3.85714286,0 C1.85714286,0 0.238095238,1.61904762 0.238095238,3.61904762 L0.238095238,5.9047619 C0.238095238,7.9047619 1.85714286,9.52380952 3.85714286,9.52380952 L5.14285714,9.52380952 C7.14285714,9.52380952 8.76190476,7.9047619 8.76190476,5.9047619 L8.76190476,3.61904762 C8.76190476,1.61904762 7.14285714,0 5.14285714,0 Z" fill="#C7C6C5"></path>
                            </g>
                            <g id="Clipped" transform="translate(19.523810, 0.952381)">
                                <mask id="mask-2" fill="white">
                                    <use xlink:href="#path-1"></use>
                                </mask>
                                <g id="SVGID_29_"></g>
                                <g id="Group" mask="url(#mask-2)" fill="#1E1E1C" fill-rule="nonzero">
                                    <g transform="translate(-2.380952, 0.476190)" id="Rectangle-path">
                                        <rect x="0.0476190476" y="0.333333333" width="2" height="2"></rect>
                                        <rect x="2.04761905" y="2.33333333" width="2" height="2"></rect>
                                        <rect x="4.04761905" y="0.333333333" width="2" height="2"></rect>
                                        <rect x="6" y="2.33333333" width="2" height="2"></rect>
                                        <rect x="0.0476190476" y="4.28571429" width="2" height="2"></rect>
                                        <rect x="2.04761905" y="6.28571429" width="2" height="2"></rect>
                                        <rect x="4.04761905" y="4.28571429" width="2" height="2"></rect>
                                        <rect x="6" y="6.28571429" width="2" height="2"></rect>
                                        <rect x="8" y="0.333333333" width="2" height="2"></rect>
                                        <rect x="10" y="2.33333333" width="2" height="2"></rect>
                                        <rect x="8" y="4.28571429" width="2" height="2"></rect>
                                        <rect x="10" y="6.28571429" width="2" height="2"></rect>
                                    </g>
                                </g>
                            </g>
                            <g transform="translate(0.952381, 0.952381)" fill-rule="nonzero" id="Shape">
                                <path d="M3.61904762,9.33333333 C1.76190476,9.33333333 0.238095238,7.80952381 0.238095238,5.95238095 L0.238095238,3.66666667 C0.238095238,1.80952381 1.76190476,0.285714286 3.61904762,0.285714286 L4.9047619,0.285714286 C6.76190476,0.285714286 8.28571429,1.80952381 8.28571429,3.66666667 L8.28571429,5.95238095 C8.28571429,7.80952381 6.76190476,9.33333333 4.9047619,9.33333333 L3.61904762,9.33333333 Z" fill="#C01724"></path>
                                <path d="M4.9047619,0.476190476 C6.66666667,0.476190476 8.04761905,1.9047619 8.04761905,3.61904762 L8.04761905,5.9047619 C8.04761905,7.66666667 6.61904762,9.04761905 4.9047619,9.04761905 L3.61904762,9.04761905 C1.85714286,9.04761905 0.476190476,7.61904762 0.476190476,5.9047619 L0.476190476,3.61904762 C0.476190476,1.85714286 1.9047619,0.476190476 3.61904762,0.476190476 L4.9047619,0.476190476 Z M4.9047619,0 L3.61904762,0 C1.61904762,0 0,1.61904762 0,3.61904762 L0,5.9047619 C0,7.9047619 1.61904762,9.52380952 3.61904762,9.52380952 L4.9047619,9.52380952 C6.9047619,9.52380952 8.52380952,7.9047619 8.52380952,5.9047619 L8.52380952,3.61904762 C8.52380952,1.61904762 6.9047619,0 4.9047619,0 Z" fill="#AA1920"></path>
                            </g>
                            <g transform="translate(10.000000, 0.952381)" fill-rule="nonzero" id="Shape">
                                <path d="M3.95238095,9.33333333 C2.0952381,9.33333333 0.571428571,7.80952381 0.571428571,5.95238095 L0.571428571,3.66666667 C0.571428571,1.80952381 2.0952381,0.285714286 3.95238095,0.285714286 L5.23809524,0.285714286 C7.0952381,0.285714286 8.61904762,1.80952381 8.61904762,3.66666667 L8.61904762,5.95238095 C8.61904762,7.80952381 7.0952381,9.33333333 5.23809524,9.33333333 L3.95238095,9.33333333 Z" fill="#009548"></path>
                                <path d="M5.23809524,0.476190476 C7,0.476190476 8.38095238,1.9047619 8.38095238,3.61904762 L8.38095238,5.9047619 C8.38095238,7.66666667 6.95238095,9.04761905 5.23809524,9.04761905 L3.95238095,9.04761905 C2.19047619,9.04761905 0.80952381,7.61904762 0.80952381,5.9047619 L0.80952381,3.61904762 C0.80952381,1.85714286 2.23809524,0.476190476 3.95238095,0.476190476 L5.23809524,0.476190476 Z M5.23809524,0 L3.95238095,0 C1.95238095,0 0.333333333,1.61904762 0.333333333,3.61904762 L0.333333333,5.9047619 C0.333333333,7.9047619 1.95238095,9.52380952 3.95238095,9.52380952 L5.23809524,9.52380952 C7.23809524,9.52380952 8.85714286,7.9047619 8.85714286,5.9047619 L8.85714286,3.61904762 C8.9047619,1.61904762 7.23809524,0 5.23809524,0 Z" fill="#006139"></path>
                            </g>
                            <path d="M24.6666667,1.42857143 C26.4285714,1.42857143 27.8095238,2.85714286 27.8095238,4.57142857 L27.8095238,6.85714286 C27.8095238,8.61904762 26.3809524,10 24.6666667,10 L23.3809524,10 C21.6190476,10 20.2380952,8.57142857 20.2380952,6.85714286 L20.2380952,4.57142857 C20.2380952,2.80952381 21.6666667,1.42857143 23.3809524,1.42857143 L24.6666667,1.42857143 Z M24.6666667,0.952380952 L23.3809524,0.952380952 C21.3809524,0.952380952 19.7619048,2.57142857 19.7619048,4.57142857 L19.7619048,6.85714286 C19.7619048,8.85714286 21.3809524,10.4761905 23.3809524,10.4761905 L24.6666667,10.4761905 C26.6666667,10.4761905 28.2857143,8.85714286 28.2857143,6.85714286 L28.2857143,4.57142857 C28.2857143,2.57142857 26.6666667,0.952380952 24.6666667,0.952380952 Z" id="Shape" fill="#C7C6C5" fill-rule="nonzero"></path>
                        </g>
                    </g>
                    <g id="textos_y_numeros" fill="#7B7C7D" fill-rule="nonzero">
                        <path d="M74.7142857,67.047619 L75.6666667,67.047619 L75.6666667,64.2380952 L74.8571429,64.2380952 L74.8571429,63.7619048 C75.2857143,63.6666667 75.5714286,63.5714286 75.8571429,63.4285714 L76.4285714,63.4285714 L76.4285714,67.047619 L77.2857143,67.047619 L77.2857143,67.6666667 L74.7142857,67.6666667 L74.7142857,67.047619 Z" id="Shape"></path>
                        <path d="M59.2857143,74.2380952 C60.4761905,73.0952381 61.2380952,72.3333333 61.2380952,71.6666667 C61.2380952,71.2380952 61,70.9047619 60.5238095,70.9047619 C60.1904762,70.9047619 59.9047619,71.1428571 59.6666667,71.3809524 L59.2380952,70.952381 C59.6190476,70.5238095 60,70.2857143 60.6190476,70.2857143 C61.4285714,70.2857143 61.952381,70.8095238 61.952381,71.6190476 C61.952381,72.3809524 61.2380952,73.1428571 60.3809524,74.047619 C60.6190476,74.047619 60.9047619,74 61.0952381,74 L62.1428571,74 L62.1428571,74.6666667 L59.2380952,74.6666667 L59.2380952,74.2380952 L59.2857143,74.2380952 Z" id="Shape"></path>
                        <path d="M37.952381,67.4761905 C38.1904762,67.7619048 38.5238095,67.952381 38.952381,67.952381 C39.4285714,67.952381 39.7619048,67.7142857 39.7619048,67.2857143 C39.7619048,66.8571429 39.4761905,66.5714286 38.5238095,66.5714286 L38.5238095,66 C39.3809524,66 39.6190476,65.7142857 39.6190476,65.3333333 C39.6190476,65 39.3809524,64.7619048 39,64.7619048 C38.6666667,64.7619048 38.3809524,64.9047619 38.1428571,65.1428571 L37.7619048,64.6666667 C38.1428571,64.3333333 38.5238095,64.1428571 39.047619,64.1428571 C39.8571429,64.1428571 40.4285714,64.5238095 40.4285714,65.2857143 C40.4285714,65.7619048 40.1428571,66.0952381 39.6666667,66.2857143 L39.6666667,66.3333333 C40.1904762,66.4761905 40.5714286,66.8095238 40.5714286,67.3809524 C40.5714286,68.1428571 39.9047619,68.6190476 39.0952381,68.6190476 C38.3809524,68.6190476 37.952381,68.3333333 37.6666667,68 L37.952381,67.4761905 Z" id="Shape"></path>
                        <path d="M3.14285714,45.5714286 L2.61904762,45.5714286 L2.61904762,46.6666667 L1.9047619,46.6666667 L1.9047619,45.5714286 L0,45.5714286 L0,45.047619 L1.71428571,42.3809524 L2.61904762,42.3809524 L2.61904762,44.952381 L3.14285714,44.952381 L3.14285714,45.5714286 Z M1.85714286,45 L1.85714286,44.047619 C1.85714286,43.8095238 1.85714286,43.4285714 1.9047619,43.1428571 C1.80952381,43.3809524 1.66666667,43.5714286 1.57142857,43.8095238 L0.80952381,45 L1.85714286,45 Z" id="Shape"></path>
                        <path d="M22.1904762,36.2857143 C22.4285714,36.5238095 22.7619048,36.7619048 23.1904762,36.7619048 C23.6666667,36.7619048 24,36.4761905 24,35.952381 C24,35.4285714 23.6666667,35.1428571 23.1904762,35.1428571 C22.9047619,35.1428571 22.7619048,35.2380952 22.5238095,35.3809524 L22.1428571,35.1428571 L22.2857143,33.047619 L24.5714286,33.047619 L24.5714286,33.7142857 L22.952381,33.7142857 L22.8571429,34.7619048 C23.047619,34.6666667 23.1904762,34.6190476 23.4285714,34.6190476 C24.1428571,34.6190476 24.7619048,35.047619 24.7619048,35.952381 C24.7619048,36.9047619 24.047619,37.4285714 23.2380952,37.4285714 C22.5238095,37.4285714 22.0952381,37.1428571 21.7619048,36.8571429 L22.1904762,36.2857143 Z" id="Shape"></path>
                        <path d="M29.7619048,60.8571429 C29.6190476,60.6666667 29.3333333,60.5238095 29.0952381,60.5238095 C28.5714286,60.5238095 28.1428571,60.9047619 28.0952381,62.0952381 C28.3333333,61.7619048 28.7142857,61.5714286 29,61.5714286 C29.7619048,61.5714286 30.2380952,62 30.2380952,62.9047619 C30.2380952,63.7619048 29.6190476,64.2857143 28.9047619,64.2857143 C28.047619,64.2857143 27.3333333,63.6190476 27.3333333,62.1904762 C27.3333333,60.5238095 28.1428571,59.8571429 29,59.8571429 C29.5238095,59.8571429 29.9047619,60.0952381 30.1428571,60.3333333 L29.7619048,60.8571429 Z M29.5714286,62.952381 C29.5714286,62.4285714 29.3333333,62.1904762 28.9047619,62.1904762 C28.6666667,62.1904762 28.3809524,62.3333333 28.1428571,62.6666667 C28.2380952,63.4285714 28.5238095,63.7619048 28.952381,63.7619048 C29.2857143,63.7619048 29.5714286,63.4761905 29.5714286,62.952381 Z" id="Shape"></path>
                        <path d="M76.7619048,45.8571429 L74.7619048,45.8571429 L74.7619048,45.1904762 L77.6190476,45.1904762 L77.6190476,45.6666667 C76.6190476,46.9047619 76.4285714,47.8095238 76.3809524,49.4761905 L75.5714286,49.4761905 C75.6190476,47.952381 75.9047619,47 76.7619048,45.8571429 Z" id="Shape"></path>
                        <path d="M136.809524,36.9047619 C136.47619,36.6190476 136.238095,36.3333333 136.238095,35.8571429 C136.238095,35.1428571 136.809524,34.7142857 137.52381,34.7142857 C138.285714,34.7142857 138.761905,35.1904762 138.761905,35.8571429 C138.761905,36.2857143 138.47619,36.6190476 138.190476,36.8571429 L138.190476,36.9047619 C138.571429,37.1428571 138.952381,37.4285714 138.952381,38 C138.952381,38.6666667 138.380952,39.1428571 137.52381,39.1428571 C136.666667,39.1428571 136.095238,38.6666667 136.095238,37.952381 C136,37.4761905 136.380952,37.0952381 136.809524,36.9047619 Z M137.47619,38.6190476 C137.904762,38.6190476 138.190476,38.3809524 138.190476,38 C138.190476,37.5238095 137.761905,37.3809524 137.142857,37.1428571 C136.857143,37.3333333 136.666667,37.6190476 136.666667,37.952381 C136.714286,38.3333333 137.047619,38.6190476 137.47619,38.6190476 Z M138.095238,35.952381 C138.095238,35.5714286 137.857143,35.2857143 137.47619,35.2857143 C137.142857,35.2857143 136.904762,35.5238095 136.904762,35.8571429 C136.904762,36.2857143 137.285714,36.4761905 137.761905,36.6666667 C138,36.4285714 138.095238,36.1904762 138.095238,35.952381 Z" id="Shape"></path>
                        <path d="M69.7619048,23.8095238 C69.9047619,24 70.1904762,24.1428571 70.4285714,24.1428571 C70.952381,24.1428571 71.3809524,23.7619048 71.4285714,22.5714286 C71.1904762,22.8571429 70.8095238,23.047619 70.4761905,23.047619 C69.7619048,23.047619 69.2380952,22.6190476 69.2380952,21.7142857 C69.2380952,20.8571429 69.8571429,20.3333333 70.5714286,20.3333333 C71.4285714,20.3333333 72.0952381,21 72.0952381,22.4285714 C72.0952381,24.0952381 71.2857143,24.7619048 70.4285714,24.7619048 C69.9047619,24.7619048 69.5238095,24.5238095 69.2857143,24.2857143 L69.7619048,23.8095238 Z M71.4285714,22 C71.3333333,21.2380952 71.047619,20.9047619 70.6190476,20.9047619 C70.2857143,20.9047619 70,21.1904762 70,21.7142857 C70,22.2380952 70.2380952,22.4761905 70.6666667,22.4761905 C70.9047619,22.4761905 71.1904762,22.3333333 71.4285714,22 Z" id="Shape"></path>
                        <g id="Group" transform="translate(58.095238, 0.000000)">
                            <path d="M0.142857143,4.0952381 L1.0952381,4.0952381 L1.0952381,1.28571429 L0.285714286,1.28571429 L0.285714286,0.80952381 C0.714285714,0.714285714 1,0.619047619 1.28571429,0.476190476 L1.85714286,0.476190476 L1.85714286,4.0952381 L2.71428571,4.0952381 L2.71428571,4.71428571 L0.142857143,4.71428571 L0.142857143,4.0952381 Z" id="Shape"></path>
                            <path d="M3.38095238,2.57142857 C3.38095238,1.14285714 3.95238095,0.380952381 4.80952381,0.380952381 C5.66666667,0.380952381 6.23809524,1.14285714 6.23809524,2.57142857 C6.23809524,4 5.66666667,4.80952381 4.80952381,4.80952381 C3.95238095,4.80952381 3.38095238,4 3.38095238,2.57142857 Z M5.52380952,2.57142857 C5.52380952,1.38095238 5.23809524,1 4.80952381,1 C4.38095238,1 4.0952381,1.38095238 4.0952381,2.57142857 C4.0952381,3.76190476 4.38095238,4.19047619 4.80952381,4.19047619 C5.23809524,4.19047619 5.52380952,3.76190476 5.52380952,2.57142857 Z" id="Shape"></path>
                        </g>
                        <g id="Group" transform="translate(166.666667, 28.571429)">
                            <path d="M0.238095238,3.76190476 L1.19047619,3.76190476 L1.19047619,0.952380952 L0.380952381,0.952380952 L0.380952381,0.476190476 C0.80952381,0.380952381 1.0952381,0.285714286 1.38095238,0.142857143 L1.95238095,0.142857143 L1.95238095,3.80952381 L2.80952381,3.80952381 L2.80952381,4.42857143 L0.238095238,4.42857143 L0.238095238,3.76190476 Z" id="Shape"></path>
                            <path d="M3.71428571,3.76190476 L4.66666667,3.76190476 L4.66666667,0.952380952 L3.85714286,0.952380952 L3.85714286,0.476190476 C4.28571429,0.380952381 4.57142857,0.285714286 4.85714286,0.142857143 L5.42857143,0.142857143 L5.42857143,3.80952381 L6.28571429,3.80952381 L6.28571429,4.42857143 L3.71428571,4.42857143 L3.71428571,3.76190476 Z" id="Shape"></path>
                        </g>
                        <g id="Group" transform="translate(192.380952, 66.666667)">
                            <path d="M0.0476190476,3.80952381 L1,3.80952381 L1,1 L0.19047619,1 L0.19047619,0.523809524 C0.619047619,0.428571429 0.904761905,0.333333333 1.19047619,0.19047619 L1.76190476,0.19047619 L1.76190476,3.85714286 L2.61904762,3.85714286 L2.61904762,4.47619048 L0.0476190476,4.47619048 L0.0476190476,3.80952381 Z" id="Shape"></path>
                            <path d="M3.28571429,3.95238095 C4.47619048,2.80952381 5.23809524,2.04761905 5.23809524,1.38095238 C5.23809524,0.952380952 5,0.619047619 4.52380952,0.619047619 C4.19047619,0.619047619 3.9047619,0.857142857 3.66666667,1.0952381 L3.23809524,0.666666667 C3.61904762,0.238095238 4,0 4.61904762,0 C5.42857143,0 5.95238095,0.523809524 5.95238095,1.33333333 C5.95238095,2.0952381 5.23809524,2.85714286 4.38095238,3.76190476 C4.61904762,3.76190476 4.9047619,3.71428571 5.0952381,3.71428571 L6.14285714,3.71428571 L6.14285714,4.38095238 L3.23809524,4.38095238 L3.23809524,3.95238095 L3.28571429,3.95238095 Z" id="Shape"></path>
                        </g>
                        <g id="Group" transform="translate(193.333333, 95.714286)">
                            <path d="M0.0952380952,3.76190476 L1.04761905,3.76190476 L1.04761905,0.952380952 L0.238095238,0.952380952 L0.238095238,0.476190476 C0.666666667,0.380952381 0.952380952,0.285714286 1.23809524,0.142857143 L1.80952381,0.142857143 L1.80952381,3.80952381 L2.66666667,3.80952381 L2.66666667,4.42857143 L0.0952380952,4.42857143 L0.0952380952,3.76190476 Z" id="Shape"></path>
                            <path d="M3.61904762,3.38095238 C3.85714286,3.66666667 4.19047619,3.85714286 4.61904762,3.85714286 C5.0952381,3.85714286 5.42857143,3.61904762 5.42857143,3.19047619 C5.42857143,2.76190476 5.14285714,2.47619048 4.19047619,2.47619048 L4.19047619,1.9047619 C5.04761905,1.9047619 5.28571429,1.61904762 5.28571429,1.23809524 C5.28571429,0.904761905 5.04761905,0.666666667 4.66666667,0.666666667 C4.33333333,0.666666667 4.04761905,0.80952381 3.80952381,1.04761905 L3.42857143,0.571428571 C3.80952381,0.238095238 4.19047619,0.0476190476 4.71428571,0.0476190476 C5.52380952,0.0476190476 6.0952381,0.428571429 6.0952381,1.19047619 C6.0952381,1.66666667 5.80952381,2 5.33333333,2.19047619 L5.33333333,2.23809524 C5.85714286,2.38095238 6.23809524,2.71428571 6.23809524,3.28571429 C6.23809524,4.04761905 5.57142857,4.52380952 4.76190476,4.52380952 C4.04761905,4.52380952 3.61904762,4.23809524 3.33333333,3.9047619 L3.61904762,3.38095238 Z" id="Shape"></path>
                        </g>
                        <g id="Group" transform="translate(150.952381, 99.047619)">
                            <path d="M0.0952380952,4 L1.04761905,4 L1.04761905,1.19047619 L0.238095238,1.19047619 L0.238095238,0.714285714 C0.666666667,0.619047619 0.952380952,0.523809524 1.23809524,0.380952381 L1.80952381,0.380952381 L1.80952381,4 L2.66666667,4 L2.66666667,4.61904762 L0.0952380952,4.61904762 L0.0952380952,4 Z" id="Shape"></path>
                            <path d="M6.33333333,3.57142857 L5.80952381,3.57142857 L5.80952381,4.66666667 L5.0952381,4.66666667 L5.0952381,3.57142857 L3.19047619,3.57142857 L3.19047619,3.04761905 L4.9047619,0.380952381 L5.80952381,0.380952381 L5.80952381,2.95238095 L6.33333333,2.95238095 L6.33333333,3.57142857 Z M5.04761905,2.95238095 L5.04761905,2 C5.04761905,1.76190476 5.04761905,1.38095238 5.0952381,1.0952381 L5.04761905,1.0952381 C4.95238095,1.33333333 4.80952381,1.52380952 4.71428571,1.76190476 L3.95238095,2.95238095 L5.04761905,2.95238095 Z" id="Shape"></path>
                        </g>
                        <g id="Group" transform="translate(164.285714, 77.142857)">
                            <path d="M0.142857143,3.9047619 L1.0952381,3.9047619 L1.0952381,1.0952381 L0.285714286,1.0952381 L0.285714286,0.619047619 C0.714285714,0.523809524 1,0.428571429 1.28571429,0.285714286 L1.85714286,0.285714286 L1.85714286,3.9047619 L2.71428571,3.9047619 L2.71428571,4.52380952 L0.142857143,4.52380952 L0.142857143,3.9047619 Z" id="Shape"></path>
                            <path d="M3.61904762,3.52380952 C3.85714286,3.76190476 4.19047619,4 4.61904762,4 C5.0952381,4 5.42857143,3.71428571 5.42857143,3.19047619 C5.42857143,2.66666667 5.0952381,2.38095238 4.61904762,2.38095238 C4.33333333,2.38095238 4.19047619,2.47619048 3.95238095,2.61904762 L3.57142857,2.38095238 L3.71428571,0.285714286 L6,0.285714286 L6,0.952380952 L4.38095238,0.952380952 L4.28571429,2 C4.47619048,1.9047619 4.61904762,1.85714286 4.85714286,1.85714286 C5.57142857,1.85714286 6.19047619,2.28571429 6.19047619,3.19047619 C6.19047619,4.14285714 5.47619048,4.66666667 4.66666667,4.66666667 C3.95238095,4.66666667 3.52380952,4.38095238 3.19047619,4.0952381 L3.61904762,3.52380952 Z" id="Shape"></path>
                        </g>
                        <g id="Group" transform="translate(151.428571, 51.428571)">
                            <path d="M0,4.04761905 L0.952380952,4.04761905 L0.952380952,1.23809524 L0.142857143,1.23809524 L0.142857143,0.761904762 C0.571428571,0.666666667 0.857142857,0.571428571 1.14285714,0.428571429 L1.71428571,0.428571429 L1.71428571,4.04761905 L2.57142857,4.04761905 L2.57142857,4.66666667 L0,4.66666667 L0,4.04761905 Z" id="Shape"></path>
                            <path d="M5.66666667,1.23809524 C5.52380952,1.04761905 5.23809524,0.904761905 5,0.904761905 C4.47619048,0.904761905 4.04761905,1.28571429 4,2.47619048 C4.23809524,2.14285714 4.61904762,1.95238095 4.9047619,1.95238095 C5.66666667,1.95238095 6.14285714,2.38095238 6.14285714,3.28571429 C6.14285714,4.14285714 5.52380952,4.66666667 4.80952381,4.66666667 C3.95238095,4.66666667 3.23809524,4 3.23809524,2.57142857 C3.23809524,0.904761905 4.04761905,0.238095238 4.9047619,0.238095238 C5.42857143,0.238095238 5.80952381,0.476190476 6.04761905,0.714285714 L5.66666667,1.23809524 Z M5.42857143,3.33333333 C5.42857143,2.80952381 5.19047619,2.57142857 4.76190476,2.57142857 C4.52380952,2.57142857 4.23809524,2.71428571 4,3.04761905 C4.0952381,3.80952381 4.38095238,4.14285714 4.80952381,4.14285714 C5.14285714,4.14285714 5.42857143,3.85714286 5.42857143,3.33333333 Z" id="Shape"></path>
                        </g>
                    </g>
                    <path d="M131.5,67 L131.5,62.5 L132.298165,62.5 L132.298165,66.3256881 L134.162844,66.3256881 L134.162844,67 L131.5,67 Z M135.016055,67 L135.016055,63.1743119 L133.715596,63.1743119 L133.715596,62.5 L137.107798,62.5 L137.107798,63.1743119 L135.81422,63.1743119 L135.81422,67 L135.016055,67 Z" id="LT" fill="#FFFFFF"></path>
                </g>
            </g>
        </g>
    </g>
</svg>