<?xml version="1.0" encoding="UTF-8"?>
<svg width="131px" height="125px" viewBox="0 0 131 125" version="1.1" xmlns="http://www.w3.org/2000/svg" xmlns:xlink="http://www.w3.org/1999/xlink">
    <!-- Generator: sketchtool 51.2 (57519) - http://www.bohemiancoding.com/sketch -->
    <title>D15A582A-000E-4713-9AE0-A271CC993A9A</title>
    <desc>Created with sketchtool.</desc>
    <defs>
        <path d="M0.157563025,4.30672269 C0.157563025,2.10084034 1.94327731,0.31512605 4.14915966,0.31512605 L5.56722689,0.31512605 C7.77310924,0.31512605 9.55882353,2.10084034 9.55882353,4.30672269 L9.55882353,6.82773109 C9.55882353,9.03361345 7.77310924,10.8193277 5.56722689,10.8193277 L4.14915966,10.8193277 C1.94327731,10.8193277 0.157563025,9.03361345 0.157563025,6.82773109 L0.157563025,4.30672269 Z" id="path-1"></path>
    </defs>
    <g id="Page-1" stroke="none" stroke-width="1" fill="none" fill-rule="evenodd">
        <g id="Circuit_info_05" transform="translate(-1155.000000, -160.000000)">
            <g id="assets/circuits_info/4" transform="translate(1121.000000, 160.000000)">
                <g id="assets/circuits_info/Circuito-de-jerez-angel-nieto" transform="translate(34.500000, 0.000000)">
                    <g id="trazado" transform="translate(5.252101, 4.201681)" fill="#B7B5B6" fill-rule="nonzero">
                        <path d="M0.840336134,38.4978992 C2.25840336,41.2289916 3.83403361,41.8592437 6.35504202,42.1743697 C8.45588235,42.4369748 73.7394958,49.4222689 76.5231092,49.737395 C76.9957983,49.789916 78.2037815,50.105042 78.2563025,51.6806723 C78.3088235,53.4138655 75.6827731,53.9390756 75.5777311,53.9390756 C75.5777311,53.9390756 43.802521,59.7163866 43.802521,59.7163866 L43.960084,59.7163866 C43.802521,59.7163866 40.0210084,60.1365546 37.8676471,63.6554622 C35.8193277,66.9642857 29.2016807,76.7331933 29.1491597,76.8382353 L29.0966387,76.9432773 L29.0441176,77.0483193 C28.9915966,77.2058824 27.2584034,80.7247899 27.7310924,84.7163866 C28.1512605,88.2878151 29.9894958,90.9663866 30.0945378,91.0714286 L45.8508403,113.865546 C46.9537815,115.441176 50.052521,117.962185 53.7815126,116.281513 C57.1428571,114.758403 63.0777311,111.607143 63.2878151,111.502101 L63.4978992,111.397059 L63.6554622,111.239496 C65.2836134,109.716387 67.6470588,105.829832 64.8634454,102.153361 C62.394958,98.8970588 51.5231092,86.2394958 50.4726891,85.0315126 C49.3172269,83.2983193 46.7962185,78.2563025 48.3193277,75.052521 C50.5252101,70.3781513 52.4159664,69.2226891 55.0945378,68.75 C55.0945378,68.75 76.2605042,65.1260504 76.3655462,65.1260504 C76.6281513,65.0735294 81.197479,64.6533613 84.1386555,68.907563 L96.5336134,86.7647059 L96.5861345,86.8172269 C96.7962185,87.0798319 98.4768908,89.1806723 100.787815,89.4432773 C101.207983,89.4957983 101.628151,89.4957983 101.995798,89.3907563 C102.731092,89.2857143 103.413866,88.9180672 104.044118,88.4453782 C106.932773,86.0819328 106.77521,84.3487395 106.355042,81.7226891 L106.302521,81.302521 L94.1701681,11.3970588 L94.1701681,11.3445378 C94.1176471,11.0819328 92.4894958,4.46428571 85.7668067,1.41806723 C83.1407563,0.210084034 80.7247899,-0.157563025 78.4663866,0.210084034 C76.1029412,0.630252101 73.8970588,1.94327731 71.9012605,4.14915966 C69.6428571,6.67016807 52.5210084,29.6218487 51.7857143,30.6197479 C51.6806723,30.7773109 49.5273109,33.8235294 45.1680672,34.6113445 C45.0630252,34.6113445 44.9579832,34.6638655 44.8529412,34.6638655 C41.0714286,35.3466387 39.6533613,34.6638655 38.8655462,34.3487395 C38.0252101,33.9810924 29.0966387,29.5693277 25.5777311,27.8886555 C25.262605,27.6785714 22.2689076,25.6827731 21.5861345,22.4789916 C21.2710084,20.9558824 20.8508403,16.9642857 20.8508403,16.9117647 L20.8508403,17.0693277 C20.8508403,15.4936975 20.0105042,12.394958 16.9117647,11.6596639 C13.3403361,10.8718487 11.7647059,12.289916 10.3991597,14.8109244 L0.840336134,32.6680672 C0.262605042,33.7710084 -0.420168067,36.2394958 0.840336134,38.4978992 Z M76.8907563,46.1134454 C76.2079832,46.0609244 8.82352941,38.8130252 6.72268908,38.5504202 C5.09453782,38.3403361 4.77941176,38.2352941 3.99159664,36.8172269 C3.41386555,35.6617647 3.99159664,34.4537815 3.99159664,34.4012605 C3.99159664,34.4012605 13.4978992,16.5966387 13.4978992,16.5966387 C14.3382353,15.0210084 14.5483193,14.9159664 16.0189076,15.2310924 C17.0693277,15.4936975 17.1218487,17.0693277 17.1218487,17.1218487 L17.1218487,17.1743697 L17.1218487,17.2794118 C17.1218487,17.4369748 17.5945378,21.5336134 17.9096639,23.2142857 C18.907563,28.0987395 23.3718487,30.8823529 23.5819328,30.987395 L23.6344538,31.039916 L23.6869748,31.092437 C24.2121849,31.355042 36.0819328,37.1848739 37.1848739,37.657563 C38.8130252,38.3928571 41.1239496,39.0231092 45.6407563,38.1827731 C51.5231092,37.0798319 54.4117647,32.8781513 54.5693277,32.7205882 L54.5168067,32.7731092 C60.6617647,24.5273109 72.6890756,8.50840336 74.4222689,6.56512605 C75.5777311,5.30462185 76.9432773,4.09663866 78.8865546,3.78151261 C80.3046218,3.51890756 81.9852941,3.7289916 84.0861345,4.67436975 C89.0756303,6.93277311 90.3886555,11.7647059 90.4411765,12.0798319 C90.4936975,12.237395 102.468487,81.7752101 102.468487,81.7752101 L102.521008,82.1953782 C102.888655,84.2436975 102.888655,84.2962185 101.523109,85.4516807 C101.365546,85.5567227 101.260504,85.6092437 101.155462,85.6617647 C101.102941,85.6617647 101.05042,85.6617647 100.997899,85.6617647 C100.420168,85.6092437 99.6323529,84.9264706 99.2647059,84.4537815 C99.1596639,84.3487395 86.9747899,66.7016807 86.9747899,66.7016807 C82.6680672,60.5567227 75.9978992,61.3445378 75.7352941,61.3970588 C75.6827731,61.3970588 54.3067227,65.0735294 54.3067227,65.0735294 C49.947479,65.8088235 47.3214286,68.1722689 44.8529412,73.3718487 C42.1218487,79.2016807 47.1113445,86.7121849 47.3214286,87.0273109 L47.3739496,87.1323529 L47.4264706,87.237395 C47.5315126,87.394958 59.2962185,100.997899 61.7647059,104.254202 C63.0777311,106.039916 61.5546218,107.878151 61.0819328,108.35084 C59.9264706,108.981092 54.9369748,111.607143 52.0483193,112.920168 C51.8382353,113.02521 51.6281513,113.077731 51.4180672,113.130252 C49.842437,113.392857 48.6869748,111.922269 48.5819328,111.764706 C48.5819328,111.764706 32.8781513,89.0231092 32.8781513,89.0231092 C32.8781513,89.0231092 31.460084,86.9222689 31.144958,84.2962185 C30.8298319,81.6701681 31.8802521,79.2016807 32.0378151,78.7815126 C32.7731092,77.6785714 38.8130252,68.802521 40.7563025,65.5987395 C41.8067227,63.9180672 43.592437,63.4978992 44.012605,63.3928571 C44.0651261,63.3928571 44.1176471,63.3928571 44.1176471,63.3928571 L44.1701681,63.3928571 L44.2226891,63.3928571 L75.9453782,57.6155462 C75.9453782,57.6155462 75.9978992,57.6155462 75.9978992,57.6155462 C77.9936975,57.2478992 81.7226891,55.5672269 81.6176471,51.6806723 C81.7752101,47.6365546 78.5714286,46.2710084 76.8907563,46.1134454 Z" id="Shape"></path>
                    </g>
                    <g id="PUNTOS_INTERMEDIOS_Y_SEMAFORO" transform="translate(2.626050, 16.806723)">
                        <path d="M115.703782,44.5903361 C115.756303,44.8529412 115.598739,45.0630252 115.336134,45.1155462 L98.3718487,48.7394958 C98.1092437,48.7920168 97.8991597,48.6344538 97.8466387,48.3718487 C97.7941176,48.1092437 97.9516807,47.8991597 98.2142857,47.8466387 L115.178571,44.2226891 C115.388655,44.1701681 115.651261,44.3277311 115.703782,44.5903361 Z" id="Shape" fill="#AC1737" fill-rule="nonzero"></path>
                        <path d="M51.2079832,86.6596639 C51.4180672,86.5546218 51.7331933,86.6071429 51.8382353,86.8172269 L60.3466387,101.943277 C60.4516807,102.153361 60.3991597,102.468487 60.1890756,102.573529 C59.9789916,102.678571 59.6638655,102.62605 59.5588235,102.415966 L51.0504202,87.289916 C50.8928571,87.0798319 50.9978992,86.8172269 51.2079832,86.6596639 Z" id="Shape" fill="#AC1737" fill-rule="nonzero"></path>
                        <g id="Group" transform="translate(118.172269, 40.966387)" fill-rule="nonzero">
                            <path d="M0.210084034,4.09663866 C0.210084034,1.8907563 1.99579832,0.105042017 4.20168067,0.105042017 L5.6197479,0.105042017 C7.82563025,0.105042017 9.61134454,1.8907563 9.61134454,4.09663866 L9.61134454,6.61764706 C9.61134454,8.82352941 7.82563025,10.6092437 5.6197479,10.6092437 L4.20168067,10.6092437 C1.99579832,10.6092437 0.210084034,8.82352941 0.210084034,6.61764706 L0.210084034,4.09663866 Z" id="Shape" fill="#AC1737"></path>
                            <path d="M3.78151261,6.46008403 C4.09663866,6.77521008 4.51680672,6.93277311 4.93697479,6.93277311 C5.40966387,6.93277311 5.67226891,6.72268908 5.67226891,6.35504202 C5.67226891,5.98739496 5.40966387,5.88235294 4.9894958,5.72478992 L4.41176471,5.46218487 C3.99159664,5.30462185 3.51890756,4.93697479 3.51890756,4.30672269 C3.51890756,3.62394958 4.14915966,3.0987395 4.9894958,3.0987395 C5.51470588,3.0987395 5.98739496,3.30882353 6.35504202,3.67647059 L5.93487395,4.14915966 C5.67226891,3.93907563 5.35714286,3.78151261 4.9894958,3.78151261 C4.56932773,3.78151261 4.30672269,3.99159664 4.30672269,4.30672269 C4.30672269,4.62184874 4.62184874,4.77941176 4.9894958,4.93697479 L5.56722689,5.19957983 C6.09243697,5.40966387 6.46008403,5.72478992 6.46008403,6.35504202 C6.46008403,7.03781513 5.88235294,7.66806723 4.88445378,7.66806723 C4.30672269,7.66806723 3.7289916,7.45798319 3.30882353,7.03781513 L3.78151261,6.46008403 Z" id="Shape" fill="#FFFFFF"></path>
                        </g>
                        <g id="Group" transform="translate(0.000000, 32.563025)" fill-rule="nonzero">
                            <path d="M0.105042017,4.30672269 C0.105042017,2.10084034 1.8907563,0.31512605 4.14915966,0.31512605 L10.2941176,0.31512605 C12.5,0.31512605 14.2857143,2.10084034 14.2857143,4.30672269 L14.2857143,6.82773109 C14.2857143,9.03361345 12.5,10.8193277 10.2941176,10.8193277 L4.14915966,10.8193277 C1.94327731,10.8193277 0.105042017,9.03361345 0.105042017,6.82773109 L0.105042017,4.30672269 Z" id="Shape" fill="#AC1737"></path>
                            <g transform="translate(3.676471, 3.151261)" fill="#FFFFFF" id="Shape">
                                <polygon points="0.367647059 0.262605042 2.99369748 0.262605042 2.99369748 0.892857143 1.15546218 0.892857143 1.15546218 2.10084034 2.73109244 2.10084034 2.73109244 2.73109244 1.15546218 2.73109244 1.15546218 4.56932773 0.367647059 4.56932773"></polygon>
                                <polygon points="4.04411765 0.262605042 4.83193277 0.262605042 4.83193277 3.99159664 6.61764706 3.99159664 6.61764706 4.62184874 4.04411765 4.62184874"></polygon>
                            </g>
                        </g>
                        <g id="Group" transform="translate(49.369748, 84.558824)" fill-rule="nonzero">
                            <path d="M0,4.41176471 C0,2.20588235 1.78571429,0.367647059 3.99159664,0.367647059 L6.67016807,0.367647059 C8.87605042,0.367647059 10.7142857,2.15336134 10.7142857,4.41176471 L10.7142857,7.09033613 C10.7142857,9.29621849 8.92857143,11.0819328 6.67016807,11.0819328 L3.99159664,11.0819328 C1.78571429,11.0819328 0,9.29621849 0,7.09033613 L0,4.41176471 Z" id="Shape" fill="#AC1737"></path>
                            <g transform="translate(2.626050, 3.151261)" fill="#FFFFFF" id="Shape">
                                <path d="M0.367647059,0.630252101 C0.367647059,0.367647059 0.577731092,0.210084034 0.840336134,0.210084034 C1.10294118,0.210084034 1.31302521,0.367647059 1.31302521,0.630252101 C1.31302521,0.892857143 1.10294118,1.05042017 0.840336134,1.05042017 C0.525210084,1.05042017 0.367647059,0.892857143 0.367647059,0.630252101 Z M0.420168067,1.62815126 L1.20798319,1.62815126 L1.20798319,4.88445378 L0.420168067,4.88445378 L0.420168067,1.62815126 Z"></path>
                                <path d="M2.57352941,3.88655462 C2.83613445,4.14915966 3.1512605,4.3592437 3.57142857,4.3592437 C4.04411765,4.3592437 4.3592437,4.09663866 4.3592437,3.7289916 C4.3592437,3.30882353 4.09663866,2.99369748 3.0987395,2.99369748 L3.0987395,2.41596639 C3.93907563,2.41596639 4.20168067,2.15336134 4.20168067,1.73319328 C4.20168067,1.36554622 3.93907563,1.15546218 3.57142857,1.15546218 C3.25630252,1.15546218 2.99369748,1.31302521 2.73109244,1.57563025 L2.31092437,1.10294118 C2.67857143,0.787815126 3.0987395,0.577731092 3.57142857,0.577731092 C4.3592437,0.577731092 4.93697479,0.99789916 4.93697479,1.68067227 C4.93697479,2.15336134 4.67436975,2.46848739 4.20168067,2.67857143 L4.20168067,2.73109244 C4.72689076,2.88865546 5.09453782,3.20378151 5.09453782,3.78151261 C5.09453782,4.56932773 4.41176471,4.9894958 3.62394958,4.9894958 C2.94117647,4.9894958 2.46848739,4.72689076 2.20588235,4.41176471 L2.57352941,3.88655462 Z"></path>
                            </g>
                        </g>
                        <g id="Group" transform="translate(107.668067, 40.441176)" fill-rule="nonzero">
                            <path d="M0.0525210084,4.51680672 C0.0525210084,2.31092437 1.83823529,0.472689076 4.04411765,0.472689076 L6.67016807,0.472689076 C8.87605042,0.472689076 10.7142857,2.25840336 10.7142857,4.51680672 L10.7142857,7.19537815 C10.7142857,9.4012605 8.92857143,11.2394958 6.67016807,11.2394958 L4.04411765,11.2394958 C1.83823529,11.2394958 0.0525210084,9.45378151 0.0525210084,7.19537815 L0.0525210084,4.51680672 Z" id="Shape" fill="#AC1737"></path>
                            <g transform="translate(2.626050, 3.151261)" fill="#FFFFFF" id="Shape">
                                <path d="M0.367647059,0.787815126 C0.367647059,0.525210084 0.577731092,0.367647059 0.840336134,0.367647059 C1.10294118,0.367647059 1.31302521,0.525210084 1.31302521,0.787815126 C1.31302521,1.05042017 1.10294118,1.20798319 0.840336134,1.20798319 C0.577731092,1.20798319 0.367647059,1.05042017 0.367647059,0.787815126 Z M0.420168067,1.78571429 L1.20798319,1.78571429 L1.20798319,5.04201681 L0.420168067,5.04201681 L0.420168067,1.78571429 Z"></path>
                                <path d="M2.31092437,4.62184874 C3.46638655,3.46638655 4.25420168,2.73109244 4.25420168,2.10084034 C4.25420168,1.62815126 3.99159664,1.36554622 3.57142857,1.36554622 C3.25630252,1.36554622 2.99369748,1.57563025 2.73109244,1.83823529 L2.31092437,1.41806723 C2.67857143,0.99789916 3.0987395,0.787815126 3.67647059,0.787815126 C4.46428571,0.787815126 5.04201681,1.31302521 5.04201681,2.10084034 C5.04201681,2.83613445 4.3592437,3.62394958 3.51890756,4.51680672 C3.7289916,4.51680672 4.04411765,4.46428571 4.20168067,4.46428571 L5.25210084,4.46428571 L5.25210084,5.09453782 L2.36344538,5.09453782 L2.36344538,4.62184874 L2.31092437,4.62184874 Z"></path>
                            </g>
                        </g>
                        <g id="Group" transform="translate(27.310924, 22.584034)" fill="#7B7C7D" fill-rule="nonzero">
                            <path d="M9.71638655,16.6491597 C9.9789916,16.6491597 10.1890756,16.4915966 10.2415966,16.2289916 L11.5546218,2.99369748 C11.5546218,2.73109244 11.3970588,2.5210084 11.1869748,2.5210084 L1.94327731,1.62815126 C1.68067227,1.62815126 1.47058824,1.78571429 1.41806723,2.04831933 C1.41806723,2.31092437 1.57563025,2.5210084 1.83823529,2.57352941 L10.4516807,3.41386555 C10.5567227,3.41386555 10.6092437,3.51890756 10.6092437,3.62394958 L9.4012605,16.1764706 C9.29621849,16.3865546 9.45378151,16.5966387 9.71638655,16.6491597 Z" id="Shape"></path>
                            <path d="M0.157563025,2.15336134 C4.13558077e-15,2.04831933 4.13558077e-15,1.73319328 0.210084034,1.68067227 L1.94327731,0.892857143 L3.67647059,0.105042017 C3.88655462,-4.94049246e-15 4.09663866,0.157563025 4.09663866,0.367647059 L3.88655462,2.31092437 L3.67647059,4.25420168 C3.67647059,4.46428571 3.41386555,4.56932773 3.25630252,4.46428571 L1.68067227,3.36134454 L0.157563025,2.15336134 Z" id="Shape"></path>
                        </g>
                        <path d="M47.5315126,4.77941176 C47.6890756,4.56932773 47.9516807,4.51680672 48.1617647,4.67436975 L62.605042,14.3382353 C62.8151261,14.4957983 62.8676471,14.7584034 62.710084,14.9684874 C62.552521,15.1785714 62.289916,15.2310924 62.0798319,15.0735294 L47.6365546,5.40966387 C47.4264706,5.25210084 47.3739496,4.9894958 47.5315126,4.77941176 Z" id="Shape" fill="#AC1737" fill-rule="nonzero"></path>
                        <path d="M22.1638655,23.4243697 C22.4264706,23.4768908 22.5840336,23.6869748 22.5315126,23.9495798 L21.3235294,34.0861345 C21.2710084,34.3487395 21.0609244,34.5063025 20.7983193,34.4537815 C20.5357143,34.4012605 20.3781513,34.1911765 20.4306723,33.9285714 L21.6386555,23.7920168 C21.6911765,23.5819328 21.9012605,23.4243697 22.1638655,23.4243697 Z" id="Shape" fill="#AC1737" fill-rule="nonzero"></path>
                        <g id="Group" transform="translate(13.655462, 31.512605)">
                            <path d="M0.157563025,4.46428571 C0.157563025,2.25840336 1.94327731,0.472689076 4.14915966,0.472689076 L7.72058824,0.472689076 C9.92647059,0.472689076 11.7121849,2.25840336 11.7121849,4.46428571 L11.7121849,8.82352941 C11.7121849,11.0294118 9.92647059,12.8151261 7.72058824,12.8151261 L4.14915966,12.8151261 C1.94327731,12.8151261 0.157563025,11.0294118 0.157563025,8.82352941 L0.157563025,4.46428571 Z" id="Shape" fill="#7B7C7D" fill-rule="nonzero"></path>
                            <g transform="translate(1.050420, 1.050420)" fill-rule="nonzero" id="Shape">
                                <path d="M4.25420168,10.6092437 C2.20588235,10.6092437 0.525210084,8.92857143 0.525210084,6.8802521 L0.525210084,4.3592437 C0.525210084,2.31092437 2.20588235,0.630252101 4.25420168,0.630252101 L5.67226891,0.630252101 C7.72058824,0.630252101 9.4012605,2.31092437 9.4012605,4.3592437 L9.4012605,6.8802521 C9.4012605,8.92857143 7.72058824,10.6092437 5.67226891,10.6092437 L4.25420168,10.6092437 Z" fill="#FFFFFF"></path>
                                <path d="M5.67226891,0.840336134 C7.61554622,0.840336134 9.13865546,2.41596639 9.13865546,4.30672269 L9.13865546,6.82773109 C9.13865546,8.7710084 7.56302521,10.2941176 5.67226891,10.2941176 L4.25420168,10.2941176 C2.31092437,10.2941176 0.787815126,8.71848739 0.787815126,6.82773109 L0.787815126,4.30672269 C0.787815126,2.36344538 2.36344538,0.840336134 4.25420168,0.840336134 L5.67226891,0.840336134 Z M5.67226891,0.31512605 L4.25420168,0.31512605 C2.04831933,0.31512605 0.262605042,2.10084034 0.262605042,4.30672269 L0.262605042,6.82773109 C0.262605042,9.03361345 2.04831933,10.8193277 4.25420168,10.8193277 L5.67226891,10.8193277 C7.87815126,10.8193277 9.66386555,9.03361345 9.66386555,6.82773109 L9.66386555,4.30672269 C9.66386555,2.10084034 7.87815126,0.31512605 5.67226891,0.31512605 Z" fill="#C7C6C5"></path>
                            </g>
                            <g id="Clipped" transform="translate(1.050420, 1.050420)">
                                <mask id="mask-2" fill="white">
                                    <use xlink:href="#path-1"></use>
                                </mask>
                                <g id="SVGID_17_"></g>
                                <g id="Group" mask="url(#mask-2)" fill="#1E1E1C" fill-rule="nonzero">
                                    <g transform="translate(-2.626050, 1.050420)" id="Rectangle-path">
                                        <rect x="0" y="0.157563025" width="2.20588235" height="2.20588235"></rect>
                                        <rect x="2.20588235" y="2.31092437" width="2.20588235" height="2.20588235"></rect>
                                        <rect x="4.3592437" y="0.157563025" width="2.20588235" height="2.20588235"></rect>
                                        <rect x="6.56512605" y="2.31092437" width="2.20588235" height="2.20588235"></rect>
                                        <rect x="0" y="4.51680672" width="2.20588235" height="2.20588235"></rect>
                                        <rect x="2.20588235" y="6.72268908" width="2.20588235" height="2.20588235"></rect>
                                        <rect x="4.3592437" y="4.51680672" width="2.20588235" height="2.20588235"></rect>
                                        <rect x="6.56512605" y="6.72268908" width="2.20588235" height="2.20588235"></rect>
                                        <rect x="8.7710084" y="0.157563025" width="2.20588235" height="2.20588235"></rect>
                                        <rect x="10.9243697" y="2.31092437" width="2.20588235" height="2.20588235"></rect>
                                        <rect x="8.7710084" y="4.51680672" width="2.20588235" height="2.20588235"></rect>
                                        <rect x="10.9243697" y="6.72268908" width="2.20588235" height="2.20588235"></rect>
                                    </g>
                                </g>
                            </g>
                            <path d="M6.72268908,1.8907563 C8.66596639,1.8907563 10.1890756,3.46638655 10.1890756,5.35714286 L10.1890756,7.87815126 C10.1890756,9.82142857 8.61344538,11.3445378 6.72268908,11.3445378 L5.30462185,11.3445378 C3.36134454,11.3445378 1.83823529,9.76890756 1.83823529,7.87815126 L1.83823529,5.35714286 C1.83823529,3.41386555 3.41386555,1.8907563 5.30462185,1.8907563 L6.72268908,1.8907563 Z M6.72268908,1.36554622 L5.30462185,1.36554622 C3.0987395,1.36554622 1.31302521,3.1512605 1.31302521,5.35714286 L1.31302521,7.87815126 C1.31302521,10.0840336 3.0987395,11.8697479 5.30462185,11.8697479 L6.72268908,11.8697479 C8.92857143,11.8697479 10.7142857,10.0840336 10.7142857,7.87815126 L10.7142857,5.35714286 C10.7142857,3.1512605 8.92857143,1.36554622 6.72268908,1.36554622 Z" id="Shape" fill="#C7C6C5" fill-rule="nonzero"></path>
                        </g>
                        <g id="Group" transform="translate(28.361345, 34.138655)" fill-rule="nonzero">
                            <path d="M0,4.20168067 C0,1.99579832 1.78571429,0.210084034 3.99159664,0.210084034 L17.5420168,0.210084034 C19.7478992,0.210084034 21.5336134,1.99579832 21.5336134,4.20168067 L21.5336134,8.56092437 C21.5336134,10.7668067 19.7478992,12.552521 17.5420168,12.552521 L3.99159664,12.552521 C1.78571429,12.552521 0,10.7668067 0,8.56092437 L0,4.20168067 Z" id="Shape" fill="#7B7C7D"></path>
                            <g transform="translate(0.525210, 1.050420)" id="Shape">
                                <g>
                                    <path d="M4.3592437,10.3466387 C2.31092437,10.3466387 0.630252101,8.66596639 0.630252101,6.61764706 L0.630252101,4.09663866 C0.630252101,2.04831933 2.31092437,0.367647059 4.3592437,0.367647059 L5.77731092,0.367647059 C7.82563025,0.367647059 9.50630252,2.04831933 9.50630252,4.09663866 L9.50630252,6.61764706 C9.50630252,8.66596639 7.82563025,10.3466387 5.77731092,10.3466387 L4.3592437,10.3466387 Z" fill="#C01724"></path>
                                    <path d="M5.77731092,0.577731092 C7.72058824,0.577731092 9.24369748,2.15336134 9.24369748,4.04411765 L9.24369748,6.56512605 C9.24369748,8.50840336 7.66806723,10.0315126 5.77731092,10.0315126 L4.3592437,10.0315126 C2.41596639,10.0315126 0.892857143,8.45588235 0.892857143,6.56512605 L0.892857143,4.04411765 C0.892857143,2.10084034 2.46848739,0.577731092 4.3592437,0.577731092 L5.77731092,0.577731092 Z M5.77731092,0.0525210084 L4.3592437,0.0525210084 C2.15336134,0.0525210084 0.367647059,1.83823529 0.367647059,4.04411765 L0.367647059,6.56512605 C0.367647059,8.7710084 2.15336134,10.5567227 4.3592437,10.5567227 L5.77731092,10.5567227 C7.98319328,10.5567227 9.76890756,8.7710084 9.76890756,6.56512605 L9.76890756,4.04411765 C9.76890756,1.83823529 7.98319328,0.0525210084 5.77731092,0.0525210084 Z" fill="#AA1920"></path>
                                </g>
                                <g transform="translate(10.504202, 0.000000)">
                                    <path d="M4.20168067,10.3466387 C2.15336134,10.3466387 0.472689076,8.66596639 0.472689076,6.61764706 L0.472689076,4.09663866 C0.472689076,2.04831933 2.15336134,0.367647059 4.20168067,0.367647059 L5.6197479,0.367647059 C7.66806723,0.367647059 9.3487395,2.04831933 9.3487395,4.09663866 L9.3487395,6.61764706 C9.3487395,8.66596639 7.66806723,10.3466387 5.6197479,10.3466387 L4.20168067,10.3466387 Z" fill="#009548"></path>
                                    <path d="M5.6197479,0.577731092 C7.56302521,0.577731092 9.08613445,2.15336134 9.08613445,4.04411765 L9.08613445,6.56512605 C9.08613445,8.50840336 7.5105042,10.0315126 5.6197479,10.0315126 L4.20168067,10.0315126 C2.25840336,10.0315126 0.735294118,8.45588235 0.735294118,6.56512605 L0.735294118,4.04411765 C0.735294118,2.10084034 2.31092437,0.577731092 4.20168067,0.577731092 L5.6197479,0.577731092 Z M5.6197479,0.0525210084 L4.20168067,0.0525210084 C1.99579832,0.0525210084 0.210084034,1.83823529 0.210084034,4.04411765 L0.210084034,6.56512605 C0.210084034,8.7710084 1.99579832,10.5567227 4.20168067,10.5567227 L5.6197479,10.5567227 C7.82563025,10.5567227 9.61134454,8.7710084 9.61134454,6.56512605 L9.61134454,4.04411765 C9.66386555,1.83823529 7.87815126,0.0525210084 5.6197479,0.0525210084 Z" fill="#006139"></path>
                                </g>
                            </g>
                        </g>
                        <g id="Group" transform="translate(47.268908, 0.000000)" fill-rule="nonzero">
                            <path d="M0.0525210084,4.3592437 C0.0525210084,2.15336134 1.83823529,0.367647059 4.09663866,0.367647059 L6.14495798,0.367647059 C8.35084034,0.367647059 10.1890756,2.15336134 10.1890756,4.3592437 L10.1890756,7.24789916 C10.1890756,9.45378151 8.40336134,11.2920168 6.14495798,11.2920168 L4.09663866,11.2920168 C1.8907563,11.2920168 0.0525210084,9.50630252 0.0525210084,7.24789916 L0.0525210084,4.3592437 Z" id="Shape" fill="#AC1737"></path>
                            <g transform="translate(2.626050, 3.151261)" fill="#FFFFFF" id="Shape">
                                <path d="M0.105042017,0.735294118 C0.105042017,0.472689076 0.31512605,0.31512605 0.577731092,0.31512605 C0.840336134,0.31512605 1.05042017,0.472689076 1.05042017,0.735294118 C1.05042017,0.99789916 0.840336134,1.15546218 0.577731092,1.15546218 C0.262605042,1.20798319 0.105042017,0.99789916 0.105042017,0.735294118 Z M0.157563025,1.73319328 L0.945378151,1.73319328 L0.945378151,4.9894958 L0.157563025,4.9894958 L0.157563025,1.73319328 Z"></path>
                                <path d="M2.25840336,4.41176471 L3.20378151,4.41176471 L3.20378151,1.62815126 L2.41596639,1.62815126 L2.41596639,1.15546218 C2.83613445,1.05042017 3.1512605,0.945378151 3.41386555,0.787815126 L3.99159664,0.787815126 L3.99159664,4.41176471 L4.83193277,4.41176471 L4.83193277,5.04201681 L2.25840336,5.04201681 L2.25840336,4.41176471 Z"></path>
                            </g>
                        </g>
                    </g>
                    <g id="textos_y_numeros" fill="#7B7C7D" fill-rule="nonzero">
                        <path d="M0.420168067,44.1701681 L1.47058824,44.1701681 L1.47058824,41.0714286 L0.577731092,41.0714286 L0.577731092,40.5462185 C1.05042017,40.4411765 1.36554622,40.3361345 1.68067227,40.1785714 L2.31092437,40.1785714 L2.31092437,44.1701681 L3.25630252,44.1701681 L3.25630252,44.8529412 L0.420168067,44.8529412 L0.420168067,44.1701681 Z" id="Shape"></path>
                        <path d="M19.7478992,12.552521 C21.0609244,11.2920168 21.9012605,10.4516807 21.9012605,9.71638655 C21.9012605,9.24369748 21.6386555,8.87605042 21.1134454,8.87605042 C20.7457983,8.87605042 20.4306723,9.13865546 20.1680672,9.4012605 L19.6953782,8.92857143 C20.1155462,8.45588235 20.5357143,8.19327731 21.2184874,8.19327731 C22.1113445,8.19327731 22.6890756,8.7710084 22.6890756,9.66386555 C22.6890756,10.5042017 21.9012605,11.3445378 20.9558824,12.342437 C21.2184874,12.342437 21.5336134,12.289916 21.7436975,12.289916 L22.8991597,12.289916 L22.8991597,13.0252101 L19.6953782,13.0252101 L19.6953782,12.552521 L19.7478992,12.552521 Z" id="Shape"></path>
                        <path d="M31.144958,26.4180672 C31.407563,26.7331933 31.7752101,26.9432773 32.2478992,26.9432773 C32.7731092,26.9432773 33.1407563,26.6806723 33.1407563,26.2079832 C33.1407563,25.7352941 32.8256303,25.4201681 31.7752101,25.4201681 L31.7752101,24.789916 C32.7205882,24.789916 32.9831933,24.4747899 32.9831933,24.0546218 C32.9831933,23.6869748 32.7205882,23.4243697 32.3004202,23.4243697 C31.9327731,23.4243697 31.6176471,23.5819328 31.355042,23.8445378 L30.9348739,23.3193277 C31.355042,22.9516807 31.7752101,22.7415966 32.3529412,22.7415966 C33.2457983,22.7415966 33.8760504,23.1617647 33.8760504,24.0021008 C33.8760504,24.5273109 33.5609244,24.894958 33.0357143,25.105042 L33.0357143,25.157563 C33.6134454,25.3151261 34.0336134,25.6827731 34.0336134,26.3130252 C34.0336134,27.1533613 33.2983193,27.6785714 32.4054622,27.6785714 C31.6176471,27.6785714 31.144958,27.3634454 30.8298319,26.9957983 L31.144958,26.4180672 Z" id="Shape"></path>
                        <path d="M51.8382353,34.3487395 L51.2605042,34.3487395 L51.2605042,35.5567227 L50.4201681,35.5567227 L50.4201681,34.3487395 L48.3193277,34.3487395 L48.3193277,33.7710084 L50.210084,30.8298319 L51.2079832,30.8298319 L51.2079832,33.6659664 L51.7857143,33.6659664 L51.7857143,34.3487395 L51.8382353,34.3487395 Z M50.4201681,33.6659664 L50.4201681,32.6155462 C50.4201681,32.3529412 50.4201681,31.9327731 50.4726891,31.6176471 L50.4201681,31.6176471 C50.3151261,31.8802521 50.157563,32.0903361 50.052521,32.3529412 L49.2121849,33.6659664 L50.4201681,33.6659664 Z" id="Shape"></path>
                        <path d="M97.2689076,3.57142857 C97.5315126,3.83403361 97.8991597,4.09663866 98.3718487,4.09663866 C98.8970588,4.09663866 99.2647059,3.78151261 99.2647059,3.20378151 C99.2647059,2.62605042 98.8970588,2.31092437 98.3718487,2.31092437 C98.0567227,2.31092437 97.8991597,2.41596639 97.6365546,2.57352941 L97.2163866,2.31092437 L97.3739496,0 L99.894958,0 L99.894958,0.735294118 L98.1092437,0.735294118 L98.0042017,1.8907563 C98.2142857,1.78571429 98.3718487,1.73319328 98.6344538,1.73319328 C99.4222689,1.73319328 100.105042,2.20588235 100.105042,3.20378151 C100.105042,4.25420168 99.3172269,4.83193277 98.4243697,4.83193277 C97.6365546,4.83193277 97.1638655,4.51680672 96.7962185,4.20168067 L97.2689076,3.57142857 Z" id="Shape"></path>
                        <path d="M113.287815,94.3802521 C113.130252,94.1701681 112.815126,94.012605 112.552521,94.012605 C111.97479,94.012605 111.502101,94.4327731 111.44958,95.7457983 C111.712185,95.3781513 112.132353,95.1680672 112.447479,95.1680672 C113.287815,95.1680672 113.813025,95.6407563 113.813025,96.6386555 C113.813025,97.5840336 113.130252,98.2142857 112.342437,98.2142857 C111.397059,98.2142857 110.609244,97.4789916 110.609244,95.9033613 C110.609244,94.0651261 111.502101,93.3298319 112.447479,93.3298319 C113.02521,93.3298319 113.445378,93.592437 113.707983,93.855042 L113.287815,94.3802521 Z M113.02521,96.6386555 C113.02521,96.0609244 112.762605,95.7983193 112.289916,95.7983193 C112.027311,95.7983193 111.712185,95.9558824 111.44958,96.3235294 C111.554622,97.1638655 111.869748,97.5315126 112.342437,97.5315126 C112.710084,97.5840336 113.02521,97.2163866 113.02521,96.6386555 Z" id="Shape"></path>
                        <path d="M85.8193277,71.5336134 L83.6134454,71.5336134 L83.6134454,70.7983193 L86.7647059,70.7983193 L86.7647059,71.3235294 C85.6617647,72.6890756 85.4516807,73.6869748 85.3991597,75.5252101 L84.5063025,75.5252101 C84.6113445,73.8445378 84.9264706,72.7941176 85.8193277,71.5336134 Z" id="Shape"></path>
                        <path d="M58.4558824,79.0966387 C58.0882353,78.7815126 57.8256303,78.4663866 57.8256303,77.9411765 C57.8256303,77.1533613 58.4558824,76.6806723 59.2436975,76.6806723 C60.0840336,76.6806723 60.6092437,77.2058824 60.6092437,77.9411765 C60.6092437,78.4138655 60.2941176,78.7815126 59.9789916,79.0441176 L59.9789916,79.0966387 C60.3991597,79.3592437 60.8193277,79.6743697 60.8193277,80.3046218 C60.8193277,81.039916 60.1890756,81.5651261 59.2436975,81.5651261 C58.2983193,81.5651261 57.6680672,81.039916 57.6680672,80.2521008 C57.5630252,79.7268908 57.9831933,79.3592437 58.4558824,79.0966387 Z M59.1911765,80.987395 C59.6638655,80.987395 59.9789916,80.7247899 59.9789916,80.3046218 C59.9789916,79.7794118 59.5063025,79.6218487 58.8235294,79.3592437 C58.5084034,79.5693277 58.2983193,79.8844538 58.2983193,80.2521008 C58.3508403,80.6722689 58.7184874,80.987395 59.1911765,80.987395 Z M59.8739496,78.0462185 C59.8739496,77.6260504 59.6113445,77.3109244 59.1911765,77.3109244 C58.8235294,77.3109244 58.5609244,77.5735294 58.5609244,77.9411765 C58.5609244,78.4138655 58.9810924,78.6239496 59.5063025,78.8340336 C59.7689076,78.6239496 59.8739496,78.3613445 59.8739496,78.0462185 Z" id="Shape"></path>
                        <path d="M74.4747899,113.865546 C74.6323529,114.07563 74.947479,114.233193 75.210084,114.233193 C75.7878151,114.233193 76.2605042,113.813025 76.3130252,112.5 C76.0504202,112.815126 75.6302521,113.02521 75.262605,113.02521 C74.4747899,113.02521 73.8970588,112.552521 73.8970588,111.554622 C73.8970588,110.609244 74.5798319,110.031513 75.3676471,110.031513 C76.3130252,110.031513 77.0483193,110.766807 77.0483193,112.342437 C77.0483193,114.180672 76.1554622,114.915966 75.210084,114.915966 C74.6323529,114.915966 74.2121849,114.653361 73.9495798,114.390756 L74.4747899,113.865546 Z M76.3130252,111.869748 C76.2079832,111.029412 75.8928571,110.661765 75.4201681,110.661765 C75.052521,110.661765 74.737395,110.976891 74.737395,111.554622 C74.737395,112.132353 75,112.394958 75.4726891,112.394958 C75.7352941,112.447479 76.0504202,112.289916 76.3130252,111.869748 Z" id="Shape"></path>
                        <g id="Group" transform="translate(45.693277, 119.747899)">
                            <path d="M0.105042017,4.30672269 L1.15546218,4.30672269 L1.15546218,1.20798319 L0.262605042,1.20798319 L0.262605042,0.682773109 C0.735294118,0.577731092 1.05042017,0.472689076 1.36554622,0.31512605 L1.99579832,0.31512605 L1.99579832,4.30672269 L2.94117647,4.30672269 L2.94117647,4.9894958 L0.105042017,4.9894958 L0.105042017,4.30672269 Z" id="Shape"></path>
                            <path d="M3.62394958,2.62605042 C3.62394958,1.05042017 4.25420168,0.210084034 5.19957983,0.210084034 C6.14495798,0.210084034 6.77521008,1.05042017 6.77521008,2.62605042 C6.77521008,4.20168067 6.14495798,5.09453782 5.19957983,5.09453782 C4.25420168,5.09453782 3.62394958,4.25420168 3.62394958,2.62605042 Z M6.03991597,2.62605042 C6.03991597,1.31302521 5.72478992,0.892857143 5.25210084,0.892857143 C4.77941176,0.892857143 4.46428571,1.31302521 4.46428571,2.62605042 C4.46428571,3.93907563 4.77941176,4.41176471 5.25210084,4.41176471 C5.72478992,4.46428571 6.03991597,3.99159664 6.03991597,2.62605042 Z" id="Shape"></path>
                        </g>
                        <g id="Group" transform="translate(23.109244, 84.558824)">
                            <path d="M0.210084034,4.04411765 L1.2605042,4.04411765 L1.2605042,0.945378151 L0.367647059,0.945378151 L0.367647059,0.420168067 C0.840336134,0.31512605 1.15546218,0.210084034 1.47058824,0.0525210084 L2.10084034,0.0525210084 L2.10084034,4.04411765 L3.04621849,4.04411765 L3.04621849,4.72689076 L0.210084034,4.72689076 L0.210084034,4.04411765 Z" id="Shape"></path>
                            <path d="M3.99159664,4.04411765 L5.04201681,4.04411765 L5.04201681,0.945378151 L4.20168067,0.945378151 L4.20168067,0.420168067 C4.67436975,0.31512605 4.9894958,0.210084034 5.30462185,0.0525210084 L5.93487395,0.0525210084 L5.93487395,4.04411765 L6.8802521,4.04411765 L6.8802521,4.72689076 L4.04411765,4.72689076 L4.04411765,4.04411765 L3.99159664,4.04411765 Z" id="Shape"></path>
                        </g>
                        <g id="Group" transform="translate(34.138655, 64.075630)">
                            <path d="M0.157563025,4.46428571 L1.20798319,4.46428571 L1.20798319,1.36554622 L0.31512605,1.36554622 L0.31512605,0.840336134 C0.787815126,0.735294118 1.10294118,0.630252101 1.41806723,0.472689076 L2.04831933,0.472689076 L2.04831933,4.46428571 L2.99369748,4.46428571 L2.99369748,5.14705882 L0.157563025,5.14705882 L0.157563025,4.46428571 Z" id="Shape"></path>
                            <path d="M3.67647059,4.67436975 C4.9894958,3.41386555 5.82983193,2.57352941 5.82983193,1.83823529 C5.82983193,1.36554622 5.56722689,0.99789916 5.04201681,0.99789916 C4.67436975,0.99789916 4.3592437,1.2605042 4.09663866,1.52310924 L3.62394958,1.05042017 C4.04411765,0.577731092 4.46428571,0.31512605 5.14705882,0.31512605 C6.03991597,0.31512605 6.61764706,0.892857143 6.61764706,1.78571429 C6.61764706,2.62605042 5.82983193,3.46638655 4.88445378,4.46428571 C5.14705882,4.46428571 5.46218487,4.41176471 5.67226891,4.41176471 L6.82773109,4.41176471 L6.82773109,5.14705882 L3.67647059,5.14705882 L3.67647059,4.67436975 Z" id="Shape"></path>
                        </g>
                        <g id="Group" transform="translate(89.810924, 49.369748)">
                            <path d="M0.105042017,4.46428571 L1.15546218,4.46428571 L1.15546218,1.36554622 L0.262605042,1.36554622 L0.262605042,0.840336134 C0.735294118,0.735294118 1.05042017,0.630252101 1.36554622,0.472689076 L1.99579832,0.472689076 L1.99579832,4.46428571 L2.94117647,4.46428571 L2.94117647,5.14705882 L0.105042017,5.14705882 L0.105042017,4.46428571 Z" id="Shape"></path>
                            <path d="M3.93907563,3.99159664 C4.20168067,4.30672269 4.56932773,4.51680672 5.04201681,4.51680672 C5.56722689,4.51680672 5.93487395,4.25420168 5.93487395,3.78151261 C5.93487395,3.30882353 5.6197479,2.99369748 4.56932773,2.99369748 L4.56932773,2.36344538 C5.51470588,2.36344538 5.77731092,2.04831933 5.77731092,1.62815126 C5.77731092,1.2605042 5.51470588,0.99789916 5.09453782,0.99789916 C4.72689076,0.99789916 4.41176471,1.15546218 4.14915966,1.41806723 L3.7289916,0.892857143 C4.14915966,0.525210084 4.56932773,0.31512605 5.14705882,0.31512605 C6.03991597,0.31512605 6.67016807,0.735294118 6.67016807,1.57563025 C6.67016807,2.10084034 6.35504202,2.46848739 5.82983193,2.67857143 L5.82983193,2.73109244 C6.40756303,2.88865546 6.82773109,3.25630252 6.82773109,3.88655462 C6.82773109,4.72689076 6.09243697,5.25210084 5.19957983,5.25210084 C4.41176471,5.25210084 3.93907563,4.93697479 3.62394958,4.56932773 L3.93907563,3.99159664 Z" id="Shape"></path>
                        </g>
                    </g>
                </g>
            </g>
        </g>
    </g>
</svg>